<?xml version="1.0" encoding="utf-8"?>
<!-- Generator: Adobe Illustrator 16.0.0, SVG Export Plug-In . SVG Version: 6.00 Build 0)  -->
<!DOCTYPE svg PUBLIC "-//W3C//DTD SVG 1.1//EN" "http://www.w3.org/Graphics/SVG/1.1/DTD/svg11.dtd">
<svg version="1.1" id="圖層_1" xmlns="http://www.w3.org/2000/svg" xmlns:xlink="http://www.w3.org/1999/xlink" x="0px" y="0px"
	 width="640px" height="1200px" viewBox="0 0 640 1200" enable-background="new 0 0 640 1200" xml:space="preserve">
<g>
	<defs>
		<rect id="SVGID_5_" x="-801" y="-1" width="642" height="1202"/>
	</defs>
	<clipPath id="SVGID_2_">
		<use xlink:href="#SVGID_5_"  overflow="visible"/>
	</clipPath>
	<g clip-path="url(#SVGID_2_)">
		<rect x="-1080.775" y="-42.481" fill="#F7D793" width="2040.888" height="1257.752"/>
		<g>
			<g>
				<defs>
					<polygon id="SVGID_7_" points="-2049.872,-208.331 -8.984,-208.331 -1.186,1261.391 -2042.073,1261.391 					"/>
				</defs>
				<clipPath id="SVGID_4_">
					<use xlink:href="#SVGID_7_"  overflow="visible"/>
				</clipPath>
				<path opacity="0.9" clip-path="url(#SVGID_4_)" fill="#F6DA97" enable-background="new    " d="M-522.455-423.427
					c34.93,50.556,78.602,94.051,120.804,138.705c81.867,86.625,160.241,172.354,252.484,245.715
					C-64.124,28.623,7.88,112.361,83.57,192.453c54.725,57.904,115.343,107.983,170.019,165.329
					c40.683,42.668,77.641,81.423,68.192,150.058c-6.113,44.431-16.427,94.583-28.971,137.592
					c-10.211,35.013-22.525,70.127-34.004,104.764c-15.741,47.492-38.409,73.854-70.304,110.011
					c-78.998,89.562-151.147,179.462-250.96,240.299c-56.813,34.624-90.026,49.675-153.013,40.085
					c-77.241-11.766-160.219-34.753-219.415-90.182c-71.944-67.365-130.167-145.599-173.841-238.56
					c-24.793-52.763-43.361-107.25-65.596-160.479c-46.329-110.914-108.811-203.61-176.497-298.456
					c-56.557-79.262-101.403-185.62-86.18-292.483c16.073-112.832,74.442-220.022,150.499-299.138
					c42.488-44.198,82.859-78.406,134.611-108.127c26.778-15.382,85.154-74.433,116.276-65.14L-522.455-423.427z"/>
			</g>
			<g>
				<defs>
					<polygon id="SVGID_9_" points="-2049.872,-208.331 -8.984,-208.331 -32.991,1215.271 -2073.879,1215.271 					"/>
				</defs>
				<clipPath id="SVGID_6_">
					<use xlink:href="#SVGID_9_"  overflow="visible"/>
				</clipPath>
				<path clip-path="url(#SVGID_6_)" fill="#F4D08A" d="M-1300.572-893.62c75.614,15.516,154.305,17.673,232.455,22.055
					c151.605,8.499,298.996,19.083,450.337,7.455c139.52-10.727,278.93,3.352,419.099,11.21
					c101.344,5.68,202.297-0.328,303.142,4.903c75.035,3.892,143.192,7.419,188.892,75.216
					c29.585,43.881,59.568,96.224,81.568,144.15c17.912,39.015,33.803,79.846,50.142,119.571
					c22.411,54.472,20.893,96.158,18.01,153.989c-7.136,143.246-7.138,281.164-58.205,416.385
					c-29.065,76.97-50.23,117.425-121.021,160.791C177.033,275.281,75.46,323.357-28.369,323.515
					c-126.189,0.195-247.375-20.391-365.824-65.812c-67.235-25.782-129.621-58.18-194.668-86.465
					c-135.536-58.942-272.61-88.678-416.621-116.023c-120.344-22.853-250.735-79.026-321.373-185.007
					c-74.582-111.894-102.276-253.607-89.691-385.301c7.029-73.57,19.966-136.66,47.906-205.181
					c14.457-35.457,25.459-135.074,64.095-152.515L-1300.572-893.62z"/>
			</g>
			<g>
				<defs>
					<polygon id="SVGID_11_" points="-2049.872,-208.331 -8.984,-208.331 -14.978,1239.86 -2055.865,1239.86 					"/>
				</defs>
				<clipPath id="SVGID_8_">
					<use xlink:href="#SVGID_11_"  overflow="visible"/>
				</clipPath>
				<path clip-path="url(#SVGID_8_)" fill="#E89021" d="M-1165.564-721.584c60.782,12.472,124.044,14.206,186.867,17.728
					c121.871,6.832,240.355,15.34,362.019,5.991c112.156-8.621,224.226,2.695,336.906,9.011
					c81.469,4.565,162.622-0.262,243.688,3.944c60.322,3.128,115.111,5.961,151.852,60.465
					c23.781,35.275,47.883,77.352,65.571,115.877c14.403,31.365,27.173,64.19,40.309,96.126
					c18.013,43.788,16.793,77.297,14.477,123.787c-5.734,115.153-5.737,226.021-46.788,334.729
					c-23.371,61.874-40.384,94.394-97.293,129.252c-69.779,42.75-151.437,81.398-234.906,81.526
					c-101.446,0.156-198.859-16.395-294.08-52.905c-54.051-20.723-104.203-46.771-156.493-69.511
					C-702.389,87.059-812.579,63.152-928.348,41.17c-96.744-18.37-201.561-63.53-258.349-148.726
					c-59.958-89.948-82.22-203.871-72.101-309.738c5.651-59.143,16.049-109.858,38.509-164.943
					c11.627-28.504,20.47-108.584,51.527-122.604L-1165.564-721.584z"/>
			</g>
			<g>
				<defs>
					<polygon id="SVGID_13_" points="-2049.872,-208.331 -8.984,-208.331 -13.887,1239.86 -2054.774,1239.86 					"/>
				</defs>
				<clipPath id="SVGID_10_">
					<use xlink:href="#SVGID_13_"  overflow="visible"/>
				</clipPath>
				<path opacity="0.2" clip-path="url(#SVGID_10_)" fill="#EED697" enable-background="new    " d="M-1186.696-107.555
					c56.788,85.195,161.605,130.357,258.351,148.726c115.767,21.982,225.957,45.89,334.911,93.268
					c52.29,22.739,102.442,48.786,156.493,69.508c95.219,36.513,192.634,53.062,294.08,52.905
					c83.468-0.126,165.125-38.775,234.904-81.524c56.911-34.86,73.924-67.38,97.293-129.253
					C103.925-28.206-78.715,27.59-231.621,71.763c-142.182,41.075-450.228,18.599-665.517-118.368
					c-144.69-92.052-132.291-255.279-288.03-279.183c-88.41-13.57-106.186,39.574-55.566,101.276
					C-1228.482-183.072-1210.594-143.406-1186.696-107.555z"/>
			</g>
		</g>
	</g>
</g>
<g>
	<defs>
		<rect id="SVGID_251_" x="-1" width="642" height="1202"/>
	</defs>
	<clipPath id="SVGID_12_">
		<use xlink:href="#SVGID_251_"  overflow="visible"/>
	</clipPath>
	<g id="圖層_1_9_" clip-path="url(#SVGID_12_)">
		<rect x="-52.27" y="-9.5" fill="#208567" width="767.387" height="1232.991"/>
		<g opacity="0.3" enable-background="new    ">
			<g>
				<defs>
					<rect id="SVGID_253_" x="-79.271" y="-35.365" width="855.085" height="1308.222"/>
				</defs>
				<clipPath id="SVGID_14_">
					<use xlink:href="#SVGID_253_"  overflow="visible"/>
				</clipPath>
				<g clip-path="url(#SVGID_14_)">
					<g opacity="0.8286">
						<path fill="none" stroke="#096D52" stroke-width="5" stroke-miterlimit="10" d="M26.647-69.609
							c0,24.037-15.205,24.037-15.205,48.073c0,24.037,15.205,24.037,15.205,48.073c0,24.038-15.205,24.038-15.205,48.074
							c0,24.037,15.205,24.037,15.205,48.075c0,24.037-15.205,24.037-15.205,48.072c0,24.037,15.205,24.037,15.205,48.074
							c0,24.035-15.205,24.035-15.205,48.073s15.205,24.038,15.205,48.075c0,24.036-15.205,24.036-15.205,48.073
							c0,24.034,15.205,24.034,15.205,48.069c0,24.037-15.205,24.037-15.205,48.072c0,24.038,15.205,24.038,15.205,48.077
							c0,24.036-15.205,24.036-15.205,48.072c0,24.038,15.205,24.038,15.205,48.074s-15.205,24.036-15.205,48.072
							c0,24.037,15.205,24.037,15.205,48.073c0,24.037-15.205,24.037-15.205,48.074c0,24.04,15.205,24.04,15.205,48.078
							s-15.205,24.039-15.205,48.079c0,24.038,15.205,24.038,15.205,48.075c0,24.039-15.205,24.039-15.205,48.079
							c0,24.038,15.205,24.038,15.205,48.074c0,24.039-15.205,24.039-15.205,48.077c0,24.038,15.205,24.038,15.205,48.078
							c0,24.039-15.205,24.039-15.205,48.078c0,24.042,15.205,24.042,15.205,48.083c0,24.042-15.205,24.042-15.205,48.084"/>
					</g>
					<g opacity="0.8381">
						<path fill="none" stroke="#096D52" stroke-width="5" stroke-miterlimit="10" d="M137.696-69.609
							c0,24.036-15.207,24.036-15.207,48.074c0,24.035,15.207,24.035,15.207,48.072c0,24.037-15.207,24.037-15.207,48.074
							s15.207,24.037,15.207,48.074c0,24.037-15.207,24.037-15.207,48.073c0,24.038,15.207,24.038,15.207,48.075
							c0,24.035-15.207,24.035-15.207,48.072c0,24.038,15.207,24.038,15.207,48.075c0,24.037-15.207,24.037-15.207,48.073
							c0,24.036,15.207,24.036,15.207,48.071c0,24.035-15.207,24.035-15.207,48.071c0,24.038,15.207,24.038,15.207,48.075
							c0,24.036-15.207,24.036-15.207,48.072c0,24.038,15.207,24.038,15.207,48.074s-15.207,24.036-15.207,48.072
							c0,24.037,15.207,24.037,15.207,48.073c0,24.037-15.207,24.037-15.207,48.075c0,24.04,15.207,24.04,15.207,48.077
							c0,24.038-15.207,24.038-15.207,48.078c0,24.038,15.207,24.038,15.207,48.076c0,24.041-15.207,24.041-15.207,48.079
							s15.207,24.038,15.207,48.077c0,24.037-15.207,24.037-15.207,48.075c0,24.038,15.207,24.038,15.207,48.079
							c0,24.038-15.207,24.038-15.207,48.076c0,24.042,15.207,24.042,15.207,48.083c0,24.042-15.207,24.042-15.207,48.084"/>
					</g>
					<g opacity="0.8476">
						<path fill="none" stroke="#096D52" stroke-width="5" stroke-miterlimit="10" d="M248.745-69.609
							c0,24.038-15.206,24.038-15.206,48.074s15.206,24.037,15.206,48.073s-15.206,24.036-15.206,48.073
							c0,24.038,15.206,24.038,15.206,48.075c0,24.036-15.206,24.036-15.206,48.074c0,24.038,15.206,24.038,15.206,48.073
							s-15.206,24.035-15.206,48.073c0,24.039,15.206,24.039,15.206,48.075s-15.206,24.036-15.206,48.074
							c0,24.035,15.206,24.035,15.206,48.069c0,24.035-15.206,24.035-15.206,48.071c0,24.039,15.206,24.039,15.206,48.077
							c0,24.036-15.206,24.036-15.206,48.071c0,24.037,15.206,24.037,15.206,48.073c0,24.038-15.206,24.038-15.206,48.072
							c0,24.037,15.206,24.037,15.206,48.073c0,24.038-15.206,24.038-15.206,48.076c0,24.038,15.206,24.038,15.206,48.077
							c0,24.038-15.206,24.038-15.206,48.078c0,24.037,15.206,24.037,15.206,48.075c0,24.038-15.206,24.038-15.206,48.079
							c0,24.037,15.206,24.037,15.206,48.076c0,24.038-15.206,24.038-15.206,48.076s15.206,24.038,15.206,48.078
							c0,24.039-15.206,24.039-15.206,48.078c0,24.041,15.206,24.041,15.206,48.083c0,24.041-15.206,24.041-15.206,48.084"/>
					</g>
					<g opacity="0.8952">
						<path fill="none" stroke="#096D52" stroke-width="5" stroke-miterlimit="10" d="M82.172-69.609
							c0,24.036-15.206,24.036-15.206,48.073C66.966,2.5,82.172,2.5,82.172,26.536c0,24.037-15.206,24.037-15.206,48.073
							c0,24.037,15.206,24.037,15.206,48.075c0,24.038-15.206,24.038-15.206,48.074c0,24.037,15.206,24.037,15.206,48.074
							c0,24.037-15.206,24.037-15.206,48.074c0,24.036,15.206,24.036,15.206,48.074c0,24.037-15.206,24.037-15.206,48.073
							c0,24.035,15.206,24.035,15.206,48.068c0,24.037-15.206,24.037-15.206,48.073c0,24.038,15.206,24.038,15.206,48.076
							c0,24.034-15.206,24.034-15.206,48.071c0,24.037,15.206,24.037,15.206,48.073c0,24.037-15.206,24.037-15.206,48.073
							c0,24.037,15.206,24.037,15.206,48.073c0,24.037-15.206,24.037-15.206,48.074c0,24.039,15.206,24.039,15.206,48.078
							c0,24.039-15.206,24.039-15.206,48.078c0,24.038,15.206,24.038,15.206,48.075c0,24.04-15.206,24.04-15.206,48.078
							c0,24.038,15.206,24.038,15.206,48.075c0,24.04-15.206,24.04-15.206,48.078c0,24.04,15.206,24.04,15.206,48.078
							c0,24.038-15.206,24.038-15.206,48.077c0,24.042,15.206,24.042,15.206,48.083c0,24.043-15.206,24.043-15.206,48.085"/>
					</g>
					<g opacity="0.9048">
						<path fill="none" stroke="#096D52" stroke-width="5" stroke-miterlimit="10" d="M193.22-69.609
							c0,24.037-15.205,24.037-15.205,48.073c0,24.036,15.205,24.036,15.205,48.072c0,24.037-15.205,24.037-15.205,48.075
							c0,24.037,15.205,24.037,15.205,48.075c0,24.035-15.205,24.035-15.205,48.074c0,24.037,15.205,24.037,15.205,48.074
							c0,24.034-15.205,24.034-15.205,48.071c0,24.038,15.205,24.038,15.205,48.075c0,24.037-15.205,24.037-15.205,48.074
							c0,24.036,15.205,24.036,15.205,48.07c0,24.035-15.205,24.035-15.205,48.071c0,24.039,15.205,24.039,15.205,48.076
							c0,24.035-15.205,24.035-15.205,48.072c0,24.037,15.205,24.037,15.205,48.074c0,24.036-15.205,24.036-15.205,48.071
							c0,24.037,15.205,24.037,15.205,48.073c0,24.037-15.205,24.037-15.205,48.074c0,24.039,15.205,24.039,15.205,48.078
							c0,24.038-15.205,24.038-15.205,48.078c0,24.038,15.205,24.038,15.205,48.075c0,24.04-15.205,24.04-15.205,48.079
							c0,24.038,15.205,24.038,15.205,48.076c0,24.038-15.205,24.038-15.205,48.077c0,24.04,15.205,24.04,15.205,48.078
							c0,24.038-15.205,24.038-15.205,48.076c0,24.042,15.205,24.042,15.205,48.085c0,24.041-15.205,24.041-15.205,48.083"/>
					</g>
					<g opacity="0.9143">
						<path fill="none" stroke="#096D52" stroke-width="5" stroke-miterlimit="10" d="M304.269-69.609
							c0,24.037-15.205,24.037-15.205,48.073c0,24.036,15.205,24.036,15.205,48.073c0,24.037-15.205,24.037-15.205,48.073
							c0,24.036,15.205,24.036,15.205,48.076c0,24.037-15.205,24.037-15.205,48.074c0,24.037,15.205,24.037,15.205,48.074
							c0,24.035-15.205,24.035-15.205,48.071c0,24.038,15.205,24.038,15.205,48.075s-15.205,24.038-15.205,48.075
							c0,24.034,15.205,24.034,15.205,48.069c0,24.035-15.205,24.035-15.205,48.07c0,24.04,15.205,24.04,15.205,48.077
							c0,24.036-15.205,24.036-15.205,48.072c0,24.038,15.205,24.038,15.205,48.074c0,24.036-15.205,24.036-15.205,48.072
							c0,24.037,15.205,24.037,15.205,48.072c0,24.037-15.205,24.037-15.205,48.074c0,24.039,15.205,24.039,15.205,48.077
							c0,24.039-15.205,24.039-15.205,48.077c0,24.039,15.205,24.039,15.205,48.077c0,24.039-15.205,24.039-15.205,48.078
							c0,24.038,15.205,24.038,15.205,48.076c0,24.037-15.205,24.037-15.205,48.077c0,24.038,15.205,24.038,15.205,48.078
							c0,24.039-15.205,24.039-15.205,48.078c0,24.042,15.205,24.042,15.205,48.083c0,24.042-15.205,24.042-15.205,48.084"/>
					</g>
					<g opacity="0.9238">
						<path fill="none" stroke="#096D52" stroke-width="5" stroke-miterlimit="10" d="M415.318-69.609
							c0,24.036-15.207,24.036-15.207,48.073c0,24.035,15.207,24.035,15.207,48.073c0,24.036-15.207,24.036-15.207,48.073
							c0,24.038,15.207,24.038,15.207,48.075c0,24.037-15.207,24.037-15.207,48.073c0,24.038,15.207,24.038,15.207,48.075
							c0,24.036-15.207,24.036-15.207,48.073c0,24.036,15.207,24.036,15.207,48.073c0,24.037-15.207,24.037-15.207,48.075
							c0,24.034,15.207,24.034,15.207,48.068c0,24.036-15.207,24.036-15.207,48.071c0,24.038,15.207,24.038,15.207,48.077
							c0,24.036-15.207,24.036-15.207,48.072c0,24.038,15.207,24.038,15.207,48.074s-15.207,24.036-15.207,48.072
							c0,24.037,15.207,24.037,15.207,48.073c0,24.038-15.207,24.038-15.207,48.075c0,24.04,15.207,24.04,15.207,48.077
							c0,24.039-15.207,24.039-15.207,48.079c0,24.038,15.207,24.038,15.207,48.076c0,24.039-15.207,24.039-15.207,48.078
							c0,24.038,15.207,24.038,15.207,48.078c0,24.038-15.207,24.038-15.207,48.075c0,24.039,15.207,24.039,15.207,48.078
							c0,24.038-15.207,24.038-15.207,48.076c0,24.042,15.207,24.042,15.207,48.083c0,24.042-15.207,24.042-15.207,48.084"/>
					</g>
					<g opacity="0.9333">
						<path fill="none" stroke="#096D52" stroke-width="5" stroke-miterlimit="10" d="M526.366-69.609
							c0,24.037-15.205,24.037-15.205,48.073c0,24.036,15.205,24.036,15.205,48.073c0,24.037-15.205,24.037-15.205,48.074
							c0,24.038,15.205,24.038,15.205,48.075c0,24.036-15.205,24.036-15.205,48.074c0,24.038,15.205,24.038,15.205,48.074
							c0,24.035-15.205,24.035-15.205,48.073c0,24.036,15.205,24.036,15.205,48.073c0,24.037-15.205,24.037-15.205,48.075
							c0,24.035,15.205,24.035,15.205,48.068c0,24.036-15.205,24.036-15.205,48.072c0,24.039,15.205,24.039,15.205,48.077
							c0,24.036-15.205,24.036-15.205,48.071c0,24.037,15.205,24.037,15.205,48.076c0,24.035-15.205,24.035-15.205,48.07
							c0,24.038,15.205,24.038,15.205,48.074c0,24.037-15.205,24.037-15.205,48.074c0,24.039,15.205,24.039,15.205,48.078
							c0,24.04-15.205,24.04-15.205,48.078s15.205,24.038,15.205,48.075c0,24.04-15.205,24.04-15.205,48.078
							c0,24.038,15.205,24.038,15.205,48.077c0,24.037-15.205,24.037-15.205,48.076s15.205,24.039,15.205,48.078
							c0,24.038-15.205,24.038-15.205,48.077c0,24.041,15.205,24.041,15.205,48.083c0,24.042-15.205,24.042-15.205,48.084"/>
					</g>
					<g opacity="0.9429">
						<path fill="none" stroke="#096D52" stroke-width="5" stroke-miterlimit="10" d="M581.89-69.609
							c0,24.036-15.205,24.036-15.205,48.073c0,24.035,15.205,24.035,15.205,48.072c0,24.037-15.205,24.037-15.205,48.074
							c0,24.037,15.205,24.037,15.205,48.075c0,24.037-15.205,24.037-15.205,48.073c0,24.038,15.205,24.038,15.205,48.075
							c0,24.036-15.205,24.036-15.205,48.072c0,24.037,15.205,24.037,15.205,48.075c0,24.038-15.205,24.038-15.205,48.075
							c0,24.034,15.205,24.034,15.205,48.069c0,24.035-15.205,24.035-15.205,48.071c0,24.038,15.205,24.038,15.205,48.076
							c0,24.037-15.205,24.037-15.205,48.072c0,24.037,15.205,24.037,15.205,48.073s-15.205,24.036-15.205,48.073
							c0,24.037,15.205,24.037,15.205,48.073c0,24.04-15.205,24.04-15.205,48.075c0,24.04,15.205,24.04,15.205,48.077
							c0,24.038-15.205,24.038-15.205,48.078c0,24.037,15.205,24.037,15.205,48.076c0,24.038-15.205,24.038-15.205,48.077
							c0,24.038,15.205,24.038,15.205,48.077c0,24.038-15.205,24.038-15.205,48.076c0,24.038,15.205,24.038,15.205,48.078
							c0,24.039-15.205,24.039-15.205,48.078c0,24.042,15.205,24.042,15.205,48.083c0,24.042-15.205,24.042-15.205,48.084"/>
					</g>
					<g opacity="0.9524">
						<path fill="none" stroke="#096D52" stroke-width="5" stroke-miterlimit="10" d="M637.416-69.609
							c0,24.036-15.207,24.036-15.207,48.073c0,24.036,15.207,24.036,15.207,48.072c0,24.038-15.207,24.038-15.207,48.075
							c0,24.037,15.207,24.037,15.207,48.074c0,24.037-15.207,24.037-15.207,48.073c0,24.037,15.207,24.037,15.207,48.074
							c0,24.036-15.207,24.036-15.207,48.073c0,24.038,15.207,24.038,15.207,48.075c0,24.037-15.207,24.037-15.207,48.073
							c0,24.035,15.207,24.035,15.207,48.07s-15.207,24.035-15.207,48.07c0,24.038,15.207,24.038,15.207,48.078
							c0,24.035-15.207,24.035-15.207,48.071c0,24.036,15.207,24.036,15.207,48.073c0,24.036-15.207,24.036-15.207,48.071
							c0,24.037,15.207,24.037,15.207,48.074c0,24.038-15.207,24.038-15.207,48.076c0,24.039,15.207,24.039,15.207,48.078
							c0,24.039-15.207,24.039-15.207,48.078c0,24.038,15.207,24.038,15.207,48.075c0,24.04-15.207,24.04-15.207,48.078
							s15.207,24.039,15.207,48.076s-15.207,24.038-15.207,48.076c0,24.04,15.207,24.04,15.207,48.079s-15.207,24.039-15.207,48.077
							c0,24.042,15.207,24.042,15.207,48.083c0,24.042-15.207,24.042-15.207,48.084"/>
					</g>
					<g opacity="0.9714">
						<path fill="none" stroke="#096D52" stroke-width="5" stroke-miterlimit="10" d="M470.842-69.609
							c0,24.037-15.206,24.037-15.206,48.073c0,24.037,15.206,24.037,15.206,48.072c0,24.038-15.206,24.038-15.206,48.073
							c0,24.037,15.206,24.037,15.206,48.076c0,24.037-15.206,24.037-15.206,48.072c0,24.038,15.206,24.038,15.206,48.074
							c0,24.036-15.206,24.036-15.206,48.073c0,24.038,15.206,24.038,15.206,48.073c0,24.038-15.206,24.038-15.206,48.075
							c0,24.034,15.206,24.034,15.206,48.069c0,24.037-15.206,24.037-15.206,48.071c0,24.037,15.206,24.037,15.206,48.075
							c0,24.037-15.206,24.037-15.206,48.072c0,24.037,15.206,24.037,15.206,48.074c0,24.036-15.206,24.036-15.206,48.072
							c0,24.038,15.206,24.038,15.206,48.073c0,24.037-15.206,24.037-15.206,48.075c0,24.04,15.206,24.04,15.206,48.076
							c0,24.039-15.206,24.039-15.206,48.079c0,24.038,15.206,24.038,15.206,48.075c0,24.04-15.206,24.04-15.206,48.08
							c0,24.039,15.206,24.039,15.206,48.076c0,24.037-15.206,24.037-15.206,48.076c0,24.038,15.206,24.038,15.206,48.078
							c0,24.038-15.206,24.038-15.206,48.078c0,24.042,15.206,24.042,15.206,48.084c0,24.042-15.206,24.042-15.206,48.085"/>
					</g>
					<g opacity="0.981">
						<path fill="none" stroke="#096D52" stroke-width="5" stroke-miterlimit="10" d="M359.793-69.609
							c0,24.038-15.207,24.038-15.207,48.073c0,24.037,15.207,24.037,15.207,48.073c0,24.038-15.207,24.038-15.207,48.074
							c0,24.035,15.207,24.035,15.207,48.074c0,24.037-15.207,24.037-15.207,48.072c0,24.038,15.207,24.038,15.207,48.074
							c0,24.036-15.207,24.036-15.207,48.074c0,24.037,15.207,24.037,15.207,48.075c0,24.037-15.207,24.037-15.207,48.073
							c0,24.036,15.207,24.036,15.207,48.068c0,24.037-15.207,24.037-15.207,48.071c0,24.037,15.207,24.037,15.207,48.077
							c0,24.035-15.207,24.035-15.207,48.071c0,24.036,15.207,24.036,15.207,48.073c0,24.036-15.207,24.036-15.207,48.072
							c0,24.038,15.207,24.038,15.207,48.075c0,24.037-15.207,24.037-15.207,48.074c0,24.039,15.207,24.039,15.207,48.078
							c0,24.039-15.207,24.039-15.207,48.078c0,24.038,15.207,24.038,15.207,48.075c0,24.04-15.207,24.04-15.207,48.079
							c0,24.038,15.207,24.038,15.207,48.076s-15.207,24.038-15.207,48.076c0,24.04,15.207,24.04,15.207,48.078
							c0,24.039-15.207,24.039-15.207,48.078c0,24.042,15.207,24.042,15.207,48.083c0,24.041-15.207,24.041-15.207,48.084"/>
					</g>
				</g>
				<g clip-path="url(#SVGID_14_)">
					<g opacity="0.8286">
						<path fill="none" stroke="#4B987E" stroke-width="5" stroke-miterlimit="10" d="M53.84-80.968
							c0,24.036-15.205,24.036-15.205,48.073c0,24.037,15.205,24.037,15.205,48.073c0,24.037-15.205,24.037-15.205,48.073
							c0,24.037,15.205,24.037,15.205,48.076c0,24.037-15.205,24.037-15.205,48.073c0,24.037,15.205,24.037,15.205,48.074
							c0,24.036-15.205,24.036-15.205,48.073s15.205,24.038,15.205,48.073c0,24.037-15.205,24.037-15.205,48.074
							c0,24.034,15.205,24.034,15.205,48.069c0,24.036-15.205,24.036-15.205,48.071c0,24.038,15.205,24.038,15.205,48.076
							c0,24.037-15.205,24.037-15.205,48.072c0,24.038,15.205,24.038,15.205,48.074c0,24.037-15.205,24.037-15.205,48.073
							c0,24.037,15.205,24.037,15.205,48.073s-15.205,24.037-15.205,48.074c0,24.039,15.205,24.039,15.205,48.077
							c0,24.039-15.205,24.039-15.205,48.079c0,24.038,15.205,24.038,15.205,48.075c0,24.039-15.205,24.039-15.205,48.079
							c0,24.038,15.205,24.038,15.205,48.074c0,24.039-15.205,24.039-15.205,48.077c0,24.039,15.205,24.039,15.205,48.079
							c0,24.039-15.205,24.039-15.205,48.078c0,24.042,15.205,24.042,15.205,48.083c0,24.043-15.205,24.043-15.205,48.084"/>
					</g>
					<g opacity="0.8381">
						<path fill="none" stroke="#4B987E" stroke-width="5" stroke-miterlimit="10" d="M164.89-80.968
							c0,24.035-15.207,24.035-15.207,48.074c0,24.035,15.207,24.035,15.207,48.072c0,24.037-15.207,24.037-15.207,48.073
							c0,24.037,15.207,24.037,15.207,48.075c0,24.037-15.207,24.037-15.207,48.074c0,24.038,15.207,24.038,15.207,48.074
							c0,24.036-15.207,24.036-15.207,48.073c0,24.038,15.207,24.038,15.207,48.073c0,24.038-15.207,24.038-15.207,48.074
							s15.207,24.037,15.207,48.071c0,24.035-15.207,24.035-15.207,48.071c0,24.038,15.207,24.038,15.207,48.075
							c0,24.037-15.207,24.037-15.207,48.072c0,24.038,15.207,24.038,15.207,48.074c0,24.037-15.207,24.037-15.207,48.073
							c0,24.037,15.207,24.037,15.207,48.073s-15.207,24.037-15.207,48.075c0,24.039,15.207,24.039,15.207,48.077
							c0,24.038-15.207,24.038-15.207,48.077c0,24.038,15.207,24.038,15.207,48.076c0,24.041-15.207,24.041-15.207,48.079
							c0,24.038,15.207,24.038,15.207,48.077c0,24.037-15.207,24.037-15.207,48.075c0,24.038,15.207,24.038,15.207,48.079
							c0,24.038-15.207,24.038-15.207,48.076c0,24.042,15.207,24.042,15.207,48.083c0,24.043-15.207,24.043-15.207,48.084"/>
					</g>
					<g opacity="0.8476">
						<path fill="none" stroke="#4B987E" stroke-width="5" stroke-miterlimit="10" d="M275.938-80.968
							c0,24.038-15.207,24.038-15.207,48.074c0,24.037,15.207,24.037,15.207,48.073c0,24.037-15.207,24.037-15.207,48.073
							c0,24.038,15.207,24.038,15.207,48.075c0,24.036-15.207,24.036-15.207,48.074c0,24.038,15.207,24.038,15.207,48.073
							c0,24.036-15.207,24.036-15.207,48.073c0,24.039,15.207,24.039,15.207,48.075s-15.207,24.036-15.207,48.074
							c0,24.036,15.207,24.036,15.207,48.07c0,24.035-15.207,24.035-15.207,48.071c0,24.038,15.207,24.038,15.207,48.077
							c0,24.036-15.207,24.036-15.207,48.071c0,24.037,15.207,24.037,15.207,48.073c0,24.039-15.207,24.039-15.207,48.073
							c0,24.037,15.207,24.037,15.207,48.072c0,24.039-15.207,24.039-15.207,48.076c0,24.038,15.207,24.038,15.207,48.076
							c0,24.039-15.207,24.039-15.207,48.078c0,24.037,15.207,24.037,15.207,48.076c0,24.038-15.207,24.038-15.207,48.079
							c0,24.037,15.207,24.037,15.207,48.076c0,24.038-15.207,24.038-15.207,48.075c0,24.039,15.207,24.039,15.207,48.079
							c0,24.039-15.207,24.039-15.207,48.078c0,24.041,15.207,24.041,15.207,48.083c0,24.041-15.207,24.041-15.207,48.084"/>
					</g>
					<g opacity="0.8857">
						<path fill="none" stroke="#4B987E" stroke-width="5" stroke-miterlimit="10" d="M-1.684-80.968
							c0,24.036-15.205,24.036-15.205,48.073c0,24.036,15.205,24.036,15.205,48.073c0,24.036-15.205,24.036-15.205,48.073
							c0,24.037,15.205,24.037,15.205,48.075c0,24.037-15.205,24.037-15.205,48.074c0,24.036,15.205,24.036,15.205,48.074
							c0,24.035-15.205,24.035-15.205,48.073c0,24.038,15.205,24.038,15.205,48.072c0,24.038-15.205,24.038-15.205,48.075
							c0,24.035,15.205,24.035,15.205,48.07c0,24.035-15.205,24.035-15.205,48.071c0,24.039,15.205,24.039,15.205,48.075
							c0,24.036-15.205,24.036-15.205,48.072c0,24.037,15.205,24.037,15.205,48.075c0,24.035-15.205,24.035-15.205,48.072
							c0,24.037,15.205,24.037,15.205,48.071c0,24.039-15.205,24.039-15.205,48.076c0,24.038,15.205,24.038,15.205,48.075
							c0,24.04-15.205,24.04-15.205,48.08c0,24.037,15.205,24.037,15.205,48.076c0,24.038-15.205,24.038-15.205,48.078
							c0,24.037,15.205,24.037,15.205,48.074c0,24.039-15.205,24.039-15.205,48.077c0,24.041,15.205,24.041,15.205,48.079
							c0,24.039-15.205,24.039-15.205,48.077c0,24.042,15.205,24.042,15.205,48.084c0,24.043-15.205,24.043-15.205,48.084"/>
					</g>
					<g opacity="0.8952">
						<path fill="none" stroke="#4B987E" stroke-width="5" stroke-miterlimit="10" d="M109.365-80.968
							c0,24.035-15.206,24.035-15.206,48.073c0,24.036,15.206,24.036,15.206,48.073c0,24.036-15.206,24.036-15.206,48.072
							c0,24.037,15.206,24.037,15.206,48.075c0,24.038-15.206,24.038-15.206,48.075c0,24.037,15.206,24.037,15.206,48.074
							s-15.206,24.037-15.206,48.074c0,24.037,15.206,24.037,15.206,48.074s-15.206,24.037-15.206,48.073
							c0,24.034,15.206,24.034,15.206,48.069c0,24.036-15.206,24.036-15.206,48.073c0,24.038,15.206,24.038,15.206,48.076
							c0,24.035-15.206,24.035-15.206,48.071c0,24.037,15.206,24.037,15.206,48.073c0,24.038-15.206,24.038-15.206,48.074
							c0,24.037,15.206,24.037,15.206,48.073s-15.206,24.037-15.206,48.074c0,24.039,15.206,24.039,15.206,48.077
							c0,24.04-15.206,24.04-15.206,48.079c0,24.039,15.206,24.039,15.206,48.075c0,24.04-15.206,24.04-15.206,48.079
							c0,24.038,15.206,24.038,15.206,48.074c0,24.04-15.206,24.04-15.206,48.078c0,24.04,15.206,24.04,15.206,48.078
							c0,24.039-15.206,24.039-15.206,48.077c0,24.042,15.206,24.042,15.206,48.083c0,24.044-15.206,24.044-15.206,48.084"/>
					</g>
					<g opacity="0.9048">
						<path fill="none" stroke="#4B987E" stroke-width="5" stroke-miterlimit="10" d="M220.413-80.968
							c0,24.036-15.205,24.036-15.205,48.073c0,24.036,15.205,24.036,15.205,48.073c0,24.036-15.205,24.036-15.205,48.073
							c0,24.037,15.205,24.037,15.205,48.076c0,24.035-15.205,24.035-15.205,48.074c0,24.037,15.205,24.037,15.205,48.074
							c0,24.035-15.205,24.035-15.205,48.072c0,24.038,15.205,24.038,15.205,48.073c0,24.038-15.205,24.038-15.205,48.075
							c0,24.036,15.205,24.036,15.205,48.07c0,24.035-15.205,24.035-15.205,48.071c0,24.038,15.205,24.038,15.205,48.076
							c0,24.036-15.205,24.036-15.205,48.073c0,24.036,15.205,24.036,15.205,48.074c0,24.036-15.205,24.036-15.205,48.072
							c0,24.036,15.205,24.036,15.205,48.072s-15.205,24.037-15.205,48.074c0,24.039,15.205,24.039,15.205,48.078
							c0,24.038-15.205,24.038-15.205,48.078c0,24.039,15.205,24.039,15.205,48.075c0,24.04-15.205,24.04-15.205,48.079
							c0,24.038,15.205,24.038,15.205,48.076c0,24.038-15.205,24.038-15.205,48.077c0,24.04,15.205,24.04,15.205,48.078
							c0,24.039-15.205,24.039-15.205,48.077c0,24.043,15.205,24.043,15.205,48.085c0,24.042-15.205,24.042-15.205,48.083"/>
					</g>
					<g opacity="0.9143">
						<path fill="none" stroke="#4B987E" stroke-width="5" stroke-miterlimit="10" d="M331.462-80.968
							c0,24.036-15.205,24.036-15.205,48.073c0,24.036,15.205,24.036,15.205,48.073c0,24.037-15.205,24.037-15.205,48.072
							c0,24.036,15.205,24.036,15.205,48.076c0,24.037-15.205,24.037-15.205,48.074c0,24.037,15.205,24.037,15.205,48.074
							c0,24.036-15.205,24.036-15.205,48.072c0,24.038,15.205,24.038,15.205,48.075c0,24.038-15.205,24.038-15.205,48.075
							c0,24.035,15.205,24.035,15.205,48.069c0,24.035-15.205,24.035-15.205,48.07c0,24.04,15.205,24.04,15.205,48.076
							s-15.205,24.037-15.205,48.072c0,24.038,15.205,24.038,15.205,48.075c0,24.036-15.205,24.036-15.205,48.073
							c0,24.037,15.205,24.037,15.205,48.071c0,24.038-15.205,24.038-15.205,48.075c0,24.038,15.205,24.038,15.205,48.076
							c0,24.039-15.205,24.039-15.205,48.077s15.205,24.039,15.205,48.077c0,24.039-15.205,24.039-15.205,48.077
							c0,24.039,15.205,24.039,15.205,48.076c0,24.037-15.205,24.037-15.205,48.077c0,24.039,15.205,24.039,15.205,48.079
							c0,24.038-15.205,24.038-15.205,48.078c0,24.042,15.205,24.042,15.205,48.083c0,24.043-15.205,24.043-15.205,48.084"/>
					</g>
					<g opacity="0.9238">
						<path fill="none" stroke="#4B987E" stroke-width="5" stroke-miterlimit="10" d="M442.511-80.968
							c0,24.035-15.206,24.035-15.206,48.073c0,24.036,15.206,24.036,15.206,48.073c0,24.036-15.206,24.036-15.206,48.072
							c0,24.037,15.206,24.037,15.206,48.075c0,24.037-15.206,24.037-15.206,48.074c0,24.038,15.206,24.038,15.206,48.074
							c0,24.036-15.206,24.036-15.206,48.073s15.206,24.037,15.206,48.073c0,24.038-15.206,24.038-15.206,48.075
							c0,24.034,15.206,24.034,15.206,48.069s-15.206,24.035-15.206,48.07c0,24.038,15.206,24.038,15.206,48.077
							c0,24.037-15.206,24.037-15.206,48.072c0,24.038,15.206,24.038,15.206,48.074c0,24.037-15.206,24.037-15.206,48.073
							c0,24.037,15.206,24.037,15.206,48.073c0,24.038-15.206,24.038-15.206,48.075c0,24.039,15.206,24.039,15.206,48.077
							c0,24.039-15.206,24.039-15.206,48.079c0,24.038,15.206,24.038,15.206,48.076c0,24.039-15.206,24.039-15.206,48.078
							c0,24.038,15.206,24.038,15.206,48.078c0,24.038-15.206,24.038-15.206,48.075c0,24.039,15.206,24.039,15.206,48.078
							c0,24.038-15.206,24.038-15.206,48.076c0,24.042,15.206,24.042,15.206,48.083c0,24.043-15.206,24.043-15.206,48.084"/>
					</g>
					<g opacity="0.9333">
						<path fill="none" stroke="#4B987E" stroke-width="5" stroke-miterlimit="10" d="M553.559-80.968
							c0,24.036-15.205,24.036-15.205,48.073c0,24.036,15.205,24.036,15.205,48.073c0,24.037-15.205,24.037-15.205,48.073
							c0,24.038,15.205,24.038,15.205,48.076c0,24.036-15.205,24.036-15.205,48.074c0,24.038,15.205,24.038,15.205,48.074
							c0,24.035-15.205,24.035-15.205,48.072s15.205,24.037,15.205,48.073c0,24.038-15.205,24.038-15.205,48.077
							c0,24.034,15.205,24.034,15.205,48.067c0,24.036-15.205,24.036-15.205,48.072c0,24.039,15.205,24.039,15.205,48.077
							c0,24.036-15.205,24.036-15.205,48.071c0,24.037,15.205,24.037,15.205,48.076c0,24.035-15.205,24.035-15.205,48.069
							c0,24.038,15.205,24.038,15.205,48.074c0,24.037-15.205,24.037-15.205,48.074c0,24.039,15.205,24.039,15.205,48.077
							c0,24.041-15.205,24.041-15.205,48.079c0,24.039,15.205,24.039,15.205,48.075c0,24.04-15.205,24.04-15.205,48.079
							c0,24.038,15.205,24.038,15.205,48.077c0,24.037-15.205,24.037-15.205,48.076s15.205,24.039,15.205,48.078
							c0,24.038-15.205,24.038-15.205,48.077c0,24.042,15.205,24.042,15.205,48.083c0,24.043-15.205,24.043-15.205,48.084"/>
					</g>
					<g opacity="0.9429">
						<path fill="none" stroke="#4B987E" stroke-width="5" stroke-miterlimit="10" d="M609.083-80.968
							c0,24.035-15.205,24.035-15.205,48.073c0,24.036,15.205,24.036,15.205,48.073c0,24.036-15.205,24.036-15.205,48.073
							c0,24.037,15.205,24.037,15.205,48.075c0,24.037-15.205,24.037-15.205,48.074c0,24.038,15.205,24.038,15.205,48.074
							c0,24.036-15.205,24.036-15.205,48.073s15.205,24.037,15.205,48.073c0,24.04-15.205,24.04-15.205,48.077
							c0,24.034,15.205,24.034,15.205,48.068c0,24.035-15.205,24.035-15.205,48.071c0,24.038,15.205,24.038,15.205,48.076
							c0,24.037-15.205,24.037-15.205,48.072c0,24.037,15.205,24.037,15.205,48.073c0,24.037-15.205,24.037-15.205,48.074
							c0,24.037,15.205,24.037,15.205,48.072c0,24.039-15.205,24.039-15.205,48.075c0,24.039,15.205,24.039,15.205,48.076
							c0,24.039-15.205,24.039-15.205,48.078c0,24.037,15.205,24.037,15.205,48.076c0,24.038-15.205,24.038-15.205,48.077
							c0,24.039,15.205,24.039,15.205,48.078c0,24.038-15.205,24.038-15.205,48.075c0,24.039,15.205,24.039,15.205,48.079
							c0,24.039-15.205,24.039-15.205,48.078c0,24.042,15.205,24.042,15.205,48.083c0,24.043-15.205,24.043-15.205,48.084"/>
					</g>
					<g opacity="0.9714">
						<path fill="none" stroke="#4B987E" stroke-width="5" stroke-miterlimit="10" d="M498.035-80.968
							c0,24.036-15.206,24.036-15.206,48.073c0,24.036,15.206,24.036,15.206,48.073c0,24.037-15.206,24.037-15.206,48.072
							c0,24.037,15.206,24.037,15.206,48.076c0,24.037-15.206,24.037-15.206,48.072c0,24.038,15.206,24.038,15.206,48.074
							s-15.206,24.037-15.206,48.073c0,24.038,15.206,24.038,15.206,48.074c0,24.038-15.206,24.038-15.206,48.075
							c0,24.034,15.206,24.034,15.206,48.069c0,24.036-15.206,24.036-15.206,48.071c0,24.037,15.206,24.037,15.206,48.076
							c0,24.036-15.206,24.036-15.206,48.071c0,24.038,15.206,24.038,15.206,48.075c0,24.035-15.206,24.035-15.206,48.071
							c0,24.038,15.206,24.038,15.206,48.073c0,24.037-15.206,24.037-15.206,48.075c0,24.04,15.206,24.04,15.206,48.077
							c0,24.039-15.206,24.039-15.206,48.078c0,24.038,15.206,24.038,15.206,48.075c0,24.04-15.206,24.04-15.206,48.079
							c0,24.04,15.206,24.04,15.206,48.076c0,24.037-15.206,24.037-15.206,48.076c0,24.038,15.206,24.038,15.206,48.078
							c0,24.038-15.206,24.038-15.206,48.077c0,24.042,15.206,24.042,15.206,48.084c0,24.042-15.206,24.042-15.206,48.085"/>
					</g>
					<g opacity="0.981">
						<path fill="none" stroke="#4B987E" stroke-width="5" stroke-miterlimit="10" d="M386.986-80.968
							c0,24.038-15.207,24.038-15.207,48.073c0,24.037,15.207,24.037,15.207,48.073c0,24.037-15.207,24.037-15.207,48.073
							s15.207,24.036,15.207,48.075c0,24.037-15.207,24.037-15.207,48.072c0,24.038,15.207,24.038,15.207,48.074
							s-15.207,24.037-15.207,48.074c0,24.036,15.207,24.036,15.207,48.075c0,24.037-15.207,24.037-15.207,48.073
							s15.207,24.036,15.207,48.069c0,24.036-15.207,24.036-15.207,48.071c0,24.037,15.207,24.037,15.207,48.077
							c0,24.036-15.207,24.036-15.207,48.072s15.207,24.036,15.207,48.073c0,24.035-15.207,24.035-15.207,48.071
							c0,24.038,15.207,24.038,15.207,48.075c0,24.038-15.207,24.038-15.207,48.075c0,24.038,15.207,24.038,15.207,48.077
							s-15.207,24.039-15.207,48.078c0,24.038,15.207,24.038,15.207,48.076c0,24.04-15.207,24.04-15.207,48.079
							c0,24.038,15.207,24.038,15.207,48.076s-15.207,24.038-15.207,48.076c0,24.04,15.207,24.04,15.207,48.078
							c0,24.039-15.207,24.039-15.207,48.078c0,24.042,15.207,24.042,15.207,48.083c0,24.041-15.207,24.041-15.207,48.084"/>
					</g>
				</g>
			</g>
			<g>
				<defs>
					<rect id="SVGID_255_" x="-70.271" y="-148.07" width="855.085" height="1308.223"/>
				</defs>
				<clipPath id="SVGID_16_">
					<use xlink:href="#SVGID_255_"  overflow="visible"/>
				</clipPath>
			</g>
		</g>
	</g>
	<g id="圖層_1_5_" clip-path="url(#SVGID_12_)">
		<g opacity="0.3" enable-background="new    ">
			<g>
				<defs>
					<rect id="SVGID_259_" x="-672.086" y="-1167.5" width="1984.174" height="1117"/>
				</defs>
				<clipPath id="SVGID_18_">
					<use xlink:href="#SVGID_259_"  overflow="visible"/>
				</clipPath>
				<g clip-path="url(#SVGID_18_)">
					<g opacity="0.8762">
						<path fill="none" stroke="#4B987E" stroke-width="9.2911" stroke-miterlimit="10" d="M99.933-1288.533
							c0,26.15-20.646,26.15-20.646,52.301s20.646,26.15,20.646,52.301s-20.646,26.15-20.646,52.3
							c0,26.151,20.646,26.151,20.646,52.304c0,26.15-20.646,26.15-20.646,52.3c0,26.151,20.646,26.151,20.646,52.302
							c0,26.149-20.646,26.149-20.646,52.302c0,26.15,20.646,26.15,20.646,52.303c0,26.151-20.646,26.151-20.646,52.301
							c0,26.148,20.646,26.148,20.646,52.296c0,26.151-20.646,26.151-20.646,52.3c0,26.152,20.646,26.152,20.646,52.303
							c0,26.149-20.646,26.149-20.646,52.299c0,26.152,20.646,26.152,20.646,52.304c0,26.149-20.646,26.149-20.646,52.299
							c0,26.15,20.646,26.15,20.646,52.301c0,26.151-20.646,26.151-20.646,52.303c0,26.152,20.646,26.152,20.646,52.304
							c0,26.153-20.646,26.153-20.646,52.306c0,26.151,20.646,26.151,20.646,52.304c0,26.154-20.646,26.154-20.646,52.307
							c0,26.151,20.646,26.151,20.646,52.304s-20.646,26.152-20.646,52.304c0,26.154,20.646,26.154,20.646,52.307
							c0,26.153-20.646,26.153-20.646,52.306c0,26.156,20.646,26.156,20.646,52.312c0,26.157-20.646,26.159-20.646,52.313"/>
					</g>
					<g opacity="0.8857">
						<path fill="none" stroke="#4B987E" stroke-width="9.2911" stroke-miterlimit="10" d="M216.453-1280.162
							c0,26.15-20.647,26.15-20.647,52.301s20.647,26.15,20.647,52.299c0,26.152-20.647,26.152-20.647,52.302
							c0,26.151,20.647,26.151,20.647,52.303c0,26.151-20.647,26.151-20.647,52.301c0,26.151,20.647,26.151,20.647,52.302
							s-20.647,26.151-20.647,52.301s20.647,26.15,20.647,52.302c0,26.151-20.647,26.151-20.647,52.303
							c0,26.148,20.647,26.148,20.647,52.297s-20.647,26.148-20.647,52.296c0,26.154,20.647,26.154,20.647,52.305
							c0,26.15-20.647,26.15-20.647,52.298c0,26.151,20.647,26.151,20.647,52.303c0,26.149-20.647,26.149-20.647,52.299
							c0,26.151,20.647,26.151,20.647,52.301s-20.647,26.15-20.647,52.302c0,26.153,20.647,26.153,20.647,52.306
							s-20.647,26.153-20.647,52.306c0,26.152,20.647,26.152,20.647,52.304c0,26.152-20.647,26.152-20.647,52.306
							c0,26.152,20.647,26.152,20.647,52.304s-20.647,26.152-20.647,52.305s20.647,26.152,20.647,52.306
							c0,26.152-20.647,26.152-20.647,52.306c0,26.156,20.647,26.156,20.647,52.312c0,26.156-20.647,26.156-20.647,52.311"/>
					</g>
					<g opacity="0.8952">
						<path fill="none" stroke="#4B987E" stroke-width="9.2911" stroke-miterlimit="10" d="M332.972-1271.791
							c0,26.151-20.646,26.151-20.646,52.3c0,26.15,20.646,26.15,20.646,52.3c0,26.151-20.646,26.151-20.646,52.301
							c0,26.151,20.646,26.151,20.646,52.303c0,26.15-20.646,26.15-20.646,52.301c0,26.152,20.646,26.152,20.646,52.303
							s-20.646,26.151-20.646,52.301c0,26.151,20.646,26.151,20.646,52.302c0,26.15-20.646,26.15-20.646,52.302
							c0,26.149,20.646,26.149,20.646,52.299c0,26.149-20.646,26.149-20.646,52.297c0,26.152,20.646,26.152,20.646,52.303
							c0,26.15-20.646,26.15-20.646,52.301s20.646,26.15,20.646,52.301s-20.646,26.15-20.646,52.301
							c0,26.15,20.646,26.15,20.646,52.301c0,26.151-20.646,26.151-20.646,52.302c0,26.152,20.646,26.152,20.646,52.304
							c0,26.153-20.646,26.153-20.646,52.308c0,26.151,20.646,26.151,20.646,52.304c0,26.152-20.646,26.152-20.646,52.306
							c0,26.152,20.646,26.152,20.646,52.302c0,26.155-20.646,26.155-20.646,52.305c0,26.154,20.646,26.154,20.646,52.306
							c0,26.153-20.646,26.153-20.646,52.305c0,26.157,20.646,26.157,20.646,52.313s-20.646,26.156-20.646,52.313"/>
					</g>
					<g opacity="0.9048">
						<path fill="none" stroke="#4B987E" stroke-width="9.2911" stroke-miterlimit="10" d="M449.49-1263.419
							c0,26.151-20.646,26.151-20.646,52.302s20.646,26.15,20.646,52.301s-20.646,26.15-20.646,52.3
							c0,26.151,20.646,26.151,20.646,52.303c0,26.15-20.646,26.15-20.646,52.3c0,26.151,20.646,26.151,20.646,52.302
							c0,26.149-20.646,26.149-20.646,52.301c0,26.152,20.646,26.152,20.646,52.302c0,26.151-20.646,26.151-20.646,52.303
							c0,26.148,20.646,26.148,20.646,52.295c0,26.149-20.646,26.149-20.646,52.299c0,26.152,20.646,26.152,20.646,52.304
							c0,26.15-20.646,26.15-20.646,52.299c0,26.15,20.646,26.15,20.646,52.301c0,26.149-20.646,26.149-20.646,52.299
							c0,26.15,20.646,26.15,20.646,52.301c0,26.151-20.646,26.151-20.646,52.304s20.646,26.152,20.646,52.305
							s-20.646,26.152-20.646,52.306c0,26.152,20.646,26.152,20.646,52.305c0,26.153-20.646,26.153-20.646,52.307
							c0,26.152,20.646,26.152,20.646,52.303s-20.646,26.151-20.646,52.304S449.49-34.321,449.49-8.168
							c0,26.154-20.646,26.154-20.646,52.307c0,26.157,20.646,26.157,20.646,52.312c0,26.157-20.646,26.157-20.646,52.313"/>
					</g>
					<g opacity="0.9143">
						<path fill="none" stroke="#4B987E" stroke-width="9.2911" stroke-miterlimit="10" d="M566.009-1255.047
							c0,26.15-20.646,26.15-20.646,52.302c0,26.149,20.646,26.149,20.646,52.298c0,26.151-20.646,26.151-20.646,52.3
							c0,26.151,20.646,26.151,20.646,52.302c0,26.153-20.646,26.153-20.646,52.303c0,26.151,20.646,26.151,20.646,52.302
							c0,26.15-20.646,26.15-20.646,52.3c0,26.151,20.646,26.151,20.646,52.302s-20.646,26.151-20.646,52.303
							c0,26.148,20.646,26.148,20.646,52.296c0,26.15-20.646,26.15-20.646,52.297c0,26.153,20.646,26.153,20.646,52.304
							s-20.646,26.15-20.646,52.299c0,26.152,20.646,26.152,20.646,52.304c0,26.149-20.646,26.149-20.646,52.299
							s20.646,26.15,20.646,52.301s-20.646,26.15-20.646,52.302c0,26.153,20.646,26.153,20.646,52.306
							c0,26.152-20.646,26.152-20.646,52.306c0,26.152,20.646,26.152,20.646,52.304c0,26.152-20.646,26.152-20.646,52.305
							c0,26.151,20.646,26.151,20.646,52.305c0,26.152-20.646,26.152-20.646,52.303c0,26.153,20.646,26.153,20.646,52.307
							c0,26.152-20.646,26.152-20.646,52.305c0,26.157,20.646,26.157,20.646,52.313c0,26.155-20.646,26.155-20.646,52.312"/>
					</g>
				</g>
			</g>
		</g>
	</g>
</g>
<g>
	<defs>
		<rect id="SVGID_261_" x="799" y="0" width="642" height="1223.491"/>
	</defs>
	<clipPath id="SVGID_20_">
		<use xlink:href="#SVGID_261_"  overflow="visible"/>
	</clipPath>
	<g clip-path="url(#SVGID_20_)">
		<g>
			<g>
				<g>
					<defs>
						<polygon id="SVGID_263_" points="-159,82.321 1461.548,82.321 1485.552,1204 -134.996,1204 						"/>
					</defs>
					<defs>
						<polygon id="SVGID_264_" points="-159,82.321 1461.548,82.321 1485.552,1204 -134.996,1204 						"/>
					</defs>
					<clipPath id="SVGID_22_">
						<use xlink:href="#SVGID_263_"  overflow="visible"/>
					</clipPath>
					<clipPath id="SVGID_24_" clip-path="url(#SVGID_22_)">
						<use xlink:href="#SVGID_264_"  overflow="visible"/>
					</clipPath>
					<path opacity="0.2" clip-path="url(#SVGID_24_)" fill="#B82C35" enable-background="new    " d="M499.139,375.951
						c-39.374,147.82-28.023,308.787,6.254,456.261c16.436,70.714,23.788,131.833,65.944,187.436
						c19.178,25.293,75.984,215.293,101.119,231.36c41.508,26.527,32.876,61.451,77.454,78.979
						c63.828,25.093,150.195-143.363,214.221-119.449c64.729,24.181,139.178,11.532,206.448,11.22
						c94.997-0.438,386.547-44.964,480.979-56.386c57.215-6.919,113.196-25.157,170.334-31.063c25.453-2.634,53.4,2.38,77.857-7.771
						c-0.66-39.243,0.217,109.277-15.596,70.958c-30.708-74.412-577.21-68.388-631.962-78.72
						c-111.343-21.015-278.224-110.348-360.354-211.807c-73.939-91.341-91.562-356.563-105.01-477.047
						c-6.801-60.933-38.111-150.422-82.593-186.578C500.144,77.453,513.103,323.527,499.139,375.951z"/>
					<path opacity="0.3" clip-path="url(#SVGID_24_)" fill="#B82C35" enable-background="new    " d="M1310.34,1275.643
						c-96.23,63.929-215.81,86.082-331.879,85.475c-55.655-0.291-101.89,5.458-153.624-20.361
						c-23.532-11.745-50.397-24.275-68.879-43.075c-30.521-31.045-53.44-16.529-78.282-52.059
						c64.245,91.882,29.256-22.812-98.11-210.643c-35.153-51.842-46.303-119.531-64.425-178.478
						c-25.594-83.243-72.894-347.324-90.385-432.261c-10.601-51.463-12.671-104.104-23.979-155.294
						c-5.037-22.806-16.286-46.271-15.613-69.699c28.578-7.247,46.986,20.907,79.026,27.112
						c62.223,12.047,206.921,491.625,229.334,537.489c45.573,93.273,122.701,360.207,218.525,411.874
						c86.265,46.516,218.105,98.172,308.962,85.927c45.948-6.196,126.888-62.924,165.184-31.197
						C1561.905,1376.039,1344.469,1252.967,1310.34,1275.643z"/>
				</g>
			</g>
			<g>
				<g>
					<defs>
						<rect id="SVGID_277_" x="-1" width="642" height="1098"/>
					</defs>
					<clipPath id="SVGID_25_">
						<use xlink:href="#SVGID_277_"  overflow="visible"/>
					</clipPath>
				</g>
				<g>
					<defs>
						<rect id="SVGID_279_" x="-1" width="642" height="1098"/>
					</defs>
					<clipPath id="SVGID_26_">
						<use xlink:href="#SVGID_279_"  overflow="visible"/>
					</clipPath>
					<g clip-path="url(#SVGID_26_)">
						<g id="圖層_1_8_">
							<g opacity="0.3" enable-background="new    ">
								<g>
									<defs>
										<rect id="SVGID_281_" x="-672.086" y="-1167.5" width="1984.174" height="1117"/>
									</defs>
									<clipPath id="SVGID_28_">
										<use xlink:href="#SVGID_281_"  overflow="visible"/>
									</clipPath>
								</g>
							</g>
						</g>
					</g>
				</g>
			</g>
		</g>
	</g>
</g>
</svg>
