<?xml version="1.0" encoding="utf-8"?>
<!-- Generator: Adobe Illustrator 16.0.0, SVG Export Plug-In . SVG Version: 6.00 Build 0)  -->
<!DOCTYPE svg PUBLIC "-//W3C//DTD SVG 1.1//EN" "http://www.w3.org/Graphics/SVG/1.1/DTD/svg11.dtd">
<svg version="1.1" id="圖層_1" xmlns="http://www.w3.org/2000/svg" xmlns:xlink="http://www.w3.org/1999/xlink" x="0px" y="0px"
	 width="640px" height="1096px" viewBox="0 0 640 1096" enable-background="new 0 0 640 1096" xml:space="preserve">
<g>
	<defs>
		<rect id="SVGID_17_" x="-1" width="642" height="1098"/>
	</defs>
	<clipPath id="SVGID_2_">
		<use xlink:href="#SVGID_17_"  overflow="visible"/>
	</clipPath>
	<g clip-path="url(#SVGID_2_)">
		<rect x="-18.591" y="-9" fill="#4A2E2C" width="679.181" height="1191.508"/>
		<g opacity="0.3">
			<defs>
				<rect id="SVGID_19_" x="-15.003" y="-19.381" opacity="0.3" width="670.766" height="1191.509"/>
			</defs>
			<clipPath id="SVGID_4_">
				<use xlink:href="#SVGID_19_"  overflow="visible"/>
			</clipPath>
			<path opacity="0.5" clip-path="url(#SVGID_4_)" fill="#2A100E" d="M585.841,174.843c0.054-28.98-0.01-55.99-0.272-80.619
				c106.835,0.036,181.351-2.109,186.751-15.772c1.391-3.517-78.197-6.045-187.067-7.281C583.906-7.104,579.99-56.459,570.4-61.043
				c-2.517-1.201-4.708,50.469-6.418,131.993c-32.538-0.31-67.252-0.509-102.89-0.592c-1.453-78.043-5.493-126.91-15.252-131.403
				c-2.596-1.19-4.778,50.153-6.443,131.368c-33.9-0.033-68.395,0.04-102.436,0.225c-1.545-78.419-5.706-127.172-15.682-131.592
				c-2.686-1.187-4.866,50.243-6.484,131.729c-11.344,0.078-22.614,0.169-33.764,0.273c-23.328,0.218-46.094,0.35-68.175,0.437
				c-1.63-79.208-5.909-128.083-16.138-132.44c-2.784-1.184-4.962,50.5-6.531,132.516c-36.056,0.101-70.065,0.113-101.436,0.221
				C87.028-8.016,82.621-56.766,72.155-61.047c-2.88-1.179-5.05,50.555-6.566,132.839c-110.358,0.618-182.935,3.16-187.909,16.81
				c-1.364,3.741,77.571,5.665,187.514,6.224c-0.398,24.962-0.744,52.236-1.039,81.314c-113.354,0.728-188.034,3.26-193.12,16.772
				c-1.395,3.705,79.973,5.492,192.904,5.881c-0.231,25.809-0.425,52.848-0.582,80.8c-109.102,0.64-180.736,3.24-185.677,16.797
				c-1.356,3.718,76.637,5.642,185.558,6.213c-0.126,26.204-0.221,53.099-0.285,80.433c-105.065,0.559-173.824,3.226-178.626,16.831
				c-1.318,3.732,73.489,5.785,178.579,6.532c-0.045,26.381-0.063,53.092-0.052,79.909c-101.196,0.486-167.216,3.221-171.882,16.873
				c-1.281,3.746,70.494,5.923,171.898,6.84c0.023,23.392,0.066,46.813,0.13,70.113c0.009,3.116,0.015,6.227,0.021,9.337
				c-97.471,0.419-160.869,3.224-165.403,16.922c-1.244,3.76,67.608,6.056,165.426,7.137c0,26.716-0.082,53.149-0.212,79.144
				c-93.531,0.373-154.171,3.264-158.566,16.978c-1.206,3.761,64.489,6.167,158.43,7.409c-0.166,26.91-0.374,53.284-0.588,78.945
				c-89.292,0.347-146.947,3.352-151.196,17.039c-1.165,3.752,61.176,6.26,150.989,7.658c-0.23,27.186-0.453,53.476-0.621,78.635
				c-84.979,0.34-139.624,3.467-143.722,17.101c-1.125,3.74,57.891,6.341,143.573,7.888c-0.145,28.004-0.196,54.418-0.084,78.906
				c-84.847,0.345-139.395,3.479-143.489,17.1c-1.125,3.742,57.936,6.343,143.671,7.89c0.939,92.158,4.884,151.69,16.343,156.819
				c2.956,1.324,5.59-61.002,7.614-156.424c31.213,0.469,65.251,0.813,100.728,1.036c1.008,91.628,4.923,150.369,16.118,155.391
				c2.921,1.31,5.443-60.434,7.342-155.262c33.132,0.156,67.224,0.21,101.203,0.166c1.061,91.768,4.938,150.165,15.911,155.099
				c2.897,1.302,5.312-60.312,7.085-155.145c0.983-0.002,1.967-0.005,2.95-0.008c33.67-0.095,66.809,0.152,98.71,0.516
				c1.123,91.84,4.973,149.798,15.712,154.637c2.866,1.292,5.165-59.888,6.809-154.36c36.315,0.472,70.732,1.029,102.143,1.322
				c1.208,91.282,5.048,148.315,15.503,153.039c2.828,1.279,5.005-59.155,6.517-152.88c86.745,0.422,145.954-2.096,150.528-16.127
				c1.176-3.608-61.523-6.812-150.15-9.02c0.344-24.511,0.648-50.9,0.912-78.741c86.043,0.391,144.687-2.172,149.238-16.133
				c1.17-3.593-60.99-6.785-149.016-8.992c0.213-25.494,0.393-52.034,0.54-79.323c89.325,0.352,150.435-2.131,155.122-16.056
				c1.207-3.584-63.66-6.68-154.998-8.739c0.121-26.052,0.212-52.683,0.275-79.646c92.797,0.31,156.539-2.09,161.369-15.984
				c1.243-3.576-66.502-6.572-161.321-8.478c0.044-26.447,0.061-53.135,0.05-79.836c96.427,0.263,162.941-2.054,167.918-15.919
				c1.281-3.568-69.496-6.458-167.936-8.204c-0.02-18.674-0.053-37.32-0.099-55.858c-0.021-8.116-0.033-16.204-0.04-24.265
				c100.185,0.206,169.592-2.028,174.72-15.862c1.319-3.559-72.583-6.337-174.721-7.917c0.02-27.295,0.107-54.203,0.231-80.561
				c103.727,0.132,175.864-2.042,181.134-15.814c1.356-3.541-75.441-6.197-181.014-7.607c0.153-27.767,0.337-54.854,0.515-81.073
				c107.046,0.042,181.739-2.092,187.146-15.772c1.391-3.517-78.159-6.044-186.991-7.28c0.188-28.363,0.354-55.593,0.449-81.435
				c110.377-0.057,187.644-2.159,193.188-15.739C780.393,178.294,698.007,175.901,585.841,174.843z M563.521,94.19
				c-0.462,24.742-0.884,51.737-1.262,80.453c-31.892-0.24-65.753-0.377-100.462-0.409c0.026-28.956-0.065-55.901-0.354-80.455
				C497.348,93.898,531.663,94.108,563.521,94.19z M435.85,693.007c-32.762-0.224-66.15-0.332-99.093-0.311
				c0.08-26.155,0.128-52.501,0.143-78.806c0.061,0,0.122,0,0.182-0.001c33.646-0.209,66.788-0.122,98.782,0.081
				C435.92,640.773,435.906,667.16,435.85,693.007z M312.947,197.894c-0.272,25.764-0.507,52.74-0.706,80.594
				c-10.482,0.074-20.896,0.159-31.209,0.255c-23.099,0.215-45.648,0.347-67.525,0.434c0.115-28.146,0.21-55.071,0.237-80.569
				C246.403,198.442,279.739,198.202,312.947,197.894z M312.083,302.041c-0.165,26.151-0.298,52.965-0.398,80.175
				c-10.075,0.061-20.086,0.132-30.002,0.215c-23.482,0.195-46.387,0.301-68.583,0.361c0.084-27.552,0.199-54.32,0.308-80.152
				C245.875,302.515,279.04,302.313,312.083,302.041z M311.604,406.184c-0.079,26.32-0.127,52.931-0.145,79.596
				c-9.78,0.048-19.498,0.107-29.125,0.178c-23.762,0.173-46.926,0.251-69.348,0.281c-0.037-27.083-0.011-53.645,0.049-79.573
				C245.448,406.583,278.585,406.419,311.604,406.184z M213.035,510.523c32.345-0.041,65.438-0.164,98.417-0.363
				c0,26.456,0.032,52.892,0.093,79.078c-9.589,0.037-19.118,0.084-28.559,0.143c-23.957,0.149-47.293,0.197-69.862,0.197
				C213.132,563,213.104,536.567,213.035,510.523z M311.599,614.031c0.039,26.647,0.005,52.926-0.074,78.706
				c-9.363,0.025-18.668,0.061-27.887,0.108c-24.278,0.125-47.902,0.141-70.728,0.108c0.099-26.129,0.165-52.435,0.195-78.678
				C245.458,614.278,278.587,614.195,311.599,614.031z M311.434,717.947c-0.111,26.799-0.261,52.992-0.417,78.429
				c-8.971,0.014-17.888,0.038-26.724,0.073c-24.728,0.099-48.767,0.081-71.958,0.012c0.189-25.7,0.347-51.917,0.47-78.397
				C245.178,718.113,278.364,718.072,311.434,717.947z M310.856,821.999c-0.17,27.026-0.335,53.101-0.452,78.015
				c-8.546,0.003-17.041,0.016-25.462,0.04c-25.317,0.072-49.909,0.016-73.582-0.091c0.292-25.123,0.55-51.217,0.773-77.98
				C244.51,822.08,277.738,822.084,310.856,821.999z M336.094,821.917c0.205-0.001,0.411-0.001,0.616-0.002
				c33.615-0.134,66.709,0.057,98.602,0.365c-0.142,27.185-0.279,53.369-0.369,78.357c-32.883-0.333-66.45-0.541-99.54-0.604
				C335.666,874.877,335.897,848.738,336.094,821.917z M336.27,796.365c0.165-25.731,0.3-51.991,0.401-78.53
				c0.075,0,0.15,0,0.225-0.001c33.699-0.172,66.882-0.033,98.886,0.222c-0.086,26.954-0.209,53.256-0.339,78.764
				C402.668,796.542,369.24,796.385,336.27,796.365z M336.904,589.165c-0.005-24.01-0.038-47.923-0.1-71.559
				c-0.007-2.542-0.013-5.08-0.018-7.615c0.161-0.001,0.322-0.002,0.482-0.003c33.526-0.245,66.558-0.207,98.481-0.057
				c-0.013,26.592,0.006,53.14,0.058,79.403C403.091,589.163,369.779,589.103,336.904,589.165z M336.753,485.677
				c-0.018-27.08,0.028-53.686,0.108-79.688c0.198-0.001,0.397-0.003,0.595-0.005c33.521-0.279,66.556-0.289,98.508-0.188
				c-0.096,26.442-0.162,53.162-0.194,79.913C403,485.589,369.659,485.575,336.753,485.677z M336.945,382.086
				c0.107-27.557,0.244-54.366,0.375-80.266c0.107-0.001,0.214-0.002,0.322-0.003c33.636-0.313,66.789-0.368,98.875-0.313
				c-0.185,26.262-0.337,53.181-0.457,80.483C403.244,381.915,369.88,381.945,336.945,382.086z M337.438,278.332
				c0.139-28.157,0.256-55.122,0.305-80.68c0.028,0,0.057,0,0.086-0.001c33.887-0.349,67.291-0.447,99.632-0.435
				c-0.292,25.862-0.549,52.941-0.77,80.892C403.821,278.082,370.419,278.154,337.438,278.332z M337.643,94.029
				c34.485-0.322,68.463-0.371,101.304-0.308c-0.448,24.745-0.853,51.755-1.212,80.509c-33.112,0.018-66.75,0.132-99.968,0.347
				c0.001-29.02-0.115-55.989-0.428-80.545C337.439,94.031,337.541,94.03,337.643,94.029z M314.357,94.234
				c-0.431,24.746-0.815,51.76-1.153,80.521c-11.027,0.089-21.981,0.188-32.826,0.3c-22.774,0.234-45.022,0.391-66.63,0.504
				c-0.022-29.106-0.161-56.123-0.495-80.708C246.515,94.725,280.51,94.516,314.357,94.234z M89.168,94.924
				c31.758,0.102,65.646,0.101,100.6,0.005c-0.414,24.813-0.778,51.896-1.094,80.745c-35.055,0.14-68.21,0.197-98.934,0.33
				C89.693,146.717,89.529,119.584,89.168,94.924z M89.756,198.856c31.249,0.049,64.465,0.001,98.681-0.134
				c-0.251,25.741-0.465,52.696-0.642,80.54c-34.848,0.094-67.767,0.108-98.209,0.211C89.678,251.274,89.75,224.336,89.756,198.856z
				 M89.508,302.713c31.02,0.099,64.064,0.1,98.147,0.01c-0.145,26.121-0.258,52.914-0.34,80.12
				c-34.858,0.048-67.73,0.019-98.052,0.094C89.327,355.318,89.42,328.531,89.508,302.713z M89.218,406.557
				c30.913,0.151,63.932,0.201,98.034,0.159c-0.061,26.283-0.093,52.872-0.097,79.539c-34.881,0-67.723-0.073-97.933-0.026
				C89.17,459.067,89.177,432.475,89.218,406.557z M89.28,510.229c30.796,0.205,63.775,0.305,97.881,0.31
				c0.014,26.183,0.055,52.372,0.125,78.349c0,0.224,0.001,0.448,0.001,0.672c-34.96-0.048-67.815-0.168-97.953-0.148
				C89.356,562.765,89.339,536.287,89.28,510.229z M187.327,614.254c0.02,26.585-0.037,52.847-0.142,78.644
				c-35.106-0.099-68.036-0.266-98.135-0.271c0.12-26.2,0.204-52.562,0.251-78.841C120.064,614.047,153.108,614.201,187.327,614.254
				z M187.07,718.005c-0.138,26.741-0.316,52.915-0.5,78.361c-35.218-0.152-68.171-0.367-98.182-0.394
				c0.214-25.78,0.395-52.066,0.54-78.603C119.636,717.69,152.737,717.9,187.07,718.005z M186.383,821.884
				c-0.199,26.971-0.392,53.024-0.533,77.944c-35.457-0.208-68.544-0.473-98.538-0.518c0.32-25.218,0.606-51.397,0.855-78.24
				C118.796,821.454,151.939,821.724,186.383,821.884z M85.694,1003.202c0.465-24.5,0.893-50.798,1.279-78.453
				c30.667,0.455,64.015,0.79,98.748,1.008c-0.115,27.684-0.143,53.779-0.015,77.964
				C149.662,1003.509,116.076,1003.239,85.694,1003.202z M284.942,1003.948c-25.854,0.073-50.947,0.013-75.081-0.099
				c0.433-24.341,0.828-50.465,1.182-77.955c32.518,0.149,65.941,0.201,99.258,0.157c-0.088,27.672-0.093,53.728,0.05,77.856
				C301.823,1003.911,293.346,1003.924,284.942,1003.948z M334.027,1003.925c0.401-24.322,0.765-50.437,1.087-77.923
				c0.469-0.001,0.938-0.002,1.407-0.004c33.542-0.094,66.557,0.15,98.345,0.512c-0.06,27.771-0.041,53.876,0.123,78.022
				C401.636,1004.193,367.578,1003.984,334.027,1003.925z M559.629,1006.489c-31.665-0.696-65.987-1.271-101.455-1.699
				c0.371-24.322,0.703-50.454,0.994-77.981c35.611,0.466,69.378,1.01,100.25,1.299
				C559.389,956.068,559.438,982.287,559.629,1006.489z M559.464,902.591c-31.247-0.687-65.076-1.254-100.038-1.681
				c0.237-25.221,0.441-51.441,0.612-78.37c35.336,0.4,68.902,0.88,99.709,1.137C559.633,851.106,559.525,877.472,559.464,902.591z
				 M559.85,798.525c-31.222-0.612-64.901-1.109-99.661-1.472c0.142-25.795,0.254-52.137,0.335-78.779
				c35.222,0.339,68.734,0.759,99.59,0.983C560.052,746.431,559.954,772.899,559.85,798.525z M560.127,615.144
				c0.068,26.952,0.071,53.433,0.035,79.331c-31.278-0.543-64.908-0.974-99.569-1.275c0.061-26.215,0.092-52.642,0.094-79.051
				c35.095,0.279,68.543,0.643,99.44,0.833C560.127,615.036,560.127,615.09,560.127,615.144z M560.077,590.568
				c-31.312-0.475-64.864-0.84-99.398-1.083c-0.014-21.14-0.047-42.222-0.101-63.127c-0.014-5.445-0.024-10.874-0.032-16.29
				c35.053,0.222,68.511,0.53,99.509,0.688C560.027,537.514,560.034,564.201,560.077,590.568z M560.088,486.722
				c-31.439-0.412-65.03-0.716-99.56-0.901c0.001-27.119,0.067-53.81,0.169-79.925c35.038,0.167,68.527,0.421,99.633,0.544
				C560.217,433.022,560.135,459.868,560.088,486.722z M560.44,382.79c-31.531-0.352-65.135-0.597-99.641-0.729
				c0.13-27.601,0.29-54.491,0.444-80.494c35.014,0.114,68.518,0.317,99.709,0.404C560.75,328.355,560.578,355.389,560.44,382.79z
				 M461.381,278.146c0.163-28.206,0.304-55.252,0.374-80.904c35.152,0.064,68.82,0.217,100.217,0.267
				c-0.312,25.968-0.589,53.155-0.83,81.201C529.516,278.417,495.883,278.227,461.381,278.146z"/>
		</g>
	</g>
</g>
</svg>
