<?xml version="1.0" encoding="utf-8"?>
<!-- Generator: Adobe Illustrator 16.0.0, SVG Export Plug-In . SVG Version: 6.00 Build 0)  -->
<!DOCTYPE svg PUBLIC "-//W3C//DTD SVG 1.1//EN" "http://www.w3.org/Graphics/SVG/1.1/DTD/svg11.dtd">
<svg version="1.1" id="圖層_1" xmlns="http://www.w3.org/2000/svg" xmlns:xlink="http://www.w3.org/1999/xlink" x="0px" y="0px"
	 width="640px" height="1200px" viewBox="0 0 640 1200" enable-background="new 0 0 640 1200" xml:space="preserve">
<g>
	<defs>
		<rect id="SVGID_17_" x="-1" width="642" height="1202"/>
	</defs>
	<clipPath id="SVGID_2_">
		<use xlink:href="#SVGID_17_"  overflow="visible"/>
	</clipPath>
	<g clip-path="url(#SVGID_2_)">
		<rect x="-18.591" y="-99.973" fill="#4A2E2C" width="679.181" height="1324.486"/>
		<g opacity="0.3">
			<defs>
				<rect id="SVGID_19_" x="-15.003" y="-19.381" opacity="0.3" width="670.766" height="1191.509"/>
			</defs>
			<clipPath id="SVGID_4_">
				<use xlink:href="#SVGID_19_"  overflow="visible"/>
			</clipPath>
			<path opacity="0.7" clip-path="url(#SVGID_4_)" fill="#2A100E" d="M535.762,200.59c0.06-32.144-0.011-62.101-0.302-89.417
				c118.495,0.04,201.143-2.338,207.132-17.494c1.543-3.901-86.73-6.705-207.483-8.075c-1.494-86.818-5.837-141.562-16.474-146.645
				c-2.792-1.333-5.222,55.977-7.119,146.398c-36.089-0.343-74.592-0.565-114.119-0.656c-1.611-86.56-6.092-140.76-16.916-145.744
				c-2.879-1.321-5.3,55.626-7.146,145.705c-37.601-0.037-75.859,0.044-113.615,0.25c-1.714-86.978-6.329-141.053-17.394-145.954
				c-2.979-1.317-5.396,55.726-7.191,146.104c-12.582,0.087-25.082,0.188-37.449,0.303c-25.874,0.242-51.125,0.389-75.615,0.485
				c-1.808-87.853-6.554-142.062-17.898-146.895c-3.088-1.314-5.504,56.012-7.244,146.979c-39.991,0.112-77.712,0.125-112.507,0.245
				C-17.491-2.226-22.378-56.296-33.986-61.045c-3.194-1.308-5.601,56.072-7.283,147.337
				c-122.402,0.685-202.899,3.505-208.417,18.644c-1.513,4.15,86.037,6.284,207.979,6.903c-0.442,27.687-0.825,57.937-1.152,90.188
				c-125.725,0.808-208.556,3.616-214.197,18.603c-1.547,4.109,88.701,6.092,213.958,6.523c-0.256,28.625-0.472,58.616-0.646,89.619
				c-121.009,0.709-200.461,3.593-205.941,18.63c-1.504,4.124,85,6.257,205.809,6.892c-0.14,29.064-0.245,58.895-0.316,89.211
				c-116.532,0.62-192.795,3.578-198.121,18.668c-1.462,4.139,81.509,6.417,198.068,7.245c-0.05,29.26-0.069,58.887-0.057,88.63
				c-112.24,0.539-185.465,3.573-190.641,18.715c-1.421,4.155,78.188,6.57,190.658,7.587c0.026,25.945,0.074,51.922,0.144,77.765
				c0.01,3.456,0.017,6.907,0.024,10.356c-108.108,0.465-178.426,3.575-183.455,18.768c-1.38,4.171,74.987,6.717,183.48,7.916
				c0,29.632-0.09,58.95-0.235,87.781c-103.739,0.414-170.998,3.621-175.872,18.831c-1.337,4.171,71.527,6.839,175.721,8.217
				c-0.184,29.847-0.415,59.099-0.652,87.562c-99.037,0.385-162.985,3.717-167.698,18.898c-1.292,4.162,67.853,6.943,167.467,8.494
				c-0.255,30.153-0.502,59.312-0.688,87.216c-94.253,0.377-154.862,3.846-159.407,18.967c-1.248,4.148,64.209,7.033,159.243,8.75
				c-0.161,31.06-0.217,60.356-0.093,87.517c-94.107,0.383-154.608,3.858-159.149,18.966c-1.249,4.15,64.258,7.036,159.351,8.751
				c1.042,102.216,5.417,168.246,18.126,173.934c3.278,1.468,6.201-67.659,8.445-173.496c34.62,0.521,72.373,0.902,111.721,1.148
				c1.118,101.629,5.461,166.78,17.877,172.35c3.24,1.453,6.038-67.03,8.143-172.208c36.748,0.173,74.561,0.233,112.248,0.184
				c1.176,101.784,5.478,166.554,17.647,172.026c3.213,1.444,5.892-66.895,7.859-172.077c1.091-0.003,2.182-0.005,3.272-0.009
				c37.344-0.105,74.1,0.168,109.482,0.572c1.246,101.863,5.516,166.146,17.427,171.514c3.179,1.433,5.729-66.425,7.552-171.207
				c40.279,0.523,78.452,1.141,113.29,1.466c1.34,101.245,5.599,164.502,17.195,169.741c3.137,1.418,5.552-65.611,7.229-169.565
				c96.212,0.468,161.883-2.324,166.957-17.887c1.304-4.002-68.238-7.556-166.537-10.004c0.382-27.186,0.719-56.456,1.011-87.335
				c95.435,0.433,160.478-2.409,165.526-17.894c1.298-3.985-67.646-7.525-165.279-9.973c0.236-28.277,0.436-57.713,0.599-87.98
				c99.074,0.39,166.853-2.363,172.052-17.808c1.339-3.975-70.608-7.409-171.914-9.693c0.134-28.896,0.235-58.433,0.305-88.337
				c102.925,0.343,173.623-2.319,178.981-17.729c1.378-3.966-73.761-7.289-178.927-9.403c0.049-29.333,0.067-58.934,0.055-88.549
				c106.951,0.291,180.725-2.278,186.244-17.657c1.421-3.958-77.081-7.164-186.264-9.1c-0.021-20.712-0.059-41.394-0.11-61.954
				c-0.023-9.001-0.036-17.973-0.044-26.914c111.119,0.229,188.101-2.25,193.789-17.593c1.463-3.948-80.504-7.028-193.79-8.78
				c0.022-30.274,0.119-60.119,0.257-89.354c115.047,0.146,195.058-2.265,200.903-17.54c1.504-3.927-83.675-6.874-200.77-8.437
				c0.169-30.797,0.374-60.841,0.571-89.921c118.729,0.046,201.574-2.32,207.57-17.494c1.543-3.9-86.689-6.703-207.398-8.075
				c0.209-31.458,0.394-61.661,0.498-90.323c122.424-0.063,208.123-2.394,214.271-17.457
				C751.546,204.418,660.169,201.764,535.762,200.59z M511.006,111.135c-0.512,27.442-0.98,57.384-1.399,89.233
				c-35.373-0.266-72.929-0.418-111.426-0.453c0.029-32.116-0.072-62.002-0.393-89.235
				C437.61,110.811,475.67,111.043,511.006,111.135z M369.4,775.305c-36.337-0.248-73.37-0.368-109.907-0.345
				c0.089-29.009,0.142-58.231,0.159-87.406c0.067-0.001,0.135-0.001,0.202-0.001c37.318-0.232,74.077-0.135,109.563,0.089
				C369.479,717.371,369.463,746.637,369.4,775.305z M233.084,226.157c-0.302,28.576-0.563,58.496-0.783,89.39
				c-11.625,0.082-23.176,0.176-34.616,0.283c-25.62,0.239-50.63,0.385-74.895,0.481c0.128-31.217,0.233-61.082,0.263-89.362
				C159.278,226.765,196.253,226.498,233.084,226.157z M232.126,341.67c-0.183,29.005-0.331,58.745-0.442,88.925
				c-11.174,0.068-22.278,0.147-33.276,0.238c-26.045,0.217-51.449,0.334-76.068,0.4c0.094-30.558,0.22-60.249,0.342-88.899
				C158.693,342.195,195.477,341.971,232.126,341.67z M231.596,457.178c-0.087,29.193-0.141,58.708-0.161,88.283
				c-10.847,0.054-21.625,0.119-32.304,0.197c-26.355,0.192-52.048,0.278-76.917,0.312c-0.041-30.038-0.012-59.5,0.054-88.257
				C158.219,457.621,194.973,457.44,231.596,457.178z M122.269,572.906c35.875-0.044,72.581-0.182,109.158-0.403
				c0,29.343,0.035,58.665,0.104,87.708c-10.636,0.041-21.205,0.093-31.675,0.159c-26.571,0.166-52.455,0.219-77.487,0.218
				C122.376,631.11,122.345,601.792,122.269,572.906z M231.589,687.71c0.043,29.556,0.005,58.703-0.082,87.296
				c-10.385,0.027-20.705,0.067-30.93,0.119c-26.928,0.139-53.13,0.157-78.447,0.12c0.11-28.98,0.184-58.158,0.217-87.264
				C158.229,687.983,194.975,687.892,231.589,687.71z M231.406,802.967c-0.123,29.725-0.289,58.775-0.463,86.988
				c-9.95,0.015-19.841,0.042-29.641,0.081c-27.427,0.109-54.089,0.09-79.812,0.013c0.21-28.505,0.384-57.583,0.521-86.953
				C157.919,803.151,194.727,803.106,231.406,802.967z M230.766,918.375c-0.189,29.976-0.372,58.896-0.501,86.529
				c-9.479,0.003-18.901,0.018-28.241,0.044c-28.081,0.08-55.356,0.019-81.613-0.101c0.323-27.864,0.61-56.807,0.857-86.491
				C157.179,918.464,194.033,918.469,230.766,918.375z M258.758,918.284c0.228-0.001,0.455-0.002,0.683-0.003
				c37.284-0.148,73.99,0.064,109.363,0.405c-0.157,30.151-0.309,59.193-0.409,86.909c-36.472-0.37-73.702-0.6-110.404-0.669
				C258.283,977.024,258.54,948.033,258.758,918.284z M258.953,889.943c0.183-28.539,0.333-57.665,0.445-87.1
				c0.083,0,0.167-0.001,0.25-0.001c37.376-0.191,74.181-0.037,109.679,0.246c-0.096,29.896-0.232,59.069-0.376,87.36
				C332.598,890.14,295.521,889.966,258.953,889.943z M259.657,660.13c-0.005-26.63-0.042-53.152-0.11-79.368
				c-0.008-2.819-0.014-5.634-0.02-8.446c0.178-0.001,0.356-0.003,0.535-0.004c37.185-0.271,73.822-0.229,109.229-0.063
				c-0.015,29.495,0.007,58.939,0.064,88.069C333.066,660.128,296.119,660.061,259.657,660.13z M259.489,545.348
				c-0.02-30.035,0.031-59.545,0.12-88.385c0.22-0.001,0.44-0.003,0.66-0.005c37.18-0.31,73.82-0.321,109.26-0.208
				c-0.107,29.328-0.18,58.963-0.216,88.635C332.965,545.25,295.986,545.235,259.489,545.348z M259.702,430.451
				c0.119-30.564,0.271-60.299,0.417-89.026c0.119-0.001,0.238-0.002,0.357-0.003c37.307-0.348,74.078-0.408,109.666-0.347
				c-0.205,29.128-0.374,58.985-0.507,89.267C333.237,430.261,296.231,430.295,259.702,430.451z M260.249,315.373
				c0.154-31.23,0.284-61.137,0.338-89.484c0.032,0,0.063,0,0.096,0c37.585-0.388,74.635-0.496,110.505-0.483
				c-0.324,28.686-0.609,58.719-0.854,89.721C333.876,315.095,296.829,315.176,260.249,315.373z M260.476,110.957
				c38.249-0.358,75.935-0.412,112.36-0.342c-0.497,27.445-0.946,57.403-1.344,89.296c-36.726,0.02-74.036,0.146-110.879,0.385
				c0.002-32.187-0.127-62.1-0.475-89.336C260.25,110.958,260.363,110.958,260.476,110.957z M234.649,111.184
				c-0.478,27.447-0.905,57.41-1.279,89.31c-12.231,0.099-24.381,0.209-36.409,0.333c-25.26,0.26-49.936,0.434-73.901,0.559
				c-0.025-32.282-0.179-62.248-0.549-89.517C159.402,111.728,197.107,111.496,234.649,111.184z M-15.116,111.949
				c35.224,0.112,72.81,0.111,111.579,0.006c-0.458,27.521-0.863,57.559-1.213,89.558c-38.881,0.155-75.654,0.218-109.731,0.365
				C-14.534,169.395-14.716,139.3-15.116,111.949z M-14.465,227.224c34.659,0.055,71.501,0.001,109.451-0.148
				c-0.279,28.551-0.516,58.448-0.712,89.33c-38.651,0.104-75.163,0.12-108.927,0.235
				C-14.552,285.363-14.471,255.484-14.465,227.224z M-14.739,342.415c34.405,0.11,71.056,0.111,108.858,0.012
				c-0.16,28.972-0.286,58.688-0.377,88.863c-38.662,0.053-75.123,0.021-108.753,0.104
				C-14.94,400.762-14.837,371.051-14.739,342.415z M-15.062,457.592c34.287,0.168,70.909,0.223,108.733,0.176
				c-0.068,29.151-0.104,58.643-0.107,88.22c-38.688,0.001-75.114-0.081-108.621-0.028
				C-15.115,515.834-15.107,486.339-15.062,457.592z M-14.993,572.579c34.157,0.227,70.735,0.338,108.563,0.344
				c0.015,29.04,0.062,58.087,0.138,86.899c0,0.249,0.001,0.497,0.001,0.745c-38.775-0.054-75.216-0.186-108.644-0.164
				C-14.908,630.849-14.927,601.48-14.993,572.579z M93.755,687.957c0.022,29.487-0.041,58.615-0.157,87.227
				c-38.938-0.109-75.461-0.294-108.845-0.3c0.133-29.06,0.227-58.299,0.278-87.445C19.151,687.728,55.801,687.898,93.755,687.957z
				 M93.47,803.031c-0.153,29.66-0.351,58.69-0.555,86.913c-39.062-0.168-75.611-0.407-108.897-0.436
				c0.237-28.595,0.438-57.75,0.599-87.182C18.676,802.683,55.39,802.915,93.47,803.031z M92.708,918.247
				c-0.221,29.915-0.434,58.812-0.591,86.451c-39.326-0.231-76.024-0.525-109.292-0.574c0.354-27.97,0.672-57.007,0.948-86.779
				C17.745,917.771,54.505,918.07,92.708,918.247z M-18.97,1119.354c0.516-27.174,0.99-56.342,1.418-87.016
				c34.014,0.504,71.001,0.876,109.524,1.118c-0.127,30.705-0.158,59.648-0.017,86.473
				C51.979,1119.694,14.728,1119.396-18.97,1119.354z M202.024,1120.182c-28.675,0.081-56.508,0.014-83.275-0.11
				c0.48-26.998,0.918-55.973,1.311-86.462c36.067,0.166,73.138,0.224,110.091,0.175c-0.098,30.691-0.104,59.591,0.055,86.353
				C220.747,1120.141,211.344,1120.155,202.024,1120.182z M256.466,1120.156c0.445-26.977,0.848-55.941,1.206-86.427
				c0.52-0.001,1.041-0.002,1.561-0.004c37.202-0.104,73.82,0.167,109.078,0.568c-0.066,30.802-0.045,59.756,0.137,86.538
				C331.453,1120.454,293.678,1120.222,256.466,1120.156z M506.689,1123c-35.121-0.772-73.188-1.409-112.528-1.885
				c0.412-26.977,0.779-55.96,1.103-86.492c39.498,0.517,76.949,1.12,111.191,1.441C506.422,1067.076,506.478,1096.156,506.689,1123
				z M506.506,1007.762c-34.657-0.761-72.178-1.391-110.956-1.863c0.263-27.975,0.49-57.056,0.679-86.924
				c39.193,0.444,76.421,0.977,110.591,1.261C506.694,950.659,506.574,979.902,506.506,1007.762z M506.935,892.339
				c-34.629-0.679-71.985-1.23-110.538-1.633c0.157-28.61,0.282-57.827,0.372-87.376c39.066,0.376,76.235,0.842,110.459,1.091
				C507.158,834.56,507.05,863.917,506.935,892.339z M507.241,688.944c0.075,29.894,0.079,59.265,0.039,87.988
				c-34.691-0.603-71.992-1.079-110.436-1.415c0.067-29.076,0.103-58.387,0.104-87.679c38.925,0.31,76.024,0.713,110.293,0.925
				C507.241,688.824,507.241,688.884,507.241,688.944z M507.186,661.687c-34.729-0.527-71.943-0.932-110.247-1.201
				c-0.016-23.447-0.052-46.83-0.112-70.016c-0.016-6.04-0.027-12.061-0.036-18.068c38.878,0.246,75.988,0.588,110.369,0.763
				C507.13,602.842,507.138,632.442,507.186,661.687z M507.198,546.507c-34.87-0.458-72.127-0.794-110.426-1
				c0.001-30.078,0.074-59.682,0.188-88.647c38.862,0.185,76.006,0.467,110.507,0.604
				C507.341,486.946,507.25,516.722,507.198,546.507z M507.589,431.232c-34.972-0.39-72.244-0.663-110.515-0.808
				c0.144-30.613,0.322-60.438,0.493-89.279c38.835,0.126,75.996,0.351,110.591,0.449
				C507.932,370.856,507.742,400.84,507.589,431.232z M397.718,315.167c0.181-31.284,0.337-61.282,0.415-89.733
				c38.988,0.071,76.331,0.241,111.155,0.296c-0.346,28.801-0.653,58.957-0.92,90.064
				C473.289,315.468,435.986,315.257,397.718,315.167z"/>
		</g>
	</g>
</g>
</svg>
