<?xml version="1.0" encoding="utf-8"?>
<!-- Generator: Adobe Illustrator 16.0.0, SVG Export Plug-In . SVG Version: 6.00 Build 0)  -->
<!DOCTYPE svg PUBLIC "-//W3C//DTD SVG 1.1//EN" "http://www.w3.org/Graphics/SVG/1.1/DTD/svg11.dtd">
<svg version="1.1" id="圖層_1" xmlns="http://www.w3.org/2000/svg" xmlns:xlink="http://www.w3.org/1999/xlink" x="0px" y="0px"
	 width="105px" height="40px" viewBox="0 0 105 40" enable-background="new 0 0 105 40" xml:space="preserve">
<rect x="2.589" y="5" fill="#FFFFFF" width="99.822" height="30"/>
<g>
	<path fill="#727171" d="M102.411,35H2.589V5h99.822V35z M3.354,34.299h98.355V5.766H3.354V34.299z"/>
	<g>
		<path fill="#727171" d="M14.498,16.993c-1.475,2.562-0.537,6.452,1.095,8.807c0.815,1.177,1.642,2.235,2.77,2.235
			c0.023,0,0.044,0,0.063,0c0.534-0.021,0.918-0.184,1.284-0.34c0.422-0.179,0.85-0.365,1.529-0.365c0.639,0,1.053,0.179,1.444,0.35
			c0.394,0.171,0.795,0.344,1.388,0.33c1.276-0.019,2.056-1.161,2.745-2.167c0.719-1.056,1.081-2.076,1.205-2.466v-0.015
			c0.024-0.07-0.006-0.144-0.074-0.174c0,0-0.006-0.004-0.012-0.004c-0.223-0.092-2.188-0.964-2.207-3.343
			c-0.022-1.929,1.473-2.953,1.772-3.14l0.016-0.007c0.029-0.02,0.055-0.053,0.059-0.09c0.01-0.037,0-0.08-0.017-0.109
			c-1.035-1.51-2.618-1.738-3.253-1.761c-0.089-0.012-0.181-0.017-0.282-0.017c-0.748,0-1.465,0.282-2.041,0.511
			c-0.398,0.152-0.738,0.293-0.975,0.293c-0.268,0-0.615-0.141-1.01-0.297c-0.536-0.21-1.139-0.455-1.783-0.455
			c-0.014,0-0.03,0-0.043,0C16.684,14.791,15.275,15.643,14.498,16.993L14.498,16.993z M14.498,16.993"/>
		<path fill="#727171" d="M24.309,10.576c-0.904,0.038-1.981,0.593-2.632,1.347c-0.551,0.637-1.087,1.698-0.946,2.77
			c0.007,0.07,0.066,0.118,0.132,0.127c0.063,0.003,0.125,0.007,0.183,0.007c0.886,0,1.836-0.488,2.487-1.277
			c0.685-0.825,1.031-1.897,0.923-2.845C24.451,10.628,24.383,10.572,24.309,10.576L24.309,10.576z M24.309,10.576"/>
	</g>
	<g>
		<g>
			<path fill="#727171" d="M36.395,16.783v-4.681h1.615c0.362,0,0.641,0.024,0.832,0.066c0.27,0.061,0.499,0.175,0.686,0.335
				c0.249,0.209,0.434,0.477,0.554,0.801c0.124,0.325,0.185,0.694,0.185,1.11c0,0.36-0.042,0.674-0.123,0.948
				c-0.085,0.273-0.189,0.503-0.321,0.68c-0.13,0.181-0.272,0.323-0.425,0.425c-0.156,0.105-0.339,0.182-0.56,0.235
				c-0.216,0.054-0.472,0.081-0.751,0.081H36.395z M37.017,16.229h0.995c0.315,0,0.557-0.025,0.729-0.085
				c0.175-0.057,0.317-0.135,0.42-0.243c0.148-0.147,0.259-0.342,0.344-0.591c0.083-0.247,0.122-0.553,0.122-0.902
				c0-0.488-0.079-0.866-0.241-1.129c-0.165-0.263-0.356-0.438-0.588-0.526c-0.163-0.064-0.433-0.096-0.798-0.096h-0.983V16.229z"/>
			<path fill="#727171" d="M40.961,15.089c0-0.628,0.177-1.097,0.526-1.397c0.287-0.25,0.641-0.376,1.067-0.376
				c0.461,0,0.844,0.153,1.135,0.463c0.298,0.3,0.444,0.728,0.444,1.258c0,0.438-0.063,0.784-0.191,1.031
				c-0.132,0.251-0.325,0.445-0.573,0.583c-0.249,0.139-0.522,0.208-0.815,0.208c-0.477,0-0.864-0.152-1.154-0.453
				C41.11,16.097,40.961,15.659,40.961,15.089z M41.554,15.089c0,0.433,0.093,0.758,0.286,0.974
				c0.185,0.214,0.423,0.324,0.715,0.324c0.279,0,0.518-0.11,0.707-0.324c0.193-0.217,0.285-0.545,0.285-0.993
				c0-0.421-0.1-0.743-0.285-0.954c-0.191-0.216-0.428-0.326-0.707-0.326c-0.292,0-0.53,0.108-0.715,0.326
				C41.646,14.325,41.554,14.652,41.554,15.089z"/>
			<path fill="#727171" d="M45.57,16.783l-1.039-3.388h0.591l0.541,1.954l0.198,0.726c0.01-0.035,0.069-0.267,0.175-0.696
				l0.542-1.983h0.595l0.504,1.962l0.168,0.651l0.195-0.659l0.581-1.954h0.56l-1.058,3.388h-0.601l-0.539-2.031l-0.13-0.576
				l-0.687,2.607H45.57z"/>
			<path fill="#727171" d="M49.792,16.783v-3.388h0.518v0.478c0.247-0.37,0.608-0.558,1.081-0.558c0.201,0,0.392,0.041,0.565,0.109
				c0.167,0.076,0.297,0.172,0.38,0.29c0.086,0.118,0.145,0.258,0.183,0.425c0.018,0.107,0.025,0.293,0.025,0.562v2.083h-0.572
				v-2.063c0-0.236-0.021-0.406-0.064-0.524c-0.044-0.118-0.125-0.209-0.24-0.277c-0.113-0.068-0.247-0.106-0.397-0.106
				c-0.246,0-0.457,0.079-0.633,0.233c-0.181,0.154-0.273,0.45-0.273,0.89v1.848H49.792z"/>
			<path fill="#727171" d="M53.544,16.783v-4.681h0.577v4.681H53.544z"/>
			<path fill="#727171" d="M54.929,15.089c0-0.628,0.175-1.097,0.518-1.397c0.297-0.25,0.651-0.376,1.071-0.376
				c0.466,0,0.846,0.153,1.142,0.463c0.295,0.3,0.444,0.728,0.444,1.258c0,0.438-0.062,0.784-0.193,1.031
				c-0.129,0.251-0.321,0.445-0.569,0.583c-0.249,0.139-0.528,0.208-0.823,0.208c-0.476,0-0.859-0.152-1.151-0.453
				C55.074,16.097,54.929,15.659,54.929,15.089z M55.518,15.089c0,0.433,0.094,0.758,0.285,0.974
				c0.191,0.214,0.429,0.324,0.715,0.324c0.283,0,0.522-0.11,0.711-0.324c0.187-0.217,0.288-0.545,0.288-0.993
				c0-0.421-0.101-0.743-0.288-0.954c-0.189-0.216-0.428-0.326-0.711-0.326c-0.287,0-0.524,0.108-0.715,0.326
				C55.612,14.325,55.518,14.652,55.518,15.089z"/>
			<path fill="#727171" d="M61.123,16.364c-0.22,0.182-0.419,0.309-0.616,0.384c-0.195,0.072-0.41,0.11-0.634,0.11
				c-0.372,0-0.659-0.09-0.859-0.271c-0.201-0.183-0.301-0.417-0.301-0.698c0-0.169,0.041-0.317,0.114-0.454
				c0.081-0.142,0.173-0.25,0.298-0.335c0.121-0.082,0.259-0.146,0.413-0.187c0.111-0.029,0.282-0.056,0.51-0.084
				c0.465-0.053,0.802-0.12,1.023-0.199c0.002-0.078,0.006-0.124,0.006-0.149c0-0.234-0.055-0.402-0.165-0.494
				c-0.147-0.132-0.366-0.196-0.655-0.196c-0.269,0-0.47,0.048-0.596,0.144c-0.131,0.094-0.225,0.262-0.284,0.505l-0.566-0.076
				c0.054-0.242,0.141-0.441,0.255-0.583c0.12-0.151,0.283-0.264,0.508-0.348c0.217-0.077,0.474-0.118,0.77-0.118
				c0.287,0,0.521,0.041,0.704,0.103c0.181,0.07,0.313,0.155,0.398,0.258c0.088,0.105,0.145,0.233,0.179,0.387
				c0.02,0.101,0.03,0.279,0.03,0.535v0.765c0,0.533,0.011,0.867,0.033,1.011c0.028,0.145,0.075,0.275,0.147,0.409h-0.599
				C61.177,16.666,61.135,16.523,61.123,16.364z M61.071,15.084c-0.207,0.084-0.52,0.155-0.933,0.213
				c-0.241,0.036-0.408,0.072-0.508,0.115c-0.093,0.046-0.173,0.109-0.226,0.187c-0.05,0.082-0.079,0.175-0.079,0.271
				c0,0.153,0.057,0.286,0.175,0.382c0.115,0.107,0.284,0.156,0.509,0.156c0.22,0,0.417-0.044,0.59-0.146
				c0.173-0.094,0.296-0.23,0.382-0.396c0.063-0.129,0.089-0.32,0.089-0.575V15.084z"/>
			<path fill="#727171" d="M64.871,16.783v-0.43c-0.213,0.335-0.528,0.505-0.947,0.505c-0.268,0-0.514-0.072-0.744-0.222
				c-0.225-0.146-0.404-0.359-0.526-0.625c-0.127-0.263-0.187-0.574-0.187-0.919c0-0.339,0.057-0.647,0.169-0.919
				c0.113-0.278,0.284-0.49,0.508-0.634c0.225-0.151,0.477-0.222,0.757-0.222c0.203,0,0.384,0.043,0.545,0.132
				c0.16,0.083,0.292,0.195,0.392,0.335v-1.68h0.569v4.681H64.871z M63.059,15.091c0,0.433,0.092,0.759,0.272,0.974
				c0.185,0.212,0.398,0.322,0.65,0.322c0.25,0,0.466-0.104,0.643-0.313c0.174-0.205,0.261-0.514,0.261-0.934
				c0-0.47-0.087-0.807-0.271-1.024c-0.177-0.216-0.392-0.326-0.659-0.326c-0.256,0-0.473,0.104-0.642,0.313
				C63.145,14.315,63.059,14.642,63.059,15.091z"/>
			<path fill="#727171" d="M68.173,15.089c0-0.628,0.174-1.097,0.521-1.397c0.293-0.25,0.648-0.376,1.069-0.376
				c0.467,0,0.847,0.153,1.143,0.463c0.296,0.3,0.444,0.728,0.444,1.258c0,0.438-0.067,0.784-0.195,1.031
				c-0.13,0.251-0.321,0.445-0.575,0.583c-0.25,0.139-0.522,0.208-0.817,0.208c-0.473,0-0.859-0.152-1.148-0.453
				C68.321,16.097,68.173,15.659,68.173,15.089z M68.764,15.089c0,0.433,0.099,0.758,0.282,0.974
				c0.191,0.214,0.433,0.324,0.717,0.324c0.287,0,0.524-0.11,0.713-0.324c0.189-0.217,0.283-0.545,0.283-0.993
				c0-0.421-0.094-0.743-0.287-0.954c-0.187-0.216-0.428-0.326-0.709-0.326c-0.284,0-0.526,0.108-0.717,0.326
				C68.863,14.325,68.764,14.652,68.764,15.089z"/>
			<path fill="#727171" d="M72.154,16.783v-3.388h0.519v0.478c0.25-0.37,0.606-0.558,1.079-0.558c0.204,0,0.391,0.041,0.563,0.109
				c0.175,0.076,0.297,0.172,0.385,0.29c0.085,0.118,0.146,0.258,0.176,0.425c0.023,0.107,0.037,0.293,0.037,0.562v2.083h-0.579
				v-2.063c0-0.236-0.021-0.406-0.062-0.524c-0.052-0.118-0.129-0.209-0.241-0.277c-0.116-0.068-0.25-0.106-0.4-0.106
				c-0.247,0-0.455,0.079-0.635,0.233c-0.177,0.154-0.27,0.45-0.27,0.89v1.848H72.154z"/>
			<path fill="#727171" d="M79.122,16.27l0.084,0.507c-0.167,0.032-0.311,0.05-0.436,0.05c-0.207,0-0.372-0.032-0.484-0.096
				c-0.115-0.07-0.195-0.153-0.241-0.262c-0.049-0.104-0.071-0.331-0.071-0.676v-1.954h-0.421v-0.443h0.421v-0.844l0.569-0.346v1.19
				h0.579v0.443h-0.579v1.983c0,0.167,0.012,0.269,0.034,0.318c0.018,0.043,0.051,0.083,0.096,0.106
				c0.046,0.031,0.113,0.044,0.199,0.044C78.934,16.29,79.021,16.284,79.122,16.27z"/>
			<path fill="#727171" d="M79.815,16.783v-4.681h0.573v1.68c0.271-0.31,0.61-0.467,1.018-0.467c0.25,0,0.467,0.049,0.652,0.148
				c0.187,0.1,0.317,0.238,0.397,0.409c0.081,0.175,0.123,0.428,0.123,0.758v2.152h-0.573v-2.152c0-0.285-0.068-0.495-0.193-0.622
				c-0.124-0.13-0.299-0.201-0.524-0.201c-0.173,0-0.331,0.046-0.48,0.134c-0.151,0.088-0.259,0.208-0.326,0.358
				c-0.062,0.152-0.094,0.36-0.094,0.625v1.857H79.815z"/>
			<path fill="#727171" d="M85.901,15.688l0.595,0.074c-0.092,0.349-0.268,0.619-0.519,0.812c-0.257,0.19-0.577,0.285-0.973,0.285
				c-0.496,0-0.888-0.152-1.179-0.454c-0.292-0.308-0.434-0.741-0.434-1.287c0-0.572,0.143-1.013,0.44-1.328
				c0.289-0.314,0.673-0.473,1.144-0.473c0.45,0,0.821,0.157,1.108,0.466c0.288,0.306,0.43,0.741,0.43,1.303
				c0,0.033-0.002,0.084-0.004,0.149h-2.526c0.021,0.37,0.125,0.658,0.315,0.857c0.187,0.196,0.422,0.296,0.711,0.296
				c0.208,0,0.39-0.057,0.537-0.168C85.699,16.108,85.815,15.934,85.901,15.688z M84.016,14.763h1.893
				c-0.024-0.288-0.098-0.501-0.218-0.641c-0.181-0.223-0.417-0.333-0.711-0.333c-0.264,0-0.487,0.092-0.666,0.265
				C84.135,14.229,84.035,14.465,84.016,14.763z"/>
		</g>
		<g>
			<path fill="#727171" d="M43.29,27.576h-1.798l-0.704-1.852h-3.263l-0.678,1.852h-1.746l3.182-8.158h1.739L43.29,27.576z
				 M40.253,24.351l-1.123-3.032l-1.105,3.032H40.253z"/>
			<path fill="#727171" d="M44.166,21.663h1.459v0.873c0.188-0.3,0.441-0.54,0.77-0.726c0.319-0.181,0.678-0.277,1.071-0.277
				c0.681,0,1.272,0.271,1.746,0.806c0.478,0.54,0.718,1.288,0.718,2.246c0,0.99-0.24,1.757-0.722,2.307
				c-0.479,0.545-1.065,0.822-1.754,0.822c-0.324,0-0.621-0.066-0.892-0.196c-0.262-0.132-0.539-0.354-0.834-0.668v2.974h-1.561
				V21.663z M45.713,24.52c0,0.661,0.129,1.155,0.392,1.473c0.266,0.315,0.587,0.476,0.967,0.476c0.364,0,0.663-0.146,0.908-0.435
				c0.237-0.296,0.36-0.771,0.36-1.435c0-0.621-0.125-1.081-0.374-1.381c-0.248-0.3-0.556-0.45-0.922-0.45
				c-0.38,0-0.703,0.147-0.955,0.443C45.84,23.505,45.713,23.946,45.713,24.52z"/>
			<path fill="#727171" d="M51.186,21.663h1.457v0.873c0.189-0.3,0.443-0.54,0.766-0.726c0.324-0.181,0.681-0.277,1.074-0.277
				c0.685,0,1.272,0.271,1.749,0.806c0.48,0.54,0.721,1.288,0.721,2.246c0,0.99-0.246,1.757-0.729,2.307
				c-0.479,0.545-1.064,0.822-1.752,0.822c-0.326,0-0.619-0.066-0.884-0.196c-0.267-0.132-0.547-0.354-0.839-0.668v2.974h-1.561
				V21.663z M52.731,24.52c0,0.661,0.129,1.155,0.394,1.473c0.266,0.315,0.587,0.476,0.963,0.476c0.367,0,0.666-0.146,0.908-0.435
				c0.235-0.296,0.364-0.771,0.364-1.435c0-0.621-0.13-1.081-0.377-1.381c-0.247-0.3-0.556-0.45-0.919-0.45
				c-0.384,0-0.703,0.147-0.955,0.443C52.858,23.505,52.731,23.946,52.731,24.52z"/>
			<path fill="#727171" d="M61.065,24.922l1.607-0.155c0.094,0.539,0.287,0.935,0.583,1.184c0.295,0.251,0.691,0.382,1.193,0.382
				c0.532,0,0.93-0.116,1.197-0.339c0.27-0.225,0.404-0.489,0.404-0.786c0-0.195-0.054-0.358-0.169-0.495
				c-0.112-0.136-0.307-0.252-0.589-0.353c-0.2-0.064-0.634-0.189-1.317-0.356c-0.888-0.217-1.507-0.487-1.867-0.808
				c-0.502-0.447-0.748-0.997-0.748-1.644c0-0.414,0.115-0.798,0.35-1.161c0.241-0.364,0.579-0.639,1.022-0.832
				c0.443-0.185,0.977-0.284,1.604-0.284c1.026,0,1.794,0.228,2.314,0.678c0.516,0.449,0.792,1.046,0.811,1.797l-1.641,0.073
				c-0.073-0.42-0.223-0.719-0.457-0.905c-0.231-0.188-0.581-0.274-1.044-0.274c-0.475,0-0.854,0.099-1.12,0.292
				c-0.177,0.128-0.268,0.293-0.268,0.508c0,0.189,0.087,0.359,0.246,0.496c0.213,0.171,0.711,0.355,1.515,0.543
				c0.801,0.19,1.393,0.383,1.776,0.586c0.388,0.205,0.686,0.478,0.904,0.832c0.219,0.352,0.326,0.784,0.326,1.299
				c0,0.469-0.13,0.904-0.39,1.313c-0.259,0.408-0.626,0.71-1.101,0.91c-0.474,0.201-1.067,0.298-1.776,0.298
				c-1.033,0-1.823-0.236-2.377-0.715C61.5,26.527,61.173,25.834,61.065,24.922z"/>
			<path fill="#727171" d="M71.844,21.663v1.251h-1.07v2.38c0,0.481,0.012,0.764,0.031,0.842c0.02,0.079,0.064,0.145,0.136,0.202
				c0.073,0.048,0.163,0.077,0.264,0.077c0.148,0,0.359-0.054,0.636-0.154l0.126,1.213c-0.363,0.163-0.775,0.237-1.231,0.237
				c-0.281,0-0.539-0.048-0.765-0.146c-0.224-0.091-0.396-0.213-0.499-0.366c-0.104-0.147-0.177-0.352-0.218-0.611
				c-0.035-0.18-0.049-0.546-0.049-1.099v-2.576h-0.719v-1.251h0.719v-1.169l1.569-0.915v2.084H71.844z"/>
			<path fill="#727171" d="M72.621,24.538c0-0.519,0.13-1.022,0.386-1.505c0.258-0.49,0.618-0.86,1.091-1.117
				c0.468-0.257,0.992-0.384,1.569-0.384c0.894,0,1.627,0.291,2.198,0.872c0.574,0.579,0.858,1.31,0.858,2.202
				c0,0.894-0.287,1.634-0.866,2.224c-0.579,0.587-1.302,0.882-2.178,0.882c-0.542,0-1.059-0.129-1.551-0.37
				c-0.493-0.246-0.863-0.607-1.121-1.077C72.75,25.792,72.621,25.217,72.621,24.538z M74.22,24.625
				c0,0.581,0.142,1.027,0.421,1.345c0.28,0.308,0.623,0.466,1.033,0.466c0.406,0,0.746-0.158,1.024-0.466
				c0.276-0.318,0.418-0.766,0.418-1.362c0-0.579-0.142-1.022-0.418-1.334c-0.279-0.314-0.618-0.466-1.024-0.466
				c-0.41,0-0.753,0.152-1.033,0.466C74.362,23.586,74.22,24.037,74.22,24.625z"/>
			<path fill="#727171" d="M81.498,27.576h-1.56v-5.913h1.453v0.843c0.25-0.397,0.473-0.657,0.672-0.785
				c0.195-0.126,0.419-0.189,0.675-0.189c0.355,0,0.697,0.096,1.03,0.299l-0.486,1.356c-0.264-0.17-0.51-0.253-0.735-0.253
				c-0.219,0-0.404,0.061-0.555,0.178c-0.154,0.125-0.271,0.343-0.359,0.655c-0.085,0.315-0.134,0.976-0.134,1.982V27.576z"/>
			<path fill="#727171" d="M87.92,25.693l1.56,0.262c-0.205,0.572-0.521,1.008-0.951,1.307c-0.433,0.298-0.975,0.45-1.624,0.45
				c-1.028,0-1.786-0.34-2.281-1.011c-0.389-0.539-0.586-1.213-0.586-2.038c0-0.98,0.254-1.744,0.768-2.301
				c0.513-0.554,1.158-0.831,1.944-0.831c0.88,0,1.569,0.291,2.083,0.872c0.506,0.579,0.748,1.469,0.728,2.667h-3.917
				c0.012,0.466,0.134,0.828,0.375,1.083c0.243,0.263,0.544,0.387,0.902,0.387c0.245,0,0.45-0.068,0.618-0.199
				C87.707,26.205,87.833,25.993,87.92,25.693z M88.005,24.116c-0.01-0.452-0.124-0.801-0.346-1.035
				c-0.227-0.233-0.495-0.355-0.814-0.355c-0.339,0-0.625,0.126-0.844,0.373c-0.227,0.252-0.333,0.589-0.331,1.017H88.005z"/>
		</g>
	</g>
</g>
</svg>
