<?xml version="1.0" encoding="utf-8"?>
<!-- Generator: Adobe Illustrator 16.0.0, SVG Export Plug-In . SVG Version: 6.00 Build 0)  -->
<!DOCTYPE svg PUBLIC "-//W3C//DTD SVG 1.1//EN" "http://www.w3.org/Graphics/SVG/1.1/DTD/svg11.dtd">
<svg version="1.1" id="圖層_1" xmlns="http://www.w3.org/2000/svg" xmlns:xlink="http://www.w3.org/1999/xlink" x="0px" y="0px"
	 width="960px" height="540px" viewBox="0 0 960 540" enable-background="new 0 0 960 540" xml:space="preserve">
<g>
	<g>
		<defs>
			<rect id="SVGID_140_" x="-1.777" y="-619.189" width="963.554" height="542"/>
		</defs>
		<clipPath id="SVGID_2_">
			<use xlink:href="#SVGID_140_"  overflow="visible"/>
		</clipPath>
		<g id="圖層_1_23_" clip-path="url(#SVGID_2_)">
			<g>
				<g>
					<defs>
						<rect id="SVGID_161_" x="-2.28" y="-619.69" width="964.559" height="543.003"/>
					</defs>
					<clipPath id="SVGID_4_">
						<use xlink:href="#SVGID_161_"  overflow="visible"/>
					</clipPath>
					<path opacity="0.1" clip-path="url(#SVGID_4_)" fill="#D13C3D" enable-background="new    " d="M-110.095-611.367
						c-37.016,100.891-39.718,214.354-25.638,319.887c6.754,50.604,7.836,93.889,33.419,135.615
						c11.639,18.982,24.262,40.835,40.636,53.751c27.043,21.329,18.763,45.211,48.524,60.439
						C29.46-19.867,114.71-17.137,157.54,3.854c43.3,21.225,95.759,17.307,142.432,21.552c65.906,5.992,271.015-5.844,337.253-7.578
						c40.133-1.048,80.153-10.105,120.165-10.452c17.825-0.155,36.875,5.208,54.502-0.275c2.121-27.521-21.314-38.426-29.763-66.305
						c-16.408-54.14-395.791-86.173-433.083-97.04c-75.833-22.101-160.895-37.625-211.187-114.116
						C92.583-339.222,38.074-448.502,36.664-533.759c-0.712-43.114,32.657-128.59,4.187-156.856
						C-89.787-820.31-96.965-647.149-110.095-611.367z"/>
				</g>
				<g>
					<defs>
						<rect id="SVGID_163_" x="-2.28" y="-619.69" width="964.559" height="543.003"/>
					</defs>
					<clipPath id="SVGID_6_">
						<use xlink:href="#SVGID_163_"  overflow="visible"/>
					</clipPath>
					<path opacity="0.15" clip-path="url(#SVGID_6_)" fill="#D13C3D" enable-background="new    " d="M393.351,140.592
						c-70.936,41.61-155.314,49.826-235.767,41.018c-38.577-4.223-71.018-3.185-105.198-26.503
						c-15.547-10.609-33.354-22.054-44.937-37.654c-19.125-25.762-35.973-16.391-50.865-45.146
						C-64.74,31.134-76.873-53.225-97.615-94.65c-20.972-41.88-24.258-94.066-32.954-140.115
						c-12.278-65.032-27.73-268.897-34.281-334.634c-3.97-39.826-1.947-79.936-6.426-119.608
						c-1.995-17.674-8.254-36.295-6.249-54.032c20.295-3.445,31.211,19.25,53.022,26.265
						c42.358,13.62,111.198,388.077,123.725,424.503C24.701-218.187,46.363-134.637,109.42-88.523
						C166.188-47.01,254.222,1.684,318.035-1.079c32.271-1.399,92.127-38.642,116.602-11.802
						C546.923,110.269,418.507,125.833,393.351,140.592z"/>
				</g>
			</g>
			<g>
				<g>
					<defs>
						<rect id="SVGID_165_" x="-1.779" y="-620.193" width="964.559" height="543.004"/>
					</defs>
					<clipPath id="SVGID_8_">
						<use xlink:href="#SVGID_165_"  overflow="visible"/>
					</clipPath>
					<path opacity="0.18" clip-path="url(#SVGID_8_)" fill="#C12B35" enable-background="new    " d="M-109.592-601.206
						c-37.016,109.379-39.72,232.386-25.639,346.798c6.753,54.864,7.837,101.789,33.42,147.027
						c11.636,20.578,24.26,44.27,40.635,58.272c27.042,23.122,18.764,49.014,48.525,65.524
						c42.614,23.64,127.863,26.6,170.691,49.358c43.301,23.008,95.76,18.762,142.431,23.364
						c65.909,6.496,271.018-6.336,337.255-8.215c40.133-1.139,80.153-10.956,120.165-11.333c17.823-0.169,36.874,5.646,54.501-0.3
						c2.12-29.835-21.316-41.655-29.762-71.881c-16.407-58.695-395.791-93.422-433.082-105.204
						c-75.833-23.959-160.897-40.791-211.188-123.715C93.086-306.164,38.575-424.639,37.167-517.068
						c-0.713-46.74,32.657-139.407,4.184-170.052C-89.285-827.726-96.464-639.998-109.592-601.206z"/>
					<path opacity="0.3" clip-path="url(#SVGID_8_)" fill="#C12B35" enable-background="new    " d="M393.852,140.092
						c-70.937,41.608-155.314,49.824-235.766,41.018c-38.577-4.224-71.018-3.185-105.197-26.504
						c-15.55-10.609-33.355-22.053-44.937-37.652c-19.125-25.762-35.975-16.39-50.867-45.146
						C-64.237,30.633-76.37-53.725-97.115-95.151c-20.97-41.88-24.257-94.066-32.952-140.115
						c-12.279-65.032-27.729-268.899-34.281-334.632c-3.97-39.826-1.946-79.936-6.425-119.609
						c-1.997-17.674-8.256-36.295-6.249-54.032c20.294-3.445,31.209,19.252,53.021,26.265
						C-81.642-703.654-12.803-329.199-0.275-292.771c25.477,74.083,47.139,157.632,110.196,203.744
						C166.69-47.512,254.725,1.182,318.537-1.58c32.271-1.397,92.128-38.642,116.601-11.801
						C547.426,109.767,419.01,125.332,393.852,140.092z"/>
				</g>
			</g>
		</g>
	</g>
</g>
<g>
	<g>
		<rect x="-1.777" y="-1" fill="#4A2E2C" width="963.554" height="542"/>
		<g opacity="0.3">
			<defs>
				<rect id="SVGID_173_" x="-1.777" y="-1" opacity="0.3" width="963.554" height="542"/>
			</defs>
			<clipPath id="SVGID_10_">
				<use xlink:href="#SVGID_173_"  overflow="visible"/>
			</clipPath>
			<path opacity="0.7" clip-path="url(#SVGID_10_)" fill="#2A100E" d="M1113.196,214.663c1.51-2.483-82.242-4.393-204.706-5.624
				c0.213-25.876,0.609-51.002,0.992-74.824c120.516-0.355,198.173-2.691,203.716-11.799c1.496-2.454-81.508-4.247-203.442-5.361
				c0.43-27.377,0.77-52.75,0.689-75.193c120.598-0.449,197.333-2.814,202.752-11.694c1.485-2.429-81.078-4.104-202.904-5.1
				c-0.741-48.479-4.208-79.919-14.548-82.864c-2.679-0.764-5.113,32.261-7.009,82.698c-22.835-0.166-46.872-0.31-71.843-0.432
				c-0.644-51.722-3.995-85.483-14.528-88.559c-2.727-0.797-5.156,34.739-6.992,88.46c-23.311-0.101-47.338-0.183-71.885-0.248
				c-0.554-55.094-3.781-91.296-14.504-94.505c-2.774-0.831-5.191,37.337-6.958,94.453c-23.627-0.052-47.667-0.088-71.948-0.109
				c-0.473-58.557-3.573-97.292-14.475-100.638c-2.817-0.866-5.216,40.04-6.904,100.624c-23.869-0.011-47.917-0.008-71.983,0.01
				c-0.404-62.093-3.375-103.443-14.443-106.926c-2.858-0.9-5.229,42.833-6.829,106.946c-14.196,0.016-28.382,0.037-42.523,0.063
				c-9.87,0.018-19.71,0.027-29.513,0.029c-0.348-65.68-3.188-109.711-14.411-113.331c-2.896-0.936-5.232,45.674-6.734,113.324
				c-24.366-0.021-48.464-0.083-72.178-0.171c-0.313-69.095-3.035-115.695-14.377-119.446c-2.923-0.968-5.212,48.381-6.61,119.362
				c-24.684-0.106-48.901-0.235-72.51-0.367c-0.299-72.343-2.915-121.411-14.344-125.288c-2.943-0.999-5.175,51.001-6.461,125.171
				c-25.044-0.142-49.329-0.28-72.688-0.391c-0.298-75.546-2.813-127.074-14.313-131.073c-2.96-1.031-5.129,53.637-6.298,130.982
				c-25.616-0.104-49.99-0.163-72.875-0.143c-0.304-78.897-2.717-133.007-14.289-137.133c-2.979-1.064-5.079,56.469-6.123,137.173
				c-105.453,0.341-174.782,2.746-180.332,11.056c-1.429,2.139,71.479,4.027,180.137,5.418c-0.256,23.764-0.426,49.206-0.506,75.517
				c-105.414,0.426-174.183,2.929-179.631,11.389c-1.419,2.208,71.151,4.079,179.592,5.42c-0.038,24.675,0.002,49.946,0.124,75.169
				c-105.852,0.503-174.359,3.098-179.717,11.734c-1.412,2.284,71.153,4.137,179.813,5.427c0.123,19.573,0.296,39.029,0.521,58.062
				c0.066,5.622,0.125,11.203,0.179,16.742c-106.737,0.574-175.238,3.255-180.514,12.092c-1.408,2.366,71.423,4.203,180.665,5.44
				c0.2,25.955,0.29,50.858,0.369,74.424c-107.514,0.648-175.849,3.423-181.036,12.459c-1.402,2.448,71.486,4.263,181.096,5.444
				c0.095,26.801,0.213,51.639,0.518,74.045c-108.375,0.724-176.52,3.593-181.615,12.837c-1.397,2.535,71.703,4.327,181.92,5.447
				c1.273,63.282,4.663,103.198,14.665,106.487c2.747,0.903,4.335-41.868,5.021-106.297c23.031,0.21,47.474,0.393,73.031,0.549
				c1.243,61.72,4.659,100.597,14.718,103.823c2.764,0.886,4.42-40.781,5.197-103.708c23.503,0.129,47.842,0.236,72.797,0.322
				c1.209,60.336,4.649,98.292,14.778,101.459c2.784,0.871,4.506-39.818,5.371-101.395c23.756,0.071,48.004,0.123,72.557,0.158
				c1.175,59.076,4.636,96.198,14.843,99.311c2.806,0.856,4.595-38.947,5.546-99.287c23.865,0.023,47.966,0.031,72.14,0.021
				c1.139,57.91,4.619,94.278,14.912,97.34c2.83,0.842,4.685-38.152,5.72-97.352c22.377-0.018,44.774-0.049,67.061-0.094
				c1.608-0.003,3.214-0.006,4.821-0.009c1.103,56.84,4.599,92.516,14.984,95.529c2.856,0.829,4.776-37.415,5.895-95.551
				c24.153-0.01,48.088,0.03,71.691,0.104c1.071,55.655,4.59,90.56,15.052,93.52c2.876,0.814,4.859-36.547,6.061-93.445
				c24.276,0.096,48.158,0.222,71.513,0.359c1.051,54.268,4.601,88.258,15.117,91.16c2.89,0.798,4.932-35.545,6.215-91.032
				c24.453,0.15,48.269,0.305,71.294,0.442c1.037,52.806,4.624,85.823,15.18,88.664c2.901,0.782,5-34.51,6.364-88.542
				c24.78,0.135,48.543,0.237,71.082,0.276c1.022,51.432,4.643,83.557,15.243,86.34c2.917,0.767,5.071-33.596,6.515-86.323
				c120.332-0.032,201.024-2.333,207.028-12.292c1.542-2.557-83.468-4.79-206.564-6.356c0.506-22.359,0.901-47.28,1.19-73.734
				c119.859-0.116,199.496-2.427,205.375-12.158c1.529-2.527-82.734-4.652-205.194-6.108c0.212-23.926,0.342-48.864,0.391-74.108
				c120.023-0.19,199.037-2.503,204.805-12.03c1.519-2.504-82.421-4.523-204.784-5.868c0.006-14.696-0.014-29.438-0.061-44.089
				c-0.033-10.197-0.021-20.333,0.025-30.376C1028.938,226.309,1107.531,223.996,1113.196,214.663z M884.975,208.815
				c-22.233-0.2-45.561-0.379-69.734-0.537c0.167-25.577,0.511-50.439,0.854-74.083c24.425,0.056,47.75,0.086,69.813,0.064
				C885.496,158.396,885.179,183.517,884.975,208.815z M791.903,296.174c0.005,1.292,0.009,2.574,0.014,3.86
				c-22.68-0.15-45.996-0.281-69.756-0.393c-0.026-15.758-0.081-31.575-0.164-47.29c-0.047-8.791-0.061-17.533-0.051-26.216
				c24.065,0.09,47.429,0.186,69.973,0.266C791.814,249.905,791.806,273.373,791.903,296.174z M791.697,391.943
				c-22.68-0.168-45.989-0.316-69.729-0.445c0.146-23.636,0.215-48.231,0.21-73.138c23.969,0.109,47.272,0.223,69.778,0.321
				C791.97,344.275,791.835,368.805,791.697,391.943z M163.016,238.557c-0.05-4.555-0.091-9.095-0.128-13.625
				c23.199,0.166,47.184,0.313,71.734,0.438c0.08,20.268,0.218,40.426,0.416,60.121c0.045,4.495,0.084,8.956,0.121,13.397
				c-24.73-0.093-48.644-0.184-71.597-0.249C163.417,278.65,163.234,258.526,163.016,238.557z M162.783,132.662
				c23.248,0.179,47.276,0.339,71.863,0.478c-0.109,24.209-0.137,49.057-0.082,73.899c-24.778-0.109-48.758-0.215-71.795-0.294
				C162.647,181.39,162.691,156.558,162.783,132.662z M699.064,294.394c0.009,1.722,0.016,3.433,0.024,5.147
				c-23.059-0.095-46.466-0.171-70.049-0.229c-0.043-16.411-0.117-32.89-0.22-49.259c-0.051-8.107-0.076-16.175-0.081-24.193
				c23.929,0.044,47.378,0.114,70.253,0.194C698.925,249.078,698.946,272.052,699.064,294.394z M256.275,240.856
				c-0.052-5.143-0.094-10.27-0.128-15.381c23.439,0.107,47.32,0.195,71.453,0.265c0.056,20.743,0.174,41.383,0.358,61.532
				c0.037,3.999,0.068,7.97,0.098,11.925c-24.352-0.061-48.156-0.143-71.305-0.228C256.628,279.63,256.469,260.17,256.275,240.856z
				 M349.535,243.155c-0.053-5.807-0.094-11.593-0.125-17.357c23.541,0.056,47.264,0.093,70.999,0.112
				c0.029,21.285,0.125,42.475,0.295,63.144c0.028,3.431,0.053,6.84,0.075,10.24c-24.006,0.018-47.648-0.003-70.837-0.047
				C349.841,280.575,349.705,261.796,349.535,243.155z M442.621,245.455c-0.054-6.539-0.09-13.049-0.115-19.533
				c23.668,0.007,47.294-0.005,70.706-0.037c0,21.891,0.073,43.699,0.228,64.949c0.021,2.795,0.038,5.578,0.055,8.352
				c-22.408,0.006-44.722,0.03-66.793,0.073c-1.248,0.002-2.492,0.004-3.738,0.007C442.882,281.348,442.767,263.337,442.621,245.455
				z M535.694,247.754c-0.053-7.336-0.085-14.64-0.102-21.906c23.842-0.045,47.364-0.048,70.481-0.022
				c-0.033,22.507,0.015,44.946,0.152,66.788c0.014,2.224,0.026,4.438,0.038,6.648c-23.37-0.044-46.855-0.07-70.292-0.077
				C535.911,282.055,535.818,264.845,535.694,247.754z M628.764,207.521c0.078-25.408,0.329-50.167,0.598-73.807
				c24.001,0.029,47.486,0.083,70.368,0.146c-0.316,24.001-0.541,48.863-0.665,73.847
				C675.936,207.628,652.446,207.566,628.764,207.521z M606.118,207.485c-23.434-0.033-47-0.048-70.534-0.045
				c0.035-25.334,0.242-50.05,0.474-73.693c2.684-0.004,5.365-0.009,8.042-0.014c21.162-0.039,42.032-0.048,62.558-0.038
				C606.387,157.72,606.204,182.555,606.118,207.485z M513.23,207.448c-19.351,0.012-38.645,0.036-57.789,0.072
				c-4.334,0.008-8.658,0.015-12.974,0.02c-0.008-25.322,0.156-50.051,0.352-73.751c23.73,0.016,47.398,0.012,70.828-0.012
				C513.419,157.806,513.278,182.593,513.23,207.448z M420.401,207.556c-24.048,0.004-47.767-0.03-71.056-0.088
				c-0.048-25.323,0.073-50.083,0.234-73.844c23.595,0.067,47.361,0.115,71.122,0.144
				C420.515,157.874,420.412,182.695,420.401,207.556z M327.567,207.407c-24.397-0.076-48.272-0.173-71.513-0.273
				c-0.085-25.311-0.003-50.073,0.123-73.878c23.49,0.12,47.415,0.22,71.578,0.301C327.608,157.718,327.543,182.555,327.567,207.407
				z M235.29,317.599c0.151,25.501,0.187,49.97,0.214,73.127c-24.744-0.078-48.643-0.153-71.56-0.204
				c-0.021-23.708-0.109-48.338-0.26-73.321C186.837,317.354,210.777,317.487,235.29,317.599z M256.857,317.692
				c23.385,0.094,47.218,0.17,71.314,0.227c0.128,25.484,0.138,49.934,0.139,73.06c-24.369-0.047-48.16-0.114-71.269-0.185
				C257.047,367.159,256.984,342.599,256.857,317.692z M350.032,317.965c23.477,0.044,47.149,0.071,70.849,0.08
				c0.106,25.459,0.089,49.886,0.063,72.979c-24.029,0.029-47.657,0.021-70.804-0.009
				C350.173,367.399,350.135,342.854,350.032,317.965z M443.035,318.048c23.595-0.002,47.164-0.022,70.545-0.061
				c0.084,25.45,0.04,49.868-0.013,72.94c-23.686-0.002-47.245,0.017-70.501,0.06C443.125,367.408,443.114,342.896,443.035,318.048z
				 M536.027,317.949c23.748-0.034,47.216-0.024,70.308,0.016c0.062,25.508-0.011,49.976-0.092,73.083
				c-23.375-0.057-46.852-0.094-70.262-0.11C536.068,367.342,536.082,342.808,536.027,317.949z M629.076,318.014
				c23.834,0.06,47.226,0.147,70.068,0.245c0.038,25.533-0.064,50.015-0.174,73.124c-23.061-0.11-46.459-0.202-70.021-0.272
				C629.065,367.482,629.106,342.907,629.076,318.014z M722,207.793c0.121-25.463,0.419-50.25,0.724-73.867
				c24.136,0.072,47.537,0.148,70.088,0.211c-0.362,24.006-0.63,48.927-0.793,73.998C769.264,208.002,745.86,207.888,722,207.793z
				 M888.137,41.924c-0.744,22.634-1.389,48.01-1.912,74.929c-22.26-0.181-45.632-0.341-69.872-0.479
				c0.386-26.964,0.705-52.061,0.661-74.453C841.959,41.957,865.718,41.966,888.137,41.924z M794.813,41.882
				c-0.674,22.625-1.25,47.784-1.712,74.366c-22.778-0.115-46.225-0.213-70.144-0.292c0.347-26.764,0.643-51.771,0.623-74.231
				C748.157,41.78,771.941,41.838,794.813,41.882z M701.518,41.678c-0.611,22.712-1.127,47.797-1.533,74.208
				c-23.15-0.065-46.678-0.114-70.416-0.146c0.309-26.638,0.582-51.6,0.578-74.164C654.534,41.592,678.352,41.631,701.518,41.678z
				 M608.242,41.568c-0.552,22.817-1.01,47.864-1.362,74.146c-23.449-0.021-47.048-0.026-70.64-0.016
				c0.271-26.496,0.521-51.412,0.528-74.058c5.375-0.007,10.734-0.016,16.072-0.025C571.578,41.581,590.055,41.567,608.242,41.568z
				 M515.034,41.663c-0.495,22.906-0.897,47.903-1.197,74.05c-16.6,0.015-33.17,0.037-49.655,0.068
				c-7.09,0.013-14.159,0.022-21.207,0.027c0.232-26.441,0.458-51.38,0.472-74.158C467.452,41.676,491.376,41.681,515.034,41.663z
				 M421.9,41.622c-0.441,23.05-0.792,48.083-1.043,74.191c-24.047-0.008-47.8-0.056-71.149-0.128
				c0.195-26.387,0.396-51.349,0.41-74.239C373.945,41.524,397.934,41.583,421.9,41.622z M327.88,115.61
				c-24.398-0.091-48.307-0.203-71.602-0.318c0.159-26.327,0.331-51.279,0.339-74.262c23.689,0.132,47.809,0.246,72.159,0.339
				C328.387,64.527,328.085,89.563,327.88,115.61z M234.743,115.184c-24.784-0.125-48.795-0.246-71.883-0.341
				c0.123-26.33,0.268-51.344,0.267-74.454c23.417,0.192,47.62,0.365,72.374,0.517C235.159,64.159,234.904,89.195,234.743,115.184z
				 M69.644,39.466c22.932,0.27,47.24,0.519,72.599,0.744c-0.297,23.409-0.508,48.529-0.628,74.553
				c-25.379-0.085-49.512-0.127-72.164-0.091C69.538,88.124,69.656,62.863,69.644,39.466z M69.401,131.787
				c22.788,0.258,46.941,0.493,72.146,0.705c-0.072,24.332-0.067,49.272,0.021,74.188c-25.371-0.069-49.468-0.094-72.075-0.043
				C69.333,181.035,69.341,155.949,69.401,131.787z M69.758,236.257c-0.048-4.06-0.09-8.11-0.128-12.15
				c22.746,0.245,46.851,0.468,72.018,0.666c0.103,19.87,0.258,39.624,0.469,58.939c0.055,4.993,0.103,9.949,0.146,14.875
				c-25.319-0.053-49.351-0.064-71.886,0C70.21,277.856,70.002,256.975,69.758,236.257z M70.512,316.43
				c22.708,0.232,46.771,0.44,71.896,0.624c0.174,25.603,0.237,50.171,0.29,73.429c-25.331-0.037-49.346-0.033-71.849,0.046
				C70.803,366.575,70.688,341.683,70.512,316.43z M70.635,482.467c0.173-22.68,0.248-47.522,0.236-73.723
				c22.695,0.219,46.748,0.414,71.871,0.583c0.065,26.44,0.158,50.943,0.442,73.045C117.565,482.351,93.318,482.371,70.635,482.467z
				 M163.618,482.397c0.203-22.428,0.309-47.007,0.328-72.936c23.136,0.14,47.067,0.259,71.582,0.357
				c0.037,26.353,0.104,50.755,0.373,72.739C210.866,482.495,186.729,482.433,163.618,482.397z M256.597,482.61
				c0.236-22.333,0.374-46.842,0.424-72.71c23.364,0.082,47.188,0.146,71.291,0.191c0.007,26.354,0.048,50.735,0.304,72.665
				C303.951,482.722,279.912,482.668,256.597,482.61z M349.576,482.779c0.27-22.287,0.44-46.781,0.521-72.652
				c23.452,0.034,47.115,0.05,70.826,0.05c-0.024,26.347-0.011,50.702,0.229,72.577C396.82,482.794,372.936,482.797,349.576,482.779
				z M442.381,482.715c0.303-22.229,0.507-46.693,0.619-72.544c23.564-0.011,47.125-0.038,70.524-0.083
				c-0.056,26.379-0.071,50.742,0.153,72.59C489.703,482.667,465.875,482.678,442.381,482.715z M535.172,482.696
				c0.338-22.229,0.576-46.734,0.72-72.641c23.708-0.022,47.169,0.002,70.285,0.058c-0.087,26.463-0.133,50.88,0.078,72.729
				C582.593,482.771,558.84,482.722,535.172,482.696z M628.01,482.914c0.376-22.222,0.649-46.769,0.827-72.737
				c23.797,0.077,47.183,0.182,70.043,0.298c-0.121,26.508-0.195,50.945,0.003,72.758
				C675.535,483.106,651.849,482.999,628.01,482.914z M720.893,483.36c0.415-22.19,0.726-46.755,0.938-72.766
				c23.935,0.128,47.232,0.261,69.752,0.377c-0.154,26.605-0.258,51.087-0.068,72.89
				C768.542,483.674,744.933,483.506,720.893,483.36z M813.766,484.052c0.457-22.2,0.809-46.842,1.058-72.965
				c24.217,0.113,47.432,0.196,69.463,0.221c-0.191,26.88-0.325,51.562-0.14,73.464C861.69,484.51,838.142,484.269,813.766,484.052z
				 M814.985,392.124c0.178-23.695,0.276-48.366,0.298-73.346c24.25,0.094,47.471,0.161,69.486,0.171
				c-0.01,25.81-0.177,50.536-0.347,73.829C862.261,392.539,839.034,392.32,814.985,392.124z M884.741,297.955
				c0.003,0.949,0.005,1.892,0.007,2.838c-22.16-0.22-45.396-0.418-69.463-0.595c-0.01-15.18-0.047-30.411-0.111-45.547
				c-0.041-9.451-0.042-18.847-0.017-28.171c24.35,0.076,47.638,0.125,69.693,0.121
				C884.707,250.629,884.666,274.644,884.741,297.955z"/>
		</g>
	</g>
	<g>
		<path fill="#F4E8D1" d="M306.607,365.799c-3.313,3.975-7.637,5.962-12.973,5.962h-13.139v-39.416h13.139
			c5.299,0,9.605,1.987,12.917,5.962c3.128,3.718,4.692,8.281,4.692,13.691C311.244,357.445,309.699,362.045,306.607,365.799z
			 M304.951,339.853c-2.87-3.533-6.644-5.3-11.316-5.3h-10.931v34.944h10.931c4.048,0,7.563-1.509,10.544-4.527
			c3.201-3.238,4.803-7.563,4.803-12.973C308.981,347.177,307.637,343.129,304.951,339.853z"/>
		<path fill="#F4E8D1" d="M338.458,371.761v-3.919c-2.393,2.871-5.429,4.306-9.108,4.306c-3.313,0-6.092-1.122-8.336-3.367
			c-2.282-2.282-3.423-5.079-3.423-8.391c0-3.312,1.122-6.09,3.367-8.335c2.282-2.282,5.079-3.423,8.392-3.423
			c3.644,0,6.68,1.436,9.108,4.306v-3.975h2.264v22.799H338.458z M336.084,353.654c-1.877-1.877-4.122-2.815-6.734-2.815
			c-2.65,0-4.896,0.92-6.735,2.76c-1.877,1.877-2.815,4.14-2.815,6.79c0,2.614,0.938,4.858,2.815,6.735s4.122,2.815,6.735,2.815
			c2.649,0,4.894-0.919,6.734-2.76c1.877-1.877,2.815-4.14,2.815-6.79C338.9,357.776,337.961,355.531,336.084,353.654z"/>
		<path fill="#F4E8D1" d="M350.382,344.876c-0.405,0-0.828-0.166-1.27-0.497c-0.331-0.332-0.516-0.773-0.553-1.325
			c0-0.994,0.607-1.601,1.822-1.822c0.919,0,1.526,0.607,1.821,1.822C352.204,344.27,351.597,344.876,350.382,344.876z
			 M349.223,371.761v-22.799h2.264v22.799H349.223z"/>
		<path fill="#F4E8D1" d="M358.276,371.761V330.91h2.209v40.851H358.276z"/>
		<path fill="#F4E8D1" d="M373.788,382.47h-2.539l5.907-12.807l-9.605-20.702h2.429l8.501,17.997l8.392-17.997h2.483L373.788,382.47
			z"/>
		<path fill="#F4E8D1" d="M430.978,369.608c-2.024,1.693-4.692,2.539-8.005,2.539c-3.201,0-5.87-0.864-8.004-2.594
			c-2.245-1.877-3.368-4.417-3.368-7.618v-29.589h2.209v29.589c0,2.539,0.919,4.527,2.76,5.962c1.692,1.325,3.827,1.987,6.403,1.987
			c2.54,0,4.674-0.681,6.404-2.042c1.877-1.472,2.815-3.441,2.815-5.907v-29.589h2.263v29.589
			C434.456,365.136,433.296,367.695,430.978,369.608z"/>
		<path fill="#F4E8D1" d="M440.638,371.761v-39.416h2.209v39.416H440.638z"/>
		<path fill="#F4E8D1" d="M498.048,369.442c-2.062,1.509-4.857,2.429-8.391,2.76c-0.405,0.037-0.847,0.064-1.325,0.083
			c-0.479,0.018-0.976,0.028-1.49,0.028c-5.962,0-10.819-1.877-14.573-5.631c-3.791-3.79-5.687-8.667-5.687-14.629
			c0-5.962,1.877-10.82,5.631-14.574c3.79-3.79,8.667-5.686,14.629-5.686c3.386,0,6.44,0.497,9.164,1.49
			c1.619,0.626,3.183,1.528,4.692,2.705v2.815c-1.546-1.288-3.239-2.319-5.079-3.091c-2.797-1.141-5.723-1.711-8.777-1.711
			c-5.226,0-9.532,1.693-12.918,5.079c-3.386,3.386-5.078,7.71-5.078,12.973c0,5.263,1.674,9.569,5.023,12.917
			c3.386,3.386,7.71,5.079,12.973,5.079c3.275,0,6.128-0.588,8.557-1.767c1.398-0.698,3.165-1.821,5.3-3.367v2.595L498.048,369.442z
			"/>
		<path fill="#F4E8D1" d="M521.18,371.816V358.07c0-4.821-2.246-7.232-6.735-7.232c-1.841,0-3.423,0.552-4.747,1.656
			c-1.362,1.104-2.043,2.577-2.043,4.417v14.85h-2.264V330.91h2.264v21.088c1.361-2.245,3.624-3.368,6.79-3.368
			c5.998,0,8.998,3.073,8.998,9.219v13.966H521.18z"/>
		<path fill="#F4E8D1" d="M550.659,371.761v-3.919c-2.394,2.871-5.43,4.306-9.109,4.306c-3.312,0-6.091-1.122-8.335-3.367
			c-2.283-2.282-3.423-5.079-3.423-8.391c0-3.312,1.122-6.09,3.367-8.335c2.281-2.282,5.079-3.423,8.391-3.423
			c3.644,0,6.68,1.436,9.109,4.306v-3.975h2.263v22.799H550.659z M548.285,353.654c-1.877-1.877-4.122-2.815-6.735-2.815
			c-2.649,0-4.895,0.92-6.734,2.76c-1.877,1.877-2.815,4.14-2.815,6.79c0,2.614,0.938,4.858,2.815,6.735s4.121,2.815,6.734,2.815
			c2.65,0,4.895-0.919,6.735-2.76c1.877-1.877,2.815-4.14,2.815-6.79C551.1,357.776,550.162,355.531,548.285,353.654z"/>
		<path fill="#F4E8D1" d="M561.643,371.761V330.91h2.209v40.851H561.643z"/>
		<path fill="#F4E8D1" d="M570.088,371.761V330.91h2.209v40.851H570.088z"/>
		<path fill="#F4E8D1" d="M581.902,359.892c0,3.091,0.828,5.539,2.484,7.342c1.729,1.841,4.103,2.76,7.121,2.76
			c1.546,0,2.943-0.257,4.195-0.773c1.582-0.662,2.999-2.005,4.251-4.03l2.042,0.938c-1.435,2.724-3.644,4.564-6.624,5.521
			c-1.142,0.367-2.429,0.552-3.864,0.552c-3.423,0-6.238-1.122-8.446-3.367c-2.245-2.245-3.367-5.06-3.367-8.446
			c0-3.422,1.104-6.238,3.312-8.446c2.245-2.244,5.079-3.367,8.502-3.367c3.386,0,6.183,1.049,8.391,3.146
			c2.244,2.098,3.367,4.822,3.367,8.17H581.902z M597.469,352.66c-1.73-1.25-3.718-1.877-5.962-1.877
			c-4.712,0-7.803,2.319-9.274,6.956h18.493C600.358,355.641,599.272,353.949,597.469,352.66z"/>
		<path fill="#F4E8D1" d="M625.236,371.761v-13.635c0-4.821-2.172-7.232-6.514-7.232c-2.135,0-3.754,0.626-4.858,1.877
			c-1.141,1.252-1.711,2.963-1.711,5.134v13.856h-2.264v-22.799h2.264v2.76c1.029-2.023,3.22-3.036,6.569-3.036
			c2.833,0,5.004,0.81,6.514,2.429c1.509,1.62,2.264,3.883,2.264,6.79v13.856H625.236z"/>
		<path fill="#F4E8D1" d="M654.494,379.379c-2.062,2.061-4.767,3.091-8.115,3.091c-6.22,0-9.937-2.448-11.151-7.342h2.264
			c0.404,1.803,1.563,3.147,3.478,4.03c1.509,0.699,3.313,1.049,5.41,1.049c2.833,0,5.023-0.792,6.569-2.374
			c1.582-1.583,2.374-3.791,2.374-6.625v-3.367c-2.394,2.871-5.43,4.306-9.109,4.306c-3.312,0-6.091-1.122-8.335-3.367
			c-2.283-2.282-3.423-5.079-3.423-8.391c0-3.312,1.122-6.09,3.367-8.335c2.281-2.282,5.079-3.423,8.391-3.423
			c3.644,0,6.68,1.436,9.109,4.306v-3.975h2.263v22.302C657.584,374.612,656.554,377.317,654.494,379.379z M652.948,353.654
			c-1.877-1.877-4.122-2.815-6.735-2.815c-2.649,0-4.895,0.92-6.734,2.76c-1.877,1.877-2.815,4.14-2.815,6.79
			c0,2.614,0.938,4.858,2.815,6.735s4.121,2.815,6.734,2.815c2.65,0,4.895-0.919,6.735-2.76c1.877-1.877,2.815-4.14,2.815-6.79
			C655.763,357.776,654.825,355.531,652.948,353.654z"/>
		<path fill="#F4E8D1" d="M666.141,359.892c0,3.091,0.828,5.539,2.484,7.342c1.729,1.841,4.103,2.76,7.121,2.76
			c1.546,0,2.943-0.257,4.195-0.773c1.582-0.662,2.999-2.005,4.251-4.03l2.042,0.938c-1.435,2.724-3.644,4.564-6.624,5.521
			c-1.142,0.367-2.429,0.552-3.864,0.552c-3.423,0-6.238-1.122-8.446-3.367c-2.245-2.245-3.367-5.06-3.367-8.446
			c0-3.422,1.104-6.238,3.312-8.446c2.245-2.244,5.079-3.367,8.502-3.367c3.386,0,6.183,1.049,8.391,3.146
			c2.244,2.098,3.367,4.822,3.367,8.17H666.141z M681.708,352.66c-1.73-1.25-3.718-1.877-5.962-1.877
			c-4.712,0-7.803,2.319-9.274,6.956h18.493C684.597,355.641,683.511,353.949,681.708,352.66z"/>
	</g>
	<g>
		<g>
			
				<path fill="#EFB91B" stroke="#EFB91B" stroke-width="1.5" stroke-linecap="round" stroke-linejoin="round" stroke-miterlimit="10" d="
				M493.464,271.595h-27.013c-2.419-0.009-3.321,7.303-3.789,9.906c-0.067,0.371-0.103,1.149-0.103,1.149h34.807
				C497.366,279.502,496.239,271.595,493.464,271.595z"/>
		</g>
		<g>
			
				<path fill="#EFB91B" stroke="#EFB91B" stroke-width="1.5" stroke-linecap="round" stroke-linejoin="round" stroke-miterlimit="10" d="
				M489.085,268.37h-18.251c-1.633-0.006-2.244,4.934-2.56,6.692c-0.046,0.25-0.069,0.776-0.069,0.776h23.516
				C491.721,273.711,490.959,268.37,489.085,268.37z"/>
		</g>
		<g>
			<g>
				
					<path fill="#EFB91B" stroke="#EFB91B" stroke-width="1.5" stroke-linecap="round" stroke-linejoin="round" stroke-miterlimit="10" d="
					M508.796,225.22c-0.186-1.633,0.984-3.108,2.617-3.294c1.632-0.186,3.107,0.984,3.294,2.614c0.099,0.857,0.181,1.732,0.24,2.639
					c0.05,0.829,0.08,1.728,0.08,2.682h0.01v0.007h-0.01c-0.003,10.079-3.999,18.02-10.463,23.448
					c-6.346,5.34-15.041,8.187-24.59,8.187v0.012h-0.011h-0.004v-0.012c-9.553,0-18.252-2.847-24.6-8.187
					c-6.46-5.429-10.459-13.37-10.459-23.448h-0.012v-0.007v-0.004h0.012c0-9.598,3.737-22.848,9.774-33.657
					c6.284-11.256,15.173-20.04,25.284-20.04v-0.012h0.004h0.006v0.012c2.809,0,5.528,0.677,8.125,1.895
					c1.652,0.772,3.24,1.764,4.754,2.918c7.467,5.706,13.66,15.968,17.572,26.472c0.572,1.537-0.21,3.243-1.743,3.816
					c-1.54,0.575-3.245-0.212-3.819-1.741c-3.563-9.576-9.086-18.833-15.617-23.824c-1.209-0.924-2.435-1.693-3.66-2.267
					c-1.829-0.857-3.708-1.338-5.611-1.338v0.012h-0.006h-0.004v-0.012c-7.609,0.004-14.764,7.451-20.098,16.989
					c-5.578,9.991-9.028,22.106-9.028,30.777h0.01v0.004v0.007h-0.01c0,8.184,3.19,14.579,8.34,18.918
					c5.268,4.424,12.617,6.782,20.786,6.782v-0.007h0.004h0.011v0.007c8.164,0,15.51-2.357,20.776-6.782
					c5.153-4.339,8.344-10.735,8.344-18.918h-0.014v-0.007h0.014c0-0.707-0.031-1.48-0.082-2.309
					C508.961,226.798,508.891,226.017,508.796,225.22z"/>
				
					<path fill="#EFB91B" stroke="#EFB91B" stroke-width="1.5" stroke-linecap="round" stroke-linejoin="round" stroke-miterlimit="10" d="
					M472.189,216.19c1.458-0.747,3.252-0.178,4.002,1.278c0.755,1.46,0.18,3.256-1.279,4.007c-2.399,1.23-4.249,2.139-5.901,2.748
					l-0.004,0.006l0.004,0.006c-1.848,0.686-3.418,0.988-5.078,0.938c-2.377-0.077-4.333-0.938-6.276-1.788
					c-1.675-0.734-3.34-1.463-4.688-1.205h-0.008v0.006c-0.138,0.025-0.259,0.064-0.356,0.101c-0.114,0.042-0.209,0.086-0.285,0.136
					l0.006,0.012c-0.599,0.395-1.037,1.281-1.186,2.747c-0.167,1.632-1.628,2.821-3.257,2.651c-1.632-0.164-2.82-1.625-2.652-3.254
					c0.35-3.421,1.768-5.75,3.811-7.098l0.005,0.001l0.008-0.001c0.438-0.293,0.885-0.526,1.34-0.709
					c0.474-0.19,0.95-0.331,1.43-0.425l0,0l0.029-0.006c3.144-0.61,5.65,0.49,8.18,1.601c1.427,0.627,2.865,1.256,4.085,1.3
					c0.808,0.021,1.685-0.164,2.822-0.588l0.005,0.009C468.28,218.166,469.958,217.342,472.189,216.19z"/>
				
					<path fill="#EFB91B" stroke="#EFB91B" stroke-width="1.5" stroke-linecap="round" stroke-linejoin="round" stroke-miterlimit="10" d="
					M459.786,217.833c1.5,0.673,2.167,2.43,1.491,3.929c-0.675,1.496-2.435,2.16-3.933,1.487c-3.442-1.557-5.978-3.503-7.387-6.222
					c-1.437-2.779-1.582-6.104-0.171-10.324c0.519-1.553,2.204-2.389,3.757-1.87c1.555,0.522,2.391,2.202,1.876,3.761
					c-0.858,2.554-0.866,4.383-0.183,5.714C455.957,215.687,457.54,216.812,459.786,217.833z"/>
				
					<path fill="#EFB91B" stroke="#EFB91B" stroke-width="1.5" stroke-linecap="round" stroke-linejoin="round" stroke-miterlimit="10" d="
					M485.021,221.476c-1.458-0.751-2.031-2.547-1.278-4.007c0.751-1.457,2.543-2.025,3.999-1.278
					c2.234,1.152,3.914,1.976,5.249,2.473l0.003-0.009c1.141,0.424,2.017,0.608,2.821,0.588c1.22-0.044,2.659-0.673,4.089-1.3
					c2.525-1.111,5.037-2.211,8.18-1.601l0.027,0.006l0,0c0.482,0.095,0.957,0.235,1.429,0.425c0.456,0.183,0.904,0.416,1.341,0.709
					l0.009,0.001l0.003-0.001c2.044,1.348,3.463,3.676,3.814,7.098c0.167,1.629-1.023,3.091-2.655,3.254
					c-1.631,0.17-3.091-1.019-3.256-2.651c-0.152-1.466-0.588-2.353-1.185-2.747l0.003-0.012c-0.073-0.05-0.171-0.094-0.282-0.141
					c-0.099-0.032-0.218-0.071-0.359-0.096v-0.006h-0.009c-1.35-0.259-3.011,0.471-4.687,1.205c-1.939,0.85-3.896,1.711-6.272,1.785
					c-1.661,0.053-3.232-0.25-5.079-0.936l0.001-0.006l-0.001-0.006C489.271,223.615,487.421,222.711,485.021,221.476z"/>
			</g>
		</g>
		
			<line fill="none" stroke="#EFB91B" stroke-width="10" stroke-miterlimit="10" x1="479.89" y1="260.255" x2="479.89" y2="274.111"/>
		<g>
			
				<path fill="#F4E8D1" stroke="#F4E8D1" stroke-width="2" stroke-linecap="round" stroke-linejoin="round" stroke-miterlimit="10" d="
				M499.681,276.118h-39.45c-3.623-0.018-5.473,14.364-6.176,19.481c-0.1,0.729-0.152,2.259-0.152,2.259h52.121
				C506.023,291.667,503.835,276.118,499.681,276.118z"/>
		</g>
		<path fill="#EFB91B" d="M523.102,196.516c-0.418,0-0.758-0.339-0.758-0.759c0-0.417-0.34-0.758-0.759-0.758
			c-0.419,0-0.759,0.341-0.759,0.758c0,0.419-0.342,0.759-0.759,0.759c-0.421,0-0.76,0.342-0.76,0.76
			c0,0.418,0.339,0.759,0.76,0.759c0.417,0,0.759,0.341,0.759,0.759c0,0.42,0.339,0.762,0.759,0.762
			c0.419,0,0.759-0.341,0.759-0.762c0-0.418,0.34-0.759,0.758-0.759c0.421,0,0.759-0.341,0.759-0.759
			C523.86,196.857,523.521,196.516,523.102,196.516L523.102,196.516z M523.102,196.516"/>
		<path fill="#EFB91B" d="M454.196,265.854c-1.644,0-2.979-1.336-2.979-2.977c0-0.422-0.34-0.762-0.759-0.762
			c-0.421,0-0.759,0.34-0.759,0.762c0,1.641-1.336,2.977-2.979,2.977c-0.419,0-0.759,0.34-0.759,0.76
			c0,0.418,0.34,0.757,0.759,0.757c1.643,0,2.979,1.336,2.979,2.977c0,0.422,0.338,0.762,0.759,0.762
			c0.419,0,0.759-0.339,0.759-0.762c0-1.641,1.335-2.977,2.979-2.977c0.42,0,0.759-0.339,0.759-0.757
			C454.955,266.194,454.616,265.854,454.196,265.854L454.196,265.854z M450.459,267.852c-0.329-0.488-0.75-0.912-1.239-1.238
			c0.489-0.329,0.91-0.753,1.239-1.241c0.328,0.488,0.75,0.912,1.241,1.241C451.209,266.94,450.787,267.364,450.459,267.852
			L450.459,267.852z M450.459,267.852"/>
		<path fill="#EFB91B" d="M517.077,188.64c-1.397,0-2.532-1.139-2.532-2.534c0-0.418-0.338-0.757-0.759-0.757
			c-0.418,0-0.759,0.339-0.759,0.757c0,1.395-1.135,2.534-2.529,2.534c-0.42,0-0.759,0.338-0.759,0.758
			c0,0.418,0.339,0.759,0.759,0.759c1.395,0,2.529,1.136,2.529,2.529c0,0.418,0.341,0.76,0.759,0.76c0.421,0,0.759-0.342,0.759-0.76
			c0-1.394,1.135-2.529,2.532-2.529c0.417,0,0.758-0.341,0.758-0.759C517.835,188.978,517.494,188.64,517.077,188.64L517.077,188.64
			z M513.786,190.329c-0.257-0.358-0.571-0.675-0.932-0.931c0.36-0.259,0.675-0.575,0.932-0.932
			c0.259,0.358,0.573,0.673,0.933,0.932C514.359,189.654,514.045,189.971,513.786,190.329L513.786,190.329z M513.786,190.329"/>
		<g>
			
				<line fill="none" stroke="#595757" stroke-width="4" stroke-linecap="round" stroke-linejoin="round" stroke-miterlimit="10" x1="465.526" y1="282.746" x2="465.526" y2="292.783"/>
			
				<circle fill="none" stroke="#595757" stroke-width="4" stroke-linecap="round" stroke-linejoin="round" stroke-miterlimit="10" cx="476.24" cy="287.765" r="5.098"/>
			
				<circle fill="none" stroke="#595757" stroke-width="4" stroke-linecap="round" stroke-linejoin="round" stroke-miterlimit="10" cx="491.72" cy="287.765" r="5.099"/>
		</g>
	</g>
</g>
</svg>
