<?xml version="1.0" encoding="utf-8"?>
<!-- Generator: Adobe Illustrator 16.0.0, SVG Export Plug-In . SVG Version: 6.00 Build 0)  -->
<!DOCTYPE svg PUBLIC "-//W3C//DTD SVG 1.1//EN" "http://www.w3.org/Graphics/SVG/1.1/DTD/svg11.dtd">
<svg version="1.1" id="圖層_1" xmlns="http://www.w3.org/2000/svg" xmlns:xlink="http://www.w3.org/1999/xlink" x="0px" y="0px"
	 width="640px" height="1096px" viewBox="0 0 640 1096" enable-background="new 0 0 640 1096" xml:space="preserve">
<g>
	<defs>
		<rect id="SVGID_1_" x="-781.001" width="642" height="1098"/>
	</defs>
	<clipPath id="SVGID_2_">
		<use xlink:href="#SVGID_1_"  overflow="visible"/>
	</clipPath>
	<rect x="-1462.916" y="-16.977" clip-path="url(#SVGID_2_)" fill="#C16926" width="2005.83" height="1129.192"/>
	<g clip-path="url(#SVGID_2_)">
		<g>
			<defs>
				<rect id="SVGID_3_" x="-1462.916" y="-15.596" width="2005.83" height="1129.192"/>
			</defs>
			<clipPath id="SVGID_4_">
				<use xlink:href="#SVGID_3_"  overflow="visible"/>
			</clipPath>
			<g clip-path="url(#SVGID_4_)">
				<g>
					<g>
						<path fill="#BC6325" d="M13.777,28.063C8.597,39.464-4.844,44.506-16.244,39.327C-27.645,34.146-32.69,20.701-27.51,9.3
							c5.178-11.406,38.067-28.967,38.067-28.967S18.953,16.657,13.777,28.063z"/>
						<path fill="#BC6325" d="M189.223,28.063c-5.179,11.401-18.62,16.443-30.02,11.264c-11.402-5.181-16.447-18.626-11.266-30.027
							c5.178-11.406,38.068-28.967,38.068-28.967S194.4,16.657,189.223,28.063z"/>
					</g>
					<g>
						<path fill="#BC6325" d="M90.134,140.4c-5.179,11.4-18.622,16.443-30.023,11.265c-11.398-5.182-16.443-18.626-11.264-30.028
							c5.178-11.406,38.068-28.967,38.068-28.967S95.312,128.995,90.134,140.4z"/>
						<path fill="#BC6325" d="M265.58,140.4c-5.18,11.4-18.622,16.443-30.021,11.265c-11.4-5.181-16.443-18.626-11.264-30.027
							c5.176-11.406,38.068-28.967,38.068-28.967S270.759,128.995,265.58,140.4z"/>
					</g>
					<g>
						<path fill="#BC6325" d="M13.777,255.667c-5.181,11.4-18.621,16.443-30.021,11.264c-11.4-5.18-16.446-18.626-11.266-30.027
							c5.178-11.406,38.067-28.968,38.067-28.968S18.953,244.262,13.777,255.667z"/>
						<path fill="#BC6325" d="M189.223,255.667c-5.179,11.4-18.62,16.443-30.02,11.264c-11.402-5.18-16.447-18.626-11.266-30.027
							c5.178-11.406,38.068-28.968,38.068-28.968S194.4,244.262,189.223,255.667z"/>
					</g>
					<g>
						<path fill="#BC6325" d="M90.134,368.005c-5.179,11.401-18.622,16.443-30.023,11.263c-11.398-5.18-16.443-18.625-11.264-30.026
							c5.178-11.407,38.068-28.968,38.068-28.968S95.312,356.6,90.134,368.005z"/>
						<path fill="#BC6325" d="M265.58,368.005c-5.18,11.401-18.622,16.443-30.021,11.263c-11.4-5.18-16.443-18.625-11.264-30.027
							c5.176-11.406,38.068-28.967,38.068-28.967S270.759,356.6,265.58,368.005z"/>
					</g>
					<g>
						<path fill="#BC6325" d="M13.777,483.272c-5.181,11.4-18.621,16.442-30.021,11.264c-11.4-5.18-16.446-18.626-11.266-30.027
							c5.178-11.406,38.067-28.966,38.067-28.966S18.953,471.867,13.777,483.272z"/>
						<path fill="#BC6325" d="M189.223,483.272c-5.179,11.4-18.62,16.443-30.02,11.264c-11.402-5.18-16.447-18.626-11.266-30.027
							c5.178-11.406,38.068-28.966,38.068-28.966S194.4,471.867,189.223,483.272z"/>
					</g>
					<g>
						<path fill="#BC6325" d="M90.134,595.61c-5.179,11.401-18.622,16.443-30.023,11.264c-11.398-5.18-16.443-18.625-11.264-30.027
							c5.178-11.405,38.068-28.966,38.068-28.966S95.312,584.204,90.134,595.61z"/>
						<path fill="#BC6325" d="M265.58,595.61c-5.18,11.401-18.622,16.443-30.021,11.264c-11.4-5.18-16.443-18.625-11.264-30.027
							c5.176-11.405,38.068-28.966,38.068-28.966S270.759,584.204,265.58,595.61z"/>
					</g>
					<g>
						<path fill="#BC6325" d="M13.777,710.878c-5.181,11.4-18.621,16.442-30.021,11.264c-11.4-5.18-16.446-18.625-11.266-30.027
							c5.178-11.406,38.067-28.967,38.067-28.967S18.953,699.472,13.777,710.878z"/>
						<path fill="#BC6325" d="M189.223,710.878c-5.179,11.4-18.62,16.442-30.02,11.264c-11.402-5.181-16.447-18.626-11.266-30.027
							c5.178-11.406,38.068-28.967,38.068-28.967S194.4,699.472,189.223,710.878z"/>
					</g>
				</g>
				<g>
					<g>
						<path fill="#BC6325" d="M90.134,824.828c-5.179,11.401-18.622,16.443-30.023,11.264c-11.398-5.18-16.443-18.625-11.264-30.027
							c5.178-11.407,38.068-28.967,38.068-28.967S95.312,813.422,90.134,824.828z"/>
						<path fill="#BC6325" d="M265.58,824.828c-5.18,11.401-18.622,16.443-30.021,11.264c-11.4-5.18-16.443-18.625-11.264-30.027
							c5.176-11.407,38.068-28.967,38.068-28.967S270.759,813.422,265.58,824.828z"/>
					</g>
					<g>
						<path fill="#BC6325" d="M13.777,940.096c-5.181,11.401-18.621,16.443-30.021,11.264c-11.4-5.181-16.446-18.626-11.266-30.027
							c5.178-11.406,38.067-28.967,38.067-28.967S18.953,928.689,13.777,940.096z"/>
						<path fill="#BC6325" d="M189.223,940.096c-5.179,11.401-18.62,16.443-30.02,11.264c-11.402-5.181-16.447-18.626-11.266-30.027
							c5.178-11.406,38.068-28.967,38.068-28.967S194.4,928.689,189.223,940.096z"/>
					</g>
					<g>
						<path fill="#BC6325" d="M90.134,1052.433c-5.179,11.4-18.622,16.443-30.023,11.265c-11.398-5.182-16.443-18.626-11.264-30.028
							c5.178-11.406,38.068-28.967,38.068-28.967S95.312,1041.028,90.134,1052.433z"/>
						<path fill="#BC6325" d="M265.58,1052.433c-5.18,11.4-18.622,16.443-30.021,11.265c-11.4-5.181-16.443-18.626-11.264-30.027
							c5.176-11.406,38.068-28.967,38.068-28.967S270.759,1041.028,265.58,1052.433z"/>
					</g>
				</g>
			</g>
		</g>
	</g>
</g>
<g>
	<defs>
		<rect id="SVGID_5_" x="-1" y="-1" width="642" height="1098"/>
	</defs>
	<clipPath id="SVGID_6_">
		<use xlink:href="#SVGID_5_"  overflow="visible"/>
	</clipPath>
	<g clip-path="url(#SVGID_6_)">
		<rect x="-280.775" y="-38.892" fill="#F7D793" width="2040.888" height="1148.927"/>
		<g>
			<g>
				<defs>
					<polygon id="SVGID_7_" points="-1249.872,-190.392 791.016,-190.392 798.814,1152.166 -1242.073,1152.166 					"/>
				</defs>
				<clipPath id="SVGID_8_">
					<use xlink:href="#SVGID_7_"  overflow="visible"/>
				</clipPath>
				<path opacity="0.9" clip-path="url(#SVGID_8_)" fill="#F6DA97" enable-background="new    " d="M534.286-309.088
					c16.336,54.113,43.252,104.764,68.397,155.973c48.779,99.34,94.556,196.858,157.5,287.88
					c58.033,83.912,98.45,177.797,143.548,269.645c32.607,66.404,73.356,127.832,106.102,193.74
					c24.365,49.039,46.502,93.582,14.981,149.941c-20.401,36.484-46.653,76.641-72.659,109.965
					c-21.17,27.129-44.359,53.713-66.603,80.135c-30.501,36.23-60.585,52.15-102.606,73.744
					c-104.082,53.49-201.81,109.332-316.088,131.785c-65.045,12.777-101.362,15.77-157.679-11.447
					c-69.061-33.381-139.843-78.166-177.487-143.779C85.94,908.75,56.725,823.757,46.094,730.439
					c-6.037-52.967-5.63-105.549-9.099-158.148C29.77,462.689,1.293,363.941-31.39,261.775
					C-58.694,176.398-66.021,71.171-16.46-16.424c52.328-92.487,142.736-167.387,240.602-212.752
					c54.672-25.343,104.055-42.706,162.707-52.776c30.349-5.213,104.914-38.589,131.24-21.213L534.286-309.088z"/>
			</g>
			<g>
				<defs>
					<polygon id="SVGID_9_" points="-1249.872,-190.392 791.016,-190.392 767.009,1110.035 -1273.879,1110.035 					"/>
				</defs>
				<clipPath id="SVGID_10_">
					<use xlink:href="#SVGID_9_"  overflow="visible"/>
				</clipPath>
				<path clip-path="url(#SVGID_10_)" fill="#F4D08A" d="M-500.572-816.388c75.614,14.174,154.305,16.145,232.455,20.147
					c151.605,7.763,298.996,17.431,450.337,6.81c139.52-9.799,278.93,3.062,419.099,10.24c101.344,5.189,202.297-0.3,303.142,4.479
					c75.035,3.556,143.192,6.778,188.892,68.708c29.585,40.085,59.568,87.898,81.568,131.678
					c17.912,35.639,33.803,72.937,50.142,109.226c22.411,49.759,20.893,87.838,18.01,140.665
					c-7.136,130.852-7.138,256.836-58.205,380.358c-29.065,70.31-50.23,107.265-121.021,146.878
					c-86.813,48.576-188.386,92.492-292.215,92.637c-126.189,0.178-247.375-18.627-365.824-60.117
					c-67.235-23.551-129.621-53.146-194.668-78.984C75.603,102.494-61.472,75.33-205.482,50.351
					c-120.344-20.875-250.734-72.188-321.373-169c-74.582-102.213-102.275-231.664-89.691-351.964
					c7.029-67.205,19.966-124.836,47.906-187.428c14.457-32.389,25.459-123.386,64.095-139.318L-500.572-816.388z"/>
			</g>
			<g>
				<defs>
					<polygon id="SVGID_11_" points="-1249.872,-190.392 791.016,-190.392 785.022,1132.498 -1255.865,1132.498 					"/>
				</defs>
				<clipPath id="SVGID_12_">
					<use xlink:href="#SVGID_11_"  overflow="visible"/>
				</clipPath>
				<path clip-path="url(#SVGID_12_)" fill="#E89021" d="M-365.564-659.237c60.782,11.393,124.044,12.977,186.867,16.194
					c121.871,6.24,240.355,14.012,362.019,5.472c112.156-7.875,224.226,2.462,336.906,8.231c81.469,4.17,162.622-0.24,243.688,3.603
					c60.322,2.856,115.111,5.445,151.852,55.232c23.781,32.223,47.883,70.659,65.571,105.852
					c14.403,28.651,27.173,58.636,40.309,87.809c18.013,39.999,16.793,70.608,14.477,113.076
					c-5.734,105.19-5.737,206.465-46.788,305.768c-23.371,56.521-40.384,86.227-97.293,118.068
					c-69.779,39.051-151.437,74.355-234.906,74.473c-101.446,0.143-198.859-14.977-294.08-48.328
					c-54.051-18.93-104.203-42.725-156.493-63.496C97.611,79.439-12.579,57.601-128.348,37.521
					c-96.744-16.781-201.561-58.034-258.349-135.857c-59.958-82.167-82.22-186.232-72.101-282.94
					c5.651-54.025,16.049-100.352,38.509-150.671c11.627-26.038,20.47-99.189,51.527-111.996L-365.564-659.237z"/>
			</g>
			<g>
				<defs>
					<polygon id="SVGID_13_" points="-1249.872,-190.392 791.016,-190.392 786.113,1132.498 -1254.774,1132.498 					"/>
				</defs>
				<clipPath id="SVGID_14_">
					<use xlink:href="#SVGID_13_"  overflow="visible"/>
				</clipPath>
				<path opacity="0.2" clip-path="url(#SVGID_14_)" fill="#EED697" enable-background="new    " d="M-386.696-98.335
					c56.788,77.824,161.605,119.078,258.351,135.857c115.767,20.08,225.957,41.919,334.911,85.198
					c52.29,20.771,102.442,44.564,156.493,63.494c95.219,33.354,192.634,48.471,294.08,48.328
					c83.468-0.115,165.125-35.42,234.904-74.471c56.911-31.844,73.924-61.55,97.293-118.069
					c-85.411-67.854-268.051-16.886-420.957,23.465C426.197,102.988,118.151,82.457-97.138-42.659
					c-144.69-84.087-132.291-233.191-288.03-255.028c-88.41-12.396-106.186,36.15-55.566,92.513
					C-428.482-167.319-410.594-131.084-386.696-98.335z"/>
			</g>
			<g>
				<defs>
					<polygon id="SVGID_15_" points="-1249.872,-190.392 791.016,-190.392 794.017,1227.029 -1246.871,1227.029 					"/>
				</defs>
				<clipPath id="SVGID_16_">
					<use xlink:href="#SVGID_15_"  overflow="visible"/>
				</clipPath>
				<path opacity="0.4" clip-path="url(#SVGID_16_)" fill="#EED697" enable-background="new    " d="M534.893,144.578
					c25.636,0,50.169,1.703,74.969-4.838c23.025-6.072,46.112-16.135,70.037-18.627c19.996-2.082,77.87,8.861,52.591,38.324
					c-12.273,14.303-69.792,24.252-88.427,27.293c-23.151,3.777-51.554,1.451-74.877,0.432c-14.534-0.637-38.186-1.551-49.103-12.75
					c-8.892-9.121-14.638-23.49,2.067-27.711L534.893,144.578z"/>
			</g>
		</g>
	</g>
</g>
<g>
	<defs>
		<rect id="SVGID_27_" x="1599" width="642" height="1098"/>
	</defs>
	<clipPath id="SVGID_18_">
		<use xlink:href="#SVGID_27_"  overflow="visible"/>
	</clipPath>
	<g id="圖層_1_10_" clip-path="url(#SVGID_18_)">
		<polygon fill="#D13C3D" points="629.849,-6.156 2250.395,-6.156 2274.398,1115.521 653.853,1115.521 		"/>
		<g>
			<g>
				<defs>
					<polygon id="SVGID_29_" points="629.849,-6.156 2250.395,-6.156 2274.398,1115.521 653.853,1115.521 					"/>
				</defs>
				<clipPath id="SVGID_20_">
					<use xlink:href="#SVGID_29_"  overflow="visible"/>
				</clipPath>
			</g>
			<g>
				<defs>
					<polygon id="SVGID_37_" points="629.849,-6.156 2250.395,-6.156 2274.398,1115.521 653.853,1115.521 					"/>
				</defs>
				<clipPath id="SVGID_22_">
					<use xlink:href="#SVGID_37_"  overflow="visible"/>
				</clipPath>
			</g>
			<g>
				<defs>
					<polygon id="SVGID_39_" points="629.849,-6.156 2250.395,-6.156 2274.398,1115.521 653.853,1115.521 					"/>
				</defs>
				<clipPath id="SVGID_24_">
					<use xlink:href="#SVGID_39_"  overflow="visible"/>
				</clipPath>
				<path opacity="0.1" clip-path="url(#SVGID_24_)" fill="#D13C3D" enable-background="new    " d="M448.71,7.827
					c-62.19,169.507-66.734,360.133-43.074,537.439c11.346,85.021,13.164,157.741,56.146,227.849
					c19.552,31.891,64.765,277.985,92.276,299.688c45.435,35.833,31.522,75.958,81.526,101.545
					c71.596,36.634,214.821,41.22,286.778,76.49c72.748,35.658,160.885,29.075,239.297,36.205
					c110.73,10.07,455.331-9.818,566.618-12.729c67.424-1.764,134.663-16.979,201.886-17.563c29.947-0.261,61.955,8.75,91.57-0.464
					c3.563-46.237-35.813-64.558-50.007-111.397c-27.564-90.959-688.968-354.159-751.619-372.418
					c-127.407-37.129-270.319-63.212-354.813-191.724c-76.066-115.693-167.647-299.295-170.018-442.532
					c-1.196-72.438,54.867-216.042,7.032-263.534C482.829-343.216,470.767-52.289,448.71,7.827z"/>
			</g>
			<g>
				<defs>
					<polygon id="SVGID_41_" points="629.849,-6.156 2250.395,-6.156 2274.398,1115.521 653.853,1115.521 					"/>
				</defs>
				<clipPath id="SVGID_25_">
					<use xlink:href="#SVGID_41_"  overflow="visible"/>
				</clipPath>
				<path opacity="0.15" clip-path="url(#SVGID_25_)" fill="#D13C3D" enable-background="new    " d="M1294.543,1271.186
					c-119.177,69.908-260.942,83.713-396.108,68.915c-64.813-7.096-119.315-5.352-176.74-44.53
					c-26.122-17.824-56.041-37.051-75.499-63.26c-32.13-43.282-60.438-27.537-85.46-75.85
					c64.711,124.944,36.604-25.559-91.061-280.501c-35.233-70.365-40.755-158.041-55.363-235.406
					c-20.63-109.258-46.589-451.774-57.595-562.213c-6.669-66.912-3.272-134.299-10.799-200.954
					c-3.352-29.693-13.867-60.977-10.496-90.779c34.095-5.786,52.434,32.344,89.082,44.127
					c71.165,22.883,186.822,652.003,207.87,713.206c42.804,124.466,103.203,474.221,209.145,551.693
					c95.376,69.747,243.282,151.557,350.491,146.916c54.219-2.349,154.782-64.922,195.898-19.828
					C1576.563,1429.624,1336.81,1246.391,1294.543,1271.186z"/>
			</g>
		</g>
		<g>
			<g>
				<defs>
					<polygon id="SVGID_43_" points="630.691,-7 2251.238,-7 2275.242,1114.679 654.695,1114.679 					"/>
				</defs>
				<clipPath id="SVGID_26_">
					<use xlink:href="#SVGID_43_"  overflow="visible"/>
				</clipPath>
			</g>
		</g>
	</g>
</g>
<g>
	<defs>
		<rect id="SVGID_247_" x="799" width="642" height="1098"/>
	</defs>
	<clipPath id="SVGID_28_">
		<use xlink:href="#SVGID_247_"  overflow="visible"/>
	</clipPath>
	<g id="圖層_1_9_" clip-path="url(#SVGID_28_)">
		<rect x="-469.057" y="-9.5" fill="#208567" width="1984.174" height="1117"/>
		<g opacity="0.3" enable-background="new    ">
			<g>
				<defs>
					<rect id="SVGID_249_" x="127.914" y="-148.07" width="1984.174" height="1394.141"/>
				</defs>
				<clipPath id="SVGID_30_">
					<use xlink:href="#SVGID_249_"  overflow="visible"/>
				</clipPath>
				<g clip-path="url(#SVGID_30_)">
					<g opacity="0.8571">
						<path fill="none" stroke="#096D52" stroke-width="5" stroke-miterlimit="10" d="M558.025-182.314
							c0,24.036-15.205,24.036-15.205,48.073c0,24.036,15.205,24.036,15.205,48.073c0,24.037-15.205,24.037-15.205,48.073
							c0,24.037,15.205,24.037,15.205,48.075c0,24.037-15.205,24.037-15.205,48.073c0,24.038,15.205,24.038,15.205,48.074
							c0,24.038-15.205,24.038-15.205,48.074c0,24.038,15.205,24.038,15.205,48.075s-15.205,24.038-15.205,48.073
							c0,24.035,15.205,24.035,15.205,48.069c0,24.036-15.205,24.036-15.205,48.071c0,24.038,15.205,24.038,15.205,48.075
							c0,24.037-15.205,24.037-15.205,48.073c0,24.038,15.205,24.038,15.205,48.073c0,24.038-15.205,24.038-15.205,48.073
							c0,24.036,15.205,24.036,15.205,48.074c0,24.037-15.205,24.037-15.205,48.074c0,24.039,15.205,24.039,15.205,48.077
							c0,24.04-15.205,24.04-15.205,48.077c0,24.04,15.205,24.04,15.205,48.076c0,24.04-15.205,24.04-15.205,48.078
							c0,24.039,15.205,24.039,15.205,48.076c0,24.039-15.205,24.039-15.205,48.077c0,24.039,15.205,24.039,15.205,48.078
							s-15.205,24.039-15.205,48.078c0,24.042,15.205,24.042,15.205,48.084s-15.205,24.043-15.205,48.084"/>
					</g>
					<g opacity="0.8667">
						<path fill="none" stroke="#096D52" stroke-width="5" stroke-miterlimit="10" d="M613.55-182.314
							c0,24.036-15.206,24.036-15.206,48.073c0,24.035,15.206,24.035,15.206,48.073c0,24.036-15.206,24.036-15.206,48.072
							c0,24.037,15.206,24.037,15.206,48.075c0,24.037-15.206,24.037-15.206,48.074c0,24.038,15.206,24.038,15.206,48.077
							c0,24.036-15.206,24.036-15.206,48.072s15.206,24.037,15.206,48.074s-15.206,24.038-15.206,48.075
							c0,24.035,15.206,24.035,15.206,48.068c0,24.036-15.206,24.036-15.206,48.071c0,24.038,15.206,24.038,15.206,48.075
							c0,24.035-15.206,24.035-15.206,48.071c0,24.038,15.206,24.038,15.206,48.075c0,24.036-15.206,24.036-15.206,48.073
							c0,24.037,15.206,24.037,15.206,48.073c0,24.037-15.206,24.037-15.206,48.074c0,24.039,15.206,24.039,15.206,48.077
							c0,24.039-15.206,24.039-15.206,48.078c0,24.038,15.206,24.038,15.206,48.076c0,24.04-15.206,24.04-15.206,48.08
							c0,24.037,15.206,24.037,15.206,48.075c0,24.038-15.206,24.038-15.206,48.076c0,24.04,15.206,24.04,15.206,48.079
							c0,24.038-15.206,24.038-15.206,48.076c0,24.042,15.206,24.042,15.206,48.083c0,24.042-15.206,24.042-15.206,48.084"/>
					</g>
				</g>
				<g clip-path="url(#SVGID_30_)">
					<g opacity="0.8571">
						<path fill="none" stroke="#4B987E" stroke-width="5" stroke-miterlimit="10" d="M585.218-193.674
							c0,24.036-15.205,24.036-15.205,48.073c0,24.036,15.205,24.036,15.205,48.073c0,24.037-15.205,24.037-15.205,48.073
							c0,24.037,15.205,24.037,15.205,48.075c0,24.037-15.205,24.037-15.205,48.073c0,24.038,15.205,24.038,15.205,48.074
							c0,24.038-15.205,24.038-15.205,48.074c0,24.038,15.205,24.038,15.205,48.075s-15.205,24.038-15.205,48.073
							c0,24.035,15.205,24.035,15.205,48.069c0,24.036-15.205,24.036-15.205,48.071c0,24.038,15.205,24.038,15.205,48.075
							c0,24.037-15.205,24.037-15.205,48.073c0,24.038,15.205,24.038,15.205,48.073c0,24.038-15.205,24.038-15.205,48.073
							c0,24.036,15.205,24.036,15.205,48.074c0,24.037-15.205,24.037-15.205,48.074c0,24.039,15.205,24.039,15.205,48.077
							c0,24.04-15.205,24.04-15.205,48.077c0,24.04,15.205,24.04,15.205,48.076c0,24.04-15.205,24.04-15.205,48.078
							c0,24.039,15.205,24.039,15.205,48.076c0,24.039-15.205,24.039-15.205,48.077c0,24.039,15.205,24.039,15.205,48.078
							s-15.205,24.039-15.205,48.078c0,24.042,15.205,24.042,15.205,48.084s-15.205,24.043-15.205,48.084"/>
					</g>
					<g opacity="0.8667">
						<path fill="none" stroke="#4B987E" stroke-width="5" stroke-miterlimit="10" d="M640.744-193.674
							c0,24.036-15.206,24.036-15.206,48.073c0,24.035,15.206,24.035,15.206,48.073c0,24.036-15.206,24.036-15.206,48.072
							c0,24.037,15.206,24.037,15.206,48.075c0,24.037-15.206,24.037-15.206,48.074c0,24.038,15.206,24.038,15.206,48.077
							c0,24.036-15.206,24.036-15.206,48.072s15.206,24.037,15.206,48.074s-15.206,24.038-15.206,48.075
							c0,24.035,15.206,24.035,15.206,48.068c0,24.036-15.206,24.036-15.206,48.071c0,24.038,15.206,24.038,15.206,48.075
							c0,24.035-15.206,24.035-15.206,48.071c0,24.038,15.206,24.038,15.206,48.075c0,24.036-15.206,24.036-15.206,48.073
							c0,24.037,15.206,24.037,15.206,48.073c0,24.037-15.206,24.037-15.206,48.074c0,24.039,15.206,24.039,15.206,48.077
							c0,24.039-15.206,24.039-15.206,48.078c0,24.038,15.206,24.038,15.206,48.076c0,24.04-15.206,24.04-15.206,48.08
							c0,24.037,15.206,24.037,15.206,48.075c0,24.038-15.206,24.038-15.206,48.076c0,24.04,15.206,24.04,15.206,48.079
							c0,24.038-15.206,24.038-15.206,48.076c0,24.042,15.206,24.042,15.206,48.083c0,24.042-15.206,24.042-15.206,48.084"/>
					</g>
				</g>
			</g>
			<g>
				<defs>
					<rect id="SVGID_251_" x="127.914" y="-148.07" width="1984.174" height="1394.141"/>
				</defs>
				<clipPath id="SVGID_31_">
					<use xlink:href="#SVGID_251_"  overflow="visible"/>
				</clipPath>
			</g>
		</g>
	</g>
	<g id="圖層_1_5_" clip-path="url(#SVGID_28_)">
		<g opacity="0.3" enable-background="new    ">
			<g>
				<defs>
					<rect id="SVGID_255_" x="127.914" y="-1167.5" width="1984.174" height="1117"/>
				</defs>
				<clipPath id="SVGID_32_">
					<use xlink:href="#SVGID_255_"  overflow="visible"/>
				</clipPath>
				<g clip-path="url(#SVGID_32_)">
					<g opacity="0.819">
						<path fill="none" stroke="#4B987E" stroke-width="9.2911" stroke-miterlimit="10" d="M200.816-1338.765
							c0,26.149-20.646,26.149-20.646,52.3s20.646,26.15,20.646,52.301s-20.646,26.15-20.646,52.3
							c0,26.151,20.646,26.151,20.646,52.304c0,26.15-20.646,26.15-20.646,52.301c0,26.152,20.646,26.152,20.646,52.304
							c0,26.15-20.646,26.15-20.646,52.301s20.646,26.15,20.646,52.302s-20.646,26.151-20.646,52.303
							c0,26.147,20.646,26.147,20.646,52.297c0,26.148-20.646,26.148-20.646,52.298c0,26.151,20.646,26.151,20.646,52.304
							c0,26.148-20.646,26.148-20.646,52.299s20.646,26.15,20.646,52.303c0,26.149-20.646,26.149-20.646,52.299
							c0,26.151,20.646,26.151,20.646,52.302c0,26.151-20.646,26.151-20.646,52.303c0,26.152,20.646,26.152,20.646,52.304
							c0,26.154-20.646,26.154-20.646,52.307s20.646,26.152,20.646,52.304c0,26.152-20.646,26.152-20.646,52.306
							c0,26.151,20.646,26.151,20.646,52.304c0,26.153-20.646,26.153-20.646,52.306s20.646,26.152,20.646,52.306
							c0,26.152-20.646,26.152-20.646,52.305c0,26.156,20.646,26.156,20.646,52.312c0,26.158-20.646,26.158-20.646,52.313"/>
					</g>
					<g opacity="0.8286">
						<path fill="none" stroke="#4B987E" stroke-width="9.2911" stroke-miterlimit="10" d="M317.335-1330.393
							c0,26.15-20.648,26.15-20.648,52.301s20.648,26.15,20.648,52.301s-20.648,26.15-20.648,52.301
							c0,26.151,20.648,26.151,20.648,52.303c0,26.149-20.648,26.149-20.648,52.301s20.648,26.151,20.648,52.301
							c0,26.151-20.648,26.151-20.648,52.303c0,26.15,20.648,26.15,20.648,52.301c0,26.151-20.648,26.151-20.648,52.303
							c0,26.148,20.648,26.148,20.648,52.297c0,26.149-20.648,26.149-20.648,52.299c0,26.151,20.648,26.151,20.648,52.304
							c0,26.149-20.648,26.149-20.648,52.299c0,26.15,20.648,26.15,20.648,52.302c0,26.149-20.648,26.149-20.648,52.3
							c0,26.151,20.648,26.151,20.648,52.302s-20.648,26.15-20.648,52.303c0,26.151,20.648,26.151,20.648,52.304
							s-20.648,26.152-20.648,52.306c0,26.151,20.648,26.151,20.648,52.305c0,26.152-20.648,26.152-20.648,52.306
							c0,26.151,20.648,26.151,20.648,52.304s-20.648,26.152-20.648,52.305s20.648,26.152,20.648,52.307
							c0,26.152-20.648,26.152-20.648,52.305c0,26.156,20.648,26.156,20.648,52.313s-20.648,26.156-20.648,52.313"/>
					</g>
					<g opacity="0.8381">
						<path fill="none" stroke="#4B987E" stroke-width="9.2911" stroke-miterlimit="10" d="M433.855-1322.021
							c0,26.149-20.646,26.149-20.646,52.301c0,26.149,20.646,26.149,20.646,52.301c0,26.149-20.646,26.149-20.646,52.299
							c0,26.154,20.646,26.154,20.646,52.305c0,26.149-20.646,26.149-20.646,52.3c0,26.151,20.646,26.151,20.646,52.303
							c0,26.15-20.646,26.15-20.646,52.302c0,26.15,20.646,26.15,20.646,52.301c0,26.151-20.646,26.151-20.646,52.303
							c0,26.148,20.646,26.148,20.646,52.296c0,26.149-20.646,26.149-20.646,52.299c0,26.153,20.646,26.153,20.646,52.307
							c0,26.148-20.646,26.148-20.646,52.298c0,26.151,20.646,26.151,20.646,52.302s-20.646,26.15-20.646,52.3
							c0,26.15,20.646,26.15,20.646,52.301c0,26.151-20.646,26.151-20.646,52.303c0,26.152,20.646,26.152,20.646,52.305
							c0,26.153-20.646,26.153-20.646,52.306s20.646,26.152,20.646,52.305c0,26.153-20.646,26.153-20.646,52.307
							c0,26.151,20.646,26.151,20.646,52.304s-20.646,26.152-20.646,52.305s20.646,26.152,20.646,52.305
							s-20.646,26.152-20.646,52.305c0,26.156,20.646,26.156,20.646,52.313c0,26.155-20.646,26.155-20.646,52.312"/>
					</g>
					<g opacity="0.8476">
						<path fill="none" stroke="#4B987E" stroke-width="9.2911" stroke-miterlimit="10" d="M550.375-1313.649
							c0,26.15-20.648,26.15-20.648,52.301s20.648,26.15,20.648,52.301s-20.648,26.15-20.648,52.301
							c0,26.151,20.648,26.151,20.648,52.303c0,26.15-20.648,26.15-20.648,52.301c0,26.151,20.648,26.151,20.648,52.304
							c0,26.149-20.648,26.149-20.648,52.301s20.648,26.151,20.648,52.303s-20.648,26.151-20.648,52.301
							s20.648,26.149,20.648,52.297c0,26.15-20.648,26.15-20.648,52.3c0,26.151,20.648,26.151,20.648,52.303
							c0,26.149-20.648,26.149-20.648,52.3s20.648,26.15,20.648,52.303c0,26.148-20.648,26.148-20.648,52.3
							c0,26.15,20.648,26.15,20.648,52.301c0,26.151-20.648,26.151-20.648,52.303c0,26.152,20.648,26.152,20.648,52.304
							c0,26.153-20.648,26.153-20.648,52.307c0,26.152,20.648,26.152,20.648,52.304c0,26.153-20.648,26.153-20.648,52.307
							c0,26.151,20.648,26.151,20.648,52.303c0,26.152-20.648,26.152-20.648,52.304c0,26.154,20.648,26.154,20.648,52.308
							c0,26.152-20.648,26.152-20.648,52.305c0,26.156,20.648,26.156,20.648,52.312c0,26.158-20.648,26.158-20.648,52.313"/>
					</g>
				</g>
			</g>
		</g>
	</g>
</g>
</svg>
