<?xml version="1.0" encoding="utf-8"?>
<!-- Generator: Adobe Illustrator 16.0.0, SVG Export Plug-In . SVG Version: 6.00 Build 0)  -->
<!DOCTYPE svg PUBLIC "-//W3C//DTD SVG 1.1//EN" "http://www.w3.org/Graphics/SVG/1.1/DTD/svg11.dtd">
<svg version="1.1" id="圖層_1" xmlns="http://www.w3.org/2000/svg" xmlns:xlink="http://www.w3.org/1999/xlink" x="0px" y="0px"
	 width="400px" height="180px" viewBox="0 0 400 180" enable-background="new 0 0 400 180" xml:space="preserve">
<g>
	<path fill="#4C2E2C" d="M189.864,107.597c-0.063-1.321,0.04-2.59,0.268-3.77c-2.036-0.525-4.108-0.87-5.966-1.198
		c-2.941-0.517-15.078-1.018-11.837-6.119c0.41-0.645,1.12-1.145,1.707-1.61c-0.885,0.702,0.359-0.222,0.471-0.29
		c1.012-0.612,2.063-1.157,3.105-1.709c2.548-1.348,5.123-2.643,7.584-4.147c1.848-1.13,3.97-2.442,5.126-4.344
		c1.294-2.12-1.447-3.135-2.981-3.562c-5.979-1.667-13.163-0.753-19.224-0.388c-1.662,0.1-3.355,0.281-5.023,0.279
		c0.267-0.157,0.724-0.452,0.72-0.447c0.488-0.279,0.992-0.533,1.492-0.79c0.636-0.317,0.678-0.339,0.131-0.066
		c0.315-0.149,0.629-0.297,0.944-0.445c2.946-1.376,5.979-2.51,9.05-3.572c1.579-0.547,3.164-1.083,4.756-1.596
		c0.008,0.012,1.014-0.281,1.254-0.339c0.915-0.22,1.827-0.444,2.737-0.684c2.294-0.605,16.808-4.713,12.559-9.18
		c-2.11-2.219-6.69-2.338-9.485-2.626c-3.359-0.347-6.796-0.4-10.17-0.261c-3.121,0.126-7.21,1.028-9.674,3.084
		c-2.523,2.106,2.113,2.319,3.265,2.272c0.163-0.007,0.274-0.011,0.358-0.017c0.085,0.001,0.186,0.001,0.314,0.002
		c0.997,0.002,1.994,0.033,2.992,0.072c2.396,0.094,4.386,0.257,6.546,0.757c0.96,0.22,2.425,0.676,2.092,1.481
		c-0.05,0.119-0.062,0.198-0.056,0.253c-0.066,0.018-0.14,0.038-0.234,0.071c-0.1,0.031-0.186,0.06-0.264,0.084
		c-0.118,0.026-0.318,0.072-0.639,0.153c-0.851,0.213-1.707,0.411-2.559,0.621c-7.466,1.843-14.973,4.665-21.916,7.948
		c-1.31,0.621-12.268,5.644-8.208,7.802c2.956,1.569,7.307,0.815,10.471,0.629c2.155-0.127,4.309-0.264,6.465-0.367
		c1.089-0.052,2.18-0.081,3.271-0.105c0.27-0.006,0.485-0.011,0.664-0.017c0.057,0.002,0.146,0.003,0.278,0.004
		c1.745,0.007,4.104-0.113,5.623,0.588c1.128,0.52-0.829,1.664-1.563,2.131c-4.36,2.771-9.425,4.52-13.486,7.751
		c-1.933,1.537-4.741,4.413-3.034,7.014c1.687,2.571,5.655,3.289,8.445,3.797c3.171,0.58,6.365,0.959,9.521,1.638
		c2.886,0.623,7.117,1.477,8.956,4.083c0.985,1.396,3.659,1.332,6.443,0.67C190.43,111.543,189.961,109.65,189.864,107.597z"/>
	<g>
		<path fill="#F4E8D1" d="M247.668,20.456c-1.295-0.759-2.864-0.9-4.668-0.426c-7.315,1.919-18.828,14.505-28.647,31.315
			c-2.956,5.063-5.517,10.141-7.671,15.125l-0.03-0.019l-0.73,1.768l-0.558,1.342l0.02,0.011c-2.591,6.504-4.133,12.187-4.51,16.611
			c-0.441,0.059-0.864,0.13-1.272,0.235c-6.324,1.661-10.117,8.154-8.46,14.474c0.081,0.304,0.175,0.6,0.277,0.894
			c0.552,2.498-1.53,4.658-3.906,6.829c-1.44,1.315-2.686,2.454-2.014,3.956c0.718,1.609,2.757,1.583,7.234,1.142
			c2.573-0.254,4.982-0.674,7.165-1.248c8.227-2.161,11.011-5.848,11.561-6.704c2.649-2.977,3.63-7.03,2.619-10.884
			c-0.13-0.496-0.309-0.985-0.523-1.483c3.633-2.508,7.77-6.608,12.096-11.984l0.021,0.015l0.895-1.147
			c0.018-0.019,0.027-0.037,0.045-0.056l1.134-1.448l-0.027-0.021c3.285-4.323,6.448-9.045,9.404-14.108
			c5.708-9.767,10.03-19.584,12.174-27.639C251.642,28.169,251.082,22.449,247.668,20.456L247.668,20.456z M208.868,103.656
			l-1.013,1.108l0.046,0.053c-1.153,1.126-3.764,3.086-8.85,4.421c-2.009,0.526-4.246,0.917-6.646,1.152
			c-0.843,0.084-1.528,0.142-2.089,0.176c2.252-2.092,5.371-5.352,4.329-9.642l-0.022-0.087l-0.031-0.077
			c-0.079-0.231-0.158-0.471-0.224-0.71c-1.191-4.542,1.535-9.208,6.079-10.4c0.505-0.133,1.056-0.208,1.696-0.231h0.087
			l7.952,4.647c0.312,0.59,0.528,1.124,0.667,1.658C211.589,98.539,210.85,101.507,208.868,103.656L208.868,103.656z
			 M211.344,90.874l-7.174-4.19c0.305-3.982,1.741-9.356,4.119-15.413l7.224,4.218l7.23,4.226
			C218.642,84.757,214.661,88.654,211.344,90.874L211.344,90.874z M246.07,36.148c-2.065,7.774-6.269,17.296-11.825,26.813
			c-2.963,5.068-6.124,9.806-9.413,14.108l-7.627-4.455l-7.638-4.46c2.129-4.975,4.706-10.054,7.666-15.125
			c10.32-17.668,21.201-28.353,26.614-29.772c0.916-0.24,1.633-0.216,2.138,0.076C247.38,24.148,248.24,27.995,246.07,36.148
			L246.07,36.148z M246.07,36.148"/>
		<path fill="#F4E8D1" d="M188.872,115.035c-1.701,0-3.548-0.241-4.347-2.031c-0.983-2.203,0.741-3.781,2.265-5.173
			c2.542-2.321,3.948-4.013,3.6-5.76c-0.103-0.299-0.196-0.599-0.277-0.907c-1.809-6.891,2.327-13.966,9.217-15.775
			c0.18-0.046,0.367-0.088,0.565-0.128c0.491-4.338,2.01-9.803,4.423-15.89c0.012-0.074,0.033-0.147,0.063-0.219l1.285-3.108
			c0.039-0.092,0.091-0.177,0.15-0.253c2.181-5.022,4.743-10.061,7.618-14.982c9.951-17.041,21.725-29.823,29.296-31.81
			c2.08-0.546,3.944-0.359,5.477,0.538c3.923,2.291,4.636,8.261,2.117,17.741c-2.166,8.148-6.528,18.057-12.283,27.903
			c-2.87,4.915-6.005,9.627-9.321,14.01c-0.034,0.085-0.08,0.165-0.138,0.238l-1.134,1.45c-0.005,0.003-0.009,0.009-0.014,0.015
			c-0.023,0.03-0.049,0.064-0.066,0.083l-0.857,1.102c-0.053,0.066-0.111,0.124-0.175,0.176c-4.052,5.009-8.003,8.971-11.486,11.522
			c0.102,0.286,0.187,0.56,0.258,0.828c1.091,4.161,0.044,8.566-2.802,11.801c-0.794,1.202-3.84,4.909-12.138,7.087
			c-2.233,0.587-4.699,1.017-7.331,1.278C191.23,114.93,189.943,115.035,188.872,115.035z M206.428,69.774
			c-0.013,0.065-0.03,0.129-0.056,0.191c-2.537,6.368-4.073,12.007-4.438,16.307c-0.044,0.498-0.426,0.899-0.922,0.966
			c-0.464,0.061-0.828,0.128-1.146,0.21c-5.75,1.512-9.205,7.42-7.694,13.174c0.071,0.275,0.157,0.543,0.251,0.813
			c0.014,0.039,0.025,0.079,0.035,0.12c0.677,3.06-1.72,5.554-4.229,7.847c-1.473,1.345-2.083,2.01-1.76,2.733
			c0.128,0.288,0.344,0.771,2.402,0.771c1.041,0,2.42-0.123,3.756-0.253c2.519-0.25,4.874-0.659,6.998-1.219
			c7.927-2.08,10.5-5.571,10.937-6.25c0.03-0.046,0.063-0.09,0.101-0.131c2.409-2.708,3.301-6.411,2.384-9.906
			c-0.105-0.406-0.26-0.844-0.471-1.335c-0.2-0.466-0.044-1.007,0.372-1.295c3.522-2.431,7.628-6.502,11.872-11.773
			c0.046-0.058,0.098-0.108,0.151-0.154l0.756-0.968c0.008-0.011,0.026-0.034,0.045-0.057v-0.001l0.974-1.243
			c0.032-0.075,0.073-0.146,0.121-0.212c3.323-4.372,6.464-9.083,9.335-14.002c5.661-9.687,9.945-19.407,12.063-27.374
			c2.179-8.203,1.776-13.657-1.134-15.356c-1.043-0.611-2.343-0.715-3.86-0.318c-7.061,1.854-18.313,14.241-27.999,30.825
			c-2.88,4.932-5.441,9.981-7.613,15.01c-0.034,0.079-0.079,0.154-0.13,0.222L206.428,69.774z M190.315,111.633
			c-0.424,0-0.809-0.253-0.979-0.646c-0.178-0.414-0.075-0.894,0.254-1.199c2.467-2.291,4.873-5.104,4.02-8.611l-0.005-0.014
			c-0.107-0.311-0.192-0.572-0.263-0.835c-1.344-5.114,1.723-10.362,6.835-11.706c0.587-0.152,1.216-0.239,1.927-0.265
			c0.015-0.001,0.026-0.001,0.04-0.001h0.087c0.188,0,0.374,0.051,0.537,0.146l7.953,4.646c0.171,0.101,0.313,0.247,0.404,0.424
			c0.354,0.674,0.596,1.273,0.755,1.884c0.831,3.171-0.003,6.507-2.229,8.923l-0.778,0.852c-0.048,0.13-0.124,0.249-0.227,0.349
			c-1.173,1.146-3.943,3.278-9.324,4.689c-2.086,0.546-4.378,0.945-6.813,1.183c-0.854,0.088-1.556,0.146-2.129,0.18
			C190.358,111.633,190.337,111.633,190.315,111.633z M201.96,90.496c-0.462,0.027-0.87,0.089-1.245,0.187
			c-3.973,1.043-6.357,5.125-5.313,9.099c0.057,0.212,0.127,0.429,0.199,0.637l0.011,0.021c0.019,0.046,0.033,0.092,0.045,0.14
			l0.021,0.085c0.878,3.61-0.844,6.564-2.571,8.583c2.024-0.232,3.931-0.581,5.676-1.037c4.547-1.194,6.981-2.886,8.128-3.922
			c0.04-0.085,0.092-0.168,0.16-0.241l1.012-1.109c1.736-1.884,2.385-4.479,1.739-6.943c-0.098-0.373-0.24-0.749-0.445-1.167
			L201.96,90.496z M211.344,91.938c-0.187,0-0.372-0.048-0.538-0.145l-7.173-4.19c-0.353-0.206-0.556-0.595-0.525-1.002
			c0.315-4.101,1.765-9.538,4.191-15.719c0.112-0.29,0.348-0.516,0.64-0.618c0.295-0.101,0.619-0.07,0.887,0.087l14.457,8.443
			c0.267,0.157,0.453,0.424,0.51,0.729c0.056,0.306-0.025,0.621-0.221,0.862c-4.188,5.149-8.213,9.08-11.637,11.373
			C211.757,91.878,211.551,91.938,211.344,91.938z M205.291,86.105l6.005,3.508c2.916-2.07,6.288-5.366,9.832-9.612l-12.296-7.18
			C206.875,77.997,205.661,82.554,205.291,86.105z M224.832,78.135c-0.183,0-0.367-0.047-0.535-0.146l-15.267-8.914
			c-0.465-0.271-0.654-0.846-0.441-1.339c2.14-5.001,4.738-10.129,7.725-15.243c10.955-18.755,21.812-28.836,27.265-30.266
			c1.207-0.315,2.189-0.25,2.94,0.185c2.371,1.385,2.581,6.49,0.581,14.01c-2.089,7.856-6.327,17.474-11.935,27.077
			c-2.99,5.112-6.181,9.895-9.486,14.218C225.471,77.988,225.154,78.135,224.832,78.135z M210.92,67.711l13.636,7.962
			c3.05-4.055,5.997-8.506,8.77-13.249c5.514-9.443,9.675-18.872,11.717-26.551c2.229-8.379,1.01-11.268,0.408-11.619
			c-0.229-0.133-0.725-0.127-1.333,0.034c-5.073,1.33-15.898,12.043-25.964,29.277C215.383,58.31,212.952,63.065,210.92,67.711z"/>
	</g>
</g>
<g>
	<g>
		<path fill="#F4E8D1" d="M131.626,158h-6.978v-1.804h2.313v-14.061h-2.313v-1.803h6.978v1.803h-2.314v14.061h2.314V158z"/>
		<path fill="#F4E8D1" d="M139.522,158h-2.23v-18.462h2.23V158z"/>
		<path fill="#F4E8D1" d="M148.013,158h-2.23v-18.462h2.23V158z"/>
		<path fill="#F4E8D1" d="M165.237,158h-2.23v-1.472c-0.752,0.594-1.472,1.049-2.16,1.365c-0.688,0.316-1.447,0.475-2.277,0.475
			c-1.393,0-2.477-0.426-3.252-1.276c-0.775-0.851-1.162-2.099-1.162-3.744v-8.603h2.23v7.547c0,0.672,0.031,1.248,0.095,1.727
			c0.063,0.478,0.198,0.888,0.403,1.228c0.214,0.348,0.49,0.601,0.83,0.759c0.34,0.158,0.835,0.237,1.484,0.237
			c0.576,0,1.207-0.15,1.892-0.451c0.685-0.3,1.323-0.684,1.917-1.15v-9.897h2.23V158z"/>
		<path fill="#F4E8D1" d="M180.918,154.179c0,1.21-0.501,2.203-1.501,2.978c-1.001,0.775-2.367,1.163-4.1,1.163
			c-0.98,0-1.881-0.117-2.699-0.35c-0.818-0.233-1.505-0.488-2.059-0.765v-2.504h0.119c0.703,0.531,1.486,0.951,2.349,1.264
			s1.688,0.469,2.479,0.469c0.981,0,1.748-0.158,2.303-0.475c0.553-0.316,0.83-0.814,0.83-1.495c0-0.522-0.15-0.917-0.451-1.187
			c-0.301-0.269-0.877-0.498-1.732-0.687c-0.316-0.071-0.729-0.155-1.239-0.25c-0.511-0.095-0.976-0.197-1.394-0.307
			c-1.164-0.309-1.988-0.762-2.475-1.36c-0.486-0.596-0.73-1.33-0.73-2.2c0-0.546,0.113-1.061,0.339-1.543s0.567-0.914,1.026-1.293
			c0.443-0.372,1.006-0.667,1.691-0.884c0.684-0.218,1.449-0.327,2.295-0.327c0.791,0,1.592,0.098,2.403,0.291
			c0.811,0.194,1.485,0.43,2.022,0.706v2.385h-0.118c-0.569-0.418-1.262-0.772-2.077-1.062c-0.814-0.29-1.613-0.434-2.396-0.434
			c-0.814,0-1.503,0.156-2.064,0.469s-0.842,0.778-0.842,1.395c0,0.546,0.17,0.957,0.51,1.233c0.332,0.277,0.87,0.503,1.613,0.677
			c0.412,0.095,0.873,0.19,1.383,0.285s0.936,0.182,1.275,0.261c1.036,0.237,1.835,0.645,2.396,1.222
			C180.638,152.439,180.918,153.214,180.918,154.179z"/>
		<path fill="#F4E8D1" d="M192.814,157.88c-0.419,0.112-0.876,0.202-1.37,0.273c-0.495,0.071-0.936,0.106-1.324,0.106
			c-1.352,0-2.381-0.363-3.084-1.091c-0.705-0.729-1.057-1.894-1.057-3.501v-7.048h-1.506v-1.875h1.506v-3.809h2.23v3.809h4.604
			v1.875h-4.604v6.04c0,0.696,0.016,1.24,0.048,1.631s0.143,0.758,0.333,1.098c0.174,0.316,0.412,0.548,0.717,0.694
			s0.77,0.22,1.395,0.22c0.363,0,0.744-0.054,1.139-0.16c0.396-0.107,0.681-0.196,0.854-0.268h0.119V157.88z"/>
		<path fill="#F4E8D1" d="M205.601,147.178h-0.119c-0.332-0.079-0.654-0.137-0.967-0.172s-0.682-0.054-1.109-0.054
			c-0.688,0-1.353,0.153-1.993,0.457c-0.642,0.305-1.258,0.698-1.851,1.181V158h-2.23v-13.254h2.23v1.958
			c0.885-0.711,1.666-1.215,2.343-1.512c0.677-0.297,1.366-0.446,2.071-0.446c0.387,0,0.668,0.011,0.842,0.03
			s0.436,0.058,0.783,0.113V147.178z"/>
		<path fill="#F4E8D1" d="M219.396,158h-2.219v-1.412c-0.198,0.135-0.465,0.322-0.801,0.564c-0.337,0.241-0.663,0.433-0.979,0.576
			c-0.372,0.182-0.8,0.334-1.282,0.456c-0.482,0.124-1.047,0.185-1.695,0.185c-1.195,0-2.207-0.396-3.038-1.187
			c-0.831-0.791-1.246-1.799-1.246-3.026c0-1.003,0.216-1.816,0.647-2.437c0.43-0.621,1.045-1.11,1.844-1.466
			c0.808-0.355,1.776-0.597,2.908-0.724c1.131-0.127,2.345-0.221,3.643-0.285v-0.343c0-0.506-0.09-0.926-0.268-1.258
			s-0.434-0.593-0.766-0.783c-0.316-0.182-0.695-0.305-1.139-0.368c-0.443-0.063-0.906-0.095-1.389-0.095
			c-0.585,0-1.238,0.078-1.957,0.231c-0.721,0.154-1.464,0.378-2.23,0.671h-0.119v-2.267c0.436-0.118,1.064-0.249,1.887-0.392
			c0.822-0.142,1.633-0.213,2.432-0.213c0.934,0,1.746,0.077,2.439,0.231c0.691,0.154,1.291,0.418,1.797,0.789
			c0.498,0.364,0.878,0.835,1.139,1.412c0.262,0.578,0.393,1.294,0.393,2.148V158z M217.177,154.737v-3.69
			c-0.682,0.04-1.482,0.099-2.403,0.178s-1.651,0.194-2.188,0.345c-0.641,0.182-1.16,0.465-1.555,0.848
			c-0.396,0.384-0.594,0.912-0.594,1.584c0,0.76,0.229,1.331,0.688,1.715c0.458,0.384,1.159,0.575,2.101,0.575
			c0.783,0,1.498-0.151,2.146-0.456C216.021,155.53,216.622,155.164,217.177,154.737z"/>
		<path fill="#F4E8D1" d="M232.395,157.88c-0.419,0.112-0.876,0.202-1.37,0.273c-0.495,0.071-0.936,0.106-1.324,0.106
			c-1.352,0-2.381-0.363-3.084-1.091c-0.705-0.729-1.057-1.894-1.057-3.501v-7.048h-1.506v-1.875h1.506v-3.809h2.23v3.809h4.604
			v1.875h-4.604v6.04c0,0.696,0.016,1.24,0.048,1.631s0.143,0.758,0.333,1.098c0.174,0.316,0.412,0.548,0.717,0.694
			s0.77,0.22,1.395,0.22c0.363,0,0.744-0.054,1.139-0.16c0.396-0.107,0.681-0.196,0.854-0.268h0.119V157.88z"/>
		<path fill="#F4E8D1" d="M239.308,142.527h-2.516v-2.313h2.516V142.527z M239.165,158h-2.23v-13.254h2.23V158z"/>
		<path fill="#F4E8D1" d="M256.696,151.378c0,2.161-0.553,3.864-1.66,5.114s-2.592,1.875-4.449,1.875
			c-1.875,0-3.364-0.625-4.468-1.875s-1.655-2.954-1.655-5.114c0-2.159,0.552-3.866,1.655-5.119
			c1.104-1.253,2.593-1.881,4.468-1.881c1.857,0,3.342,0.627,4.449,1.881C256.144,147.512,256.696,149.219,256.696,151.378z
			 M254.396,151.378c0-1.715-0.337-2.991-1.01-3.826c-0.672-0.834-1.605-1.252-2.799-1.252c-1.211,0-2.15,0.417-2.818,1.252
			c-0.669,0.835-1.003,2.111-1.003,3.826c0,1.661,0.336,2.921,1.009,3.779c0.672,0.858,1.609,1.287,2.813,1.287
			c1.186,0,2.117-0.425,2.793-1.275C254.057,154.32,254.396,153.056,254.396,151.378z"/>
		<path fill="#F4E8D1" d="M273.054,158h-2.23v-7.546c0-0.609-0.035-1.181-0.106-1.715c-0.071-0.534-0.202-0.951-0.392-1.252
			c-0.197-0.332-0.482-0.579-0.854-0.741c-0.372-0.162-0.854-0.243-1.448-0.243c-0.608,0-1.245,0.15-1.91,0.45
			c-0.664,0.301-1.301,0.685-1.91,1.151V158h-2.23v-13.254h2.23v1.472c0.696-0.578,1.416-1.029,2.16-1.353
			c0.743-0.325,1.507-0.486,2.289-0.486c1.432,0,2.523,0.431,3.275,1.293c0.752,0.862,1.127,2.104,1.127,3.726V158z"/>
	</g>
</g>
</svg>
