<?xml version="1.0" encoding="utf-8"?>
<!-- Generator: Adobe Illustrator 16.0.0, SVG Export Plug-In . SVG Version: 6.00 Build 0)  -->
<!DOCTYPE svg PUBLIC "-//W3C//DTD SVG 1.1//EN" "http://www.w3.org/Graphics/SVG/1.1/DTD/svg11.dtd">
<svg version="1.1" id="圖層_1" xmlns="http://www.w3.org/2000/svg" xmlns:xlink="http://www.w3.org/1999/xlink" x="0px" y="0px"
	 width="640px" height="1096px" viewBox="0 0 640 1096" enable-background="new 0 0 640 1096" xml:space="preserve">
<g>
	<defs>
		<rect id="SVGID_17_" x="-1" width="642" height="1098"/>
	</defs>
	<clipPath id="SVGID_2_">
		<use xlink:href="#SVGID_17_"  overflow="visible"/>
	</clipPath>
	<g clip-path="url(#SVGID_2_)">
		<rect x="-18.591" y="-9" fill="#4A2E2C" width="679.181" height="1191.508"/>
		<g opacity="0.1">
			<defs>
				<rect id="SVGID_19_" x="-15.003" y="-19.381" opacity="0.1" width="670.766" height="1191.509"/>
			</defs>
			<clipPath id="SVGID_4_">
				<use xlink:href="#SVGID_19_"  overflow="visible"/>
			</clipPath>
			<g clip-path="url(#SVGID_4_)">
				<g>
					<path fill="#4A2E2C" d="M547.116,1291.996c-26.12-11.803-16.951-302.62-17.867-666.814
						c-0.91-364.197,4.215-794.897,12.02-791.174c27.182,12.991,15.404,333.339,16.32,697.531
						C558.504,895.734,554.938,1295.532,547.116,1291.996z"/>
					<path fill="#4A2E2C" d="M401.498,1291.994c-27.071-12.197-16.729-312.861-17.663-677.054
						c-0.932-364.195,3.715-784.594,11.692-780.936c27.354,12.595,16.308,323.101,17.243,687.294
						C413.702,885.494,409.476,1295.592,401.498,1291.994z"/>
					<path fill="#4A2E2C" d="M255.877,1291.994c-28.018-12.597-16.504-323.102-17.458-687.294
						c-0.951-364.196,3.219-774.295,11.366-770.695c27.527,12.196,17.212,312.86,18.165,677.053
						C268.901,875.253,264.013,1295.652,255.877,1291.994z"/>
					<path fill="#4A2E2C" d="M110.258,1291.992C81.292,1279,93.974,958.652,93.005,594.459
						c-0.973-364.195,2.719-763.993,11.038-760.456c27.701,11.801,18.115,302.621,19.087,666.813
						C124.1,865.011,118.551,1295.713,110.258,1291.992z"/>
				</g>
				<g>
					<path fill="#4A2E2C" d="M797.32,1022.385c-9.606,33.699-225.101,17.773-463.249,18.539
						c-238.15,0.768-492.727-3.227-490.211-12.794c8.254-31.405,191.711-21.153,429.86-21.926
						C511.872,1005.439,800.034,1012.859,797.32,1022.385z"/>
					<path fill="#4A2E2C" d="M809.229,885.842c-9.764,33.176-228.772,17.82-470.806,18.922
						c-242.035,1.104-500.764-2.453-498.207-11.87c8.393-30.921,194.841-21.102,436.875-22.208
						C519.127,869.582,811.99,876.463,809.229,885.842z"/>
					<path fill="#4A2E2C" d="M821.138,749.301c-9.926,32.653-232.447,17.867-478.363,19.307
						c-245.92,1.439-508.8-1.681-506.202-10.949c8.528-30.432,197.97-21.045,443.888-22.49
						C526.382,733.729,823.944,740.068,821.138,749.301z"/>
					<path fill="#4A2E2C" d="M833.047,612.942c-10.085,32.134-236.121,17.915-485.922,19.693
						c-249.804,1.776-516.837-0.908-514.196-10.03c8.665-29.944,201.1-20.989,450.9-22.768
						C533.636,598.059,835.898,603.858,833.047,612.942z"/>
					<path fill="#4A2E2C" d="M844.956,476.639c-10.246,31.613-239.795,17.963-493.48,20.079
						c-253.688,2.112-524.874-0.135-522.191-9.108c8.804-29.457,204.228-20.935,457.915-23.051
						C540.889,462.445,847.853,467.703,844.956,476.639z"/>
					<path fill="#4A2E2C" d="M856.863,340.201c-10.403,31.092-243.467,18.01-501.036,20.463
						c-257.572,2.449-532.911,0.64-530.187-8.186c8.94-28.971,207.355-20.879,464.928-23.333
						C548.145,326.695,859.807,331.412,856.863,340.201z"/>
					<path fill="#4A2E2C" d="M868.772,203.548c-10.563,30.568-247.142,18.057-508.596,20.845
						c-261.455,2.788-540.946,1.414-538.18-7.262c9.076-28.484,210.486-20.826,471.941-23.615
						C555.397,190.728,871.761,194.906,868.772,203.548z"/>
					<path fill="#4A2E2C" d="M880.679,66.893c-10.723,30.047-250.813,18.104-516.152,21.231
						c-265.34,3.122-548.981,2.185-546.174-6.343c9.213-27.996,213.613-20.769,478.953-23.894
						C562.651,54.763,883.714,58.399,880.679,66.893z"/>
				</g>
			</g>
		</g>
	</g>
</g>
</svg>
