<?xml version="1.0" encoding="utf-8"?>
<!-- Generator: Adobe Illustrator 16.0.0, SVG Export Plug-In . SVG Version: 6.00 Build 0)  -->
<!DOCTYPE svg PUBLIC "-//W3C//DTD SVG 1.1//EN" "http://www.w3.org/Graphics/SVG/1.1/DTD/svg11.dtd">
<svg version="1.1" id="圖層_1" xmlns="http://www.w3.org/2000/svg" xmlns:xlink="http://www.w3.org/1999/xlink" x="0px" y="0px"
	 width="600px" height="480px" viewBox="0 0 600 480" enable-background="new 0 0 600 480" xml:space="preserve">
<rect x="33" y="32.599" fill="#221F20" width="534" height="312"/>
<g>
	<g>
		<linearGradient id="SVGID_2_" gradientUnits="userSpaceOnUse" x1="212.917" y1="474.5986" x2="393.7361" y2="474.5986">
			<stop  offset="0.0061" style="stop-color:#58595B"/>
			<stop  offset="0.2834" style="stop-color:#757578"/>
			<stop  offset="0.5091" style="stop-color:#88898D"/>
			<stop  offset="1" style="stop-color:#58595B"/>
		</linearGradient>
		<path fill="url(#SVGID_2_)" d="M214.016,471.599v0.219c0,0.061,0,0.113,0,0.172v0.063c0,3.298,5.144,5.547,19.158,5.547
			c27.117,0,56.49,0,67.236,0c2.719,0,4.246,0,4.246,0c10.75,0,40.121,0,67.24,0c14.01,0,18.91-1,18.951-6h-1.303l0,0H214.016z"/>
		<linearGradient id="SVGID_4_" gradientUnits="userSpaceOnUse" x1="301.5894" y1="408.0273" x2="301.5894" y2="485.7899">
			<stop  offset="0.0848" style="stop-color:#6D6F73"/>
			<stop  offset="0.1354" style="stop-color:#A09D9F"/>
			<stop  offset="0.1869" style="stop-color:#CECDCE"/>
			<stop  offset="0.2121" style="stop-color:#E0E1E2"/>
			<stop  offset="0.3152" style="stop-color:#A7A9AC"/>
			<stop  offset="0.3893" style="stop-color:#868789"/>
			<stop  offset="0.4606" style="stop-color:#636363"/>
			<stop  offset="0.5264" style="stop-color:#6E6F6F"/>
			<stop  offset="0.6452" style="stop-color:#8B8D8F"/>
			<stop  offset="0.7394" style="stop-color:#A6AAAD"/>
		</linearGradient>
		<path fill="url(#SVGID_4_)" d="M372.839,452.857c-12.504-12.744-12.977-40.259-12.977-40.259h-56.148h-4.246h-56.15
			c0,0-0.471,27.515-12.979,40.259c-12.502,12.737-32.084,23.741,1.889,23.741c27.117,0,56.49,0,67.24,0c2.717,0,4.246,0,4.246,0
			c10.75,0,40.119,0,67.238,0C404.923,476.599,385.341,465.595,372.839,452.857z"/>
		<radialGradient id="SVGID_6_" cx="387.7012" cy="507.104" r="66.8405" gradientUnits="userSpaceOnUse">
			<stop  offset="0" style="stop-color:#FFFFFF"/>
			<stop  offset="1" style="stop-color:#FFFFFF;stop-opacity:0"/>
		</radialGradient>
		<path fill="url(#SVGID_6_)" d="M312.759,476.599c6.938-16,29.094-28.179,56.658-30.88c1.266,2.146,2.707,4.276,4.367,5.968
			c12.285,12.514,31.395,24.912-0.152,24.912H312.759z"/>
		
			<radialGradient id="SVGID_8_" cx="1249.5908" cy="507.104" r="66.8405" gradientTransform="matrix(-1 0 0 1 1466.957 0)" gradientUnits="userSpaceOnUse">
			<stop  offset="0" style="stop-color:#FFFFFF"/>
			<stop  offset="1" style="stop-color:#FFFFFF;stop-opacity:0"/>
		</radialGradient>
		<path fill="url(#SVGID_8_)" d="M292.31,476.599c-6.936-16-29.096-28.179-56.662-30.88c-1.262,2.146-2.707,4.276-4.365,5.968
			c-12.285,12.514-31.396,24.912,0.152,24.912H292.31z"/>
		<linearGradient id="SVGID_10_" gradientUnits="userSpaceOnUse" x1="231.4351" y1="475.9834" x2="371.896" y2="475.9834">
			<stop  offset="0.0061" style="stop-color:#FFFFFF;stop-opacity:0"/>
			<stop  offset="0.5091" style="stop-color:#FFFFFF"/>
			<stop  offset="1" style="stop-color:#FFFFFF;stop-opacity:0"/>
		</linearGradient>
		<path fill="url(#SVGID_10_)" d="M231.435,475.982c11.703-0.196,23.408-0.286,35.115-0.362l35.113-0.108l35.113,0.105l17.559,0.131
			l17.561,0.234l-17.561,0.23l-17.559,0.129l-35.113,0.113l-35.113-0.113C254.843,476.267,243.138,476.178,231.435,475.982z"/>
		<linearGradient id="SVGID_12_" gradientUnits="userSpaceOnUse" x1="3.9761" y1="405.4282" x2="625.9257" y2="364.6602">
			<stop  offset="0" style="stop-color:#78797D"/>
			<stop  offset="0.302" style="stop-color:#747579"/>
			<stop  offset="0.4909" style="stop-color:#6D6F73"/>
			<stop  offset="1" style="stop-color:#6D6F73"/>
		</linearGradient>
		<path fill="url(#SVGID_12_)" d="M14.016,394.825c0,9.381,9.004,17.773,18.386,17.773h263.289h8.965h263.289
			c9.379,0,18.071-8.392,18.071-17.773v-34.227h-572V394.825z"/>
		<path fill="#221F20" d="M567.945,21.599H304.656h-8.965H32.402c-9.382,0-18.386,6.188-18.386,15.568v323.432h572V37.167
			C586.016,27.787,577.324,21.599,567.945,21.599z M559.016,342.599h-521v-294h521V342.599z"/>
		<linearGradient id="SVGID_14_" gradientUnits="userSpaceOnUse" x1="4.1016" y1="405.4175" x2="625.9171" y2="364.6583">
			<stop  offset="0" style="stop-color:#898A8F"/>
			<stop  offset="0.1078" style="stop-color:#98989C"/>
			<stop  offset="0.3554" style="stop-color:#B5B5B8"/>
			<stop  offset="0.5927" style="stop-color:#CACBCD"/>
			<stop  offset="0.8131" style="stop-color:#D6D8DB"/>
			<stop  offset="1" style="stop-color:#DBDDDF"/>
		</linearGradient>
		<path fill="url(#SVGID_14_)" d="M14.016,392.938c0,9.38,9.004,19.661,18.386,19.661h263.289h8.965h263.289
			c9.379,0,18.071-10.28,18.071-19.661v-32.339h-572V392.938z"/>
	</g>
</g>
</svg>
