<?xml version="1.0" encoding="utf-8"?>
<!-- Generator: Adobe Illustrator 16.0.0, SVG Export Plug-In . SVG Version: 6.00 Build 0)  -->
<!DOCTYPE svg PUBLIC "-//W3C//DTD SVG 1.1//EN" "http://www.w3.org/Graphics/SVG/1.1/DTD/svg11.dtd">
<svg version="1.1" id="圖層_1" xmlns="http://www.w3.org/2000/svg" xmlns:xlink="http://www.w3.org/1999/xlink" x="0px" y="0px"
	 width="960px" height="540px" viewBox="0 0 960 540" enable-background="new 0 0 960 540" xml:space="preserve">
<g>
	<g>
		<g>
			<defs>
				<rect id="SVGID_91_" x="-2040.014" y="-46.639" width="1922" height="1082"/>
			</defs>
			<clipPath id="SVGID_2_">
				<use xlink:href="#SVGID_91_"  overflow="visible"/>
			</clipPath>
			<path opacity="0.9" clip-path="url(#SVGID_2_)" fill="#F6DA97" enable-background="new    " d="M-2127.129-891.41
				c127.042,23.813,259.254,27.125,390.556,33.849c254.717,13.042,502.35,29.286,756.617,11.439
				c234.412-16.463,468.639,5.145,704.139,17.204c170.268,8.719,339.881-0.503,509.314,7.525
				c126.066,5.976,240.578,11.388,317.361,115.438c49.703,67.348,100.076,147.68,137.043,221.234
				c30.096,59.877,56.793,122.543,84.244,183.513c37.648,83.602,35.102,147.578,30.26,236.334
				c-11.99,219.848-11.996,431.516-97.793,639.049c-48.836,118.127-84.396,180.219-203.33,246.773
				C355.428,902.565,184.771,976.346,10.324,976.59c-212.016,0.301-415.619-31.295-614.629-101.004
				c-112.963-39.568-217.777-89.293-327.064-132.705c-227.714-90.457-458.019-136.098-699.973-178.064
				c-202.192-35.072-421.263-121.287-539.944-283.939c-125.311-171.729-171.836-389.225-150.693-591.342
				c11.809-112.912,33.545-209.74,80.488-314.902c24.292-54.418,42.776-207.304,107.688-234.071L-2127.129-891.41z"/>
		</g>
		<g>
			<defs>
				<rect id="SVGID_93_" x="-2040.014" y="-46.639" width="1922" height="1082"/>
			</defs>
			<clipPath id="SVGID_4_">
				<use xlink:href="#SVGID_93_"  overflow="visible"/>
			</clipPath>
			<path clip-path="url(#SVGID_4_)" fill="#F4D08A" d="M-1334.363-636.169c71.209,13.349,145.316,15.205,218.914,18.974
				c142.773,7.312,281.578,16.416,424.104,6.413c131.393-9.228,262.682,2.883,394.686,9.643
				c95.439,4.887,190.511-0.282,285.482,4.218c70.664,3.35,134.851,6.383,177.889,64.706c27.861,37.75,56.098,82.778,76.816,124.008
				c16.869,33.563,31.834,68.688,47.221,102.862c21.105,46.86,19.676,82.722,16.961,132.472
				c-6.721,123.229-6.723,241.875-54.814,358.202c-27.373,66.213-47.305,101.017-113.971,138.322
				c-81.755,45.746-177.412,87.104-275.193,87.24c-118.838,0.168-232.965-17.543-344.513-56.615
				c-63.319-22.18-122.071-50.051-183.328-74.385c-127.641-50.703-256.73-76.285-392.352-99.811
				c-113.333-19.658-236.128-67.982-302.652-159.154c-70.238-96.259-96.318-218.169-84.467-331.461
				c6.619-63.29,18.803-117.564,45.115-176.511c13.615-30.502,23.977-116.198,60.361-131.202L-1334.363-636.169z"/>
		</g>
		<g>
			<defs>
				<rect id="SVGID_95_" x="-2040.014" y="-46.639" width="1922" height="1082"/>
			</defs>
			<clipPath id="SVGID_6_">
				<use xlink:href="#SVGID_95_"  overflow="visible"/>
			</clipPath>
			<path clip-path="url(#SVGID_6_)" fill="#E89021" d="M-1207.22-488.172c57.242,10.729,116.818,12.221,175.982,15.251
				c114.771,5.876,226.354,13.195,340.93,5.153c105.623-7.417,211.164,2.319,317.281,7.752
				c76.723,3.927,153.148-0.226,229.491,3.394c56.809,2.689,108.407,5.128,143.006,52.015
				c22.396,30.346,45.094,66.543,61.752,99.686c13.564,26.982,25.59,55.221,37.961,82.695
				c16.963,37.668,15.814,66.494,13.633,106.488c-5.4,99.063-5.402,194.438-44.063,287.956
				c-22.01,53.228-38.031,81.203-91.625,111.19c-65.715,36.777-142.615,70.023-221.223,70.135
				c-95.537,0.135-187.275-14.104-276.949-45.514c-50.902-17.826-98.133-40.235-147.377-59.797
				c-102.605-40.758-206.377-61.324-315.402-80.233c-91.106-15.804-189.818-54.653-243.298-127.942
				c-56.465-77.381-77.43-175.385-67.9-266.458c5.322-50.879,15.113-94.507,36.266-141.896
				c10.949-24.521,19.277-93.411,48.525-105.472L-1207.22-488.172z"/>
		</g>
		<g>
			<defs>
				<rect id="SVGID_97_" x="-2040.014" y="-46.639" width="1922" height="1082"/>
			</defs>
			<clipPath id="SVGID_8_">
				<use xlink:href="#SVGID_97_"  overflow="visible"/>
			</clipPath>
			<path opacity="0.2" clip-path="url(#SVGID_8_)" fill="#EED697" enable-background="new    " d="M-1227.121,40.057
				c53.48,73.29,152.192,112.141,243.3,127.943c109.023,18.91,212.795,39.477,315.402,80.234
				c49.244,19.562,96.475,41.969,147.377,59.797c89.672,31.408,181.412,45.646,276.949,45.513
				c78.605-0.11,155.506-33.356,221.221-70.134c53.596-29.988,69.617-57.965,91.625-111.191
				c-80.436-63.902-252.436-15.902-396.436,22.098c-133.898,35.336-424,16-626.747-101.828
				c-136.263-79.188-124.585-219.606-271.252-240.172c-83.26-11.674-100,34.045-52.33,87.125
				C-1266.472-24.909-1249.626,9.215-1227.121,40.057z"/>
		</g>
	</g>
</g>
<g>
	<g>
		<defs>
			<rect id="SVGID_149_" x="-38.647" y="-312.91" width="1948.657" height="204"/>
		</defs>
		<clipPath id="SVGID_10_">
			<use xlink:href="#SVGID_149_"  overflow="visible"/>
		</clipPath>
		<g clip-path="url(#SVGID_10_)">
			<defs>
				<rect id="SVGID_151_" x="-45.751" y="-391.422" width="1969.984" height="548.06"/>
			</defs>
			<clipPath id="SVGID_12_">
				<use xlink:href="#SVGID_151_"  overflow="visible"/>
			</clipPath>
		</g>
	</g>
	<g>
		<defs>
			<rect id="SVGID_153_" x="-38.647" y="-312.91" width="1948.657" height="204"/>
		</defs>
		<clipPath id="SVGID_14_">
			<use xlink:href="#SVGID_153_"  overflow="visible"/>
		</clipPath>
		<rect x="-45.751" y="-325.453" clip-path="url(#SVGID_14_)" fill="#4A2E2C" width="1969.984" height="380.961"/>
		<g opacity="0.1" clip-path="url(#SVGID_14_)">
			<defs>
				<rect id="SVGID_155_" x="-45.751" y="-391.422" opacity="0.1" width="1969.984" height="548.06"/>
			</defs>
			<clipPath id="SVGID_16_">
				<use xlink:href="#SVGID_155_"  overflow="visible"/>
			</clipPath>
			<g clip-path="url(#SVGID_16_)">
				<g>
					<path fill="#4A2E2C" d="M1964.008,13.44c-18.47,17.417-473.951,9.786-991.768,10.366
						c-517.821,0.578-1086.262-1.645-1081.232-6.648C-92.213,0.5,321.279,6.267,839.097,5.688
						C1356.919,5.113,1969.303,8.452,1964.008,13.44z"/>
					<path fill="#4A2E2C" d="M1964.006,101.013c-19.033,17.987-488.51,9.651-1006.327,10.244
						c-517.821,0.589-1071.615-1.346-1066.673-6.452c16.215-16.762,415.713-11.435,933.529-12.024
						C1342.358,92.193,1969.39,95.929,1964.006,101.013z"/>
				</g>
				<g>
					<path fill="#4A2E2C" d="M887.308-498.805c20.518,6.572,11.584,153.875,12.878,316.666
						c1.29,162.793-0.255,336.813-6.078,335.093c-19.121-5.647-13.525-131.054-14.819-293.845
						C877.996-303.686,881.508-500.665,887.308-498.805z"/>
					<path fill="#4A2E2C" d="M798.785-501.366c20.406,6.607,11.594,154.666,12.96,318.291
						c1.363,163.628-0.088,338.542-5.879,336.812c-19.017-5.677-13.514-131.727-14.88-295.353
						C789.622-305.245,793.017-503.235,798.785-501.366z"/>
					<path fill="#4A2E2C" d="M710.262-503.926c20.293,6.641,11.605,155.455,13.044,319.916
						c1.435,164.463,0.078,340.269-5.682,338.53c-18.911-5.707-13.501-132.399-14.94-296.861
						C701.248-306.805,704.526-505.806,710.262-503.926z"/>
					<path fill="#4A2E2C" d="M621.726-506.486c20.181,6.675,11.615,156.245,13.126,321.541
						c1.508,165.298,0.245,341.997-5.482,340.249c-18.807-5.736-13.489-133.072-15.001-298.369
						C612.858-308.364,616.021-508.375,621.726-506.486z"/>
					<path fill="#4A2E2C" d="M533.126-509.047c20.069,6.71,11.626,157.035,13.21,323.166c1.58,166.133,0.411,343.725-5.285,341.968
						c-18.701-5.766-13.478-133.745-15.062-299.876C524.407-309.924,527.454-510.946,533.126-509.047z"/>
					<path fill="#4A2E2C" d="M444.527-511.607c19.957,6.744,11.635,157.825,13.292,324.791
						c1.652,166.968,0.577,345.453-5.086,343.687c-18.597-5.795-13.465-134.418-15.122-301.385
						C435.956-311.483,438.887-513.516,444.527-511.607z"/>
					<path fill="#4A2E2C" d="M355.928-514.167c19.845,6.778,11.646,158.615,13.375,326.416
						c1.725,167.804,0.744,347.181-4.888,345.406c-18.492-5.825-13.454-135.09-15.182-302.892
						C347.505-313.043,350.319-516.086,355.928-514.167z"/>
					<path fill="#4A2E2C" d="M267.328-516.729c19.733,6.813,11.656,159.405,13.458,328.041c1.797,168.639,0.91,348.908-4.69,347.125
						c-18.387-5.854-13.442-135.764-15.243-304.4C259.054-314.603,261.751-518.656,267.328-516.729z"/>
					<path fill="#4A2E2C" d="M178.729-519.289c19.621,6.847,11.667,160.194,13.541,329.665
						c1.869,169.474,1.077,350.637-4.491,348.844c-18.282-5.884-13.43-136.437-15.303-305.908
						C170.602-316.163,173.184-521.227,178.729-519.289z"/>
					<path fill="#4A2E2C" d="M90.096-521.848c19.509,6.881,11.677,160.984,13.624,331.291
						c1.942,170.308,1.243,352.364-4.293,350.563C81.25,154.092,86.009,22.896,84.063-147.411
						C82.118-317.721,84.583-523.795,90.096-521.848z"/>
					<path fill="#4A2E2C" d="M1.53-524.408c19.396,6.916,11.687,161.774,13.707,332.916c2.014,171.144,1.409,354.092-4.095,352.282
						C-6.93,154.846-2.264,23.007-4.282-148.135C-6.3-319.28-3.951-526.366,1.53-524.408z"/>
				</g>
			</g>
		</g>
	</g>
	<g>
		<defs>
			<rect id="SVGID_157_" x="-38.647" y="-312.91" width="1948.657" height="204"/>
		</defs>
		<clipPath id="SVGID_18_">
			<use xlink:href="#SVGID_157_"  overflow="visible"/>
		</clipPath>
		<g clip-path="url(#SVGID_18_)">
			<defs>
				<rect id="SVGID_159_" x="-45.751" y="-391.422" width="1969.984" height="548.06"/>
			</defs>
			<clipPath id="SVGID_20_">
				<use xlink:href="#SVGID_159_"  overflow="visible"/>
			</clipPath>
		</g>
	</g>
</g>
<g>
	<g>
		<defs>
			<rect id="SVGID_177_" x="1060.329" y="-1" width="963.554" height="542"/>
		</defs>
		<clipPath id="SVGID_22_">
			<use xlink:href="#SVGID_177_"  overflow="visible"/>
		</clipPath>
		<g id="圖層_1_23_" clip-path="url(#SVGID_22_)">
			<g>
				<g>
					<defs>
						<rect id="SVGID_189_" x="1059.826" y="-1.501" width="964.559" height="543.003"/>
					</defs>
					<clipPath id="SVGID_24_">
						<use xlink:href="#SVGID_189_"  overflow="visible"/>
					</clipPath>
					<path opacity="0.1" clip-path="url(#SVGID_24_)" fill="#D13C3D" enable-background="new    " d="M952.011,6.822
						c-37.016,100.891-39.718,214.354-25.638,319.887c6.754,50.604,7.836,93.889,33.419,135.615
						c11.639,18.982,24.262,40.835,40.636,53.751c27.043,21.329,18.763,45.211,48.524,60.439
						c42.614,21.806,127.864,24.536,170.693,45.527c43.3,21.225,95.759,17.307,142.432,21.552
						c65.906,5.992,271.015-5.844,337.253-7.578c40.133-1.048,80.153-10.105,120.165-10.452c17.825-0.155,36.875,5.208,54.502-0.275
						c2.121-27.521-21.314-38.426-29.763-66.305c-16.408-54.14-395.791-86.173-433.083-97.04
						c-75.833-22.101-160.895-37.625-211.187-114.116c-45.275-68.861-99.785-178.142-101.195-263.398
						c-0.712-43.114,32.657-128.59,4.187-156.856C972.319-202.121,965.141-28.96,952.011,6.822z"/>
				</g>
				<g>
					<defs>
						<rect id="SVGID_191_" x="1059.826" y="-1.501" width="964.559" height="543.003"/>
					</defs>
					<clipPath id="SVGID_25_">
						<use xlink:href="#SVGID_191_"  overflow="visible"/>
					</clipPath>
					<path opacity="0.15" clip-path="url(#SVGID_25_)" fill="#D13C3D" enable-background="new    " d="M1455.457,758.781
						c-70.936,41.61-155.314,49.826-235.767,41.018c-38.577-4.223-71.018-3.185-105.198-26.503
						c-15.547-10.609-33.354-22.054-44.937-37.654c-19.125-25.762-35.973-16.391-50.865-45.146
						c-21.324-41.172-33.457-125.531-54.2-166.957c-20.972-41.88-24.258-94.066-32.954-140.115
						c-12.278-65.032-27.73-268.897-34.281-334.634c-3.97-39.826-1.947-79.936-6.426-119.608
						c-1.995-17.674-8.254-36.295-6.249-54.032c20.295-3.445,31.211,19.25,53.022,26.265
						c42.358,13.62,111.198,388.077,123.725,424.503c25.479,74.084,47.141,157.634,110.198,203.747
						c56.768,41.513,144.802,90.207,208.614,87.445c32.271-1.399,92.127-38.642,116.602-11.802
						C1609.029,728.458,1480.613,744.022,1455.457,758.781z"/>
				</g>
			</g>
			<g>
				<g>
					<defs>
						<rect id="SVGID_193_" x="1060.327" y="-2.004" width="964.559" height="543.004"/>
					</defs>
					<clipPath id="SVGID_26_">
						<use xlink:href="#SVGID_193_"  overflow="visible"/>
					</clipPath>
					<path opacity="0.15" clip-path="url(#SVGID_26_)" fill="#D13C3D" enable-background="new    " d="M952.514,16.983
						c-37.016,109.379-39.72,232.386-25.639,346.798c6.753,54.864,7.837,101.789,33.42,147.027
						c11.636,20.578,24.26,44.27,40.635,58.272c27.042,23.122,18.764,49.014,48.525,65.524
						c42.614,23.64,127.863,26.6,170.691,49.358c43.301,23.008,95.76,18.762,142.431,23.364
						c65.909,6.496,271.018-6.336,337.255-8.215c40.133-1.139,80.153-10.956,120.165-11.333c17.823-0.169,36.874,5.646,54.501-0.3
						c2.12-29.835-21.316-41.655-29.762-71.881c-16.407-58.695-395.791-93.422-433.082-105.204
						c-75.833-23.959-160.897-40.791-211.188-123.715c-45.274-74.654-99.786-193.129-101.194-285.559
						c-0.713-46.74,32.657-139.407,4.184-170.052C972.821-209.537,965.642-21.809,952.514,16.983z"/>
					<path opacity="0.2" clip-path="url(#SVGID_26_)" fill="#D13C3D" enable-background="new    " d="M1455.958,758.281
						c-70.937,41.608-155.314,49.824-235.766,41.018c-38.577-4.224-71.018-3.185-105.197-26.504
						c-15.55-10.609-33.355-22.053-44.937-37.652c-19.125-25.762-35.975-16.39-50.867-45.146
						c-21.322-41.173-33.455-125.531-54.2-166.958c-20.97-41.88-24.257-94.066-32.952-140.115
						c-12.279-65.032-27.729-268.899-34.281-334.632c-3.97-39.826-1.946-79.936-6.425-119.609
						c-1.997-17.674-8.256-36.295-6.249-54.032c20.294-3.445,31.209,19.252,53.021,26.265
						c42.358,13.621,111.197,388.077,123.726,424.505c25.477,74.083,47.139,157.632,110.196,203.744
						c56.769,41.515,144.804,90.208,208.615,87.446c32.271-1.397,92.128-38.642,116.601-11.801
						C1609.532,727.956,1481.116,743.521,1455.958,758.281z"/>
				</g>
			</g>
		</g>
	</g>
</g>
<g>
	<g id="圖層_1_22_">
		<rect x="-1.778" y="-1" fill="#208567" width="963.555" height="542"/>
		<g opacity="0.3" enable-background="new    ">
			<g>
				<defs>
					<rect id="SVGID_195_" x="-1.778" y="-1" width="963.555" height="542"/>
				</defs>
				<clipPath id="SVGID_28_">
					<use xlink:href="#SVGID_195_"  overflow="visible"/>
				</clipPath>
				<g clip-path="url(#SVGID_28_)">
					<g opacity="0.819">
						<path fill="none" stroke="#096D52" stroke-width="4" stroke-miterlimit="10" d="M4.047-24.421
							C4.047-11.733-5.98-11.733-5.98,0.956c0,12.688,10.027,12.688,10.027,25.377S-5.98,39.021-5.98,51.712
							c0,12.689,10.027,12.689,10.027,25.378S-5.98,89.778-5.98,102.469c0,12.689,10.027,12.689,10.027,25.378
							S-5.98,140.535-5.98,153.226c0,12.689,10.027,12.689,10.027,25.378c0,12.69-10.027,12.69-10.027,25.379
							c0,12.688,10.027,12.688,10.027,25.374c0,12.69-10.027,12.69-10.027,25.377c0,12.69,10.027,12.69,10.027,25.381
							c0,12.688-10.027,12.688-10.027,25.377S4.047,318.18,4.047,330.869c0,12.688-10.027,12.688-10.027,25.377
							c0,12.69,10.027,12.69,10.027,25.379S-5.98,394.313-5.98,407.003c0,12.69,10.027,12.69,10.027,25.38
							c0,12.69-10.027,12.69-10.027,25.381c0,12.688,10.027,12.688,10.027,25.378c0,12.69-10.027,12.69-10.027,25.382
							c0,12.688,10.027,12.688,10.027,25.378c0,12.69-10.027,12.69-10.027,25.38c0,12.691,10.027,12.691,10.027,25.382
							c0,12.689-10.027,12.689-10.027,25.38c0,12.691,10.027,12.691,10.027,25.383S-5.98,648.117-5.98,660.81"/>
					</g>
					<g opacity="0.8286">
						<path fill="none" stroke="#096D52" stroke-width="4" stroke-miterlimit="10" d="M60.632-30.093
							c0,12.69-10.027,12.69-10.027,25.38c0,12.688,10.027,12.688,10.027,25.377S50.604,33.353,50.604,46.041
							c0,12.69,10.027,12.69,10.027,25.38c0,12.688-10.027,12.688-10.027,25.377c0,12.689,10.027,12.689,10.027,25.379
							c0,12.688-10.027,12.688-10.027,25.377c0,12.69,10.027,12.69,10.027,25.379c0,12.689-10.027,12.689-10.027,25.378
							s10.027,12.688,10.027,25.377s-10.027,12.688-10.027,25.377s10.027,12.688,10.027,25.381
							c0,12.688-10.027,12.688-10.027,25.377s10.027,12.688,10.027,25.378c0,12.69-10.027,12.69-10.027,25.376
							c0,12.69,10.027,12.69,10.027,25.379c0,12.689-10.027,12.688-10.027,25.378c0,12.69,10.027,12.69,10.027,25.38
							c0,12.69-10.027,12.69-10.027,25.382c0,12.688,10.027,12.688,10.027,25.378c0,12.69-10.027,12.69-10.027,25.382
							c0,12.688,10.027,12.688,10.027,25.378c0,12.69-10.027,12.69-10.027,25.379c0,12.691,10.027,12.691,10.027,25.381
							c0,12.69-10.027,12.69-10.027,25.381c0,12.691,10.027,12.691,10.027,25.383s-10.027,12.691-10.027,25.384"/>
					</g>
					<g opacity="0.8381">
						<path fill="none" stroke="#096D52" stroke-width="4" stroke-miterlimit="10" d="M117.215-35.762
							c0,12.688-10.026,12.688-10.026,25.379c0,12.688,10.026,12.688,10.026,25.377c0,12.688-10.026,12.688-10.026,25.377
							s10.026,12.688,10.026,25.379c0,12.689-10.026,12.689-10.026,25.378c0,12.69,10.026,12.69,10.026,25.38
							c0,12.688-10.026,12.688-10.026,25.377s10.026,12.688,10.026,25.379c0,12.689-10.026,12.689-10.026,25.378
							s10.026,12.688,10.026,25.376c0,12.689-10.026,12.689-10.026,25.376c0,12.689,10.026,12.689,10.026,25.38
							c0,12.688-10.026,12.688-10.026,25.377c0,12.69,10.026,12.69,10.026,25.379s-10.026,12.688-10.026,25.377
							c0,12.689,10.026,12.689,10.026,25.378c0,12.69-10.026,12.69-10.026,25.379c0,12.691,10.026,12.691,10.026,25.381
							c0,12.69-10.026,12.69-10.026,25.379c0,12.691,10.026,12.691,10.026,25.38c0,12.69-10.026,12.69-10.026,25.381
							c0,12.688,10.026,12.688,10.026,25.378c0,12.69-10.026,12.69-10.026,25.379c0,12.691,10.026,12.691,10.026,25.381
							c0,12.69-10.026,12.69-10.026,25.38c0,12.693,10.026,12.693,10.026,25.385s-10.026,12.691-10.026,25.383"/>
					</g>
					<g opacity="0.8476">
						<path fill="none" stroke="#096D52" stroke-width="4" stroke-miterlimit="10" d="M173.8-41.432
							c0,12.688-10.027,12.688-10.027,25.377c0,12.69,10.027,12.69,10.027,25.38c0,12.688-10.027,12.688-10.027,25.377
							c0,12.688,10.027,12.688,10.027,25.379c0,12.689-10.027,12.689-10.027,25.378c0,12.69,10.027,12.69,10.027,25.379
							s-10.027,12.688-10.027,25.377s10.027,12.688,10.027,25.379c0,12.689-10.027,12.689-10.027,25.378S173.8,199.66,173.8,212.348
							c0,12.689-10.027,12.689-10.027,25.377c0,12.689,10.027,12.689,10.027,25.381c0,12.688-10.027,12.688-10.027,25.378
							c0,12.688,10.027,12.688,10.027,25.377s-10.027,12.688-10.027,25.377s10.027,12.688,10.027,25.378
							s-10.027,12.689-10.027,25.378c0,12.689,10.027,12.689,10.027,25.38c0,12.689-10.027,12.689-10.027,25.38
							c0,12.689,10.027,12.689,10.027,25.38c0,12.691-10.027,12.691-10.027,25.381c0,12.69,10.027,12.69,10.027,25.379
							c0,12.691-10.027,12.691-10.027,25.38c0,12.691,10.027,12.691,10.027,25.381c0,12.69-10.027,12.69-10.027,25.379
							c0,12.691,10.027,12.691,10.027,25.384c0,12.691-10.027,12.691-10.027,25.383"/>
					</g>
					<g opacity="0.8571">
						<path fill="none" stroke="#096D52" stroke-width="4" stroke-miterlimit="10" d="M230.384-47.102
							c0,12.689-10.027,12.689-10.027,25.378s10.027,12.688,10.027,25.377c0,12.69-10.027,12.69-10.027,25.379
							s10.027,12.688,10.027,25.379c0,12.688-10.027,12.688-10.027,25.378c0,12.688,10.027,12.688,10.027,25.377
							c0,12.69-10.027,12.69-10.027,25.38c0,12.688,10.027,12.688,10.027,25.379c0,12.689-10.027,12.689-10.027,25.378
							c0,12.688,10.027,12.688,10.027,25.374c0,12.688-10.027,12.688-10.027,25.377c0,12.691,10.027,12.691,10.027,25.379
							c0,12.69-10.027,12.69-10.027,25.378c0,12.689,10.027,12.689,10.027,25.38c0,12.688-10.027,12.688-10.027,25.377
							s10.027,12.688,10.027,25.378c0,12.69-10.027,12.69-10.027,25.379c0,12.689,10.027,12.689,10.027,25.38
							c0,12.689-10.027,12.689-10.027,25.38c0,12.689,10.027,12.689,10.027,25.38c0,12.689-10.027,12.689-10.027,25.38
							c0,12.689,10.027,12.689,10.027,25.379s-10.027,12.689-10.027,25.38c0,12.689,10.027,12.689,10.027,25.38
							c0,12.689-10.027,12.689-10.027,25.38c0,12.691,10.027,12.691,10.027,25.384c0,12.691-10.027,12.693-10.027,25.385"/>
					</g>
					<g opacity="0.8667">
						<path fill="none" stroke="#096D52" stroke-width="4" stroke-miterlimit="10" d="M286.968-52.771
							c0,12.688-10.027,12.688-10.027,25.378c0,12.688,10.027,12.688,10.027,25.377s-10.027,12.688-10.027,25.377
							c0,12.69,10.027,12.69,10.027,25.38c0,12.688-10.027,12.688-10.027,25.379c0,12.689,10.027,12.689,10.027,25.378
							c0,12.69-10.027,12.69-10.027,25.379s10.027,12.688,10.027,25.378c0,12.688-10.027,12.688-10.027,25.379
							c0,12.688,10.027,12.688,10.027,25.374c0,12.69-10.027,12.69-10.027,25.377c0,12.69,10.027,12.69,10.027,25.38
							c0,12.688-10.027,12.688-10.027,25.378s10.027,12.689,10.027,25.38c0,12.687-10.027,12.687-10.027,25.377
							c0,12.688,10.027,12.688,10.027,25.378c0,12.688-10.027,12.688-10.027,25.378c0,12.689,10.027,12.689,10.027,25.379
							c0,12.689-10.027,12.689-10.027,25.38c0,12.689,10.027,12.689,10.027,25.38c0,12.689-10.027,12.689-10.027,25.38
							c0,12.689,10.027,12.689,10.027,25.38c0,12.688-10.027,12.688-10.027,25.38c0,12.689,10.027,12.689,10.027,25.38
							c0,12.689-10.027,12.689-10.027,25.38c0,12.691,10.027,12.691,10.027,25.383s-10.027,12.691-10.027,25.384"/>
					</g>
					<g opacity="0.8762">
						<path fill="none" stroke="#096D52" stroke-width="4" stroke-miterlimit="10" d="M343.553-58.44
							c0,12.689-10.027,12.689-10.027,25.377c0,12.689,10.027,12.689,10.027,25.378s-10.027,12.688-10.027,25.379
							c0,12.689,10.027,12.689,10.027,25.378c0,12.688-10.027,12.688-10.027,25.378c0,12.689,10.027,12.689,10.027,25.378
							s-10.027,12.688-10.027,25.377c0,12.69,10.027,12.69,10.027,25.38c0,12.688-10.027,12.688-10.027,25.379
							c0,12.687,10.027,12.687,10.027,25.375s-10.027,12.688-10.027,25.377s10.027,12.688,10.027,25.38
							c0,12.688-10.027,12.688-10.027,25.378c0,12.688,10.027,12.688,10.027,25.376c0,12.689-10.027,12.689-10.027,25.378
							c0,12.69,10.027,12.69,10.027,25.379s-10.027,12.688-10.027,25.378c0,12.69,10.027,12.69,10.027,25.38
							c0,12.69-10.027,12.69-10.027,25.382c0,12.688,10.027,12.688,10.027,25.378c0,12.69-10.027,12.69-10.027,25.382
							c0,12.688,10.027,12.688,10.027,25.378c0,12.69-10.027,12.69-10.027,25.379c0,12.69,10.027,12.69,10.027,25.382
							c0,12.688-10.027,12.688-10.027,25.38s10.027,12.691,10.027,25.383s-10.027,12.691-10.027,25.383"/>
					</g>
					<g opacity="0.8857">
						<path fill="none" stroke="#096D52" stroke-width="4" stroke-miterlimit="10" d="M400.137-64.111
							c0,12.688-10.026,12.688-10.026,25.378c0,12.688,10.026,12.688,10.026,25.377c0,12.689-10.026,12.689-10.026,25.378
							S400.137,24.71,400.137,37.4c0,12.689-10.026,12.689-10.026,25.378c0,12.69,10.026,12.69,10.026,25.38
							c0,12.688-10.026,12.688-10.026,25.377c0,12.69,10.026,12.69,10.026,25.379c0,12.689-10.026,12.689-10.026,25.378
							c0,12.688,10.026,12.688,10.026,25.376s-10.026,12.688-10.026,25.377s10.026,12.688,10.026,25.379
							c0,12.689-10.026,12.689-10.026,25.377c0,12.69,10.026,12.69,10.026,25.379c0,12.689-10.026,12.689-10.026,25.378
							s10.026,12.688,10.026,25.379c0,12.688-10.026,12.688-10.026,25.378c0,12.69,10.026,12.69,10.026,25.379
							c0,12.691-10.026,12.691-10.026,25.38c0,12.69,10.026,12.69,10.026,25.38c0,12.69-10.026,12.69-10.026,25.38
							c0,12.69,10.026,12.69,10.026,25.379c0,12.691-10.026,12.691-10.026,25.38c0,12.691,10.026,12.691,10.026,25.381
							c0,12.69-10.026,12.69-10.026,25.38c0,12.691,10.026,12.691,10.026,25.385c0,12.691-10.026,12.691-10.026,25.383"/>
					</g>
					<g opacity="0.8952">
						<path fill="none" stroke="#096D52" stroke-width="4" stroke-miterlimit="10" d="M456.722-69.781
							c0,12.688-10.027,12.688-10.027,25.377s10.027,12.688,10.027,25.379c0,12.688-10.027,12.688-10.027,25.377
							c0,12.689,10.027,12.689,10.027,25.378c0,12.69-10.027,12.69-10.027,25.38c0,12.688,10.027,12.688,10.027,25.378
							s-10.027,12.689-10.027,25.378s10.027,12.688,10.027,25.379c0,12.689-10.027,12.689-10.027,25.378
							c0,12.688,10.027,12.688,10.027,25.374c0,12.688-10.027,12.688-10.027,25.38c0,12.688,10.027,12.688,10.027,25.379
							c0,12.687-10.027,12.687-10.027,25.377s10.027,12.69,10.027,25.379c0,12.688-10.027,12.688-10.027,25.376
							c0,12.689,10.027,12.689,10.027,25.38c0,12.688-10.027,12.688-10.027,25.377c0,12.691,10.027,12.691,10.027,25.38
							c0,12.691-10.027,12.691-10.027,25.381c0,12.69,10.027,12.69,10.027,25.379c0,12.691-10.027,12.691-10.027,25.381
							c0,12.69,10.027,12.69,10.027,25.379c0,12.689-10.027,12.689-10.027,25.38c0,12.691,10.027,12.691,10.027,25.38
							c0,12.691-10.027,12.691-10.027,25.38c0,12.691,10.027,12.691,10.027,25.383c0,12.693-10.027,12.693-10.027,25.385"/>
					</g>
					<g opacity="0.9048">
						<path fill="none" stroke="#096D52" stroke-width="4" stroke-miterlimit="10" d="M513.305-75.45
							c0,12.688-10.027,12.688-10.027,25.377c0,12.688,10.027,12.688,10.027,25.378c0,12.688-10.027,12.688-10.027,25.378
							c0,12.688,10.027,12.688,10.027,25.379c0,12.688-10.027,12.688-10.027,25.378c0,12.688,10.027,12.688,10.027,25.379
							c0,12.688-10.027,12.688-10.027,25.377c0,12.689,10.027,12.689,10.027,25.378c0,12.69-10.027,12.69-10.027,25.38
							c0,12.688,10.027,12.688,10.027,25.376s-10.027,12.688-10.027,25.376c0,12.689,10.027,12.689,10.027,25.38
							c0,12.688-10.027,12.688-10.027,25.377c0,12.689,10.027,12.689,10.027,25.379c0,12.688-10.027,12.688-10.027,25.377
							c0,12.689,10.027,12.689,10.027,25.378c0,12.69-10.027,12.69-10.027,25.379c0,12.689,10.027,12.689,10.027,25.38
							c0,12.691-10.027,12.691-10.027,25.38c0,12.691,10.027,12.691,10.027,25.379c0,12.691-10.027,12.691-10.027,25.38
							c0,12.69,10.027,12.69,10.027,25.379c0,12.689-10.027,12.689-10.027,25.38c0,12.691,10.027,12.691,10.027,25.38
							c0,12.691-10.027,12.691-10.027,25.381c0,12.691,10.027,12.691,10.027,25.383c0,12.693-10.027,12.693-10.027,25.385"/>
					</g>
					<g opacity="0.9143">
						<path fill="none" stroke="#096D52" stroke-width="4" stroke-miterlimit="10" d="M569.89-81.121
							c0,12.688-10.027,12.688-10.027,25.378c0,12.688,10.027,12.688,10.027,25.377s-10.027,12.688-10.027,25.379
							c0,12.689,10.027,12.689,10.027,25.378c0,12.69-10.027,12.69-10.027,25.38c0,12.688,10.027,12.688,10.027,25.379
							c0,12.688-10.027,12.688-10.027,25.376c0,12.689,10.027,12.689,10.027,25.378c0,12.69-10.027,12.69-10.027,25.38
							c0,12.688,10.027,12.688,10.027,25.374c0,12.69-10.027,12.69-10.027,25.377c0,12.69,10.027,12.69,10.027,25.38
							c0,12.688-10.027,12.688-10.027,25.377s10.027,12.688,10.027,25.379s-10.027,12.69-10.027,25.379s10.027,12.688,10.027,25.377
							s-10.027,12.688-10.027,25.377c0,12.69,10.027,12.69,10.027,25.38c0,12.69-10.027,12.69-10.027,25.38
							c0,12.69,10.027,12.69,10.027,25.38c0,12.69-10.027,12.69-10.027,25.382c0,12.688,10.027,12.688,10.027,25.378
							c0,12.69-10.027,12.69-10.027,25.382c0,12.688,10.027,12.688,10.027,25.38c0,12.689-10.027,12.689-10.027,25.38
							c0,12.692,10.027,12.692,10.027,25.383c0,12.691-10.027,12.691-10.027,25.382"/>
					</g>
					<g opacity="0.9238">
						<path fill="none" stroke="#096D52" stroke-width="4" stroke-miterlimit="10" d="M626.475-86.792
							c0,12.688-10.027,12.688-10.027,25.379c0,12.688,10.027,12.688,10.027,25.378c0,12.688-10.027,12.688-10.027,25.376
							s10.027,12.688,10.027,25.378c0,12.689-10.027,12.689-10.027,25.378c0,12.69,10.027,12.69,10.027,25.38
							c0,12.688-10.027,12.688-10.027,25.377c0,12.69,10.027,12.69,10.027,25.379c0,12.689-10.027,12.689-10.027,25.378
							s10.027,12.688,10.027,25.376c0,12.689-10.027,12.689-10.027,25.377c0,12.689,10.027,12.689,10.027,25.381
							c0,12.688-10.027,12.688-10.027,25.376s10.027,12.688,10.027,25.379c0,12.688-10.027,12.688-10.027,25.377
							c0,12.69,10.027,12.69,10.027,25.379c0,12.689-10.027,12.689-10.027,25.38c0,12.688,10.027,12.688,10.027,25.378
							c0,12.69-10.027,12.69-10.027,25.382c0,12.688,10.027,12.688,10.027,25.378c0,12.69-10.027,12.69-10.027,25.382
							c0,12.688,10.027,12.688,10.027,25.377c0,12.69-10.027,12.69-10.027,25.38c0,12.69,10.027,12.69,10.027,25.382
							c0,12.688-10.027,12.688-10.027,25.38s10.027,12.691,10.027,25.383s-10.027,12.691-10.027,25.384"/>
					</g>
					<g opacity="0.9333">
						<path fill="none" stroke="#096D52" stroke-width="4" stroke-miterlimit="10" d="M683.059-92.462
							c0,12.69-10.027,12.69-10.027,25.379s10.027,12.688,10.027,25.378c0,12.688-10.027,12.688-10.027,25.377
							c0,12.69,10.027,12.69,10.027,25.38c0,12.688-10.027,12.688-10.027,25.377c0,12.69,10.027,12.69,10.027,25.38
							c0,12.688-10.027,12.688-10.027,25.377s10.027,12.688,10.027,25.379c0,12.688-10.027,12.688-10.027,25.377
							s10.027,12.688,10.027,25.377s-10.027,12.688-10.027,25.377c0,12.69,10.027,12.69,10.027,25.38
							c0,12.688-10.027,12.688-10.027,25.377s10.027,12.688,10.027,25.379c0,12.688-10.027,12.688-10.027,25.377
							c0,12.69,10.027,12.69,10.027,25.379s-10.027,12.688-10.027,25.378c0,12.69,10.027,12.69,10.027,25.379
							c0,12.69-10.027,12.69-10.027,25.382c0,12.688,10.027,12.688,10.027,25.378c0,12.69-10.027,12.69-10.027,25.382
							c0,12.688,10.027,12.688,10.027,25.378c0,12.69-10.027,12.69-10.027,25.38c0,12.69,10.027,12.69,10.027,25.38
							c0,12.69-10.027,12.69-10.027,25.382s10.027,12.691,10.027,25.383s-10.027,12.691-10.027,25.383"/>
					</g>
					<g opacity="0.9429">
						<path fill="none" stroke="#096D52" stroke-width="4" stroke-miterlimit="10" d="M739.643-98.131
							c0,12.688-10.026,12.688-10.026,25.379c0,12.688,10.026,12.688,10.026,25.377c0,12.689-10.026,12.689-10.026,25.378
							s10.026,12.688,10.026,25.379c0,12.688-10.026,12.688-10.026,25.377c0,12.69,10.026,12.69,10.026,25.38
							c0,12.688-10.026,12.688-10.026,25.377s10.026,12.688,10.026,25.379c0,12.689-10.026,12.689-10.026,25.378
							s10.026,12.688,10.026,25.376c0,12.689-10.026,12.689-10.026,25.377c0,12.689,10.026,12.689,10.026,25.38
							c0,12.688-10.026,12.688-10.026,25.378c0,12.688,10.026,12.688,10.026,25.376c0,12.689-10.026,12.689-10.026,25.379
							c0,12.688,10.026,12.688,10.026,25.379c0,12.688-10.026,12.688-10.026,25.378c0,12.69,10.026,12.69,10.026,25.379
							c0,12.689-10.026,12.689-10.026,25.38c0,12.689,10.026,12.689,10.026,25.381c0,12.69-10.026,12.69-10.026,25.379
							c0,12.689,10.026,12.689,10.026,25.381c0,12.69-10.026,12.69-10.026,25.378c0,12.691,10.026,12.691,10.026,25.38
							c0,12.69-10.026,12.69-10.026,25.38c0,12.693,10.026,12.693,10.026,25.385s-10.026,12.691-10.026,25.383"/>
					</g>
					<g opacity="0.9524">
						<path fill="none" stroke="#096D52" stroke-width="4" stroke-miterlimit="10" d="M796.228-103.801
							c0,12.688-10.026,12.688-10.026,25.377c0,12.688,10.026,12.688,10.026,25.377s-10.026,12.688-10.026,25.379
							c0,12.689,10.026,12.689,10.026,25.378s-10.026,12.688-10.026,25.379c0,12.689,10.026,12.689,10.026,25.378
							c0,12.69-10.026,12.69-10.026,25.38c0,12.688,10.026,12.688,10.026,25.377s-10.026,12.688-10.026,25.379
							c0,12.688,10.026,12.688,10.026,25.374c0,12.688-10.026,12.688-10.026,25.377c0,12.69,10.026,12.69,10.026,25.38
							c0,12.688-10.026,12.688-10.026,25.377c0,12.69,10.026,12.69,10.026,25.379s-10.026,12.688-10.026,25.379
							c0,12.688,10.026,12.688,10.026,25.377s-10.026,12.688-10.026,25.378c0,12.69,10.026,12.69,10.026,25.382
							c0,12.689-10.026,12.689-10.026,25.38c0,12.688,10.026,12.688,10.026,25.379c0,12.689-10.026,12.689-10.026,25.38
							c0,12.689,10.026,12.689,10.026,25.38c0,12.688-10.026,12.688-10.026,25.38c0,12.689,10.026,12.689,10.026,25.38
							c0,12.691-10.026,12.691-10.026,25.38c0,12.692,10.026,12.692,10.026,25.384s-10.026,12.691-10.026,25.385"/>
					</g>
					<g opacity="0.9619">
						<path fill="none" stroke="#096D52" stroke-width="4" stroke-miterlimit="10" d="M852.811-109.471
							c0,12.689-10.026,12.689-10.026,25.378s10.026,12.688,10.026,25.377c0,12.69-10.026,12.69-10.026,25.379
							c0,12.689,10.026,12.689,10.026,25.378S842.785,4.729,842.785,17.42c0,12.689,10.026,12.689,10.026,25.377
							c0,12.688-10.026,12.688-10.026,25.379c0,12.689,10.026,12.689,10.026,25.378s-10.026,12.688-10.026,25.379
							c0,12.687,10.026,12.687,10.026,25.375s-10.026,12.688-10.026,25.377c0,12.69,10.026,12.69,10.026,25.38
							c0,12.688-10.026,12.688-10.026,25.377s10.026,12.688,10.026,25.379c0,12.688-10.026,12.688-10.026,25.378
							c0,12.688,10.026,12.688,10.026,25.377c0,12.689-10.026,12.689-10.026,25.378c0,12.69,10.026,12.69,10.026,25.382
							c0,12.688-10.026,12.688-10.026,25.38c0,12.689,10.026,12.689,10.026,25.38c0,12.689-10.026,12.689-10.026,25.38
							c0,12.689,10.026,12.689,10.026,25.38c0,12.688-10.026,12.688-10.026,25.38c0,12.689,10.026,12.689,10.026,25.38
							c0,12.689-10.026,12.689-10.026,25.38s10.026,12.69,10.026,25.383c0,12.691-10.026,12.691-10.026,25.383"/>
					</g>
					<g opacity="0.9714">
						<path fill="none" stroke="#096D52" stroke-width="4" stroke-miterlimit="10" d="M909.396-115.14
							c0,12.688-10.026,12.688-10.026,25.377c0,12.689,10.026,12.689,10.026,25.377c0,12.688-10.026,12.688-10.026,25.377
							c0,12.69,10.026,12.69,10.026,25.38c0,12.688-10.026,12.688-10.026,25.377c0,12.69,10.026,12.69,10.026,25.38
							c0,12.688-10.026,12.688-10.026,25.377c0,12.69,10.026,12.69,10.026,25.379c0,12.689-10.026,12.689-10.026,25.378
							s10.026,12.688,10.026,25.377c0,12.688-10.026,12.688-10.026,25.377c0,12.688,10.026,12.688,10.026,25.378
							c0,12.688-10.026,12.688-10.026,25.377c0,12.689,10.026,12.689,10.026,25.378s-10.026,12.688-10.026,25.377
							c0,12.69,10.026,12.69,10.026,25.379c0,12.69-10.026,12.69-10.026,25.38c0,12.69,10.026,12.69,10.026,25.379
							c0,12.689-10.026,12.689-10.026,25.381c0,12.69,10.026,12.69,10.026,25.379c0,12.691-10.026,12.691-10.026,25.38
							c0,12.691,10.026,12.691,10.026,25.38c0,12.69-10.026,12.69-10.026,25.38c0,12.69,10.026,12.69,10.026,25.38
							c0,12.69-10.026,12.69-10.026,25.38c0,12.691,10.026,12.691,10.026,25.385c0,12.691-10.026,12.691-10.026,25.383"/>
					</g>
					<g opacity="0.981">
						<path fill="none" stroke="#096D52" stroke-width="4" stroke-miterlimit="10" d="M965.979-120.812
							c0,12.688-10.026,12.688-10.026,25.377c0,12.69,10.026,12.69,10.026,25.379c0,12.689-10.026,12.689-10.026,25.378
							c0,12.69,10.026,12.69,10.026,25.38c0,12.688-10.026,12.688-10.026,25.377s10.026,12.688,10.026,25.379
							c0,12.689-10.026,12.689-10.026,25.378c0,12.689,10.026,12.689,10.026,25.379c0,12.688-10.026,12.688-10.026,25.377
							s10.026,12.688,10.026,25.376c0,12.688-10.026,12.688-10.026,25.377c0,12.689,10.026,12.689,10.026,25.38
							c0,12.688-10.026,12.688-10.026,25.377c0,12.689,10.026,12.689,10.026,25.378s-10.026,12.688-10.026,25.377
							c0,12.689,10.026,12.689,10.026,25.379c0,12.69-10.026,12.69-10.026,25.378c0,12.689,10.026,12.689,10.026,25.38
							c0,12.691-10.026,12.691-10.026,25.381c0,12.69,10.026,12.69,10.026,25.379c0,12.691-10.026,12.691-10.026,25.383
							c0,12.688,10.026,12.688,10.026,25.378c0,12.69-10.026,12.69-10.026,25.38c0,12.69,10.026,12.69,10.026,25.38
							c0,12.69-10.026,12.69-10.026,25.38c0,12.693,10.026,12.693,10.026,25.384s-10.026,12.691-10.026,25.382"/>
					</g>
				</g>
			</g>
			<g>
				<defs>
					<rect id="SVGID_197_" x="-1.778" y="-1" width="963.555" height="542"/>
				</defs>
				<clipPath id="SVGID_30_">
					<use xlink:href="#SVGID_197_"  overflow="visible"/>
				</clipPath>
				<g clip-path="url(#SVGID_30_)">
					<g opacity="0.819">
						<path fill="none" stroke="#4B987E" stroke-width="4" stroke-miterlimit="10" d="M33.626-84.103
							c0,12.688-10.027,12.688-10.027,25.378c0,12.688,10.027,12.688,10.027,25.377S23.599-20.659,23.599-7.971
							c0,12.69,10.027,12.69,10.027,25.38c0,12.688-10.027,12.688-10.027,25.376c0,12.69,10.027,12.69,10.027,25.38
							c0,12.688-10.027,12.688-10.027,25.379c0,12.688,10.027,12.688,10.027,25.378c0,12.69-10.027,12.69-10.027,25.38
							c0,12.688,10.027,12.688,10.027,25.376c0,12.687-10.027,12.687-10.027,25.375c0,12.69,10.027,12.69,10.027,25.38
							c0,12.688-10.027,12.688-10.027,25.377c0,12.688,10.027,12.688,10.027,25.378c0,12.69-10.027,12.69-10.027,25.377
							c0,12.69,10.027,12.69,10.027,25.379c0,12.689-10.027,12.689-10.027,25.38c0,12.688,10.027,12.688,10.027,25.378
							c0,12.691-10.027,12.691-10.027,25.382c0,12.688,10.027,12.688,10.027,25.378c0,12.69-10.027,12.69-10.027,25.382
							c0,12.688,10.027,12.688,10.027,25.378c0,12.69-10.027,12.69-10.027,25.382c0,12.688,10.027,12.688,10.027,25.379
							c0,12.689-10.027,12.689-10.027,25.38c0,12.691,10.027,12.691,10.027,25.383c0,12.692-10.027,12.692-10.027,25.384"/>
					</g>
					<g opacity="0.8286">
						<path fill="none" stroke="#4B987E" stroke-width="4" stroke-miterlimit="10" d="M90.209-80.041
							c0,12.688-10.026,12.688-10.026,25.377c0,12.69,10.026,12.69,10.026,25.379c0,12.689-10.026,12.689-10.026,25.378
							c0,12.69,10.026,12.69,10.026,25.38c0,12.688-10.026,12.688-10.026,25.377c0,12.69,10.026,12.69,10.026,25.379
							c0,12.689-10.026,12.689-10.026,25.378s10.026,12.688,10.026,25.378s-10.026,12.689-10.026,25.378
							s10.026,12.688,10.026,25.376c0,12.689-10.026,12.689-10.026,25.377c0,12.689,10.026,12.689,10.026,25.38
							c0,12.688-10.026,12.688-10.026,25.377s10.026,12.688,10.026,25.379c0,12.688-10.026,12.688-10.026,25.377
							s10.026,12.688,10.026,25.378c0,12.69-10.026,12.69-10.026,25.379s10.026,12.688,10.026,25.379
							c0,12.689-10.026,12.689-10.026,25.38c0,12.689,10.026,12.689,10.026,25.38c0,12.689-10.026,12.689-10.026,25.38
							c0,12.689,10.026,12.689,10.026,25.38c0,12.689-10.026,12.689-10.026,25.38c0,12.689,10.026,12.689,10.026,25.381
							c0,12.69-10.026,12.69-10.026,25.379c0,12.694,10.026,12.694,10.026,25.386c0,12.691-10.026,12.691-10.026,25.382"/>
					</g>
					<g opacity="0.8381">
						<path fill="none" stroke="#4B987E" stroke-width="4" stroke-miterlimit="10" d="M146.793-75.978
							c0,12.688-10.026,12.688-10.026,25.378c0,12.688,10.026,12.688,10.026,25.376c0,12.688-10.026,12.688-10.026,25.377
							c0,12.691,10.026,12.691,10.026,25.38s-10.026,12.688-10.026,25.377c0,12.69,10.026,12.69,10.026,25.38
							c0,12.688-10.026,12.688-10.026,25.377c0,12.69,10.026,12.69,10.026,25.38c0,12.688-10.026,12.688-10.026,25.379
							c0,12.687,10.026,12.687,10.026,25.375s-10.026,12.688-10.026,25.376c0,12.688,10.026,12.688,10.026,25.38
							c0,12.688-10.026,12.688-10.026,25.377s10.026,12.688,10.026,25.379c0,12.688-10.026,12.688-10.026,25.377
							c0,12.69,10.026,12.69,10.026,25.379s-10.026,12.688-10.026,25.378c0,12.691,10.026,12.691,10.026,25.382
							c0,12.688-10.026,12.688-10.026,25.378c0,12.691,10.026,12.691,10.026,25.381c0,12.689-10.026,12.689-10.026,25.379
							c0,12.689,10.026,12.689,10.026,25.38c0,12.688-10.026,12.688-10.026,25.38c0,12.689,10.026,12.689,10.026,25.38
							c0,12.688-10.026,12.688-10.026,25.38s10.026,12.691,10.026,25.383s-10.026,12.691-10.026,25.383"/>
					</g>
					<g opacity="0.8476">
						<path fill="none" stroke="#4B987E" stroke-width="4" stroke-miterlimit="10" d="M203.378-71.916
							c0,12.688-10.027,12.688-10.027,25.377s10.027,12.688,10.027,25.379c0,12.689-10.027,12.689-10.027,25.378
							s10.027,12.688,10.027,25.379c0,12.688-10.027,12.688-10.027,25.377c0,12.688,10.027,12.688,10.027,25.378
							c0,12.688-10.027,12.688-10.027,25.378c0,12.688,10.027,12.688,10.027,25.379c0,12.689-10.027,12.689-10.027,25.378
							s10.027,12.688,10.027,25.376c0,12.689-10.027,12.689-10.027,25.378s10.027,12.688,10.027,25.379
							c0,12.689-10.027,12.689-10.027,25.377c0,12.69,10.027,12.69,10.027,25.378c0,12.689-10.027,12.689-10.027,25.377
							s10.027,12.688,10.027,25.379c0,12.688-10.027,12.688-10.027,25.378c0,12.69,10.027,12.69,10.027,25.379
							c0,12.691-10.027,12.691-10.027,25.381c0,12.69,10.027,12.69,10.027,25.379c0,12.691-10.027,12.691-10.027,25.381
							c0,12.69,10.027,12.69,10.027,25.379c0,12.691-10.027,12.691-10.027,25.38c0,12.691,10.027,12.691,10.027,25.381
							s-10.027,12.689-10.027,25.379c0,12.693,10.027,12.693,10.027,25.385s-10.027,12.691-10.027,25.383"/>
					</g>
					<g opacity="0.8571">
						<path fill="none" stroke="#4B987E" stroke-width="4" stroke-miterlimit="10" d="M259.962-67.855
							c0,12.69-10.027,12.69-10.027,25.379c0,12.689,10.027,12.689,10.027,25.378S249.935-4.41,249.935,8.278
							c0,12.691,10.027,12.691,10.027,25.38s-10.027,12.688-10.027,25.377c0,12.69,10.027,12.69,10.027,25.38
							c0,12.688-10.027,12.688-10.027,25.379c0,12.689,10.027,12.689,10.027,25.378c0,12.688-10.027,12.688-10.027,25.376
							s10.027,12.688,10.027,25.377s-10.027,12.688-10.027,25.377c0,12.69,10.027,12.69,10.027,25.38
							c0,12.688-10.027,12.688-10.027,25.377c0,12.689,10.027,12.689,10.027,25.378s-10.027,12.688-10.027,25.378
							c0,12.69,10.027,12.69,10.027,25.379s-10.027,12.688-10.027,25.377c0,12.691,10.027,12.691,10.027,25.38
							c0,12.69-10.027,12.69-10.027,25.38c0,12.69,10.027,12.69,10.027,25.38c0,12.69-10.027,12.69-10.027,25.382
							c0,12.688,10.027,12.688,10.027,25.38c0,12.688-10.027,12.688-10.027,25.378c0,12.69,10.027,12.69,10.027,25.382
							c0,12.688-10.027,12.688-10.027,25.38s10.027,12.691,10.027,25.383s-10.027,12.691-10.027,25.382"/>
					</g>
					<g opacity="0.8667">
						<path fill="none" stroke="#4B987E" stroke-width="4" stroke-miterlimit="10" d="M316.547-63.791
							c0,12.688-10.026,12.688-10.026,25.377s10.026,12.688,10.026,25.379c0,12.688-10.026,12.688-10.026,25.377
							c0,12.688,10.026,12.688,10.026,25.379c0,12.688-10.026,12.688-10.026,25.377c0,12.689,10.026,12.689,10.026,25.378
							c0,12.69-10.026,12.69-10.026,25.38c0,12.688,10.026,12.688,10.026,25.377s-10.026,12.688-10.026,25.379
							c0,12.688,10.026,12.688,10.026,25.375c0,12.688-10.026,12.688-10.026,25.377c0,12.689,10.026,12.689,10.026,25.379
							c0,12.688-10.026,12.688-10.026,25.377c0,12.69,10.026,12.69,10.026,25.379c0,12.69-10.026,12.69-10.026,25.379
							s10.026,12.688,10.026,25.378c0,12.69-10.026,12.69-10.026,25.379c0,12.689,10.026,12.689,10.026,25.38
							c0,12.689-10.026,12.689-10.026,25.38c0,12.689,10.026,12.689,10.026,25.38c0,12.691-10.026,12.691-10.026,25.379
							c0,12.691,10.026,12.691,10.026,25.38c0,12.691-10.026,12.691-10.026,25.38c0,12.691,10.026,12.691,10.026,25.381
							c0,12.69-10.026,12.69-10.026,25.379c0,12.692,10.026,12.692,10.026,25.384c0,12.693-10.026,12.693-10.026,25.385"/>
					</g>
					<g opacity="0.8762">
						<path fill="none" stroke="#4B987E" stroke-width="4" stroke-miterlimit="10" d="M373.131-59.729
							c0,12.688-10.027,12.688-10.027,25.377c0,12.689,10.027,12.689,10.027,25.378s-10.027,12.688-10.027,25.377
							c0,12.69,10.027,12.69,10.027,25.38c0,12.688-10.027,12.688-10.027,25.377c0,12.689,10.027,12.689,10.027,25.379
							c0,12.688-10.027,12.688-10.027,25.377c0,12.69,10.027,12.69,10.027,25.38c0,12.688-10.027,12.688-10.027,25.377
							s10.027,12.688,10.027,25.377s-10.027,12.688-10.027,25.377c0,12.69,10.027,12.69,10.027,25.38
							c0,12.688-10.027,12.688-10.027,25.378c0,12.688,10.027,12.688,10.027,25.38c0,12.686-10.027,12.686-10.027,25.376
							c0,12.688,10.027,12.688,10.027,25.377s-10.027,12.688-10.027,25.378c0,12.69,10.027,12.69,10.027,25.38
							c0,12.69-10.027,12.69-10.027,25.382c0,12.688,10.027,12.688,10.027,25.38c0,12.688-10.027,12.688-10.027,25.38
							c0,12.688,10.027,12.688,10.027,25.38c0,12.688-10.027,12.688-10.027,25.378c0,12.69,10.027,12.69,10.027,25.382
							c0,12.688-10.027,12.688-10.027,25.379c0,12.691,10.027,12.691,10.027,25.383s-10.027,12.692-10.027,25.384"/>
					</g>
					<g opacity="0.8857">
						<path fill="none" stroke="#4B987E" stroke-width="4" stroke-miterlimit="10" d="M429.716-55.667
							c0,12.688-10.027,12.688-10.027,25.377s10.027,12.688,10.027,25.377c0,12.69-10.027,12.69-10.027,25.379
							c0,12.689,10.027,12.689,10.027,25.378c0,12.691-10.027,12.691-10.027,25.38s10.027,12.688,10.027,25.379
							c0,12.688-10.027,12.688-10.027,25.378c0,12.688,10.027,12.688,10.027,25.377c0,12.69-10.027,12.69-10.027,25.379
							c0,12.688,10.027,12.688,10.027,25.377c0,12.688-10.027,12.688-10.027,25.376c0,12.689,10.027,12.689,10.027,25.38
							c0,12.687-10.027,12.687-10.027,25.376s10.027,12.689,10.027,25.38c0,12.688-10.027,12.688-10.027,25.377
							s10.027,12.688,10.027,25.377c0,12.689-10.027,12.689-10.027,25.38c0,12.688,10.027,12.688,10.027,25.38
							c0,12.688-10.027,12.688-10.027,25.379c0,12.689,10.027,12.689,10.027,25.38c0,12.689-10.027,12.689-10.027,25.38
							c0,12.689,10.027,12.689,10.027,25.38c0,12.689-10.027,12.689-10.027,25.38c0,12.689,10.027,12.689,10.027,25.38
							c0,12.691-10.027,12.691-10.027,25.381c0,12.691,10.027,12.691,10.027,25.383s-10.027,12.691-10.027,25.383"/>
					</g>
					<g opacity="0.8952">
						<path fill="none" stroke="#4B987E" stroke-width="4" stroke-miterlimit="10" d="M486.301-51.605
							c0,12.69-10.027,12.69-10.027,25.379s10.027,12.688,10.027,25.378c0,12.688-10.027,12.688-10.027,25.376
							c0,12.69,10.027,12.69,10.027,25.38c0,12.688-10.027,12.688-10.027,25.377c0,12.69,10.027,12.69,10.027,25.38
							c0,12.688-10.027,12.688-10.027,25.377c0,12.69,10.027,12.69,10.027,25.379c0,12.689-10.027,12.689-10.027,25.378
							s10.027,12.688,10.027,25.377s-10.027,12.688-10.027,25.377c0,12.69,10.027,12.69,10.027,25.379
							c0,12.688-10.027,12.688-10.027,25.378c0,12.688,10.027,12.688,10.027,25.378c0,12.688-10.027,12.688-10.027,25.377
							c0,12.69,10.027,12.69,10.027,25.379s-10.027,12.688-10.027,25.378c0,12.69,10.027,12.69,10.027,25.38
							c0,12.691-10.027,12.691-10.027,25.382c0,12.688,10.027,12.688,10.027,25.378c0,12.691-10.027,12.691-10.027,25.381
							c0,12.688,10.027,12.688,10.027,25.377c0,12.691-10.027,12.691-10.027,25.382c0,12.688,10.027,12.688,10.027,25.378
							c0,12.691-10.027,12.691-10.027,25.382c0,12.691,10.027,12.691,10.027,25.383s-10.027,12.691-10.027,25.384"/>
					</g>
					<g opacity="0.9048">
						<path fill="none" stroke="#4B987E" stroke-width="4" stroke-miterlimit="10" d="M542.884-47.543
							c0,12.689-10.027,12.689-10.027,25.378s10.027,12.688,10.027,25.377c0,12.69-10.027,12.69-10.027,25.379
							c0,12.689,10.027,12.689,10.027,25.38c0,12.688-10.027,12.688-10.027,25.377c0,12.689,10.027,12.689,10.027,25.377
							c0,12.688-10.027,12.688-10.027,25.379c0,12.689,10.027,12.689,10.027,25.378s-10.027,12.688-10.027,25.379
							c0,12.688,10.027,12.688,10.027,25.375c0,12.688-10.027,12.688-10.027,25.377c0,12.691,10.027,12.691,10.027,25.38
							c0,12.69-10.027,12.69-10.027,25.378c0,12.689,10.027,12.689,10.027,25.38c0,12.687-10.027,12.687-10.027,25.376
							c0,12.688,10.027,12.688,10.027,25.376s-10.027,12.688-10.027,25.378c0,12.69,10.027,12.69,10.027,25.382
							c0,12.688-10.027,12.688-10.027,25.38c0,12.689,10.027,12.689,10.027,25.38c0,12.689-10.027,12.689-10.027,25.38
							c0,12.689,10.027,12.689,10.027,25.38c0,12.688-10.027,12.688-10.027,25.378c0,12.69,10.027,12.69,10.027,25.382
							c0,12.689-10.027,12.689-10.027,25.38s10.027,12.69,10.027,25.382c0,12.692-10.027,12.692-10.027,25.384"/>
					</g>
					<g opacity="0.9143">
						<path fill="none" stroke="#4B987E" stroke-width="4" stroke-miterlimit="10" d="M599.468-43.481
							c0,12.688-10.026,12.688-10.026,25.379c0,12.688,10.026,12.688,10.026,25.377c0,12.689-10.026,12.689-10.026,25.378
							s10.026,12.688,10.026,25.379c0,12.689-10.026,12.689-10.026,25.378s10.026,12.688,10.026,25.379
							c0,12.689-10.026,12.689-10.026,25.378c0,12.69,10.026,12.69,10.026,25.38c0,12.688-10.026,12.688-10.026,25.378
							c0,12.686,10.026,12.686,10.026,25.375s-10.026,12.688-10.026,25.377s10.026,12.688,10.026,25.379
							c0,12.688-10.026,12.688-10.026,25.377c0,12.69,10.026,12.69,10.026,25.379s-10.026,12.688-10.026,25.377
							c0,12.689,10.026,12.689,10.026,25.38c0,12.688-10.026,12.688-10.026,25.377c0,12.691,10.026,12.691,10.026,25.38
							c0,12.691-10.026,12.691-10.026,25.38c0,12.69,10.026,12.69,10.026,25.38c0,12.69-10.026,12.69-10.026,25.38
							c0,12.69,10.026,12.69,10.026,25.38c0,12.69-10.026,12.69-10.026,25.38c0,12.69,10.026,12.69,10.026,25.382
							c0,12.688-10.026,12.688-10.026,25.38s10.026,12.691,10.026,25.383s-10.026,12.691-10.026,25.383"/>
					</g>
					<g opacity="0.9238">
						<path fill="none" stroke="#4B987E" stroke-width="4" stroke-miterlimit="10" d="M656.053-39.417
							c0,12.688-10.027,12.688-10.027,25.377s10.027,12.688,10.027,25.379c0,12.688-10.027,12.688-10.027,25.377
							s10.027,12.688,10.027,25.379c0,12.688-10.027,12.688-10.027,25.378c0,12.688,10.027,12.688,10.027,25.379
							c0,12.689-10.027,12.689-10.027,25.378s10.027,12.688,10.027,25.379c0,12.689-10.027,12.689-10.027,25.378
							s10.027,12.688,10.027,25.377c0,12.688-10.027,12.688-10.027,25.377c0,12.688,10.027,12.688,10.027,25.379
							c0,12.688-10.027,12.688-10.027,25.376c0,12.69,10.027,12.69,10.027,25.379s-10.027,12.688-10.027,25.377
							c0,12.689,10.027,12.689,10.027,25.38c0,12.688-10.027,12.688-10.027,25.377c0,12.691,10.027,12.691,10.027,25.38
							c0,12.691-10.027,12.691-10.027,25.38c0,12.691,10.027,12.691,10.027,25.38c0,12.691-10.027,12.691-10.027,25.381
							c0,12.69,10.027,12.69,10.027,25.378c0,12.689-10.027,12.689-10.027,25.38c0,12.691,10.027,12.691,10.027,25.38
							c0,12.689-10.027,12.689-10.027,25.381s10.027,12.691,10.027,25.383s-10.027,12.691-10.027,25.385"/>
					</g>
					<g opacity="0.9333">
						<path fill="none" stroke="#4B987E" stroke-width="4" stroke-miterlimit="10" d="M712.638-35.356
							c0,12.69-10.027,12.69-10.027,25.379S712.638,2.711,712.638,15.4c0,12.688-10.027,12.688-10.027,25.377
							c0,12.69,10.027,12.69,10.027,25.38c0,12.688-10.027,12.688-10.027,25.377c0,12.69,10.027,12.69,10.027,25.38
							c0,12.688-10.027,12.688-10.027,25.376c0,12.69,10.027,12.69,10.027,25.379c0,12.689-10.027,12.689-10.027,25.378
							s10.027,12.688,10.027,25.377s-10.027,12.688-10.027,25.377c0,12.69,10.027,12.69,10.027,25.381
							c0,12.688-10.027,12.688-10.027,25.377s10.027,12.688,10.027,25.377c0,12.689-10.027,12.689-10.027,25.378
							c0,12.69,10.027,12.69,10.027,25.378c0,12.688-10.027,12.688-10.027,25.378c0,12.69,10.027,12.69,10.027,25.38
							c0,12.69-10.027,12.69-10.027,25.38c0,12.69,10.027,12.69,10.027,25.38c0,12.69-10.027,12.69-10.027,25.38
							c0,12.69,10.027,12.69,10.027,25.38c0,12.69-10.027,12.69-10.027,25.379c0,12.691,10.027,12.691,10.027,25.381
							c0,12.69-10.027,12.69-10.027,25.38c0,12.691,10.027,12.691,10.027,25.384c0,12.691-10.027,12.691-10.027,25.383"/>
					</g>
					<g opacity="0.9429">
						<path fill="none" stroke="#4B987E" stroke-width="4" stroke-miterlimit="10" d="M769.223-31.293
							c0,12.688-10.027,12.688-10.027,25.377c0,12.688,10.027,12.688,10.027,25.377s-10.027,12.688-10.027,25.379
							c0,12.689,10.027,12.689,10.027,25.378c0,12.69-10.027,12.69-10.027,25.379c0,12.689,10.027,12.689,10.027,25.378
							c0,12.69-10.027,12.69-10.027,25.379c0,12.689,10.027,12.689,10.027,25.378s-10.027,12.688-10.027,25.379
							c0,12.688,10.027,12.688,10.027,25.376c0,12.687-10.027,12.687-10.027,25.375c0,12.69,10.027,12.69,10.027,25.381
							c0,12.688-10.027,12.688-10.027,25.377s10.027,12.688,10.027,25.378c0,12.688-10.027,12.688-10.027,25.379
							c0,12.688,10.027,12.688,10.027,25.377s-10.027,12.688-10.027,25.378c0,12.69,10.027,12.69,10.027,25.382
							c0,12.688-10.027,12.688-10.027,25.379c0,12.689,10.027,12.689,10.027,25.38c0,12.689-10.027,12.689-10.027,25.38
							c0,12.689,10.027,12.689,10.027,25.38c0,12.688-10.027,12.688-10.027,25.38c0,12.689,10.027,12.689,10.027,25.38
							c0,12.689-10.027,12.689-10.027,25.38c0,12.691,10.027,12.691,10.027,25.383c0,12.694-10.027,12.694-10.027,25.386"/>
					</g>
					<g opacity="0.9524">
						<path fill="none" stroke="#4B987E" stroke-width="4" stroke-miterlimit="10" d="M825.805-27.231
							c0,12.688-10.027,12.688-10.027,25.379c0,12.689,10.027,12.689,10.027,25.378s-10.027,12.688-10.027,25.377
							c0,12.69,10.027,12.69,10.027,25.379s-10.027,12.688-10.027,25.377c0,12.69,10.027,12.69,10.027,25.38
							c0,12.688-10.027,12.688-10.027,25.377c0,12.69,10.027,12.69,10.027,25.379c0,12.689-10.027,12.689-10.027,25.378
							s10.027,12.688,10.027,25.377c0,12.688-10.027,12.688-10.027,25.377c0,12.688,10.027,12.688,10.027,25.379
							c0,12.688-10.027,12.688-10.027,25.376c0,12.69,10.027,12.69,10.027,25.379s-10.027,12.688-10.027,25.377
							c0,12.689,10.027,12.689,10.027,25.378c0,12.69-10.027,12.69-10.027,25.379c0,12.689,10.027,12.689,10.027,25.38
							c0,12.689-10.027,12.689-10.027,25.381c0,12.69,10.027,12.69,10.027,25.379c0,12.691-10.027,12.691-10.027,25.381
							c0,12.69,10.027,12.69,10.027,25.379c0,12.69-10.027,12.69-10.027,25.379c0,12.69,10.027,12.69,10.027,25.382
							c0,12.688-10.027,12.688-10.027,25.378c0,12.693,10.027,12.693,10.027,25.385S815.778,645.309,815.778,658"/>
					</g>
					<g opacity="0.9619">
						<path fill="none" stroke="#4B987E" stroke-width="4" stroke-miterlimit="10" d="M882.389-23.169
							c0,12.688-10.026,12.688-10.026,25.378c0,12.688,10.026,12.688,10.026,25.377s-10.026,12.688-10.026,25.379
							c0,12.689,10.026,12.689,10.026,25.378s-10.026,12.688-10.026,25.379c0,12.688,10.026,12.688,10.026,25.378
							c0,12.688-10.026,12.688-10.026,25.378s10.026,12.689,10.026,25.378s-10.026,12.688-10.026,25.379
							c0,12.688,10.026,12.688,10.026,25.375c0,12.688-10.026,12.688-10.026,25.377c0,12.69,10.026,12.69,10.026,25.381
							c0,12.688-10.026,12.688-10.026,25.377s10.026,12.688,10.026,25.378c0,12.69-10.026,12.69-10.026,25.377
							c0,12.69,10.026,12.69,10.026,25.378c0,12.689-10.026,12.689-10.026,25.38c0,12.688,10.026,12.688,10.026,25.38
							c0,12.689-10.026,12.689-10.026,25.38c0,12.689,10.026,12.689,10.026,25.38c0,12.689-10.026,12.689-10.026,25.38
							c0,12.689,10.026,12.689,10.026,25.38c0,12.689-10.026,12.689-10.026,25.38c0,12.689,10.026,12.689,10.026,25.38
							c0,12.689-10.026,12.689-10.026,25.38c0,12.691,10.026,12.691,10.026,25.383s-10.026,12.691-10.026,25.383"/>
					</g>
					<g opacity="0.9714">
						<path fill="none" stroke="#4B987E" stroke-width="4" stroke-miterlimit="10" d="M938.974-19.106
							c0,12.688-10.027,12.688-10.027,25.376c0,12.69,10.027,12.69,10.027,25.379s-10.027,12.688-10.027,25.378
							c0,12.688,10.027,12.688,10.027,25.379c0,12.689-10.027,12.689-10.027,25.378c0,12.69,10.027,12.69,10.027,25.38
							c0,12.688-10.027,12.688-10.027,25.379c0,12.689,10.027,12.689,10.027,25.377c0,12.689-10.027,12.689-10.027,25.378
							s10.027,12.688,10.027,25.376c0,12.688-10.027,12.688-10.027,25.377c0,12.689,10.027,12.689,10.027,25.381
							c0,12.687-10.027,12.687-10.027,25.377c0,12.688,10.027,12.688,10.027,25.377s-10.027,12.688-10.027,25.378
							c0,12.688,10.027,12.688,10.027,25.379c0,12.688-10.027,12.688-10.027,25.377c0,12.691,10.027,12.691,10.027,25.38
							c0,12.691-10.027,12.691-10.027,25.38c0,12.69,10.027,12.69,10.027,25.379c0,12.691-10.027,12.691-10.027,25.381
							c0,12.69,10.027,12.69,10.027,25.379c0,12.689-10.027,12.689-10.027,25.38c0,12.689,10.027,12.689,10.027,25.38
							c0,12.691-10.027,12.691-10.027,25.38c0,12.692,10.027,12.692,10.027,25.386c0,12.691-10.027,12.691-10.027,25.383"/>
					</g>
				</g>
			</g>
		</g>
	</g>
	<g>
		<path fill="#F4E8D1" d="M303.568,370.921l-4.527-11.813H281.1l-4.582,11.813h-2.208l15.733-40.685l15.788,40.685H303.568z
			 M290.043,335.977l-8.06,20.867h16.12L290.043,335.977z"/>
		<path fill="#F4E8D1" d="M327.802,348.453c-2.062,1.84-4.601,2.76-7.618,2.76h-7.397v19.708h-2.208v-39.416h9.605
			c3.017,0,5.556,0.883,7.618,2.65c2.061,1.767,3.092,4.14,3.092,7.121C330.894,344.294,329.863,346.687,327.802,348.453z
			 M326.091,335.646c-1.51-1.25-3.497-1.877-5.962-1.877h-7.342v15.181h7.342c2.429,0,4.452-0.662,6.072-1.987
			c1.619-1.398,2.429-3.293,2.429-5.686C328.631,338.885,327.784,337.008,326.091,335.646z"/>
		<path fill="#F4E8D1" d="M354.853,348.453c-2.062,1.84-4.601,2.76-7.618,2.76h-7.397v19.708h-2.208v-39.416h9.605
			c3.017,0,5.557,0.883,7.618,2.65c2.061,1.767,3.091,4.14,3.091,7.121C357.943,344.294,356.913,346.687,354.853,348.453z
			 M353.141,335.646c-1.51-1.25-3.497-1.877-5.962-1.877h-7.342v15.181h7.342c2.429,0,4.452-0.662,6.072-1.987
			c1.619-1.398,2.429-3.293,2.429-5.686C355.681,338.885,354.833,337.008,353.141,335.646z"/>
		<path fill="#F4E8D1" d="M380.853,370.921h-2.264l11.593-40.244h2.153L380.853,370.921z"/>
		<path fill="#F4E8D1" d="M444.225,371.473l-9.827-33.067l-9.881,33.067l-12.642-39.968h2.208l10.323,32.239l9.992-32.957
			l9.937,32.957l10.323-32.239h2.319L444.225,371.473z"/>
		<path fill="#F4E8D1" d="M463.656,370.921v-39.416h18.935v2.263h-16.672v14.353h16.672v2.429h-16.672v18.107h16.672v2.263H463.656z
			"/>
		<path fill="#F4E8D1" d="M509.751,367.719c-2.393,2.135-5.318,3.202-8.777,3.202h-12.311v-39.416h9.605
			c3.055,0,5.483,0.792,7.287,2.374c1.913,1.693,2.871,4.049,2.871,7.066c0,3.459-1.417,5.999-4.251,7.618
			c2.76,0.552,4.987,1.804,6.68,3.754c1.656,1.951,2.484,4.343,2.484,7.176C513.34,362.88,512.144,365.622,509.751,367.719z
			 M503.955,335.756c-1.509-1.325-3.349-1.988-5.521-1.988h-7.563v14.353h7.894c2.134,0,3.9-0.662,5.299-1.987
			c1.398-1.325,2.098-3.054,2.098-5.189C506.164,338.737,505.427,337.008,503.955,335.756z M508.096,352.814
			c-1.877-1.619-4.233-2.429-7.066-2.429h-10.157v18.272h10.157c2.796,0,5.17-0.846,7.122-2.54c1.987-1.692,2.981-3.9,2.981-6.625
			C511.132,356.733,510.119,354.507,508.096,352.814z"/>
		<path fill="#F4E8D1" d="M562.47,364.959c-3.312,3.975-7.637,5.962-12.973,5.962h-13.139v-39.416h13.139
			c5.299,0,9.605,1.987,12.917,5.962c3.128,3.718,4.692,8.281,4.692,13.69C567.107,356.605,565.562,361.205,562.47,364.959z
			 M560.814,339.013c-2.871-3.533-6.644-5.3-11.317-5.3h-10.93v34.944h10.93c4.048,0,7.563-1.509,10.544-4.527
			c3.202-3.238,4.803-7.563,4.803-12.973C564.844,346.337,563.5,342.289,560.814,339.013z"/>
		<path fill="#F4E8D1" d="M575.607,359.052c0,3.091,0.828,5.539,2.484,7.342c1.729,1.841,4.103,2.76,7.121,2.76
			c1.546,0,2.944-0.257,4.196-0.773c1.582-0.662,2.999-2.005,4.25-4.03l2.042,0.938c-1.435,2.724-3.644,4.564-6.625,5.521
			c-1.141,0.367-2.429,0.552-3.864,0.552c-3.422,0-6.238-1.122-8.446-3.367c-2.245-2.245-3.367-5.06-3.367-8.446
			c0-3.422,1.104-6.238,3.312-8.446c2.245-2.244,5.079-3.367,8.501-3.367c3.386,0,6.183,1.049,8.391,3.146
			c2.244,2.098,3.367,4.822,3.367,8.17H575.607z M591.175,351.82c-1.73-1.25-3.717-1.877-5.962-1.877
			c-4.711,0-7.803,2.319-9.274,6.956h18.493C594.063,354.801,592.978,353.109,591.175,351.82z"/>
		<path fill="#F4E8D1" d="M614.802,369.486c-1.472,1.251-3.239,1.876-5.299,1.876c-3.533,0-6.183-1.601-7.949-4.803l1.932-1.159
			c0.625,1.141,1.38,2.024,2.263,2.65c0.919,0.7,2.171,1.049,3.754,1.049c3.459,0,5.189-1.472,5.189-4.416
			c0-1.288-0.607-2.41-1.822-3.368c-0.368-0.221-0.893-0.469-1.573-0.745c-0.681-0.276-1.518-0.598-2.512-0.966
			c-1.841-0.662-3.166-1.325-3.975-1.987c-1.178-0.957-1.767-2.336-1.767-4.14c0-1.546,0.588-2.871,1.767-3.975
			c1.14-1.141,2.631-1.711,4.472-1.711c2.539,0,4.692,0.883,6.458,2.65l-1.656,1.435c-1.252-1.25-2.853-1.877-4.803-1.877
			c-2.65,0-3.975,1.159-3.975,3.478c0,1.031,0.404,1.877,1.214,2.54c0.663,0.516,1.711,1.012,3.146,1.49
			c1.251,0.442,2.282,0.855,3.091,1.242c0.809,0.386,1.417,0.727,1.822,1.021c1.582,1.215,2.374,2.853,2.374,4.914
			C616.955,366.67,616.237,368.271,614.802,369.486z"/>
		<path fill="#F4E8D1" d="M624.793,344.037c-0.405,0-0.828-0.166-1.27-0.497c-0.331-0.332-0.516-0.773-0.552-1.325
			c0-0.994,0.607-1.601,1.822-1.822c0.919,0,1.527,0.607,1.822,1.822C626.615,343.429,626.008,344.037,624.793,344.037z
			 M623.634,370.921v-22.799h2.264v22.799H623.634z"/>
		<path fill="#F4E8D1" d="M653.112,378.539c-2.062,2.061-4.767,3.091-8.115,3.091c-6.22,0-9.937-2.448-11.151-7.342h2.263
			c0.405,1.803,1.564,3.147,3.478,4.03c1.508,0.699,3.312,1.049,5.41,1.049c2.833,0,5.024-0.792,6.569-2.374
			c1.582-1.583,2.374-3.791,2.374-6.625v-3.367c-2.393,2.871-5.429,4.306-9.109,4.306c-3.312,0-6.091-1.122-8.335-3.367
			c-2.283-2.282-3.423-5.079-3.423-8.391c0-3.312,1.122-6.09,3.367-8.335c2.282-2.282,5.079-3.423,8.391-3.423
			c3.644,0,6.68,1.435,9.109,4.306v-3.975h2.263v22.302C656.204,373.772,655.173,376.478,653.112,378.539z M651.566,352.814
			c-1.877-1.877-4.122-2.815-6.735-2.815c-2.65,0-4.895,0.92-6.735,2.76c-1.877,1.877-2.815,4.14-2.815,6.79
			c0,2.614,0.938,4.858,2.815,6.735s4.122,2.815,6.735,2.815c2.65,0,4.894-0.919,6.735-2.76c1.877-1.877,2.815-4.14,2.815-6.79
			C654.382,356.936,653.443,354.691,651.566,352.814z"/>
		<path fill="#F4E8D1" d="M679.665,370.921v-13.635c0-4.821-2.172-7.232-6.514-7.232c-2.135,0-3.754,0.626-4.858,1.877
			c-1.141,1.252-1.711,2.963-1.711,5.134v13.856h-2.263v-22.799h2.263v2.76c1.03-2.023,3.22-3.036,6.569-3.036
			c2.833,0,5.004,0.81,6.514,2.429c1.508,1.62,2.263,3.883,2.263,6.79v13.856H679.665z"/>
	</g>
	<g>
		<g>
			<g>
				<defs>
					<path id="SVGID_199_" d="M513.09,279.032c-4.278,0-7.742-3.458-7.742-7.71v-38.358c0-4.269,3.464-7.744,7.716-7.727h21.188
						v-39.868H417.739v111.298h110.074v-17.635H513.09z"/>
				</defs>
				<clipPath id="SVGID_31_">
					<use xlink:href="#SVGID_199_"  overflow="visible"/>
				</clipPath>
				<g clip-path="url(#SVGID_31_)">
					<g>
						<g>
							<path fill="#F4E8D1" d="M440.64,270.54h75.963c8.451,0,15.307-6.873,15.307-15.342v-49.702
								c0-8.438-6.855-15.325-15.307-15.325H440.64c-8.448,0-15.308,6.854-15.308,15.325v49.734
								C425.303,263.667,432.192,270.54,440.64,270.54L440.64,270.54z M430.955,205.496c0-5.336,4.347-9.68,9.686-9.68h75.963
								c5.335,0,9.683,4.344,9.683,9.68v49.734c0,5.343-4.348,9.688-9.683,9.688H440.64c-5.339,0-9.686-4.346-9.686-9.688V205.496z
								 M430.955,205.496"/>
							<path fill="#F4E8D1" d="M516.603,270.904H440.64c-4.196,0-8.149-1.641-11.117-4.626c-2.952-2.959-4.567-6.878-4.553-11.048
								v-49.734c0-8.653,7.036-15.69,15.67-15.69h75.963c8.643,0,15.668,7.037,15.668,15.69v49.702
								C532.271,263.86,525.246,270.904,516.603,270.904z M440.64,190.541c-8.238,0-14.938,6.702-14.938,14.955v49.734
								c-0.007,3.969,1.53,7.704,4.34,10.53c2.833,2.845,6.596,4.41,10.598,4.41h75.963c8.243,0,14.939-6.72,14.939-14.973v-49.702
								c0-8.253-6.697-14.955-14.939-14.955H440.64z M516.603,265.287H440.64c-5.539,0-10.054-4.512-10.054-10.057v-49.734
								c0-5.536,4.515-10.047,10.054-10.047h75.963c5.546,0,10.051,4.511,10.051,10.047v49.734
								C526.654,260.775,522.149,265.287,516.603,265.287z M440.64,196.185c-5.139,0-9.321,4.176-9.321,9.312v49.734
								c0,5.137,4.183,9.321,9.321,9.321h75.963c5.136,0,9.322-4.185,9.322-9.321v-49.734c0-5.136-4.186-9.312-9.322-9.312H440.64z"
								/>
						</g>
					</g>
					<rect x="474.169" y="269.07" fill="#F4E8D1" width="8.832" height="9.962"/>
					<path fill="#F4E8D1" d="M494.224,283.734h-31.198c-1.829,0-3.317-1.491-3.317-3.309c0-1.835,1.488-3.319,3.317-3.319h31.198
						c1.836,0,3.313,1.484,3.313,3.319C497.537,282.243,496.061,283.734,494.224,283.734z"/>
					<path fill="#F4E8D1" d="M526.84,258.132h-96.424c-1.826,0-3.313-1.481-3.313-3.316c0-1.817,1.487-3.311,3.313-3.311h96.424
						c1.836,0,3.313,1.493,3.313,3.311C530.153,256.65,528.677,258.132,526.84,258.132z"/>
				</g>
				<path clip-path="url(#SVGID_31_)" fill="#EBB024" d="M517.768,243.623v-32.229c0-4.062-3.292-7.35-7.339-7.35h-63.624
					c-4.038,0-7.326,3.288-7.326,7.35v32.229H517.768z"/>
			</g>
			<g>
				<g>
					<g>
						<g>
							<path fill="#F4E8D1" d="M503.769,232.964v38.358c0,4.252,3.464,7.71,7.738,7.71h21.545c4.252,0,7.736-3.458,7.736-7.71
								v-38.358c0-4.269-3.467-7.727-7.736-7.727h-21.558C507.233,225.22,503.769,228.695,503.769,232.964L503.769,232.964z
								 M533.053,228.072c2.683,0,4.876,2.199,4.876,4.892v38.358c0,2.691-2.193,4.884-4.876,4.884h-21.558
								c-2.699,0-4.887-2.192-4.887-4.884v-38.358c0-2.692,2.188-4.892,4.887-4.892H533.053z M533.053,228.072"/>
							<path fill="#F4E8D1" d="M533.053,280.509h-21.545c-5.079,0-9.213-4.126-9.213-9.187v-38.358c0-5.068,4.118-9.203,9.177-9.203
								h21.581c5.077,0,9.21,4.135,9.21,9.203v38.358C542.263,276.383,538.129,280.509,533.053,280.509z M511.495,229.545
								c-1.885,0-3.416,1.528-3.416,3.419v38.358c0,1.885,1.531,3.409,3.416,3.409h21.558c1.879,0,3.405-1.524,3.405-3.409v-38.358
								c0-1.891-1.526-3.419-3.405-3.419H511.495z"/>
						</g>
					</g>
					<g>
						<path fill="#F4E8D1" d="M537.334,269.829h-29.047c-1.419,0-2.572-1.158-2.572-2.575c0-1.426,1.153-2.576,2.572-2.576h29.047
							c1.421,0,2.578,1.15,2.578,2.576C539.912,268.671,538.755,269.829,537.334,269.829z"/>
					</g>
				</g>
				<g>
					<rect x="513.698" y="243.201" fill="#EBB024" width="16.973" height="15.894"/>
					<path fill="#EBB024" d="M530.671,251.292c0,0.992-0.8,1.794-1.788,1.794H515.48c-0.981,0-1.782-0.802-1.782-1.794V237.69
						c0-0.994,0.801-1.794,1.782-1.794h13.403c0.988,0,1.788,0.8,1.788,1.794V251.292z"/>
				</g>
			</g>
		</g>
	</g>
</g>
<g>
	<g>
		<g opacity="0.1">
			<defs>
				<rect id="SVGID_201_" x="1060.329" y="617.189" opacity="0.1" width="963.554" height="542"/>
			</defs>
			<clipPath id="SVGID_32_">
				<use xlink:href="#SVGID_201_"  overflow="visible"/>
			</clipPath>
			<g clip-path="url(#SVGID_32_)">
			</g>
		</g>
	</g>
</g>
</svg>
