<?xml version="1.0" encoding="utf-8"?>
<!-- Generator: Adobe Illustrator 16.0.0, SVG Export Plug-In . SVG Version: 6.00 Build 0)  -->
<!DOCTYPE svg PUBLIC "-//W3C//DTD SVG 1.1//EN" "http://www.w3.org/Graphics/SVG/1.1/DTD/svg11.dtd">
<svg version="1.1" id="圖層_1" xmlns="http://www.w3.org/2000/svg" xmlns:xlink="http://www.w3.org/1999/xlink" x="0px" y="0px"
	 width="150px" height="120px" viewBox="0 0 150 120" enable-background="new 0 0 150 120" xml:space="preserve">
<g>
	<g>
		
			<path fill="#EFB91B" stroke="#EFB91B" stroke-width="1.5" stroke-linecap="round" stroke-linejoin="round" stroke-miterlimit="10" d="
			M85.948,87.348H63.442c-2.016-0.008-2.768,6.083-3.158,8.254c-0.055,0.308-0.084,0.956-0.084,0.956h28.998
			C89.198,93.935,88.259,87.348,85.948,87.348z"/>
	</g>
	<g>
		
			<path fill="#EFB91B" stroke="#EFB91B" stroke-width="1.5" stroke-linecap="round" stroke-linejoin="round" stroke-miterlimit="10" d="
			M82.296,84.66H67.095c-1.363-0.006-1.869,4.11-2.133,5.575c-0.039,0.209-0.059,0.647-0.059,0.647h19.592
			C84.495,89.11,83.858,84.66,82.296,84.66z"/>
	</g>
	<g>
		<g>
			
				<path fill="#EFB91B" stroke="#EFB91B" stroke-width="1.5" stroke-linecap="round" stroke-linejoin="round" stroke-miterlimit="10" d="
				M98.722,48.711c-0.156-1.361,0.818-2.589,2.178-2.744c1.361-0.155,2.592,0.82,2.744,2.179c0.084,0.714,0.152,1.442,0.201,2.198
				c0.043,0.691,0.068,1.438,0.068,2.234h0.006v0.007h-0.006c-0.002,8.396-3.332,15.013-8.717,19.535
				c-5.287,4.448-12.531,6.82-20.486,6.82v0.009H74.7h-0.004V78.94c-7.959,0-15.205-2.372-20.496-6.82
				c-5.381-4.522-8.713-11.139-8.713-19.535h-0.008v-0.007v-0.003h0.008c0-7.997,3.115-19.036,8.145-28.041
				c5.236-9.379,12.641-16.696,21.064-16.696V7.827H74.7h0.004v0.011c2.342,0,4.609,0.563,6.771,1.577
				c1.375,0.646,2.699,1.47,3.957,2.432c6.223,4.755,11.383,13.305,14.643,22.056c0.475,1.281-0.176,2.702-1.453,3.18
				c-1.283,0.479-2.703-0.177-3.182-1.45c-2.971-7.979-7.57-15.69-13.01-19.848c-1.01-0.771-2.029-1.412-3.051-1.891
				c-1.525-0.714-3.09-1.113-4.676-1.113v0.009H74.7h-0.004V12.78c-6.34,0.003-12.299,6.208-16.742,14.152
				c-4.646,8.323-7.523,18.416-7.523,25.643h0.01v0.003v0.007h-0.01c0,6.816,2.658,12.146,6.949,15.76
				c4.389,3.688,10.512,5.652,17.316,5.652v-0.008H74.7h0.01v0.008c6.801,0,12.92-1.965,17.307-5.652
				c4.293-3.613,6.953-8.943,6.953-15.76h-0.012v-0.007h0.012c0-0.59-0.025-1.232-0.068-1.924
				C98.858,50.025,98.8,49.375,98.722,48.711z"/>
			
				<path fill="#EFB91B" stroke="#EFB91B" stroke-width="1.5" stroke-linecap="round" stroke-linejoin="round" stroke-miterlimit="10" d="
				M68.224,41.188c1.213-0.623,2.707-0.148,3.334,1.064c0.627,1.216,0.148,2.713-1.064,3.339c-2.002,1.025-3.541,1.781-4.918,2.29
				l-0.004,0.004l0.004,0.005c-1.539,0.57-2.85,0.824-4.232,0.781c-1.979-0.064-3.609-0.781-5.229-1.489
				c-1.396-0.611-2.781-1.219-3.906-1.003h-0.004v0.004c-0.115,0.021-0.215,0.053-0.299,0.084c-0.096,0.036-0.174,0.071-0.236,0.114
				l0.004,0.01c-0.498,0.328-0.863,1.066-0.988,2.288c-0.139,1.359-1.355,2.35-2.711,2.208c-1.359-0.136-2.352-1.354-2.211-2.711
				c0.291-2.85,1.473-4.791,3.174-5.914l0.004,0.002l0.006-0.002c0.365-0.243,0.738-0.438,1.117-0.59
				c0.395-0.158,0.793-0.275,1.191-0.354l0,0l0.025-0.004c2.619-0.509,4.709,0.407,6.813,1.334c1.189,0.521,2.387,1.045,3.406,1.082
				c0.672,0.017,1.402-0.137,2.352-0.489l0.004,0.006C64.966,42.835,66.364,42.148,68.224,41.188z"/>
			
				<path fill="#EFB91B" stroke="#EFB91B" stroke-width="1.5" stroke-linecap="round" stroke-linejoin="round" stroke-miterlimit="10" d="
				M57.892,42.558c1.246,0.562,1.803,2.024,1.24,3.272c-0.561,1.247-2.027,1.8-3.277,1.24c-2.865-1.297-4.979-2.92-6.152-5.185
				c-1.197-2.314-1.318-5.086-0.145-8.601c0.434-1.294,1.838-1.991,3.131-1.559c1.295,0.435,1.992,1.834,1.563,3.133
				c-0.713,2.127-0.721,3.651-0.15,4.761C54.7,40.769,56.019,41.706,57.892,42.558z"/>
			
				<path fill="#EFB91B" stroke="#EFB91B" stroke-width="1.5" stroke-linecap="round" stroke-linejoin="round" stroke-miterlimit="10" d="
				M78.913,45.592c-1.215-0.626-1.691-2.123-1.064-3.339c0.625-1.213,2.119-1.688,3.332-1.064c1.861,0.96,3.26,1.646,4.373,2.059
				l0.002-0.006c0.951,0.353,1.68,0.506,2.35,0.489c1.02-0.037,2.217-0.561,3.406-1.082c2.107-0.927,4.197-1.843,6.816-1.334
				l0.021,0.004l0,0c0.402,0.079,0.797,0.196,1.191,0.354c0.379,0.152,0.752,0.347,1.117,0.59l0.008,0.002l0.002-0.002
				c1.701,1.123,2.883,3.064,3.176,5.914c0.141,1.357-0.852,2.575-2.211,2.711c-1.357,0.142-2.574-0.849-2.711-2.208
				c-0.127-1.222-0.49-1.96-0.988-2.288l0.004-0.01c-0.063-0.043-0.143-0.078-0.236-0.117c-0.082-0.028-0.182-0.06-0.299-0.081
				V46.18h-0.006c-1.125-0.216-2.51,0.392-3.906,1.003c-1.617,0.708-3.246,1.425-5.227,1.487c-1.385,0.045-2.695-0.209-4.23-0.779
				l0.002-0.005l-0.002-0.004C82.454,47.373,80.913,46.622,78.913,45.592z"/>
		</g>
	</g>
	<line fill="none" stroke="#EFB91B" stroke-width="10" stroke-miterlimit="10" x1="74.64" y1="77.899" x2="74.64" y2="89.443"/>
	<g>
		
			<path fill="#F4E8D1" stroke="#F4E8D1" stroke-width="2" stroke-linecap="round" stroke-linejoin="round" stroke-miterlimit="10" d="
			M91.128,91.116H58.259c-3.02-0.015-4.559,11.967-5.145,16.229c-0.082,0.608-0.125,1.884-0.125,1.884h43.422
			C96.411,104.07,94.587,91.116,91.128,91.116z"/>
	</g>
	<path fill="#EFB91B" d="M110.64,24.797c-0.348,0-0.633-0.282-0.633-0.632c0-0.349-0.281-0.632-0.631-0.632
		c-0.348,0-0.633,0.283-0.633,0.632c0,0.35-0.285,0.632-0.633,0.632c-0.35,0-0.633,0.284-0.633,0.634
		c0,0.348,0.283,0.632,0.633,0.632c0.348,0,0.633,0.285,0.633,0.632c0,0.351,0.285,0.634,0.633,0.634
		c0.35,0,0.631-0.283,0.631-0.634c0-0.347,0.285-0.632,0.633-0.632c0.35,0,0.631-0.284,0.631-0.632
		C111.271,25.081,110.989,24.797,110.64,24.797L110.64,24.797z M110.64,24.797"/>
	<path fill="#EFB91B" d="M53.231,82.564c-1.367,0-2.48-1.114-2.48-2.48c0-0.351-0.283-0.635-0.633-0.635s-0.631,0.284-0.631,0.635
		c0,1.366-1.113,2.48-2.482,2.48c-0.35,0-0.633,0.282-0.633,0.634c0,0.348,0.283,0.63,0.633,0.63c1.369,0,2.482,1.114,2.482,2.481
		c0,0.351,0.281,0.634,0.631,0.634s0.633-0.283,0.633-0.634c0-1.367,1.113-2.481,2.48-2.481c0.348,0,0.633-0.282,0.633-0.63
		C53.864,82.847,53.579,82.564,53.231,82.564L53.231,82.564z M50.118,84.228c-0.273-0.406-0.623-0.759-1.033-1.029
		c0.41-0.275,0.76-0.628,1.033-1.034c0.275,0.406,0.625,0.759,1.033,1.034C50.743,83.469,50.394,83.821,50.118,84.228L50.118,84.228
		z M50.118,84.228"/>
	<path fill="#EFB91B" d="M105.618,18.235c-1.162,0-2.107-0.947-2.107-2.11c0-0.349-0.283-0.631-0.633-0.631
		c-0.348,0-0.631,0.282-0.631,0.631c0,1.163-0.947,2.11-2.109,2.11c-0.348,0-0.633,0.282-0.633,0.631
		c0,0.348,0.285,0.633,0.633,0.633c1.162,0,2.109,0.945,2.109,2.106c0,0.351,0.283,0.634,0.631,0.634
		c0.35,0,0.633-0.283,0.633-0.634c0-1.161,0.945-2.106,2.107-2.106c0.35,0,0.635-0.285,0.635-0.633
		C106.253,18.518,105.968,18.235,105.618,18.235L105.618,18.235z M102.878,19.644c-0.213-0.3-0.477-0.563-0.775-0.777
		c0.299-0.215,0.563-0.478,0.775-0.775c0.215,0.299,0.477,0.561,0.777,0.775C103.354,19.081,103.093,19.344,102.878,19.644
		L102.878,19.644z M102.878,19.644"/>
	<g>
		
			<line fill="none" stroke="#595757" stroke-width="4" stroke-linecap="round" stroke-linejoin="round" stroke-miterlimit="10" x1="62.673" y1="96.638" x2="62.673" y2="104.999"/>
		
			<circle fill="none" stroke="#595757" stroke-width="4" stroke-linecap="round" stroke-linejoin="round" stroke-miterlimit="10" cx="71.597" cy="100.819" r="4.248"/>
		
			<circle fill="none" stroke="#595757" stroke-width="4" stroke-linecap="round" stroke-linejoin="round" stroke-miterlimit="10" cx="84.495" cy="100.819" r="4.248"/>
	</g>
</g>
</svg>
