<?xml version="1.0" encoding="utf-8"?>
<!-- Generator: Adobe Illustrator 16.0.0, SVG Export Plug-In . SVG Version: 6.00 Build 0)  -->
<!DOCTYPE svg PUBLIC "-//W3C//DTD SVG 1.1//EN" "http://www.w3.org/Graphics/SVG/1.1/DTD/svg11.dtd">
<svg version="1.1" id="圖層_1" xmlns="http://www.w3.org/2000/svg" xmlns:xlink="http://www.w3.org/1999/xlink" x="0px" y="0px"
	 width="640px" height="1096px" viewBox="0 0 640 1096" enable-background="new 0 0 640 1096" xml:space="preserve">
<g>
	<defs>
		<rect id="SVGID_5_" x="-1601" y="-1" width="642" height="1098"/>
	</defs>
	<clipPath id="SVGID_2_">
		<use xlink:href="#SVGID_5_"  overflow="visible"/>
	</clipPath>
	<g clip-path="url(#SVGID_2_)">
		<rect x="-1880.775" y="-38.892" fill="#F7D793" width="2040.888" height="1148.927"/>
	</g>
</g>
<g>
	<defs>
		<rect id="SVGID_27_" x="-1" width="642" height="1098"/>
	</defs>
	<clipPath id="SVGID_4_">
		<use xlink:href="#SVGID_27_"  overflow="visible"/>
	</clipPath>
	<g id="圖層_1_10_" clip-path="url(#SVGID_4_)">
		<polygon fill="#D13C3D" points="-970.151,-6.156 650.395,-6.156 674.398,1115.521 -946.147,1115.521 		"/>
		<g>
			<g>
				<defs>
					<polygon id="SVGID_29_" points="-969.309,-7 651.238,-7 675.242,1114.679 -945.305,1114.679 					"/>
				</defs>
				<clipPath id="SVGID_6_">
					<use xlink:href="#SVGID_29_"  overflow="visible"/>
				</clipPath>
				<path opacity="0.2" clip-path="url(#SVGID_6_)" fill="#C12B35" enable-background="new    " d="M-311.17,286.63
					c-39.374,147.82-28.023,308.787,6.254,456.261c16.436,70.714,23.788,131.833,65.944,187.435
					c19.178,25.293,75.984,215.293,101.119,231.36c41.508,26.528,32.876,61.452,77.454,78.98
					c63.828,25.093,150.195-143.363,214.221-119.449c64.73,24.18,139.178,11.532,206.448,11.22
					c94.998-0.439,386.547-44.964,480.98-56.386c57.215-6.919,113.196-25.157,170.334-31.063c25.453-2.634,53.4,2.38,77.857-7.77
					c-0.66-39.243,0.217,109.277-15.595,70.958c-30.708-74.412-577.21-68.388-631.962-78.72
					c-111.343-21.015-278.224-110.348-360.354-211.807C7.592,726.309-10.031,461.087-23.479,340.602
					c-6.801-60.933-38.111-150.422-82.593-186.578C-310.165-11.868-297.206,234.206-311.17,286.63z"/>
				<path opacity="0.3" clip-path="url(#SVGID_6_)" fill="#C12B35" enable-background="new    " d="M500.03,1186.321
					c-96.23,63.929-215.809,86.082-331.878,85.475c-55.656-0.291-101.89,5.458-153.624-20.362
					c-23.532-11.745-50.397-24.275-68.879-43.075c-30.521-31.045-53.44-16.529-78.282-52.058
					c64.245,91.882,29.256-22.812-98.11-210.643c-35.153-51.842-46.303-119.531-64.425-178.477
					c-25.594-83.244-72.894-347.325-90.385-432.261c-10.601-51.463-12.671-104.104-23.979-155.294
					c-5.037-22.806-16.286-46.271-15.613-69.7c28.578-7.247,46.986,20.908,79.026,27.113
					c62.223,12.047,206.921,491.625,229.334,537.489c45.573,93.274,122.701,360.207,218.524,411.874
					c86.265,46.516,218.106,98.172,308.962,85.927c45.948-6.196,126.888-62.924,165.184-31.197
					C751.596,1286.718,534.159,1163.645,500.03,1186.321z"/>
			</g>
		</g>
		<g>
			<g>
				<g>
					<defs>
						<rect id="SVGID_31_" x="-12.497" y="0" width="653.498" height="434.08"/>
					</defs>
					<clipPath id="SVGID_8_">
						<use xlink:href="#SVGID_31_"  overflow="visible"/>
					</clipPath>
					<g opacity="0.5" clip-path="url(#SVGID_8_)">
						
							<linearGradient id="SVGID_10_" gradientUnits="userSpaceOnUse" x1="-117.1736" y1="13451.8594" x2="-228.7776" y2="13221.8193" gradientTransform="matrix(1 0 0 -1 544.29 13502.7461)">
							<stop  offset="0" style="stop-color:#B81C2C"/>
							<stop  offset="1" style="stop-color:#B81C2C;stop-opacity:0.1"/>
						</linearGradient>
						<path fill="url(#SVGID_10_)" d="M534.465,74.189c-7.662-0.438-14.586-2.29-22.086-3.555
							c-18.556-3.135-35.487,2.341-53.906,6.409c-43.792,9.665-77.028,28.551-110.642,58.036
							c-50.552,44.341-99.977,90.86-149.469,136.216c16.491-4.236,32.733-15.331,48.336-22.195
							c16.054-7.068,32.409-13.746,47.583-22.563c13.82-8.035,27.514-17.19,41.729-24.459
							c39.25-20.063,72.423-46.096,108.411-70.881c19.222-13.239,38.863-26.232,59.607-36.321
							c8.932-4.343,31.012-9.051,32.906-20.066L534.465,74.189z"/>
						
							<linearGradient id="SVGID_12_" gradientUnits="userSpaceOnUse" x1="-55.1362" y1="13397.8311" x2="-121.1878" y2="13183.7334" gradientTransform="matrix(1 0 0 -1 544.29 13502.7461)">
							<stop  offset="0" style="stop-color:#B81C2C"/>
							<stop  offset="1" style="stop-color:#B81C2C;stop-opacity:0.1"/>
						</linearGradient>
						<path fill="url(#SVGID_12_)" d="M512.772,104.913c-4.428,1.006-8.957,0.334-13.593,0.41
							c-11.474,0.191-18.901,9.423-27.671,17.416c-20.857,18.992-32.472,45.964-40.438,84.535
							c-11.976,57.991-22.53,118.14-33.549,177.032c7.639-7.799,12.633-23.007,18.817-33.495
							c6.361-10.788,13.03-21.222,18.262-33.747c4.768-11.408,9.049-24.019,14.314-34.674
							c14.534-29.418,23.512-64.144,34.511-98.061c5.875-18.113,12.072-36.045,19.942-51.033
							c3.387-6.453,13.966-15.849,11.002-28.189L512.772,104.913z"/>
						
							<linearGradient id="SVGID_14_" gradientUnits="userSpaceOnUse" x1="-87.3196" y1="13426.0908" x2="-286.6122" y2="13390.7881" gradientTransform="matrix(1 0 0 -1 544.29 13502.7461)">
							<stop  offset="0" style="stop-color:#B81C2C"/>
							<stop  offset="1" style="stop-color:#B81C2C;stop-opacity:0.1"/>
						</linearGradient>
						<path fill="url(#SVGID_14_)" d="M530.792,87.79c-8.248,3.179-30.883-15.521-40.701-19.323
							c-19.865-7.696-38.239-9.923-59.363-11.467c-44.715-3.266-80.461,5.939-123.244,16.415
							c-11.042,2.703-23.926,7.674-35.452,7.581c-7.954-0.063-13.984-4.172-21.25-5.767c-14.846-3.261-31.556-3.487-46.274-4.945
							c12.744,2.056,24.898,12.568,37.033,17.215c10.332,3.958,21.662,6.681,32.214,9.598c13.182,3.644,25.883,6.115,39.47,7.102
							c35.515,2.575,68.803,7.513,103.359,14.62c25.937,5.331,57.487,10,82.426-0.197C510.31,114.002,530.792,87.79,530.792,87.79z"
							/>
						
							<linearGradient id="SVGID_16_" gradientUnits="userSpaceOnUse" x1="-87.5742" y1="13439.6699" x2="95.7746" y2="13275.6807" gradientTransform="matrix(1 0 0 -1 544.29 13502.7461)">
							<stop  offset="0" style="stop-color:#B81C2C"/>
							<stop  offset="1" style="stop-color:#B81C2C;stop-opacity:0.1"/>
						</linearGradient>
						<path fill="url(#SVGID_16_)" d="M476.464,58.548c0.686,6.101-0.073,12.016-0.197,18.223
							c-0.303,15.352,7.342,27.016,13.861,40.238c15.498,31.431,38.235,52.039,71.097,69.963
							c49.414,26.951,100.739,52.417,150.97,78.262c-6.401-11.672-19.285-21.219-28.059-31.453
							c-9.029-10.533-17.732-21.409-28.298-30.765c-9.625-8.519-20.298-16.622-29.252-25.665
							c-24.724-24.965-54.245-43.518-82.978-64.612c-15.349-11.269-30.527-22.937-43.104-36.273
							c-5.415-5.745-13.075-21.64-23.812-20.02L476.464,58.548z"/>
						
							<linearGradient id="SVGID_18_" gradientUnits="userSpaceOnUse" x1="4.1533" y1="13423.3408" x2="115.7567" y2="13381.2041" gradientTransform="matrix(1 0 0 -1 544.29 13502.7461)">
							<stop  offset="0" style="stop-color:#B81C2C"/>
							<stop  offset="1" style="stop-color:#B81C2C;stop-opacity:0.1"/>
						</linearGradient>
						<path fill="url(#SVGID_18_)" d="M497.457,139.737c4.975-0.128,9.55,0.695,14.466,1.11c12.16,1.025,22.782-3.458,34.443-7.106
							c27.73-8.676,71.309-12.971,99.665-19.141c41.871-9.109,88.827-10.249,138.719-4.554
							c-10.41,3.654-137.134-140.562-265.462-25.302c-36.771,33.024-22.866,47.464-23.46,54.727L497.457,139.737z"/>
						
							<linearGradient id="SVGID_20_" gradientUnits="userSpaceOnUse" x1="-41.2761" y1="13351.6709" x2="3.1375" y2="13199.0693" gradientTransform="matrix(1 0 0 -1 544.29 13502.7461)">
							<stop  offset="0" style="stop-color:#B81C2C"/>
							<stop  offset="1" style="stop-color:#B81C2C;stop-opacity:0.1"/>
						</linearGradient>
						<path fill="url(#SVGID_20_)" d="M485.954,120.256c4.216,5.273,0.56,29.64,1.366,38.66c1.627,18.24,5.846,33.347,11.268,50.348
							c11.467,35.986,27.193,60.496,45.718,90.018c4.779,7.619,11.367,15.857,14.739,24.864c2.327,6.217,1.837,12.393,3.11,18.626
							c2.597,12.732,7.433,25.823,11,37.806c-2.644-10.665-0.421-23.921-1.444-35.043c-0.871-9.469-2.728-19.274-4.241-28.536
							c-1.895-11.583-4.294-22.36-7.78-33.294c-9.12-28.575-16.269-56.274-22.587-85.74c-4.744-22.115-11.521-48.359-24.591-64.093
							C506.59,126.739,485.954,120.256,485.954,120.256z"/>
					</g>
				</g>
				<g>
					<defs>
						<rect id="SVGID_39_" x="-12.497" y="0" width="653.498" height="434.08"/>
					</defs>
					<clipPath id="SVGID_22_">
						<use xlink:href="#SVGID_39_"  overflow="visible"/>
					</clipPath>
					<g clip-path="url(#SVGID_22_)">
						<path fill="#11755B" d="M500.18,103.709c-7.384-2.089-13.742-5.394-20.79-8.254c-17.437-7.076-35.154-5.392-54.017-5.412
							c-44.846-0.042-81.379,11.204-120.584,32.716c-58.945,32.344-117.268,67.062-175.405,100.629
							c17.019-0.562,35.276-7.877,51.992-11.206c17.204-3.423,34.616-6.404,51.34-11.728c15.234-4.849,30.583-10.83,46.034-14.846
							c42.665-11.093,80.687-29.332,121.184-45.738c21.629-8.758,43.62-17.194,66.058-22.554
							c9.658-2.307,32.236-2.125,36.468-12.468L500.18,103.709z"/>
						<path fill="#11755B" d="M517.264,93.578c-5.112,0.637-10.18-0.018-15.442-0.1c-13.017-0.208-22.319,6.69-33.027,12.583
							c-25.446,14.014-41.191,34.464-53.906,63.977c-19.116,44.372-36.829,90.446-54.944,135.542
							c9.399-5.78,16.516-17.361,24.523-25.264c8.241-8.127,16.799-15.971,23.925-25.472c6.493-8.658,12.552-18.254,19.537-26.31
							c19.285-22.251,32.777-48.767,48.486-74.591c8.389-13.793,17.127-27.438,27.479-38.757
							c4.454-4.873,17.342-11.801,15.166-21.41L517.264,93.578z"/>
						<path fill="#11755B" d="M511.57,100.293c-8.721-1.436-18.774-29.018-25.315-37.269
							c-13.239-16.694-27.951-27.916-45.389-39.943c-36.905-25.454-72.392-35.614-114.59-48.24
							c-10.891-3.259-24.519-5.493-34.411-11.41c-6.829-4.082-9.948-10.677-15.408-15.736
							c-11.152-10.324-25.446-18.98-37.403-27.689c9.952,8.227,15.112,23.444,23.221,33.593c6.906,8.644,15.301,16.729,22.92,24.586
							C294.722-12,304.422-3.434,315.64,4.292c29.32,20.2,55.533,41.314,81.73,64.938c19.669,17.727,44.511,37.729,71.181,41.563
							C480.637,112.528,511.57,100.293,511.57,100.293z"/>
						<path fill="#11755B" d="M472.478,81.86c5.427,5.432,9.355,11.42,14.11,17.359c11.757,14.694,28.04,21.879,44.488,31.11
							c39.109,21.941,76.481,29.978,121.196,30.358c67.238,0.573,135.088-1.229,202.216-2.119
							c-15.126-7.822-34.63-10.356-50.845-15.619c-16.682-5.418-33.334-11.322-50.524-14.845
							c-15.663-3.211-31.974-5.495-47.423-9.537c-42.645-11.159-84.729-13.821-128.08-19.291
							c-23.154-2.918-46.464-6.304-68.658-12.586c-9.557-2.706-29.167-13.892-37.913-6.935L472.478,81.86z"/>
						<path fill="#11755B" d="M485.984,96.083c4.976-0.133,9.552,0.694,14.467,1.108c12.161,1.022,22.782-3.462,34.445-7.109
							c27.726-8.671,71.306-12.967,99.666-19.14c41.869-9.109,88.828-10.249,138.718-4.555
							C762.871,70.04,636.146-74.176,507.813,41.085c-36.769,33.024-22.866,47.465-23.457,54.729L485.984,96.083z"/>
						<path fill="#11755B" d="M485.828,107.403c4.689,2.935,3.756,21.628,5.521,28.065c3.568,13.026,9.327,23.176,16.464,34.448
							c15.109,23.864,33.138,38.359,54.439,55.917c5.499,4.528,12.828,9.113,17.1,14.975c2.945,4.044,3.139,8.685,5.058,12.976
							c3.918,8.769,10.065,17.301,14.846,25.302c-3.741-7.236-3-17.458-5.206-25.393c-1.88-6.755-4.751-13.54-7.236-20.001
							c-3.106-8.079-6.621-15.456-11.213-22.705c-12.007-18.945-21.995-37.687-31.364-57.907
							c-7.032-15.175-16.5-32.931-30.979-41.579C506.7,107.583,485.828,107.403,485.828,107.403z"/>
					</g>
				</g>
			</g>
			<g>
				<path opacity="0.2" fill="#11755B" enable-background="new    " d="M507.813,93.417c4.119,1.205,23.212,6.162,26.829,7.999
					c3.637,1.849-2.12,6.689-4.84,8.123c-5.344,2.82-26.797,1.792-37.933,4.493c-6.593,1.6-16.448,8.813-26.555,20.304
					c-7.981,9.072-7.073-2.576-8.114-5.616c-1.1-3.203,7.087-16.367-13.981-17.902c-12.742-0.929-20.7-12.615-5.877-16.892
					c6.44-1.859,13.027-2.981,19.582-4.386C463.632,88.101,478.514,84.856,507.813,93.417z"/>
				<path fill="#11755B" d="M440.75,91.715c2.286,14.706,27.646,10.244,41.613,11.667c8.924,0.913,17.585-0.12,26.327-1.153
					c5.561-0.655,17.786-0.69,21.114-4.097c-5.465-1.674-6.54-0.235-10.104-3.968c-3.571-3.737-7.745-6.599-10.036-11.079
					c-3.39-6.614-3.286-14.524-4.719-21.516c-1.375-6.714-2.928-12.667-2.949-19.428c-0.009-2.609,0.295-5.013,0.999-7.493
					c0.254-0.898,2.101-4.042,1.951-4.627c-0.626-2.385-2.951-2.159-6.469-2.281c-1.624-0.054-8.934-0.697-10.21,0.068
					c-2.002,1.198-1.321,5.591-1.926,7.317c-1.291,3.694-2.706,7.223-3.479,11.063c-2.102,10.428-5.986,22.012-12.357,31.528
					c-2.002,2.991-4.049,5.326-7.702,7.174c-4.701,2.381-13.83,6.396-19.521,6.065L440.75,91.715z"/>
				<path opacity="0.2" fill="#11755B" enable-background="new    " d="M440.75,91.715c2.286,14.706,27.646,10.244,41.613,11.667
					c8.924,0.913,17.585-0.12,26.327-1.153c-46.978-10.032-37.78-10.253-26.118-31.318c5.203-9.4,4.289-40.261,12.313-43.373
					c-2.656-0.134-5.818-0.207-6.616,0.271c-2.002,1.198-1.325,5.591-1.927,7.317c-1.294,3.694-2.706,7.223-3.48,11.063
					c-2.102,10.428-5.988,22.012-12.359,31.528c-2.002,2.991-4.049,5.326-7.7,7.174C458.1,87.273,440.75,91.715,440.75,91.715z"/>
			</g>
		</g>
	</g>
</g>
<g>
	<defs>
		<rect id="SVGID_215_" x="-801" width="642" height="1098"/>
	</defs>
	<clipPath id="SVGID_24_">
		<use xlink:href="#SVGID_215_"  overflow="visible"/>
	</clipPath>
	<g id="圖層_1_9_" clip-path="url(#SVGID_24_)">
		<g opacity="0.3" enable-background="new    ">
			<g>
				<defs>
					<rect id="SVGID_217_" x="-1472.086" y="-148.07" width="1984.174" height="1394.141"/>
				</defs>
				<clipPath id="SVGID_25_">
					<use xlink:href="#SVGID_217_"  overflow="visible"/>
				</clipPath>
			</g>
			<g>
				<defs>
					<rect id="SVGID_219_" x="-1472.086" y="-148.07" width="1984.174" height="1394.141"/>
				</defs>
				<clipPath id="SVGID_26_">
					<use xlink:href="#SVGID_219_"  overflow="visible"/>
				</clipPath>
			</g>
		</g>
	</g>
	<g id="圖層_1_5_" clip-path="url(#SVGID_24_)">
		<g opacity="0.3" enable-background="new    ">
			<g>
				<defs>
					<rect id="SVGID_223_" x="-1472.086" y="-1167.5" width="1984.174" height="1117"/>
				</defs>
				<clipPath id="SVGID_28_">
					<use xlink:href="#SVGID_223_"  overflow="visible"/>
				</clipPath>
				<g clip-path="url(#SVGID_28_)">
					<g opacity="0.9333">
						<path fill="none" stroke="#4B987E" stroke-width="9.2911" stroke-miterlimit="10" d="M-0.95-1238.303
							c0,26.15-20.646,26.15-20.646,52.301s20.646,26.15,20.646,52.301s-20.646,26.15-20.646,52.3
							c0,26.153,20.646,26.153,20.646,52.305c0,26.149-20.646,26.149-20.646,52.301S-0.95-950.645-0.95-924.493
							c0,26.149-20.646,26.149-20.646,52.3c0,26.151,20.646,26.151,20.646,52.302c0,26.151-20.646,26.151-20.646,52.304
							c0,26.148,20.646,26.148,20.646,52.295c0,26.15-20.646,26.15-20.646,52.299c0,26.153,20.646,26.153,20.646,52.306
							c0,26.149-20.646,26.149-20.646,52.299c0,26.151,20.646,26.151,20.646,52.301c0,26.151-20.646,26.15-20.646,52.3
							c0,26.15,20.646,26.15,20.646,52.301c0,26.152-20.646,26.152-20.646,52.303c0,26.152,20.646,26.152,20.646,52.305
							s-20.646,26.152-20.646,52.306c0,26.151,20.646,26.151,20.646,52.304s-20.646,26.152-20.646,52.307
							c0,26.15,20.646,26.15,20.646,52.304c0,26.152-20.646,26.152-20.646,52.305S-0.95-9.204-0.95,16.949
							c0,26.152-20.646,26.152-20.646,52.305c0,26.156,20.646,26.156,20.646,52.313s-20.646,26.156-20.646,52.313"/>
					</g>
					<g opacity="0.9429">
						<path fill="none" stroke="#4B987E" stroke-width="9.2911" stroke-miterlimit="10" d="M115.57-1229.931
							c0,26.149-20.646,26.149-20.646,52.301c0,26.149,20.646,26.149,20.646,52.301c0,26.149-20.646,26.149-20.646,52.3
							c0,26.151,20.646,26.151,20.646,52.303c0,26.15-20.646,26.15-20.646,52.301c0,26.152,20.646,26.152,20.646,52.304
							c0,26.15-20.646,26.15-20.646,52.301c0,26.151,20.646,26.151,20.646,52.302s-20.646,26.15-20.646,52.302
							c0,26.148,20.646,26.148,20.646,52.297s-20.646,26.148-20.646,52.298c0,26.151,20.646,26.151,20.646,52.305
							c0,26.148-20.646,26.148-20.646,52.299s20.646,26.15,20.646,52.302c0,26.149-20.646,26.149-20.646,52.3
							s20.646,26.15,20.646,52.301c0,26.151-20.646,26.151-20.646,52.303c0,26.152,20.646,26.152,20.646,52.305
							s-20.646,26.152-20.646,52.307c0,26.152,20.646,26.152,20.646,52.305c0,26.153-20.646,26.153-20.646,52.306
							s20.646,26.152,20.646,52.304c0,26.152-20.646,26.152-20.646,52.305c0,26.153,20.646,26.153,20.646,52.307
							c0,26.152-20.646,26.152-20.646,52.305c0,26.156,20.646,26.156,20.646,52.313s-20.646,26.156-20.646,52.313"/>
					</g>
					<g opacity="0.9524">
						<path fill="none" stroke="#4B987E" stroke-width="9.2911" stroke-miterlimit="10" d="M232.087-1221.559
							c0,26.15-20.646,26.15-20.646,52.301s20.646,26.15,20.646,52.301s-20.646,26.15-20.646,52.301
							c0,26.151,20.646,26.151,20.646,52.303c0,26.15-20.646,26.15-20.646,52.301c0,26.151,20.646,26.151,20.646,52.303
							c0,26.149-20.646,26.149-20.646,52.301c0,26.152,20.646,26.152,20.646,52.302c0,26.151-20.646,26.151-20.646,52.303
							c0,26.147,20.646,26.147,20.646,52.296c0,26.149-20.646,26.149-20.646,52.299c0,26.151,20.646,26.151,20.646,52.304
							c0,26.149-20.646,26.149-20.646,52.299c0,26.15,20.646,26.15,20.646,52.302c0,26.149-20.646,26.149-20.646,52.301
							c0,26.15,20.646,26.15,20.646,52.299c0,26.152-20.646,26.152-20.646,52.304c0,26.152,20.646,26.152,20.646,52.304
							c0,26.153-20.646,26.153-20.646,52.307c0,26.151,20.646,26.151,20.646,52.305c0,26.152-20.646,26.152-20.646,52.307
							c0,26.152,20.646,26.152,20.646,52.304c0,26.152-20.646,26.152-20.646,52.305c0,26.153,20.646,26.153,20.646,52.306
							c0,26.153-20.646,26.153-20.646,52.306c0,26.157,20.646,26.157,20.646,52.313c0,26.157-20.646,26.157-20.646,52.313"/>
					</g>
					<g opacity="0.9619">
						<path fill="none" stroke="#4B987E" stroke-width="9.2911" stroke-miterlimit="10" d="M348.607-1213.188
							c0,26.15-20.646,26.15-20.646,52.301c0,26.149,20.646,26.149,20.646,52.301c0,26.149-20.646,26.149-20.646,52.301
							c0,26.152,20.646,26.152,20.646,52.304c0,26.149-20.646,26.149-20.646,52.301c0,26.15,20.646,26.15,20.646,52.302
							c0,26.15-20.646,26.15-20.646,52.301c0,26.151,20.646,26.151,20.646,52.302c0,26.151-20.646,26.151-20.646,52.304
							c0,26.148,20.646,26.148,20.646,52.295c0,26.15-20.646,26.15-20.646,52.299c0,26.152,20.646,26.152,20.646,52.304
							c0,26.149-20.646,26.149-20.646,52.299c0,26.151,20.646,26.151,20.646,52.303c0,26.15-20.646,26.15-20.646,52.3
							c0,26.15,20.646,26.15,20.646,52.301c0,26.151-20.646,26.151-20.646,52.303c0,26.152,20.646,26.152,20.646,52.305
							c0,26.154-20.646,26.154-20.646,52.307s20.646,26.152,20.646,52.304c0,26.153-20.646,26.153-20.646,52.306
							s20.646,26.152,20.646,52.305S327.96-36.393,327.96-10.24c0,26.153,20.646,26.153,20.646,52.306S327.96,68.218,327.96,94.371
							c0,26.156,20.646,26.156,20.646,52.312c0,26.156-20.646,26.156-20.646,52.313"/>
					</g>
					<g opacity="0.9714">
						<path fill="none" stroke="#4B987E" stroke-width="9.2911" stroke-miterlimit="10" d="M465.126-1204.815
							c0,26.151-20.646,26.151-20.646,52.301c0,26.151,20.646,26.151,20.646,52.301c0,26.15-20.646,26.15-20.646,52.301
							c0,26.151,20.646,26.151,20.646,52.303c0,26.15-20.646,26.15-20.646,52.302c0,26.152,20.646,26.152,20.646,52.304
							c0,26.15-20.646,26.15-20.646,52.301c0,26.151,20.646,26.151,20.646,52.302c0,26.149-20.646,26.149-20.646,52.301
							c0,26.148,20.646,26.148,20.646,52.297c0,26.149-20.646,26.149-20.646,52.299c0,26.151,20.646,26.151,20.646,52.304
							c0,26.149-20.646,26.149-20.646,52.3s20.646,26.15,20.646,52.301s-20.646,26.15-20.646,52.301s20.646,26.15,20.646,52.302
							s-20.646,26.151-20.646,52.302c0,26.152,20.646,26.152,20.646,52.304c0,26.153-20.646,26.153-20.646,52.306
							s20.646,26.152,20.646,52.305c0,26.153-20.646,26.153-20.646,52.307c0,26.151,20.646,26.151,20.646,52.302
							c0,26.151-20.646,26.151-20.646,52.306c0,26.15,20.646,26.15,20.646,52.305c0,26.153-20.646,26.153-20.646,52.305
							c0,26.157,20.646,26.157,20.646,52.314c0,26.156-20.646,26.156-20.646,52.313"/>
					</g>
				</g>
			</g>
		</g>
	</g>
</g>
</svg>
