<?xml version="1.0" encoding="utf-8"?>
<!-- Generator: Adobe Illustrator 16.0.0, SVG Export Plug-In . SVG Version: 6.00 Build 0)  -->
<!DOCTYPE svg PUBLIC "-//W3C//DTD SVG 1.1//EN" "http://www.w3.org/Graphics/SVG/1.1/DTD/svg11.dtd">
<svg version="1.1" id="圖層_1" xmlns="http://www.w3.org/2000/svg" xmlns:xlink="http://www.w3.org/1999/xlink" x="0px" y="0px"
	 width="960px" height="540px" viewBox="0 0 960 540" enable-background="new 0 0 960 540" xml:space="preserve">
<g>
	<g>
		<defs>
			<rect id="SVGID_177_" x="-1.777" y="-619.189" width="963.554" height="542"/>
		</defs>
		<clipPath id="SVGID_2_">
			<use xlink:href="#SVGID_177_"  overflow="visible"/>
		</clipPath>
		<g id="圖層_1_23_" clip-path="url(#SVGID_2_)">
			<g>
				<g>
					<defs>
						<rect id="SVGID_189_" x="-2.28" y="-619.69" width="964.559" height="543.003"/>
					</defs>
					<clipPath id="SVGID_4_">
						<use xlink:href="#SVGID_189_"  overflow="visible"/>
					</clipPath>
					<path opacity="0.1" clip-path="url(#SVGID_4_)" fill="#D13C3D" enable-background="new    " d="M-110.095-611.367
						c-37.016,100.891-39.718,214.354-25.638,319.887c6.754,50.604,7.836,93.889,33.419,135.615
						c11.639,18.982,24.262,40.835,40.636,53.751c27.043,21.329,18.763,45.211,48.524,60.439
						C29.46-19.867,114.71-17.137,157.54,3.854c43.3,21.225,95.759,17.307,142.432,21.552c65.906,5.992,271.015-5.844,337.253-7.578
						c40.133-1.048,80.153-10.105,120.165-10.452c17.825-0.155,36.875,5.208,54.502-0.275c2.121-27.521-21.314-38.426-29.763-66.305
						c-16.408-54.14-395.791-86.173-433.083-97.04c-75.833-22.101-160.895-37.625-211.187-114.116
						C92.583-339.222,38.074-448.502,36.664-533.759c-0.712-43.114,32.657-128.59,4.187-156.856
						C-89.787-820.31-96.965-647.149-110.095-611.367z"/>
				</g>
				<g>
					<defs>
						<rect id="SVGID_191_" x="-2.28" y="-619.69" width="964.559" height="543.003"/>
					</defs>
					<clipPath id="SVGID_6_">
						<use xlink:href="#SVGID_191_"  overflow="visible"/>
					</clipPath>
					<path opacity="0.15" clip-path="url(#SVGID_6_)" fill="#D13C3D" enable-background="new    " d="M393.351,140.592
						c-70.936,41.61-155.314,49.826-235.767,41.018c-38.577-4.223-71.018-3.185-105.198-26.503
						c-15.547-10.609-33.354-22.054-44.937-37.654c-19.125-25.762-35.973-16.391-50.865-45.146
						C-64.74,31.134-76.873-53.225-97.615-94.65c-20.972-41.88-24.258-94.066-32.954-140.115
						c-12.278-65.032-27.73-268.897-34.281-334.634c-3.97-39.826-1.947-79.936-6.426-119.608
						c-1.995-17.674-8.254-36.295-6.249-54.032c20.295-3.445,31.211,19.25,53.022,26.265
						c42.358,13.62,111.198,388.077,123.725,424.503C24.701-218.187,46.363-134.637,109.42-88.523
						C166.188-47.01,254.222,1.684,318.035-1.079c32.271-1.399,92.127-38.642,116.602-11.802
						C546.923,110.269,418.507,125.833,393.351,140.592z"/>
				</g>
			</g>
			<g>
				<g>
					<defs>
						<rect id="SVGID_193_" x="-1.779" y="-620.193" width="964.559" height="543.004"/>
					</defs>
					<clipPath id="SVGID_8_">
						<use xlink:href="#SVGID_193_"  overflow="visible"/>
					</clipPath>
					<path opacity="0.15" clip-path="url(#SVGID_8_)" fill="#D13C3D" enable-background="new    " d="M-109.592-601.206
						c-37.016,109.379-39.72,232.386-25.639,346.798c6.753,54.864,7.837,101.789,33.42,147.027
						c11.636,20.578,24.26,44.27,40.635,58.272c27.042,23.122,18.764,49.014,48.525,65.524
						c42.614,23.64,127.863,26.6,170.691,49.358c43.301,23.008,95.76,18.762,142.431,23.364
						c65.909,6.496,271.018-6.336,337.255-8.215c40.133-1.139,80.153-10.956,120.165-11.333c17.823-0.169,36.874,5.646,54.501-0.3
						c2.12-29.835-21.316-41.655-29.762-71.881c-16.407-58.695-395.791-93.422-433.082-105.204
						c-75.833-23.959-160.897-40.791-211.188-123.715C93.086-306.164,38.575-424.639,37.167-517.068
						c-0.713-46.74,32.657-139.407,4.184-170.052C-89.285-827.726-96.464-639.998-109.592-601.206z"/>
					<path opacity="0.2" clip-path="url(#SVGID_8_)" fill="#D13C3D" enable-background="new    " d="M393.852,140.092
						c-70.937,41.608-155.314,49.824-235.766,41.018c-38.577-4.224-71.018-3.185-105.197-26.504
						c-15.55-10.609-33.355-22.053-44.937-37.652c-19.125-25.762-35.975-16.39-50.867-45.146
						C-64.237,30.633-76.37-53.725-97.115-95.151c-20.97-41.88-24.257-94.066-32.952-140.115
						c-12.279-65.032-27.729-268.899-34.281-334.632c-3.97-39.826-1.946-79.936-6.425-119.609
						c-1.997-17.674-8.256-36.295-6.249-54.032c20.294-3.445,31.209,19.252,53.021,26.265
						C-81.642-703.654-12.803-329.199-0.275-292.771c25.477,74.083,47.139,157.632,110.196,203.744
						C166.69-47.512,254.725,1.182,318.537-1.58c32.271-1.397,92.128-38.642,116.601-11.801
						C547.426,109.767,419.01,125.332,393.852,140.092z"/>
				</g>
			</g>
		</g>
	</g>
</g>
<g>
	<g>
		<rect x="-1.777" y="-1" fill="#4A2E2C" width="963.554" height="542"/>
		<g opacity="0.1">
			<defs>
				<rect id="SVGID_201_" x="-1.777" y="-1" opacity="0.1" width="963.554" height="542"/>
			</defs>
			<clipPath id="SVGID_10_">
				<use xlink:href="#SVGID_201_"  overflow="visible"/>
			</clipPath>
			<g clip-path="url(#SVGID_10_)">
				<g>
					<path fill="#4A2E2C" d="M-131.134,33.795c11.427-17.11,293.229-9.188,604.055-9.754c310.825-0.566,643.243,1.276,640.276,6.128
						c-9.732,15.949-249.533,10.882-560.357,11.445C242.013,42.181-134.363,38.629-131.134,33.795z"/>
					<path fill="#4A2E2C" d="M1113.198,122.417c-10.072,16.55-258.273,10.74-569.098,11.316
						c-310.825,0.579-678.41-2.669-675.234-7.613c11.089-17.22,284.49-9.76,595.315-10.338
						C775.007,115.204,1116.216,117.464,1113.198,122.417z"/>
					<path fill="#4A2E2C" d="M1113.196,214.663c-10.409,17.149-267.012,10.598-577.835,11.186
						c-310.826,0.59-669.619-2.354-666.496-7.406c10.75-17.33,275.751-10.333,586.576-10.922
						C766.267,206.931,1116.269,209.609,1113.196,214.663z"/>
					<path fill="#4A2E2C" d="M1113.195,306.907c-10.748,17.75-275.752,10.457-586.575,11.057
						c-310.826,0.603-660.827-2.039-657.757-7.2c10.411-17.438,267.013-10.907,577.837-11.506
						C757.528,298.657,1116.32,301.753,1113.195,306.907z"/>
					<path fill="#4A2E2C" d="M1113.193,399.153c-11.086,18.351-284.492,10.315-595.315,10.927
						c-310.825,0.615-652.035-1.724-649.017-6.993c10.073-17.548,258.275-11.48,569.097-12.09
						C748.787,390.385,1116.371,393.899,1113.193,399.153z"/>
					<path fill="#4A2E2C" d="M1113.192,491.402c-11.424,18.951-293.231,10.173-604.054,10.798
						c-310.824,0.627-643.243-1.408-640.278-6.786c9.734-17.658,249.537-12.054,560.359-12.675
						C740.047,482.115,1116.423,486.046,1113.192,491.402z"/>
				</g>
				<g>
					<path fill="#4A2E2C" d="M895.745-57.795c22.913,6.525,12.083,152.94,12.606,314.746c0.52,161.81-2.197,334.776-8.701,333.067
						c-21.355-5.607-14.386-130.255-14.909-292.063C884.22,136.146,889.265-59.642,895.745-57.795z"/>
					<path fill="#4A2E2C" d="M802.364-64.088c22.637,6.609,12.108,154.881,12.809,318.739
						c0.699,163.863-1.787,339.022-8.213,337.292c-21.098-5.68-14.357-131.909-15.058-295.768
						C791.204,132.313,795.963-65.959,802.364-64.088z"/>
					<path fill="#4A2E2C" d="M708.983-70.382c22.362,6.694,12.134,156.823,13.013,322.734c0.876,165.915-1.378,343.27-7.725,341.516
						c-20.84-5.752-14.328-133.563-15.207-299.475C698.187,128.48,702.661-72.276,708.983-70.382z"/>
					<path fill="#4A2E2C" d="M615.603-76.675c22.086,6.779,12.159,158.764,13.217,326.728
						c1.055,167.968-0.969,347.517-7.238,345.741c-20.582-5.824-14.298-135.216-15.355-303.18
						C605.17,124.647,609.359-78.594,615.603-76.675z"/>
					<path fill="#4A2E2C" d="M522.273-82.968c21.811,6.863,12.185,160.705,13.421,330.722c1.232,170.02-0.56,351.763-6.75,349.966
						c-20.325-5.896-14.27-136.87-15.505-306.886C512.206,120.813,516.108-84.91,522.273-82.968z"/>
					<path fill="#4A2E2C" d="M428.997-89.261c21.534,6.947,12.21,162.646,13.624,334.716c1.411,172.072-0.151,356.009-6.263,354.19
						c-20.068-5.97-14.241-138.523-15.653-310.592C419.292,116.98,422.909-91.228,428.997-89.261z"/>
					<path fill="#4A2E2C" d="M335.708-95.555c21.259,7.032,12.235,164.587,13.827,338.709c1.59,174.125,0.259,360.257-5.775,358.416
						c-19.81-6.042-14.211-140.177-15.802-314.299C326.367,113.147,329.698-97.545,335.708-95.555z"/>
					<path fill="#4A2E2C" d="M242.244-101.848c20.984,7.117,12.262,166.529,14.031,342.704
						c1.768,176.177,0.668,364.503-5.287,362.641c-19.553-6.114-14.183-141.831-15.951-318.005
						C233.268,109.314,236.313-103.862,242.244-101.848z"/>
					<path fill="#4A2E2C" d="M148.781-108.141c20.708,7.201,12.287,168.471,14.234,346.698c1.946,178.229,1.077,368.75-4.8,366.865
						c-19.294-6.187-14.153-143.484-16.099-321.711C140.169,105.48,142.929-110.179,148.781-108.141z"/>
					<path fill="#4A2E2C" d="M55.32-114.435c20.432,7.286,12.313,170.412,14.438,350.692c2.124,180.282,1.486,372.997-4.313,371.09
						c-19.037-6.259-14.124-145.138-16.248-325.417C47.072,101.647,49.546-116.497,55.32-114.435z"/>
				</g>
			</g>
		</g>
	</g>
	
		<text transform="matrix(1 0 0 1 266.7212 371.7607)" fill="#F4E8D1" font-family="'GeosansLight'" font-size="55.2037" letter-spacing="1">Daily UI Challenge</text>
	<g>
		<g>
			
				<path fill="#EFB91B" stroke="#EFB91B" stroke-width="1.5" stroke-linecap="round" stroke-linejoin="round" stroke-miterlimit="10" d="
				M489.088,271.595h-27.013c-2.419-0.009-3.321,7.303-3.789,9.906c-0.067,0.371-0.103,1.149-0.103,1.149h34.807
				C492.991,279.502,491.864,271.595,489.088,271.595z"/>
		</g>
		<g>
			
				<path fill="#EFB91B" stroke="#EFB91B" stroke-width="1.5" stroke-linecap="round" stroke-linejoin="round" stroke-miterlimit="10" d="
				M484.709,268.37h-18.251c-1.633-0.006-2.244,4.934-2.56,6.692c-0.046,0.25-0.069,0.776-0.069,0.776h23.516
				C487.345,273.711,486.583,268.37,484.709,268.37z"/>
		</g>
		<g>
			<g>
				
					<path fill="#EFB91B" stroke="#EFB91B" stroke-width="1.5" stroke-linecap="round" stroke-linejoin="round" stroke-miterlimit="10" d="
					M504.42,225.22c-0.186-1.633,0.984-3.108,2.617-3.294c1.632-0.186,3.107,0.984,3.294,2.614c0.099,0.857,0.181,1.732,0.24,2.639
					c0.05,0.829,0.08,1.728,0.08,2.682h0.01v0.007h-0.01c-0.003,10.079-3.999,18.02-10.463,23.448
					c-6.346,5.34-15.041,8.187-24.59,8.187v0.012h-0.011h-0.004v-0.012c-9.553,0-18.252-2.847-24.6-8.187
					c-6.46-5.429-10.459-13.37-10.459-23.448h-0.012v-0.007v-0.004h0.012c0-9.598,3.737-22.848,9.774-33.657
					c6.284-11.256,15.173-20.04,25.284-20.04v-0.012h0.004h0.006v0.012c2.809,0,5.528,0.677,8.125,1.895
					c1.652,0.772,3.24,1.764,4.754,2.918c7.467,5.706,13.66,15.968,17.572,26.472c0.572,1.537-0.21,3.243-1.743,3.816
					c-1.54,0.575-3.245-0.212-3.819-1.741c-3.563-9.576-9.086-18.833-15.617-23.824c-1.209-0.924-2.435-1.693-3.66-2.267
					c-1.829-0.857-3.708-1.338-5.611-1.338v0.012h-0.006h-0.004v-0.012c-7.609,0.004-14.764,7.451-20.098,16.989
					c-5.578,9.991-9.028,22.106-9.028,30.777h0.01v0.004v0.007h-0.01c0,8.184,3.19,14.579,8.34,18.918
					c5.268,4.424,12.617,6.782,20.786,6.782v-0.007h0.004h0.011v0.007c8.164,0,15.51-2.357,20.776-6.782
					c5.153-4.339,8.344-10.735,8.344-18.918h-0.014v-0.007h0.014c0-0.707-0.031-1.48-0.082-2.309
					C504.585,226.798,504.515,226.017,504.42,225.22z"/>
				
					<path fill="#EFB91B" stroke="#EFB91B" stroke-width="1.5" stroke-linecap="round" stroke-linejoin="round" stroke-miterlimit="10" d="
					M467.814,216.19c1.458-0.747,3.252-0.178,4.002,1.278c0.755,1.46,0.18,3.256-1.279,4.007c-2.399,1.23-4.249,2.139-5.901,2.748
					l-0.004,0.006l0.004,0.006c-1.848,0.686-3.418,0.988-5.078,0.938c-2.377-0.077-4.333-0.938-6.276-1.788
					c-1.675-0.734-3.34-1.463-4.688-1.205h-0.008v0.006c-0.138,0.025-0.259,0.064-0.356,0.101c-0.114,0.042-0.209,0.086-0.285,0.136
					l0.006,0.012c-0.599,0.395-1.037,1.281-1.186,2.747c-0.167,1.632-1.628,2.821-3.257,2.651c-1.632-0.164-2.82-1.625-2.652-3.254
					c0.35-3.421,1.768-5.75,3.811-7.098l0.005,0.001l0.008-0.001c0.438-0.293,0.885-0.526,1.34-0.709
					c0.474-0.19,0.95-0.331,1.43-0.425l0,0l0.029-0.006c3.144-0.61,5.65,0.49,8.18,1.601c1.427,0.627,2.865,1.256,4.085,1.3
					c0.808,0.021,1.685-0.164,2.822-0.588l0.005,0.009C463.905,218.166,465.583,217.342,467.814,216.19z"/>
				
					<path fill="#EFB91B" stroke="#EFB91B" stroke-width="1.5" stroke-linecap="round" stroke-linejoin="round" stroke-miterlimit="10" d="
					M455.411,217.833c1.5,0.673,2.167,2.43,1.491,3.929c-0.675,1.496-2.435,2.16-3.933,1.487c-3.442-1.557-5.978-3.503-7.387-6.222
					c-1.437-2.779-1.582-6.104-0.171-10.324c0.519-1.553,2.204-2.389,3.757-1.87c1.555,0.522,2.391,2.202,1.876,3.761
					c-0.858,2.554-0.866,4.383-0.183,5.714C451.582,215.687,453.165,216.812,455.411,217.833z"/>
				
					<path fill="#EFB91B" stroke="#EFB91B" stroke-width="1.5" stroke-linecap="round" stroke-linejoin="round" stroke-miterlimit="10" d="
					M480.646,221.476c-1.458-0.751-2.031-2.547-1.278-4.007c0.751-1.457,2.543-2.025,3.999-1.278
					c2.234,1.152,3.914,1.976,5.249,2.473l0.003-0.009c1.141,0.424,2.017,0.608,2.821,0.588c1.22-0.044,2.659-0.673,4.089-1.3
					c2.525-1.111,5.037-2.211,8.18-1.601l0.027,0.006l0,0c0.482,0.095,0.957,0.235,1.429,0.425c0.456,0.183,0.904,0.416,1.341,0.709
					l0.009,0.001l0.003-0.001c2.044,1.348,3.463,3.676,3.814,7.098c0.167,1.629-1.023,3.091-2.655,3.254
					c-1.631,0.17-3.091-1.019-3.256-2.651c-0.152-1.466-0.588-2.353-1.185-2.747l0.003-0.012c-0.073-0.05-0.171-0.094-0.282-0.141
					c-0.099-0.032-0.218-0.071-0.359-0.096v-0.006h-0.009c-1.35-0.259-3.011,0.471-4.687,1.205c-1.939,0.85-3.896,1.711-6.272,1.785
					c-1.661,0.053-3.232-0.25-5.079-0.936l0.001-0.006l-0.001-0.006C484.895,223.615,483.045,222.711,480.646,221.476z"/>
			</g>
		</g>
		
			<line fill="none" stroke="#EFB91B" stroke-width="10" stroke-miterlimit="10" x1="475.515" y1="260.255" x2="475.515" y2="274.111"/>
		<g>
			
				<path fill="#F4E8D1" stroke="#F4E8D1" stroke-width="2" stroke-linecap="round" stroke-linejoin="round" stroke-miterlimit="10" d="
				M495.305,276.118h-39.45c-3.623-0.018-5.473,14.364-6.176,19.481c-0.1,0.729-0.152,2.259-0.152,2.259h52.121
				C501.648,291.667,499.459,276.118,495.305,276.118z"/>
		</g>
		<path fill="#EFB91B" d="M518.726,196.516c-0.418,0-0.758-0.339-0.758-0.759c0-0.417-0.34-0.758-0.759-0.758
			c-0.419,0-0.759,0.341-0.759,0.758c0,0.419-0.342,0.759-0.759,0.759c-0.421,0-0.76,0.342-0.76,0.76
			c0,0.418,0.339,0.759,0.76,0.759c0.417,0,0.759,0.341,0.759,0.759c0,0.42,0.339,0.762,0.759,0.762
			c0.419,0,0.759-0.341,0.759-0.762c0-0.418,0.34-0.759,0.758-0.759c0.421,0,0.759-0.341,0.759-0.759
			C519.485,196.857,519.146,196.516,518.726,196.516L518.726,196.516z M518.726,196.516"/>
		<path fill="#EFB91B" d="M449.821,265.854c-1.644,0-2.979-1.336-2.979-2.977c0-0.422-0.34-0.762-0.759-0.762
			c-0.421,0-0.759,0.34-0.759,0.762c0,1.641-1.336,2.977-2.979,2.977c-0.419,0-0.759,0.34-0.759,0.76
			c0,0.418,0.34,0.757,0.759,0.757c1.643,0,2.979,1.336,2.979,2.977c0,0.422,0.338,0.762,0.759,0.762
			c0.419,0,0.759-0.339,0.759-0.762c0-1.641,1.335-2.977,2.979-2.977c0.42,0,0.759-0.339,0.759-0.757
			C450.58,266.194,450.241,265.854,449.821,265.854L449.821,265.854z M446.083,267.852c-0.329-0.488-0.75-0.912-1.239-1.238
			c0.489-0.329,0.91-0.753,1.239-1.241c0.328,0.488,0.75,0.912,1.241,1.241C446.833,266.94,446.412,267.364,446.083,267.852
			L446.083,267.852z M446.083,267.852"/>
		<path fill="#EFB91B" d="M512.702,188.64c-1.397,0-2.532-1.139-2.532-2.534c0-0.418-0.338-0.757-0.759-0.757
			c-0.418,0-0.759,0.339-0.759,0.757c0,1.395-1.135,2.534-2.529,2.534c-0.42,0-0.759,0.338-0.759,0.758
			c0,0.418,0.339,0.759,0.759,0.759c1.395,0,2.529,1.136,2.529,2.529c0,0.418,0.341,0.76,0.759,0.76c0.421,0,0.759-0.342,0.759-0.76
			c0-1.394,1.135-2.529,2.532-2.529c0.417,0,0.758-0.341,0.758-0.759C513.459,188.978,513.119,188.64,512.702,188.64L512.702,188.64
			z M509.411,190.329c-0.257-0.358-0.571-0.675-0.932-0.931c0.36-0.259,0.675-0.575,0.932-0.932
			c0.259,0.358,0.573,0.673,0.933,0.932C509.984,189.654,509.669,189.971,509.411,190.329L509.411,190.329z M509.411,190.329"/>
		<g>
			
				<line fill="none" stroke="#595757" stroke-width="4" stroke-linecap="round" stroke-linejoin="round" stroke-miterlimit="10" x1="461.151" y1="282.746" x2="461.151" y2="292.783"/>
			
				<circle fill="none" stroke="#595757" stroke-width="4" stroke-linecap="round" stroke-linejoin="round" stroke-miterlimit="10" cx="471.864" cy="287.765" r="5.098"/>
			
				<circle fill="none" stroke="#595757" stroke-width="4" stroke-linecap="round" stroke-linejoin="round" stroke-miterlimit="10" cx="487.345" cy="287.765" r="5.099"/>
		</g>
	</g>
</g>
</svg>
