<?xml version="1.0" encoding="utf-8"?>
<!-- Generator: Adobe Illustrator 16.0.0, SVG Export Plug-In . SVG Version: 6.00 Build 0)  -->
<!DOCTYPE svg PUBLIC "-//W3C//DTD SVG 1.1//EN" "http://www.w3.org/Graphics/SVG/1.1/DTD/svg11.dtd">
<svg version="1.1" id="圖層_1" xmlns="http://www.w3.org/2000/svg" xmlns:xlink="http://www.w3.org/1999/xlink" x="0px" y="0px"
	 width="640px" height="360px" viewBox="0 0 640 360" enable-background="new 0 0 640 360" xml:space="preserve">
<g>
	<defs>
		<rect id="SVGID_17_" x="-810.838" y="-420" width="642" height="1098"/>
	</defs>
	<clipPath id="SVGID_2_">
		<use xlink:href="#SVGID_17_"  overflow="visible"/>
	</clipPath>
	<g clip-path="url(#SVGID_2_)">
		<g opacity="0.1">
			<defs>
				<rect id="SVGID_19_" x="-824.841" y="-439.381" opacity="0.1" width="670.766" height="1191.509"/>
			</defs>
			<clipPath id="SVGID_4_">
				<use xlink:href="#SVGID_19_"  overflow="visible"/>
			</clipPath>
			<g clip-path="url(#SVGID_4_)">
				<g>
					<path fill="#4A2E2C" d="M11.3,329.301c-9.926,32.653-232.447,17.867-478.363,19.307c-245.92,1.439-508.8-1.681-506.202-10.949
						c8.528-30.432,197.97-21.045,443.888-22.49C-283.456,313.729,14.106,320.068,11.3,329.301z"/>
					<path fill="#4A2E2C" d="M23.209,192.942c-10.085,32.134-236.121,17.915-485.922,19.693
						c-249.804,1.776-516.837-0.908-514.196-10.03c8.665-29.944,201.1-20.989,450.9-22.768
						C-276.202,178.059,26.061,183.858,23.209,192.942z"/>
					<path fill="#4A2E2C" d="M35.118,56.639c-10.246,31.613-239.795,17.963-493.48,20.079
						c-253.688,2.112-524.874-0.135-522.191-9.108c8.804-29.457,204.228-20.935,457.915-23.051
						C-268.949,42.445,38.015,47.703,35.118,56.639z"/>
				</g>
			</g>
		</g>
	</g>
</g>
<g>
	<defs>
		<rect id="SVGID_45_" width="640" height="360"/>
	</defs>
	<clipPath id="SVGID_6_">
		<use xlink:href="#SVGID_45_"  overflow="visible"/>
	</clipPath>
	<g id="圖層_1_2_" clip-path="url(#SVGID_6_)">
		<rect fill="#D13C3D" width="640" height="360"/>
		<g>
			<g>
				<defs>
					<rect id="SVGID_47_" x="-0.334" y="-0.333" width="640.667" height="360.666"/>
				</defs>
				<clipPath id="SVGID_8_">
					<use xlink:href="#SVGID_47_"  overflow="visible"/>
				</clipPath>
				<g opacity="0.5" clip-path="url(#SVGID_8_)">
					
						<linearGradient id="SVGID_10_" gradientUnits="userSpaceOnUse" x1="2.5791" y1="12640.7373" x2="-46.4186" y2="12539.7422" gradientTransform="matrix(1 0 0 -1 544.29 12662.7461)">
						<stop  offset="0" style="stop-color:#D33F3E"/>
						<stop  offset="1" style="stop-color:#D33F3E;stop-opacity:0.2"/>
					</linearGradient>
					<path fill="url(#SVGID_10_)" d="M593.999,32.239c-3.364-0.192-6.403-1.006-9.696-1.562c-8.146-1.376-15.58,1.028-23.667,2.813
						c-19.226,4.243-33.817,12.535-48.575,25.48c-22.193,19.467-43.893,39.891-65.621,59.803c7.24-1.859,14.371-6.73,21.221-9.744
						c7.048-3.104,14.229-6.035,20.891-9.906c6.068-3.527,12.079-7.547,18.32-10.738c17.231-8.809,31.796-20.238,47.596-31.119
						c8.438-5.813,17.063-11.517,26.17-15.946c3.921-1.906,13.615-3.974,14.446-8.81L593.999,32.239z"/>
					
						<linearGradient id="SVGID_12_" gradientUnits="userSpaceOnUse" x1="29.8164" y1="12617.0176" x2="0.8174" y2="12523.0215" gradientTransform="matrix(1 0 0 -1 544.29 12662.7461)">
						<stop  offset="0" style="stop-color:#D33F3E"/>
						<stop  offset="1" style="stop-color:#D33F3E;stop-opacity:0.2"/>
					</linearGradient>
					<path fill="url(#SVGID_12_)" d="M584.476,45.728c-1.944,0.441-3.933,0.146-5.968,0.18c-5.037,0.084-8.298,4.137-12.148,7.646
						c-9.156,8.339-14.256,20.181-17.753,37.114c-5.258,25.46-9.892,51.867-14.729,77.723c3.354-3.424,5.547-10.101,8.262-14.705
						c2.792-4.736,5.721-9.317,8.018-14.816c2.093-5.009,3.973-10.545,6.284-15.223c6.381-12.916,10.322-28.161,15.151-43.052
						c2.579-7.952,5.301-15.825,8.756-22.405c1.486-2.833,6.131-6.958,4.83-12.376L584.476,45.728z"/>
					
						<linearGradient id="SVGID_14_" gradientUnits="userSpaceOnUse" x1="15.6855" y1="12629.4238" x2="-71.8096" y2="12613.9248" gradientTransform="matrix(1 0 0 -1 544.29 12662.7461)">
						<stop  offset="0" style="stop-color:#D33F3E"/>
						<stop  offset="1" style="stop-color:#D33F3E;stop-opacity:0.2"/>
					</linearGradient>
					<path fill="url(#SVGID_14_)" d="M592.386,38.21c-3.62,1.396-13.558-6.814-17.868-8.483c-8.722-3.379-16.788-4.356-26.063-5.034
						c-19.631-1.434-35.325,2.607-54.107,7.207c-4.848,1.187-10.504,3.368-15.564,3.328c-3.492-0.027-6.14-1.832-9.33-2.532
						c-6.518-1.432-13.854-1.531-20.316-2.171c5.596,0.902,10.932,5.518,16.259,7.558c4.536,1.737,9.511,2.934,14.143,4.214
						c5.788,1.6,11.364,2.685,17.329,3.118c15.592,1.13,30.207,3.298,45.378,6.418c11.387,2.341,25.238,4.391,36.188-0.086
						C583.395,49.718,592.386,38.21,592.386,38.21z"/>
					
						<linearGradient id="SVGID_16_" gradientUnits="userSpaceOnUse" x1="15.5747" y1="12635.3877" x2="96.0702" y2="12563.3916" gradientTransform="matrix(1 0 0 -1 544.29 12662.7461)">
						<stop  offset="0" style="stop-color:#D33F3E"/>
						<stop  offset="1" style="stop-color:#D33F3E;stop-opacity:0.2"/>
					</linearGradient>
					<path fill="url(#SVGID_16_)" d="M568.535,25.372c0.301,2.678-0.032,5.275-0.086,8c-0.134,6.74,3.223,11.861,6.085,17.666
						c6.804,13.799,16.786,22.847,31.214,30.716c21.694,11.833,44.228,23.013,66.28,34.359c-2.811-5.124-8.466-9.315-12.318-13.809
						c-3.964-4.624-7.785-9.399-12.424-13.507c-4.226-3.74-8.911-7.298-12.843-11.268c-10.854-10.961-23.814-19.105-36.43-28.367
						c-6.738-4.947-13.402-10.069-18.924-15.925c-2.377-2.522-5.74-9.501-10.454-8.789L568.535,25.372z"/>
					
						<linearGradient id="SVGID_18_" gradientUnits="userSpaceOnUse" x1="55.8462" y1="12628.2168" x2="104.8437" y2="12609.7178" gradientTransform="matrix(1 0 0 -1 544.29 12662.7461)">
						<stop  offset="0" style="stop-color:#D33F3E"/>
						<stop  offset="1" style="stop-color:#D33F3E;stop-opacity:0.2"/>
					</linearGradient>
					<path fill="url(#SVGID_18_)" d="M577.752,61.017c2.184-0.057,4.192,0.305,6.351,0.487c5.339,0.45,10.002-1.519,15.122-3.12
						c12.174-3.809,31.307-5.695,43.756-8.403c18.383-4,38.998-4.5,60.902-2c-4.57,1.604-60.206-61.711-116.547-11.108
						c-16.144,14.499-10.039,20.839-10.3,24.027L577.752,61.017z"/>
					
						<linearGradient id="SVGID_20_" gradientUnits="userSpaceOnUse" x1="35.9023" y1="12596.7529" x2="55.4012" y2="12529.7568" gradientTransform="matrix(1 0 0 -1 544.29 12662.7461)">
						<stop  offset="0" style="stop-color:#D33F3E"/>
						<stop  offset="1" style="stop-color:#D33F3E;stop-opacity:0.2"/>
					</linearGradient>
					<path fill="url(#SVGID_20_)" d="M572.701,52.464c1.852,2.314,0.246,13.013,0.6,16.973c0.715,8.008,2.566,14.641,4.947,22.104
						c5.034,15.799,11.938,26.56,20.071,39.521c2.099,3.345,4.99,6.962,6.472,10.916c1.021,2.729,0.806,5.44,1.365,8.178
						c1.141,5.59,3.264,11.337,4.829,16.598c-1.161-4.682-0.185-10.502-0.634-15.385c-0.383-4.157-1.197-8.462-1.862-12.528
						c-0.831-5.085-1.885-9.816-3.416-14.617c-4.004-12.545-7.142-24.706-9.916-37.643c-2.083-9.709-5.059-21.231-10.796-28.139
						C581.762,55.31,572.701,52.464,572.701,52.464z"/>
				</g>
			</g>
			<g>
				<defs>
					<rect id="SVGID_55_" x="-0.334" y="-0.333" width="640.667" height="360.666"/>
				</defs>
				<clipPath id="SVGID_22_">
					<use xlink:href="#SVGID_55_"  overflow="visible"/>
				</clipPath>
				<g clip-path="url(#SVGID_22_)">
					<path fill="#11755B" d="M578.947,45.199c-3.242-0.917-6.033-2.368-9.128-3.624c-7.655-3.106-15.434-2.367-23.715-2.376
						c-19.688-0.019-35.729,4.919-52.94,14.363c-25.879,14.2-51.484,29.442-77.009,44.18c7.472-0.247,15.487-3.458,22.826-4.92
						c7.553-1.503,15.198-2.812,22.54-5.149c6.688-2.129,13.427-4.754,20.211-6.518c18.73-4.87,35.423-12.877,53.203-20.08
						c9.496-3.846,19.15-7.549,29.001-9.902c4.24-1.013,14.153-0.933,16.011-5.474L578.947,45.199z"/>
					<path fill="#11755B" d="M586.447,40.751c-2.244,0.28-4.469-0.008-6.779-0.044c-5.716-0.091-9.8,2.938-14.5,5.524
						c-11.172,6.152-18.085,15.131-23.666,28.088c-8.394,19.48-16.17,39.709-24.123,59.508c4.127-2.538,7.251-7.622,10.767-11.092
						c3.618-3.568,7.375-7.012,10.504-11.184c2.851-3.801,5.511-8.014,8.577-11.551c8.467-9.769,14.391-21.41,21.287-32.748
						c3.683-6.056,7.52-12.046,12.064-17.016c1.955-2.14,7.613-5.181,6.658-9.399L586.447,40.751z"/>
					<path fill="#11755B" d="M583.947,43.699c-3.828-0.63-8.242-12.739-11.114-16.362c-5.812-7.329-12.271-12.256-19.927-17.536
						c-16.202-11.175-31.782-15.636-50.309-21.179c-4.781-1.431-10.765-2.412-15.107-5.01c-2.998-1.792-4.367-4.688-6.765-6.908
						c-4.896-4.533-11.172-8.333-16.421-12.156c4.369,3.611,6.634,10.292,10.194,14.748c3.033,3.795,6.718,7.345,10.063,10.794
						c4.182,4.31,8.44,8.069,13.365,11.462c12.873,8.869,24.381,18.139,35.883,28.51c8.635,7.783,19.541,16.564,31.25,18.247
						C570.367,49.071,583.947,43.699,583.947,43.699z"/>
					<path fill="#11755B" d="M566.785,35.606c2.382,2.385,4.107,5.014,6.194,7.621c5.162,6.451,12.311,9.605,19.532,13.658
						c17.17,9.634,33.578,13.162,53.209,13.329c29.52,0.251,59.309-0.54,88.779-0.931c-6.641-3.435-15.204-4.547-22.322-6.857
						c-7.324-2.379-14.635-4.971-22.183-6.518c-6.876-1.41-14.037-2.412-20.819-4.187c-18.723-4.899-37.199-6.068-56.231-8.47
						c-10.166-1.281-20.399-2.768-30.144-5.526c-4.195-1.188-12.805-6.099-16.645-3.044L566.785,35.606z"/>
					<path fill="#11755B" d="M572.715,41.851c2.185-0.059,4.193,0.305,6.352,0.486c5.339,0.449,10.002-1.52,15.122-3.121
						c12.173-3.807,31.306-5.693,43.757-8.402c18.382-4,38.998-4.5,60.901-2c-4.569,1.604-60.206-61.712-116.548-11.108
						C566.156,32.204,572.26,38.544,572,41.733L572.715,41.851z"/>
					<path fill="#11755B" d="M572.646,46.821c2.059,1.288,1.648,9.495,2.424,12.321c1.566,5.719,4.095,10.175,7.229,15.124
						c6.633,10.477,14.548,16.841,23.9,24.549c2.414,1.988,5.632,4.001,7.507,6.574c1.294,1.775,1.378,3.813,2.221,5.697
						c1.721,3.85,4.419,7.596,6.519,11.108c-1.643-3.177-1.317-7.665-2.286-11.148c-0.825-2.966-2.086-5.944-3.177-8.781
						c-1.363-3.547-2.906-6.785-4.923-9.968c-5.271-8.317-9.656-16.546-13.77-25.423c-3.088-6.663-7.244-14.458-13.601-18.255
						C581.81,46.899,572.646,46.821,572.646,46.821z"/>
				</g>
			</g>
			<g>
				<defs>
					<rect id="SVGID_57_" x="-0.334" y="-0.333" width="640.667" height="360.666"/>
				</defs>
				<clipPath id="SVGID_24_">
					<use xlink:href="#SVGID_57_"  overflow="visible"/>
				</clipPath>
				<path opacity="0.1" clip-path="url(#SVGID_24_)" fill="#D13C3D" enable-background="new    " d="M-71.945,5.195
					C-96.531,72.208-98.326,147.57-88.974,217.667c4.485,33.611,5.204,62.361,22.196,90.076
					c7.73,12.608,16.115,27.123,26.991,35.702c17.962,14.167,12.462,30.029,32.229,40.145
					c28.305,14.483,84.929,16.297,113.376,30.239c28.761,14.098,63.604,11.495,94.604,14.314
					c43.775,3.98,180.01-3.882,224.006-5.033c26.656-0.696,53.238-6.712,79.814-6.942c11.839-0.103,24.492,3.46,36.2-0.183
					c1.409-18.279-14.157-25.522-19.769-44.04c-10.898-35.96-262.887-57.236-287.656-64.454
					c-50.369-14.68-106.867-24.991-140.271-75.797C62.676,185.956,26.47,113.371,25.533,56.743
					c-0.473-28.637,21.691-85.41,2.78-104.185C-58.456-133.586-63.225-18.571-71.945,5.195z"/>
			</g>
			<g>
				<defs>
					<rect id="SVGID_59_" x="-0.334" y="-0.333" width="640.667" height="360.666"/>
				</defs>
				<clipPath id="SVGID_25_">
					<use xlink:href="#SVGID_59_"  overflow="visible"/>
				</clipPath>
				<path opacity="0.15" clip-path="url(#SVGID_25_)" fill="#D13C3D" enable-background="new    " d="M262.447,504.651
					c-47.116,27.638-103.161,33.095-156.598,27.244c-25.623-2.805-47.17-2.115-69.873-17.604
					c-10.327-7.047-22.154-14.648-29.848-25.01c-12.703-17.111-23.894-10.887-33.785-29.986
					c-14.164-27.347-22.223-83.379-36-110.894c-13.93-27.817-16.112-62.479-21.888-93.065
					c-8.155-43.194-18.419-178.604-22.77-222.266c-2.637-26.453-1.294-53.094-4.269-79.444c-1.325-11.739-5.482-24.107-4.15-35.889
					c13.48-2.288,20.73,12.786,35.218,17.445C-53.38-55.771-7.656,192.946,0.664,217.142
					c16.923,49.207,31.312,104.701,73.194,135.33c37.706,27.573,96.179,59.916,138.563,58.081
					c21.435-0.929,61.191-25.666,77.447-7.839C364.451,484.511,279.156,494.849,262.447,504.651z"/>
			</g>
		</g>
		<g>
			<g>
				<defs>
					<rect id="SVGID_61_" x="-0.001" y="-0.667" width="640.667" height="360.667"/>
				</defs>
				<clipPath id="SVGID_26_">
					<use xlink:href="#SVGID_61_"  overflow="visible"/>
				</clipPath>
				<path opacity="0.15" clip-path="url(#SVGID_26_)" fill="#D13C3D" enable-background="new    " d="M-71.611,11.944
					c-24.586,72.65-26.382,154.353-17.029,230.346c4.485,36.44,5.205,67.608,22.197,97.656c7.729,13.668,16.114,29.404,26.99,38.705
					c17.962,15.357,12.463,32.556,32.23,43.521c28.305,15.702,84.928,17.668,113.375,32.784
					c28.761,15.282,63.604,12.462,94.604,15.519c43.777,4.314,180.012-4.209,224.007-5.456c26.656-0.757,53.238-7.277,79.814-7.527
					c11.839-0.112,24.492,3.75,36.2-0.199c1.408-19.817-14.158-27.668-19.769-47.744c-10.897-38.985-262.887-62.052-287.655-69.877
					c-50.369-15.914-106.869-27.094-140.272-82.173C63.01,207.913,26.803,129.222,25.867,67.829
					C25.394,36.784,47.559-24.766,28.646-45.12C-58.123-138.512-62.892-13.821-71.611,11.944z"/>
				<path opacity="0.2" clip-path="url(#SVGID_26_)" fill="#D13C3D" enable-background="new    " d="M262.78,504.319
					c-47.116,27.637-103.161,33.094-156.598,27.244c-25.623-2.806-47.17-2.115-69.872-17.604
					c-10.328-7.047-22.155-14.647-29.848-25.009c-12.703-17.111-23.895-10.887-33.786-29.986
					c-14.163-27.348-22.222-83.379-36-110.895c-13.929-27.817-16.112-62.479-21.888-93.065
					c-8.155-43.194-18.418-178.604-22.77-222.265c-2.637-26.453-1.293-53.094-4.268-79.445c-1.326-11.739-5.483-24.107-4.15-35.889
					c13.479-2.288,20.729,12.787,35.217,17.445c28.135,9.047,73.858,257.763,82.18,281.959
					c16.922,49.206,31.311,104.7,73.193,135.328c37.706,27.574,96.18,59.917,138.563,58.082
					c21.435-0.928,61.192-25.666,77.447-7.838C364.785,484.178,279.49,494.516,262.78,504.319z"/>
			</g>
		</g>
		<g>
			<path opacity="0.2" fill="#11755B" enable-background="new    " d="M582.299,40.681c1.809,0.529,10.19,2.705,11.778,3.512
				c1.597,0.812-0.931,2.937-2.125,3.565c-2.347,1.238-11.765,0.787-16.653,1.973c-2.896,0.702-7.222,3.869-11.659,8.914
				c-3.504,3.983-3.104-1.131-3.563-2.466c-0.482-1.406,3.111-7.186-6.138-7.859c-5.595-0.408-9.088-5.538-2.58-7.416
				c2.827-0.816,5.719-1.309,8.597-1.926C562.901,38.347,569.435,36.922,582.299,40.681z"/>
			<path fill="#11755B" d="M552.855,39.934c1.004,6.456,12.138,4.497,18.269,5.122c3.919,0.4,7.722-0.053,11.56-0.506
				c2.441-0.288,7.808-0.304,9.27-1.799c-2.399-0.735-2.872-0.104-4.437-1.742c-1.567-1.641-3.399-2.897-4.406-4.864
				c-1.487-2.903-1.442-6.376-2.071-9.446c-0.604-2.947-1.285-5.561-1.295-8.529c-0.004-1.146,0.13-2.201,0.438-3.29
				c0.111-0.394,0.923-1.774,0.856-2.031c-0.274-1.047-1.296-0.948-2.84-1.001c-0.713-0.023-3.922-0.307-4.482,0.029
				c-0.879,0.526-0.58,2.455-0.846,3.213c-0.566,1.622-1.188,3.171-1.528,4.857c-0.923,4.578-2.628,9.664-5.425,13.842
				c-0.879,1.313-1.777,2.338-3.382,3.149c-2.063,1.046-6.071,2.809-8.57,2.663L552.855,39.934z"/>
			<path opacity="0.2" fill="#11755B" enable-background="new    " d="M552.855,39.934c1.004,6.456,12.138,4.497,18.269,5.122
				c3.919,0.4,7.722-0.053,11.56-0.506c-20.625-4.404-16.587-4.502-11.467-13.75c2.284-4.127,1.883-17.676,5.405-19.042
				c-1.165-0.06-2.554-0.091-2.904,0.118c-0.879,0.526-0.581,2.455-0.846,3.213c-0.567,1.622-1.188,3.171-1.528,4.857
				c-0.923,4.578-2.629,9.664-5.426,13.842c-0.879,1.313-1.777,2.338-3.381,3.149C560.473,37.983,552.855,39.934,552.855,39.934z"/>
		</g>
	</g>
</g>
<g id="圖層_1_6_">
	<g opacity="0.3" enable-background="new    ">
		<g>
			<defs>
				<rect id="SVGID_63_" x="0" y="-420" width="640" height="360"/>
			</defs>
			<clipPath id="SVGID_28_">
				<use xlink:href="#SVGID_63_"  overflow="visible"/>
			</clipPath>
			<g clip-path="url(#SVGID_28_)">
				<g opacity="0.819">
					<path fill="none" stroke="#096D52" stroke-width="4" stroke-miterlimit="10" d="M3.869-435.557c0,8.428-6.66,8.428-6.66,16.856
						c0,8.428,6.66,8.428,6.66,16.855s-6.66,8.428-6.66,16.856s6.66,8.429,6.66,16.856s-6.66,8.428-6.66,16.856
						s6.66,8.429,6.66,16.856s-6.66,8.428-6.66,16.856s6.66,8.429,6.66,16.856c0,8.429-6.66,8.429-6.66,16.856
						s6.66,8.428,6.66,16.854c0,8.429-6.66,8.429-6.66,16.855c0,8.429,6.66,8.429,6.66,16.857c0,8.428-6.66,8.428-6.66,16.855
						s6.66,8.428,6.66,16.856c0,8.428-6.66,8.428-6.66,16.855c0,8.429,6.66,8.429,6.66,16.856s-6.66,8.428-6.66,16.856
						s6.66,8.429,6.66,16.857s-6.66,8.429-6.66,16.858c0,8.428,6.66,8.428,6.66,16.856s-6.66,8.429-6.66,16.858
						c0,8.428,6.66,8.428,6.66,16.856s-6.66,8.429-6.66,16.857c0,8.43,6.66,8.43,6.66,16.858s-6.66,8.429-6.66,16.857
						c0,8.43,6.66,8.43,6.66,16.859s-6.66,8.43-6.66,16.86"/>
				</g>
				<g opacity="0.8286">
					<path fill="none" stroke="#096D52" stroke-width="4" stroke-miterlimit="10" d="M41.453-439.323
						c0,8.429-6.66,8.429-6.66,16.857c0,8.428,6.66,8.428,6.66,16.855s-6.66,8.428-6.66,16.855c0,8.429,6.66,8.429,6.66,16.857
						c0,8.428-6.66,8.428-6.66,16.855c0,8.429,6.66,8.429,6.66,16.857c0,8.428-6.66,8.428-6.66,16.855
						c0,8.429,6.66,8.429,6.66,16.856c0,8.429-6.66,8.429-6.66,16.856s6.66,8.428,6.66,16.855s-6.66,8.428-6.66,16.855
						s6.66,8.428,6.66,16.857c0,8.428-6.66,8.428-6.66,16.855s6.66,8.428,6.66,16.856s-6.66,8.429-6.66,16.855
						c0,8.429,6.66,8.429,6.66,16.856c0,8.429-6.66,8.428-6.66,16.856s6.66,8.429,6.66,16.857s-6.66,8.429-6.66,16.858
						c0,8.428,6.66,8.428,6.66,16.856s-6.66,8.429-6.66,16.858c0,8.428,6.66,8.428,6.66,16.856s-6.66,8.429-6.66,16.856
						c0,8.43,6.66,8.43,6.66,16.858s-6.66,8.429-6.66,16.858s6.66,8.43,6.66,16.859s-6.66,8.43-6.66,16.86"/>
				</g>
				<g opacity="0.8381">
					<path fill="none" stroke="#096D52" stroke-width="4" stroke-miterlimit="10" d="M79.037-443.089
						c0,8.428-6.66,8.428-6.66,16.856c0,8.428,6.66,8.428,6.66,16.856c0,8.428-6.66,8.428-6.66,16.855s6.66,8.428,6.66,16.856
						s-6.66,8.429-6.66,16.856c0,8.429,6.66,8.429,6.66,16.857c0,8.428-6.66,8.428-6.66,16.855s6.66,8.428,6.66,16.856
						s-6.66,8.429-6.66,16.856s6.66,8.428,6.66,16.854c0,8.429-6.66,8.429-6.66,16.855c0,8.429,6.66,8.429,6.66,16.857
						c0,8.428-6.66,8.428-6.66,16.855c0,8.429,6.66,8.429,6.66,16.856s-6.66,8.428-6.66,16.855c0,8.429,6.66,8.429,6.66,16.856
						c0,8.429-6.66,8.429-6.66,16.856c0,8.43,6.66,8.43,6.66,16.858s-6.66,8.429-6.66,16.856c0,8.43,6.66,8.43,6.66,16.858
						s-6.66,8.429-6.66,16.858c0,8.428,6.66,8.428,6.66,16.856s-6.66,8.429-6.66,16.856c0,8.43,6.66,8.43,6.66,16.858
						s-6.66,8.429-6.66,16.857c0,8.431,6.66,8.431,6.66,16.86s-6.66,8.43-6.66,16.859"/>
				</g>
				<g opacity="0.8476">
					<path fill="none" stroke="#096D52" stroke-width="4" stroke-miterlimit="10" d="M116.621-446.854
						c0,8.428-6.66,8.428-6.66,16.855c0,8.429,6.66,8.429,6.66,16.857c0,8.427-6.66,8.427-6.66,16.855
						c0,8.428,6.66,8.428,6.66,16.856s-6.66,8.429-6.66,16.856c0,8.429,6.66,8.429,6.66,16.856s-6.66,8.428-6.66,16.856
						c0,8.428,6.66,8.428,6.66,16.856s-6.66,8.429-6.66,16.856s6.66,8.428,6.66,16.854c0,8.429-6.66,8.429-6.66,16.855
						c0,8.429,6.66,8.429,6.66,16.858c0,8.427-6.66,8.427-6.66,16.855c0,8.428,6.66,8.428,6.66,16.855s-6.66,8.428-6.66,16.855
						s6.66,8.428,6.66,16.856s-6.66,8.429-6.66,16.856c0,8.429,6.66,8.429,6.66,16.857s-6.66,8.429-6.66,16.857
						s6.66,8.429,6.66,16.857c0,8.43-6.66,8.43-6.66,16.858s6.66,8.429,6.66,16.856c0,8.43-6.66,8.43-6.66,16.857
						c0,8.43,6.66,8.43,6.66,16.858s-6.66,8.429-6.66,16.857c0,8.43,6.66,8.43,6.66,16.86c0,8.43-6.66,8.43-6.66,16.859"/>
				</g>
				<g opacity="0.8571">
					<path fill="none" stroke="#096D52" stroke-width="4" stroke-miterlimit="10" d="M154.204-450.621
						c0,8.429-6.66,8.429-6.66,16.856s6.66,8.428,6.66,16.855c0,8.429-6.66,8.429-6.66,16.857c0,8.428,6.66,8.428,6.66,16.856
						c0,8.428-6.66,8.428-6.66,16.856c0,8.428,6.66,8.428,6.66,16.855c0,8.429-6.66,8.429-6.66,16.857
						c0,8.428,6.66,8.428,6.66,16.856s-6.66,8.429-6.66,16.856c0,8.427,6.66,8.427,6.66,16.854c0,8.428-6.66,8.428-6.66,16.855
						c0,8.43,6.66,8.43,6.66,16.857c0,8.429-6.66,8.429-6.66,16.855c0,8.429,6.66,8.429,6.66,16.857c0,8.428-6.66,8.428-6.66,16.855
						s6.66,8.428,6.66,16.856s-6.66,8.429-6.66,16.856c0,8.429,6.66,8.429,6.66,16.857s-6.66,8.429-6.66,16.857
						s6.66,8.429,6.66,16.857s-6.66,8.429-6.66,16.857s6.66,8.429,6.66,16.857s-6.66,8.429-6.66,16.857s6.66,8.429,6.66,16.857
						s-6.66,8.429-6.66,16.857c0,8.43,6.66,8.43,6.66,16.86c0,8.43-6.66,8.431-6.66,16.86"/>
				</g>
				<g opacity="0.8667">
					<path fill="none" stroke="#096D52" stroke-width="4" stroke-miterlimit="10" d="M191.787-454.387
						c0,8.428-6.66,8.428-6.66,16.856c0,8.428,6.66,8.428,6.66,16.855s-6.66,8.428-6.66,16.855c0,8.429,6.66,8.429,6.66,16.857
						c0,8.428-6.66,8.428-6.66,16.856s6.66,8.429,6.66,16.856c0,8.429-6.66,8.429-6.66,16.856s6.66,8.428,6.66,16.856
						c0,8.428-6.66,8.428-6.66,16.857c0,8.427,6.66,8.427,6.66,16.854c0,8.429-6.66,8.429-6.66,16.855
						c0,8.429,6.66,8.429,6.66,16.857c0,8.428-6.66,8.428-6.66,16.855c0,8.429,6.66,8.429,6.66,16.857
						c0,8.427-6.66,8.427-6.66,16.855c0,8.428,6.66,8.428,6.66,16.856c0,8.427-6.66,8.427-6.66,16.856
						c0,8.429,6.66,8.429,6.66,16.857s-6.66,8.429-6.66,16.857s6.66,8.429,6.66,16.857s-6.66,8.429-6.66,16.857
						s6.66,8.429,6.66,16.857c0,8.428-6.66,8.428-6.66,16.857c0,8.429,6.66,8.429,6.66,16.857s-6.66,8.429-6.66,16.857
						c0,8.43,6.66,8.43,6.66,16.859s-6.66,8.43-6.66,16.86"/>
				</g>
			</g>
		</g>
		<g>
			<defs>
				<rect id="SVGID_65_" x="0" y="-420" width="640" height="360"/>
			</defs>
			<clipPath id="SVGID_30_">
				<use xlink:href="#SVGID_65_"  overflow="visible"/>
			</clipPath>
			<g clip-path="url(#SVGID_30_)">
				<g opacity="0.8952">
					<path fill="none" stroke="#4B987E" stroke-width="4" stroke-miterlimit="10" d="M324.185-453.612
						c0,8.429-6.66,8.429-6.66,16.856s6.66,8.428,6.66,16.856c0,8.428-6.66,8.428-6.66,16.855c0,8.429,6.66,8.429,6.66,16.857
						c0,8.428-6.66,8.428-6.66,16.855c0,8.429,6.66,8.429,6.66,16.857c0,8.428-6.66,8.428-6.66,16.855
						c0,8.429,6.66,8.429,6.66,16.856c0,8.429-6.66,8.429-6.66,16.856s6.66,8.428,6.66,16.855s-6.66,8.428-6.66,16.855
						c0,8.429,6.66,8.429,6.66,16.857c0,8.427-6.66,8.427-6.66,16.855c0,8.428,6.66,8.428,6.66,16.856
						c0,8.428-6.66,8.428-6.66,16.855c0,8.429,6.66,8.429,6.66,16.856s-6.66,8.428-6.66,16.856s6.66,8.429,6.66,16.857
						c0,8.43-6.66,8.43-6.66,16.858c0,8.428,6.66,8.428,6.66,16.856c0,8.43-6.66,8.43-6.66,16.858c0,8.428,6.66,8.428,6.66,16.856
						c0,8.43-6.66,8.43-6.66,16.858c0,8.428,6.66,8.428,6.66,16.856c0,8.43-6.66,8.43-6.66,16.858c0,8.43,6.66,8.43,6.66,16.859
						s-6.66,8.43-6.66,16.86"/>
				</g>
				<g opacity="0.9048">
					<path fill="none" stroke="#4B987E" stroke-width="4" stroke-miterlimit="10" d="M361.768-450.914
						c0,8.429-6.66,8.429-6.66,16.856s6.66,8.428,6.66,16.855c0,8.429-6.66,8.429-6.66,16.856c0,8.429,6.66,8.429,6.66,16.857
						c0,8.428-6.66,8.428-6.66,16.855c0,8.429,6.66,8.429,6.66,16.856s-6.66,8.428-6.66,16.856s6.66,8.429,6.66,16.856
						s-6.66,8.428-6.66,16.856c0,8.428,6.66,8.428,6.66,16.854c0,8.428-6.66,8.428-6.66,16.855c0,8.43,6.66,8.43,6.66,16.857
						c0,8.429-6.66,8.429-6.66,16.855c0,8.429,6.66,8.429,6.66,16.857c0,8.427-6.66,8.427-6.66,16.855
						c0,8.428,6.66,8.428,6.66,16.855s-6.66,8.428-6.66,16.856s6.66,8.429,6.66,16.858c0,8.428-6.66,8.428-6.66,16.857
						c0,8.429,6.66,8.429,6.66,16.857s-6.66,8.429-6.66,16.857s6.66,8.429,6.66,16.857c0,8.428-6.66,8.428-6.66,16.856
						s6.66,8.429,6.66,16.858c0,8.429-6.66,8.429-6.66,16.857c0,8.43,6.66,8.43,6.66,16.859c0,8.431-6.66,8.431-6.66,16.86"/>
				</g>
				<g opacity="0.9143">
					<path fill="none" stroke="#4B987E" stroke-width="4" stroke-miterlimit="10" d="M399.352-448.216
						c0,8.428-6.66,8.428-6.66,16.856c0,8.428,6.66,8.428,6.66,16.855c0,8.429-6.66,8.429-6.66,16.856s6.66,8.428,6.66,16.856
						s-6.66,8.429-6.66,16.856s6.66,8.428,6.66,16.856s-6.66,8.429-6.66,16.856c0,8.429,6.66,8.429,6.66,16.857
						c0,8.428-6.66,8.428-6.66,16.856c0,8.427,6.66,8.427,6.66,16.854s-6.66,8.428-6.66,16.855s6.66,8.428,6.66,16.856
						c0,8.428-6.66,8.428-6.66,16.855c0,8.429,6.66,8.429,6.66,16.856s-6.66,8.428-6.66,16.855c0,8.429,6.66,8.429,6.66,16.857
						c0,8.428-6.66,8.428-6.66,16.855c0,8.43,6.66,8.43,6.66,16.857c0,8.43-6.66,8.43-6.66,16.858s6.66,8.429,6.66,16.857
						s-6.66,8.429-6.66,16.857s6.66,8.429,6.66,16.857s-6.66,8.429-6.66,16.857s6.66,8.429,6.66,16.858
						c0,8.428-6.66,8.428-6.66,16.857s6.66,8.43,6.66,16.859s-6.66,8.43-6.66,16.859"/>
				</g>
				<g opacity="0.9238">
					<path fill="none" stroke="#4B987E" stroke-width="4" stroke-miterlimit="10" d="M436.936-445.517
						c0,8.428-6.66,8.428-6.66,16.855s6.66,8.428,6.66,16.856c0,8.428-6.66,8.428-6.66,16.855c0,8.429,6.66,8.429,6.66,16.857
						c0,8.428-6.66,8.428-6.66,16.856c0,8.428,6.66,8.428,6.66,16.856s-6.66,8.429-6.66,16.856s6.66,8.428,6.66,16.856
						s-6.66,8.429-6.66,16.856s6.66,8.428,6.66,16.855c0,8.427-6.66,8.427-6.66,16.855c0,8.428,6.66,8.428,6.66,16.856
						c0,8.428-6.66,8.428-6.66,16.855c0,8.429,6.66,8.429,6.66,16.856s-6.66,8.428-6.66,16.855c0,8.429,6.66,8.429,6.66,16.857
						c0,8.428-6.66,8.428-6.66,16.855c0,8.43,6.66,8.43,6.66,16.857c0,8.43-6.66,8.43-6.66,16.857c0,8.43,6.66,8.43,6.66,16.857
						c0,8.43-6.66,8.43-6.66,16.858s6.66,8.429,6.66,16.856c0,8.429-6.66,8.429-6.66,16.857c0,8.43,6.66,8.43,6.66,16.857
						c0,8.429-6.66,8.429-6.66,16.858s6.66,8.43,6.66,16.859s-6.66,8.43-6.66,16.86"/>
				</g>
				<g opacity="0.9333">
					<path fill="none" stroke="#4B987E" stroke-width="4" stroke-miterlimit="10" d="M474.52-442.819
						c0,8.429-6.66,8.429-6.66,16.856s6.66,8.428,6.66,16.856c0,8.428-6.66,8.428-6.66,16.855c0,8.429,6.66,8.429,6.66,16.857
						c0,8.428-6.66,8.428-6.66,16.855c0,8.429,6.66,8.429,6.66,16.857c0,8.428-6.66,8.428-6.66,16.855
						c0,8.429,6.66,8.429,6.66,16.856c0,8.429-6.66,8.429-6.66,16.856s6.66,8.428,6.66,16.855s-6.66,8.428-6.66,16.855
						c0,8.429,6.66,8.429,6.66,16.857c0,8.428-6.66,8.428-6.66,16.855s6.66,8.428,6.66,16.855c0,8.429-6.66,8.429-6.66,16.856
						c0,8.429,6.66,8.429,6.66,16.856s-6.66,8.428-6.66,16.856s6.66,8.429,6.66,16.857s-6.66,8.429-6.66,16.857
						s6.66,8.429,6.66,16.857s-6.66,8.429-6.66,16.857s6.66,8.429,6.66,16.857s-6.66,8.429-6.66,16.856
						c0,8.43,6.66,8.43,6.66,16.858s-6.66,8.429-6.66,16.857c0,8.43,6.66,8.43,6.66,16.86c0,8.43-6.66,8.43-6.66,16.859"/>
				</g>
				<g opacity="0.9429">
					<path fill="none" stroke="#4B987E" stroke-width="4" stroke-miterlimit="10" d="M512.104-440.121
						c0,8.428-6.66,8.428-6.66,16.856c0,8.428,6.66,8.428,6.66,16.855s-6.66,8.428-6.66,16.856s6.66,8.429,6.66,16.856
						c0,8.429-6.66,8.429-6.66,16.856c0,8.429,6.66,8.429,6.66,16.856c0,8.429-6.66,8.429-6.66,16.856
						c0,8.429,6.66,8.429,6.66,16.856s-6.66,8.428-6.66,16.856c0,8.428,6.66,8.428,6.66,16.855c0,8.427-6.66,8.427-6.66,16.854
						c0,8.429,6.66,8.429,6.66,16.857c0,8.428-6.66,8.428-6.66,16.855s6.66,8.428,6.66,16.856c0,8.428-6.66,8.428-6.66,16.856
						c0,8.428,6.66,8.428,6.66,16.855s-6.66,8.428-6.66,16.856s6.66,8.429,6.66,16.858c0,8.428-6.66,8.428-6.66,16.857
						c0,8.429,6.66,8.429,6.66,16.857s-6.66,8.429-6.66,16.857s6.66,8.429,6.66,16.857c0,8.428-6.66,8.428-6.66,16.857
						c0,8.429,6.66,8.429,6.66,16.857s-6.66,8.429-6.66,16.857c0,8.43,6.66,8.43,6.66,16.859c0,8.432-6.66,8.432-6.66,16.861"/>
				</g>
				<g opacity="0.9524">
					<path fill="none" stroke="#4B987E" stroke-width="4" stroke-miterlimit="10" d="M549.686-437.423
						c0,8.428-6.66,8.428-6.66,16.856s6.66,8.429,6.66,16.856s-6.66,8.428-6.66,16.855c0,8.429,6.66,8.429,6.66,16.857
						c0,8.428-6.66,8.428-6.66,16.855c0,8.429,6.66,8.429,6.66,16.857c0,8.428-6.66,8.428-6.66,16.855
						c0,8.429,6.66,8.429,6.66,16.856c0,8.429-6.66,8.429-6.66,16.856s6.66,8.428,6.66,16.855c0,8.427-6.66,8.427-6.66,16.855
						c0,8.428,6.66,8.428,6.66,16.856c0,8.428-6.66,8.428-6.66,16.855c0,8.429,6.66,8.429,6.66,16.856s-6.66,8.428-6.66,16.855
						c0,8.429,6.66,8.429,6.66,16.856c0,8.429-6.66,8.429-6.66,16.856c0,8.429,6.66,8.429,6.66,16.857s-6.66,8.429-6.66,16.858
						c0,8.429,6.66,8.429,6.66,16.856c0,8.43-6.66,8.43-6.66,16.858s6.66,8.429,6.66,16.857s-6.66,8.429-6.66,16.857
						s6.66,8.429,6.66,16.858c0,8.428-6.66,8.428-6.66,16.856c0,8.431,6.66,8.431,6.66,16.86s-6.66,8.43-6.66,16.859"/>
				</g>
				<g opacity="0.9619">
					<path fill="none" stroke="#4B987E" stroke-width="4" stroke-miterlimit="10" d="M587.27-434.725
						c0,8.428-6.66,8.428-6.66,16.856c0,8.428,6.66,8.428,6.66,16.855s-6.66,8.428-6.66,16.856s6.66,8.429,6.66,16.856
						s-6.66,8.428-6.66,16.856c0,8.428,6.66,8.428,6.66,16.856c0,8.428-6.66,8.428-6.66,16.856s6.66,8.429,6.66,16.856
						s-6.66,8.428-6.66,16.856c0,8.428,6.66,8.428,6.66,16.854c0,8.428-6.66,8.428-6.66,16.855c0,8.429,6.66,8.429,6.66,16.857
						c0,8.428-6.66,8.428-6.66,16.855s6.66,8.428,6.66,16.856s-6.66,8.429-6.66,16.855c0,8.429,6.66,8.429,6.66,16.856
						c0,8.429-6.66,8.429-6.66,16.857c0,8.428,6.66,8.428,6.66,16.857c0,8.429-6.66,8.429-6.66,16.857s6.66,8.429,6.66,16.857
						s-6.66,8.429-6.66,16.857s6.66,8.429,6.66,16.857s-6.66,8.429-6.66,16.857s6.66,8.429,6.66,16.857s-6.66,8.429-6.66,16.857
						c0,8.43,6.66,8.43,6.66,16.859c0,8.431-6.66,8.431-6.66,16.86"/>
				</g>
				<g opacity="0.9714">
					<path fill="none" stroke="#4B987E" stroke-width="4" stroke-miterlimit="10" d="M624.854-432.026
						c0,8.428-6.66,8.428-6.66,16.855c0,8.429,6.66,8.429,6.66,16.856s-6.66,8.428-6.66,16.856c0,8.428,6.66,8.428,6.66,16.856
						s-6.66,8.429-6.66,16.856c0,8.429,6.66,8.429,6.66,16.857c0,8.428-6.66,8.428-6.66,16.856s6.66,8.429,6.66,16.855
						c0,8.429-6.66,8.429-6.66,16.856s6.66,8.428,6.66,16.855s-6.66,8.428-6.66,16.855s6.66,8.428,6.66,16.857
						c0,8.427-6.66,8.427-6.66,16.855c0,8.428,6.66,8.428,6.66,16.855s-6.66,8.428-6.66,16.856c0,8.428,6.66,8.428,6.66,16.856
						c0,8.428-6.66,8.428-6.66,16.855c0,8.43,6.66,8.43,6.66,16.857c0,8.43-6.66,8.43-6.66,16.857c0,8.43,6.66,8.43,6.66,16.857
						c0,8.43-6.66,8.43-6.66,16.858s6.66,8.429,6.66,16.856c0,8.429-6.66,8.429-6.66,16.857s6.66,8.429,6.66,16.857
						c0,8.43-6.66,8.43-6.66,16.857c0,8.431,6.66,8.431,6.66,16.861c0,8.43-6.66,8.43-6.66,16.859"/>
				</g>
			</g>
		</g>
	</g>
</g>
<g>
	<g>
		<defs>
			<rect id="SVGID_241_" x="757.358" y="253" width="358.75" height="82"/>
		</defs>
		<clipPath id="SVGID_31_">
			<use xlink:href="#SVGID_241_"  overflow="visible"/>
		</clipPath>
		<g clip-path="url(#SVGID_31_)">
			<defs>
				<rect id="SVGID_243_" x="730.923" y="231.006" width="433.536" height="149.028"/>
			</defs>
			<clipPath id="SVGID_32_">
				<use xlink:href="#SVGID_243_"  overflow="visible"/>
			</clipPath>
			<rect x="268.995" y="-375.251" clip-path="url(#SVGID_32_)" fill="#C16926" width="1358.748" height="764.914"/>
		</g>
	</g>
</g>
</svg>
