<?xml version="1.0" encoding="utf-8"?>
<!-- Generator: Adobe Illustrator 16.0.0, SVG Export Plug-In . SVG Version: 6.00 Build 0)  -->
<!DOCTYPE svg PUBLIC "-//W3C//DTD SVG 1.1//EN" "http://www.w3.org/Graphics/SVG/1.1/DTD/svg11.dtd">
<svg version="1.1" id="圖層_1" xmlns="http://www.w3.org/2000/svg" xmlns:xlink="http://www.w3.org/1999/xlink" x="0px" y="0px"
	 width="400px" height="180px" viewBox="0 0 400 180" enable-background="new 0 0 400 180" xml:space="preserve">
<g>
	<g>
		
			<path fill="#EFB91B" stroke="#EFB91B" stroke-width="1.5" stroke-linecap="round" stroke-linejoin="round" stroke-miterlimit="10" d="
			M207.948,94.634h-22.506c-2.016-0.008-2.768,6.083-3.158,8.254c-0.055,0.307-0.084,0.956-0.084,0.956h28.998
			C211.198,101.221,210.259,94.634,207.948,94.634z"/>
	</g>
	<g>
		
			<path fill="#EFB91B" stroke="#EFB91B" stroke-width="1.5" stroke-linecap="round" stroke-linejoin="round" stroke-miterlimit="10" d="
			M204.296,91.946h-15.201c-1.363-0.006-1.869,4.11-2.133,5.575c-0.039,0.209-0.059,0.647-0.059,0.647h19.592
			C206.495,96.396,205.858,91.946,204.296,91.946z"/>
	</g>
	<g>
		<g>
			
				<path fill="#EFB91B" stroke="#EFB91B" stroke-width="1.5" stroke-linecap="round" stroke-linejoin="round" stroke-miterlimit="10" d="
				M220.722,55.997c-0.156-1.361,0.818-2.589,2.178-2.744c1.361-0.155,2.592,0.82,2.744,2.179c0.084,0.714,0.152,1.442,0.201,2.198
				c0.043,0.692,0.068,1.438,0.068,2.234h0.006v0.007h-0.006c-0.002,8.396-3.332,15.013-8.717,19.535
				c-5.287,4.448-12.531,6.82-20.486,6.82v0.009h-0.01h-0.004v-0.009c-7.959,0-15.205-2.372-20.496-6.82
				c-5.381-4.522-8.713-11.139-8.713-19.535h-0.008v-0.007v-0.002h0.008c0-7.998,3.115-19.037,8.145-28.042
				c5.236-9.379,12.641-16.696,21.064-16.696v-0.01h0.004h0.004v0.01c2.342,0,4.609,0.562,6.771,1.577
				c1.375,0.646,2.699,1.47,3.957,2.432c6.223,4.755,11.383,13.305,14.643,22.056c0.475,1.281-0.176,2.702-1.453,3.18
				c-1.283,0.479-2.703-0.177-3.182-1.45c-2.971-7.979-7.57-15.691-13.01-19.848c-1.01-0.771-2.029-1.412-3.051-1.89
				c-1.525-0.714-3.09-1.114-4.676-1.114v0.009H196.7h-0.004v-0.009c-6.34,0.003-12.299,6.208-16.742,14.152
				c-4.646,8.323-7.523,18.416-7.523,25.643h0.01v0.002v0.007h-0.01c0,6.816,2.658,12.146,6.949,15.76
				c4.389,3.688,10.512,5.652,17.316,5.652v-0.007h0.004h0.01v0.007c6.801,0,12.92-1.965,17.307-5.652
				c4.293-3.613,6.953-8.943,6.953-15.76h-0.012v-0.007h0.012c0-0.59-0.025-1.232-0.068-1.924
				C220.858,57.311,220.8,56.661,220.722,55.997z"/>
			
				<path fill="#EFB91B" stroke="#EFB91B" stroke-width="1.5" stroke-linecap="round" stroke-linejoin="round" stroke-miterlimit="10" d="
				M190.224,48.475c1.213-0.624,2.707-0.148,3.334,1.064c0.627,1.216,0.148,2.713-1.064,3.339c-2.002,1.025-3.541,1.781-4.918,2.29
				l-0.004,0.004l0.004,0.005c-1.539,0.57-2.85,0.825-4.232,0.781c-1.979-0.064-3.609-0.781-5.229-1.489
				c-1.396-0.611-2.781-1.219-3.906-1.003h-0.004v0.004c-0.115,0.021-0.215,0.053-0.299,0.084c-0.096,0.036-0.174,0.072-0.236,0.114
				l0.004,0.01c-0.498,0.328-0.863,1.066-0.988,2.288c-0.139,1.359-1.355,2.35-2.711,2.208c-1.359-0.135-2.352-1.354-2.211-2.71
				c0.291-2.85,1.473-4.792,3.174-5.915l0.004,0.002l0.006-0.002c0.365-0.243,0.738-0.438,1.117-0.589
				c0.395-0.159,0.793-0.276,1.191-0.355l0,0l0.025-0.003c2.619-0.509,4.709,0.407,6.813,1.334c1.189,0.521,2.387,1.044,3.406,1.082
				c0.672,0.017,1.402-0.137,2.352-0.489l0.004,0.006C186.966,50.121,188.364,49.435,190.224,48.475z"/>
			
				<path fill="#EFB91B" stroke="#EFB91B" stroke-width="1.5" stroke-linecap="round" stroke-linejoin="round" stroke-miterlimit="10" d="
				M179.892,49.844c1.246,0.562,1.803,2.024,1.24,3.272c-0.561,1.247-2.027,1.8-3.277,1.24c-2.865-1.297-4.979-2.92-6.152-5.185
				c-1.197-2.314-1.318-5.086-0.145-8.601c0.434-1.293,1.838-1.991,3.131-1.559c1.295,0.435,1.992,1.834,1.563,3.133
				c-0.713,2.127-0.721,3.651-0.15,4.761C176.7,48.055,178.019,48.993,179.892,49.844z"/>
			
				<path fill="#EFB91B" stroke="#EFB91B" stroke-width="1.5" stroke-linecap="round" stroke-linejoin="round" stroke-miterlimit="10" d="
				M200.913,52.878c-1.215-0.626-1.691-2.123-1.064-3.339c0.625-1.212,2.119-1.688,3.332-1.064c1.861,0.96,3.26,1.646,4.373,2.059
				l0.002-0.006c0.951,0.353,1.68,0.506,2.35,0.489c1.02-0.037,2.217-0.561,3.406-1.082c2.107-0.927,4.197-1.843,6.816-1.334
				l0.021,0.003l0,0c0.402,0.079,0.797,0.196,1.191,0.355c0.379,0.152,0.752,0.346,1.117,0.589l0.008,0.002l0.002-0.002
				c1.701,1.123,2.883,3.065,3.176,5.915c0.141,1.357-0.852,2.575-2.211,2.71c-1.357,0.142-2.574-0.849-2.711-2.208
				c-0.127-1.222-0.49-1.96-0.988-2.288l0.004-0.01c-0.063-0.042-0.143-0.078-0.236-0.117c-0.082-0.028-0.182-0.06-0.299-0.081
				v-0.004h-0.006c-1.125-0.216-2.51,0.392-3.906,1.003c-1.617,0.708-3.246,1.425-5.227,1.487c-1.385,0.045-2.695-0.209-4.23-0.779
				l0.002-0.005l-0.002-0.004C204.454,54.659,202.913,53.908,200.913,52.878z"/>
		</g>
	</g>
	<line fill="none" stroke="#EFB91B" stroke-width="10" stroke-miterlimit="10" x1="196.64" y1="85.185" x2="196.64" y2="96.729"/>
	<g>
		
			<path fill="#F4E8D1" stroke="#F4E8D1" stroke-width="2" stroke-linecap="round" stroke-linejoin="round" stroke-miterlimit="10" d="
			M213.128,98.402h-32.869c-3.02-0.014-4.559,11.967-5.145,16.229c-0.082,0.608-0.125,1.884-0.125,1.884h43.422
			C218.411,111.356,216.587,98.402,213.128,98.402z"/>
	</g>
	<path fill="#EFB91B" d="M232.64,32.083c-0.348,0-0.633-0.282-0.633-0.632c0-0.349-0.281-0.632-0.631-0.632
		c-0.348,0-0.633,0.283-0.633,0.632c0,0.35-0.285,0.632-0.633,0.632c-0.35,0-0.633,0.284-0.633,0.634
		c0,0.348,0.283,0.632,0.633,0.632c0.348,0,0.633,0.286,0.633,0.632c0,0.351,0.285,0.634,0.633,0.634
		c0.35,0,0.631-0.283,0.631-0.634c0-0.346,0.285-0.632,0.633-0.632c0.35,0,0.631-0.284,0.631-0.632
		C233.271,32.367,232.989,32.083,232.64,32.083L232.64,32.083z M232.64,32.083"/>
	<path fill="#EFB91B" d="M175.231,89.851c-1.367,0-2.48-1.115-2.48-2.48c0-0.352-0.283-0.635-0.633-0.635s-0.631,0.284-0.631,0.635
		c0,1.366-1.113,2.48-2.482,2.48c-0.35,0-0.633,0.282-0.633,0.633c0,0.348,0.283,0.63,0.633,0.63c1.369,0,2.482,1.114,2.482,2.482
		c0,0.35,0.281,0.633,0.631,0.633s0.633-0.283,0.633-0.633c0-1.368,1.113-2.482,2.48-2.482c0.348,0,0.633-0.282,0.633-0.63
		C175.864,90.133,175.579,89.851,175.231,89.851L175.231,89.851z M172.118,91.514c-0.273-0.406-0.623-0.758-1.033-1.029
		c0.41-0.275,0.76-0.628,1.033-1.034c0.275,0.406,0.625,0.759,1.033,1.034C172.743,90.755,172.394,91.107,172.118,91.514
		L172.118,91.514z M172.118,91.514"/>
	<path fill="#EFB91B" d="M227.618,25.521c-1.162,0-2.107-0.947-2.107-2.11c0-0.349-0.283-0.631-0.633-0.631
		c-0.348,0-0.631,0.282-0.631,0.631c0,1.163-0.947,2.11-2.109,2.11c-0.348,0-0.633,0.283-0.633,0.631
		c0,0.348,0.285,0.633,0.633,0.633c1.162,0,2.109,0.945,2.109,2.106c0,0.351,0.283,0.634,0.631,0.634
		c0.35,0,0.633-0.283,0.633-0.634c0-1.161,0.945-2.106,2.107-2.106c0.35,0,0.635-0.285,0.635-0.633
		C228.253,25.804,227.968,25.521,227.618,25.521L227.618,25.521z M224.878,26.93c-0.213-0.3-0.477-0.563-0.775-0.777
		c0.299-0.215,0.563-0.478,0.775-0.775c0.215,0.299,0.477,0.561,0.777,0.775C225.354,26.367,225.093,26.63,224.878,26.93
		L224.878,26.93z M224.878,26.93"/>
	<g>
		
			<line fill="none" stroke="#595757" stroke-width="4" stroke-linecap="round" stroke-linejoin="round" stroke-miterlimit="10" x1="184.673" y1="103.924" x2="184.673" y2="112.285"/>
		
			<circle fill="none" stroke="#595757" stroke-width="4" stroke-linecap="round" stroke-linejoin="round" stroke-miterlimit="10" cx="193.597" cy="108.105" r="4.248"/>
		
			<circle fill="none" stroke="#595757" stroke-width="4" stroke-linecap="round" stroke-linejoin="round" stroke-miterlimit="10" cx="206.495" cy="108.105" r="4.248"/>
	</g>
</g>
<g>
	<g>
		<path fill="#F4E8D1" d="M87.957,149.184c0,1.605-0.35,3.061-1.05,4.366c-0.7,1.305-1.631,2.318-2.795,3.037
			c-0.807,0.498-1.706,0.858-2.699,1.08c-0.992,0.222-2.299,0.332-3.921,0.332H73.03v-17.667h4.414c1.725,0,3.096,0.124,4.111,0.373
			c1.017,0.25,1.877,0.592,2.581,1.026c1.202,0.752,2.14,1.753,2.812,3.002C87.621,145.984,87.957,147.467,87.957,149.184z
			 M85.501,149.148c0-1.384-0.241-2.551-0.724-3.5s-1.202-1.697-2.159-2.242c-0.696-0.396-1.436-0.671-2.219-0.825
			c-0.783-0.155-1.721-0.232-2.813-0.232H75.38v13.633h2.207c1.131,0,2.118-0.083,2.961-0.249c0.842-0.166,1.615-0.475,2.319-0.925
			c0.878-0.561,1.536-1.302,1.976-2.218C85.282,151.672,85.501,150.525,85.501,149.148z"/>
		<path fill="#F4E8D1" d="M103.698,158h-2.219v-1.412c-0.198,0.135-0.465,0.322-0.801,0.564c-0.337,0.241-0.663,0.433-0.979,0.576
			c-0.372,0.182-0.8,0.334-1.282,0.456c-0.482,0.124-1.047,0.185-1.695,0.185c-1.195,0-2.207-0.396-3.038-1.187
			c-0.831-0.791-1.246-1.799-1.246-3.026c0-1.003,0.216-1.816,0.647-2.437c0.43-0.621,1.045-1.11,1.844-1.466
			c0.808-0.355,1.776-0.597,2.908-0.724c1.131-0.127,2.345-0.221,3.643-0.285v-0.343c0-0.506-0.09-0.926-0.268-1.258
			s-0.434-0.593-0.766-0.783c-0.316-0.182-0.695-0.305-1.139-0.368c-0.443-0.063-0.906-0.095-1.389-0.095
			c-0.585,0-1.238,0.078-1.957,0.231c-0.721,0.154-1.464,0.378-2.23,0.671h-0.119v-2.267c0.436-0.118,1.064-0.249,1.887-0.392
			c0.822-0.142,1.633-0.213,2.432-0.213c0.934,0,1.746,0.077,2.439,0.231c0.691,0.154,1.291,0.418,1.797,0.789
			c0.498,0.364,0.878,0.835,1.139,1.412c0.262,0.578,0.393,1.294,0.393,2.148V158z M101.479,154.737v-3.69
			c-0.682,0.04-1.482,0.099-2.403,0.178s-1.651,0.194-2.188,0.345c-0.641,0.182-1.16,0.465-1.555,0.848
			c-0.396,0.384-0.594,0.912-0.594,1.584c0,0.76,0.229,1.331,0.688,1.715c0.458,0.384,1.159,0.575,2.101,0.575
			c0.783,0,1.498-0.151,2.146-0.456C100.323,155.53,100.925,155.164,101.479,154.737z"/>
		<path fill="#F4E8D1" d="M112.212,142.527h-2.516v-2.313h2.516V142.527z M112.069,158h-2.23v-13.254h2.23V158z"/>
		<path fill="#F4E8D1" d="M120.56,158h-2.23v-18.462h2.23V158z"/>
		<path fill="#F4E8D1" d="M138.259,144.746l-7.736,18.143h-2.385l2.469-5.529l-5.281-12.614h2.422l4.068,9.825l4.105-9.825H138.259z
			"/>
		<path fill="#F4E8D1" d="M166.845,150.904c0,1.281-0.141,2.399-0.422,3.353s-0.741,1.746-1.382,2.379
			c-0.609,0.601-1.321,1.04-2.136,1.316c-0.814,0.277-1.764,0.417-2.848,0.417c-1.107,0-2.072-0.147-2.895-0.44
			c-0.824-0.292-1.516-0.723-2.077-1.293c-0.641-0.648-1.102-1.432-1.382-2.35c-0.281-0.917-0.422-2.045-0.422-3.382v-10.571h2.35
			v10.691c0,0.957,0.064,1.712,0.195,2.266c0.131,0.554,0.351,1.056,0.658,1.507c0.349,0.514,0.821,0.901,1.418,1.162
			c0.598,0.262,1.315,0.392,2.154,0.392c0.846,0,1.566-0.128,2.159-0.386c0.593-0.257,1.067-0.646,1.424-1.168
			c0.309-0.451,0.528-0.968,0.659-1.549c0.13-0.581,0.195-1.302,0.195-2.165v-10.75h2.35V150.904z"/>
		<path fill="#F4E8D1" d="M179.382,158h-6.978v-1.804h2.313v-14.061h-2.313v-1.803h6.978v1.803h-2.314v14.061h2.314V158z"/>
		<path fill="#F4E8D1" d="M209.213,156.718c-0.435,0.19-0.829,0.367-1.181,0.534c-0.352,0.166-0.813,0.34-1.383,0.521
			c-0.482,0.15-1.006,0.279-1.572,0.386c-0.564,0.106-1.188,0.16-1.868,0.16c-1.281,0-2.446-0.18-3.494-0.54s-1.96-0.923-2.735-1.69
			c-0.76-0.752-1.352-1.708-1.779-2.866c-0.428-1.159-0.641-2.506-0.641-4.04c0-1.456,0.205-2.757,0.617-3.904
			c0.41-1.146,1.004-2.116,1.779-2.908c0.752-0.766,1.659-1.352,2.723-1.755c1.064-0.403,2.244-0.604,3.543-0.604
			c0.949,0,1.896,0.114,2.841,0.344s1.995,0.633,3.15,1.21v2.79h-0.179c-0.973-0.816-1.938-1.409-2.895-1.781
			s-1.981-0.558-3.072-0.558c-0.895,0-1.699,0.145-2.415,0.433c-0.716,0.289-1.354,0.738-1.917,1.347
			c-0.545,0.594-0.971,1.343-1.275,2.249c-0.305,0.905-0.457,1.952-0.457,3.139c0,1.242,0.168,2.31,0.505,3.203
			c0.336,0.894,0.769,1.623,1.3,2.184c0.553,0.585,1.199,1.019,1.939,1.299c0.74,0.282,1.521,0.42,2.344,0.42
			c1.131,0,2.19-0.193,3.18-0.581c0.988-0.387,1.914-0.969,2.776-1.744h0.166V156.718z"/>
		<path fill="#F4E8D1" d="M225.262,158h-2.231v-7.546c0-0.609-0.035-1.181-0.105-1.715c-0.072-0.534-0.202-0.951-0.393-1.252
			c-0.197-0.332-0.482-0.579-0.854-0.741c-0.373-0.162-0.854-0.243-1.448-0.243c-0.608,0-1.245,0.15-1.91,0.45
			c-0.665,0.301-1.302,0.685-1.91,1.151V158h-2.23v-18.462h2.23v6.68c0.696-0.578,1.416-1.029,2.159-1.353
			c0.744-0.325,1.508-0.486,2.29-0.486c1.432,0,2.523,0.431,3.274,1.293c0.752,0.862,1.128,2.104,1.128,3.726V158z"/>
		<path fill="#F4E8D1" d="M241.679,158h-2.219v-1.412c-0.197,0.135-0.465,0.322-0.801,0.564c-0.336,0.241-0.662,0.433-0.979,0.576
			c-0.373,0.182-0.8,0.334-1.282,0.456c-0.482,0.124-1.048,0.185-1.696,0.185c-1.195,0-2.207-0.396-3.037-1.187
			c-0.831-0.791-1.246-1.799-1.246-3.026c0-1.003,0.215-1.816,0.646-2.437c0.431-0.621,1.046-1.11,1.845-1.466
			c0.808-0.355,1.776-0.597,2.907-0.724s2.346-0.221,3.643-0.285v-0.343c0-0.506-0.089-0.926-0.268-1.258
			c-0.178-0.332-0.433-0.593-0.765-0.783c-0.316-0.182-0.696-0.305-1.14-0.368c-0.443-0.063-0.905-0.095-1.388-0.095
			c-0.585,0-1.238,0.078-1.958,0.231c-0.72,0.154-1.463,0.378-2.23,0.671h-0.119v-2.267c0.436-0.118,1.064-0.249,1.887-0.392
			c0.822-0.142,1.634-0.213,2.433-0.213c0.933,0,1.746,0.077,2.438,0.231c0.691,0.154,1.291,0.418,1.797,0.789
			c0.499,0.364,0.879,0.835,1.14,1.412c0.261,0.578,0.392,1.294,0.392,2.148V158z M239.46,154.737v-3.69
			c-0.681,0.04-1.481,0.099-2.402,0.178c-0.922,0.079-1.652,0.194-2.189,0.345c-0.641,0.182-1.159,0.465-1.555,0.848
			c-0.396,0.384-0.594,0.912-0.594,1.584c0,0.76,0.23,1.331,0.689,1.715c0.458,0.384,1.158,0.575,2.1,0.575
			c0.783,0,1.499-0.151,2.147-0.456C238.305,155.53,238.906,155.164,239.46,154.737z"/>
		<path fill="#F4E8D1" d="M250.05,158h-2.23v-18.462h2.23V158z"/>
		<path fill="#F4E8D1" d="M258.541,158h-2.23v-18.462h2.23V158z"/>
		<path fill="#F4E8D1" d="M275.872,151.604h-9.766c0,0.815,0.123,1.524,0.367,2.13c0.246,0.605,0.582,1.102,1.01,1.489
			c0.41,0.38,0.899,0.664,1.465,0.854c0.565,0.189,1.188,0.284,1.869,0.284c0.901,0,1.809-0.179,2.723-0.54
			c0.914-0.36,1.564-0.713,1.951-1.062h0.119v2.433c-0.752,0.317-1.519,0.581-2.302,0.795c-0.783,0.213-1.606,0.32-2.468,0.32
			c-2.199,0-3.916-0.594-5.149-1.786c-1.234-1.191-1.851-2.881-1.851-5.072c0-2.167,0.591-3.888,1.773-5.161
			c1.182-1.274,2.738-1.911,4.669-1.911c1.788,0,3.166,0.521,4.135,1.566c0.969,1.044,1.454,2.528,1.454,4.449V151.604z
			 M273.7,149.896c-0.008-1.171-0.303-2.077-0.884-2.718s-1.466-0.96-2.651-0.96c-1.195,0-2.146,0.352-2.854,1.055
			c-0.709,0.704-1.109,1.578-1.205,2.623H273.7z"/>
		<path fill="#F4E8D1" d="M292.158,158h-2.231v-7.546c0-0.609-0.035-1.181-0.105-1.715c-0.072-0.534-0.202-0.951-0.393-1.252
			c-0.197-0.332-0.482-0.579-0.854-0.741c-0.373-0.162-0.854-0.243-1.448-0.243c-0.608,0-1.245,0.15-1.91,0.45
			c-0.665,0.301-1.302,0.685-1.91,1.151V158h-2.23v-13.254h2.23v1.472c0.696-0.578,1.416-1.029,2.159-1.353
			c0.744-0.325,1.508-0.486,2.29-0.486c1.432,0,2.523,0.431,3.274,1.293c0.752,0.862,1.128,2.104,1.128,3.726V158z"/>
		<path fill="#F4E8D1" d="M309.025,156.493c0,2.246-0.511,3.896-1.53,4.948c-1.021,1.052-2.591,1.578-4.711,1.578
			c-0.704,0-1.391-0.049-2.059-0.148c-0.668-0.099-1.326-0.24-1.975-0.422v-2.278h0.117c0.364,0.143,0.941,0.318,1.732,0.528
			s1.582,0.314,2.373,0.314c0.76,0,1.389-0.091,1.887-0.272c0.499-0.182,0.887-0.436,1.163-0.76
			c0.276-0.309,0.475-0.681,0.593-1.115c0.119-0.435,0.179-0.922,0.179-1.46v-1.21c-0.673,0.538-1.315,0.939-1.929,1.204
			c-0.612,0.265-1.394,0.398-2.343,0.398c-1.582,0-2.838-0.571-3.767-1.714c-0.93-1.144-1.395-2.755-1.395-4.835
			c0-1.139,0.16-2.122,0.48-2.949c0.32-0.826,0.758-1.54,1.311-2.142c0.515-0.561,1.139-0.998,1.875-1.311
			c0.736-0.313,1.467-0.469,2.195-0.469c0.768,0,1.41,0.077,1.928,0.231s1.066,0.39,1.644,0.706l0.142-0.57h2.089V156.493z
			 M306.795,154.357v-7.226c-0.593-0.27-1.146-0.461-1.655-0.576c-0.51-0.114-1.019-0.172-1.525-0.172
			c-1.226,0-2.19,0.411-2.895,1.234c-0.704,0.822-1.056,2.017-1.056,3.583c0,1.487,0.261,2.615,0.782,3.382
			c0.523,0.768,1.389,1.15,2.6,1.15c0.648,0,1.299-0.124,1.951-0.373C305.649,155.11,306.249,154.776,306.795,154.357z"/>
		<path fill="#F4E8D1" d="M326.332,151.604h-9.765c0,0.815,0.122,1.524,0.367,2.13s0.582,1.102,1.009,1.489
			c0.411,0.38,0.899,0.664,1.466,0.854c0.564,0.189,1.188,0.284,1.868,0.284c0.901,0,1.81-0.179,2.724-0.54
			c0.913-0.36,1.563-0.713,1.951-1.062h0.119v2.433c-0.752,0.317-1.52,0.581-2.303,0.795c-0.783,0.213-1.605,0.32-2.467,0.32
			c-2.199,0-3.916-0.594-5.15-1.786c-1.234-1.191-1.851-2.881-1.851-5.072c0-2.167,0.591-3.888,1.774-5.161
			c1.182-1.274,2.738-1.911,4.668-1.911c1.788,0,3.166,0.521,4.135,1.566c0.969,1.044,1.454,2.528,1.454,4.449V151.604z
			 M324.161,149.896c-0.008-1.171-0.303-2.077-0.885-2.718c-0.581-0.641-1.465-0.96-2.651-0.96c-1.194,0-2.146,0.352-2.854,1.055
			c-0.708,0.704-1.109,1.578-1.204,2.623H324.161z"/>
	</g>
</g>
</svg>
