<?xml version="1.0" encoding="utf-8"?>
<!-- Generator: Adobe Illustrator 16.0.0, SVG Export Plug-In . SVG Version: 6.00 Build 0)  -->
<!DOCTYPE svg PUBLIC "-//W3C//DTD SVG 1.1//EN" "http://www.w3.org/Graphics/SVG/1.1/DTD/svg11.dtd">
<svg version="1.1" id="圖層_1" xmlns="http://www.w3.org/2000/svg" xmlns:xlink="http://www.w3.org/1999/xlink" x="0px" y="0px"
	 width="350px" height="120px" viewBox="0 0 350 120" enable-background="new 0 0 350 120" xml:space="preserve">
<g>
	<g>
		<path fill="#DF7517" d="M174.996,85.567c-10.121,0-15.718-2.009-16.185-5.807c-0.167-1.376,0.136-2.429,0.933-3.218
			c1.389-1.377,3.862-1.628,8.229-1.628c0.91,0,1.896,0.01,2.963,0.022c1.241,0.014,2.594,0.025,4.054,0.025
			c1.011,0,1.972-0.002,2.883-0.008c0.83-0.004,1.621-0.007,2.372-0.007c4.861,0,8.431,0.129,10.071,1.8
			c0.763,0.772,1.051,1.796,0.859,3.044C190.599,83.569,185.002,85.567,174.996,85.567z"/>
		<g>
			<path fill="#4C2E2C" d="M190.058,75.327c0,0.583-0.589,1.058-1.317,1.058h-27.483c-0.726,0-1.314-0.475-1.314-1.058v-0.726
				c0-0.584,0.588-1.058,1.314-1.058h27.483c0.728,0,1.317,0.473,1.317,1.058V75.327z"/>
			<path fill="#4C2E2C" d="M188.74,77.441h-27.483c-1.467,0-2.659-0.948-2.659-2.114v-0.726c0-1.167,1.192-2.113,2.659-2.113h27.483
				c1.467,0,2.659,0.947,2.659,2.113v0.726C191.399,76.494,190.208,77.441,188.74,77.441z M161.257,74.601l0.028,0.726h27.426
				l0.003-0.726H161.257z"/>
		</g>
		<g>
			<path fill="#F1AD16" d="M160.398,71.799h29.384c0,0-1.076,1.073-2.614,1.4c-1.716,0.364-2.773,0.997-3.346,1.735
				c-0.923,1.193-0.868-1.619-3.433-1.619c-1.368,0-1.838,0.675-2.154,0.891c-0.259,0.177-0.558-0.092-0.873-0.362
				c-1.658-1.428-2.216-1.475-4.479-1.519C164.537,72.165,159.142,72.651,160.398,71.799z"/>
			<path fill="#F1AD16" d="M183.409,76.571c-0.911,0-1.394-0.646-1.715-1.076c-0.412-0.55-0.658-0.838-1.304-0.838
				c-0.578,0-0.773,0.17-1.021,0.385c-0.122,0.107-0.23,0.197-0.327,0.262c-0.291,0.198-0.631,0.302-0.985,0.302
				c-0.739,0-1.257-0.445-1.598-0.739c-1.343-1.156-1.512-1.159-3.604-1.199c-2.854-0.054-5.361-0.033-7.373-0.017
				c-0.844,0.006-1.577,0.034-2.262,0.013c-2.534,0-3.932-0.004-4.333-1.221c-0.079-0.243-0.263-1.084,0.705-1.743
				c0.234-0.159,0.517-0.245,0.805-0.651h29.384c0.56,0.406,1.065,0.729,1.285,1.225c0.219,0.497,0.11,1.069-0.279,1.458
				c-0.142,0.14-1.423,1.376-3.319,1.778c-1.559,0.331-2.234,0.849-2.526,1.227C184.514,76.291,183.998,76.571,183.409,76.571z"/>
		</g>
		<g>
			<g>
				<path fill="#DE3C3D" d="M175.992,70.492c-0.081,0.944-0.766,1.655-1.531,1.589l-13.778-1.194
					c-0.766-0.064-1.322-0.883-1.241-1.826l0.099-1.174c0.081-0.944,0.766-1.654,1.531-1.589l13.78,1.193
					c0.766,0.066,1.321,0.884,1.24,1.827L175.992,70.492z"/>
			</g>
			<g>
				<path fill="#DE3C3D" d="M190.438,70.839c-0.17,0.928-0.92,1.566-1.675,1.424l-13.599-2.539c-0.756-0.14-1.23-1.008-1.06-1.932
					l0.21-1.156c0.17-0.928,0.921-1.566,1.676-1.424l13.6,2.541c0.756,0.139,1.231,1.005,1.06,1.933L190.438,70.839z"/>
			</g>
		</g>
		<path fill="#1E8A6A" d="M178.526,68.705c-0.668,0-1.392-0.097-2.276-0.308c-0.495-0.117-0.892-0.254-1.213-0.364
			c-0.474-0.166-0.695-0.236-0.996-0.236c-0.439,0-1.114,0.16-2.007,0.476c-0.786,0.277-1.502,0.412-2.192,0.412
			c-1.173,0-2.007-0.383-2.741-0.722c-0.581-0.27-1.128-0.521-1.9-0.625c-0.715-0.097-1.252,0.056-1.99,0.277
			c-0.547,0.165-1.167,0.351-1.946,0.452c-1.342,0.174-2.724-0.305-3.407-1.171c-0.639-0.81-0.586-1.818,0.138-2.701
			c1.226-1.49,2.759-2.156,4.97-2.156c0.929,0,1.938,0.107,3.103,0.231c0.382,0.025,3.828,0.232,8.782,0.232
			c3.817,0,7.56-0.121,11.125-0.356l0,0c-0.002,0,0.324-0.025,0.82-0.025c2.913,0,4.92,0.813,5.504,2.232
			c0.466,1.125,0.365,2.025-0.3,2.668c-0.402,0.389-1.185,0.853-2.647,0.853c-0.792,0-1.711-0.146-2.583-0.411
			c-0.372-0.113-1.138-0.301-2.087-0.301c-1.04,0-2.007,0.229-2.875,0.679C180.657,68.438,179.645,68.705,178.526,68.705z"/>
		<g>
			<path fill="#F0D795" d="M162.676,57.286h24.647c2.015,0,3.655,1.638,3.655,3.653c0,2.013-1.64,3.653-3.655,3.653h-24.647
				c-2.015,0-3.654-1.64-3.654-3.653C159.022,58.924,160.662,57.286,162.676,57.286z M187.323,61.976
				c0.573,0,1.038-0.466,1.038-1.037c0-0.572-0.465-1.035-1.038-1.035h-24.647c-0.572,0-1.037,0.463-1.037,1.035
				c0,0.571,0.465,1.037,1.037,1.037l3.09,0.875l6.034-0.222l10.063,0.096l1.743-0.096L187.323,61.976z"/>
			<path fill="#F0D795" d="M161.11,63.645h27.089l1.961-2.884c-0.61-0.169-0.677-1.351-1.588-1.38
				c-2.164-0.052-3.973,1.508-4.989,1.964c-0.845,0.38-1.501,0.684-2.979,0.633c-1.469-0.045-2.122-0.385-2.946-0.815
				c-0.995-0.518-2.12-1.105-4.288-1.173c-2.173-0.06-3.32,0.449-4.334,0.905c-0.843,0.378-1.51,0.679-2.977,0.633
				c-1.292-0.04-1.835-0.483-2.657-1.153c-0.765-0.623-1.676-1.358-3.116-1.701v4.41C160.569,63.234,160.831,63.422,161.11,63.645z"
				/>
		</g>
		<g>
			<path fill="#DF7517" d="M175,45.642c-8.777,0-16.192,4.349-16.192,11.086c0,1.588,0.714,3.675,4.116,4.582
				c1.997,0.533,4.621,0.641,8.208,0.641c0.607,0,1.227-0.002,1.859-0.005c1.542-0.007,3.176-0.004,4.692,0.009
				c0.828,0.006,1.631,0.014,2.405,0.014c4.686,0,11.103,0,11.103-5.241C191.192,49.991,183.776,45.642,175,45.642z M169.397,54.782
				c-0.616,0.617-1.616,0.617-2.232,0c-0.617-0.615-0.617-1.614,0-2.232c0.616-0.616,3.19-0.958,3.19-0.958
				S170.014,54.167,169.397,54.782z M175,56.788c-0.873,0-1.58-0.708-1.58-1.58c0-0.873,1.58-2.932,1.58-2.932
				s1.579,2.06,1.579,2.932C176.579,56.08,175.873,56.788,175,56.788z M182.837,54.782c-0.618,0.617-1.618,0.617-2.234,0
				c-0.616-0.615-0.958-3.19-0.958-3.19s2.574,0.342,3.192,0.958C183.454,53.168,183.454,54.167,182.837,54.782z"/>
			<g>
				<polygon fill="#F5A200" points="178.625,34.983 183.264,34.811 183.254,42.118 178.625,42.507 				"/>
				<g>
					<defs>
						<polygon id="SVGID_49_" points="178.625,34.983 183.264,34.811 183.254,42.118 178.625,42.507 						"/>
					</defs>
					<clipPath id="SVGID_2_">
						<use xlink:href="#SVGID_49_"  overflow="visible"/>
					</clipPath>
					<g clip-path="url(#SVGID_2_)">
						<path fill="#4A2E2C" d="M180.834,39.159c-0.012-0.103,0.063-0.202,0.167-0.218c0.102-0.018,0.197,0.052,0.208,0.154
							c0.006,0.055,0.012,0.11,0.016,0.168c0.003,0.051,0.004,0.108,0.004,0.169h0.001l0,0h-0.001c0,0.641-0.253,1.156-0.664,1.524
							c-0.403,0.362-0.956,0.571-1.56,0.602l0,0h-0.003l0,0l0,0c-0.606,0.032-1.16-0.12-1.561-0.438
							c-0.41-0.324-0.664-0.815-0.664-1.454h-0.001v-0.002l0,0h0.001c0-0.609,0.237-1.462,0.621-2.17
							c0.399-0.735,0.964-1.322,1.604-1.355v-0.001l0,0h0.003v0.001c0.177-0.01,0.35,0.023,0.514,0.093
							c0.106,0.043,0.207,0.101,0.302,0.168c0.475,0.338,0.811,0.838,1.059,1.493c0.038,0.096-0.013,0.207-0.111,0.249
							c-0.097,0.041-0.206-0.003-0.241-0.098c-0.227-0.596-0.522-1.035-0.937-1.332c-0.077-0.055-0.154-0.098-0.232-0.131
							c-0.116-0.049-0.236-0.072-0.354-0.065l0,0h-0.003l0,0l0,0c-0.483,0.026-0.936,0.522-1.275,1.145
							c-0.352,0.653-0.573,1.434-0.573,1.984h0.001l0,0v0.002h-0.001c0,0.52,0.202,0.915,0.531,1.174
							c0.333,0.263,0.801,0.389,1.318,0.361l0,0l0,0l0.003-0.001v0.001c0.517-0.027,0.983-0.202,1.319-0.5
							c0.326-0.292,0.529-0.709,0.529-1.23l0,0l0,0l0,0c0-0.045-0.001-0.093-0.005-0.147
							C180.844,39.258,180.839,39.209,180.834,39.159z"/>
						<path fill="#4A2E2C" d="M178.508,38.707c0.095-0.052,0.207-0.021,0.256,0.068c0.048,0.09,0.01,0.206-0.081,0.259
							c-0.153,0.087-0.271,0.149-0.376,0.194l0,0l0,0c-0.116,0.051-0.217,0.074-0.321,0.076c-0.152,0.005-0.275-0.044-0.399-0.09
							c-0.107-0.042-0.212-0.083-0.297-0.062h-0.002l0,0c-0.007,0.003-0.017,0.004-0.022,0.007
							c-0.006,0.005-0.012,0.006-0.018,0.011l0,0c-0.038,0.028-0.066,0.085-0.076,0.177c-0.011,0.105-0.104,0.185-0.206,0.18
							c-0.104-0.005-0.179-0.093-0.169-0.198c0.021-0.22,0.113-0.373,0.242-0.465l0,0h0.001c0.027-0.019,0.055-0.034,0.084-0.048
							c0.029-0.013,0.06-0.024,0.09-0.032l0,0h0.001c0.201-0.051,0.361,0.011,0.521,0.074c0.09,0.036,0.182,0.07,0.259,0.069
							c0.052-0.001,0.108-0.017,0.179-0.046l0,0C178.262,38.845,178.367,38.787,178.508,38.707z"/>
						<path fill="#4A2E2C" d="M177.721,38.851c0.096,0.04,0.138,0.15,0.093,0.246c-0.042,0.096-0.153,0.146-0.248,0.107
							c-0.22-0.088-0.38-0.202-0.472-0.37c-0.089-0.172-0.098-0.383-0.011-0.656c0.034-0.1,0.142-0.16,0.24-0.13
							c0.099,0.027,0.151,0.131,0.12,0.232c-0.056,0.165-0.056,0.281-0.011,0.362C177.477,38.729,177.578,38.795,177.721,38.851z"/>
						<path fill="#4A2E2C" d="M179.324,39.001c-0.092-0.044-0.129-0.157-0.081-0.251c0.048-0.096,0.162-0.138,0.255-0.096
							c0.142,0.066,0.248,0.114,0.333,0.139l0,0c0.073,0.024,0.127,0.032,0.178,0.028c0.078-0.005,0.17-0.051,0.26-0.096
							c0.161-0.079,0.321-0.157,0.52-0.129h0.002l0,0c0.031,0.004,0.062,0.011,0.091,0.024c0.028,0.009,0.057,0.022,0.084,0.039
							h0.001l0,0c0.13,0.079,0.219,0.222,0.242,0.438c0.011,0.104-0.064,0.2-0.168,0.216c-0.104,0.017-0.196-0.055-0.207-0.157
							c-0.01-0.093-0.036-0.148-0.075-0.171l0,0c-0.005-0.002-0.01-0.005-0.018-0.008c-0.006-0.002-0.014-0.003-0.023-0.006l0,0h0
							c-0.085-0.013-0.19,0.04-0.297,0.093c-0.123,0.062-0.246,0.121-0.399,0.134c-0.105,0.009-0.205-0.007-0.321-0.043l0,0l0,0
							C179.594,39.12,179.476,39.07,179.324,39.001z"/>
					</g>
				</g>
				<g>
					<line fill="#4A2E2C" x1="174.782" y1="34.677" x2="174.782" y2="47.771"/>
					<path fill="#4A2E2C" d="M174.482,47.771V34.677c0-0.134,0.234-0.244,0.518-0.244c0.285,0,0.516,0.109,0.516,0.244v13.093
						c0,0.135-0.231,0.245-0.516,0.245C174.716,48.015,174.482,47.906,174.482,47.771z"/>
				</g>
				<polygon fill="#EFB91B" points="174.482,35.183 179.001,35.35 178.991,43.023 174.482,43.083 				"/>
				<polygon fill="#EE7800" points="179.001,35.35 178.625,34.983 178.625,35.334 				"/>
				<g>
					<defs>
						<polygon id="SVGID_51_" points="174.482,35.183 179.001,35.35 178.991,43.023 174.482,43.083 						"/>
					</defs>
					<clipPath id="SVGID_4_">
						<use xlink:href="#SVGID_51_"  overflow="visible"/>
					</clipPath>
					<g clip-path="url(#SVGID_4_)">
						<path fill="#4A2E2C" d="M180.759,39.397c-0.012-0.103,0.063-0.202,0.167-0.218c0.103-0.017,0.198,0.052,0.209,0.156
							c0.006,0.054,0.011,0.108,0.015,0.166c0.002,0.052,0.006,0.108,0.006,0.169l0,0l0,0l0,0c0,0.641-0.256,1.158-0.666,1.524
							c-0.404,0.361-0.955,0.571-1.562,0.604v0.001h0l0,0v-0.001c-0.607,0.032-1.16-0.12-1.563-0.439
							c-0.41-0.324-0.663-0.814-0.663-1.454h-0.001l0,0l0,0h0.001c0-0.61,0.236-1.465,0.62-2.171
							c0.399-0.736,0.965-1.323,1.606-1.356v-0.001l0,0h0v0.001c0.179-0.009,0.351,0.023,0.516,0.093
							c0.106,0.043,0.206,0.101,0.302,0.17c0.474,0.337,0.811,0.838,1.059,1.492c0.037,0.097-0.012,0.209-0.11,0.25
							c-0.098,0.041-0.207-0.002-0.242-0.098c-0.228-0.597-0.521-1.036-0.936-1.331c-0.076-0.056-0.154-0.1-0.231-0.133
							c-0.118-0.048-0.236-0.071-0.358-0.066v0.001h0l0,0v-0.001c-0.483,0.025-0.938,0.521-1.275,1.147
							c-0.355,0.652-0.575,1.433-0.575,1.984l0,0l0,0l0,0l0,0c0,0.52,0.201,0.915,0.529,1.174c0.335,0.265,0.803,0.389,1.321,0.362
							v-0.001l0,0l0-0.001v0.002c0.519-0.028,0.985-0.203,1.32-0.501c0.328-0.292,0.528-0.709,0.528-1.229l0,0v-0.001l0,0
							c0-0.045-0.001-0.092-0.005-0.146C180.769,39.497,180.765,39.448,180.759,39.397z"/>
						<path fill="#4A2E2C" d="M178.435,38.944c0.093-0.051,0.206-0.022,0.254,0.07c0.047,0.089,0.01,0.204-0.082,0.259
							c-0.153,0.085-0.27,0.148-0.375,0.192l0,0l0,0c-0.116,0.05-0.217,0.074-0.323,0.078c-0.15,0.002-0.273-0.046-0.397-0.095
							c-0.107-0.04-0.212-0.082-0.298-0.06l0,0l0,0c-0.008,0.001-0.017,0.003-0.022,0.009c-0.006,0.002-0.013,0.005-0.019,0.009l0,0
							c-0.038,0.028-0.065,0.084-0.075,0.179c-0.009,0.104-0.104,0.184-0.207,0.179c-0.104-0.005-0.179-0.093-0.168-0.198
							c0.021-0.218,0.113-0.372,0.243-0.463l0,0l0,0c0.027-0.021,0.055-0.036,0.084-0.048c0.031-0.015,0.061-0.025,0.091-0.033l0,0
							h0.002c0.2-0.05,0.358,0.011,0.521,0.075c0.089,0.035,0.18,0.069,0.259,0.068c0.05,0,0.106-0.016,0.179-0.046v0.001
							C178.188,39.083,178.292,39.026,178.435,38.944z"/>
						<path fill="#4A2E2C" d="M177.648,39.091c0.094,0.038,0.138,0.147,0.094,0.245c-0.045,0.097-0.154,0.144-0.25,0.107
							c-0.219-0.089-0.381-0.203-0.472-0.371c-0.09-0.171-0.099-0.383-0.01-0.656c0.034-0.099,0.14-0.157,0.238-0.13
							c0.1,0.028,0.153,0.13,0.12,0.233c-0.053,0.165-0.054,0.281-0.011,0.362C177.403,38.967,177.503,39.033,177.648,39.091z"/>
						<path fill="#4A2E2C" d="M179.25,39.238c-0.092-0.043-0.13-0.156-0.081-0.249c0.048-0.096,0.161-0.138,0.254-0.094
							c0.14,0.063,0.249,0.111,0.333,0.136l0,0c0.073,0.024,0.128,0.035,0.179,0.029c0.078-0.006,0.169-0.051,0.26-0.096
							c0.16-0.079,0.321-0.158,0.519-0.13h0.003l0,0c0.028,0.006,0.059,0.013,0.088,0.023c0.03,0.011,0.059,0.024,0.085,0.041h0.002
							l0,0c0.129,0.079,0.22,0.222,0.242,0.438c0.009,0.103-0.064,0.199-0.169,0.215c-0.104,0.017-0.197-0.055-0.207-0.158
							c-0.009-0.093-0.036-0.146-0.074-0.169l0,0c-0.004-0.004-0.011-0.005-0.019-0.009c-0.004-0.001-0.013-0.003-0.021-0.005l0,0
							h-0.002c-0.086-0.011-0.19,0.041-0.298,0.091c-0.124,0.063-0.248,0.122-0.398,0.135c-0.106,0.01-0.206-0.005-0.323-0.042
							v-0.001l0,0C179.519,39.36,179.402,39.309,179.25,39.238z"/>
					</g>
				</g>
			</g>
		</g>
	</g>
</g>
<g>
	<g>
		<defs>
			<rect id="SVGID_209_" x="-4.375" y="-286.893" width="358.75" height="82"/>
		</defs>
		<clipPath id="SVGID_6_">
			<use xlink:href="#SVGID_209_"  overflow="visible"/>
		</clipPath>
		<g clip-path="url(#SVGID_6_)">
			<defs>
				<rect id="SVGID_211_" x="-30.81" y="-308.887" width="433.536" height="149.028"/>
			</defs>
			<clipPath id="SVGID_8_">
				<use xlink:href="#SVGID_211_"  overflow="visible"/>
			</clipPath>
			<g clip-path="url(#SVGID_8_)">
				<g>
					<defs>
						<rect id="SVGID_213_" x="-106.025" y="-419.711" width="585.32" height="329.508"/>
					</defs>
					<clipPath id="SVGID_10_">
						<use xlink:href="#SVGID_213_"  overflow="visible"/>
					</clipPath>
					<g clip-path="url(#SVGID_10_)">
						<g>
							<g>
								<path fill="#BC6325" d="M39.99,24.784c-1.512,3.327-5.436,4.798-8.761,3.287c-3.327-1.513-4.799-5.436-3.288-8.763
									c1.511-3.328,11.11-8.452,11.11-8.452S41.5,21.455,39.99,24.784z"/>
								<path fill="#BC6325" d="M91.187,24.784c-1.513,3.327-5.435,4.798-8.761,3.287c-3.328-1.512-4.799-5.436-3.288-8.763
									c1.511-3.327,11.108-8.452,11.108-8.452S92.697,21.455,91.187,24.784z"/>
								<path fill="#BC6325" d="M142.382,24.784c-1.511,3.327-5.434,4.798-8.76,3.287c-3.328-1.513-4.8-5.436-3.289-8.763
									c1.512-3.328,11.11-8.452,11.11-8.452S143.894,21.455,142.382,24.784z"/>
								<path fill="#BC6325" d="M193.581,24.784c-1.513,3.327-5.435,4.798-8.762,3.287c-3.327-1.513-4.799-5.436-3.287-8.763
									c1.512-3.328,11.109-8.452,11.109-8.452S195.09,21.455,193.581,24.784z"/>
								<path fill="#BC6325" d="M244.776,24.784c-1.511,3.327-5.434,4.798-8.76,3.287c-3.328-1.513-4.799-5.436-3.288-8.763
									c1.512-3.328,11.109-8.452,11.109-8.452S246.287,21.455,244.776,24.784z"/>
								<path fill="#BC6325" d="M295.972,24.784c-1.51,3.327-5.433,4.798-8.76,3.287c-3.327-1.513-4.799-5.436-3.288-8.763
									c1.511-3.328,11.109-8.452,11.109-8.452S297.485,21.455,295.972,24.784z"/>
								<path fill="#BC6325" d="M347.169,24.784c-1.511,3.327-5.435,4.798-8.762,3.287c-3.325-1.513-4.798-5.436-3.286-8.763
									c1.51-3.328,11.109-8.452,11.109-8.452S348.681,21.455,347.169,24.784z"/>
							</g>
							<g>
								<path fill="#BC6325" d="M17.707,58.42c-1.511,3.327-5.434,4.798-8.76,3.287c-3.327-1.513-4.799-5.436-3.288-8.763
									c1.51-3.329,11.109-8.453,11.109-8.453S19.219,55.092,17.707,58.42z"/>
								<path fill="#BC6325" d="M68.904,58.419c-1.512,3.328-5.434,4.798-8.761,3.288c-3.327-1.513-4.798-5.436-3.287-8.763
									c1.511-3.329,11.11-8.453,11.11-8.453S70.415,55.092,68.904,58.419z"/>
								<path fill="#BC6325" d="M120.101,58.42c-1.512,3.327-5.435,4.798-8.761,3.287c-3.327-1.512-4.799-5.436-3.288-8.763
									c1.511-3.329,11.109-8.453,11.109-8.453S121.613,55.092,120.101,58.42z"/>
								<path fill="#BC6325" d="M171.298,58.42c-1.512,3.327-5.434,4.798-8.76,3.287c-3.327-1.512-4.799-5.436-3.287-8.763
									c1.51-3.329,11.108-8.453,11.108-8.453S172.808,55.092,171.298,58.42z"/>
								<path fill="#BC6325" d="M222.494,58.419c-1.512,3.328-5.434,4.798-8.761,3.288c-3.327-1.513-4.798-5.436-3.287-8.763
									c1.51-3.329,11.109-8.453,11.109-8.453S224.005,55.092,222.494,58.419z"/>
								<path fill="#BC6325" d="M273.691,58.42c-1.512,3.327-5.434,4.798-8.76,3.287c-3.328-1.512-4.8-5.436-3.288-8.763
									c1.512-3.329,11.108-8.453,11.108-8.453S275.203,55.092,273.691,58.42z"/>
								<path fill="#BC6325" d="M324.889,58.42c-1.512,3.327-5.434,4.798-8.761,3.287c-3.327-1.512-4.799-5.436-3.287-8.763
									c1.51-3.329,11.108-8.453,11.108-8.453S326.397,55.092,324.889,58.42z"/>
							</g>
						</g>
					</g>
				</g>
			</g>
		</g>
	</g>
</g>
</svg>
