<?xml version="1.0" encoding="utf-8"?>
<!-- Generator: Adobe Illustrator 16.0.0, SVG Export Plug-In . SVG Version: 6.00 Build 0)  -->
<!DOCTYPE svg PUBLIC "-//W3C//DTD SVG 1.1//EN" "http://www.w3.org/Graphics/SVG/1.1/DTD/svg11.dtd">
<svg version="1.1" id="圖層_1" xmlns="http://www.w3.org/2000/svg" xmlns:xlink="http://www.w3.org/1999/xlink" x="0px" y="0px"
	 width="960px" height="540px" viewBox="0 0 960 540" enable-background="new 0 0 960 540" xml:space="preserve">
<g>
	<g>
		<defs>
			<rect id="SVGID_149_" x="-1100.753" y="-312.91" width="1948.657" height="204"/>
		</defs>
		<clipPath id="SVGID_2_">
			<use xlink:href="#SVGID_149_"  overflow="visible"/>
		</clipPath>
		<g clip-path="url(#SVGID_2_)">
			<defs>
				<rect id="SVGID_151_" x="-1107.857" y="-391.422" width="1969.984" height="548.06"/>
			</defs>
			<clipPath id="SVGID_4_">
				<use xlink:href="#SVGID_151_"  overflow="visible"/>
			</clipPath>
		</g>
	</g>
	<g>
		<defs>
			<rect id="SVGID_153_" x="-1100.753" y="-312.91" width="1948.657" height="204"/>
		</defs>
		<clipPath id="SVGID_6_">
			<use xlink:href="#SVGID_153_"  overflow="visible"/>
		</clipPath>
		<rect x="-1107.857" y="-325.453" clip-path="url(#SVGID_6_)" fill="#4A2E2C" width="1969.984" height="380.961"/>
		<g opacity="0.1" clip-path="url(#SVGID_6_)">
			<defs>
				<rect id="SVGID_155_" x="-1107.857" y="-391.422" opacity="0.1" width="1969.984" height="548.06"/>
			</defs>
			<clipPath id="SVGID_8_">
				<use xlink:href="#SVGID_155_"  overflow="visible"/>
			</clipPath>
			<g clip-path="url(#SVGID_8_)">
				<g>
					<path fill="#4A2E2C" d="M901.902,13.44c-18.47,17.417-473.951,9.786-991.768,10.366
						c-517.821,0.578-1086.262-1.645-1081.232-6.648C-1154.319,0.5-740.827,6.267-223.009,5.688
						C294.813,5.113,907.197,8.452,901.902,13.44z"/>
					<path fill="#4A2E2C" d="M901.9,101.013C882.867,119,413.39,110.664-104.427,111.256
						c-517.821,0.589-1071.615-1.346-1066.673-6.452c16.215-16.762,415.713-11.435,933.529-12.024
						C280.252,92.193,907.284,95.929,901.9,101.013z"/>
				</g>
				<g>
					<path fill="#4A2E2C" d="M799.309-470.64c21.751,6.194,11.471,145.188,11.965,298.792
						c0.495,153.608-2.084,317.808-8.258,316.185c-20.274-5.323-13.656-123.653-14.154-277.258
						C788.369-286.529,793.158-472.393,799.309-470.64z"/>
					<path fill="#4A2E2C" d="M710.743-473.2c21.639,6.229,11.481,145.977,12.048,300.416c0.567,154.443-1.918,319.535-8.061,317.904
						c-20.169-5.353-13.644-124.326-14.214-278.766C699.951-288.089,704.624-474.962,710.743-473.2z"/>
					<path fill="#4A2E2C" d="M622.177-475.761c21.526,6.263,11.491,146.767,12.13,302.041c0.64,155.278-1.751,321.264-7.861,319.623
						c-20.065-5.382-13.632-124.999-14.275-280.273C611.533-289.648,616.09-477.533,622.177-475.761z"/>
					<path fill="#4A2E2C" d="M533.611-478.321c21.415,6.297,11.502,147.557,12.214,303.666
						c0.712,156.113-1.585,322.992-7.664,321.342c-19.96-5.412-13.621-125.671-14.335-281.782
						C523.115-291.208,527.556-480.103,533.611-478.321z"/>
					<path fill="#4A2E2C" d="M445.045-480.882c21.302,6.332,11.512,148.347,12.296,305.292
						c0.785,156.948-1.418,324.719-7.465,323.06c-19.855-5.441-13.608-126.344-14.396-283.29
						C434.697-292.767,439.021-482.673,445.045-480.882z"/>
					<path fill="#4A2E2C" d="M356.479-483.442c21.19,6.366,11.522,149.137,12.38,306.916c0.856,157.783-1.252,326.447-7.267,324.779
						c-19.75-5.471-13.597-127.017-14.457-284.797C346.28-294.327,350.487-485.243,356.479-483.442z"/>
					<path fill="#4A2E2C" d="M267.856-486.003c21.079,6.4,11.533,149.927,12.463,308.541c0.929,158.618-1.086,328.175-7.069,326.498
						c-19.645-5.5-13.584-127.689-14.517-286.306C257.805-295.887,261.896-487.814,267.856-486.003z"/>
					<path fill="#4A2E2C" d="M179.347-488.563c20.966,6.435,11.543,150.717,12.546,310.167
						c1.001,159.453-0.92,329.902-6.871,328.217c-19.541-5.529-13.573-128.362-14.577-287.813
						C169.444-297.446,173.419-490.384,179.347-488.563z"/>
					<path fill="#4A2E2C" d="M90.782-491.123c20.854,6.469,11.553,151.506,12.628,311.791c1.074,160.288-0.753,331.63-6.672,329.936
						C77.302,145.045,83.177,21.568,82.1-138.718C81.026-299.005,84.885-492.954,90.782-491.123z"/>
					<path fill="#4A2E2C" d="M2.215-493.684c20.742,6.504,11.563,152.296,12.712,313.416c1.146,161.123-0.587,333.358-6.474,331.655
						C-10.877,145.799-5.096,21.679-6.245-139.442C-7.392-300.565-3.648-495.524,2.215-493.684z"/>
				</g>
			</g>
		</g>
	</g>
	<g>
		<defs>
			<rect id="SVGID_157_" x="-1100.753" y="-312.91" width="1948.657" height="204"/>
		</defs>
		<clipPath id="SVGID_10_">
			<use xlink:href="#SVGID_157_"  overflow="visible"/>
		</clipPath>
		<g clip-path="url(#SVGID_10_)">
			<defs>
				<rect id="SVGID_159_" x="-1107.857" y="-391.422" width="1969.984" height="548.06"/>
			</defs>
			<clipPath id="SVGID_12_">
				<use xlink:href="#SVGID_159_"  overflow="visible"/>
			</clipPath>
		</g>
	</g>
</g>
<g>
	<g>
		<defs>
			<rect id="SVGID_177_" x="-1.777" y="-1" width="963.554" height="542"/>
		</defs>
		<clipPath id="SVGID_14_">
			<use xlink:href="#SVGID_177_"  overflow="visible"/>
		</clipPath>
		<g id="圖層_1_23_" clip-path="url(#SVGID_14_)">
			<rect x="-1.777" y="-1" fill="#D13C3D" width="963.554" height="542"/>
			<g>
				<g>
					<defs>
						<rect id="SVGID_179_" x="-2.28" y="-1.501" width="964.559" height="543.003"/>
					</defs>
					<clipPath id="SVGID_16_">
						<use xlink:href="#SVGID_179_"  overflow="visible"/>
					</clipPath>
					<g opacity="0.5" clip-path="url(#SVGID_16_)">
						
							<linearGradient id="SVGID_18_" gradientUnits="userSpaceOnUse" x1="277.2744" y1="7167.6953" x2="203.5055" y2="7015.6421" gradientTransform="matrix(1 0 0 -1 544.29 7199.8301)">
							<stop  offset="0" style="stop-color:#D33F3E"/>
							<stop  offset="1" style="stop-color:#D33F3E;stop-opacity:0.2"/>
						</linearGradient>
						<path fill="url(#SVGID_18_)" d="M892.521,47.538c-5.065-0.29-9.642-1.514-14.599-2.35
							c-12.266-2.072-23.457,1.547-35.632,4.236c-28.945,6.388-50.915,18.872-73.133,38.361
							c-33.414,29.309-66.083,60.058-98.797,90.037c10.9-2.8,21.637-10.134,31.949-14.671c10.611-4.672,21.422-9.086,31.452-14.914
							c9.136-5.311,18.187-11.362,27.582-16.167c25.943-13.262,47.871-30.47,71.658-46.852c12.705-8.751,25.688-17.339,39.4-24.008
							c5.903-2.87,20.498-5.983,21.75-13.263L892.521,47.538z"/>
						
							<linearGradient id="SVGID_20_" gradientUnits="userSpaceOnUse" x1="318.2808" y1="7131.9824" x2="274.6215" y2="6990.4668" gradientTransform="matrix(1 0 0 -1 544.29 7199.8301)">
							<stop  offset="0" style="stop-color:#D33F3E"/>
							<stop  offset="1" style="stop-color:#D33F3E;stop-opacity:0.2"/>
						</linearGradient>
						<path fill="url(#SVGID_20_)" d="M878.183,67.845c-2.927,0.665-5.921,0.221-8.985,0.271
							c-7.584,0.127-12.493,6.229-18.29,11.511c-13.786,12.554-21.464,30.382-26.729,55.877
							c-7.915,38.332-14.893,78.089-22.176,117.016c5.049-5.155,8.351-15.208,12.438-22.14c4.204-7.131,8.612-14.028,12.07-22.307
							c3.151-7.541,5.981-15.876,9.462-22.919c9.606-19.445,15.541-42.398,22.811-64.817c3.884-11.972,7.98-23.826,13.183-33.732
							c2.238-4.265,9.23-10.476,7.272-18.632L878.183,67.845z"/>
						
							<linearGradient id="SVGID_22_" gradientUnits="userSpaceOnUse" x1="297.0068" y1="7150.6631" x2="165.2769" y2="7127.3281" gradientTransform="matrix(1 0 0 -1 544.29 7199.8301)">
							<stop  offset="0" style="stop-color:#D33F3E"/>
							<stop  offset="1" style="stop-color:#D33F3E;stop-opacity:0.2"/>
						</linearGradient>
						<path fill="url(#SVGID_22_)" d="M890.092,56.527c-5.451,2.101-20.413-10.259-26.902-12.772
							c-13.131-5.087-25.275-6.559-39.238-7.58c-29.556-2.158-53.184,3.926-81.462,10.851c-7.299,1.787-15.814,5.072-23.434,5.011
							c-5.258-0.041-9.243-2.758-14.047-3.812c-9.813-2.155-20.857-2.306-30.587-3.268c8.424,1.358,16.458,8.307,24.479,11.378
							c6.829,2.616,14.318,4.416,21.293,6.344c8.713,2.408,17.108,4.042,26.089,4.694c23.475,1.702,45.479,4.965,68.319,9.663
							c17.144,3.524,37.998,6.61,54.482-0.13C876.554,73.853,890.092,56.527,890.092,56.527z"/>
						
							<linearGradient id="SVGID_24_" gradientUnits="userSpaceOnUse" x1="296.8403" y1="7159.6396" x2="418.0317" y2="7051.2446" gradientTransform="matrix(1 0 0 -1 544.29 7199.8301)">
							<stop  offset="0" style="stop-color:#D33F3E"/>
							<stop  offset="1" style="stop-color:#D33F3E;stop-opacity:0.2"/>
						</linearGradient>
						<path fill="url(#SVGID_24_)" d="M854.183,37.199c0.453,4.032-0.048,7.942-0.13,12.045c-0.2,10.147,4.853,17.857,9.162,26.597
							c10.243,20.775,25.272,34.397,46.994,46.245c32.662,17.815,66.587,34.647,99.789,51.73
							c-4.231-7.715-12.747-14.025-18.546-20.79c-5.968-6.961-11.721-14.151-18.705-20.335
							c-6.362-5.631-13.417-10.987-19.336-16.964c-16.342-16.502-35.854-28.765-54.847-42.708
							c-10.146-7.448-20.179-15.161-28.491-23.976c-3.579-3.797-8.643-14.304-15.739-13.232L854.183,37.199z"/>
						
							<linearGradient id="SVGID_25_" gradientUnits="userSpaceOnUse" x1="357.4707" y1="7148.8447" x2="431.2393" y2="7120.9932" gradientTransform="matrix(1 0 0 -1 544.29 7199.8301)">
							<stop  offset="0" style="stop-color:#D33F3E"/>
							<stop  offset="1" style="stop-color:#D33F3E;stop-opacity:0.2"/>
						</linearGradient>
						<path fill="url(#SVGID_25_)" d="M868.059,90.864c3.288-0.085,6.313,0.459,9.562,0.734c8.038,0.677,15.059-2.287,22.767-4.698
							c18.329-5.734,47.134-8.574,65.877-12.652c27.677-6.021,58.714-6.774,91.692-3.011c-6.881,2.416-90.644-92.909-175.468-16.724
							c-24.305,21.829-15.114,31.374-15.507,36.174L868.059,90.864z"/>
						
							<linearGradient id="SVGID_26_" gradientUnits="userSpaceOnUse" x1="327.4409" y1="7101.4736" x2="356.798" y2="7000.6055" gradientTransform="matrix(1 0 0 -1 544.29 7199.8301)">
							<stop  offset="0" style="stop-color:#D33F3E"/>
							<stop  offset="1" style="stop-color:#D33F3E;stop-opacity:0.2"/>
						</linearGradient>
						<path fill="url(#SVGID_26_)" d="M860.456,77.987c2.787,3.485,0.37,19.591,0.902,25.554c1.076,12.057,3.864,22.042,7.448,33.28
							c7.58,23.786,17.975,39.987,30.219,59.5c3.159,5.036,7.514,10.481,9.743,16.435c1.538,4.109,1.214,8.191,2.056,12.312
							c1.717,8.416,4.913,17.069,7.271,24.989c-1.748-7.049-0.278-15.812-0.954-23.163c-0.576-6.259-1.803-12.74-2.804-18.862
							c-1.252-7.656-2.838-14.779-5.143-22.007c-6.028-18.888-10.753-37.197-14.93-56.673c-3.136-14.618-7.616-31.965-16.254-42.365
							C874.096,82.272,860.456,77.987,860.456,77.987z"/>
					</g>
				</g>
				<g>
					<defs>
						<rect id="SVGID_187_" x="-2.28" y="-1.501" width="964.559" height="543.003"/>
					</defs>
					<clipPath id="SVGID_28_">
						<use xlink:href="#SVGID_187_"  overflow="visible"/>
					</clipPath>
					<g clip-path="url(#SVGID_28_)">
						<path fill="#11755B" d="M869.859,67.05c-4.881-1.38-9.083-3.565-13.742-5.456c-11.525-4.677-23.236-3.564-35.704-3.577
							c-29.643-0.028-53.791,7.406-79.705,21.625c-38.962,21.378-77.513,44.327-115.94,66.515
							c11.249-0.372,23.316-5.207,34.366-7.407c11.371-2.263,22.881-4.233,33.935-7.752c10.07-3.205,20.215-7.157,30.429-9.813
							c28.2-7.333,53.332-19.388,80.101-30.232c14.297-5.789,28.832-11.365,43.663-14.908c6.384-1.525,21.308-1.404,24.104-8.241
							L869.859,67.05z"/>
						<path fill="#11755B" d="M881.151,60.353c-3.379,0.421-6.729-0.012-10.207-0.066c-8.604-0.137-14.753,4.422-21.83,8.317
							c-16.82,9.263-27.228,22.78-35.631,42.288c-12.637,29.329-24.345,59.784-36.318,89.592
							c6.213-3.821,10.917-11.475,16.21-16.699c5.447-5.372,11.104-10.557,15.814-16.837c4.291-5.723,8.296-12.065,12.913-17.391
							c12.747-14.708,21.665-32.234,32.049-49.304c5.545-9.118,11.32-18.136,18.163-25.618c2.944-3.221,11.463-7.8,10.024-14.152
							L881.151,60.353z"/>
						<path fill="#11755B" d="M877.387,64.792c-5.764-0.949-12.409-19.18-16.733-24.635c-8.75-11.034-18.475-18.452-30.001-26.401
							C806.26-3.069,782.803-9.785,754.911-18.13c-7.198-2.154-16.206-3.631-22.745-7.542c-4.514-2.698-6.575-7.058-10.185-10.401
							c-7.371-6.824-16.819-12.545-24.723-18.302c6.578,5.438,9.988,15.496,15.349,22.204c4.565,5.714,10.113,11.058,15.15,16.251
							c6.296,6.488,12.708,12.149,20.122,17.256c19.381,13.353,36.707,27.309,54.023,42.923
							c13.001,11.718,29.421,24.938,47.049,27.472C856.941,72.879,877.387,64.792,877.387,64.792z"/>
						<path fill="#11755B" d="M851.548,52.608c3.587,3.59,6.184,7.548,9.326,11.474c7.771,9.713,18.534,14.462,29.406,20.563
							c25.851,14.503,50.554,19.815,80.109,20.067c44.443,0.378,89.292-0.813,133.662-1.401c-9.998-5.17-22.89-6.846-33.607-10.324
							c-11.026-3.581-22.033-7.483-33.396-9.813c-10.353-2.123-21.134-3.632-31.346-6.303c-28.188-7.376-56.005-9.136-84.659-12.751
							c-15.305-1.929-30.713-4.167-45.383-8.32c-6.316-1.788-19.278-9.182-25.06-4.583L851.548,52.608z"/>
						<path fill="#11755B" d="M860.476,62.008c3.289-0.088,6.313,0.459,9.563,0.732c8.038,0.676,15.059-2.288,22.768-4.699
							c18.326-5.731,47.132-8.571,65.878-12.65c27.675-6.021,58.714-6.774,91.69-3.011c-6.88,2.414-90.644-92.911-175.47-16.724
							C850.601,47.485,859.791,57.03,859.4,61.832L860.476,62.008z"/>
						<path fill="#11755B" d="M860.373,69.492c3.1,1.94,2.482,14.295,3.649,18.55c2.358,8.61,6.165,15.319,10.883,22.77
							c9.986,15.773,21.903,25.355,35.983,36.96c3.635,2.993,8.479,6.024,11.303,9.898c1.947,2.673,2.074,5.741,3.344,8.577
							c2.59,5.796,6.652,11.436,9.813,16.724c-2.473-4.783-1.983-11.54-3.441-16.784c-1.243-4.465-3.141-8.95-4.783-13.221
							c-2.053-5.34-4.376-10.216-7.411-15.007c-7.937-12.522-14.539-24.911-20.731-38.276
							c-4.648-10.031-10.906-21.767-20.477-27.483C874.168,69.61,860.373,69.492,860.373,69.492z"/>
					</g>
				</g>
				<g>
					<defs>
						<rect id="SVGID_189_" x="-2.28" y="-1.501" width="964.559" height="543.003"/>
					</defs>
					<clipPath id="SVGID_30_">
						<use xlink:href="#SVGID_189_"  overflow="visible"/>
					</clipPath>
					<path opacity="0.1" clip-path="url(#SVGID_30_)" fill="#D13C3D" enable-background="new    " d="M-110.095,6.822
						c-37.016,100.891-39.718,214.354-25.638,319.887c6.754,50.604,7.836,93.889,33.419,135.615
						c11.639,18.982,24.262,40.835,40.636,53.751c27.043,21.329,18.763,45.211,48.524,60.439
						c42.614,21.806,127.864,24.536,170.693,45.527c43.3,21.225,95.759,17.307,142.432,21.552
						c65.906,5.992,271.015-5.844,337.253-7.578c40.133-1.048,80.153-10.105,120.165-10.452c17.825-0.155,36.875,5.208,54.502-0.275
						c2.121-27.521-21.314-38.426-29.763-66.305c-16.408-54.14-395.791-86.173-433.083-97.04
						c-75.833-22.101-160.895-37.625-211.187-114.116C92.583,278.967,38.074,169.687,36.664,84.43
						C35.952,41.316,69.321-44.16,40.85-72.426C-89.787-202.121-96.965-28.96-110.095,6.822z"/>
				</g>
				<g>
					<defs>
						<rect id="SVGID_191_" x="-2.28" y="-1.501" width="964.559" height="543.003"/>
					</defs>
					<clipPath id="SVGID_31_">
						<use xlink:href="#SVGID_191_"  overflow="visible"/>
					</clipPath>
					<path opacity="0.15" clip-path="url(#SVGID_31_)" fill="#D13C3D" enable-background="new    " d="M393.351,758.781
						c-70.936,41.61-155.314,49.826-235.767,41.018c-38.577-4.223-71.018-3.185-105.198-26.503
						c-15.547-10.609-33.354-22.054-44.937-37.654c-19.125-25.762-35.973-16.391-50.865-45.146
						c-21.324-41.172-33.457-125.531-54.2-166.957c-20.972-41.88-24.258-94.066-32.954-140.115
						c-12.278-65.032-27.73-268.897-34.281-334.634c-3.97-39.826-1.947-79.936-6.426-119.608
						c-1.995-17.674-8.254-36.295-6.249-54.032c20.295-3.445,31.211,19.25,53.022,26.265
						C-82.144-84.965-13.304,289.492-0.778,325.918c25.479,74.084,47.141,157.634,110.198,203.747
						c56.768,41.513,144.802,90.207,208.614,87.445c32.271-1.399,92.127-38.642,116.602-11.802
						C546.923,728.458,418.507,744.022,393.351,758.781z"/>
				</g>
			</g>
			<g>
				<g>
					<defs>
						<rect id="SVGID_193_" x="-1.779" y="-2.004" width="964.559" height="543.004"/>
					</defs>
					<clipPath id="SVGID_32_">
						<use xlink:href="#SVGID_193_"  overflow="visible"/>
					</clipPath>
					<path opacity="0.15" clip-path="url(#SVGID_32_)" fill="#D13C3D" enable-background="new    " d="M-109.592,16.983
						c-37.016,109.379-39.72,232.386-25.639,346.798c6.753,54.864,7.837,101.789,33.42,147.027
						c11.636,20.578,24.26,44.27,40.635,58.272c27.042,23.122,18.764,49.014,48.525,65.524
						c42.614,23.64,127.863,26.6,170.691,49.358c43.301,23.008,95.76,18.762,142.431,23.364
						c65.909,6.496,271.018-6.336,337.255-8.215c40.133-1.139,80.153-10.956,120.165-11.333c17.823-0.169,36.874,5.646,54.501-0.3
						c2.12-29.835-21.316-41.655-29.762-71.881c-16.407-58.695-395.791-93.422-433.082-105.204
						c-75.833-23.959-160.897-40.791-211.188-123.715C93.086,312.025,38.575,193.55,37.167,101.121
						C36.454,54.38,69.824-38.286,41.351-68.931C-89.285-209.537-96.464-21.809-109.592,16.983z"/>
					<path opacity="0.2" clip-path="url(#SVGID_32_)" fill="#D13C3D" enable-background="new    " d="M393.852,758.281
						c-70.937,41.608-155.314,49.824-235.766,41.018c-38.577-4.224-71.018-3.185-105.197-26.504
						c-15.55-10.609-33.355-22.053-44.937-37.652c-19.125-25.762-35.975-16.39-50.867-45.146
						c-21.322-41.173-33.455-125.531-54.2-166.958c-20.97-41.88-24.257-94.066-32.952-140.115
						c-12.279-65.032-27.729-268.899-34.281-334.632c-3.97-39.826-1.946-79.936-6.425-119.609
						c-1.997-17.674-8.256-36.295-6.249-54.032c20.294-3.445,31.209,19.252,53.021,26.265
						C-81.642-85.465-12.803,288.99-0.275,325.418c25.477,74.083,47.139,157.632,110.196,203.744
						c56.769,41.515,144.804,90.208,208.615,87.446c32.271-1.397,92.128-38.642,116.601-11.801
						C547.426,727.956,419.01,743.521,393.852,758.281z"/>
				</g>
			</g>
			<g>
				<path opacity="0.2" fill="#11755B" enable-background="new    " d="M874.905,60.247c2.723,0.797,15.343,4.073,17.733,5.287
					c2.403,1.222-1.401,4.421-3.199,5.369c-3.533,1.864-17.713,1.185-25.073,2.97c-4.358,1.057-10.872,5.825-17.553,13.421
					c-5.275,5.997-4.675-1.703-5.363-3.712c-0.727-2.117,4.685-10.818-9.241-11.833c-8.423-0.614-13.683-8.338-3.885-11.165
					c4.257-1.229,8.61-1.971,12.943-2.899C845.702,56.733,855.538,54.588,874.905,60.247z"/>
				<path fill="#11755B" d="M830.577,59.122c1.511,9.72,18.274,6.771,27.505,7.711c5.899,0.604,11.624-0.079,17.402-0.762
					c3.676-0.433,11.756-0.457,13.956-2.708c-3.612-1.107-4.323-0.155-6.679-2.623c-2.36-2.47-5.119-4.362-6.634-7.323
					c-2.24-4.372-2.172-9.6-3.119-14.222c-0.908-4.438-1.935-8.372-1.949-12.842c-0.006-1.724,0.195-3.313,0.66-4.953
					c0.168-0.593,1.389-2.671,1.289-3.059c-0.413-1.576-1.95-1.427-4.275-1.507c-1.073-0.035-5.905-0.461-6.749,0.045
					c-1.323,0.792-0.873,3.696-1.273,4.837c-0.853,2.442-1.788,4.774-2.3,7.313c-1.39,6.893-3.957,14.55-8.168,20.84
					c-1.323,1.977-2.676,3.52-5.091,4.742c-3.107,1.575-9.142,4.229-12.903,4.009L830.577,59.122z"/>
				<path opacity="0.2" fill="#11755B" enable-background="new    " d="M830.577,59.122c1.511,9.72,18.274,6.771,27.505,7.711
					c5.899,0.604,11.624-0.079,17.402-0.762c-31.052-6.631-24.972-6.777-17.264-20.701c3.439-6.213,2.835-26.611,8.139-28.668
					c-1.755-0.089-3.846-0.137-4.373,0.178c-1.323,0.792-0.875,3.696-1.273,4.837c-0.855,2.442-1.79,4.774-2.301,7.313
					c-1.389,6.893-3.958,14.55-8.169,20.84c-1.323,1.977-2.676,3.52-5.09,4.742C842.044,56.186,830.577,59.122,830.577,59.122z"/>
			</g>
		</g>
	</g>
	<g>
		<path fill="#F4E8D1" d="M342.018,365.455c-3.791,4.012-8.814,6.018-15.07,6.018c-5.962,0-10.82-1.877-14.574-5.631
			c-3.791-3.79-5.686-8.667-5.686-14.629c0-5.888,1.895-10.728,5.686-14.519c3.827-3.828,8.685-5.741,14.574-5.741
			c7.066,0,12.623,2.705,16.671,8.115l-1.822,1.38c-3.533-4.858-8.483-7.287-14.85-7.287c-5.189,0-9.495,1.711-12.918,5.134
			c-3.422,3.423-5.134,7.729-5.134,12.918c0,5.226,1.692,9.532,5.079,12.917c3.459,3.386,7.784,5.079,12.973,5.079
			c5.557,0,10.028-1.858,13.415-5.576c2.576-2.796,4.048-5.962,4.416-9.495H331.75v-2.264h15.512
			C347.263,357.249,345.514,361.775,342.018,365.455z"/>
		<path fill="#F4E8D1" d="M362.609,351.488c-0.589-0.442-1.214-0.791-1.877-1.049c-0.663-0.257-1.362-0.387-2.098-0.387
			c-0.626,0-1.214,0.193-1.767,0.58c-0.552,0.387-1.031,0.865-1.436,1.436c-0.405,0.571-0.727,1.206-0.966,1.904
			c-0.24,0.7-0.359,1.344-0.359,1.932v15.016h-2.263v-22.799h2.263v3.092c0.478-0.846,1.104-1.619,1.877-2.319
			c0.773-0.699,1.619-1.049,2.54-1.049c1.14,0,2.079,0.129,2.815,0.386c0.735,0.258,1.563,0.718,2.484,1.38L362.609,351.488z"/>
		<path fill="#F4E8D1" d="M388.39,370.92V367c-2.393,2.871-5.429,4.306-9.109,4.306c-3.312,0-6.091-1.122-8.335-3.367
			c-2.283-2.282-3.423-5.079-3.423-8.391c0-3.312,1.122-6.09,3.367-8.335c2.282-2.282,5.079-3.423,8.391-3.423
			c3.644,0,6.68,1.436,9.109,4.306v-3.975h2.263v22.799H388.39z M386.016,352.813c-1.877-1.877-4.122-2.815-6.735-2.815
			c-2.65,0-4.895,0.92-6.735,2.76c-1.877,1.877-2.815,4.14-2.815,6.79c0,2.614,0.938,4.858,2.815,6.735s4.122,2.815,6.735,2.815
			c2.65,0,4.894-0.919,6.735-2.76c1.877-1.877,2.815-4.14,2.815-6.79C388.831,356.935,387.893,354.69,386.016,352.813z"/>
		<path fill="#F4E8D1" d="M418.696,367.884c-2.282,2.282-5.079,3.422-8.391,3.422c-3.791,0-6.919-1.545-9.385-4.637v14.96h-2.263
			v-33.509h2.263v4.306c2.355-3.091,5.483-4.637,9.385-4.637c3.312,0,6.09,1.123,8.335,3.368c2.282,2.282,3.423,5.079,3.423,8.391
			C422.063,362.86,420.94,365.639,418.696,367.884z M417.04,352.813c-1.877-1.877-4.122-2.815-6.735-2.815
			c-2.65,0-4.895,0.92-6.735,2.76c-1.877,1.877-2.815,4.14-2.815,6.79c0,2.614,0.938,4.858,2.815,6.735s4.121,2.815,6.735,2.815
			c2.649,0,4.894-0.919,6.735-2.76c1.877-1.877,2.815-4.14,2.815-6.79C419.855,356.935,418.917,354.69,417.04,352.813z"/>
		<path fill="#F4E8D1" d="M444.696,370.975v-13.746c0-4.821-2.246-7.232-6.735-7.232c-1.841,0-3.423,0.552-4.748,1.656
			c-1.362,1.104-2.042,2.577-2.042,4.417v14.85h-2.264v-40.851h2.264v21.088c1.361-2.245,3.624-3.368,6.79-3.368
			c5.998,0,8.998,3.073,8.998,9.219v13.966H444.696z"/>
		<path fill="#F4E8D1" d="M453.473,344.036c-0.405,0-0.828-0.166-1.27-0.497c-0.331-0.332-0.516-0.773-0.552-1.325
			c0-0.994,0.607-1.601,1.822-1.822c0.919,0,1.527,0.607,1.822,1.822C455.295,343.429,454.688,344.036,453.473,344.036z
			 M452.314,370.92v-22.799h2.264v22.799H452.314z"/>
		<path fill="#F4E8D1" d="M474.229,371.361c-3.386,0-6.202-1.122-8.446-3.367c-2.245-2.245-3.367-5.06-3.367-8.446
			c0-3.385,1.122-6.201,3.367-8.446c2.245-2.244,5.06-3.367,8.446-3.367c2.907,0,5.226,0.663,6.956,1.987v2.705l-1.435-0.938
			l-1.546-0.828c-1.399-0.478-2.724-0.718-3.975-0.718c-2.834,0-5.134,0.883-6.9,2.65c-1.804,1.804-2.705,4.122-2.705,6.956
			c0,2.797,0.901,5.098,2.705,6.9c1.803,1.804,4.103,2.705,6.9,2.705c2.65,0,4.968-0.883,6.956-2.65v2.815
			C479.124,370.681,476.805,371.361,474.229,371.361z"/>
		<path fill="#F4E8D1" d="M531.143,364.958c-3.312,3.975-7.637,5.962-12.973,5.962h-13.139v-39.416h13.139
			c5.299,0,9.605,1.987,12.917,5.962c3.128,3.718,4.692,8.281,4.692,13.691C535.78,356.604,534.235,361.204,531.143,364.958z
			 M529.487,339.012c-2.871-3.533-6.644-5.3-11.317-5.3h-10.93v34.944h10.93c4.048,0,7.563-1.509,10.544-4.527
			c3.202-3.238,4.803-7.563,4.803-12.973C533.517,346.336,532.173,342.288,529.487,339.012z"/>
		<path fill="#F4E8D1" d="M544.281,359.051c0,3.091,0.828,5.539,2.484,7.342c1.729,1.841,4.103,2.76,7.121,2.76
			c1.546,0,2.944-0.257,4.196-0.773c1.582-0.662,2.999-2.005,4.25-4.03l2.042,0.938c-1.435,2.724-3.644,4.564-6.625,5.521
			c-1.141,0.367-2.429,0.552-3.864,0.552c-3.422,0-6.238-1.122-8.446-3.367c-2.245-2.245-3.367-5.06-3.367-8.446
			c0-3.422,1.104-6.238,3.312-8.446c2.245-2.244,5.079-3.367,8.501-3.367c3.386,0,6.183,1.049,8.391,3.146
			c2.244,2.098,3.367,4.822,3.367,8.17H544.281z M559.848,351.819c-1.73-1.25-3.717-1.877-5.962-1.877
			c-4.711,0-7.803,2.319-9.274,6.956h18.493C562.737,354.8,561.651,353.108,559.848,351.819z"/>
		<path fill="#F4E8D1" d="M583.475,369.485c-1.472,1.251-3.239,1.876-5.299,1.876c-3.533,0-6.183-1.601-7.949-4.803l1.932-1.159
			c0.625,1.141,1.38,2.024,2.263,2.65c0.919,0.7,2.171,1.049,3.754,1.049c3.459,0,5.189-1.472,5.189-4.416
			c0-1.288-0.607-2.41-1.822-3.368c-0.368-0.221-0.893-0.469-1.573-0.745c-0.681-0.276-1.518-0.598-2.512-0.966
			c-1.841-0.662-3.166-1.325-3.975-1.987c-1.178-0.957-1.767-2.336-1.767-4.14c0-1.546,0.588-2.871,1.767-3.975
			c1.14-1.141,2.631-1.711,4.472-1.711c2.539,0,4.692,0.883,6.458,2.65l-1.656,1.435c-1.252-1.25-2.853-1.877-4.803-1.877
			c-2.65,0-3.975,1.16-3.975,3.478c0,1.031,0.404,1.877,1.214,2.54c0.662,0.516,1.711,1.012,3.146,1.49
			c1.251,0.442,2.282,0.855,3.091,1.242c0.809,0.386,1.417,0.727,1.822,1.021c1.582,1.215,2.374,2.853,2.374,4.914
			C585.628,366.669,584.91,368.27,583.475,369.485z"/>
		<path fill="#F4E8D1" d="M593.466,344.036c-0.405,0-0.828-0.166-1.27-0.497c-0.331-0.332-0.516-0.773-0.552-1.325
			c0-0.994,0.607-1.601,1.822-1.822c0.919,0,1.527,0.607,1.822,1.822C595.288,343.429,594.681,344.036,593.466,344.036z
			 M592.307,370.92v-22.799h2.264v22.799H592.307z"/>
		<path fill="#F4E8D1" d="M621.786,378.538c-2.062,2.061-4.767,3.091-8.115,3.091c-6.22,0-9.937-2.448-11.151-7.342h2.263
			c0.405,1.803,1.564,3.147,3.478,4.03c1.508,0.699,3.312,1.049,5.41,1.049c2.833,0,5.024-0.792,6.569-2.374
			c1.582-1.583,2.374-3.791,2.374-6.625V367c-2.393,2.871-5.429,4.306-9.109,4.306c-3.312,0-6.091-1.122-8.335-3.367
			c-2.283-2.282-3.423-5.079-3.423-8.391c0-3.312,1.122-6.09,3.367-8.335c2.282-2.282,5.079-3.423,8.391-3.423
			c3.644,0,6.68,1.436,9.109,4.306v-3.975h2.263v22.302C624.877,373.771,623.846,376.477,621.786,378.538z M620.24,352.813
			c-1.877-1.877-4.122-2.815-6.735-2.815c-2.65,0-4.895,0.92-6.735,2.76c-1.877,1.877-2.815,4.14-2.815,6.79
			c0,2.614,0.938,4.858,2.815,6.735s4.122,2.815,6.735,2.815c2.65,0,4.894-0.919,6.735-2.76c1.877-1.877,2.815-4.14,2.815-6.79
			C623.055,356.935,622.117,354.69,620.24,352.813z"/>
		<path fill="#F4E8D1" d="M648.338,370.92v-13.635c0-4.821-2.172-7.232-6.514-7.232c-2.135,0-3.754,0.626-4.858,1.877
			c-1.141,1.252-1.711,2.963-1.711,5.134v13.856h-2.263v-22.799h2.263v2.76c1.03-2.023,3.22-3.036,6.569-3.036
			c2.833,0,5.004,0.81,6.514,2.429c1.508,1.62,2.263,3.883,2.263,6.79v13.856H648.338z"/>
	</g>
	<g>
		<g>
			<g>
				<path fill="#4C2E2C" d="M508.89,281.817h-60.834c-1.202,0-2.17-0.968-2.17-2.177c0-1.199,0.968-2.176,2.17-2.176h60.834
					c1.212,0,2.176,0.977,2.176,2.176C511.066,280.849,510.102,281.817,508.89,281.817z"/>
				<path fill="#4C2E2C" d="M515.212,283.625c0,1.283-1.04,2.334-2.326,2.334h-7.976c-1.287,0-2.331-1.051-2.331-2.334v-7.969
					c0-1.293,1.044-2.334,2.331-2.334h7.976c1.286,0,2.326,1.041,2.326,2.334V283.625z"/>
			</g>
			<g>
				<path fill="#F4E8D1" d="M449.456,280.483c-0.55,0-1.114-0.142-1.629-0.443c-1.559-0.899-2.1-2.902-1.191-4.461l17.273-29.92
					c0.903-1.55,2.902-2.1,4.461-1.2c1.561,0.901,2.099,2.9,1.193,4.468l-17.275,29.911
					C451.684,279.881,450.584,280.483,449.456,280.483z"/>
				<g>
					<path fill="#F4E8D1" d="M507.64,231.54c-0.553,0-1.111-0.143-1.63-0.436l-44.893-25.927c-1.561-0.908-2.096-2.908-1.193-4.468
						c0.908-1.56,2.891-2.101,4.467-1.192l44.891,25.927c1.556,0.908,2.094,2.894,1.19,4.46
						C509.869,230.954,508.776,231.54,507.64,231.54z"/>
					<g>
						<path fill="#F4E8D1" d="M499.571,206.354c-0.547,0-1.111-0.141-1.625-0.442l-10.96-6.335c-1.559-0.9-2.098-2.902-1.19-4.461
							c0.899-1.559,2.905-2.091,4.466-1.192l10.948,6.336c1.567,0.9,2.103,2.892,1.193,4.451
							C501.797,205.759,500.701,206.354,499.571,206.354z"/>
						<path fill="#F4E8D1" d="M503.439,220.783c-0.556,0-1.123-0.141-1.636-0.433c-1.565-0.899-2.094-2.901-1.19-4.469
							c0.976-1.684,1.238-3.658,0.727-5.551c-0.506-1.886-1.709-3.452-3.394-4.418c-1.559-0.902-2.104-2.892-1.197-4.459
							c0.896-1.56,2.893-2.103,4.451-1.2c3.202,1.841,5.487,4.826,6.449,8.385c0.953,3.578,0.465,7.312-1.389,10.513
							C505.656,220.201,504.556,220.783,503.439,220.783z"/>
						<path fill="#F4E8D1" d="M474.182,203.877c-0.552,0-1.113-0.149-1.629-0.443c-1.561-0.908-2.096-2.91-1.191-4.458
							c1.854-3.203,4.832-5.496,8.405-6.446c3.576-0.94,7.298-0.457,10.494,1.393c1.556,0.91,2.091,2.902,1.18,4.468
							c-0.895,1.553-2.892,2.085-4.455,1.186c-1.688-0.977-3.652-1.234-5.53-0.735c-1.889,0.501-3.466,1.709-4.44,3.402
							C476.41,203.294,475.321,203.877,474.182,203.877z"/>
						<path fill="#F4E8D1" d="M470.566,210.129c-0.544,0-1.112-0.142-1.622-0.434c-1.565-0.907-2.098-2.901-1.197-4.468l3.615-6.251
							c0.903-1.567,2.897-2.103,4.462-1.203c1.559,0.91,2.097,2.904,1.191,4.47l-3.611,6.253
							C472.8,209.547,471.696,210.129,470.566,210.129z"/>
						<path fill="#F4E8D1" d="M499.838,227.02c-0.555,0-1.113-0.136-1.625-0.433c-1.567-0.902-2.105-2.886-1.203-4.452l3.611-6.262
							c0.891-1.559,2.891-2.101,4.456-1.192c1.56,0.899,2.096,2.894,1.192,4.452l-3.602,6.251
							C502.064,226.436,500.967,227.02,499.838,227.02z"/>
					</g>
				</g>
				<path fill="#F4E8D1" d="M470.268,251.513L470.268,251.513c-1.806,0-3.592-0.484-5.168-1.392
					c-2.394-1.394-4.105-3.626-4.816-6.303c-0.703-2.667-0.328-5.443,1.062-7.811c2.708-4.718,9.301-6.518,14.085-3.778
					c4.934,2.86,6.622,9.181,3.774,14.117C477.356,249.53,473.932,251.513,470.268,251.513z M470.281,237.382
					c-1.353,0-2.614,0.726-3.28,1.891c-0.521,0.885-0.657,1.901-0.396,2.869c0.266,0.992,0.893,1.819,1.766,2.318
					c1.771,1.026,4.161,0.368,5.182-1.385c1.047-1.809,0.423-4.143-1.386-5.201C471.598,237.557,470.945,237.382,470.281,237.382z"
					/>
				<g>
					<path fill="#F4E8D1" d="M448.062,282.909c-1.05,0-2.085-0.509-2.718-1.443c-1.005-1.493-0.607-3.527,0.886-4.525l49.034-33.083
						c1.505-1.009,3.533-0.607,4.537,0.886c1.012,1.483,0.617,3.518-0.886,4.534l-49.033,33.071
						C449.327,282.725,448.691,282.909,448.062,282.909z"/>
					<path fill="#F4E8D1" d="M497.09,249.828c-0.549,0-1.115-0.142-1.63-0.434c-6.602-3.816-8.88-12.288-5.063-18.89
						c0.894-1.559,2.894-2.1,4.46-1.193c1.56,0.893,2.092,2.894,1.192,4.459c-2.011,3.479-0.809,7.954,2.679,9.972
						c1.561,0.901,2.102,2.894,1.198,4.461C499.322,249.245,498.219,249.828,497.09,249.828z"/>
					<path fill="#F4E8D1" d="M493.219,235.406c-0.56,0-1.12-0.149-1.63-0.442c-1.56-0.908-2.101-2.901-1.192-4.459
						c3.822-6.603,12.301-8.863,18.885-5.061c1.556,0.908,2.094,2.902,1.19,4.46c-0.896,1.565-2.894,2.099-4.462,1.2
						c-3.48-2.026-7.948-0.817-9.961,2.667C495.44,234.815,494.34,235.406,493.219,235.406z"/>
				</g>
				<g>
					<path fill="#F4E8D1" d="M448.056,282.909c-0.082,0-0.15-0.01-0.229-0.019c-1.806-0.115-3.162-1.683-3.031-3.483l4.131-58.989
						c0.129-1.803,1.767-3.129,3.484-3.037c1.795,0.134,3.155,1.686,3.026,3.484l-4.128,59.006
						C451.188,281.59,449.75,282.909,448.056,282.909z"/>
					<path fill="#F4E8D1" d="M457.434,225.32c-2.341,0-4.715-0.601-6.882-1.853c-1.563-0.899-2.102-2.901-1.196-4.451
						c0.9-1.567,2.887-2.119,4.455-1.201c3.493,1.999,7.963,0.809,9.982-2.676c0.896-1.567,2.893-2.11,4.462-1.193
						c1.561,0.919,2.091,2.91,1.188,4.468C466.875,222.834,462.211,225.32,457.434,225.32z"/>
					<path fill="#F4E8D1" d="M466.607,220.042c-0.549,0-1.113-0.141-1.628-0.44c-1.56-0.9-2.1-2.902-1.191-4.461
						c2.012-3.476,0.817-7.945-2.673-9.979c-1.561-0.901-2.093-2.902-1.179-4.452c0.896-1.567,2.896-2.11,4.455-1.192
						c6.602,3.827,8.858,12.304,5.052,18.898C468.837,219.459,467.737,220.042,466.607,220.042z"/>
				</g>
			</g>
		</g>
	</g>
</g>
<g>
	<g>
		<g opacity="0.1">
			<defs>
				<rect id="SVGID_201_" x="-1.777" y="617.189" opacity="0.1" width="963.554" height="542"/>
			</defs>
			<clipPath id="SVGID_33_">
				<use xlink:href="#SVGID_201_"  overflow="visible"/>
			</clipPath>
			<g clip-path="url(#SVGID_33_)">
				<g>
					<path fill="#4A2E2C" d="M522.273,535.221c21.811,6.863,12.185,160.705,13.421,330.722c1.232,170.02-0.56,351.763-6.75,349.966
						c-20.325-5.896-14.27-136.87-15.505-306.886C512.206,739.002,516.108,533.279,522.273,535.221z"/>
					<path fill="#4A2E2C" d="M428.997,528.928c21.534,6.947,12.21,162.646,13.624,334.716c1.411,172.072-0.151,356.009-6.263,354.19
						c-20.068-5.97-14.241-138.523-15.653-310.592C419.292,735.169,422.909,526.961,428.997,528.928z"/>
					<path fill="#4A2E2C" d="M335.708,522.634c21.259,7.032,12.235,164.587,13.827,338.709
						c1.59,174.125,0.259,360.257-5.775,358.416c-19.81-6.042-14.211-140.177-15.802-314.299
						C326.367,731.336,329.698,520.644,335.708,522.634z"/>
					<path fill="#4A2E2C" d="M242.244,516.341c20.984,7.117,12.262,166.529,14.031,342.704
						c1.768,176.177,0.668,364.503-5.287,362.641c-19.553-6.114-14.183-141.831-15.951-318.005
						C233.268,727.503,236.313,514.327,242.244,516.341z"/>
					<path fill="#4A2E2C" d="M148.781,510.048c20.708,7.201,12.287,168.471,14.234,346.698c1.946,178.229,1.077,368.75-4.8,366.865
						c-19.294-6.187-14.153-143.484-16.099-321.711C140.169,723.669,142.929,508.01,148.781,510.048z"/>
					<path fill="#4A2E2C" d="M55.32,503.754c20.432,7.286,12.313,170.412,14.438,350.692c2.124,180.282,1.486,372.997-4.313,371.09
						c-19.037-6.259-14.124-145.138-16.248-325.417C47.072,719.836,49.546,501.692,55.32,503.754z"/>
				</g>
			</g>
		</g>
	</g>
</g>
</svg>
