<?xml version="1.0" encoding="utf-8"?>
<!-- Generator: Adobe Illustrator 16.0.0, SVG Export Plug-In . SVG Version: 6.00 Build 0)  -->
<!DOCTYPE svg PUBLIC "-//W3C//DTD SVG 1.1//EN" "http://www.w3.org/Graphics/SVG/1.1/DTD/svg11.dtd">
<svg version="1.1" id="圖層_1" xmlns="http://www.w3.org/2000/svg" xmlns:xlink="http://www.w3.org/1999/xlink" x="0px" y="0px"
	 width="50px" height="50px" viewBox="0 0 50 50" enable-background="new 0 0 50 50" xml:space="preserve">
<g>
	<path fill="#280F0D" d="M26.481,4.34c10.483,0.753,19.877,9.591,18.976,22.127c-0.927,12.88-11.463,19.937-21.954,19.181
		C13.02,44.893,3.76,34.147,4.527,23.517C5.292,12.895,15.991,3.587,26.481,4.34z"/>
	<path fill="#4A2E2C" d="M11.532,12.367c6.407-6.834,17.801-8.368,25.972-0.707c8.394,7.87,7.361,19.117,0.949,25.961
		c-6.412,6.83-19.043,7.201-25.969,0.708C5.553,31.832,5.123,19.206,11.532,12.367z"/>
	<path fill="#280F0D" d="M21.57,11.522c1.716-1.613,4.988,2.602,9.444,6.303c4.453,3.699,8.998,7.908,8.515,8.368
		c-1.575,1.518-4.519-1.909-8.976-5.604C26.102,16.89,21.09,11.975,21.57,11.522z"/>
	<path fill="#280F0D" d="M14.478,16.344c1.718-1.553,5.889,3.392,11.323,7.906c5.432,4.51,11.02,9.589,10.53,10.036
		c-1.59,1.443-5.286-2.585-10.714-7.097C20.185,22.675,13.988,16.78,14.478,16.344z"/>
	<path fill="#280F0D" d="M10.986,23.528c1.615-1.495,5.09,2.679,9.712,6.395c4.624,3.712,9.365,7.929,8.904,8.351
		c-1.488,1.405-4.591-1.987-9.215-5.701C15.771,28.855,10.526,23.952,10.986,23.528z"/>
	<path fill="#280F0D" d="M37.489,17.779c1.586,1.741-3.232,5.707-7.599,10.935c-4.368,5.208-9.287,10.58-9.744,10.089
		c-1.485-1.598,2.447-5.134,6.81-10.365C31.325,23.229,37.039,17.285,37.489,17.779z"/>
	<path fill="#280F0D" d="M31.133,10.994c1.474,1.642-3.332,5.843-7.743,11.266c-4.415,5.419-9.355,11.015-9.782,10.549
		c-1.373-1.509,2.551-5.229,6.965-10.653C24.979,16.731,30.725,10.525,31.133,10.994z"/>
</g>
</svg>
