<?xml version="1.0" encoding="utf-8"?>
<!-- Generator: Adobe Illustrator 16.0.0, SVG Export Plug-In . SVG Version: 6.00 Build 0)  -->
<!DOCTYPE svg PUBLIC "-//W3C//DTD SVG 1.1//EN" "http://www.w3.org/Graphics/SVG/1.1/DTD/svg11.dtd">
<svg version="1.1" id="圖層_1" xmlns="http://www.w3.org/2000/svg" xmlns:xlink="http://www.w3.org/1999/xlink" x="0px" y="0px"
	 width="150px" height="120px" viewBox="0 0 150 120" enable-background="new 0 0 150 120" xml:space="preserve">
<g>
	<path fill="#4C2E2C" d="M64.864,100.311c-0.063-1.321,0.04-2.59,0.268-3.77c-2.036-0.525-4.108-0.87-5.966-1.198
		c-2.941-0.516-15.078-1.018-11.837-6.119c0.41-0.645,1.12-1.145,1.707-1.61c-0.885,0.702,0.359-0.222,0.471-0.29
		c1.012-0.611,2.063-1.156,3.105-1.708c2.548-1.349,5.123-2.643,7.584-4.148c1.848-1.13,3.97-2.441,5.126-4.344
		c1.294-2.12-1.447-3.134-2.981-3.561c-5.979-1.668-13.163-0.752-19.224-0.388c-1.662,0.1-3.355,0.282-5.023,0.279
		c0.267-0.157,0.724-0.452,0.72-0.447c0.488-0.28,0.992-0.533,1.492-0.79c0.636-0.317,0.678-0.339,0.131-0.066
		c0.315-0.149,0.629-0.298,0.944-0.445c2.946-1.376,5.979-2.51,9.05-3.573c1.579-0.547,3.164-1.083,4.756-1.596
		c0.008,0.012,1.014-0.281,1.254-0.338c0.915-0.221,1.827-0.445,2.737-0.684c2.294-0.605,16.808-4.714,12.559-9.18
		c-2.11-2.219-6.69-2.337-9.485-2.627c-3.359-0.347-6.796-0.399-10.17-0.261c-3.121,0.126-7.21,1.028-9.674,3.084
		c-2.523,2.106,2.113,2.319,3.265,2.272c0.163-0.007,0.274-0.012,0.358-0.017c0.085,0.001,0.186,0.001,0.314,0.002
		c0.997,0.001,1.994,0.033,2.992,0.072c2.396,0.094,4.386,0.257,6.546,0.757c0.96,0.219,2.425,0.675,2.092,1.481
		c-0.05,0.119-0.062,0.198-0.056,0.253c-0.066,0.018-0.14,0.038-0.234,0.07c-0.1,0.031-0.186,0.061-0.264,0.085
		c-0.118,0.026-0.318,0.072-0.639,0.153c-0.851,0.213-1.707,0.412-2.559,0.62c-7.466,1.843-14.973,4.665-21.916,7.948
		c-1.31,0.62-12.268,5.643-8.208,7.802c2.956,1.57,7.307,0.816,10.471,0.63c2.155-0.126,4.309-0.263,6.465-0.367
		c1.089-0.051,2.18-0.081,3.271-0.105c0.27-0.006,0.485-0.012,0.664-0.016c0.057,0.001,0.146,0.002,0.278,0.004
		c1.745,0.006,4.104-0.114,5.623,0.587c1.128,0.52-0.829,1.664-1.563,2.131c-4.36,2.771-9.425,4.52-13.486,7.751
		c-1.933,1.536-4.741,4.412-3.034,7.014c1.687,2.571,5.655,3.289,8.445,3.797c3.171,0.581,6.365,0.959,9.521,1.638
		c2.886,0.622,7.117,1.477,8.956,4.083c0.985,1.396,3.659,1.331,6.443,0.67C65.43,104.257,64.961,102.365,64.864,100.311z"/>
	<g>
		<path fill="#F4E8D1" d="M122.668,13.17c-1.295-0.759-2.864-0.9-4.668-0.427c-7.315,1.92-18.828,14.504-28.647,31.315
			c-2.956,5.063-5.517,10.141-7.671,15.125l-0.03-0.02l-0.73,1.768l-0.558,1.343l0.02,0.011c-2.591,6.504-4.133,12.187-4.51,16.611
			c-0.441,0.059-0.864,0.13-1.272,0.236c-6.324,1.661-10.117,8.154-8.46,14.474c0.081,0.303,0.175,0.6,0.277,0.893
			c0.552,2.499-1.53,4.659-3.906,6.83c-1.44,1.315-2.686,2.453-2.014,3.955c0.718,1.61,2.757,1.583,7.234,1.142
			c2.573-0.254,4.982-0.674,7.165-1.247c8.227-2.161,11.011-5.848,11.561-6.704c2.649-2.976,3.63-7.029,2.619-10.884
			c-0.13-0.496-0.309-0.985-0.523-1.483c3.633-2.508,7.77-6.609,12.096-11.984l0.021,0.015l0.895-1.147
			c0.018-0.019,0.027-0.038,0.045-0.057l1.134-1.447l-0.027-0.021c3.285-4.323,6.448-9.045,9.404-14.107
			c5.708-9.768,10.03-19.584,12.174-27.64C126.642,20.883,126.082,15.163,122.668,13.17L122.668,13.17z M83.868,96.37l-1.013,1.108
			l0.046,0.053c-1.153,1.127-3.764,3.087-8.85,4.422c-2.009,0.526-4.246,0.917-6.646,1.153c-0.843,0.084-1.528,0.142-2.089,0.175
			c2.252-2.091,5.371-5.352,4.329-9.642l-0.022-0.087l-0.031-0.076c-0.079-0.232-0.158-0.471-0.224-0.711
			c-1.191-4.541,1.535-9.207,6.079-10.4c0.505-0.131,1.056-0.207,1.696-0.23h0.087l7.952,4.646c0.312,0.591,0.528,1.124,0.667,1.658
			C86.589,91.252,85.85,94.221,83.868,96.37L83.868,96.37z M86.344,83.588l-7.174-4.19c0.305-3.983,1.741-9.357,4.119-15.414
			l7.224,4.218l7.23,4.226C93.642,77.471,89.661,81.367,86.344,83.588L86.344,83.588z M121.07,28.862
			c-2.065,7.774-6.269,17.296-11.825,26.814c-2.963,5.067-6.124,9.806-9.413,14.107l-7.627-4.454l-7.638-4.46
			c2.129-4.975,4.706-10.055,7.666-15.125c10.32-17.669,21.201-28.353,26.614-29.772c0.916-0.24,1.633-0.215,2.138,0.077
			C122.38,16.862,123.24,20.708,121.07,28.862L121.07,28.862z M121.07,28.862"/>
		<path fill="#F4E8D1" d="M63.872,107.748c-1.701,0-3.548-0.239-4.347-2.03c-0.983-2.203,0.741-3.781,2.265-5.173
			c2.542-2.321,3.948-4.013,3.6-5.76c-0.103-0.299-0.196-0.599-0.277-0.907c-1.809-6.891,2.327-13.966,9.217-15.775
			c0.18-0.047,0.367-0.088,0.565-0.128c0.491-4.338,2.01-9.802,4.423-15.89c0.012-0.074,0.033-0.147,0.063-0.218l1.285-3.109
			c0.039-0.092,0.091-0.176,0.15-0.253c2.181-5.021,4.743-10.061,7.618-14.982c9.951-17.04,21.725-29.823,29.296-31.81
			c2.08-0.546,3.944-0.359,5.477,0.538c3.923,2.291,4.636,8.261,2.117,17.741c-2.166,8.149-6.528,18.057-12.283,27.903
			c-2.87,4.914-6.005,9.627-9.321,14.01c-0.034,0.085-0.08,0.165-0.138,0.238l-1.134,1.449c-0.005,0.004-0.009,0.01-0.014,0.016
			c-0.023,0.029-0.049,0.064-0.066,0.083l-0.857,1.102c-0.053,0.066-0.111,0.124-0.175,0.176
			c-4.052,5.009-8.003,8.972-11.486,11.522c0.102,0.286,0.187,0.561,0.258,0.828c1.091,4.161,0.044,8.565-2.802,11.801
			c-0.794,1.203-3.84,4.909-12.138,7.086c-2.233,0.587-4.699,1.017-7.331,1.279C66.23,107.644,64.943,107.748,63.872,107.748z
			 M81.428,62.489c-0.013,0.065-0.03,0.128-0.056,0.191c-2.537,6.369-4.073,12.007-4.438,16.307
			c-0.044,0.498-0.426,0.899-0.922,0.966c-0.464,0.061-0.828,0.128-1.146,0.21c-5.75,1.512-9.205,7.419-7.694,13.174
			c0.071,0.275,0.157,0.544,0.251,0.813c0.014,0.039,0.025,0.079,0.035,0.121c0.677,3.059-1.72,5.554-4.229,7.846
			c-1.473,1.346-2.083,2.011-1.76,2.734c0.128,0.288,0.344,0.77,2.402,0.77c1.041,0,2.42-0.122,3.756-0.252
			c2.519-0.25,4.874-0.66,6.998-1.219c7.927-2.081,10.5-5.572,10.937-6.25c0.03-0.046,0.063-0.09,0.101-0.132
			c2.409-2.708,3.301-6.41,2.384-9.905c-0.105-0.406-0.26-0.843-0.471-1.334c-0.2-0.467-0.044-1.008,0.372-1.296
			c3.522-2.431,7.628-6.502,11.872-11.773c0.046-0.057,0.098-0.107,0.151-0.153l0.756-0.968c0.008-0.011,0.026-0.034,0.045-0.057
			v-0.001l0.974-1.243c0.032-0.076,0.073-0.147,0.121-0.212c3.323-4.372,6.464-9.083,9.335-14.002
			c5.661-9.687,9.945-19.407,12.063-27.374c2.179-8.203,1.776-13.657-1.134-15.356c-1.043-0.611-2.343-0.715-3.86-0.318
			c-7.061,1.854-18.313,14.241-27.999,30.826c-2.88,4.931-5.441,9.981-7.613,15.009c-0.034,0.079-0.079,0.154-0.13,0.223
			L81.428,62.489z M65.315,104.347c-0.424,0-0.809-0.253-0.979-0.646c-0.178-0.414-0.075-0.894,0.254-1.199
			c2.467-2.291,4.873-5.104,4.02-8.611l-0.005-0.015c-0.107-0.31-0.192-0.571-0.263-0.835c-1.344-5.114,1.723-10.362,6.835-11.706
			c0.587-0.152,1.216-0.239,1.927-0.265c0.015-0.001,0.026-0.001,0.04-0.001h0.087c0.188,0,0.374,0.051,0.537,0.146l7.953,4.646
			c0.171,0.101,0.313,0.247,0.404,0.424c0.354,0.674,0.596,1.273,0.755,1.884c0.831,3.171-0.003,6.507-2.229,8.923l-0.778,0.851
			c-0.048,0.13-0.124,0.249-0.227,0.349c-1.173,1.146-3.943,3.278-9.324,4.69c-2.086,0.546-4.378,0.944-6.813,1.182
			c-0.854,0.088-1.556,0.146-2.129,0.18C65.358,104.347,65.337,104.347,65.315,104.347z M76.96,83.21
			c-0.462,0.027-0.87,0.089-1.245,0.187c-3.973,1.043-6.357,5.125-5.313,9.099c0.057,0.211,0.127,0.429,0.199,0.637l0.011,0.021
			c0.019,0.046,0.033,0.092,0.045,0.14l0.021,0.085c0.878,3.611-0.844,6.564-2.571,8.582c2.024-0.231,3.931-0.58,5.676-1.036
			c4.547-1.195,6.981-2.886,8.128-3.922c0.04-0.086,0.092-0.168,0.16-0.241l1.012-1.108c1.736-1.883,2.385-4.479,1.739-6.943
			c-0.098-0.373-0.24-0.749-0.445-1.167L76.96,83.21z M86.344,84.652c-0.187,0-0.372-0.048-0.538-0.144l-7.173-4.19
			c-0.353-0.207-0.556-0.595-0.525-1.002c0.315-4.101,1.765-9.538,4.191-15.72c0.112-0.29,0.348-0.516,0.64-0.618
			c0.295-0.101,0.619-0.069,0.887,0.087l14.457,8.444c0.267,0.156,0.453,0.423,0.51,0.729c0.056,0.306-0.025,0.621-0.221,0.862
			c-4.188,5.148-8.213,9.08-11.637,11.374C86.757,84.592,86.551,84.652,86.344,84.652z M80.291,78.819l6.005,3.508
			c2.916-2.069,6.288-5.365,9.832-9.612l-12.296-7.18C81.875,70.711,80.661,75.268,80.291,78.819z M99.832,70.849
			c-0.183,0-0.367-0.048-0.535-0.146L84.03,61.79c-0.465-0.272-0.654-0.846-0.441-1.339c2.14-5.001,4.738-10.129,7.725-15.244
			c10.955-18.754,21.812-28.835,27.265-30.265c1.207-0.316,2.189-0.25,2.94,0.184c2.371,1.385,2.581,6.49,0.581,14.01
			c-2.089,7.856-6.327,17.474-11.935,27.077c-2.99,5.112-6.181,9.896-9.486,14.218C100.471,70.702,100.154,70.849,99.832,70.849z
			 M85.92,60.425l13.636,7.963c3.05-4.055,5.997-8.506,8.77-13.249c5.514-9.444,9.675-18.873,11.717-26.551
			c2.229-8.379,1.01-11.268,0.408-11.619c-0.229-0.133-0.725-0.127-1.333,0.034c-5.073,1.329-15.898,12.043-25.964,29.278
			C90.383,51.024,87.952,55.779,85.92,60.425z"/>
	</g>
</g>
</svg>
