<?xml version="1.0" encoding="utf-8"?>
<!-- Generator: Adobe Illustrator 16.0.0, SVG Export Plug-In . SVG Version: 6.00 Build 0)  -->
<!DOCTYPE svg PUBLIC "-//W3C//DTD SVG 1.1//EN" "http://www.w3.org/Graphics/SVG/1.1/DTD/svg11.dtd">
<svg version="1.1" id="圖層_1" xmlns="http://www.w3.org/2000/svg" xmlns:xlink="http://www.w3.org/1999/xlink" x="0px" y="0px"
	 width="640px" height="1200px" viewBox="0 0 640 1200" enable-background="new 0 0 640 1200" xml:space="preserve">
<g>
	<defs>
		<rect id="SVGID_1_" x="-781.001" width="642" height="1202"/>
	</defs>
	<clipPath id="SVGID_2_">
		<use xlink:href="#SVGID_1_"  overflow="visible"/>
	</clipPath>
	<g clip-path="url(#SVGID_2_)">
		<g>
			<defs>
				<rect id="SVGID_3_" x="-838.854" y="-57.97" width="757.706" height="1313.97"/>
			</defs>
			<clipPath id="SVGID_4_">
				<use xlink:href="#SVGID_3_"  overflow="visible"/>
			</clipPath>
			<g clip-path="url(#SVGID_4_)">
				<g>
					<g>
						<path fill="#BC6325" d="M13.777,28.063c-5.181,11.4-18.621,16.442-30.021,11.264C-27.645,34.146-32.69,20.701-27.51,9.3
							c5.178-11.406,38.067-28.967,38.067-28.967S18.953,16.657,13.777,28.063z"/>
						<path fill="#BC6325" d="M189.223,28.063c-5.179,11.4-18.62,16.442-30.02,11.264c-11.402-5.181-16.447-18.626-11.266-30.027
							c5.178-11.406,38.068-28.967,38.068-28.967S194.4,16.657,189.223,28.063z"/>
					</g>
					<g>
						<path fill="#BC6325" d="M90.134,140.4c-5.179,11.4-18.622,16.443-30.023,11.265c-11.398-5.181-16.443-18.626-11.264-30.028
							c5.178-11.406,38.068-28.967,38.068-28.967S95.312,128.995,90.134,140.4z"/>
						<path fill="#BC6325" d="M265.58,140.4c-5.18,11.4-18.622,16.443-30.021,11.264c-11.401-5.18-16.443-18.625-11.264-30.027
							c5.176-11.406,38.068-28.967,38.068-28.967S270.759,128.995,265.58,140.4z"/>
					</g>
					<g>
						<path fill="#BC6325" d="M13.777,255.667c-5.181,11.4-18.621,16.443-30.021,11.264c-11.4-5.18-16.446-18.626-11.266-30.027
							c5.178-11.407,38.067-28.968,38.067-28.968S18.953,244.262,13.777,255.667z"/>
						<path fill="#BC6325" d="M189.223,255.667c-5.179,11.4-18.62,16.443-30.02,11.264c-11.402-5.18-16.447-18.626-11.266-30.027
							c5.178-11.406,38.068-28.968,38.068-28.968S194.4,244.262,189.223,255.667z"/>
					</g>
					<g>
						<path fill="#BC6325" d="M90.134,368.006c-5.179,11.4-18.622,16.443-30.023,11.262c-11.398-5.18-16.443-18.625-11.264-30.025
							c5.178-11.407,38.068-28.967,38.068-28.967S95.312,356.6,90.134,368.006z"/>
						<path fill="#BC6325" d="M265.58,368.006c-5.18,11.4-18.622,16.443-30.021,11.262c-11.401-5.18-16.443-18.625-11.264-30.026
							c5.176-11.406,38.068-28.966,38.068-28.966S270.759,356.6,265.58,368.006z"/>
					</g>
					<g>
						<path fill="#BC6325" d="M13.777,483.272c-5.181,11.4-18.621,16.442-30.021,11.264c-11.4-5.18-16.446-18.625-11.266-30.026
							c5.178-11.406,38.067-28.966,38.067-28.966S18.953,471.867,13.777,483.272z"/>
						<path fill="#BC6325" d="M189.223,483.272c-5.179,11.4-18.62,16.443-30.02,11.264c-11.402-5.18-16.447-18.625-11.266-30.026
							c5.178-11.406,38.068-28.966,38.068-28.966S194.4,471.867,189.223,483.272z"/>
					</g>
					<g>
						<path fill="#BC6325" d="M90.134,595.61c-5.179,11.401-18.622,16.443-30.023,11.264c-11.398-5.18-16.443-18.625-11.264-30.027
							c5.178-11.405,38.068-28.966,38.068-28.966S95.312,584.204,90.134,595.61z"/>
						<path fill="#BC6325" d="M265.58,595.61c-5.18,11.401-18.622,16.443-30.021,11.264c-11.401-5.18-16.443-18.625-11.264-30.027
							c5.176-11.405,38.068-28.966,38.068-28.966S270.759,584.204,265.58,595.61z"/>
					</g>
					<g>
						<path fill="#BC6325" d="M13.777,710.878c-5.181,11.4-18.621,16.442-30.021,11.264c-11.4-5.18-16.446-18.625-11.266-30.027
							c5.178-11.405,38.067-28.967,38.067-28.967S18.953,699.472,13.777,710.878z"/>
						<path fill="#BC6325" d="M189.223,710.878c-5.179,11.4-18.62,16.442-30.02,11.264c-11.402-5.181-16.447-18.626-11.266-30.027
							c5.178-11.406,38.068-28.967,38.068-28.967S194.4,699.472,189.223,710.878z"/>
					</g>
				</g>
				<g>
					<g>
						<path fill="#BC6325" d="M90.134,824.828c-5.179,11.401-18.622,16.443-30.023,11.264c-11.398-5.18-16.443-18.625-11.264-30.027
							c5.178-11.407,38.068-28.966,38.068-28.966S95.312,813.422,90.134,824.828z"/>
						<path fill="#BC6325" d="M265.58,824.828c-5.18,11.401-18.622,16.443-30.021,11.264c-11.401-5.18-16.443-18.625-11.264-30.027
							c5.176-11.407,38.068-28.966,38.068-28.966S270.759,813.422,265.58,824.828z"/>
					</g>
					<g>
						<path fill="#BC6325" d="M13.777,940.096c-5.181,11.4-18.621,16.443-30.021,11.264c-11.4-5.181-16.446-18.626-11.266-30.027
							c5.178-11.406,38.067-28.967,38.067-28.967S18.953,928.689,13.777,940.096z"/>
						<path fill="#BC6325" d="M189.223,940.096c-5.179,11.4-18.62,16.443-30.02,11.264c-11.402-5.181-16.447-18.626-11.266-30.027
							c5.178-11.406,38.068-28.967,38.068-28.967S194.4,928.689,189.223,940.096z"/>
					</g>
					<g>
						<path fill="#BC6325" d="M90.134,1052.433c-5.179,11.4-18.622,16.443-30.023,11.265c-11.398-5.182-16.443-18.626-11.264-30.028
							c5.178-11.406,38.068-28.967,38.068-28.967S95.312,1041.028,90.134,1052.433z"/>
						<path fill="#BC6325" d="M265.58,1052.433c-5.18,11.4-18.622,16.443-30.021,11.265c-11.401-5.181-16.443-18.626-11.264-30.027
							c5.176-11.406,38.068-28.967,38.068-28.967S270.759,1041.028,265.58,1052.433z"/>
					</g>
					<g>
						<path fill="#BC6325" d="M13.777,1167.7c-5.181,11.4-18.621,16.443-30.021,11.264c-11.4-5.18-16.446-18.626-11.266-30.027
							c5.178-11.406,38.067-28.968,38.067-28.968S18.953,1156.295,13.777,1167.7z"/>
						<path fill="#BC6325" d="M189.223,1167.7c-5.179,11.4-18.62,16.443-30.02,11.264c-11.402-5.18-16.447-18.626-11.266-30.027
							c5.178-11.405,38.068-28.968,38.068-28.968S194.4,1156.295,189.223,1167.7z"/>
					</g>
				</g>
			</g>
		</g>
	</g>
</g>
<g>
	<defs>
		<rect id="SVGID_5_" x="-1" y="-1" width="642" height="1202"/>
	</defs>
	<clipPath id="SVGID_6_">
		<use xlink:href="#SVGID_5_"  overflow="visible"/>
	</clipPath>
	<g clip-path="url(#SVGID_6_)">
		<rect x="-280.775" y="-42.481" fill="#F7D793" width="2040.888" height="1257.752"/>
		<g>
			<g>
				<defs>
					<polygon id="SVGID_7_" points="-1249.872,-208.331 791.016,-208.331 798.814,1261.391 -1242.073,1261.391 					"/>
				</defs>
				<clipPath id="SVGID_8_">
					<use xlink:href="#SVGID_7_"  overflow="visible"/>
				</clipPath>
				<path opacity="0.9" clip-path="url(#SVGID_8_)" fill="#F6DA97" enable-background="new    " d="M277.545-423.427
					c34.93,50.556,78.602,94.051,120.804,138.705c81.867,86.625,160.241,172.354,252.484,245.715
					c85.043,67.63,157.047,151.368,232.737,231.46c54.725,57.904,115.343,107.983,170.019,165.329
					c40.683,42.668,77.641,81.423,68.192,150.058c-6.113,44.431-16.427,94.583-28.971,137.592
					c-10.211,35.013-22.525,70.127-34.004,104.764c-15.741,47.492-38.409,73.854-70.304,110.011
					c-78.998,89.562-151.147,179.462-250.96,240.299c-56.813,34.624-90.026,49.675-153.013,40.085
					c-77.241-11.766-160.219-34.753-219.415-90.182c-71.944-67.365-130.167-145.599-173.841-238.56
					c-24.793-52.763-43.361-107.25-65.596-160.479C79.348,540.458,16.866,447.761-50.82,352.916
					c-56.557-79.262-101.403-185.62-86.18-292.483C-120.927-52.399-62.557-159.59,13.499-238.706
					c42.488-44.198,82.859-78.406,134.611-108.127c26.778-15.382,85.154-74.433,116.276-65.14L277.545-423.427z"/>
			</g>
			<g>
				<defs>
					<polygon id="SVGID_9_" points="-1249.872,-208.331 791.016,-208.331 767.009,1215.271 -1273.879,1215.271 					"/>
				</defs>
				<clipPath id="SVGID_10_">
					<use xlink:href="#SVGID_9_"  overflow="visible"/>
				</clipPath>
				<path clip-path="url(#SVGID_10_)" fill="#F4D08A" d="M-500.572-893.62c75.614,15.516,154.305,17.673,232.455,22.055
					c151.605,8.499,298.996,19.083,450.337,7.455c139.52-10.727,278.93,3.352,419.099,11.21
					c101.344,5.68,202.297-0.328,303.142,4.903c75.035,3.892,143.192,7.419,188.892,75.216
					c29.585,43.881,59.568,96.224,81.568,144.15c17.912,39.015,33.803,79.846,50.142,119.571
					c22.411,54.472,20.893,96.158,18.01,153.989c-7.136,143.246-7.138,281.164-58.205,416.385
					c-29.065,76.97-50.23,117.425-121.021,160.791c-86.813,53.177-188.386,101.253-292.215,101.411
					c-126.189,0.195-247.375-20.391-365.824-65.812c-67.235-25.782-129.621-58.18-194.668-86.465
					C75.603,112.296-61.472,82.561-205.482,55.215c-120.344-22.853-250.735-79.026-321.373-185.007
					c-74.582-111.894-102.276-253.607-89.691-385.301c7.029-73.57,19.966-136.66,47.906-205.181
					c14.457-35.457,25.459-135.074,64.095-152.515L-500.572-893.62z"/>
			</g>
			<g>
				<defs>
					<polygon id="SVGID_11_" points="-1249.872,-208.331 791.016,-208.331 785.022,1239.86 -1255.865,1239.86 					"/>
				</defs>
				<clipPath id="SVGID_12_">
					<use xlink:href="#SVGID_11_"  overflow="visible"/>
				</clipPath>
				<path clip-path="url(#SVGID_12_)" fill="#E89021" d="M-365.564-721.584c60.782,12.472,124.044,14.206,186.867,17.728
					c121.871,6.832,240.355,15.34,362.019,5.991c112.156-8.621,224.226,2.695,336.906,9.011
					c81.469,4.565,162.622-0.262,243.688,3.944c60.322,3.128,115.111,5.961,151.852,60.465
					c23.781,35.275,47.883,77.352,65.571,115.877c14.403,31.365,27.173,64.19,40.309,96.126
					c18.013,43.788,16.793,77.297,14.477,123.787c-5.734,115.153-5.737,226.021-46.788,334.729
					c-23.371,61.874-40.384,94.394-97.293,129.252c-69.779,42.75-151.437,81.398-234.906,81.526
					c-101.446,0.156-198.859-16.395-294.08-52.905c-54.051-20.723-104.203-46.771-156.493-69.511
					C97.611,87.059-12.579,63.152-128.348,41.17c-96.744-18.37-201.561-63.53-258.349-148.726
					c-59.958-89.948-82.22-203.871-72.101-309.738c5.651-59.143,16.049-109.858,38.509-164.943
					c11.627-28.504,20.47-108.584,51.527-122.604L-365.564-721.584z"/>
			</g>
			<g>
				<defs>
					<polygon id="SVGID_13_" points="-1249.872,-208.331 791.016,-208.331 786.113,1239.86 -1254.774,1239.86 					"/>
				</defs>
				<clipPath id="SVGID_14_">
					<use xlink:href="#SVGID_13_"  overflow="visible"/>
				</clipPath>
				<path opacity="0.2" clip-path="url(#SVGID_14_)" fill="#EED697" enable-background="new    " d="M-386.696-107.555
					c56.788,85.195,161.605,130.357,258.351,148.726c115.767,21.982,225.957,45.89,334.911,93.268
					c52.29,22.739,102.442,48.786,156.493,69.508c95.219,36.513,192.634,53.062,294.08,52.905
					c83.468-0.126,165.125-38.775,234.904-81.524c56.911-34.86,73.924-67.38,97.293-129.253
					C903.925-28.206,721.285,27.59,568.379,71.763C426.197,112.838,118.151,90.362-97.138-46.605
					c-144.69-92.052-132.291-255.279-288.03-279.183c-88.41-13.57-106.186,39.574-55.566,101.276
					C-428.482-183.072-410.594-143.406-386.696-107.555z"/>
			</g>
			<g>
				<defs>
					<polygon id="SVGID_15_" points="-1249.872,-208.331 791.016,-208.331 794.017,1343.346 -1246.871,1343.346 					"/>
				</defs>
				<clipPath id="SVGID_16_">
					<use xlink:href="#SVGID_15_"  overflow="visible"/>
				</clipPath>
				<path opacity="0.4" clip-path="url(#SVGID_16_)" fill="#EED697" enable-background="new    " d="M534.893,158.367
					c25.636,0,50.169,1.864,74.969-5.296c23.025-6.648,46.112-17.663,70.037-20.392c19.996-2.279,77.87,9.701,52.591,41.954
					c-12.273,15.658-69.792,26.549-88.427,29.878c-23.151,4.135-51.554,1.588-74.877,0.472
					c-14.534-0.697-38.186-1.698-49.103-13.958c-8.892-9.985-14.638-25.715,2.067-30.336L534.893,158.367z"/>
			</g>
		</g>
	</g>
</g>
<g>
	<defs>
		<rect id="SVGID_251_" x="799" width="642" height="1202"/>
	</defs>
	<clipPath id="SVGID_18_">
		<use xlink:href="#SVGID_251_"  overflow="visible"/>
	</clipPath>
	<g id="圖層_1_9_" clip-path="url(#SVGID_18_)">
		<g opacity="0.3" enable-background="new    ">
			<g>
				<defs>
					<rect id="SVGID_253_" x="720.729" y="-35.365" width="855.085" height="1308.222"/>
				</defs>
				<clipPath id="SVGID_20_">
					<use xlink:href="#SVGID_253_"  overflow="visible"/>
				</clipPath>
				<g clip-path="url(#SVGID_20_)">
					<g opacity="0.8571">
						<path fill="none" stroke="#096D52" stroke-width="5" stroke-miterlimit="10" d="M549.025-69.609
							c0,24.037-15.205,24.037-15.205,48.073c0,24.036,15.205,24.036,15.205,48.073c0,24.037-15.205,24.037-15.205,48.074
							s15.205,24.037,15.205,48.074c0,24.037-15.205,24.037-15.205,48.073c0,24.038,15.205,24.038,15.205,48.074
							c0,24.037-15.205,24.037-15.205,48.073c0,24.038,15.205,24.038,15.205,48.075s-15.205,24.038-15.205,48.073
							s15.205,24.035,15.205,48.069c0,24.036-15.205,24.036-15.205,48.071c0,24.038,15.205,24.038,15.205,48.075
							c0,24.037-15.205,24.037-15.205,48.073c0,24.038,15.205,24.038,15.205,48.074c0,24.037-15.205,24.037-15.205,48.073
							s15.205,24.036,15.205,48.073c0,24.037-15.205,24.037-15.205,48.074c0,24.039,15.205,24.039,15.205,48.077
							c0,24.04-15.205,24.04-15.205,48.077c0,24.04,15.205,24.04,15.205,48.076c0,24.04-15.205,24.04-15.205,48.079
							c0,24.038,15.205,24.038,15.205,48.076c0,24.039-15.205,24.039-15.205,48.077s15.205,24.038,15.205,48.077
							c0,24.04-15.205,24.04-15.205,48.078c0,24.042,15.205,24.042,15.205,48.084s-15.205,24.044-15.205,48.084"/>
					</g>
					<g opacity="0.8667">
						<path fill="none" stroke="#096D52" stroke-width="5" stroke-miterlimit="10" d="M604.55-69.609
							c0,24.036-15.206,24.036-15.206,48.073c0,24.035,15.206,24.035,15.206,48.073c0,24.036-15.206,24.036-15.206,48.073
							c0,24.037,15.206,24.037,15.206,48.075c0,24.037-15.206,24.037-15.206,48.074c0,24.038,15.206,24.038,15.206,48.077
							c0,24.034-15.206,24.034-15.206,48.072c0,24.036,15.206,24.036,15.206,48.074s-15.206,24.038-15.206,48.075
							c0,24.035,15.206,24.035,15.206,48.069c0,24.036-15.206,24.036-15.206,48.071c0,24.038,15.206,24.038,15.206,48.075
							c0,24.035-15.206,24.035-15.206,48.071c0,24.038,15.206,24.038,15.206,48.075c0,24.036-15.206,24.036-15.206,48.073
							c0,24.037,15.206,24.037,15.206,48.073c0,24.037-15.206,24.037-15.206,48.074c0,24.039,15.206,24.039,15.206,48.078
							s-15.206,24.039-15.206,48.078c0,24.038,15.206,24.038,15.206,48.076c0,24.04-15.206,24.04-15.206,48.08
							c0,24.037,15.206,24.037,15.206,48.075c0,24.038-15.206,24.038-15.206,48.076c0,24.04,15.206,24.04,15.206,48.079
							c0,24.038-15.206,24.038-15.206,48.076c0,24.042,15.206,24.042,15.206,48.083c0,24.042-15.206,24.042-15.206,48.084"/>
					</g>
				</g>
				<g clip-path="url(#SVGID_20_)">
					<g opacity="0.8571">
						<path fill="none" stroke="#4B987E" stroke-width="5" stroke-miterlimit="10" d="M576.218-80.968
							c0,24.036-15.205,24.036-15.205,48.073c0,24.036,15.205,24.036,15.205,48.073c0,24.037-15.205,24.037-15.205,48.073
							c0,24.037,15.205,24.037,15.205,48.075c0,24.037-15.205,24.037-15.205,48.074c0,24.038,15.205,24.038,15.205,48.074
							c0,24.037-15.205,24.037-15.205,48.073c0,24.038,15.205,24.038,15.205,48.075c0,24.038-15.205,24.038-15.205,48.073
							s15.205,24.035,15.205,48.07s-15.205,24.035-15.205,48.07c0,24.038,15.205,24.038,15.205,48.076
							c0,24.037-15.205,24.037-15.205,48.073c0,24.038,15.205,24.038,15.205,48.073c0,24.038-15.205,24.038-15.205,48.073
							c0,24.036,15.205,24.036,15.205,48.073c0,24.038-15.205,24.038-15.205,48.075c0,24.038,15.205,24.038,15.205,48.076
							c0,24.04-15.205,24.04-15.205,48.077c0,24.04,15.205,24.04,15.205,48.076c0,24.04-15.205,24.04-15.205,48.078
							c0,24.039,15.205,24.039,15.205,48.076c0,24.039-15.205,24.039-15.205,48.077c0,24.039,15.205,24.039,15.205,48.078
							s-15.205,24.039-15.205,48.078c0,24.042,15.205,24.042,15.205,48.084c0,24.043-15.205,24.043-15.205,48.084"/>
					</g>
					<g opacity="0.8667">
						<path fill="none" stroke="#4B987E" stroke-width="5" stroke-miterlimit="10" d="M631.744-80.968
							c0,24.035-15.206,24.035-15.206,48.073c0,24.036,15.206,24.036,15.206,48.073c0,24.036-15.206,24.036-15.206,48.072
							c0,24.037,15.206,24.037,15.206,48.075c0,24.037-15.206,24.037-15.206,48.074c0,24.038,15.206,24.038,15.206,48.076
							c0,24.035-15.206,24.035-15.206,48.071c0,24.037,15.206,24.037,15.206,48.074c0,24.038-15.206,24.038-15.206,48.076
							c0,24.034,15.206,24.034,15.206,48.068c0,24.037-15.206,24.037-15.206,48.071c0,24.038,15.206,24.038,15.206,48.075
							c0,24.036-15.206,24.036-15.206,48.072c0,24.038,15.206,24.038,15.206,48.074s-15.206,24.037-15.206,48.074
							c0,24.037,15.206,24.037,15.206,48.073c0,24.037-15.206,24.037-15.206,48.074c0,24.039,15.206,24.039,15.206,48.077
							c0,24.039-15.206,24.039-15.206,48.078c0,24.038,15.206,24.038,15.206,48.076c0,24.04-15.206,24.04-15.206,48.08
							c0,24.037,15.206,24.037,15.206,48.075c0,24.038-15.206,24.038-15.206,48.076c0,24.04,15.206,24.04,15.206,48.079
							c0,24.038-15.206,24.038-15.206,48.076c0,24.042,15.206,24.042,15.206,48.083c0,24.043-15.206,24.043-15.206,48.084"/>
					</g>
				</g>
			</g>
		</g>
	</g>
	<g id="圖層_1_5_" clip-path="url(#SVGID_18_)">
		<g opacity="0.3" enable-background="new    ">
			<g>
				<defs>
					<rect id="SVGID_259_" x="127.914" y="-1167.5" width="1984.174" height="1117"/>
				</defs>
				<clipPath id="SVGID_22_">
					<use xlink:href="#SVGID_259_"  overflow="visible"/>
				</clipPath>
				<g clip-path="url(#SVGID_22_)">
					<g opacity="0.819">
						<path fill="none" stroke="#4B987E" stroke-width="9.2911" stroke-miterlimit="10" d="M200.816-1338.765
							c0,26.149-20.646,26.149-20.646,52.3c0,26.15,20.646,26.15,20.646,52.301c0,26.15-20.646,26.15-20.646,52.3
							c0,26.151,20.646,26.151,20.646,52.303c0,26.15-20.646,26.15-20.646,52.301c0,26.153,20.646,26.153,20.646,52.304
							c0,26.15-20.646,26.15-20.646,52.301s20.646,26.15,20.646,52.301c0,26.152-20.646,26.152-20.646,52.303
							c0,26.147,20.646,26.147,20.646,52.297c0,26.147-20.646,26.147-20.646,52.297c0,26.151,20.646,26.151,20.646,52.304
							c0,26.148-20.646,26.148-20.646,52.298c0,26.151,20.646,26.151,20.646,52.303c0,26.149-20.646,26.149-20.646,52.299
							c0,26.152,20.646,26.152,20.646,52.302c0,26.151-20.646,26.151-20.646,52.302c0,26.153,20.646,26.153,20.646,52.304
							c0,26.154-20.646,26.154-20.646,52.307c0,26.152,20.646,26.152,20.646,52.304c0,26.152-20.646,26.152-20.646,52.305
							c0,26.151,20.646,26.151,20.646,52.304c0,26.154-20.646,26.154-20.646,52.306c0,26.152,20.646,26.152,20.646,52.306
							c0,26.152-20.646,26.152-20.646,52.305c0,26.156,20.646,26.156,20.646,52.312c0,26.158-20.646,26.158-20.646,52.314"/>
					</g>
					<g opacity="0.8286">
						<path fill="none" stroke="#4B987E" stroke-width="9.2911" stroke-miterlimit="10" d="M317.335-1330.392
							c0,26.15-20.648,26.15-20.648,52.301s20.648,26.15,20.648,52.301s-20.648,26.15-20.648,52.3
							c0,26.151,20.648,26.151,20.648,52.302c0,26.15-20.648,26.15-20.648,52.302c0,26.151,20.648,26.151,20.648,52.3
							c0,26.151-20.648,26.151-20.648,52.303c0,26.15,20.648,26.15,20.648,52.301c0,26.151-20.648,26.151-20.648,52.303
							c0,26.148,20.648,26.148,20.648,52.297c0,26.15-20.648,26.15-20.648,52.299c0,26.152,20.648,26.152,20.648,52.304
							c0,26.149-20.648,26.149-20.648,52.298c0,26.151,20.648,26.151,20.648,52.302c0,26.149-20.648,26.149-20.648,52.3
							c0,26.151,20.648,26.151,20.648,52.302s-20.648,26.15-20.648,52.303c0,26.151,20.648,26.151,20.648,52.303
							s-20.648,26.152-20.648,52.306c0,26.152,20.648,26.152,20.648,52.305c0,26.152-20.648,26.152-20.648,52.306
							c0,26.152,20.648,26.152,20.648,52.304c0,26.152-20.648,26.152-20.648,52.305s20.648,26.152,20.648,52.307
							c0,26.152-20.648,26.152-20.648,52.304c0,26.156,20.648,26.156,20.648,52.312c0,26.157-20.648,26.157-20.648,52.313"/>
					</g>
					<g opacity="0.8381">
						<path fill="none" stroke="#4B987E" stroke-width="9.2911" stroke-miterlimit="10" d="M433.855-1322.022
							c0,26.15-20.646,26.15-20.646,52.301c0,26.149,20.646,26.149,20.646,52.301c0,26.149-20.646,26.149-20.646,52.299
							c0,26.154,20.646,26.154,20.646,52.304c0,26.15-20.646,26.15-20.646,52.3c0,26.151,20.646,26.151,20.646,52.303
							c0,26.149-20.646,26.149-20.646,52.301c0,26.15,20.646,26.15,20.646,52.301c0,26.151-20.646,26.151-20.646,52.303
							c0,26.148,20.646,26.148,20.646,52.295c0,26.149-20.646,26.149-20.646,52.299c0,26.153,20.646,26.153,20.646,52.306
							c0,26.148-20.646,26.148-20.646,52.298c0,26.151,20.646,26.151,20.646,52.302s-20.646,26.15-20.646,52.3
							c0,26.15,20.646,26.15,20.646,52.301c0,26.151-20.646,26.151-20.646,52.303s20.646,26.152,20.646,52.304
							c0,26.153-20.646,26.153-20.646,52.306s20.646,26.152,20.646,52.305c0,26.153-20.646,26.153-20.646,52.307
							c0,26.151,20.646,26.151,20.646,52.303s-20.646,26.152-20.646,52.305c0,26.152,20.646,26.152,20.646,52.304
							c0,26.152-20.646,26.152-20.646,52.305c0,26.156,20.646,26.156,20.646,52.313c0,26.155-20.646,26.155-20.646,52.312"/>
					</g>
					<g opacity="0.8476">
						<path fill="none" stroke="#4B987E" stroke-width="9.2911" stroke-miterlimit="10" d="M550.375-1313.649
							c0,26.15-20.648,26.15-20.648,52.301c0,26.15,20.648,26.15,20.648,52.3c0,26.15-20.648,26.15-20.648,52.301
							c0,26.151,20.648,26.151,20.648,52.303c0,26.15-20.648,26.15-20.648,52.301c0,26.152,20.648,26.152,20.648,52.304
							c0,26.149-20.648,26.149-20.648,52.301s20.648,26.151,20.648,52.303c0,26.151-20.648,26.151-20.648,52.3
							s20.648,26.149,20.648,52.297c0,26.15-20.648,26.15-20.648,52.299c0,26.151,20.648,26.151,20.648,52.303
							c0,26.15-20.648,26.15-20.648,52.3c0,26.15,20.648,26.15,20.648,52.302c0,26.148-20.648,26.148-20.648,52.3
							c0,26.15,20.648,26.15,20.648,52.301c0,26.151-20.648,26.151-20.648,52.302c0,26.153,20.648,26.153,20.648,52.304
							c0,26.153-20.648,26.153-20.648,52.307c0,26.152,20.648,26.152,20.648,52.304c0,26.153-20.648,26.153-20.648,52.306
							c0,26.152,20.648,26.152,20.648,52.303c0,26.152-20.648,26.152-20.648,52.304c0,26.154,20.648,26.154,20.648,52.308
							c0,26.152-20.648,26.152-20.648,52.305c0,26.156,20.648,26.156,20.648,52.312c0,26.159-20.648,26.159-20.648,52.314"/>
					</g>
				</g>
			</g>
		</g>
	</g>
</g>
<g>
	<defs>
		<rect id="SVGID_261_" x="1599" y="0" width="642" height="1223.491"/>
	</defs>
	<clipPath id="SVGID_24_">
		<use xlink:href="#SVGID_261_"  overflow="visible"/>
	</clipPath>
	<g clip-path="url(#SVGID_24_)">
		<g>
			<g>
				<g>
					<defs>
						<rect id="SVGID_279_" x="799" width="642" height="1098"/>
					</defs>
					<clipPath id="SVGID_25_">
						<use xlink:href="#SVGID_279_"  overflow="visible"/>
					</clipPath>
					<g clip-path="url(#SVGID_25_)">
						<g id="圖層_1_8_">
							<g opacity="0.3" enable-background="new    ">
								<g>
									<defs>
										<rect id="SVGID_281_" x="127.914" y="-1167.5" width="1984.174" height="1117"/>
									</defs>
									<clipPath id="SVGID_26_">
										<use xlink:href="#SVGID_281_"  overflow="visible"/>
									</clipPath>
								</g>
							</g>
						</g>
					</g>
				</g>
			</g>
		</g>
	</g>
</g>
</svg>
