<?xml version="1.0" encoding="utf-8"?>
<!-- Generator: Adobe Illustrator 16.0.0, SVG Export Plug-In . SVG Version: 6.00 Build 0)  -->
<!DOCTYPE svg PUBLIC "-//W3C//DTD SVG 1.1//EN" "http://www.w3.org/Graphics/SVG/1.1/DTD/svg11.dtd">
<svg version="1.1" id="圖層_1" xmlns="http://www.w3.org/2000/svg" xmlns:xlink="http://www.w3.org/1999/xlink" x="0px" y="0px"
	 width="50px" height="50px" viewBox="0 0 50 50" enable-background="new 0 0 50 50" xml:space="preserve">
<g>
	<g>
		<circle fill="#208567" cx="15.405" cy="15.714" r="7.421"/>
		<path fill="#208567" d="M31.434,30.828c3.793,0,6.87,3.077,6.87,6.873c0,3.793-3.076,6.866-6.87,6.866
			c-3.795,0-6.868-3.073-6.868-6.866C24.566,33.906,27.639,30.828,31.434,30.828z"/>
		
			<ellipse transform="matrix(-0.1443 0.9895 -0.9895 -0.1443 63.7694 23.7702)" fill="#208567" cx="21.607" cy="39.457" rx="5.947" ry="6.98"/>
		<circle fill="#208567" cx="24.738" cy="11.571" r="6.999"/>
		<path fill="#208567" d="M13.566,24.378c4.37,0,7.914,3.545,7.914,7.914c0,4.374-3.544,7.915-7.914,7.915
			c-4.37,0-7.914-3.541-7.914-7.915C5.652,27.923,9.196,24.378,13.566,24.378z"/>
		<circle fill="#208567" cx="34.586" cy="12.869" r="5.406"/>
		<path fill="#208567" d="M34.482,28.476c2.108-2.109,5.535-2.113,7.638,0c2.111,2.101,2.108,5.532,0,7.639
			c-2.108,2.114-5.53,2.108-7.638-0.004C32.372,34.011,32.37,30.579,34.482,28.476z"/>
		<circle fill="#208567" cx="10.568" cy="23.136" r="5.699"/>
		<circle fill="#208567" cx="36.833" cy="22.824" r="8.296"/>
		<ellipse fill="#208567" cx="26.442" cy="23.853" rx="12.903" ry="12.888"/>
	</g>
	<g>
		<circle fill="#026A4E" cx="17.747" cy="32.483" r="5.568"/>
		<path fill="#026A4E" d="M34.241,15.3c2.848,0,5.157,2.309,5.157,5.156c0,2.844-2.309,5.154-5.157,5.154
			c-2.846,0-5.154-2.31-5.154-5.154C29.087,17.609,31.396,15.3,34.241,15.3z"/>
		
			<ellipse transform="matrix(0.9895 0.1442 -0.1442 0.9895 4.3864 -4.837)" fill="#026A4E" cx="35.556" cy="27.836" rx="4.462" ry="5.237"/>
		<circle fill="#026A4E" cx="14.639" cy="25.477" r="5.253"/>
		<path fill="#026A4E" d="M25.992,38.064c-2.318-2.324-2.322-6.082,0-8.392c2.318-2.326,6.075-2.326,8.397-0.009
			c2.316,2.319,2.316,6.077,0,8.401C32.067,40.376,28.311,40.376,25.992,38.064z"/>
		<circle fill="#026A4E" cx="15.61" cy="18.088" r="4.053"/>
		<path fill="#026A4E" d="M27.321,18.165c-1.581-1.585-1.585-4.154,0-5.732c1.58-1.583,4.155-1.583,5.733,0
			c1.585,1.582,1.58,4.147-0.005,5.734C31.476,19.75,28.901,19.751,27.321,18.165z"/>
		<circle fill="#026A4E" cx="23.316" cy="36.11" r="4.275"/>
		<path fill="#026A4E" d="M23.083,10.175c3.438,0,6.229,2.789,6.229,6.23c0,3.436-2.79,6.226-6.229,6.226
			c-3.439,0-6.227-2.79-6.227-6.226C16.857,12.963,19.645,10.175,23.083,10.175z"/>
		<path fill="#026A4E" d="M14.182,24.195c0-5.346,4.332-9.68,9.671-9.68c5.336,0,9.672,4.338,9.672,9.69
			c0,5.337-4.333,9.672-9.672,9.672C18.516,33.88,14.182,29.541,14.182,24.195z"/>
	</g>
	<g>
		<circle fill="#4F986E" cx="25.55" cy="21.537" r="4.138"/>
		<circle fill="#4F986E" cx="29.69" cy="22.253" r="3.332"/>
		<path fill="#4F986E" d="M30.965,22.158c1.839,0,3.331,1.494,3.331,3.332c0,1.841-1.492,3.334-3.331,3.334
			c-1.84,0-3.331-1.493-3.331-3.334C27.634,23.653,29.125,22.158,30.965,22.158z"/>
		<path fill="#4F986E" d="M25.286,21.087c2.438-0.106,4.498,1.783,4.598,4.221c0.105,2.437-1.784,4.494-4.223,4.591
			c-2.435,0.11-4.493-1.776-4.598-4.218C20.958,23.245,22.848,21.188,25.286,21.087z"/>
		<path fill="#4F986E" d="M21.104,20.173c1.757,0,3.181,1.425,3.181,3.177c0,1.758-1.424,3.182-3.181,3.182
			c-1.757,0-3.179-1.424-3.179-3.182C17.925,21.598,19.346,20.173,21.104,20.173z"/>
	</g>
</g>
</svg>
