<?xml version="1.0" encoding="utf-8"?>
<!-- Generator: Adobe Illustrator 16.0.0, SVG Export Plug-In . SVG Version: 6.00 Build 0)  -->
<!DOCTYPE svg PUBLIC "-//W3C//DTD SVG 1.1//EN" "http://www.w3.org/Graphics/SVG/1.1/DTD/svg11.dtd">
<svg version="1.1" id="圖層_1" xmlns="http://www.w3.org/2000/svg" xmlns:xlink="http://www.w3.org/1999/xlink" x="0px" y="0px"
	 width="640px" height="360px" viewBox="0 0 640 360" enable-background="new 0 0 640 360" xml:space="preserve">
<g>
	<g>
		<defs>
			<rect id="SVGID_209_" x="757.358" y="673" width="358.75" height="82"/>
		</defs>
		<clipPath id="SVGID_2_">
			<use xlink:href="#SVGID_209_"  overflow="visible"/>
		</clipPath>
		<g clip-path="url(#SVGID_2_)">
			<defs>
				<rect id="SVGID_211_" x="730.923" y="651.006" width="433.536" height="149.028"/>
			</defs>
			<clipPath id="SVGID_4_">
				<use xlink:href="#SVGID_211_"  overflow="visible"/>
			</clipPath>
			<rect x="268.995" y="44.749" clip-path="url(#SVGID_4_)" fill="#C16926" width="1358.748" height="764.914"/>
		</g>
	</g>
</g>
<g>
	<defs>
		<rect id="SVGID_225_" x="-1" y="419.437" width="642" height="361.126"/>
	</defs>
	<clipPath id="SVGID_6_">
		<use xlink:href="#SVGID_225_"  overflow="visible"/>
	</clipPath>
	<g id="圖層_1_6_" clip-path="url(#SVGID_6_)">
		<g>
			<g>
				<defs>
					<rect id="SVGID_237_" x="-1.335" y="419.103" width="642.669" height="361.794"/>
				</defs>
				<clipPath id="SVGID_8_">
					<use xlink:href="#SVGID_237_"  overflow="visible"/>
				</clipPath>
				<path opacity="0.1" clip-path="url(#SVGID_8_)" fill="#D13C3D" enable-background="new    " d="M-73.171,424.649
					c-24.663,67.222-26.464,142.82-17.082,213.136c4.501,33.717,5.221,62.557,22.267,90.359
					c7.755,12.647,16.165,27.208,27.075,35.813c18.018,14.211,12.501,30.124,32.331,40.27c28.393,14.53,85.193,16.349,113.73,30.334
					c28.85,14.142,63.803,11.532,94.899,14.36c43.912,3.992,180.572-3.894,224.706-5.049c26.739-0.698,53.405-6.733,80.064-6.963
					c11.877-0.104,24.568,3.47,36.313-0.184c1.413-18.337-14.202-25.603-19.831-44.178
					c-10.933-36.073-263.708-57.416-288.556-64.656c-50.526-14.726-107.201-25.069-140.71-76.034
					c-30.166-45.881-66.485-118.693-67.425-175.498c-0.475-28.727,21.759-85.678,2.789-104.511
					C-59.64,285.433-64.422,400.807-73.171,424.649z"/>
			</g>
			<g>
				<defs>
					<rect id="SVGID_239_" x="-1.335" y="419.103" width="642.669" height="361.794"/>
				</defs>
				<clipPath id="SVGID_10_">
					<use xlink:href="#SVGID_239_"  overflow="visible"/>
				</clipPath>
				<path opacity="0.15" clip-path="url(#SVGID_10_)" fill="#D13C3D" enable-background="new    " d="M262.268,925.667
					c-47.263,27.724-103.484,33.198-157.088,27.329c-25.703-2.813-47.317-2.121-70.092-17.658
					c-10.358-7.069-22.224-14.695-29.94-25.089c-12.743-17.165-23.968-10.92-33.892-30.08
					c-14.207-27.433-22.291-83.639-36.111-111.241c-13.974-27.904-16.163-62.674-21.957-93.355
					c-8.18-43.33-18.477-179.163-22.841-222.962c-2.645-26.536-1.298-53.26-4.281-79.693c-1.33-11.775-5.499-24.183-4.163-36.001
					c13.522-2.295,20.796,12.827,35.327,17.5c28.223,9.075,74.09,258.57,82.436,282.84c16.976,49.361,31.41,105.029,73.424,135.753
					c37.823,27.66,96.479,60.104,138.996,58.264c21.502-0.933,61.383-25.747,77.69-7.864
					C364.59,905.463,279.028,915.833,262.268,925.667z"/>
			</g>
		</g>
		<g>
			<g>
				<defs>
					<rect id="SVGID_241_" x="-1.001" y="418.768" width="642.669" height="361.795"/>
				</defs>
				<clipPath id="SVGID_12_">
					<use xlink:href="#SVGID_241_"  overflow="visible"/>
				</clipPath>
				<path opacity="0.18" clip-path="url(#SVGID_12_)" fill="#C12B35" enable-background="new    " d="M-72.836,431.418
					c-24.663,72.878-26.465,154.835-17.083,231.066c4.5,36.555,5.223,67.82,22.268,97.962c7.753,13.711,16.164,29.496,27.074,38.826
					c18.018,15.406,12.503,32.658,32.332,43.659c28.394,15.751,85.192,17.723,113.729,32.886
					c28.851,15.33,63.804,12.501,94.899,15.567c43.914,4.328,180.574-4.222,224.707-5.474c26.741-0.759,53.406-7.299,80.064-7.551
					c11.876-0.112,24.568,3.763,36.313-0.2c1.412-19.878-14.203-27.754-19.83-47.893c-10.933-39.107-263.709-62.246-288.556-70.096
					c-50.526-15.964-107.203-27.179-140.711-82.43c-30.165-49.741-66.485-128.679-67.424-190.264
					c-0.476-31.142,21.759-92.885,2.788-113.303C-59.305,280.492-64.089,405.572-72.836,431.418z"/>
				<path opacity="0.3" clip-path="url(#SVGID_12_)" fill="#C12B35" enable-background="new    " d="M262.602,925.334
					c-47.264,27.722-103.484,33.197-157.087,27.329c-25.704-2.814-47.318-2.122-70.092-17.659
					c-10.36-7.069-22.225-14.693-29.94-25.088c-12.743-17.165-23.97-10.92-33.892-30.08
					c-14.207-27.433-22.291-83.639-36.113-111.241c-13.972-27.904-16.161-62.674-21.955-93.356
					c-8.182-43.33-18.477-179.164-22.842-222.961c-2.645-26.536-1.296-53.26-4.28-79.694c-1.329-11.776-5.501-24.183-4.164-36.001
					c13.522-2.295,20.795,12.827,35.328,17.5C-54.213,363.159-8.347,612.653,0,636.925c16.976,49.36,31.408,105.027,73.423,135.751
					c37.823,27.66,96.48,60.104,138.996,58.265c21.502-0.932,61.384-25.747,77.69-7.863
					C364.925,905.129,279.363,915.5,262.602,925.334z"/>
			</g>
		</g>
	</g>
</g>
<g id="圖層_1_4_">
	<rect y="0" fill="#208567" width="640" height="360"/>
	<g opacity="0.3" enable-background="new    ">
		<g>
			<defs>
				<rect id="SVGID_243_" y="0" width="640" height="360"/>
			</defs>
			<clipPath id="SVGID_14_">
				<use xlink:href="#SVGID_243_"  overflow="visible"/>
			</clipPath>
			<g clip-path="url(#SVGID_14_)">
				<g opacity="0.819">
					<path fill="none" stroke="#096D52" stroke-width="4" stroke-miterlimit="10" d="M3.869-15.557c0,8.428-6.66,8.428-6.66,16.856
						c0,8.428,6.66,8.428,6.66,16.855s-6.66,8.428-6.66,16.857c0,8.429,6.66,8.429,6.66,16.856s-6.66,8.428-6.66,16.856
						s6.66,8.429,6.66,16.856s-6.66,8.428-6.66,16.856s6.66,8.429,6.66,16.856c0,8.429-6.66,8.429-6.66,16.857
						c0,8.427,6.66,8.427,6.66,16.854c0,8.429-6.66,8.429-6.66,16.856c0,8.429,6.66,8.429,6.66,16.857
						c0,8.428-6.66,8.428-6.66,16.856s6.66,8.428,6.66,16.856c0,8.428-6.66,8.428-6.66,16.855c0,8.43,6.66,8.43,6.66,16.857
						s-6.66,8.428-6.66,16.855c0,8.43,6.66,8.43,6.66,16.857c0,8.43-6.66,8.43-6.66,16.858c0,8.428,6.66,8.428,6.66,16.856
						s-6.66,8.429-6.66,16.858c0,8.428,6.66,8.428,6.66,16.856c0,8.429-6.66,8.429-6.66,16.857c0,8.43,6.66,8.43,6.66,16.859
						c0,8.428-6.66,8.428-6.66,16.857s6.66,8.43,6.66,16.859s-6.66,8.43-6.66,16.86"/>
				</g>
				<g opacity="0.8286">
					<path fill="none" stroke="#096D52" stroke-width="4" stroke-miterlimit="10" d="M41.453-19.323c0,8.429-6.66,8.429-6.66,16.857
						c0,8.428,6.66,8.428,6.66,16.855s-6.66,8.428-6.66,16.855c0,8.429,6.66,8.429,6.66,16.857c0,8.428-6.66,8.428-6.66,16.855
						c0,8.429,6.66,8.429,6.66,16.857c0,8.428-6.66,8.428-6.66,16.855c0,8.429,6.66,8.429,6.66,16.857
						c0,8.429-6.66,8.429-6.66,16.856s6.66,8.428,6.66,16.855s-6.66,8.428-6.66,16.855s6.66,8.428,6.66,16.858
						c0,8.428-6.66,8.428-6.66,16.856c0,8.428,6.66,8.428,6.66,16.855c0,8.429-6.66,8.429-6.66,16.855
						c0,8.429,6.66,8.429,6.66,16.856c0,8.429-6.66,8.428-6.66,16.856s6.66,8.429,6.66,16.857s-6.66,8.429-6.66,16.858
						c0,8.428,6.66,8.428,6.66,16.856c0,8.43-6.66,8.43-6.66,16.859c0,8.428,6.66,8.428,6.66,16.856c0,8.429-6.66,8.429-6.66,16.857
						c0,8.43,6.66,8.43,6.66,16.858c0,8.429-6.66,8.429-6.66,16.858c0,8.43,6.66,8.43,6.66,16.859s-6.66,8.43-6.66,16.86"/>
				</g>
				<g opacity="0.8381">
					<path fill="none" stroke="#096D52" stroke-width="4" stroke-miterlimit="10" d="M79.036-23.089
						c0,8.428-6.659,8.428-6.659,16.857c0,8.427,6.659,8.427,6.659,16.855c0,8.428-6.659,8.428-6.659,16.855
						s6.659,8.428,6.659,16.857c0,8.429-6.659,8.429-6.659,16.856c0,8.429,6.659,8.429,6.659,16.857
						c0,8.428-6.659,8.428-6.659,16.855s6.659,8.428,6.659,16.856s-6.659,8.429-6.659,16.856s6.659,8.428,6.659,16.855
						c0,8.428-6.659,8.428-6.659,16.855c0,8.428,6.659,8.428,6.659,16.857c0,8.428-6.659,8.428-6.659,16.856
						c0,8.429,6.659,8.429,6.659,16.856s-6.659,8.428-6.659,16.855c0,8.429,6.659,8.429,6.659,16.856
						c0,8.43-6.659,8.43-6.659,16.857c0,8.43,6.659,8.43,6.659,16.857c0,8.43-6.659,8.43-6.659,16.857
						c0,8.43,6.659,8.43,6.659,16.857c0,8.429-6.659,8.429-6.659,16.858c0,8.428,6.659,8.428,6.659,16.856
						c0,8.429-6.659,8.429-6.659,16.857c0,8.43,6.659,8.43,6.659,16.858c0,8.429-6.659,8.429-6.659,16.857
						c0,8.432,6.659,8.432,6.659,16.861s-6.659,8.43-6.659,16.859"/>
				</g>
				<g opacity="0.8476">
					<path fill="none" stroke="#096D52" stroke-width="4" stroke-miterlimit="10" d="M116.62-26.855c0,8.428-6.66,8.428-6.66,16.856
						c0,8.429,6.66,8.429,6.66,16.857c0,8.427-6.66,8.427-6.66,16.855c0,8.428,6.66,8.428,6.66,16.856s-6.66,8.429-6.66,16.856
						c0,8.429,6.66,8.429,6.66,16.857s-6.66,8.428-6.66,16.855s6.66,8.428,6.66,16.857c0,8.428-6.66,8.428-6.66,16.856
						c0,8.428,6.66,8.428,6.66,16.854c0,8.429-6.66,8.429-6.66,16.855c0,8.429,6.66,8.429,6.66,16.858
						c0,8.427-6.66,8.427-6.66,16.857c0,8.428,6.66,8.428,6.66,16.855s-6.66,8.428-6.66,16.855s6.66,8.428,6.66,16.855
						c0,8.429-6.66,8.429-6.66,16.856c0,8.429,6.66,8.429,6.66,16.857s-6.66,8.429-6.66,16.857s6.66,8.429,6.66,16.858
						c0,8.43-6.66,8.43-6.66,16.858c0,8.43,6.66,8.43,6.66,16.857c0,8.43-6.66,8.43-6.66,16.857c0,8.43,6.66,8.43,6.66,16.858
						c0,8.429-6.66,8.429-6.66,16.857c0,8.43,6.66,8.43,6.66,16.86c0,8.43-6.66,8.43-6.66,16.859"/>
				</g>
				<g opacity="0.8571">
					<path fill="none" stroke="#096D52" stroke-width="4" stroke-miterlimit="10" d="M154.203-30.621
						c0,8.429-6.66,8.429-6.66,16.856s6.66,8.428,6.66,16.855c0,8.429-6.66,8.429-6.66,16.857s6.66,8.428,6.66,16.857
						c0,8.428-6.66,8.428-6.66,16.856c0,8.428,6.66,8.428,6.66,16.856c0,8.429-6.66,8.429-6.66,16.857
						c0,8.428,6.66,8.428,6.66,16.856s-6.66,8.429-6.66,16.856c0,8.427,6.66,8.427,6.66,16.854c0,8.428-6.66,8.428-6.66,16.855
						c0,8.43,6.66,8.43,6.66,16.857c0,8.429-6.66,8.429-6.66,16.856c0,8.429,6.66,8.429,6.66,16.858c0,8.428-6.66,8.428-6.66,16.855
						s6.66,8.428,6.66,16.856s-6.66,8.429-6.66,16.856c0,8.429,6.66,8.429,6.66,16.858c0,8.428-6.66,8.428-6.66,16.857
						c0,8.428,6.66,8.428,6.66,16.857c0,8.428-6.66,8.428-6.66,16.857c0,8.428,6.66,8.428,6.66,16.856
						c0,8.429-6.66,8.429-6.66,16.857s6.66,8.429,6.66,16.858c0,8.428-6.66,8.428-6.66,16.857c0,8.43,6.66,8.43,6.66,16.86
						c0,8.43-6.66,8.432-6.66,16.861"/>
				</g>
				<g opacity="0.8667">
					<path fill="none" stroke="#096D52" stroke-width="4" stroke-miterlimit="10" d="M191.787-34.387
						c0,8.428-6.66,8.428-6.66,16.856c0,8.428,6.66,8.428,6.66,16.855c0,8.428-6.66,8.428-6.66,16.856
						c0,8.429,6.66,8.429,6.66,16.857c0,8.428-6.66,8.428-6.66,16.856s6.66,8.429,6.66,16.856c0,8.429-6.66,8.429-6.66,16.857
						s6.66,8.428,6.66,16.856c0,8.427-6.66,8.427-6.66,16.857c0,8.427,6.66,8.427,6.66,16.854c0,8.429-6.66,8.429-6.66,16.855
						c0,8.429,6.66,8.429,6.66,16.857c0,8.428-6.66,8.428-6.66,16.856c0,8.429,6.66,8.429,6.66,16.857
						c0,8.427-6.66,8.427-6.66,16.856c0,8.428,6.66,8.428,6.66,16.855s-6.66,8.428-6.66,16.856s6.66,8.429,6.66,16.857
						s-6.66,8.429-6.66,16.857s6.66,8.429,6.66,16.857s-6.66,8.429-6.66,16.858c0,8.428,6.66,8.428,6.66,16.857
						c0,8.428-6.66,8.428-6.66,16.858c0,8.428,6.66,8.428,6.66,16.857c0,8.428-6.66,8.428-6.66,16.857s6.66,8.43,6.66,16.859
						s-6.66,8.43-6.66,16.86"/>
				</g>
				<g opacity="0.8762">
					<path fill="none" stroke="#096D52" stroke-width="4" stroke-miterlimit="10" d="M229.371-38.152
						c0,8.429-6.66,8.429-6.66,16.855c0,8.429,6.66,8.429,6.66,16.856s-6.66,8.428-6.66,16.857c0,8.428,6.66,8.428,6.66,16.856
						c0,8.427-6.66,8.427-6.66,16.856c0,8.428,6.66,8.428,6.66,16.856s-6.66,8.428-6.66,16.855c0,8.429,6.66,8.429,6.66,16.858
						c0,8.428-6.66,8.428-6.66,16.856c0,8.427,6.66,8.427,6.66,16.854s-6.66,8.428-6.66,16.855s6.66,8.428,6.66,16.857
						c0,8.428-6.66,8.428-6.66,16.856c0,8.428,6.66,8.428,6.66,16.855c0,8.429-6.66,8.429-6.66,16.856
						c0,8.429,6.66,8.429,6.66,16.856s-6.66,8.428-6.66,16.856s6.66,8.429,6.66,16.857s-6.66,8.429-6.66,16.859
						c0,8.428,6.66,8.428,6.66,16.855c0,8.43-6.66,8.43-6.66,16.859c0,8.428,6.66,8.428,6.66,16.856c0,8.429-6.66,8.429-6.66,16.857
						c0,8.429,6.66,8.429,6.66,16.858c0,8.428-6.66,8.428-6.66,16.857s6.66,8.43,6.66,16.86c0,8.43-6.66,8.43-6.66,16.859"/>
				</g>
				<g opacity="0.8857">
					<path fill="none" stroke="#096D52" stroke-width="4" stroke-miterlimit="10" d="M266.955-41.919
						c0,8.428-6.66,8.428-6.66,16.857c0,8.428,6.66,8.428,6.66,16.855c0,8.428-6.66,8.428-6.66,16.856
						c0,8.428,6.66,8.428,6.66,16.857s-6.66,8.429-6.66,16.856c0,8.429,6.66,8.429,6.66,16.857c0,8.428-6.66,8.428-6.66,16.855
						c0,8.429,6.66,8.429,6.66,16.857s-6.66,8.428-6.66,16.856c0,8.427,6.66,8.427,6.66,16.855s-6.66,8.428-6.66,16.855
						c0,8.428,6.66,8.428,6.66,16.857s-6.66,8.429-6.66,16.855c0,8.429,6.66,8.429,6.66,16.857c0,8.429-6.66,8.429-6.66,16.856
						s6.66,8.428,6.66,16.857c0,8.428-6.66,8.428-6.66,16.855c0,8.43,6.66,8.43,6.66,16.857c0,8.43-6.66,8.43-6.66,16.857
						c0,8.429,6.66,8.429,6.66,16.857s-6.66,8.429-6.66,16.857c0,8.429,6.66,8.429,6.66,16.857c0,8.43-6.66,8.43-6.66,16.857
						c0,8.43,6.66,8.43,6.66,16.858c0,8.43-6.66,8.43-6.66,16.857c0,8.43,6.66,8.43,6.66,16.861c0,8.43-6.66,8.43-6.66,16.859"/>
				</g>
				<g opacity="0.8952">
					<path fill="none" stroke="#096D52" stroke-width="4" stroke-miterlimit="10" d="M304.538-45.685
						c0,8.428-6.659,8.428-6.659,16.856s6.659,8.428,6.659,16.856c0,8.428-6.659,8.428-6.659,16.855
						c0,8.429,6.659,8.429,6.659,16.856c0,8.429-6.659,8.429-6.659,16.857c0,8.428,6.659,8.428,6.659,16.856
						c0,8.428-6.659,8.428-6.659,16.856s6.659,8.428,6.659,16.857c0,8.429-6.659,8.429-6.659,16.856
						c0,8.427,6.659,8.427,6.659,16.854c0,8.428-6.659,8.428-6.659,16.857c0,8.428,6.659,8.428,6.659,16.856
						c0,8.427-6.659,8.427-6.659,16.855c0,8.43,6.659,8.43,6.659,16.857c0,8.427-6.659,8.427-6.659,16.855
						c0,8.429,6.659,8.429,6.659,16.857c0,8.428-6.659,8.428-6.659,16.855c0,8.43,6.659,8.43,6.659,16.857
						c0,8.43-6.659,8.43-6.659,16.858s6.659,8.429,6.659,16.856c0,8.431-6.659,8.431-6.659,16.858c0,8.43,6.659,8.43,6.659,16.857
						c0,8.428-6.659,8.428-6.659,16.857c0,8.43,6.659,8.43,6.659,16.857c0,8.43-6.659,8.43-6.659,16.857
						c0,8.43,6.659,8.43,6.659,16.859c0,8.431-6.659,8.431-6.659,16.86"/>
				</g>
				<g opacity="0.9048">
					<path fill="none" stroke="#096D52" stroke-width="4" stroke-miterlimit="10" d="M342.122-49.451
						c0,8.428-6.66,8.428-6.66,16.856c0,8.428,6.66,8.428,6.66,16.856c0,8.428-6.66,8.428-6.66,16.856
						c0,8.428,6.66,8.428,6.66,16.857c0,8.428-6.66,8.428-6.66,16.856c0,8.428,6.66,8.428,6.66,16.856
						c0,8.428-6.66,8.428-6.66,16.855c0,8.429,6.66,8.429,6.66,16.856c0,8.429-6.66,8.429-6.66,16.857
						c0,8.427,6.66,8.427,6.66,16.855c0,8.428-6.66,8.428-6.66,16.855c0,8.428,6.66,8.428,6.66,16.857
						c0,8.428-6.66,8.428-6.66,16.855c0,8.429,6.66,8.429,6.66,16.857c0,8.428-6.66,8.428-6.66,16.855
						c0,8.429,6.66,8.429,6.66,16.856c0,8.429-6.66,8.429-6.66,16.857c0,8.428,6.66,8.428,6.66,16.857s-6.66,8.43-6.66,16.857
						c0,8.43,6.66,8.43,6.66,16.856c0,8.43-6.66,8.43-6.66,16.858s6.66,8.429,6.66,16.856c0,8.429-6.66,8.429-6.66,16.858
						c0,8.43,6.66,8.43,6.66,16.857c0,8.43-6.66,8.43-6.66,16.858c0,8.43,6.66,8.43,6.66,16.859c0,8.432-6.66,8.432-6.66,16.861"/>
				</g>
				<g opacity="0.9143">
					<path fill="none" stroke="#096D52" stroke-width="4" stroke-miterlimit="10" d="M379.706-53.217
						c0,8.428-6.66,8.428-6.66,16.856c0,8.428,6.66,8.428,6.66,16.856s-6.66,8.428-6.66,16.856s6.66,8.429,6.66,16.856
						c0,8.429-6.66,8.429-6.66,16.857c0,8.428,6.66,8.428,6.66,16.857c0,8.428-6.66,8.428-6.66,16.855
						c0,8.428,6.66,8.428,6.66,16.856c0,8.429-6.66,8.429-6.66,16.857c0,8.427,6.66,8.427,6.66,16.854
						c0,8.429-6.66,8.429-6.66,16.855c0,8.429,6.66,8.429,6.66,16.857c0,8.428-6.66,8.428-6.66,16.855s6.66,8.428,6.66,16.856
						c0,8.43-6.66,8.43-6.66,16.858c0,8.428,6.66,8.428,6.66,16.855s-6.66,8.428-6.66,16.855c0,8.429,6.66,8.429,6.66,16.857
						s-6.66,8.429-6.66,16.857s6.66,8.429,6.66,16.857s-6.66,8.429-6.66,16.858c0,8.428,6.66,8.428,6.66,16.856
						c0,8.43-6.66,8.43-6.66,16.859c0,8.428,6.66,8.428,6.66,16.857c0,8.428-6.66,8.428-6.66,16.857c0,8.43,6.66,8.43,6.66,16.859
						s-6.66,8.43-6.66,16.859"/>
				</g>
				<g opacity="0.9238">
					<path fill="none" stroke="#096D52" stroke-width="4" stroke-miterlimit="10" d="M417.29-56.984c0,8.428-6.66,8.428-6.66,16.856
						c0,8.428,6.66,8.428,6.66,16.857c0,8.428-6.66,8.428-6.66,16.855c0,8.427,6.66,8.427,6.66,16.856
						c0,8.428-6.66,8.428-6.66,16.856c0,8.429,6.66,8.429,6.66,16.857s-6.66,8.428-6.66,16.856c0,8.429,6.66,8.429,6.66,16.856
						c0,8.429-6.66,8.429-6.66,16.856s6.66,8.428,6.66,16.854c0,8.429-6.66,8.429-6.66,16.856c0,8.428,6.66,8.428,6.66,16.858
						c0,8.427-6.66,8.427-6.66,16.855s6.66,8.428,6.66,16.857c0,8.428-6.66,8.428-6.66,16.856c0,8.429,6.66,8.429,6.66,16.856
						c0,8.429-6.66,8.429-6.66,16.857c0,8.428,6.66,8.428,6.66,16.856c0,8.43-6.66,8.43-6.66,16.859c0,8.428,6.66,8.428,6.66,16.855
						c0,8.43-6.66,8.43-6.66,16.859c0,8.428,6.66,8.428,6.66,16.855c0,8.429-6.66,8.429-6.66,16.857s6.66,8.429,6.66,16.858
						c0,8.428-6.66,8.428-6.66,16.858s6.66,8.43,6.66,16.859s-6.66,8.43-6.66,16.86"/>
				</g>
				<g opacity="0.9333">
					<path fill="none" stroke="#096D52" stroke-width="4" stroke-miterlimit="10" d="M454.873-60.75c0,8.429-6.66,8.429-6.66,16.856
						c0,8.428,6.66,8.428,6.66,16.856c0,8.428-6.66,8.428-6.66,16.856c0,8.429,6.66,8.429,6.66,16.857
						c0,8.428-6.66,8.428-6.66,16.855c0,8.429,6.66,8.429,6.66,16.857c0,8.428-6.66,8.428-6.66,16.855s6.66,8.428,6.66,16.857
						c0,8.428-6.66,8.428-6.66,16.855s6.66,8.428,6.66,16.855c0,8.428-6.66,8.428-6.66,16.856c0,8.429,6.66,8.429,6.66,16.857
						c0,8.428-6.66,8.428-6.66,16.855s6.66,8.428,6.66,16.856c0,8.428-6.66,8.428-6.66,16.856c0,8.43,6.66,8.43,6.66,16.857
						s-6.66,8.428-6.66,16.855c0,8.429,6.66,8.429,6.66,16.857s-6.66,8.429-6.66,16.858c0,8.428,6.66,8.428,6.66,16.856
						s-6.66,8.429-6.66,16.858c0,8.428,6.66,8.428,6.66,16.856c0,8.429-6.66,8.429-6.66,16.857c0,8.43,6.66,8.43,6.66,16.857
						c0,8.43-6.66,8.43-6.66,16.859s6.66,8.43,6.66,16.859s-6.66,8.43-6.66,16.859"/>
				</g>
				<g opacity="0.9429">
					<path fill="none" stroke="#096D52" stroke-width="4" stroke-miterlimit="10" d="M492.456-64.515
						c0,8.428-6.659,8.428-6.659,16.856c0,8.428,6.659,8.428,6.659,16.856c0,8.429-6.659,8.429-6.659,16.856
						s6.659,8.428,6.659,16.857c0,8.428-6.659,8.428-6.659,16.855c0,8.429,6.659,8.429,6.659,16.857
						c0,8.428-6.659,8.428-6.659,16.855c0,8.428,6.659,8.428,6.659,16.857s-6.659,8.429-6.659,16.856s6.659,8.428,6.659,16.854
						c0,8.429-6.659,8.429-6.659,16.855c0,8.429,6.659,8.429,6.659,16.857c0,8.428-6.659,8.428-6.659,16.856
						c0,8.428,6.659,8.428,6.659,16.855c0,8.428-6.659,8.428-6.659,16.857c0,8.428,6.659,8.428,6.659,16.857
						c0,8.428-6.659,8.428-6.659,16.856s6.659,8.429,6.659,16.856c0,8.429-6.659,8.429-6.659,16.857s6.659,8.429,6.659,16.858
						s-6.659,8.43-6.659,16.857s6.659,8.428,6.659,16.858c0,8.429-6.659,8.429-6.659,16.856c0,8.429,6.659,8.429,6.659,16.858
						s-6.659,8.429-6.659,16.857c0,8.431,6.659,8.431,6.659,16.861c0,8.43-6.659,8.43-6.659,16.859"/>
				</g>
				<g opacity="0.9524">
					<path fill="none" stroke="#096D52" stroke-width="4" stroke-miterlimit="10" d="M530.041-68.281
						c0,8.427-6.66,8.427-6.66,16.855c0,8.428,6.66,8.428,6.66,16.855s-6.66,8.428-6.66,16.857c0,8.428,6.66,8.428,6.66,16.856
						c0,8.428-6.66,8.428-6.66,16.856s6.66,8.429,6.66,16.856c0,8.429-6.66,8.429-6.66,16.857c0,8.428,6.66,8.428,6.66,16.855
						s-6.66,8.428-6.66,16.857c0,8.428,6.66,8.428,6.66,16.854c0,8.428-6.66,8.428-6.66,16.855c0,8.429,6.66,8.429,6.66,16.858
						c0,8.428-6.66,8.428-6.66,16.855c0,8.429,6.66,8.429,6.66,16.856s-6.66,8.428-6.66,16.857c0,8.428,6.66,8.428,6.66,16.856
						c0,8.428-6.66,8.428-6.66,16.855c0,8.43,6.66,8.43,6.66,16.859c0,8.428-6.66,8.428-6.66,16.857c0,8.428,6.66,8.428,6.66,16.856
						s-6.66,8.429-6.66,16.857s6.66,8.429,6.66,16.857c0,8.428-6.66,8.428-6.66,16.858c0,8.428,6.66,8.428,6.66,16.857
						c0,8.43-6.66,8.43-6.66,16.858c0,8.43,6.66,8.43,6.66,16.859s-6.66,8.43-6.66,16.861"/>
				</g>
				<g opacity="0.9619">
					<path fill="none" stroke="#096D52" stroke-width="4" stroke-miterlimit="10" d="M567.624-72.047
						c0,8.429-6.659,8.429-6.659,16.856s6.659,8.428,6.659,16.855c0,8.429-6.659,8.429-6.659,16.857
						c0,8.429,6.659,8.429,6.659,16.856s-6.659,8.428-6.659,16.857c0,8.428,6.659,8.428,6.659,16.855
						c0,8.428-6.659,8.428-6.659,16.857c0,8.428,6.659,8.428,6.659,16.856s-6.659,8.428-6.659,16.857
						c0,8.427,6.659,8.427,6.659,16.854s-6.659,8.428-6.659,16.855c0,8.429,6.659,8.429,6.659,16.857
						c0,8.428-6.659,8.428-6.659,16.855s6.659,8.428,6.659,16.857c0,8.428-6.659,8.428-6.659,16.856
						c0,8.428,6.659,8.428,6.659,16.856c0,8.429-6.659,8.429-6.659,16.856c0,8.429,6.659,8.429,6.659,16.858
						c0,8.428-6.659,8.428-6.659,16.857c0,8.429,6.659,8.429,6.659,16.857s-6.659,8.429-6.659,16.858
						c0,8.428,6.659,8.428,6.659,16.857c0,8.428-6.659,8.428-6.659,16.857c0,8.428,6.659,8.428,6.659,16.857
						c0,8.428-6.659,8.428-6.659,16.857c0,8.429,6.659,8.429,6.659,16.859c0,8.43-6.659,8.43-6.659,16.859"/>
				</g>
				<g opacity="0.9714">
					<path fill="none" stroke="#096D52" stroke-width="4" stroke-miterlimit="10" d="M605.208-75.813
						c0,8.428-6.66,8.428-6.66,16.856c0,8.428,6.66,8.428,6.66,16.855s-6.66,8.428-6.66,16.855c0,8.429,6.66,8.429,6.66,16.857
						c0,8.428-6.66,8.428-6.66,16.855c0,8.429,6.66,8.429,6.66,16.858c0,8.428-6.66,8.428-6.66,16.855
						c0,8.429,6.66,8.429,6.66,16.856c0,8.429-6.66,8.429-6.66,16.856s6.66,8.428,6.66,16.855c0,8.427-6.66,8.427-6.66,16.855
						c0,8.427,6.66,8.427,6.66,16.856c0,8.428-6.66,8.428-6.66,16.855c0,8.429,6.66,8.429,6.66,16.856s-6.66,8.428-6.66,16.855
						c0,8.429,6.66,8.429,6.66,16.857c0,8.429-6.66,8.429-6.66,16.857c0,8.43,6.66,8.43,6.66,16.857s-6.66,8.428-6.66,16.857
						s6.66,8.43,6.66,16.857c0,8.429-6.66,8.429-6.66,16.857c0,8.43,6.66,8.43,6.66,16.857c0,8.429-6.66,8.429-6.66,16.857
						c0,8.429,6.66,8.429,6.66,16.857c0,8.429-6.66,8.429-6.66,16.857c0,8.43,6.66,8.43,6.66,16.861c0,8.43-6.66,8.43-6.66,16.86"/>
				</g>
				<g opacity="0.981">
					<path fill="none" stroke="#096D52" stroke-width="4" stroke-miterlimit="10" d="M642.791-79.58
						c0,8.428-6.659,8.428-6.659,16.855c0,8.429,6.659,8.429,6.659,16.856c0,8.429-6.659,8.429-6.659,16.857
						c0,8.429,6.659,8.429,6.659,16.857c0,8.428-6.659,8.428-6.659,16.855s6.659,8.428,6.659,16.857
						c0,8.428-6.659,8.428-6.659,16.856c0,8.429,6.659,8.429,6.659,16.857c0,8.428-6.659,8.428-6.659,16.855
						s6.659,8.428,6.659,16.855c0,8.428-6.659,8.428-6.659,16.855c0,8.429,6.659,8.429,6.659,16.857
						c0,8.428-6.659,8.428-6.659,16.855c0,8.429,6.659,8.429,6.659,16.856s-6.659,8.428-6.659,16.855
						c0,8.429,6.659,8.429,6.659,16.857c0,8.43-6.659,8.43-6.659,16.856c0,8.429,6.659,8.429,6.659,16.857
						c0,8.43-6.659,8.43-6.659,16.858s6.659,8.429,6.659,16.856c0,8.43-6.659,8.43-6.659,16.859c0,8.428,6.659,8.428,6.659,16.856
						c0,8.43-6.659,8.43-6.659,16.857c0,8.43,6.659,8.43,6.659,16.858c0,8.429-6.659,8.429-6.659,16.857
						c0,8.431,6.659,8.431,6.659,16.86s-6.659,8.429-6.659,16.859"/>
				</g>
			</g>
		</g>
		<g>
			<defs>
				<rect id="SVGID_245_" y="0" width="640" height="360"/>
			</defs>
			<clipPath id="SVGID_16_">
				<use xlink:href="#SVGID_245_"  overflow="visible"/>
			</clipPath>
			<g clip-path="url(#SVGID_16_)">
				<g opacity="0.819">
					<path fill="none" stroke="#4B987E" stroke-width="4" stroke-miterlimit="10" d="M23.516-55.198c0,8.428-6.66,8.428-6.66,16.856
						c0,8.428,6.66,8.428,6.66,16.856s-6.66,8.428-6.66,16.855c0,8.429,6.66,8.429,6.66,16.857c0,8.428-6.66,8.428-6.66,16.855
						c0,8.429,6.66,8.429,6.66,16.857c0,8.428-6.66,8.428-6.66,16.857c0,8.428,6.66,8.428,6.66,16.856s-6.66,8.429-6.66,16.857
						c0,8.427,6.66,8.427,6.66,16.854c0,8.427-6.66,8.427-6.66,16.854c0,8.429,6.66,8.429,6.66,16.857
						c0,8.428-6.66,8.428-6.66,16.855s6.66,8.428,6.66,16.856s-6.66,8.429-6.66,16.856c0,8.429,6.66,8.429,6.66,16.856
						c0,8.429-6.66,8.429-6.66,16.857c0,8.428,6.66,8.428,6.66,16.856c0,8.43-6.66,8.43-6.66,16.858s6.66,8.429,6.66,16.856
						c0,8.43-6.66,8.43-6.66,16.859c0,8.428,6.66,8.428,6.66,16.856c0,8.429-6.66,8.429-6.66,16.859c0,8.428,6.66,8.428,6.66,16.856
						s-6.66,8.429-6.66,16.857c0,8.43,6.66,8.43,6.66,16.86s-6.66,8.43-6.66,16.86"/>
				</g>
				<g opacity="0.8286">
					<path fill="none" stroke="#4B987E" stroke-width="4" stroke-miterlimit="10" d="M61.099-52.5c0,8.428-6.659,8.428-6.659,16.855
						c0,8.429,6.659,8.429,6.659,16.857c0,8.429-6.659,8.429-6.659,16.856c0,8.429,6.659,8.429,6.659,16.857
						c0,8.428-6.659,8.428-6.659,16.855c0,8.429,6.659,8.429,6.659,16.857s-6.659,8.428-6.659,16.856s6.659,8.428,6.659,16.856
						c0,8.428-6.659,8.428-6.659,16.856s6.659,8.428,6.659,16.855c0,8.429-6.659,8.429-6.659,16.855
						c0,8.429,6.659,8.429,6.659,16.857c0,8.428-6.659,8.428-6.659,16.855s6.659,8.428,6.659,16.857
						c0,8.428-6.659,8.428-6.659,16.856c0,8.428,6.659,8.428,6.659,16.855c0,8.43-6.659,8.43-6.659,16.857s6.659,8.428,6.659,16.856
						s-6.659,8.429-6.659,16.857s6.659,8.429,6.659,16.857s-6.659,8.429-6.659,16.857s6.659,8.429,6.659,16.858
						c0,8.428-6.659,8.428-6.659,16.858c0,8.428,6.659,8.428,6.659,16.857s-6.659,8.43-6.659,16.857
						c0,8.432,6.659,8.432,6.659,16.861c0,8.429-6.659,8.429-6.659,16.859"/>
				</g>
				<g opacity="0.8381">
					<path fill="none" stroke="#4B987E" stroke-width="4" stroke-miterlimit="10" d="M98.682-49.801
						c0,8.429-6.659,8.429-6.659,16.857c0,8.428,6.659,8.428,6.659,16.855c0,8.428-6.659,8.428-6.659,16.855
						c0,8.43,6.659,8.43,6.659,16.857s-6.659,8.428-6.659,16.856c0,8.429,6.659,8.429,6.659,16.857
						c0,8.428-6.659,8.428-6.659,16.855c0,8.429,6.659,8.429,6.659,16.857c0,8.428-6.659,8.428-6.659,16.857
						c0,8.426,6.659,8.426,6.659,16.854s-6.659,8.428-6.659,16.855c0,8.428,6.659,8.428,6.659,16.857
						c0,8.428-6.659,8.428-6.659,16.856s6.659,8.428,6.659,16.856c0,8.428-6.659,8.428-6.659,16.856
						c0,8.429,6.659,8.429,6.659,16.856s-6.659,8.428-6.659,16.856c0,8.43,6.659,8.43,6.659,16.859
						c0,8.428-6.659,8.428-6.659,16.855c0,8.43,6.659,8.43,6.659,16.858s-6.659,8.429-6.659,16.857s6.659,8.429,6.659,16.857
						c0,8.428-6.659,8.428-6.659,16.858c0,8.428,6.659,8.428,6.659,16.857c0,8.428-6.659,8.428-6.659,16.857s6.659,8.43,6.659,16.86
						c0,8.43-6.659,8.43-6.659,16.859"/>
				</g>
				<g opacity="0.8476">
					<path fill="none" stroke="#4B987E" stroke-width="4" stroke-miterlimit="10" d="M136.266-47.103
						c0,8.428-6.66,8.428-6.66,16.856c0,8.428,6.66,8.428,6.66,16.856s-6.66,8.429-6.66,16.856s6.66,8.428,6.66,16.857
						c0,8.428-6.66,8.428-6.66,16.856c0,8.427,6.66,8.427,6.66,16.856c0,8.428-6.66,8.428-6.66,16.856
						c0,8.428,6.66,8.428,6.66,16.857c0,8.429-6.66,8.429-6.66,16.856s6.66,8.428,6.66,16.854c0,8.429-6.66,8.429-6.66,16.856
						s6.66,8.428,6.66,16.856s-6.66,8.429-6.66,16.856c0,8.429,6.66,8.429,6.66,16.856c0,8.429-6.66,8.429-6.66,16.856
						s6.66,8.428,6.66,16.856c0,8.428-6.66,8.428-6.66,16.856s6.66,8.429,6.66,16.856c0,8.43-6.66,8.43-6.66,16.858
						s6.66,8.429,6.66,16.857c0,8.43-6.66,8.43-6.66,16.857c0,8.43,6.66,8.43,6.66,16.857c0,8.43-6.66,8.43-6.66,16.857
						c0,8.43,6.66,8.43,6.66,16.858s-6.66,8.428-6.66,16.857c0,8.431,6.66,8.431,6.66,16.86s-6.66,8.43-6.66,16.86"/>
				</g>
				<g opacity="0.8571">
					<path fill="none" stroke="#4B987E" stroke-width="4" stroke-miterlimit="10" d="M173.85-44.406c0,8.429-6.66,8.429-6.66,16.857
						c0,8.428,6.66,8.428,6.66,16.856c0,8.428-6.66,8.428-6.66,16.856c0,8.43,6.66,8.43,6.66,16.857s-6.66,8.428-6.66,16.855
						c0,8.429,6.66,8.429,6.66,16.857c0,8.428-6.66,8.428-6.66,16.857c0,8.428,6.66,8.428,6.66,16.856
						c0,8.427-6.66,8.427-6.66,16.855s6.66,8.428,6.66,16.856c0,8.428-6.66,8.428-6.66,16.855c0,8.429,6.66,8.429,6.66,16.857
						c0,8.428-6.66,8.428-6.66,16.855c0,8.428,6.66,8.428,6.66,16.856c0,8.429-6.66,8.429-6.66,16.856c0,8.43,6.66,8.43,6.66,16.857
						s-6.66,8.428-6.66,16.855c0,8.43,6.66,8.43,6.66,16.857c0,8.429-6.66,8.429-6.66,16.857s6.66,8.429,6.66,16.857
						s-6.66,8.429-6.66,16.859c0,8.428,6.66,8.428,6.66,16.857c0,8.428-6.66,8.428-6.66,16.856c0,8.43,6.66,8.43,6.66,16.859
						c0,8.428-6.66,8.428-6.66,16.857s6.66,8.43,6.66,16.859s-6.66,8.43-6.66,16.859"/>
				</g>
				<g opacity="0.8667">
					<path fill="none" stroke="#4B987E" stroke-width="4" stroke-miterlimit="10" d="M211.434-41.707
						c0,8.428-6.66,8.428-6.66,16.856s6.66,8.428,6.66,16.857c0,8.427-6.66,8.427-6.66,16.855c0,8.428,6.66,8.428,6.66,16.857
						c0,8.428-6.66,8.428-6.66,16.855c0,8.429,6.66,8.429,6.66,16.856c0,8.429-6.66,8.429-6.66,16.857
						c0,8.428,6.66,8.428,6.66,16.855s-6.66,8.428-6.66,16.856c0,8.428,6.66,8.428,6.66,16.854c0,8.428-6.66,8.428-6.66,16.855
						c0,8.429,6.66,8.429,6.66,16.857c0,8.428-6.66,8.428-6.66,16.856c0,8.429,6.66,8.429,6.66,16.857
						c0,8.429-6.66,8.429-6.66,16.856s6.66,8.428,6.66,16.856s-6.66,8.429-6.66,16.856c0,8.429,6.66,8.429,6.66,16.858
						c0,8.428-6.66,8.428-6.66,16.857c0,8.428,6.66,8.428,6.66,16.857c0,8.429-6.66,8.429-6.66,16.856c0,8.43,6.66,8.43,6.66,16.857
						c0,8.43-6.66,8.43-6.66,16.857c0,8.43,6.66,8.43,6.66,16.858c0,8.429-6.66,8.429-6.66,16.857c0,8.43,6.66,8.43,6.66,16.86
						c0,8.432-6.66,8.432-6.66,16.861"/>
				</g>
				<g opacity="0.8762">
					<path fill="none" stroke="#4B987E" stroke-width="4" stroke-miterlimit="10" d="M249.018-39.008
						c0,8.428-6.66,8.428-6.66,16.856c0,8.429,6.66,8.429,6.66,16.856s-6.66,8.428-6.66,16.855c0,8.429,6.66,8.429,6.66,16.857
						c0,8.428-6.66,8.428-6.66,16.855c0,8.429,6.66,8.429,6.66,16.857c0,8.428-6.66,8.428-6.66,16.855
						c0,8.429,6.66,8.429,6.66,16.857s-6.66,8.428-6.66,16.856s6.66,8.428,6.66,16.855s-6.66,8.428-6.66,16.855
						c0,8.429,6.66,8.429,6.66,16.857c0,8.428-6.66,8.428-6.66,16.856c0,8.428,6.66,8.428,6.66,16.858
						c0,8.426-6.66,8.426-6.66,16.854c0,8.428,6.66,8.428,6.66,16.855s-6.66,8.428-6.66,16.856s6.66,8.429,6.66,16.857
						s-6.66,8.429-6.66,16.858c0,8.428,6.66,8.428,6.66,16.857c0,8.429-6.66,8.429-6.66,16.858c0,8.428,6.66,8.428,6.66,16.857
						c0,8.428-6.66,8.428-6.66,16.856c0,8.429,6.66,8.429,6.66,16.859c0,8.428-6.66,8.428-6.66,16.856c0,8.43,6.66,8.43,6.66,16.859
						s-6.66,8.431-6.66,16.86"/>
				</g>
				<g opacity="0.8857">
					<path fill="none" stroke="#4B987E" stroke-width="4" stroke-miterlimit="10" d="M286.602-36.31c0,8.428-6.66,8.428-6.66,16.855
						s6.66,8.428,6.66,16.855c0,8.429-6.66,8.429-6.66,16.857c0,8.429,6.66,8.429,6.66,16.856c0,8.43-6.66,8.43-6.66,16.857
						s6.66,8.428,6.66,16.856c0,8.428-6.66,8.428-6.66,16.856c0,8.428,6.66,8.428,6.66,16.855c0,8.429-6.66,8.429-6.66,16.857
						c0,8.428,6.66,8.428,6.66,16.855c0,8.427-6.66,8.427-6.66,16.855c0,8.429,6.66,8.429,6.66,16.857
						c0,8.427-6.66,8.427-6.66,16.855s6.66,8.428,6.66,16.857c0,8.429-6.66,8.429-6.66,16.856s6.66,8.428,6.66,16.855
						s-6.66,8.428-6.66,16.857c0,8.428,6.66,8.428,6.66,16.857c0,8.428-6.66,8.428-6.66,16.856s6.66,8.429,6.66,16.857
						s-6.66,8.429-6.66,16.858c0,8.428,6.66,8.428,6.66,16.857c0,8.428-6.66,8.428-6.66,16.857c0,8.428,6.66,8.428,6.66,16.858
						s-6.66,8.43-6.66,16.857c0,8.43,6.66,8.43,6.66,16.86s-6.66,8.43-6.66,16.859"/>
				</g>
				<g opacity="0.8952">
					<path fill="none" stroke="#4B987E" stroke-width="4" stroke-miterlimit="10" d="M324.186-33.612
						c0,8.429-6.66,8.429-6.66,16.856c0,8.428,6.66,8.428,6.66,16.856c0,8.428-6.66,8.428-6.66,16.855
						c0,8.429,6.66,8.429,6.66,16.857c0,8.428-6.66,8.428-6.66,16.855c0,8.429,6.66,8.429,6.66,16.858
						c0,8.428-6.66,8.428-6.66,16.855c0,8.429,6.66,8.429,6.66,16.856c0,8.429-6.66,8.429-6.66,16.856s6.66,8.428,6.66,16.855
						s-6.66,8.428-6.66,16.855c0,8.429,6.66,8.429,6.66,16.857c0,8.427-6.66,8.427-6.66,16.856c0,8.428,6.66,8.428,6.66,16.857
						c0,8.428-6.66,8.428-6.66,16.855c0,8.429,6.66,8.429,6.66,16.856s-6.66,8.428-6.66,16.856c0,8.43,6.66,8.43,6.66,16.857
						c0,8.43-6.66,8.43-6.66,16.859c0,8.428,6.66,8.428,6.66,16.855c0,8.43-6.66,8.43-6.66,16.859c0,8.427,6.66,8.427,6.66,16.856
						c0,8.43-6.66,8.43-6.66,16.858c0,8.428,6.66,8.428,6.66,16.856c0,8.43-6.66,8.43-6.66,16.859c0,8.43,6.66,8.43,6.66,16.859
						c0,8.43-6.66,8.43-6.66,16.86"/>
				</g>
				<g opacity="0.9048">
					<path fill="none" stroke="#4B987E" stroke-width="4" stroke-miterlimit="10" d="M361.768-30.914
						c0,8.429-6.659,8.429-6.659,16.856s6.659,8.428,6.659,16.855c0,8.429-6.659,8.429-6.659,16.856
						c0,8.429,6.659,8.429,6.659,16.857c0,8.428-6.659,8.428-6.659,16.856c0,8.428,6.659,8.428,6.659,16.855
						c0,8.428-6.659,8.428-6.659,16.857c0,8.428,6.659,8.428,6.659,16.856c0,8.428-6.659,8.428-6.659,16.856
						c0,8.428,6.659,8.428,6.659,16.854c0,8.428-6.659,8.428-6.659,16.855c0,8.43,6.659,8.43,6.659,16.857
						c0,8.429-6.659,8.429-6.659,16.856c0,8.428,6.659,8.428,6.659,16.858c0,8.426-6.659,8.426-6.659,16.854
						c0,8.428,6.659,8.428,6.659,16.855s-6.659,8.428-6.659,16.856s6.659,8.429,6.659,16.858c0,8.428-6.659,8.428-6.659,16.857
						c0,8.429,6.659,8.429,6.659,16.858c0,8.428-6.659,8.428-6.659,16.858c0,8.428,6.659,8.428,6.659,16.857
						c0,8.428-6.659,8.428-6.659,16.856c0,8.429,6.659,8.429,6.659,16.859c0,8.428-6.659,8.428-6.659,16.857
						c0,8.429,6.659,8.429,6.659,16.858c0,8.431-6.659,8.431-6.659,16.86"/>
				</g>
				<g opacity="0.9143">
					<path fill="none" stroke="#4B987E" stroke-width="4" stroke-miterlimit="10" d="M399.352-28.216
						c0,8.428-6.66,8.428-6.66,16.857c0,8.428,6.66,8.428,6.66,16.855c0,8.428-6.66,8.428-6.66,16.856
						c0,8.428,6.66,8.428,6.66,16.856s-6.66,8.429-6.66,16.856s6.66,8.428,6.66,16.856s-6.66,8.429-6.66,16.856
						c0,8.429,6.66,8.429,6.66,16.857c0,8.428-6.66,8.428-6.66,16.856c0,8.426,6.66,8.426,6.66,16.854s-6.66,8.428-6.66,16.856
						c0,8.428,6.66,8.428,6.66,16.856c0,8.428-6.66,8.428-6.66,16.855c0,8.429,6.66,8.429,6.66,16.857s-6.66,8.428-6.66,16.856
						c0,8.428,6.66,8.428,6.66,16.857c0,8.428-6.66,8.428-6.66,16.855c0,8.43,6.66,8.43,6.66,16.857c0,8.43-6.66,8.43-6.66,16.857
						c0,8.429,6.66,8.429,6.66,16.857s-6.66,8.429-6.66,16.857c0,8.429,6.66,8.429,6.66,16.857c0,8.429-6.66,8.429-6.66,16.857
						c0,8.429,6.66,8.429,6.66,16.859c0,8.428-6.66,8.428-6.66,16.857s6.66,8.43,6.66,16.859s-6.66,8.43-6.66,16.859"/>
				</g>
				<g opacity="0.9238">
					<path fill="none" stroke="#4B987E" stroke-width="4" stroke-miterlimit="10" d="M436.936-25.517
						c0,8.428-6.66,8.428-6.66,16.855s6.66,8.428,6.66,16.857c0,8.428-6.66,8.428-6.66,16.855s6.66,8.428,6.66,16.857
						c0,8.428-6.66,8.428-6.66,16.856c0,8.428,6.66,8.428,6.66,16.857c0,8.429-6.66,8.429-6.66,16.856s6.66,8.428,6.66,16.856
						s-6.66,8.429-6.66,16.856s6.66,8.428,6.66,16.855c0,8.427-6.66,8.427-6.66,16.855c0,8.428,6.66,8.428,6.66,16.857
						c0,8.428-6.66,8.428-6.66,16.855c0,8.429,6.66,8.429,6.66,16.856s-6.66,8.428-6.66,16.855c0,8.429,6.66,8.429,6.66,16.857
						c0,8.428-6.66,8.428-6.66,16.855c0,8.43,6.66,8.43,6.66,16.858c0,8.43-6.66,8.43-6.66,16.857c0,8.43,6.66,8.43,6.66,16.857
						c0,8.43-6.66,8.43-6.66,16.858c0,8.429,6.66,8.429,6.66,16.856c0,8.429-6.66,8.429-6.66,16.857c0,8.43,6.66,8.43,6.66,16.857
						c0,8.429-6.66,8.429-6.66,16.858s6.66,8.43,6.66,16.859s-6.66,8.43-6.66,16.861"/>
				</g>
				<g opacity="0.9333">
					<path fill="none" stroke="#4B987E" stroke-width="4" stroke-miterlimit="10" d="M474.52-22.82c0,8.429-6.66,8.429-6.66,16.857
						s6.66,8.428,6.66,16.856c0,8.428-6.66,8.428-6.66,16.855c0,8.429,6.66,8.429,6.66,16.857c0,8.428-6.66,8.428-6.66,16.855
						c0,8.429,6.66,8.429,6.66,16.857c0,8.427-6.66,8.427-6.66,16.855c0,8.429,6.66,8.429,6.66,16.857
						c0,8.429-6.66,8.429-6.66,16.856s6.66,8.428,6.66,16.855s-6.66,8.428-6.66,16.855c0,8.429,6.66,8.429,6.66,16.858
						c0,8.428-6.66,8.428-6.66,16.856c0,8.428,6.66,8.428,6.66,16.855s-6.66,8.428-6.66,16.855c0,8.429,6.66,8.429,6.66,16.856
						s-6.66,8.428-6.66,16.856s6.66,8.429,6.66,16.857s-6.66,8.429-6.66,16.857c0,8.429,6.66,8.429,6.66,16.857
						c0,8.429-6.66,8.429-6.66,16.857c0,8.43,6.66,8.43,6.66,16.857c0,8.43-6.66,8.43-6.66,16.857c0,8.43,6.66,8.43,6.66,16.858
						c0,8.429-6.66,8.429-6.66,16.857c0,8.43,6.66,8.43,6.66,16.86s-6.66,8.43-6.66,16.859"/>
				</g>
				<g opacity="0.9429">
					<path fill="none" stroke="#4B987E" stroke-width="4" stroke-miterlimit="10" d="M512.104-20.121
						c0,8.427-6.66,8.427-6.66,16.855c0,8.428,6.66,8.428,6.66,16.855s-6.66,8.428-6.66,16.857c0,8.429,6.66,8.429,6.66,16.856
						c0,8.429-6.66,8.429-6.66,16.856c0,8.429,6.66,8.429,6.66,16.856c0,8.429-6.66,8.429-6.66,16.856
						c0,8.429,6.66,8.429,6.66,16.856s-6.66,8.428-6.66,16.857c0,8.427,6.66,8.427,6.66,16.855c0,8.426-6.66,8.426-6.66,16.854
						c0,8.429,6.66,8.429,6.66,16.857c0,8.428-6.66,8.428-6.66,16.856s6.66,8.428,6.66,16.856c0,8.428-6.66,8.428-6.66,16.856
						s6.66,8.429,6.66,16.856s-6.66,8.428-6.66,16.855c0,8.43,6.66,8.43,6.66,16.859c0,8.428-6.66,8.428-6.66,16.856
						s6.66,8.429,6.66,16.857s-6.66,8.429-6.66,16.857s6.66,8.429,6.66,16.858c0,8.428-6.66,8.428-6.66,16.857
						c0,8.428,6.66,8.428,6.66,16.857c0,8.428-6.66,8.428-6.66,16.858s6.66,8.43,6.66,16.859c0,8.432-6.66,8.432-6.66,16.861"/>
				</g>
				<g opacity="0.9524">
					<path fill="none" stroke="#4B987E" stroke-width="4" stroke-miterlimit="10" d="M549.687-17.423
						c0,8.428-6.66,8.428-6.66,16.856s6.66,8.429,6.66,16.856s-6.66,8.428-6.66,16.855c0,8.429,6.66,8.429,6.66,16.857
						s-6.66,8.428-6.66,16.855c0,8.429,6.66,8.429,6.66,16.857s-6.66,8.428-6.66,16.856c0,8.429,6.66,8.429,6.66,16.856
						c0,8.429-6.66,8.429-6.66,16.856s6.66,8.428,6.66,16.855c0,8.427-6.66,8.427-6.66,16.855c0,8.428,6.66,8.428,6.66,16.857
						c0,8.428-6.66,8.428-6.66,16.855c0,8.429,6.66,8.429,6.66,16.856s-6.66,8.428-6.66,16.855c0,8.429,6.66,8.429,6.66,16.856
						c0,8.429-6.66,8.429-6.66,16.856c0,8.429,6.66,8.429,6.66,16.857s-6.66,8.429-6.66,16.858s6.66,8.43,6.66,16.857
						c0,8.43-6.66,8.43-6.66,16.858c0,8.429,6.66,8.429,6.66,16.857c0,8.429-6.66,8.429-6.66,16.857s6.66,8.429,6.66,16.858
						c0,8.428-6.66,8.428-6.66,16.856c0,8.431,6.66,8.431,6.66,16.861s-6.66,8.43-6.66,16.859"/>
				</g>
				<g opacity="0.9619">
					<path fill="none" stroke="#4B987E" stroke-width="4" stroke-miterlimit="10" d="M587.27-14.725
						c0,8.428-6.659,8.428-6.659,16.856c0,8.428,6.659,8.428,6.659,16.855s-6.659,8.428-6.659,16.856s6.659,8.429,6.659,16.856
						s-6.659,8.428-6.659,16.857c0,8.428,6.659,8.428,6.659,16.856c0,8.428-6.659,8.428-6.659,16.856
						c0,8.428,6.659,8.428,6.659,16.856s-6.659,8.428-6.659,16.857c0,8.428,6.659,8.428,6.659,16.854
						c0,8.428-6.659,8.428-6.659,16.855c0,8.429,6.659,8.429,6.659,16.858c0,8.428-6.659,8.428-6.659,16.856
						c0,8.428,6.659,8.428,6.659,16.855c0,8.43-6.659,8.43-6.659,16.855c0,8.43,6.659,8.43,6.659,16.856
						c0,8.429-6.659,8.429-6.659,16.857c0,8.428,6.659,8.428,6.659,16.857c0,8.429-6.659,8.429-6.659,16.858
						c0,8.428,6.659,8.428,6.659,16.857c0,8.428-6.659,8.428-6.659,16.857c0,8.428,6.659,8.428,6.659,16.858
						c0,8.428-6.659,8.428-6.659,16.857c0,8.428,6.659,8.428,6.659,16.857c0,8.428-6.659,8.428-6.659,16.857
						c0,8.43,6.659,8.43,6.659,16.859s-6.659,8.43-6.659,16.859"/>
				</g>
				<g opacity="0.9714">
					<path fill="none" stroke="#4B987E" stroke-width="4" stroke-miterlimit="10" d="M624.854-12.026
						c0,8.428-6.66,8.428-6.66,16.855c0,8.429,6.66,8.429,6.66,16.857s-6.66,8.428-6.66,16.856c0,8.428,6.66,8.428,6.66,16.857
						c0,8.429-6.66,8.429-6.66,16.856c0,8.429,6.66,8.429,6.66,16.857c0,8.428-6.66,8.428-6.66,16.856s6.66,8.429,6.66,16.855
						c0,8.429-6.66,8.429-6.66,16.856s6.66,8.428,6.66,16.855c0,8.428-6.66,8.428-6.66,16.855c0,8.428,6.66,8.428,6.66,16.858
						c0,8.427-6.66,8.427-6.66,16.856c0,8.428,6.66,8.428,6.66,16.855s-6.66,8.428-6.66,16.856c0,8.428,6.66,8.428,6.66,16.857
						c0,8.428-6.66,8.428-6.66,16.855c0,8.43,6.66,8.43,6.66,16.857c0,8.43-6.66,8.43-6.66,16.857c0,8.429,6.66,8.429,6.66,16.856
						c0,8.43-6.66,8.43-6.66,16.858s6.66,8.429,6.66,16.857s-6.66,8.428-6.66,16.857c0,8.428,6.66,8.428,6.66,16.857
						c0,8.43-6.66,8.43-6.66,16.858c0,8.43,6.66,8.43,6.66,16.861c0,8.43-6.66,8.43-6.66,16.859"/>
				</g>
			</g>
		</g>
	</g>
</g>
</svg>
