<?xml version="1.0" encoding="utf-8"?>
<!-- Generator: Adobe Illustrator 16.0.0, SVG Export Plug-In . SVG Version: 6.00 Build 0)  -->
<!DOCTYPE svg PUBLIC "-//W3C//DTD SVG 1.1//EN" "http://www.w3.org/Graphics/SVG/1.1/DTD/svg11.dtd">
<svg version="1.1" id="圖層_1" xmlns="http://www.w3.org/2000/svg" xmlns:xlink="http://www.w3.org/1999/xlink" x="0px" y="0px"
	 width="400px" height="180px" viewBox="0 0 400 180" enable-background="new 0 0 400 180" xml:space="preserve">
<g>
	<g>
		<g>
			<path fill="#4C2E2C" d="M228.783,112.415h-60.609c-1.197,0-2.162-0.964-2.162-2.168c0-1.196,0.965-2.167,2.162-2.167h60.609
				c1.207,0,2.169,0.972,2.169,2.167C230.952,111.451,229.99,112.415,228.783,112.415z"/>
			<path fill="#4C2E2C" d="M235.083,114.217c0,1.278-1.036,2.326-2.318,2.326h-7.946c-1.282,0-2.322-1.047-2.322-2.326v-7.939
				c0-1.289,1.04-2.326,2.322-2.326h7.946c1.282,0,2.318,1.037,2.318,2.326V114.217z"/>
		</g>
		<g>
			<path fill="#F4E8D1" d="M169.567,111.086c-0.546,0-1.108-0.14-1.622-0.44c-1.554-0.897-2.091-2.892-1.188-4.444l17.21-29.811
				c0.899-1.542,2.892-2.092,4.445-1.195c1.554,0.898,2.09,2.89,1.188,4.452l-17.21,29.801
				C171.789,110.487,170.692,111.086,169.567,111.086z"/>
			<g>
				<path fill="#F4E8D1" d="M227.54,62.323c-0.553,0-1.109-0.142-1.626-0.433l-44.728-25.831c-1.554-0.906-2.087-2.898-1.188-4.452
					c0.903-1.554,2.879-2.094,4.449-1.188l44.725,25.832c1.55,0.904,2.087,2.882,1.187,4.444
					C229.758,61.74,228.669,62.323,227.54,62.323z"/>
				<g>
					<path fill="#F4E8D1" d="M219.499,37.23c-0.546,0-1.108-0.141-1.619-0.44l-10.919-6.313c-1.554-0.896-2.091-2.891-1.188-4.444
						c0.896-1.551,2.895-2.083,4.449-1.188l10.909,6.313c1.561,0.896,2.094,2.882,1.188,4.434
						C221.718,36.639,220.625,37.23,219.499,37.23z"/>
					<path fill="#F4E8D1" d="M223.353,51.607c-0.553,0-1.118-0.141-1.629-0.432c-1.561-0.896-2.087-2.889-1.188-4.452
						c0.972-1.677,1.233-3.646,0.724-5.531c-0.504-1.878-1.701-3.438-3.38-4.402c-1.554-0.897-2.097-2.881-1.193-4.443
						c0.893-1.554,2.882-2.094,4.436-1.196c3.189,1.835,5.466,4.809,6.425,8.355c0.951,3.563,0.464,7.285-1.384,10.474
						C225.561,51.026,224.465,51.607,223.353,51.607z"/>
					<path fill="#F4E8D1" d="M194.203,34.765c-0.55,0-1.109-0.15-1.622-0.442c-1.555-0.905-2.088-2.899-1.188-4.443
						c1.848-3.19,4.814-5.475,8.374-6.421c3.563-0.939,7.271-0.457,10.455,1.386c1.55,0.906,2.083,2.892,1.177,4.453
						c-0.893,1.545-2.882,2.077-4.438,1.179c-1.682-0.971-3.641-1.229-5.512-0.731c-1.881,0.499-3.451,1.702-4.423,3.39
						C196.424,34.182,195.338,34.765,194.203,34.765z"/>
					<path fill="#F4E8D1" d="M190.602,40.993c-0.543,0-1.109-0.141-1.616-0.433c-1.561-0.904-2.09-2.89-1.193-4.452l3.602-6.228
						c0.899-1.562,2.888-2.094,4.445-1.198c1.554,0.906,2.09,2.893,1.188,4.453l-3.599,6.229
						C192.826,40.412,191.727,40.993,190.602,40.993z"/>
					<path fill="#F4E8D1" d="M219.765,57.821c-0.553,0-1.109-0.135-1.619-0.432c-1.561-0.898-2.098-2.875-1.197-4.436l3.598-6.239
						c0.887-1.554,2.879-2.093,4.439-1.187c1.554,0.896,2.087,2.882,1.188,4.436l-3.589,6.228
						C221.982,57.239,220.89,57.821,219.765,57.821z"/>
				</g>
			</g>
			<path fill="#F4E8D1" d="M190.304,82.223L190.304,82.223c-1.799,0-3.579-0.481-5.148-1.388c-2.385-1.388-4.09-3.612-4.799-6.279
				c-0.7-2.658-0.327-5.424,1.057-7.783c2.698-4.701,9.267-6.494,14.033-3.764c4.917,2.85,6.598,9.146,3.762,14.064
				C197.366,80.247,193.954,82.223,190.304,82.223z M190.316,68.145c-1.348,0-2.604,0.723-3.268,1.884
				c-0.52,0.882-0.654,1.894-0.396,2.857c0.265,0.989,0.89,1.812,1.76,2.31c1.763,1.022,4.145,0.367,5.162-1.379
				c1.043-1.803,0.422-4.128-1.381-5.185C191.629,68.319,190.978,68.145,190.316,68.145z"/>
			<g>
				<path fill="#F4E8D1" d="M168.181,113.503c-1.047,0-2.077-0.506-2.709-1.438c-1.001-1.487-0.604-3.514,0.884-4.509l48.853-32.96
					c1.501-1.005,3.52-0.604,4.521,0.882c1.008,1.478,0.615,3.504-0.884,4.518l-48.852,32.949
					C169.44,113.321,168.806,113.503,168.181,113.503z"/>
				<path fill="#F4E8D1" d="M217.026,80.544c-0.546,0-1.109-0.14-1.622-0.433c-6.579-3.803-8.849-12.242-5.045-18.82
					c0.89-1.553,2.882-2.092,4.442-1.188c1.554,0.889,2.084,2.883,1.188,4.444c-2.002,3.465-0.805,7.923,2.67,9.934
					c1.554,0.898,2.093,2.883,1.193,4.443C219.251,79.964,218.151,80.544,217.026,80.544z"/>
				<path fill="#F4E8D1" d="M213.17,66.175c-0.557,0-1.116-0.148-1.623-0.44c-1.554-0.904-2.094-2.89-1.188-4.443
					c3.808-6.578,12.254-8.829,18.813-5.041c1.55,0.904,2.087,2.89,1.187,4.444c-0.893,1.56-2.882,2.092-4.445,1.195
					c-3.468-2.019-7.919-0.814-9.925,2.658C215.384,65.586,214.288,66.175,213.17,66.175z"/>
			</g>
			<g>
				<path fill="#F4E8D1" d="M168.174,113.503c-0.082,0-0.15-0.01-0.229-0.018c-1.8-0.116-3.15-1.676-3.02-3.471l4.115-58.771
					c0.128-1.795,1.76-3.116,3.471-3.024c1.789,0.134,3.144,1.679,3.016,3.472l-4.111,58.79
					C171.295,112.19,169.862,113.503,168.174,113.503z"/>
				<path fill="#F4E8D1" d="M177.517,56.127c-2.332,0-4.697-0.599-6.856-1.845c-1.557-0.897-2.094-2.891-1.19-4.435
					c0.896-1.562,2.875-2.11,4.438-1.197c3.48,1.993,7.933,0.807,9.944-2.666c0.894-1.561,2.883-2.102,4.446-1.188
					c1.554,0.915,2.083,2.898,1.184,4.452C186.925,53.65,182.276,56.127,177.517,56.127z"/>
				<path fill="#F4E8D1" d="M186.656,50.868c-0.546,0-1.108-0.141-1.622-0.439c-1.554-0.896-2.091-2.891-1.188-4.444
					c2.005-3.462,0.814-7.915-2.663-9.941c-1.554-0.898-2.084-2.892-1.174-4.436c0.893-1.561,2.885-2.101,4.438-1.188
					c6.578,3.813,8.826,12.259,5.034,18.829C188.878,50.288,187.781,50.868,186.656,50.868z"/>
			</g>
		</g>
	</g>
</g>
<g>
	<text transform="matrix(1 0 0 1 94.8359 157.9995)" fill="#F4E8D1" font-family="'Verdana'" font-size="24.3" letter-spacing="1">Graphic Design</text>
</g>
</svg>
