<?xml version="1.0" encoding="utf-8"?>
<!-- Generator: Adobe Illustrator 16.0.0, SVG Export Plug-In . SVG Version: 6.00 Build 0)  -->
<!DOCTYPE svg PUBLIC "-//W3C//DTD SVG 1.1//EN" "http://www.w3.org/Graphics/SVG/1.1/DTD/svg11.dtd">
<svg version="1.1" id="圖層_1" xmlns="http://www.w3.org/2000/svg" xmlns:xlink="http://www.w3.org/1999/xlink" x="0px" y="0px"
	 width="400px" height="180px" viewBox="0 0 400 180" enable-background="new 0 0 400 180" xml:space="preserve">
<g>
	<g>
		<g>
			<path fill="#4C2E2C" d="M228.783,112.415h-60.609c-1.197,0-2.162-0.964-2.162-2.168c0-1.196,0.965-2.167,2.162-2.167h60.609
				c1.207,0,2.169,0.972,2.169,2.167C230.952,111.451,229.99,112.415,228.783,112.415z"/>
			<path fill="#4C2E2C" d="M235.083,114.218c0,1.278-1.036,2.326-2.318,2.326h-7.946c-1.282,0-2.322-1.048-2.322-2.326v-7.94
				c0-1.289,1.04-2.326,2.322-2.326h7.946c1.282,0,2.318,1.037,2.318,2.326V114.218z"/>
		</g>
		<g>
			<path fill="#F4E8D1" d="M169.567,111.086c-0.546,0-1.108-0.14-1.622-0.44c-1.554-0.898-2.091-2.892-1.188-4.444l17.21-29.811
				c0.899-1.542,2.892-2.092,4.445-1.195c1.554,0.898,2.09,2.89,1.188,4.452l-17.21,29.801
				C171.789,110.487,170.692,111.086,169.567,111.086z"/>
			<g>
				<path fill="#F4E8D1" d="M227.54,62.323c-0.553,0-1.109-0.142-1.626-0.432l-44.728-25.832c-1.554-0.906-2.087-2.898-1.188-4.452
					c0.903-1.554,2.879-2.094,4.449-1.188l44.725,25.832c1.55,0.903,2.087,2.881,1.187,4.443
					C229.758,61.74,228.669,62.323,227.54,62.323z"/>
				<g>
					<path fill="#F4E8D1" d="M219.499,37.23c-0.546,0-1.108-0.141-1.619-0.441l-10.919-6.312c-1.554-0.896-2.091-2.891-1.188-4.444
						c0.896-1.551,2.895-2.082,4.449-1.188l10.909,6.313c1.561,0.896,2.094,2.881,1.188,4.434
						C221.718,36.639,220.625,37.23,219.499,37.23z"/>
					<path fill="#F4E8D1" d="M223.353,51.607c-0.553,0-1.118-0.142-1.629-0.433c-1.561-0.896-2.087-2.889-1.188-4.452
						c0.972-1.677,1.233-3.646,0.724-5.531c-0.504-1.878-1.701-3.438-3.38-4.403c-1.554-0.896-2.097-2.88-1.193-4.442
						c0.893-1.554,2.882-2.094,4.436-1.195c3.189,1.834,5.466,4.808,6.425,8.354c0.951,3.563,0.464,7.285-1.384,10.474
						C225.561,51.026,224.465,51.607,223.353,51.607z"/>
					<path fill="#F4E8D1" d="M194.203,34.765c-0.55,0-1.109-0.15-1.622-0.442c-1.555-0.905-2.088-2.899-1.188-4.443
						c1.848-3.19,4.814-5.475,8.374-6.42c3.563-0.939,7.271-0.457,10.455,1.386c1.55,0.906,2.083,2.892,1.177,4.453
						c-0.893,1.545-2.882,2.078-4.438,1.179c-1.682-0.971-3.641-1.229-5.512-0.731c-1.881,0.499-3.451,1.703-4.423,3.39
						C196.424,34.183,195.338,34.765,194.203,34.765z"/>
					<path fill="#F4E8D1" d="M190.602,40.993c-0.543,0-1.109-0.141-1.616-0.433c-1.561-0.904-2.09-2.89-1.193-4.452l3.602-6.228
						c0.899-1.562,2.888-2.094,4.445-1.197c1.554,0.906,2.09,2.892,1.188,4.453l-3.599,6.229
						C192.826,40.412,191.727,40.993,190.602,40.993z"/>
					<path fill="#F4E8D1" d="M219.765,57.821c-0.553,0-1.109-0.135-1.619-0.432c-1.561-0.898-2.098-2.875-1.197-4.436l3.598-6.239
						c0.887-1.554,2.879-2.093,4.439-1.187c1.554,0.896,2.087,2.883,1.188,4.436l-3.589,6.228
						C221.982,57.239,220.89,57.821,219.765,57.821z"/>
				</g>
			</g>
			<path fill="#F4E8D1" d="M190.304,82.223L190.304,82.223c-1.799,0-3.579-0.48-5.148-1.388c-2.385-1.387-4.09-3.612-4.799-6.279
				c-0.7-2.657-0.327-5.424,1.057-7.783c2.698-4.701,9.267-6.494,14.033-3.764c4.917,2.85,6.598,9.146,3.762,14.064
				C197.366,80.247,193.954,82.223,190.304,82.223z M190.316,68.145c-1.348,0-2.604,0.723-3.268,1.884
				c-0.52,0.882-0.654,1.894-0.396,2.857c0.265,0.989,0.89,1.812,1.76,2.31c1.763,1.022,4.145,0.367,5.162-1.378
				c1.043-1.803,0.422-4.128-1.381-5.185C191.629,68.319,190.978,68.145,190.316,68.145z"/>
			<g>
				<path fill="#F4E8D1" d="M168.181,113.503c-1.047,0-2.077-0.506-2.709-1.438c-1.001-1.487-0.604-3.514,0.884-4.509l48.853-32.96
					c1.501-1.005,3.52-0.604,4.521,0.882c1.008,1.478,0.615,3.504-0.884,4.518l-48.852,32.949
					C169.44,113.321,168.806,113.503,168.181,113.503z"/>
				<path fill="#F4E8D1" d="M217.026,80.544c-0.546,0-1.109-0.14-1.622-0.433c-6.579-3.803-8.849-12.242-5.045-18.82
					c0.89-1.553,2.882-2.091,4.442-1.188c1.554,0.889,2.084,2.883,1.188,4.444c-2.002,3.465-0.805,7.923,2.67,9.934
					c1.554,0.898,2.093,2.883,1.193,4.443C219.251,79.964,218.151,80.544,217.026,80.544z"/>
				<path fill="#F4E8D1" d="M213.17,66.175c-0.557,0-1.116-0.148-1.623-0.44c-1.554-0.904-2.094-2.89-1.188-4.443
					c3.808-6.578,12.254-8.829,18.813-5.04c1.55,0.903,2.087,2.89,1.187,4.443c-0.893,1.56-2.882,2.092-4.445,1.196
					c-3.468-2.019-7.919-0.814-9.925,2.657C215.384,65.586,214.288,66.175,213.17,66.175z"/>
			</g>
			<g>
				<path fill="#F4E8D1" d="M168.174,113.503c-0.082,0-0.15-0.01-0.229-0.018c-1.8-0.116-3.15-1.677-3.02-3.471l4.115-58.772
					c0.128-1.794,1.76-3.115,3.471-3.024c1.789,0.134,3.144,1.679,3.016,3.472l-4.111,58.79
					C171.295,112.19,169.862,113.503,168.174,113.503z"/>
				<path fill="#F4E8D1" d="M177.517,56.127c-2.332,0-4.697-0.6-6.856-1.845c-1.557-0.897-2.094-2.891-1.19-4.435
					c0.896-1.562,2.875-2.11,4.438-1.197c3.48,1.993,7.933,0.806,9.944-2.666c0.894-1.561,2.883-2.102,4.446-1.188
					c1.554,0.915,2.083,2.898,1.184,4.452C186.925,53.65,182.276,56.127,177.517,56.127z"/>
				<path fill="#F4E8D1" d="M186.656,50.868c-0.546,0-1.108-0.141-1.622-0.44c-1.554-0.896-2.091-2.891-1.188-4.444
					c2.005-3.462,0.814-7.915-2.663-9.94c-1.554-0.898-2.084-2.892-1.174-4.436c0.893-1.562,2.885-2.102,4.438-1.188
					c6.578,3.813,8.826,12.259,5.034,18.829C188.878,50.288,187.781,50.868,186.656,50.868z"/>
			</g>
		</g>
	</g>
</g>
<g>
	<g>
		<path fill="#F4E8D1" d="M111.945,156.695c-0.965,0.442-2.02,0.829-3.162,1.156c-1.143,0.328-2.248,0.492-3.316,0.492
			c-1.376,0-2.638-0.189-3.785-0.569c-1.146-0.38-2.123-0.949-2.93-1.708c-0.815-0.768-1.444-1.727-1.887-2.878
			c-0.443-1.15-0.665-2.497-0.665-4.04c0-2.824,0.825-5.053,2.474-6.686c1.65-1.634,3.914-2.45,6.793-2.45
			c1.005,0,2.031,0.12,3.08,0.361c1.047,0.241,2.177,0.651,3.387,1.229v2.789h-0.213c-0.246-0.19-0.602-0.44-1.068-0.748
			s-0.926-0.566-1.377-0.771c-0.545-0.245-1.164-0.449-1.856-0.611c-0.692-0.162-1.478-0.243-2.354-0.243
			c-1.979,0-3.543,0.635-4.693,1.905c-1.15,1.27-1.727,2.988-1.727,5.155c0,2.286,0.602,4.064,1.804,5.334
			c1.202,1.27,2.84,1.905,4.912,1.905c0.759,0,1.517-0.075,2.272-0.226c0.755-0.15,1.418-0.344,1.987-0.583v-4.33h-4.734v-2.064
			h7.06V156.695z"/>
		<path fill="#F4E8D1" d="M125.966,147.178h-0.118c-0.333-0.079-0.655-0.137-0.968-0.172s-0.683-0.054-1.109-0.054
			c-0.688,0-1.353,0.153-1.993,0.457c-0.641,0.305-1.258,0.698-1.852,1.181V158h-2.23v-13.254h2.23v1.958
			c0.887-0.711,1.668-1.215,2.344-1.512c0.676-0.297,1.366-0.446,2.07-0.446c0.388,0,0.668,0.011,0.843,0.03
			c0.174,0.02,0.435,0.058,0.783,0.113V147.178z"/>
		<path fill="#F4E8D1" d="M139.76,158h-2.219v-1.412c-0.197,0.135-0.465,0.322-0.801,0.564c-0.336,0.241-0.662,0.433-0.979,0.576
			c-0.372,0.182-0.799,0.334-1.281,0.456c-0.482,0.124-1.049,0.185-1.697,0.185c-1.194,0-2.207-0.396-3.037-1.187
			c-0.83-0.791-1.246-1.799-1.246-3.026c0-1.003,0.215-1.816,0.646-2.437c0.432-0.621,1.047-1.11,1.846-1.466
			c0.807-0.355,1.775-0.597,2.906-0.724s2.346-0.221,3.643-0.285v-0.343c0-0.506-0.088-0.926-0.267-1.258
			c-0.178-0.332-0.433-0.593-0.765-0.783c-0.316-0.182-0.697-0.305-1.14-0.368c-0.443-0.063-0.905-0.095-1.388-0.095
			c-0.586,0-1.238,0.078-1.959,0.231c-0.719,0.154-1.463,0.378-2.23,0.671h-0.118v-2.267c0.435-0.118,1.063-0.249,1.887-0.392
			c0.822-0.142,1.634-0.213,2.433-0.213c0.933,0,1.746,0.077,2.438,0.231c0.692,0.154,1.291,0.418,1.798,0.789
			c0.499,0.364,0.878,0.835,1.14,1.412c0.261,0.578,0.391,1.294,0.391,2.148V158z M137.541,154.737v-3.69
			c-0.68,0.04-1.48,0.099-2.402,0.178s-1.651,0.194-2.189,0.345c-0.641,0.182-1.158,0.465-1.555,0.848
			c-0.395,0.384-0.593,0.912-0.593,1.584c0,0.76,0.229,1.331,0.688,1.715c0.459,0.384,1.158,0.575,2.1,0.575
			c0.783,0,1.5-0.151,2.148-0.456C136.387,155.53,136.988,155.164,137.541,154.737z"/>
		<path fill="#F4E8D1" d="M157.541,151.212c0,1.077-0.154,2.059-0.463,2.948c-0.309,0.891-0.743,1.644-1.305,2.261
			c-0.522,0.585-1.137,1.038-1.846,1.358c-0.707,0.32-1.457,0.48-2.248,0.48c-0.688,0-1.311-0.075-1.869-0.226
			c-0.557-0.149-1.125-0.383-1.702-0.699v5.553h-2.23v-18.143h2.23v1.389c0.593-0.498,1.259-0.915,1.999-1.252
			c0.74-0.336,1.529-0.504,2.367-0.504c1.598,0,2.842,0.604,3.732,1.81C157.096,147.394,157.541,149.069,157.541,151.212z
			 M155.239,151.272c0-1.598-0.272-2.792-0.818-3.583s-1.385-1.187-2.516-1.187c-0.641,0-1.286,0.138-1.935,0.415
			s-1.27,0.641-1.862,1.092v7.51c0.633,0.284,1.177,0.478,1.632,0.581c0.455,0.103,0.971,0.155,1.548,0.155
			c1.241,0,2.211-0.419,2.907-1.259C154.891,154.16,155.239,152.917,155.239,151.272z"/>
		<path fill="#F4E8D1" d="M173.923,158h-2.231v-7.546c0-0.609-0.035-1.181-0.105-1.715c-0.072-0.534-0.202-0.951-0.393-1.252
			c-0.197-0.332-0.482-0.579-0.854-0.741c-0.373-0.162-0.854-0.243-1.448-0.243c-0.608,0-1.245,0.15-1.91,0.45
			c-0.665,0.301-1.302,0.685-1.91,1.151V158h-2.23v-18.462h2.23v6.68c0.696-0.578,1.416-1.029,2.159-1.353
			c0.744-0.325,1.508-0.486,2.29-0.486c1.432,0,2.523,0.431,3.274,1.293c0.752,0.862,1.128,2.104,1.128,3.726V158z"/>
		<path fill="#F4E8D1" d="M182.438,142.527h-2.516v-2.313h2.516V142.527z M182.295,158h-2.23v-13.254h2.23V158z"/>
		<path fill="#F4E8D1" d="M198.332,157.169c-0.744,0.355-1.449,0.633-2.118,0.83s-1.378,0.297-2.13,0.297
			c-0.957,0-1.836-0.14-2.635-0.422c-0.799-0.28-1.482-0.705-2.053-1.275c-0.576-0.569-1.023-1.289-1.34-2.159
			s-0.475-1.887-0.475-3.049c0-2.167,0.595-3.867,1.785-5.102c1.191-1.235,2.763-1.851,4.717-1.851c0.76,0,1.505,0.106,2.236,0.32
			c0.732,0.213,1.402,0.475,2.012,0.782v2.481h-0.119c-0.68-0.531-1.383-0.938-2.105-1.223c-0.725-0.284-1.43-0.427-2.119-0.427
			c-1.266,0-2.264,0.426-2.995,1.276s-1.098,2.098-1.098,3.743c0,1.598,0.358,2.826,1.073,3.684c0.717,0.858,1.723,1.287,3.02,1.287
			c0.451,0,0.91-0.059,1.377-0.178c0.467-0.118,0.886-0.272,1.258-0.463c0.324-0.166,0.629-0.341,0.914-0.527
			c0.284-0.187,0.51-0.347,0.676-0.481h0.119V157.169z"/>
		<path fill="#F4E8D1" d="M228.483,149.184c0,1.605-0.35,3.061-1.05,4.366c-0.7,1.305-1.631,2.318-2.795,3.037
			c-0.807,0.498-1.706,0.858-2.699,1.08c-0.992,0.222-2.299,0.332-3.921,0.332h-4.462v-17.667h4.414
			c1.725,0,3.096,0.124,4.111,0.373c1.017,0.25,1.877,0.592,2.581,1.026c1.202,0.752,2.14,1.753,2.812,3.002
			C228.147,145.984,228.483,147.467,228.483,149.184z M226.027,149.148c0-1.384-0.241-2.551-0.724-3.5s-1.202-1.697-2.159-2.242
			c-0.696-0.396-1.436-0.671-2.219-0.825c-0.783-0.155-1.721-0.232-2.813-0.232h-2.207v13.633h2.207
			c1.131,0,2.118-0.083,2.961-0.249c0.842-0.166,1.615-0.475,2.319-0.925c0.878-0.561,1.536-1.302,1.976-2.218
			C225.809,151.672,226.027,150.525,226.027,149.148z"/>
		<path fill="#F4E8D1" d="M245.02,151.604h-9.766c0,0.815,0.123,1.524,0.367,2.13c0.246,0.605,0.582,1.102,1.01,1.489
			c0.41,0.38,0.899,0.664,1.465,0.854c0.565,0.189,1.188,0.284,1.869,0.284c0.901,0,1.809-0.179,2.723-0.54
			c0.914-0.36,1.564-0.713,1.951-1.062h0.119v2.433c-0.752,0.317-1.519,0.581-2.302,0.795c-0.783,0.213-1.606,0.32-2.468,0.32
			c-2.199,0-3.916-0.594-5.149-1.786c-1.234-1.191-1.851-2.881-1.851-5.072c0-2.167,0.591-3.888,1.773-5.161
			c1.182-1.274,2.738-1.911,4.669-1.911c1.788,0,3.166,0.521,4.135,1.566c0.969,1.044,1.454,2.528,1.454,4.449V151.604z
			 M242.848,149.896c-0.008-1.171-0.303-2.077-0.884-2.718s-1.466-0.96-2.651-0.96c-1.195,0-2.146,0.352-2.854,1.055
			c-0.709,0.704-1.109,1.578-1.205,2.623H242.848z"/>
		<path fill="#F4E8D1" d="M259.691,154.179c0,1.21-0.5,2.203-1.501,2.978c-1.001,0.775-2.367,1.163-4.1,1.163
			c-0.981,0-1.88-0.117-2.699-0.35c-0.819-0.233-1.505-0.488-2.059-0.765v-2.504h0.118c0.705,0.531,1.487,0.951,2.35,1.264
			s1.689,0.469,2.48,0.469c0.98,0,1.748-0.158,2.301-0.475c0.555-0.316,0.831-0.814,0.831-1.495c0-0.522-0.15-0.917-0.45-1.187
			c-0.301-0.269-0.879-0.498-1.732-0.687c-0.316-0.071-0.73-0.155-1.24-0.25c-0.51-0.095-0.975-0.197-1.395-0.307
			c-1.162-0.309-1.987-0.762-2.474-1.36c-0.486-0.596-0.729-1.33-0.729-2.2c0-0.546,0.112-1.061,0.338-1.543
			s0.567-0.914,1.026-1.293c0.442-0.372,1.007-0.667,1.69-0.884c0.685-0.218,1.449-0.327,2.297-0.327
			c0.791,0,1.592,0.098,2.402,0.291c0.811,0.194,1.484,0.43,2.023,0.706v2.385h-0.119c-0.57-0.418-1.262-0.772-2.076-1.062
			c-0.815-0.29-1.614-0.434-2.396-0.434c-0.815,0-1.504,0.156-2.065,0.469s-0.843,0.778-0.843,1.395c0,0.546,0.17,0.957,0.511,1.233
			c0.332,0.277,0.87,0.503,1.614,0.677c0.41,0.095,0.871,0.19,1.382,0.285s0.935,0.182,1.275,0.261
			c1.036,0.237,1.835,0.645,2.397,1.222C259.41,152.439,259.691,153.214,259.691,154.179z"/>
		<path fill="#F4E8D1" d="M267.103,142.527h-2.516v-2.313h2.516V142.527z M266.96,158h-2.23v-13.254h2.23V158z"/>
		<path fill="#F4E8D1" d="M283.946,156.493c0,2.246-0.511,3.896-1.53,4.948c-1.021,1.052-2.591,1.578-4.711,1.578
			c-0.704,0-1.391-0.049-2.059-0.148c-0.668-0.099-1.326-0.24-1.975-0.422v-2.278h0.117c0.364,0.143,0.941,0.318,1.732,0.528
			s1.582,0.314,2.373,0.314c0.76,0,1.389-0.091,1.887-0.272c0.499-0.182,0.887-0.436,1.163-0.76
			c0.276-0.309,0.475-0.681,0.593-1.115c0.119-0.435,0.179-0.922,0.179-1.46v-1.21c-0.673,0.538-1.315,0.939-1.929,1.204
			c-0.612,0.265-1.394,0.398-2.343,0.398c-1.582,0-2.838-0.571-3.767-1.714c-0.93-1.144-1.395-2.755-1.395-4.835
			c0-1.139,0.16-2.122,0.48-2.949c0.32-0.826,0.758-1.54,1.311-2.142c0.515-0.561,1.139-0.998,1.875-1.311
			c0.736-0.313,1.467-0.469,2.195-0.469c0.768,0,1.41,0.077,1.928,0.231s1.066,0.39,1.644,0.706l0.142-0.57h2.089V156.493z
			 M281.716,154.357v-7.226c-0.593-0.27-1.146-0.461-1.655-0.576c-0.51-0.114-1.019-0.172-1.525-0.172
			c-1.226,0-2.19,0.411-2.895,1.234c-0.704,0.822-1.056,2.017-1.056,3.583c0,1.487,0.261,2.615,0.782,3.382
			c0.523,0.768,1.389,1.15,2.6,1.15c0.648,0,1.299-0.124,1.951-0.373C280.57,155.11,281.17,154.776,281.716,154.357z"/>
		<path fill="#F4E8D1" d="M301.241,158h-2.231v-7.546c0-0.609-0.035-1.181-0.105-1.715c-0.072-0.534-0.202-0.951-0.393-1.252
			c-0.197-0.332-0.482-0.579-0.854-0.741c-0.373-0.162-0.854-0.243-1.448-0.243c-0.608,0-1.245,0.15-1.91,0.45
			c-0.665,0.301-1.302,0.685-1.91,1.151V158h-2.23v-13.254h2.23v1.472c0.696-0.578,1.416-1.029,2.159-1.353
			c0.744-0.325,1.508-0.486,2.29-0.486c1.432,0,2.523,0.431,3.274,1.293c0.752,0.862,1.128,2.104,1.128,3.726V158z"/>
	</g>
</g>
</svg>
