<?xml version="1.0" encoding="utf-8"?>
<!-- Generator: Adobe Illustrator 16.0.0, SVG Export Plug-In . SVG Version: 6.00 Build 0)  -->
<!DOCTYPE svg PUBLIC "-//W3C//DTD SVG 1.1//EN" "http://www.w3.org/Graphics/SVG/1.1/DTD/svg11.dtd">
<svg version="1.1" id="圖層_1" xmlns="http://www.w3.org/2000/svg" xmlns:xlink="http://www.w3.org/1999/xlink" x="0px" y="0px"
	 width="640px" height="360px" viewBox="0 0 640 360" enable-background="new 0 0 640 360" xml:space="preserve">
<g>
	<defs>
		<rect id="SVGID_17_" x="-810.838" y="-1256" width="642" height="1098"/>
	</defs>
	<clipPath id="SVGID_2_">
		<use xlink:href="#SVGID_17_"  overflow="visible"/>
	</clipPath>
	<g clip-path="url(#SVGID_2_)">
		<g opacity="0.1">
			<defs>
				<rect id="SVGID_19_" x="-824.841" y="-1275.381" opacity="0.1" width="670.766" height="1191.509"/>
			</defs>
			<clipPath id="SVGID_4_">
				<use xlink:href="#SVGID_19_"  overflow="visible"/>
			</clipPath>
			<g clip-path="url(#SVGID_4_)">
			</g>
		</g>
	</g>
</g>
<g>
	<rect fill="#4A2E2C" width="640" height="360"/>
	<g opacity="0.1">
		<defs>
			<rect id="SVGID_67_" opacity="0.1" width="640" height="360"/>
		</defs>
		<clipPath id="SVGID_6_">
			<use xlink:href="#SVGID_67_"  overflow="visible"/>
		</clipPath>
		<g clip-path="url(#SVGID_6_)">
			<g>
				<path fill="#4A2E2C" d="M-85.92,23.111c7.59-11.365,194.765-6.103,401.218-6.479c206.452-0.376,427.246,0.848,425.276,4.07
					c-6.465,10.594-165.742,7.229-372.193,7.603C161.928,28.681-88.064,26.322-85.92,23.111z"/>
				<path fill="#4A2E2C" d="M740.574,81.973c-6.69,10.992-171.547,7.134-377.998,7.517c-206.453,0.384-450.605-1.773-448.496-5.056
					c7.365-11.438,188.96-6.483,395.413-6.868C515.946,77.183,742.579,78.684,740.574,81.973z"/>
				<path fill="#4A2E2C" d="M740.574,143.244c-6.915,11.391-177.352,7.04-383.803,7.431c-206.453,0.392-444.766-1.564-442.691-4.919
					c7.14-11.51,183.156-6.864,389.608-7.255C510.141,138.109,742.613,139.887,740.574,143.244z"/>
				<path fill="#4A2E2C" d="M740.573,204.513c-7.139,11.79-183.157,6.946-389.608,7.345c-206.452,0.4-438.926-1.354-436.886-4.782
					c6.915-11.583,177.352-7.244,383.804-7.643C504.335,199.035,742.648,201.091,740.573,204.513z"/>
				<path fill="#4A2E2C" d="M740.572,265.784c-7.364,12.189-188.962,6.852-395.413,7.259
					c-206.452,0.408-433.086-1.145-431.082-4.645c6.689-11.656,171.547-7.625,377.999-8.031
					C498.529,259.961,742.682,262.294,740.572,265.784z"/>
				<path fill="#4A2E2C" d="M740.571,327.056c-7.589,12.588-194.767,6.758-401.217,7.173
					c-206.452,0.416-427.247-0.936-425.277-4.508c6.465-11.729,165.743-8.006,372.194-8.419
					C492.724,320.889,742.716,323.5,740.571,327.056z"/>
			</g>
			<g>
				<path fill="#4A2E2C" d="M596.141-37.724c15.219,4.334,8.025,101.584,8.373,209.056c0.346,107.476-1.459,222.36-5.779,221.226
					c-14.185-3.725-9.555-86.517-9.902-193.99C588.486,91.094,591.837-38.95,596.141-37.724z"/>
				<path fill="#4A2E2C" d="M534.117-41.904c15.036,4.39,8.042,102.873,8.508,211.708c0.464,108.839-1.188,225.181-5.456,224.032
					c-14.013-3.773-9.536-87.615-10.001-196.452C526.704,88.548,529.865-43.146,534.117-41.904z"/>
				<path fill="#4A2E2C" d="M472.093-46.084c14.853,4.446,8.06,104.163,8.643,214.362c0.583,110.202-0.916,228.002-5.131,226.838
					c-13.842-3.821-9.516-88.713-10.1-198.913C464.922,86.001,467.893-47.342,472.093-46.084z"/>
				<path fill="#4A2E2C" d="M410.068-50.264c14.67,4.502,8.076,105.452,8.779,217.014c0.701,111.565-0.644,230.823-4.808,229.644
					c-13.671-3.869-9.497-89.812-10.199-201.375C403.14,83.455,405.921-51.538,410.068-50.264z"/>
				<path fill="#4A2E2C" d="M348.045-54.444c14.486,4.558,8.093,106.741,8.914,219.667c0.819,112.928-0.372,233.643-4.484,232.45
					c-13.5-3.917-9.478-90.91-10.298-203.836C341.357,80.909,343.949-55.734,348.045-54.444z"/>
				<path fill="#4A2E2C" d="M286.123-58.624c14.304,4.614,8.11,108.031,9.049,222.32c0.938,114.292-0.1,236.464-4.159,235.256
					c-13.329-3.965-9.459-92.008-10.397-206.298C279.678,78.363,282.08-59.93,286.123-58.624z"/>
				<path fill="#4A2E2C" d="M224.159-62.804c14.121,4.671,8.127,109.32,9.185,224.973c1.056,115.655,0.172,239.285-3.836,238.062
					c-13.157-4.013-9.438-93.106-10.495-208.759C217.956,75.817,220.168-64.126,224.159-62.804z"/>
				<path fill="#4A2E2C" d="M162.081-66.983c13.938,4.727,8.144,110.61,9.32,227.626c1.174,117.018,0.443,242.105-3.512,240.868
					c-12.987-4.061-9.419-94.205-10.594-211.22C156.119,73.271,158.142-68.322,162.081-66.983z"/>
				<path fill="#4A2E2C" d="M100.002-71.164c13.755,4.783,8.161,111.899,9.455,230.279c1.293,118.381,0.715,244.927-3.188,243.674
					c-12.815-4.109-9.4-95.303-10.693-213.682C94.282,70.725,96.115-72.518,100.002-71.164z"/>
				<path fill="#4A2E2C" d="M37.925-75.344c13.571,4.839,8.178,113.188,9.59,232.932c1.411,119.744,0.987,247.747-2.864,246.48
					c-12.645-4.157-9.381-96.401-10.792-216.144C32.446,68.179,34.09-76.714,37.925-75.344z"/>
			</g>
		</g>
	</g>
</g>
</svg>
