<?xml version="1.0" encoding="utf-8"?>
<!-- Generator: Adobe Illustrator 16.0.0, SVG Export Plug-In . SVG Version: 6.00 Build 0)  -->
<!DOCTYPE svg PUBLIC "-//W3C//DTD SVG 1.1//EN" "http://www.w3.org/Graphics/SVG/1.1/DTD/svg11.dtd">
<svg version="1.1" id="圖層_1" xmlns="http://www.w3.org/2000/svg" xmlns:xlink="http://www.w3.org/1999/xlink" x="0px" y="0px"
	 width="50px" height="50px" viewBox="0 0 50 50" enable-background="new 0 0 50 50" xml:space="preserve">
<g>
	<path fill="#E7A720" d="M6.245,7.427c2.932-1.656,15.786-2.192,25.862-1.685c3.186,0.157,8.991-0.188,11.573,1.784
		c1.16,0.886,1.015,1.844,1.15,3.298c0.904,9.275,0.752,19.013,0.474,28.394c-0.078,2.627,0.521,4.195-2.072,4.875
		c-1.077,0.279-11.095,0.513-14.684,0.196c-4.605-0.409-9.414,0-14.043,0c-1.991,0-7.166,0.535-8.855-0.491
		c-1.826-1.106-0.962-5.576-0.962-7.598c0-4.223,0.396-7.198,0.275-12.135c-0.06-2.564-0.355-4.959-0.368-7.535
		C4.591,13.833,4.825,8.229,6.245,7.427z"/>
	<path fill="#EA9425" d="M45.3,39.218c0.276-9.381,0.431-19.118-0.471-28.394c-0.143-1.454,0.005-2.412-1.152-3.298
		c-0.518-0.399-1.192-0.683-1.926-0.912c0.077,1.439,0.013,2.927,0.146,3.858c0.559,3.821,0.408,7.658,0.533,12.593
		c0.06,2.565-0.007,5.049,0,7.624c0.005,2.699,0.295,9.494-0.638,9.998c-3.378,1.818-17.254,0.32-27.934,0.797
		c-2.449,0.104-6.381,0.155-9.352-0.626c0.063,1.297,0.331,2.447,1.139,2.939c1.691,1.026,6.866,0.491,8.856,0.491
		c4.629,0,9.438-0.411,14.043,0c3.586,0.316,13.61,0.083,14.681-0.196C45.821,43.414,45.222,41.845,45.3,39.218z"/>
</g>
</svg>
