<?xml version="1.0" encoding="utf-8"?>
<!-- Generator: Adobe Illustrator 16.0.0, SVG Export Plug-In . SVG Version: 6.00 Build 0)  -->
<!DOCTYPE svg PUBLIC "-//W3C//DTD SVG 1.1//EN" "http://www.w3.org/Graphics/SVG/1.1/DTD/svg11.dtd">
<svg version="1.1" id="圖層_1" xmlns="http://www.w3.org/2000/svg" xmlns:xlink="http://www.w3.org/1999/xlink" x="0px" y="0px"
	 width="350px" height="80px" viewBox="0 0 350 80" enable-background="new 0 0 350 80" xml:space="preserve">
<g>
	<g>
		<defs>
			<rect id="SVGID_241_" x="-4.375" y="-127" width="358.75" height="82"/>
		</defs>
		<clipPath id="SVGID_2_">
			<use xlink:href="#SVGID_241_"  overflow="visible"/>
		</clipPath>
		<g clip-path="url(#SVGID_2_)">
			<rect x="-7.728" y="-147.647" fill="#4A2E2C" width="364.409" height="204.98"/>
			<g opacity="0.1">
				<defs>
					<rect id="SVGID_243_" x="-7.728" y="-147.647" opacity="0.1" width="364.409" height="204.98"/>
				</defs>
				<clipPath id="SVGID_4_">
					<use xlink:href="#SVGID_243_"  overflow="visible"/>
				</clipPath>
				<g clip-path="url(#SVGID_4_)">
					<g>
						<path fill="#4A2E2C" d="M413.946,3.688c-4.193,6.94-107.593,3.903-225.144,4.134C71.25,8.054-57.792,7.17-56.651,5.177
							c3.809-6.637,97.677-4.342,215.229-4.573C276.129,0.372,415.147,1.701,413.946,3.688z"/>
						<path fill="#4A2E2C" d="M413.945,38.575c-4.321,7.167-110.898,3.849-228.449,4.084c-117.551,0.237-243.27-0.532-242.148-2.565
							c3.681-6.678,94.373-4.558,211.923-4.793C272.824,35.064,415.167,36.55,413.945,38.575z"/>
					</g>
					<g>
						<path fill="#4A2E2C" d="M331.708-169.126c8.665,2.468,4.57,57.84,4.768,119.034c0.197,61.195-0.831,126.609-3.291,125.963
							c-8.077-2.12-5.44-49.262-5.639-110.456C327.35-95.778,329.258-169.824,331.708-169.126z"/>
						<path fill="#4A2E2C" d="M296.393-171.505c8.561,2.499,4.579,58.574,4.844,120.544c0.264,61.971-0.676,128.215-3.106,127.561
							c-7.979-2.148-5.429-49.887-5.694-111.857C292.171-97.228,293.972-172.213,296.393-171.505z"/>
						<path fill="#4A2E2C" d="M261.077-173.886c8.457,2.531,4.589,59.309,4.921,122.055c0.332,62.748-0.521,129.822-2.922,129.159
							c-7.881-2.176-5.418-50.513-5.751-113.259C256.994-98.678,258.686-174.603,261.077-173.886z"/>
						<path fill="#4A2E2C" d="M225.761-176.266c8.353,2.564,4.599,60.043,4.999,123.566c0.398,63.523-0.367,131.428-2.738,130.756
							c-7.784-2.203-5.407-51.138-5.807-114.661C221.815-100.128,223.399-176.992,225.761-176.266z"/>
						<path fill="#4A2E2C" d="M190.445-178.646c8.248,2.595,4.607,60.777,5.075,125.077c0.466,64.299-0.212,133.033-2.553,132.354
							c-7.687-2.23-5.396-51.764-5.863-116.062C186.638-101.578,188.113-179.381,190.445-178.646z"/>
						<path fill="#4A2E2C" d="M155.188-181.027c8.144,2.628,4.617,61.512,5.152,126.587c0.534,65.076-0.057,134.64-2.369,133.952
							c-7.59-2.258-5.385-52.389-5.919-117.464C151.517-103.027,152.885-181.771,155.188-181.027z"/>
						<path fill="#4A2E2C" d="M119.906-183.406c8.041,2.659,4.628,62.246,5.229,128.098c0.601,65.852,0.098,136.246-2.185,135.549
							c-7.492-2.285-5.374-53.014-5.976-118.865C116.374-104.477,117.634-184.159,119.906-183.406z"/>
						<path fill="#4A2E2C" d="M84.56-185.786c7.936,2.69,4.637,62.979,5.306,129.607c0.668,66.628,0.252,137.853-2,137.147
							c-7.395-2.312-5.363-53.639-6.032-120.267C81.165-105.927,82.316-186.549,84.56-185.786z"/>
						<path fill="#4A2E2C" d="M49.183-188.166c7.832,2.723,4.646,63.714,5.383,131.118c0.736,67.404,0.407,139.458-1.815,138.745
							c-7.297-2.34-5.352-54.265-6.088-121.668C45.925-107.377,46.969-188.938,49.183-188.166z"/>
						<path fill="#4A2E2C" d="M13.867-190.546c7.728,2.755,4.656,64.448,5.46,132.629c0.803,68.18,0.562,141.065-1.631,140.343
							c-7.2-2.367-5.341-54.89-6.144-123.07C10.747-108.826,11.683-191.326,13.867-190.546z"/>
					</g>
				</g>
			</g>
		</g>
	</g>
</g>
<g>
	<g>
		<defs>
			<rect id="SVGID_245_" x="-4.375" y="-1" width="358.75" height="82"/>
		</defs>
		<clipPath id="SVGID_6_">
			<use xlink:href="#SVGID_245_"  overflow="visible"/>
		</clipPath>
		<g clip-path="url(#SVGID_6_)">
			<defs>
				<rect id="SVGID_247_" x="-30.81" y="-22.994" width="433.536" height="149.027"/>
			</defs>
			<clipPath id="SVGID_8_">
				<use xlink:href="#SVGID_247_"  overflow="visible"/>
			</clipPath>
			<rect x="-492.739" y="-629.252" clip-path="url(#SVGID_8_)" fill="#C16926" width="1358.748" height="764.915"/>
			<g clip-path="url(#SVGID_8_)">
				<g>
					<defs>
						<rect id="SVGID_249_" x="-106.025" y="-133.819" width="585.32" height="329.508"/>
					</defs>
					<clipPath id="SVGID_10_">
						<use xlink:href="#SVGID_249_"  overflow="visible"/>
					</clipPath>
					<g clip-path="url(#SVGID_10_)">
						<g>
							<g>
								<path fill="#BC6325" d="M17.707,11.756c-1.511,3.326-5.434,4.797-8.76,3.287C5.62,13.531,4.148,9.607,5.66,6.28
									c1.51-3.328,11.109-8.452,11.109-8.452S19.219,8.427,17.707,11.756z"/>
								<path fill="#BC6325" d="M68.904,11.756c-1.512,3.326-5.434,4.797-8.761,3.287c-3.327-1.511-4.798-5.435-3.287-8.763
									c1.511-3.328,11.11-8.453,11.11-8.453S70.415,8.427,68.904,11.756z"/>
								<path fill="#BC6325" d="M120.101,11.756c-1.512,3.326-5.435,4.797-8.761,3.287c-3.327-1.511-4.799-5.435-3.288-8.763
									c1.511-3.328,11.109-8.452,11.109-8.452S121.613,8.427,120.101,11.756z"/>
								<path fill="#BC6325" d="M171.298,11.756c-1.512,3.326-5.434,4.798-8.76,3.287s-4.799-5.435-3.287-8.762
									c1.51-3.329,11.108-8.453,11.108-8.453S172.808,8.427,171.298,11.756z"/>
								<path fill="#BC6325" d="M222.494,11.756c-1.512,3.326-5.434,4.797-8.761,3.287c-3.327-1.511-4.798-5.435-3.287-8.763
									c1.51-3.328,11.109-8.452,11.109-8.452S224.005,8.427,222.494,11.756z"/>
								<path fill="#BC6325" d="M273.691,11.756c-1.512,3.326-5.434,4.797-8.76,3.287c-3.328-1.511-4.8-5.435-3.288-8.763
									c1.512-3.328,11.108-8.452,11.108-8.452S275.203,8.427,273.691,11.756z"/>
								<path fill="#BC6325" d="M324.889,11.756c-1.512,3.326-5.434,4.797-8.761,3.287c-3.327-1.511-4.799-5.435-3.287-8.763
									c1.51-3.328,11.108-8.452,11.108-8.452S326.397,8.427,324.889,11.756z"/>
							</g>
							<g>
								<path fill="#BC6325" d="M39.99,44.537c-1.512,3.327-5.436,4.798-8.761,3.286c-3.327-1.511-4.799-5.435-3.288-8.762
									c1.511-3.328,11.11-8.452,11.11-8.452S41.5,41.208,39.99,44.537z"/>
								<path fill="#BC6325" d="M91.187,44.537c-1.513,3.327-5.435,4.798-8.761,3.286c-3.328-1.511-4.799-5.434-3.288-8.762
									c1.511-3.328,11.108-8.453,11.108-8.453S92.697,41.208,91.187,44.537z"/>
								<path fill="#BC6325" d="M142.382,44.537c-1.511,3.327-5.434,4.798-8.76,3.286c-3.328-1.511-4.8-5.435-3.289-8.762
									c1.512-3.328,11.11-8.452,11.11-8.452S143.894,41.208,142.382,44.537z"/>
								<path fill="#BC6325" d="M193.581,44.537c-1.513,3.327-5.435,4.798-8.762,3.286c-3.327-1.511-4.799-5.435-3.287-8.762
									c1.512-3.328,11.109-8.452,11.109-8.452S195.09,41.208,193.581,44.537z"/>
								<path fill="#BC6325" d="M244.776,44.537c-1.511,3.327-5.434,4.798-8.76,3.286c-3.328-1.511-4.799-5.435-3.288-8.762
									c1.512-3.328,11.109-8.452,11.109-8.452S246.287,41.208,244.776,44.537z"/>
								<path fill="#BC6325" d="M295.972,44.537c-1.51,3.327-5.433,4.798-8.76,3.286c-3.327-1.511-4.799-5.435-3.288-8.762
									s11.109-8.452,11.109-8.452S297.485,41.208,295.972,44.537z"/>
								<path fill="#BC6325" d="M347.169,44.537c-1.511,3.327-5.435,4.798-8.762,3.286c-3.325-1.511-4.798-5.435-3.286-8.762
									c1.51-3.328,11.109-8.452,11.109-8.452S348.681,41.208,347.169,44.537z"/>
							</g>
							<g>
								<path fill="#BC6325" d="M17.707,78.174c-1.511,3.326-5.434,4.796-8.76,3.286c-3.327-1.513-4.799-5.436-3.288-8.763
									c1.51-3.328,11.109-8.453,11.109-8.453S19.219,74.845,17.707,78.174z"/>
								<path fill="#BC6325" d="M68.904,78.173c-1.512,3.327-5.434,4.797-8.761,3.287c-3.327-1.513-4.798-5.436-3.287-8.763
									c1.511-3.328,11.11-8.453,11.11-8.453S70.415,74.845,68.904,78.173z"/>
								<path fill="#BC6325" d="M120.101,78.174c-1.512,3.326-5.435,4.797-8.761,3.286c-3.327-1.512-4.799-5.435-3.288-8.763
									c1.511-3.328,11.109-8.453,11.109-8.453S121.613,74.845,120.101,78.174z"/>
								<path fill="#BC6325" d="M171.298,78.174c-1.512,3.326-5.434,4.797-8.76,3.286c-3.327-1.512-4.799-5.435-3.287-8.763
									c1.51-3.328,11.108-8.453,11.108-8.453S172.808,74.845,171.298,78.174z"/>
								<path fill="#BC6325" d="M222.494,78.173c-1.512,3.327-5.434,4.797-8.761,3.287c-3.327-1.513-4.798-5.436-3.287-8.763
									c1.51-3.328,11.109-8.453,11.109-8.453S224.005,74.845,222.494,78.173z"/>
								<path fill="#BC6325" d="M273.691,78.174c-1.512,3.326-5.434,4.797-8.76,3.286c-3.328-1.512-4.8-5.435-3.288-8.763
									c1.512-3.328,11.108-8.453,11.108-8.453S275.203,74.845,273.691,78.174z"/>
								<path fill="#BC6325" d="M324.889,78.174c-1.512,3.326-5.434,4.797-8.761,3.286c-3.327-1.512-4.799-5.435-3.287-8.763
									c1.51-3.328,11.108-8.453,11.108-8.453S326.397,74.845,324.889,78.174z"/>
							</g>
						</g>
					</g>
				</g>
			</g>
		</g>
	</g>
	<g>
		<g>
			<path fill="#F4E8D1" d="M155.842,53.808h-2.35v-8.649h-8.816v8.649h-2.349V36.141h2.349v6.929h8.816v-6.929h2.35V53.808z"/>
			<path fill="#F4E8D1" d="M171.948,47.187c0,2.16-0.554,3.864-1.661,5.114c-1.107,1.25-2.591,1.875-4.449,1.875
				c-1.875,0-3.364-0.625-4.467-1.875c-1.104-1.25-1.655-2.954-1.655-5.114s0.552-3.865,1.655-5.119
				c1.104-1.254,2.592-1.881,4.467-1.881c1.858,0,3.342,0.627,4.449,1.881C171.395,43.322,171.948,45.027,171.948,47.187z
				 M169.646,47.187c0-1.716-0.336-2.992-1.009-3.827c-0.672-0.834-1.605-1.252-2.8-1.252c-1.21,0-2.15,0.418-2.818,1.252
				c-0.668,0.835-1.002,2.11-1.002,3.827c0,1.661,0.336,2.921,1.009,3.779c0.672,0.858,1.609,1.288,2.812,1.288
				c1.187,0,2.118-0.425,2.794-1.275S169.646,48.864,169.646,47.187z"/>
			<path fill="#F4E8D1" d="M194.984,53.808h-2.23v-7.546c0-0.569-0.026-1.119-0.077-1.649c-0.051-0.53-0.16-0.953-0.326-1.27
				c-0.182-0.339-0.443-0.597-0.783-0.771c-0.34-0.174-0.831-0.261-1.471-0.261c-0.625,0-1.25,0.156-1.875,0.469
				c-0.625,0.313-1.25,0.71-1.875,1.193c0.024,0.182,0.043,0.393,0.06,0.634c0.016,0.241,0.023,0.481,0.023,0.718v8.483h-2.23
				v-7.546c0-0.585-0.026-1.141-0.077-1.667c-0.052-0.526-0.16-0.947-0.326-1.264c-0.182-0.34-0.443-0.595-0.783-0.766
				c-0.34-0.17-0.831-0.255-1.471-0.255c-0.609,0-1.221,0.15-1.833,0.451c-0.613,0.301-1.224,0.685-1.833,1.151v9.896h-2.23V40.555
				h2.23v1.471c0.696-0.577,1.39-1.028,2.083-1.353c0.692-0.324,1.43-0.486,2.212-0.486c0.902,0,1.667,0.19,2.296,0.569
				c0.628,0.38,1.097,0.907,1.406,1.578c0.902-0.759,1.725-1.307,2.468-1.643c0.744-0.337,1.539-0.505,2.385-0.505
				c1.455,0,2.529,0.441,3.221,1.323s1.038,2.114,1.038,3.696V53.808z"/>
			<path fill="#F4E8D1" d="M210.617,47.413h-9.765c0,0.815,0.123,1.525,0.368,2.129c0.245,0.605,0.582,1.102,1.009,1.489
				c0.411,0.38,0.9,0.665,1.465,0.854c0.565,0.189,1.188,0.285,1.869,0.285c0.902,0,1.81-0.18,2.723-0.54
				c0.914-0.36,1.564-0.714,1.952-1.063h0.119v2.433c-0.751,0.316-1.519,0.581-2.302,0.794c-0.783,0.214-1.606,0.32-2.468,0.32
				c-2.199,0-3.916-0.595-5.149-1.785c-1.234-1.191-1.851-2.882-1.851-5.073c0-2.167,0.591-3.888,1.774-5.162
				c1.182-1.273,2.739-1.91,4.669-1.91c1.788,0,3.166,0.522,4.135,1.566s1.454,2.527,1.454,4.45V47.413z M208.445,45.704
				c-0.008-1.171-0.303-2.077-0.884-2.717c-0.582-0.641-1.465-0.961-2.652-0.961c-1.195,0-2.146,0.353-2.854,1.057
				c-0.708,0.705-1.109,1.578-1.205,2.622H208.445z"/>
		</g>
	</g>
</g>
</svg>
