<?xml version="1.0" encoding="utf-8"?>
<!-- Generator: Adobe Illustrator 16.0.0, SVG Export Plug-In . SVG Version: 6.00 Build 0)  -->
<!DOCTYPE svg PUBLIC "-//W3C//DTD SVG 1.1//EN" "http://www.w3.org/Graphics/SVG/1.1/DTD/svg11.dtd">
<svg version="1.1" id="圖層_1" xmlns="http://www.w3.org/2000/svg" xmlns:xlink="http://www.w3.org/1999/xlink" x="0px" y="0px"
	 width="150px" height="120px" viewBox="0 0 150 120" enable-background="new 0 0 150 120" xml:space="preserve">
<g>
	<g>
		<g>
			<defs>
				<path id="SVGID_179_" d="M104.968,103.355c-4.263,0-7.714-3.446-7.714-7.682V57.457c0-4.252,3.451-7.715,7.688-7.698h21.109
					v-39.72H9.968v110.885h109.668v-17.568H104.968z"/>
			</defs>
			<clipPath id="SVGID_2_">
				<use xlink:href="#SVGID_179_"  overflow="visible"/>
			</clipPath>
			<g clip-path="url(#SVGID_2_)">
				<g>
					<g>
						<path fill="#F4E8D1" d="M32.785,94.894h75.683c8.42,0,15.25-6.846,15.25-15.283V30.09c0-8.406-6.83-15.267-15.25-15.267
							H32.785c-8.417,0-15.251,6.828-15.251,15.267v49.552C17.505,88.047,24.368,94.894,32.785,94.894L32.785,94.894z M23.135,30.09
							c0-5.316,4.331-9.645,9.65-9.645h75.683c5.315,0,9.646,4.328,9.646,9.645v49.552c0,5.323-4.331,9.652-9.646,9.652H32.785
							c-5.319,0-9.65-4.329-9.65-9.652V30.09z M23.135,30.09"/>
						<path fill="#F4E8D1" d="M108.468,95.257H32.785c-4.181,0-8.119-1.636-11.076-4.609c-2.941-2.948-4.551-6.853-4.537-11.006
							V30.09c0-8.622,7.01-15.633,15.613-15.633h75.683c8.61,0,15.61,7.011,15.61,15.633v49.52
							C124.078,88.239,117.078,95.257,108.468,95.257z M32.785,15.19c-8.208,0-14.884,6.678-14.884,14.9v49.552
							c-0.007,3.953,1.524,7.675,4.324,10.491c2.823,2.832,6.571,4.393,10.56,4.393h75.683c8.211,0,14.884-6.695,14.884-14.916
							V30.09c0-8.222-6.673-14.9-14.884-14.9H32.785z M108.468,89.661H32.785c-5.519,0-10.017-4.496-10.017-10.019V30.09
							c0-5.516,4.498-10.009,10.017-10.009h75.683c5.525,0,10.014,4.493,10.014,10.009v49.552
							C118.481,85.166,113.993,89.661,108.468,89.661z M32.785,20.813c-5.12,0-9.287,4.16-9.287,9.277v49.552
							c0,5.116,4.167,9.287,9.287,9.287h75.683c5.116,0,9.287-4.17,9.287-9.287V30.09c0-5.117-4.171-9.277-9.287-9.277H32.785z"/>
					</g>
				</g>
				<rect x="66.19" y="93.429" fill="#F4E8D1" width="8.8" height="9.925"/>
				<path fill="#F4E8D1" d="M86.171,108.04H55.088c-1.822,0-3.304-1.487-3.304-3.296c0-1.829,1.481-3.307,3.304-3.307h31.083
					c1.829,0,3.301,1.478,3.301,3.307C89.472,106.553,88,108.04,86.171,108.04z"/>
				<path fill="#F4E8D1" d="M118.667,82.532H22.599c-1.819,0-3.301-1.477-3.301-3.305c0-1.81,1.481-3.298,3.301-3.298h96.068
					c1.829,0,3.301,1.488,3.301,3.298C121.968,81.055,120.496,82.532,118.667,82.532z"/>
			</g>
			<path clip-path="url(#SVGID_2_)" fill="#EBB024" d="M109.628,68.077V35.965c0-4.044-3.279-7.322-7.312-7.322h-63.39
				c-4.022,0-7.299,3.277-7.299,7.322v32.112H109.628z"/>
		</g>
		<g>
			<g>
				<g>
					<g>
						<path fill="#F4E8D1" d="M95.681,57.457v38.216c0,4.236,3.451,7.682,7.71,7.682h21.466c4.236,0,7.707-3.446,7.707-7.682V57.457
							c0-4.252-3.454-7.698-7.707-7.698h-21.479C99.132,49.742,95.681,53.204,95.681,57.457L95.681,57.457z M124.856,52.583
							c2.673,0,4.858,2.191,4.858,4.874v38.216c0,2.682-2.186,4.867-4.858,4.867h-21.479c-2.689,0-4.868-2.185-4.868-4.867V57.457
							c0-2.683,2.179-4.874,4.868-4.874H124.856z M124.856,52.583"/>
						<path fill="#F4E8D1" d="M124.856,104.826h-21.466c-5.061,0-9.179-4.11-9.179-9.153V57.457c0-5.049,4.103-9.168,9.143-9.168
							h21.502c5.058,0,9.176,4.12,9.176,9.168v38.216C134.032,100.715,129.914,104.826,124.856,104.826z M103.378,54.052
							c-1.878,0-3.402,1.521-3.402,3.404v38.216c0,1.877,1.524,3.397,3.402,3.397h21.479c1.871,0,3.393-1.52,3.393-3.397V57.457
							c0-1.884-1.521-3.404-3.393-3.404H103.378z"/>
					</g>
				</g>
				<g>
					<path fill="#F4E8D1" d="M129.122,94.187h-28.94c-1.413,0-2.562-1.155-2.562-2.566c0-1.42,1.148-2.567,2.562-2.567h28.94
						c1.416,0,2.568,1.147,2.568,2.567C131.69,93.032,130.538,94.187,129.122,94.187z"/>
				</g>
			</g>
			<g>
				<rect x="105.573" y="67.657" fill="#EBB024" width="16.91" height="15.834"/>
				<path fill="#EBB024" d="M122.483,75.717c0,0.989-0.797,1.788-1.781,1.788h-13.354c-0.977,0-1.775-0.798-1.775-1.788V62.166
					c0-0.989,0.799-1.786,1.775-1.786h13.354c0.984,0,1.781,0.797,1.781,1.786V75.717z"/>
			</g>
		</g>
	</g>
</g>
<g>
	<g>
		<defs>
			<rect id="SVGID_245_" x="-867.157" y="439.75" width="358.75" height="82"/>
		</defs>
		<clipPath id="SVGID_4_">
			<use xlink:href="#SVGID_245_"  overflow="visible"/>
		</clipPath>
		<g clip-path="url(#SVGID_4_)">
			<defs>
				<rect id="SVGID_247_" x="-893.592" y="417.756" width="433.536" height="149.027"/>
			</defs>
			<clipPath id="SVGID_6_">
				<use xlink:href="#SVGID_247_"  overflow="visible"/>
			</clipPath>
			<rect x="-1355.521" y="-188.502" clip-path="url(#SVGID_6_)" fill="#C16926" width="1358.748" height="764.915"/>
		</g>
	</g>
</g>
</svg>
