<?xml version="1.0" encoding="utf-8"?>
<!-- Generator: Adobe Illustrator 16.0.0, SVG Export Plug-In . SVG Version: 6.00 Build 0)  -->
<!DOCTYPE svg PUBLIC "-//W3C//DTD SVG 1.1//EN" "http://www.w3.org/Graphics/SVG/1.1/DTD/svg11.dtd">
<svg version="1.1" id="圖層_1" xmlns="http://www.w3.org/2000/svg" xmlns:xlink="http://www.w3.org/1999/xlink" x="0px" y="0px"
	 width="400px" height="180px" viewBox="0 0 400 180" enable-background="new 0 0 400 180" xml:space="preserve">
<g>
	<g>
		<g>
			<defs>
				<path id="SVGID_133_" d="M232.968,110.641c-4.263,0-7.714-3.446-7.714-7.682V64.743c0-4.252,3.451-7.715,7.688-7.698h21.109
					v-39.72H137.968v110.885h109.668v-17.568H232.968z"/>
			</defs>
			<clipPath id="SVGID_2_">
				<use xlink:href="#SVGID_133_"  overflow="visible"/>
			</clipPath>
			<g clip-path="url(#SVGID_2_)">
				<g>
					<g>
						<path fill="#F4E8D1" d="M160.785,102.179h75.683c8.42,0,15.25-6.846,15.25-15.283v-49.52c0-8.406-6.83-15.267-15.25-15.267
							h-75.683c-8.417,0-15.251,6.828-15.251,15.267v49.552C145.505,95.333,152.368,102.179,160.785,102.179L160.785,102.179z
							 M151.135,37.376c0-5.316,4.331-9.645,9.65-9.645h75.683c5.315,0,9.646,4.328,9.646,9.645v49.552
							c0,5.323-4.331,9.651-9.646,9.651h-75.683c-5.319,0-9.65-4.328-9.65-9.651V37.376z M151.135,37.376"/>
						<path fill="#F4E8D1" d="M236.468,102.543h-75.683c-4.181,0-8.119-1.636-11.076-4.609c-2.941-2.948-4.551-6.853-4.537-11.006
							V37.376c0-8.622,7.01-15.633,15.613-15.633h75.683c8.61,0,15.61,7.011,15.61,15.633v49.52
							C252.078,95.525,245.078,102.543,236.468,102.543z M160.785,22.477c-8.208,0-14.884,6.678-14.884,14.9v49.552
							c-0.007,3.953,1.524,7.675,4.324,10.491c2.823,2.832,6.571,4.393,10.56,4.393h75.683c8.211,0,14.884-6.694,14.884-14.916
							v-49.52c0-8.222-6.673-14.9-14.884-14.9H160.785z M236.468,96.947h-75.683c-5.519,0-10.017-4.495-10.017-10.019V37.376
							c0-5.516,4.498-10.009,10.017-10.009h75.683c5.525,0,10.014,4.493,10.014,10.009v49.552
							C246.481,92.452,241.993,96.947,236.468,96.947z M160.785,28.099c-5.12,0-9.287,4.16-9.287,9.277v49.552
							c0,5.116,4.167,9.287,9.287,9.287h75.683c5.116,0,9.287-4.17,9.287-9.287V37.376c0-5.117-4.171-9.277-9.287-9.277H160.785z"/>
					</g>
				</g>
				<rect x="194.19" y="100.716" fill="#F4E8D1" width="8.8" height="9.925"/>
				<path fill="#F4E8D1" d="M214.171,115.326h-31.083c-1.822,0-3.304-1.487-3.304-3.297c0-1.828,1.481-3.306,3.304-3.306h31.083
					c1.829,0,3.301,1.478,3.301,3.306C217.472,113.839,216,115.326,214.171,115.326z"/>
				<path fill="#F4E8D1" d="M246.667,89.818h-96.068c-1.819,0-3.301-1.477-3.301-3.305c0-1.811,1.481-3.298,3.301-3.298h96.068
					c1.829,0,3.301,1.488,3.301,3.298C249.968,88.341,248.496,89.818,246.667,89.818z"/>
			</g>
			<path clip-path="url(#SVGID_2_)" fill="#EBB024" d="M237.628,75.363V43.251c0-4.044-3.279-7.322-7.312-7.322h-63.39
				c-4.022,0-7.299,3.278-7.299,7.322v32.111H237.628z"/>
		</g>
		<g>
			<g>
				<g>
					<g>
						<path fill="#F4E8D1" d="M223.681,64.743v38.216c0,4.236,3.451,7.682,7.71,7.682h21.466c4.236,0,7.707-3.446,7.707-7.682
							V64.743c0-4.252-3.454-7.698-7.707-7.698h-21.479C227.132,57.028,223.681,60.49,223.681,64.743L223.681,64.743z
							 M252.856,59.869c2.673,0,4.858,2.191,4.858,4.874v38.216c0,2.682-2.186,4.867-4.858,4.867h-21.479
							c-2.689,0-4.868-2.185-4.868-4.867V64.743c0-2.683,2.179-4.874,4.868-4.874H252.856z M252.856,59.869"/>
						<path fill="#F4E8D1" d="M252.856,112.112h-21.466c-5.061,0-9.179-4.11-9.179-9.153V64.743c0-5.049,4.103-9.168,9.143-9.168
							h21.502c5.058,0,9.176,4.12,9.176,9.168v38.216C262.032,108.001,257.914,112.112,252.856,112.112z M231.378,61.338
							c-1.878,0-3.402,1.521-3.402,3.405v38.216c0,1.877,1.524,3.397,3.402,3.397h21.479c1.871,0,3.393-1.52,3.393-3.397V64.743
							c0-1.884-1.521-3.405-3.393-3.405H231.378z"/>
					</g>
				</g>
				<g>
					<path fill="#F4E8D1" d="M257.122,101.473h-28.94c-1.413,0-2.562-1.155-2.562-2.566c0-1.42,1.148-2.567,2.562-2.567h28.94
						c1.416,0,2.568,1.147,2.568,2.567C259.69,100.318,258.538,101.473,257.122,101.473z"/>
				</g>
			</g>
			<g>
				<rect x="233.573" y="74.943" fill="#EBB024" width="16.91" height="15.834"/>
				<path fill="#EBB024" d="M250.483,83.003c0,0.989-0.797,1.788-1.781,1.788h-13.354c-0.977,0-1.775-0.798-1.775-1.788V69.452
					c0-0.989,0.799-1.786,1.775-1.786h13.354c0.984,0,1.781,0.797,1.781,1.786V83.003z"/>
			</g>
		</g>
	</g>
</g>
<g>
	<g>
		<path fill="#F4E8D1" d="M90.883,158H88.38l-1.732-4.924h-7.641L77.274,158h-2.385l6.431-17.667h3.133L90.883,158z M85.924,151.058
			l-3.097-8.673l-3.108,8.673H85.924z"/>
		<path fill="#F4E8D1" d="M106.944,145.671c0,0.783-0.136,1.509-0.409,2.178c-0.273,0.668-0.655,1.248-1.145,1.738
			c-0.609,0.608-1.329,1.065-2.16,1.37s-1.878,0.457-3.144,0.457h-2.35V158h-2.349v-17.667h4.793c1.06,0,1.958,0.089,2.693,0.267
			c0.736,0.178,1.388,0.457,1.958,0.837c0.672,0.45,1.192,1.013,1.56,1.685C106.76,143.792,106.944,144.643,106.944,145.671z
			 M104.5,145.731c0-0.609-0.106-1.14-0.32-1.59c-0.213-0.451-0.538-0.819-0.973-1.104c-0.38-0.245-0.813-0.421-1.299-0.528
			c-0.486-0.106-1.102-0.16-1.845-0.16h-2.326v7.06h1.982c0.949,0,1.72-0.085,2.313-0.255s1.076-0.44,1.448-0.813
			c0.372-0.38,0.635-0.779,0.789-1.198C104.422,146.724,104.5,146.253,104.5,145.731z"/>
		<path fill="#F4E8D1" d="M123.42,145.671c0,0.783-0.136,1.509-0.409,2.178c-0.273,0.668-0.655,1.248-1.145,1.738
			c-0.609,0.608-1.329,1.065-2.16,1.37s-1.878,0.457-3.144,0.457h-2.35V158h-2.349v-17.667h4.793c1.06,0,1.958,0.089,2.693,0.267
			c0.736,0.178,1.388,0.457,1.958,0.837c0.672,0.45,1.192,1.013,1.56,1.685C123.236,143.792,123.42,144.643,123.42,145.671z
			 M120.976,145.731c0-0.609-0.106-1.14-0.32-1.59c-0.213-0.451-0.538-0.819-0.973-1.104c-0.38-0.245-0.813-0.421-1.299-0.528
			c-0.486-0.106-1.102-0.16-1.845-0.16h-2.326v7.06h1.982c0.949,0,1.72-0.085,2.313-0.255s1.076-0.44,1.448-0.813
			c0.372-0.38,0.635-0.779,0.789-1.198C120.898,146.724,120.976,146.253,120.976,145.731z"/>
		<path fill="#F4E8D1" d="M146.536,139.538l-8.507,22.069h-2.053l8.472-22.069H146.536z"/>
		<path fill="#F4E8D1" d="M182.49,140.333L177.898,158h-2.646l-3.714-14.665L167.908,158h-2.586l-4.675-17.667h2.408l3.714,14.688
			l3.655-14.688h2.385l3.69,14.831l3.69-14.831H182.49z"/>
		<path fill="#F4E8D1" d="M199.417,158h-11.64v-17.667h11.64v2.088h-9.291v4.841h9.291v2.089h-9.291v6.562h9.291V158z"/>
		<path fill="#F4E8D1" d="M218.29,152.565c0,0.878-0.166,1.653-0.499,2.326c-0.332,0.672-0.779,1.226-1.341,1.661
			c-0.664,0.521-1.394,0.894-2.189,1.115S212.456,158,211.23,158h-6.265v-17.667h5.232c1.29,0,2.254,0.047,2.896,0.142
			c0.641,0.096,1.253,0.293,1.839,0.594c0.648,0.34,1.119,0.777,1.412,1.312c0.292,0.533,0.439,1.172,0.439,1.916
			c0,0.838-0.214,1.553-0.641,2.142c-0.427,0.589-0.997,1.062-1.709,1.418v0.095c1.194,0.245,2.136,0.77,2.824,1.572
			C217.946,150.325,218.29,151.339,218.29,152.565z M214.339,144.604c0-0.428-0.071-0.787-0.213-1.08
			c-0.143-0.293-0.372-0.53-0.688-0.712c-0.372-0.214-0.823-0.346-1.353-0.397c-0.53-0.052-1.187-0.077-1.97-0.077h-2.8v5.102h3.038
			c0.736,0,1.321-0.037,1.756-0.112c0.435-0.075,0.838-0.231,1.21-0.469s0.635-0.544,0.789-0.919
			C214.262,145.563,214.339,145.118,214.339,144.604z M215.846,152.66c0-0.711-0.107-1.277-0.32-1.696s-0.601-0.775-1.163-1.067
			c-0.38-0.198-0.841-0.327-1.382-0.386c-0.542-0.06-1.201-0.089-1.976-0.089h-3.69v6.573h3.109c1.028,0,1.871-0.054,2.527-0.16
			c0.656-0.107,1.194-0.303,1.614-0.588c0.443-0.309,0.767-0.66,0.973-1.056S215.846,153.285,215.846,152.66z"/>
		<path fill="#F4E8D1" d="M248.738,149.184c0,1.605-0.35,3.061-1.05,4.366c-0.7,1.305-1.631,2.317-2.795,3.037
			c-0.807,0.498-1.706,0.858-2.699,1.08c-0.992,0.222-2.299,0.332-3.921,0.332h-4.462v-17.667h4.414
			c1.725,0,3.096,0.124,4.111,0.373c1.017,0.25,1.877,0.592,2.581,1.026c1.202,0.752,2.14,1.753,2.812,3.002
			C248.402,145.984,248.738,147.467,248.738,149.184z M246.282,149.148c0-1.384-0.241-2.551-0.724-3.5s-1.202-1.697-2.159-2.242
			c-0.696-0.396-1.436-0.671-2.219-0.825s-1.721-0.231-2.813-0.231h-2.207v13.633h2.207c1.131,0,2.118-0.083,2.961-0.249
			c0.842-0.166,1.615-0.475,2.319-0.925c0.878-0.562,1.536-1.302,1.976-2.219C246.063,151.671,246.282,150.525,246.282,149.148z"/>
		<path fill="#F4E8D1" d="M265.274,151.604h-9.766c0,0.815,0.123,1.524,0.367,2.13c0.246,0.605,0.582,1.102,1.01,1.489
			c0.41,0.38,0.899,0.664,1.465,0.854c0.565,0.189,1.188,0.284,1.869,0.284c0.901,0,1.809-0.18,2.723-0.54
			c0.914-0.359,1.564-0.713,1.951-1.062h0.119v2.433c-0.752,0.316-1.519,0.581-2.302,0.795s-1.606,0.32-2.468,0.32
			c-2.199,0-3.916-0.595-5.149-1.786c-1.234-1.19-1.851-2.881-1.851-5.072c0-2.167,0.591-3.888,1.773-5.161
			c1.182-1.273,2.738-1.91,4.669-1.91c1.788,0,3.166,0.521,4.135,1.566c0.969,1.044,1.454,2.527,1.454,4.449V151.604z
			 M263.103,149.896c-0.008-1.171-0.303-2.077-0.884-2.718s-1.466-0.961-2.651-0.961c-1.195,0-2.146,0.353-2.854,1.056
			c-0.709,0.704-1.109,1.578-1.205,2.623H263.103z"/>
		<path fill="#F4E8D1" d="M279.946,154.179c0,1.21-0.5,2.203-1.501,2.978c-1.001,0.775-2.367,1.163-4.1,1.163
			c-0.981,0-1.88-0.117-2.699-0.35c-0.819-0.233-1.505-0.488-2.059-0.766v-2.504h0.118c0.705,0.53,1.487,0.951,2.35,1.264
			s1.689,0.469,2.48,0.469c0.98,0,1.748-0.158,2.301-0.475c0.555-0.316,0.831-0.814,0.831-1.495c0-0.521-0.15-0.917-0.45-1.187
			c-0.301-0.269-0.879-0.498-1.732-0.688c-0.316-0.071-0.73-0.154-1.24-0.25c-0.51-0.095-0.975-0.197-1.395-0.308
			c-1.162-0.309-1.987-0.762-2.474-1.359c-0.486-0.597-0.729-1.33-0.729-2.2c0-0.546,0.112-1.061,0.338-1.543
			s0.567-0.914,1.026-1.293c0.442-0.372,1.007-0.667,1.69-0.884c0.685-0.218,1.449-0.327,2.297-0.327
			c0.791,0,1.592,0.098,2.402,0.291c0.811,0.194,1.484,0.43,2.023,0.706v2.385h-0.119c-0.57-0.419-1.262-0.772-2.076-1.062
			c-0.815-0.289-1.614-0.434-2.396-0.434c-0.815,0-1.504,0.156-2.065,0.469s-0.843,0.777-0.843,1.395
			c0,0.546,0.17,0.957,0.511,1.233c0.332,0.277,0.87,0.503,1.614,0.677c0.41,0.095,0.871,0.189,1.382,0.285
			c0.511,0.095,0.935,0.182,1.275,0.261c1.036,0.237,1.835,0.645,2.397,1.222C279.665,152.439,279.946,153.214,279.946,154.179z"/>
		<path fill="#F4E8D1" d="M287.357,142.527h-2.516v-2.313h2.516V142.527z M287.215,158h-2.23v-13.254h2.23V158z"/>
		<path fill="#F4E8D1" d="M304.201,156.493c0,2.246-0.511,3.896-1.53,4.948c-1.021,1.052-2.591,1.577-4.711,1.577
			c-0.704,0-1.391-0.049-2.059-0.147c-0.668-0.1-1.326-0.24-1.975-0.422v-2.278h0.117c0.364,0.143,0.941,0.318,1.732,0.528
			s1.582,0.314,2.373,0.314c0.76,0,1.389-0.091,1.887-0.272c0.499-0.183,0.887-0.436,1.163-0.76
			c0.276-0.309,0.475-0.681,0.593-1.115c0.119-0.436,0.179-0.922,0.179-1.46v-1.21c-0.673,0.538-1.315,0.939-1.929,1.204
			c-0.612,0.266-1.394,0.397-2.343,0.397c-1.582,0-2.838-0.571-3.767-1.714c-0.93-1.144-1.395-2.755-1.395-4.835
			c0-1.14,0.16-2.122,0.48-2.949c0.32-0.826,0.758-1.54,1.311-2.142c0.515-0.562,1.139-0.998,1.875-1.311s1.467-0.469,2.195-0.469
			c0.768,0,1.41,0.077,1.928,0.231s1.066,0.39,1.644,0.706l0.142-0.57h2.089V156.493z M301.971,154.357v-7.226
			c-0.593-0.27-1.146-0.461-1.655-0.576c-0.51-0.114-1.019-0.172-1.525-0.172c-1.226,0-2.19,0.411-2.895,1.234
			c-0.704,0.822-1.056,2.017-1.056,3.583c0,1.487,0.261,2.614,0.782,3.382c0.523,0.768,1.389,1.15,2.6,1.15
			c0.648,0,1.299-0.124,1.951-0.373C300.825,155.11,301.425,154.776,301.971,154.357z"/>
		<path fill="#F4E8D1" d="M321.496,158h-2.231v-7.546c0-0.609-0.035-1.181-0.105-1.715c-0.072-0.534-0.202-0.951-0.393-1.252
			c-0.197-0.332-0.482-0.579-0.854-0.741c-0.373-0.162-0.854-0.243-1.448-0.243c-0.608,0-1.245,0.15-1.91,0.45
			c-0.665,0.301-1.302,0.685-1.91,1.151V158h-2.23v-13.254h2.23v1.472c0.696-0.577,1.416-1.028,2.159-1.353
			c0.744-0.324,1.508-0.486,2.29-0.486c1.432,0,2.523,0.431,3.274,1.293c0.752,0.862,1.128,2.104,1.128,3.726V158z"/>
	</g>
</g>
<g>
	<g>
		<defs>
			<rect id="SVGID_209_" x="-742.157" y="678" width="358.75" height="82"/>
		</defs>
		<clipPath id="SVGID_4_">
			<use xlink:href="#SVGID_209_"  overflow="visible"/>
		</clipPath>
		<g clip-path="url(#SVGID_4_)">
			<defs>
				<rect id="SVGID_211_" x="-768.592" y="656.006" width="433.536" height="149.028"/>
			</defs>
			<clipPath id="SVGID_6_">
				<use xlink:href="#SVGID_211_"  overflow="visible"/>
			</clipPath>
			<rect x="-1230.521" y="49.749" clip-path="url(#SVGID_6_)" fill="#C16926" width="1358.748" height="764.914"/>
		</g>
	</g>
</g>
</svg>
