<?xml version="1.0" encoding="utf-8"?>
<!-- Generator: Adobe Illustrator 16.0.0, SVG Export Plug-In . SVG Version: 6.00 Build 0)  -->
<!DOCTYPE svg PUBLIC "-//W3C//DTD SVG 1.1//EN" "http://www.w3.org/Graphics/SVG/1.1/DTD/svg11.dtd">
<svg version="1.1" id="圖層_1" xmlns="http://www.w3.org/2000/svg" xmlns:xlink="http://www.w3.org/1999/xlink" x="0px" y="0px"
	 width="400px" height="180px" viewBox="0 0 400 180" enable-background="new 0 0 400 180" xml:space="preserve">
<g>
	<g>
		<g>
			<defs>
				<path id="SVGID_175_" d="M232.968,110.641c-4.263,0-7.714-3.446-7.714-7.682V64.743c0-4.252,3.451-7.715,7.688-7.698h21.109
					v-39.72H137.968v110.885h109.668v-17.568H232.968z"/>
			</defs>
			<clipPath id="SVGID_2_">
				<use xlink:href="#SVGID_175_"  overflow="visible"/>
			</clipPath>
			<g clip-path="url(#SVGID_2_)">
				<g>
					<g>
						<path fill="#F4E8D1" d="M160.785,102.179h75.683c8.42,0,15.25-6.846,15.25-15.283v-49.52c0-8.406-6.83-15.267-15.25-15.267
							h-75.683c-8.417,0-15.251,6.828-15.251,15.267v49.552C145.505,95.333,152.368,102.179,160.785,102.179L160.785,102.179z
							 M151.135,37.376c0-5.316,4.331-9.645,9.65-9.645h75.683c5.315,0,9.646,4.328,9.646,9.645v49.552
							c0,5.323-4.331,9.651-9.646,9.651h-75.683c-5.319,0-9.65-4.328-9.65-9.651V37.376z M151.135,37.376"/>
						<path fill="#F4E8D1" d="M236.468,102.543h-75.683c-4.181,0-8.119-1.636-11.076-4.609c-2.941-2.948-4.551-6.853-4.537-11.006
							V37.376c0-8.622,7.01-15.633,15.613-15.633h75.683c8.61,0,15.61,7.011,15.61,15.633v49.52
							C252.078,95.525,245.078,102.543,236.468,102.543z M160.785,22.477c-8.208,0-14.884,6.678-14.884,14.9v49.552
							c-0.007,3.953,1.524,7.675,4.324,10.491c2.823,2.832,6.571,4.393,10.56,4.393h75.683c8.211,0,14.884-6.694,14.884-14.916
							v-49.52c0-8.222-6.673-14.9-14.884-14.9H160.785z M236.468,96.947h-75.683c-5.519,0-10.017-4.495-10.017-10.019V37.376
							c0-5.516,4.498-10.009,10.017-10.009h75.683c5.525,0,10.014,4.493,10.014,10.009v49.552
							C246.481,92.452,241.993,96.947,236.468,96.947z M160.785,28.099c-5.12,0-9.287,4.16-9.287,9.277v49.552
							c0,5.116,4.167,9.287,9.287,9.287h75.683c5.116,0,9.287-4.17,9.287-9.287V37.376c0-5.117-4.171-9.277-9.287-9.277H160.785z"/>
					</g>
				</g>
				<rect x="194.19" y="100.716" fill="#F4E8D1" width="8.8" height="9.925"/>
				<path fill="#F4E8D1" d="M214.171,115.326h-31.083c-1.822,0-3.304-1.487-3.304-3.297c0-1.828,1.481-3.306,3.304-3.306h31.083
					c1.829,0,3.301,1.478,3.301,3.306C217.472,113.839,216,115.326,214.171,115.326z"/>
				<path fill="#F4E8D1" d="M246.667,89.818h-96.068c-1.819,0-3.301-1.477-3.301-3.305c0-1.811,1.481-3.298,3.301-3.298h96.068
					c1.829,0,3.301,1.488,3.301,3.298C249.968,88.341,248.496,89.818,246.667,89.818z"/>
			</g>
			<path clip-path="url(#SVGID_2_)" fill="#EBB024" d="M237.628,75.363V43.251c0-4.044-3.279-7.322-7.312-7.322h-63.39
				c-4.022,0-7.299,3.278-7.299,7.322v32.111H237.628z"/>
		</g>
		<g>
			<g>
				<g>
					<g>
						<path fill="#F4E8D1" d="M223.681,64.743v38.216c0,4.236,3.451,7.682,7.71,7.682h21.466c4.236,0,7.707-3.446,7.707-7.682
							V64.743c0-4.252-3.454-7.698-7.707-7.698h-21.479C227.132,57.028,223.681,60.49,223.681,64.743L223.681,64.743z
							 M252.856,59.869c2.673,0,4.858,2.191,4.858,4.874v38.216c0,2.682-2.186,4.867-4.858,4.867h-21.479
							c-2.689,0-4.868-2.185-4.868-4.867V64.743c0-2.683,2.179-4.874,4.868-4.874H252.856z M252.856,59.869"/>
						<path fill="#F4E8D1" d="M252.856,112.112h-21.466c-5.061,0-9.179-4.11-9.179-9.153V64.743c0-5.049,4.103-9.168,9.143-9.168
							h21.502c5.058,0,9.176,4.12,9.176,9.168v38.216C262.032,108.001,257.914,112.112,252.856,112.112z M231.378,61.338
							c-1.878,0-3.402,1.521-3.402,3.405v38.216c0,1.877,1.524,3.397,3.402,3.397h21.479c1.871,0,3.393-1.52,3.393-3.397V64.743
							c0-1.884-1.521-3.405-3.393-3.405H231.378z"/>
					</g>
				</g>
				<g>
					<path fill="#F4E8D1" d="M257.122,101.473h-28.94c-1.413,0-2.562-1.155-2.562-2.566c0-1.42,1.148-2.567,2.562-2.567h28.94
						c1.416,0,2.568,1.147,2.568,2.567C259.69,100.318,258.538,101.473,257.122,101.473z"/>
				</g>
			</g>
			<g>
				<rect x="233.573" y="74.943" fill="#EBB024" width="16.91" height="15.834"/>
				<path fill="#EBB024" d="M250.483,83.003c0,0.989-0.797,1.788-1.781,1.788h-13.354c-0.977,0-1.775-0.798-1.775-1.788V69.452
					c0-0.989,0.799-1.786,1.775-1.786h13.354c0.984,0,1.781,0.797,1.781,1.786V83.003z"/>
			</g>
		</g>
	</g>
</g>
<g>
	<text transform="matrix(1 0 0 1 74.5806 157.9995)" fill="#F4E8D1" font-family="'Verdana'" font-size="24.3" letter-spacing="1">APP / WEB Design</text>
</g>
<g>
	<g>
		<defs>
			<rect id="SVGID_241_" x="-742.157" y="678" width="358.75" height="82"/>
		</defs>
		<clipPath id="SVGID_4_">
			<use xlink:href="#SVGID_241_"  overflow="visible"/>
		</clipPath>
		<g clip-path="url(#SVGID_4_)">
			<defs>
				<rect id="SVGID_243_" x="-768.592" y="656.006" width="433.536" height="149.028"/>
			</defs>
			<clipPath id="SVGID_6_">
				<use xlink:href="#SVGID_243_"  overflow="visible"/>
			</clipPath>
			<rect x="-1230.521" y="49.749" clip-path="url(#SVGID_6_)" fill="#C16926" width="1358.748" height="764.914"/>
		</g>
	</g>
</g>
</svg>
