<?xml version="1.0" encoding="utf-8"?>
<!-- Generator: Adobe Illustrator 16.0.0, SVG Export Plug-In . SVG Version: 6.00 Build 0)  -->
<!DOCTYPE svg PUBLIC "-//W3C//DTD SVG 1.1//EN" "http://www.w3.org/Graphics/SVG/1.1/DTD/svg11.dtd">
<svg version="1.1" id="圖層_1" xmlns="http://www.w3.org/2000/svg" xmlns:xlink="http://www.w3.org/1999/xlink" x="0px" y="0px"
	 width="960px" height="540px" viewBox="0 0 960 540" enable-background="new 0 0 960 540" xml:space="preserve">
<g>
	<g>
		<defs>
			<rect id="SVGID_151_" x="-1100.753" y="-312.91" width="1948.658" height="204"/>
		</defs>
		<clipPath id="SVGID_2_">
			<use xlink:href="#SVGID_151_"  overflow="visible"/>
		</clipPath>
		<g clip-path="url(#SVGID_2_)">
			<defs>
				<rect id="SVGID_153_" x="-1107.857" y="-391.422" width="1969.984" height="548.06"/>
			</defs>
			<clipPath id="SVGID_4_">
				<use xlink:href="#SVGID_153_"  overflow="visible"/>
			</clipPath>
		</g>
	</g>
	<g>
		<defs>
			<rect id="SVGID_155_" x="-1100.753" y="-312.91" width="1948.658" height="204"/>
		</defs>
		<clipPath id="SVGID_6_">
			<use xlink:href="#SVGID_155_"  overflow="visible"/>
		</clipPath>
		<rect x="-1107.857" y="-325.452" clip-path="url(#SVGID_6_)" fill="#4A2E2C" width="1969.984" height="380.961"/>
		<g opacity="0.3" clip-path="url(#SVGID_6_)">
			<defs>
				<rect id="SVGID_157_" x="-1107.857" y="-391.422" opacity="0.3" width="1969.984" height="548.06"/>
			</defs>
			<clipPath id="SVGID_8_">
				<use xlink:href="#SVGID_157_"  overflow="visible"/>
			</clipPath>
			<path opacity="0.7" clip-path="url(#SVGID_8_)" fill="#2A100E" d="M807.992,97.647c0.875-20.231,1.572-46.009,2.1-75.262
				c54.507-1.738,87.14-4.541,91.811-8.945c1.26-1.188-32.489-2.281-91.604-3.251c0.375-23.564,0.646-49.074,0.817-75.544
				c54.019-1.723,86.217-4.474,90.789-8.775c1.248-1.172-32.135-2.232-90.719-3.159c0.13-24.825,0.174-50.347,0.134-75.777
				c54.034-1.706,86.092-4.413,90.587-8.632c1.24-1.163-32.064-2.193-90.611-3.079c-0.006-2.359-0.013-4.717-0.021-7.071
				c-0.075-23.461,0.101-46.577,0.376-68.935c53.977-1.691,85.845-4.354,90.258-8.485c1.23-1.15-31.861-2.147-90.109-2.99
				c0.371-26.919,0.848-52.595,1.158-76.272c53.345-1.68,84.648-4.292,88.952-8.309c1.214-1.132-31.348-2.092-88.817-2.888
				c0.811-74.796-0.623-127.164-13.783-130.912c-3.381-0.963-6.35,54.749-8.257,130.628c-19.92-0.238-42.188-0.459-66.543-0.665
				c0.79-75.684-0.622-128.74-13.766-132.523c-3.378-0.973-6.315,55.541-8.174,132.347c-20.923-0.161-43.191-0.312-66.647-0.451
				c0.776-76.741-0.6-130.632-13.745-134.456c-3.379-0.983-6.286,56.462-8.095,134.331c-21.389-0.118-43.669-0.229-66.747-0.331
				c0.763-77.884-0.569-132.693-13.724-136.561c-3.381-0.995-6.259,57.464-8.018,136.469c-21.664-0.09-43.978-0.172-66.846-0.248
				c0.752-79.09-0.533-134.867-13.702-138.781c-3.385-1.007-6.233,58.519-7.94,138.712c-21.863-0.067-44.196-0.129-66.943-0.185
				c0.74-80.343-0.497-137.126-13.683-141.087c-3.389-1.019-6.208,59.618-7.862,141.037c-22.031-0.05-44.417-0.094-67.099-0.133
				c0.728-81.632-0.459-139.456-13.663-143.465c-3.394-1.031-6.181,60.75-7.781,143.429c-22.12-0.034-44.499-0.064-67.083-0.089
				c0.713-82.943-0.421-141.841-13.644-145.899c-3.398-1.044-6.154,61.916-7.7,145.877c-22.25-0.021-44.679-0.038-67.24-0.05
				c0.698-84.284-0.384-144.279-13.626-148.388c-3.403-1.057-6.128,63.109-7.617,148.377c-22.352-0.009-44.813-0.014-67.339-0.014
				c0.682-85.652-0.347-146.765-13.61-150.924c-3.408-1.069-6.099,64.33-7.531,150.925c-22.424,0.003-44.895,0.01-67.364,0.021
				c0.664-87.038-0.312-149.298-13.595-153.508c-3.413-1.082-6.071,65.576-7.444,153.52c-22.532,0.014-45.047,0.032-67.498,0.055
				c0.644-88.443-0.278-151.874-13.581-156.135c-3.417-1.096-6.04,66.848-7.354,156.153c-22.646,0.016-45.191,0.017-67.6,0.006
				c0.621-89.828-0.25-154.407-13.569-158.719c-3.421-1.109-6.007,68.08-7.261,158.705c-22.731-0.019-45.309-0.049-67.702-0.089
				c0.595-91.147-0.234-156.816-13.56-161.176c-3.422-1.121-5.969,69.255-7.163,161.138c-22.828-0.046-45.449-0.1-67.822-0.16
				c0.565-92.407-0.226-159.13-13.552-163.539c-3.423-1.133-5.93,70.387-7.062,163.482c-22.953-0.064-45.631-0.134-67.99-0.205
				c0.533-93.636-0.225-161.384-13.547-165.838c-3.42-1.145-5.886,71.493-6.958,165.773c-23.075-0.074-45.79-0.149-68.098-0.22
				c0.499-94.853-0.229-163.614-13.543-168.114c-3.418-1.156-5.842,72.596-6.852,168.05c-23.224-0.072-45.975-0.14-68.207-0.197
				c0.464-96.083-0.233-165.867-13.541-170.413c-3.417-1.168-5.796,73.717-6.744,170.363c-23.412-0.055-46.208-0.098-68.316-0.122
				c0.427-97.354-0.236-168.208-13.539-172.802c-3.415-1.181-5.751,74.899-6.635,172.784c-23.685-0.014-46.518-0.005-68.427,0.034
				c0.392-98.718-0.234-170.735-13.538-175.378c-3.417-1.195-5.708,76.194-6.525,175.424c-24.129,0.066-47.029,0.174-68.569,0.334
				c0.356-100.27-0.217-173.619-13.538-178.317c-3.421-1.209-5.669,77.716-6.417,178.485c-24.992,0.234-47.939,0.549-68.611,0.962
				c0.323-102.204-0.17-177.241-13.538-182.008c-3.436-1.228-5.641,79.716-6.311,182.453c-61.81,1.553-99.115,4.195-104.204,8.539
				c-1.353,1.155,37.293,2.232,104.135,3.19c-0.129,24.425-0.174,49.918-0.13,75.708c-61.827,1.606-98.996,4.315-104.006,8.749
				c-1.345,1.193,37.246,2.283,104.032,3.235c0.07,25.215,0.225,50.596,0.468,75.425c-62.272,1.658-99.555,4.439-104.502,8.983
				c-1.343,1.238,37.443,2.342,104.63,3.291c0.025,2.239,0.05,4.474,0.076,6.701c0.279,23.632,0.429,46.511,0.531,68.417
				c-62.883,1.71-100.351,4.568-105.239,9.233c-1.34,1.284,37.683,2.403,105.293,3.347c0.105,26.65,0.157,51.731,0.302,74.815
				c-63.27,1.767-100.781,4.7-105.596,9.481c-1.336,1.329,37.793,2.462,105.69,3.398c0.237,28.53,0.674,53.653,1.615,74.471
				c-64.498,1.82-102.531,4.84-107.306,9.777c-1.344,1.389,38.656,2.543,108.013,3.476c1.97,31.431,5.534,50.343,12.123,52.509
				c1.831,0.602,3.12-19.248,3.95-52.303c21.716,0.265,45.902,0.511,72.257,0.738c1.985,30.404,5.554,48.66,12.077,50.782
				c1.816,0.591,3.111-18.592,3.964-50.648c22.708,0.184,46.882,0.354,72.345,0.511c1.998,29.539,5.569,47.269,12.042,49.352
				c1.804,0.581,3.106-18.048,3.98-49.256c23.153,0.136,47.305,0.261,72.319,0.376c2.009,28.785,5.584,46.048,12.019,48.097
				c1.795,0.571,3.106-17.563,3.999-48.025c23.422,0.103,47.56,0.196,72.315,0.282c2.019,28.106,5.599,44.942,12.004,46.959
				c1.788,0.563,3.106-17.129,4.019-46.906c23.598,0.077,47.73,0.147,72.306,0.209c2.027,27.482,5.614,43.926,11.993,45.914
				c1.782,0.555,3.109-16.728,4.041-45.874c23.728,0.057,47.853,0.106,72.296,0.149c2.035,26.892,5.626,42.981,11.981,44.94
				c1.777,0.548,3.113-16.354,4.063-44.913c23.83,0.039,47.944,0.072,72.28,0.099c2.043,26.344,5.639,42.099,11.976,44.031
				c1.772,0.541,3.117-16.009,4.084-44.015c23.89,0.023,47.977,0.041,72.198,0.052c2.051,25.832,5.652,41.272,11.973,43.179
				c1.769,0.534,3.123-15.684,4.107-43.173c23.957,0.009,48.029,0.013,72.16,0.01c2.058,25.354,5.666,40.496,11.975,42.379
				c1.766,0.528,3.129-15.377,4.131-42.381c24.02-0.005,48.083-0.016,72.131-0.031c2.064,24.907,5.68,39.769,11.979,41.629
				c1.765,0.521,3.136-15.095,4.155-41.641c19.836-0.015,39.653-0.034,59.417-0.056c4.232-0.005,8.46-0.009,12.685-0.013
				c2.071,24.486,5.694,39.087,11.985,40.926c1.763,0.516,3.144-14.827,4.18-40.938c24.152-0.013,48.182-0.007,72.049,0.013
				c2.079,24.01,5.706,38.328,11.981,40.142c1.759,0.509,3.147-14.514,4.198-40.126c24.235,0.027,48.29,0.067,72.122,0.119
				c2.088,23.454,5.718,37.437,11.964,39.224c1.751,0.501,3.145-14.153,4.21-39.188c24.306,0.058,48.366,0.125,72.136,0.198
				c2.1,22.842,5.731,36.45,11.938,38.206c1.741,0.493,3.137-13.759,4.216-38.156c24.375,0.078,48.425,0.161,72.106,0.245
				c2.113,22.199,5.745,35.402,11.905,37.126c1.729,0.484,3.127-13.338,4.218-37.069c24.526,0.088,48.63,0.175,72.261,0.257
				c2.127,21.533,5.755,34.337,11.863,36.029c1.716,0.476,3.114-12.922,4.216-35.974c24.649,0.083,48.753,0.16,72.248,0.223
				c2.14,20.89,5.765,33.308,11.821,34.968c1.704,0.467,3.102-12.521,4.215-34.927c24.84,0.06,48.96,0.104,72.281,0.123
				c2.151,20.321,5.775,32.39,11.789,34.021c1.694,0.46,3.094-12.174,4.217-34.011c25.119,0.009,49.246-0.013,72.287-0.076
				c2.16,19.892,5.788,31.695,11.78,33.303c1.69,0.454,3.096-11.926,4.232-33.354c25.574-0.093,49.707-0.241,72.235-0.458
				c2.163,19.729,5.803,31.433,11.817,33.029c1.7,0.452,3.12-11.872,4.272-33.199c26.574-0.308,50.684-0.724,72.061-1.274
				c2.153,20.125,5.822,32.081,11.952,33.69c1.739,0.457,3.193-12.242,4.373-34.153c56.007-1.752,89.694-4.617,94.511-9.17
				C903.183,99.801,868.532,98.666,807.992,97.647z M788.234,9.85c-19.914-0.288-42.116-0.564-66.307-0.827
				c0.342-22.714,0.589-47.203,0.745-72.596c24.184-0.292,46.271-0.67,66.038-1.154C788.541-37.991,788.305-12.952,788.234,9.85z
				 M633.55,8.188c0.318-22.283,0.546-46.245,0.687-71.081c23.33-0.1,45.42-0.243,66.151-0.44
				c-0.151,25.797-0.361,49.995-0.423,72.126C679.077,8.582,656.889,8.38,633.55,8.188z M545.17,7.54
				c0.298-22.048,0.509-45.718,0.636-70.244c22.971-0.01,45.085-0.043,66.268-0.108c-0.136,25.293-0.325,49.048-0.379,70.826
				C590.35,7.848,568.143,7.689,545.17,7.54z M456.787,7.02c0.281-21.925,0.477-45.434,0.59-69.786
				c22.783,0.036,44.929,0.059,66.385,0.064c-0.122,25.008-0.294,48.516-0.338,70.104C501.801,7.268,479.559,7.14,456.787,7.02z
				 M368.401,6.601c0.266-21.867,0.447-45.293,0.547-69.553c22.672,0.056,44.855,0.107,66.502,0.148
				c-0.107,24.849-0.265,48.223-0.3,69.713C413.329,6.8,391.056,6.697,368.401,6.601z M279.958,6.265
				c0.25-21.846,0.417-45.234,0.505-69.449c22.624,0.061,44.865,0.121,66.678,0.177c-0.094,24.766-0.238,48.072-0.264,69.52
				C324.877,6.423,302.554,6.341,279.958,6.265z M191.626,6.004c0.236-21.844,0.39-45.217,0.465-69.412
				c22.545,0.052,44.784,0.108,66.683,0.166c-0.081,24.724-0.211,48.002-0.228,69.437C236.453,6.125,214.126,6.062,191.626,6.004z
				 M103.237,5.812c0.223-21.846,0.363-45.211,0.426-69.393c22.541,0.035,44.836,0.077,66.858,0.125
				c-0.069,24.704-0.185,47.971-0.192,69.408C148.098,5.899,125.715,5.853,103.237,5.812z M-958.385-190.557
				c-0.196-17.13-0.292-34.091-0.327-50.76c21.578,0.196,44.458,0.383,68.494,0.562c0.042,23.902,0.164,47.959,0.367,71.549
				c-24.052,0.086-46.859,0.214-68.301,0.394C-958.226-176.071-958.303-183.325-958.385-190.557z M-801.798-240.17
				c0.03,23.65,0.137,47.458,0.326,70.814c-23.607,0.004-46.353,0.03-68.154,0.087c-0.066-6.795-0.136-13.584-0.211-20.355
				c-0.19-17.209-0.278-34.247-0.305-50.987C-848.197-240.456-825.38-240.31-801.798-240.17z M-713.376-239.701
				c0.016,23.511,0.111,47.186,0.288,70.418c-23.337-0.038-46.039-0.063-68.038-0.071c-0.061-6.454-0.125-12.902-0.194-19.334
				c-0.185-17.341-0.265-34.506-0.282-51.366C-759.452-239.93-736.68-239.812-713.376-239.701z M-624.954-239.323
				c0.003,23.439,0.084,47.049,0.25,70.223c-23.15-0.055-45.803-0.105-67.921-0.146c-0.056-6.178-0.115-12.349-0.179-18.505
				c-0.181-17.509-0.252-34.84-0.259-51.855C-670.786-239.506-648.059-239.412-624.954-239.323z M700.516-133.646
				c0.07,18.922,0.033,37.307-0.048,55.021c-20.803-0.198-42.903-0.386-66.152-0.565c0.095-23.414,0.116-47.432,0.064-71.406
				c23.323-0.105,45.392-0.253,66.094-0.453C700.481-145.212,700.495-139.406,700.516-133.646z M-161.497-81.441
				c-0.008-22.815-0.081-46.19-0.213-69.579c22.457-0.006,44.848-0.017,67.12-0.035c0.022,3.645,0.047,7.275,0.074,10.888
				c0.152,20.198,0.197,39.817,0.196,58.699C-116.785-81.466-139.195-81.457-161.497-81.441z M-249.889-81.369
				c-0.019-22.838-0.101-46.24-0.242-69.661c22.426,0.01,44.857,0.014,67.239,0.012c0.023,3.389,0.047,6.765,0.074,10.126
				c0.163,20.468,0.216,40.344,0.224,59.466c-8.638,0.007-17.258,0.016-25.855,0.025C-222.331-81.385-236.143-81.375-249.889-81.369
				z M-338.281-81.384c-0.029-22.854-0.12-46.271-0.271-69.715c22.397,0.025,44.867,0.044,67.359,0.058
				c0.022,3.153,0.046,6.296,0.073,9.425c0.173,20.746,0.236,40.885,0.252,60.254C-293.552-81.359-316.033-81.367-338.281-81.384z
				 M-801.252-145.963c0.235,22.021,0.355,43.375,0.427,63.886c-23.636,0.013-46.395,0.048-68.201,0.113
				c-0.09-23.26-0.242-47.104-0.449-70.993c21.885,0.147,44.639,0.287,68.155,0.418
				C-801.298-150.342-801.275-148.148-801.252-145.963z M-780.976-152.428c22.085,0.117,44.797,0.228,68.035,0.331
				c0.022,2.292,0.044,4.58,0.068,6.859c0.224,21.781,0.334,42.905,0.397,63.202c-23.366-0.029-46.081-0.046-68.083-0.046
				C-780.639-105.135-780.78-128.76-780.976-152.428z M-692.478-152.008c22.211,0.093,44.873,0.181,67.915,0.262
				c0.021,2.417,0.044,4.828,0.068,7.232c0.214,21.579,0.314,42.511,0.368,62.628c-23.177-0.047-45.846-0.09-67.965-0.123
				C-692.162-104.95-692.292-128.459-692.478-152.008z M-603.98-151.676c22.292,0.074,44.909,0.142,67.794,0.204
				c0.022,2.568,0.045,5.13,0.069,7.683c0.204,21.392,0.295,42.144,0.338,62.091c-23.028-0.049-45.657-0.098-67.845-0.145
				C-603.683-104.732-603.804-128.186-603.98-151.676z M-515.483-151.419c22.347,0.057,44.925,0.107,67.674,0.152
				c0.022,2.743,0.045,5.477,0.071,8.202c0.194,21.199,0.275,41.768,0.31,61.541c-22.908-0.04-45.494-0.085-67.727-0.131
				C-515.205-104.522-515.315-127.954-515.483-151.419z M-426.987-151.228c22.369,0.04,44.885,0.075,67.493,0.104
				c0.022,2.938,0.046,5.866,0.072,8.783c0.184,20.987,0.255,41.354,0.281,60.939c-22.782-0.022-45.308-0.052-67.546-0.088
				C-426.727-104.35-426.828-127.773-426.987-151.228z M-73.287-151.074c4.186-0.004,8.367-0.008,12.542-0.013
				c18.26-0.02,36.404-0.031,54.425-0.035c0.022,3.91,0.046,7.805,0.074,11.679c0.142,19.951,0.178,39.333,0.169,57.995
				c-22.346-0.014-44.705-0.021-67.027-0.021C-73.101-104.295-73.164-127.68-73.287-151.074z M15.102-151.123
				c22.525,0.001,44.845,0.014,66.925,0.034c0.021,4.144,0.045,8.269,0.073,12.371c0.133,19.727,0.16,38.893,0.142,57.354
				c-22.263-0.028-44.607-0.052-66.983-0.068C15.271-104.289,15.217-127.705,15.102-151.123z M103.569-151.066
				c22.539,0.026,44.816,0.059,66.807,0.097c0.02,4.346,0.043,8.674,0.069,12.976c0.124,19.524,0.142,38.496,0.115,56.774
				c-22.15-0.044-44.457-0.083-66.865-0.116C103.718-104.206,103.675-127.639,103.569-151.066z M192.036-150.93
				c22.542,0.042,44.763,0.088,66.63,0.136c0.019,4.531,0.041,9.042,0.067,13.524c0.114,19.346,0.123,38.145,0.088,56.261
				c-22.013-0.061-44.261-0.116-66.689-0.165C192.167-104.054,192.133-127.497,192.036-150.93z M280.447-150.746
				c22.619,0.05,44.844,0.1,66.626,0.146c0.017,4.71,0.037,9.398,0.063,14.056c0.104,19.19,0.105,37.84,0.062,55.814
				c-21.917-0.079-44.165-0.151-66.685-0.218C280.558-103.842,280.535-127.302,280.447-150.746z M368.973-150.555
				c22.668,0.046,44.83,0.087,66.45,0.118c0.015,4.899,0.034,9.774,0.058,14.617c0.096,19.063,0.087,37.589,0.035,55.447
				c-21.741-0.099-43.933-0.19-66.509-0.277C369.064-103.579,369.052-127.077,368.973-150.555z M457.442-150.407
				c22.777,0.026,44.903,0.04,66.331,0.037c0.013,5.121,0.03,10.215,0.053,15.275c0.087,18.969,0.069,37.404,0.007,55.172
				c-21.539-0.122-43.698-0.238-66.39-0.347C457.512-103.275,457.511-126.854,457.442-150.407z M545.911-150.381
				c22.964-0.018,45.059-0.059,66.213-0.129c0.01,5.412,0.025,10.796,0.047,16.14c0.078,18.916,0.051,37.298-0.02,55.014
				c-21.259-0.153-43.386-0.299-66.271-0.438C545.962-102.943,545.971-126.679,545.911-150.381z M634.335-166.57
				c-0.008-2.385-0.018-4.769-0.027-7.149c-0.09-21.933,0.033-43.57,0.249-64.577c23.422-0.113,45.561-0.267,66.315-0.471
				c-0.24,24.117-0.377,48.62-0.399,72.723C679.675-166.229,657.585-166.404,634.335-166.57z M612.112-166.723
				c-21.251-0.142-43.37-0.275-66.255-0.401c-0.01-2.513-0.021-5.024-0.032-7.532c-0.098-21.52,0.006-42.753,0.202-63.394
				c23.057-0.027,45.222-0.076,66.429-0.154C612.239-214.482,612.121-190.41,612.112-166.723z M523.751-167.241
				c-21.533-0.111-43.679-0.216-66.372-0.313c-0.012-2.681-0.024-5.36-0.038-8.036c-0.106-21.189-0.018-42.101,0.159-62.449
				c22.867,0.017,45.064,0.021,66.546,0.009C523.849-214.526,523.748-190.694,523.751-167.241z M435.391-167.646
				c-21.729-0.088-43.915-0.17-66.488-0.246c-0.014-2.881-0.028-5.759-0.043-8.634c-0.114-20.899-0.042-41.53,0.118-61.621
				c22.757,0.036,44.988,0.066,66.662,0.088C435.46-214.668,435.375-190.968,435.391-167.646z M347.032-167.963
				c-21.904-0.069-44.145-0.132-66.662-0.189c-0.016-3.106-0.033-6.21-0.051-9.31c-0.121-20.625-0.064-40.99,0.079-60.836
				c22.708,0.04,45.001,0.08,66.837,0.116C347.073-214.846,347.002-191.215,347.032-167.963z M258.616-168.205
				c-21.998-0.052-44.238-0.098-66.664-0.139c-0.019-3.354-0.038-6.706-0.059-10.053c-0.128-20.349-0.086-40.447,0.041-60.046
				c22.631,0.033,44.921,0.07,66.842,0.107C258.63-215.02,258.573-191.421,258.616-168.205z M170.315-168.381
				c-22.135-0.037-44.431-0.067-66.837-0.093c-0.021-3.624-0.044-7.244-0.068-10.858c-0.134-20.057-0.107-39.874,0.004-59.212
				c22.627,0.018,44.976,0.042,67.018,0.071C170.301-215.16,170.259-191.577,170.315-168.381z M81.958-168.497
				c-22.244-0.021-44.577-0.038-66.952-0.049c-0.024-3.912-0.05-7.82-0.078-11.722c-0.141-19.742-0.126-39.25-0.03-58.304
				c22.616-0.005,45.001,0,67.135,0.013C81.917-215.246,81.89-191.675,81.958-168.497z M-6.398-168.555
				c-22.325-0.008-44.671-0.01-66.993-0.006c-0.027-4.22-0.057-8.436-0.089-12.644c-0.146-19.396-0.144-38.564-0.064-57.304
				c9.146-0.008,18.269-0.016,27.36-0.025c13.345-0.014,26.616-0.024,39.816-0.03C-6.466-215.258-6.479-191.708-6.398-168.555z
				 M-94.678-168.556c-22.442,0.007-44.838,0.02-67.141,0.038c-0.032-4.547-0.065-9.089-0.101-13.622
				c-0.151-19.059-0.162-37.898-0.097-56.332c22.537-0.001,44.999-0.008,67.327-0.021C-94.773-215.2-94.772-191.677-94.678-168.556z
				 M-182.99-168.499c-3.635,0.003-7.269,0.007-10.897,0.011c-18.895,0.021-37.685,0.031-56.359,0.033
				c-0.036-4.88-0.074-9.756-0.114-14.621c-0.156-18.744-0.179-37.279-0.127-55.426c22.504,0.015,45.003,0.025,67.444,0.028
				C-183.112-215.158-183.096-191.623-182.99-168.499z M-271.3-168.454c-22.653-0.004-45.122-0.02-67.374-0.043
				c-0.039-5.179-0.082-10.351-0.126-15.513c-0.162-18.451-0.195-36.703-0.157-54.582c22.472,0.031,45.01,0.056,67.562,0.075
				C-271.448-215.162-271.418-191.6-271.3-168.454z M-359.609-168.522c-22.753-0.03-45.264-0.068-67.505-0.111
				c-0.044-5.444-0.09-10.884-0.14-16.312c-0.166-18.18-0.21-36.169-0.185-53.8c22.441,0.047,45.024,0.088,67.694,0.124
				C-359.784-215.246-359.74-191.673-359.609-168.522z M-447.933-168.676c-22.878-0.048-45.452-0.101-67.685-0.154
				c-0.048-5.692-0.099-11.378-0.152-17.051c-0.171-17.932-0.225-35.679-0.21-53.082c22.417,0.063,45.062,0.121,67.873,0.172
				C-448.132-215.401-448.076-191.825-447.933-168.676z M-536.319-168.881c-22.998-0.057-45.616-0.115-67.803-0.169
				c-0.052-5.931-0.106-11.855-0.165-17.766c-0.176-17.708-0.238-35.233-0.235-52.431c22.36,0.081,45.043,0.156,67.99,0.225
				C-536.542-215.617-536.473-192.034-536.319-168.881z M-889.699-153.098c0.022,2.142,0.045,4.279,0.068,6.41
				c0.247,22.343,0.377,44,0.458,64.793c-24.081,0.096-46.901,0.233-68.35,0.422c-0.101-23.635-0.264-47.877-0.485-72.168
				C-936.486-153.449-913.664-153.269-889.699-153.098z M-889.116-65.444c0.075,25.162,0.104,48.906,0.217,70.855
				c-24.173,0.106-47.062,0.254-68.56,0.454c0.077-22.644,0.073-46.818-0.006-71.833C-935.932-65.783-913.097-65.608-889.116-65.444
				z M-868.971-65.311c21.896,0.142,44.663,0.274,68.198,0.398c0.063,24.887,0.08,48.379,0.182,70.105
				c-23.725,0.021-46.551,0.066-68.408,0.14C-868.914-16.954-868.906-40.722-868.971-65.311z M-780.51-64.808
				c22.096,0.11,44.82,0.214,68.078,0.31c0.051,24.742,0.057,48.098,0.148,69.699c-23.454-0.021-46.237-0.029-68.29-0.021
				C-780.477-16.906-780.458-40.452-780.51-64.808z M-692.05-64.417c22.221,0.086,44.898,0.167,67.96,0.241
				c0.039,24.674,0.034,47.961,0.115,69.494c-23.264-0.038-46.003-0.072-68.174-0.098C-692.04-16.753-692.009-40.182-692.05-64.417z
				 M-603.59-64.112c22.302,0.067,44.935,0.128,67.84,0.183c0.027,24.648,0.01,47.905,0.083,69.404
				c-23.119-0.041-45.814-0.083-68.057-0.122C-603.603-16.563-603.561-39.934-603.59-64.112z M-515.129-63.882
				c22.356,0.05,44.95,0.094,67.722,0.132c0.015,24.643-0.014,47.889,0.05,69.368c-22.999-0.032-45.655-0.069-67.941-0.107
				C-515.167-16.376-515.112-39.725-515.129-63.882z M-426.67-63.717c22.377,0.034,44.909,0.063,67.541,0.085
				c0.003,24.641-0.037,47.879,0.016,69.344c-22.874-0.015-45.471-0.038-67.763-0.066C-426.73-16.225-426.664-39.566-426.67-63.717z
				 M-338.272-63.612c22.406,0.02,44.891,0.033,67.408,0.041c-0.008,24.629-0.061,47.853-0.018,69.296
				c-22.78,0.01-45.33,0.008-67.633-0.001C-338.355-16.133-338.277-39.467-338.272-63.612z M-249.888-63.565
				c22.434,0.004,44.88,0.004,67.29-0.002c-0.02,24.605-0.085,47.805-0.052,69.219c-13.507,0.01-26.966,0.022-40.358,0.037
				c-9.086,0.01-18.137,0.018-27.157,0.024C-249.995-16.121-249.905-39.438-249.888-63.565z M-161.503-63.575
				c22.462-0.01,44.869-0.025,67.172-0.046c-0.032,24.62-0.11,47.83-0.087,69.246c-22.55-0.002-45.036,0.002-67.398,0.014
				C-161.634-16.172-161.531-39.468-161.503-63.575z M-73.118-63.643c22.495-0.024,44.844-0.034,67.021-0.032
				C-6.141-39.012-6.232-15.769-6.219,5.667c-22.429-0.02-44.862-0.032-67.249-0.039C-73.272-16.194-73.157-39.512-73.118-63.643z
				 M15.235-63.669c22.526,0.009,44.862,0.029,66.977,0.058c-0.056,24.688-0.16,47.947-0.157,69.388
				C59.711,5.74,37.291,5.71,14.847,5.687C15.057-16.155,15.184-39.505,15.235-63.669z M788.862-132.922
				c0.062,19.025,0.014,37.506-0.078,55.302c-19.832-0.275-41.928-0.537-66.032-0.785c0.111-23.893,0.144-48.42,0.099-72.888
				c24.18-0.294,46.238-0.671,65.978-1.151C788.83-145.891,788.841-139.377,788.862-132.922z M788.834-165.094
				c-19.822-0.262-41.919-0.509-66.02-0.743c-0.007-2.318-0.015-4.634-0.023-6.948c-0.083-22.512,0.063-44.707,0.305-66.227
				c24.29-0.298,46.425-0.677,66.204-1.156C789.029-215.297,788.869-189.981,788.834-165.094z M790.761-327.916
				c-0.547,23.765-0.993,49.23-1.317,75.356c-19.85-0.249-42-0.482-66.174-0.701c0.338-25.849,0.775-50.564,1.074-73.479
				C748.765-327.046,770.961-327.432,790.761-327.916z M702.239-326.491c-0.503,23.118-0.912,47.773-1.208,73.037
				c-20.834-0.172-42.982-0.335-66.295-0.488c0.313-25.297,0.722-49.519,1.009-72.055
				C659.256-326.119,681.457-326.28,702.239-326.491z M613.741-325.895c-0.471,22.786-0.851,47.011-1.125,71.813
				c-21.294-0.13-43.468-0.251-66.415-0.365c0.292-24.981,0.678-48.934,0.955-71.267
				C570.288-325.75,592.505-325.808,613.741-325.895z M525.255-325.684c-0.445,22.61-0.801,46.596-1.054,71.132
				c-21.578-0.1-43.78-0.193-66.535-0.28c0.272-24.803,0.638-48.597,0.904-70.831C481.504-325.657,503.745-325.662,525.255-325.684z
				 M436.775-325.671c-0.421,22.523-0.755,46.376-0.99,70.759c-21.777-0.078-44.016-0.149-66.653-0.215
				c0.252-24.698,0.6-48.41,0.856-70.602C392.806-325.703,415.078-325.683,436.775-325.671z M348.301-325.754
				c-0.4,22.491-0.714,46.273-0.931,70.566c-21.951-0.059-44.25-0.113-66.83-0.161c0.234-24.634,0.564-48.31,0.81-70.491
				C304.116-325.81,326.444-325.78,348.301-325.754z M259.772-325.868c-0.38,22.488-0.674,46.235-0.873,70.475
				c-22.047-0.043-44.343-0.081-66.834-0.114c0.216-24.592,0.529-48.252,0.764-70.44
				C215.513-325.923,237.835-325.896,259.772-325.868z M171.36-325.969c-0.36,22.5-0.635,46.229-0.816,70.433
				c-22.184-0.029-44.537-0.053-67.01-0.071c0.197-24.563,0.493-48.204,0.719-70.409
				C126.929-326.006,149.307-325.989,171.36-325.969z M82.893-326.023c-0.34,22.514-0.597,46.228-0.761,70.4
				c-22.293-0.015-44.685-0.026-67.128-0.031c0.18-24.527,0.458-48.148,0.673-70.364C38.34-326.028,60.75-326.029,82.893-326.023z
				 M-31.624-325.983c8.718-0.009,17.4-0.017,26.05-0.022c-0.321,22.522-0.559,46.215-0.706,70.348
				c-22.374-0.002-44.78,0.001-67.172,0.009c0.162-24.483,0.425-48.079,0.629-70.3C-59.022-325.958-45.285-325.969-31.624-325.983z
				 M-93.962-325.938c-0.302,22.532-0.521,46.203-0.651,70.297c-22.49,0.011-44.946,0.027-67.323,0.048
				c0.144-24.474,0.39-48.084,0.584-70.336C-138.783-325.926-116.301-325.929-93.962-325.938z M-182.38-325.936
				c-0.283,22.575-0.485,46.267-0.598,70.363c-22.611,0.022-45.102,0.03-67.441,0.026c0.127-24.491,0.357-48.128,0.54-70.432
				C-227.348-325.958-204.831-325.943-182.38-325.936z M-270.794-326c-0.265,22.624-0.45,46.339-0.547,70.446
				c-22.699-0.011-45.229-0.034-67.558-0.065c0.109-24.488,0.323-48.137,0.496-70.474C-315.909-326.056-293.354-326.025-270.794-326
				z M-359.206-326.129c-0.248,22.654-0.415,46.378-0.496,70.478c-22.799-0.037-45.375-0.083-67.691-0.135
				c0.093-24.475,0.292-48.125,0.453-70.484C-404.48-326.217-381.882-326.17-359.206-326.129z M-447.628-326.321
				c-0.23,22.676-0.381,46.398-0.447,70.485c-22.927-0.056-45.564-0.116-67.871-0.179c0.077-24.462,0.26-48.118,0.409-70.498
				C-493.102-326.442-470.446-326.379-447.628-326.321z M-536.111-326.578c-0.213,22.7-0.348,46.427-0.399,70.505
				c-23.049-0.065-45.73-0.132-67.989-0.194c0.061-24.471,0.229-48.14,0.367-70.556
				C-581.758-326.735-559.062-326.653-536.111-326.578z M-624.59-326.905c-0.197,22.741-0.316,46.491-0.353,70.581
				c-23.202-0.064-45.918-0.122-68.107-0.171c0.045-24.513,0.198-48.231,0.325-70.712C-670.436-327.102-647.7-327-624.59-326.905z
				 M-713.068-327.309c-0.181,22.817-0.285,46.628-0.306,70.77c-23.392-0.046-46.158-0.08-68.226-0.096
				c0.03-24.618,0.168-48.449,0.283-71.046C-759.156-327.551-736.376-327.426-713.068-327.309z M-801.543-327.803
				c-0.167,22.955-0.255,46.896-0.262,71.159c-23.665-0.005-46.475,0.014-68.344,0.062c0.013-24.83,0.137-48.875,0.242-71.679
				C-847.953-328.102-825.128-327.949-801.543-327.803z M-890.017-328.412c-0.153,23.196-0.227,47.385-0.219,71.884
				c-24.114,0.077-46.988,0.196-68.494,0.366c-0.004-25.226,0.108-49.66,0.202-72.828
				C-936.943-328.789-914.052-328.596-890.017-328.412z M-1047.081-329.956c20.714,0.269,43.657,0.527,68.559,0.774
				c-0.14,23.623-0.2,48.258-0.175,73.197c-24.987,0.248-47.901,0.577-68.546,1.005
				C-1047.267-280.958-1047.165-306.12-1047.081-329.956z M-1046.868-191.493c-0.202-17.134-0.306-34.099-0.35-50.774
				c20.708,0.266,43.638,0.521,68.546,0.763c0.056,24.354,0.192,48.866,0.412,72.881c-24.905,0.259-47.761,0.598-68.344,1.036
				C-1046.687-175.568-1046.775-183.543-1046.868-191.493z M-1046.477-154.569c20.66,0.262,43.542,0.51,68.363,0.746
				c0.023,2.142,0.046,4.281,0.071,6.413c0.261,22.819,0.401,44.928,0.492,66.136c-24.935,0.271-47.801,0.621-68.399,1.071
				C-1046.062-104.539-1046.24-129.529-1046.477-154.569z M-1045.895-66.877c20.68,0.259,43.566,0.502,68.402,0.731
				c0.089,25.669,0.13,49.871,0.255,72.214c-25.036,0.284-47.972,0.649-68.618,1.115
				C-1045.785-16.119-1045.801-41.055-1045.895-66.877z M-1046.705,94.586c0.409-20.992,0.67-46.043,0.798-73.776
				c20.777,0.256,43.793,0.496,68.775,0.72c0.222,27.415,0.638,51.64,1.526,71.86C-1001.639,93.695-1025.411,94.086-1046.705,94.586
				z M-958.344,93.205c0.406-20.448,0.673-44.705,0.815-71.505c21.645,0.18,44.609,0.349,68.736,0.507
				c0.211,26.857,0.615,50.613,1.484,70.497C-912.416,92.822-936.136,92.985-958.344,93.205z M-869.932,92.628
				c0.414-20.135,0.692-43.973,0.849-70.297c22.014,0.135,44.914,0.261,68.596,0.379c0.201,26.57,0.599,50.066,1.463,69.745
				C-823.666,92.485-847.328,92.541-869.932,92.628z M-781.56,92.437c0.426-19.942,0.719-43.552,0.89-69.631
				c22.222,0.104,45.078,0.2,68.486,0.29c0.192,26.431,0.586,49.791,1.453,69.336C-735.101,92.419-758.729,92.418-781.56,92.437z
				 M-693.194,92.443c0.441-19.82,0.749-43.311,0.937-69.274c22.348,0.08,45.166,0.153,68.377,0.22
				c0.183,26.377,0.574,49.671,1.449,69.13C-646.618,92.487-670.219,92.46-693.194,92.443z M-604.831,92.543
				c0.458-19.738,0.783-43.175,0.986-69.098c22.433,0.061,45.208,0.114,68.266,0.163c0.174,26.372,0.562,49.64,1.447,69.037
				C-558.182,92.61-581.759,92.575-604.831,92.543z M-516.468,92.669c0.476-19.68,0.817-43.098,1.037-69.021
				c22.491,0.043,45.228,0.081,68.154,0.113c0.165,26.388,0.549,49.65,1.446,68.997C-469.774,92.732-493.331,92.702-516.468,92.669z
				 M-428.107,92.776c0.493-19.635,0.853-43.046,1.088-68.988c22.514,0.028,45.19,0.051,67.979,0.067
				c0.155,26.406,0.535,49.667,1.443,68.968C-381.43,92.815-404.941,92.798-428.107,92.776z M-339.808,92.827
				c0.512-19.591,0.889-42.997,1.141-68.958c22.542,0.014,45.176,0.022,67.852,0.025c0.145,26.412,0.52,49.662,1.437,68.915
				C-293.129,92.826-316.614,92.831-339.808,92.827z M-237.571,92.78c-4.661,0.005-9.31,0.01-13.951,0.015
				c0.529-19.544,0.922-42.936,1.191-68.899c22.571,0,45.167-0.005,67.738-0.016c0.134,26.418,0.505,49.647,1.431,68.854
				C-200.083,92.744-218.898,92.759-237.571,92.78z M-163.235,92.726c0.547-19.501,0.957-42.885,1.242-68.857
				c22.6-0.014,45.157-0.033,67.624-0.057c0.122,26.477,0.49,49.728,1.428,68.914C-116.474,92.718-139.927,92.718-163.235,92.726z
				 M-74.95,92.733c0.565-19.486,0.994-42.907,1.295-68.942c22.629-0.018,45.133-0.021,67.476-0.012
				c0.112,26.555,0.477,49.843,1.43,69.013C-28.17,92.765-51.591,92.745-74.95,92.733z M13.298,92.814
				c0.586-19.466,1.034-42.921,1.353-69.022c22.666,0.017,45.155,0.046,67.438,0.083c0.102,26.613,0.465,49.919,1.435,69.054
				C60.172,92.884,36.743,92.845,13.298,92.814z M101.619,92.966c0.606-19.428,1.074-42.9,1.41-69.052
				c22.683,0.044,45.139,0.097,67.326,0.154c0.092,26.662,0.454,49.981,1.442,69.069C148.544,93.073,125.129,93.016,101.619,92.966z
				 M189.937,93.188c0.627-19.38,1.114-42.866,1.469-69.064c22.693,0.063,45.093,0.13,67.159,0.198
				c0.083,26.718,0.444,50.056,1.454,69.094C236.887,93.333,213.504,93.257,189.937,93.188z M278.193,93.482
				c0.649-19.333,1.158-42.837,1.532-69.095c22.779,0.071,45.181,0.142,67.163,0.208c0.074,26.805,0.437,50.179,1.473,69.174
				C325.307,93.667,301.893,93.571,278.193,93.482z M366.559,93.854c0.673-19.296,1.204-42.843,1.599-69.194
				c22.83,0.067,45.181,0.128,66.997,0.178c0.064,26.954,0.432,50.396,1.499,69.372C413.758,94.084,390.364,93.965,366.559,93.854z
				 M454.863,94.312c0.7-19.283,1.254-42.926,1.67-69.427c22.946,0.046,45.261,0.078,66.887,0.09
				c0.055,27.191,0.426,50.779,1.533,69.772C502.239,94.594,478.843,94.449,454.863,94.312z M543.161,94.872
				c0.729-19.317,1.311-43.134,1.749-69.891c23.138-0.001,45.426-0.027,66.775-0.087c0.042,27.579,0.417,51.438,1.574,70.513
				C590.814,95.221,567.406,95.042,543.161,94.872z M631.451,95.563c0.765-19.429,1.376-43.563,1.839-70.741
				c23.506-0.094,45.762-0.234,66.658-0.43c0.027,28.243,0.408,52.572,1.634,71.849C679.598,96.004,656.16,95.778,631.451,95.563z
				 M719.73,96.44c0.811-19.684,1.458-44.376,1.95-72.279c24.361-0.291,46.61-0.672,66.534-1.162
				c0.003,29.437,0.388,54.652,1.715,74.359C768.978,97.04,745.467,96.733,719.73,96.44z"/>
		</g>
	</g>
	<g>
		<defs>
			<rect id="SVGID_159_" x="-1100.753" y="-312.91" width="1948.658" height="204"/>
		</defs>
		<clipPath id="SVGID_10_">
			<use xlink:href="#SVGID_159_"  overflow="visible"/>
		</clipPath>
		<g clip-path="url(#SVGID_10_)">
			<defs>
				<rect id="SVGID_162_" x="-1107.857" y="-391.422" width="1969.984" height="548.06"/>
			</defs>
			<clipPath id="SVGID_12_">
				<use xlink:href="#SVGID_162_"  overflow="visible"/>
			</clipPath>
		</g>
	</g>
</g>
<g>
	<g>
		<defs>
			<rect id="SVGID_181_" x="-1.777" y="-1" width="963.554" height="542"/>
		</defs>
		<clipPath id="SVGID_14_">
			<use xlink:href="#SVGID_181_"  overflow="visible"/>
		</clipPath>
		<g id="圖層_1_23_" clip-path="url(#SVGID_14_)">
			<rect x="-1.777" y="-1" fill="#D13C3D" width="963.554" height="542"/>
			<g>
				<g>
					<defs>
						<rect id="SVGID_183_" x="-2.28" y="-1.501" width="964.559" height="543.003"/>
					</defs>
					<clipPath id="SVGID_16_">
						<use xlink:href="#SVGID_183_"  overflow="visible"/>
					</clipPath>
					<g opacity="0.5" clip-path="url(#SVGID_16_)">
						
							<linearGradient id="SVGID_18_" gradientUnits="userSpaceOnUse" x1="277.2744" y1="7167.6953" x2="203.5055" y2="7015.6421" gradientTransform="matrix(1 0 0 -1 544.29 7199.8301)">
							<stop  offset="0" style="stop-color:#B81C2C"/>
							<stop  offset="1" style="stop-color:#B81C2C;stop-opacity:0.1"/>
						</linearGradient>
						<path fill="url(#SVGID_18_)" d="M892.521,47.538c-5.065-0.29-9.642-1.514-14.599-2.35
							c-12.266-2.072-23.457,1.547-35.632,4.236c-28.945,6.388-50.915,18.872-73.133,38.361
							c-33.414,29.309-66.083,60.058-98.797,90.037c10.9-2.8,21.637-10.134,31.949-14.671c10.611-4.672,21.422-9.086,31.452-14.914
							c9.136-5.311,18.187-11.362,27.582-16.167c25.943-13.262,47.871-30.47,71.658-46.852c12.705-8.751,25.688-17.339,39.4-24.008
							c5.903-2.87,20.498-5.983,21.75-13.263L892.521,47.538z"/>
						
							<linearGradient id="SVGID_20_" gradientUnits="userSpaceOnUse" x1="318.2808" y1="7131.9824" x2="274.6215" y2="6990.4668" gradientTransform="matrix(1 0 0 -1 544.29 7199.8301)">
							<stop  offset="0" style="stop-color:#B81C2C"/>
							<stop  offset="1" style="stop-color:#B81C2C;stop-opacity:0.1"/>
						</linearGradient>
						<path fill="url(#SVGID_20_)" d="M878.183,67.845c-2.927,0.665-5.921,0.221-8.985,0.271
							c-7.584,0.127-12.493,6.229-18.29,11.511c-13.786,12.554-21.464,30.382-26.729,55.877
							c-7.915,38.332-14.893,78.089-22.176,117.016c5.049-5.155,8.351-15.208,12.438-22.14c4.204-7.131,8.612-14.028,12.07-22.307
							c3.151-7.541,5.981-15.876,9.462-22.919c9.606-19.445,15.541-42.398,22.811-64.817c3.884-11.972,7.98-23.826,13.183-33.732
							c2.238-4.265,9.23-10.476,7.272-18.632L878.183,67.845z"/>
						
							<linearGradient id="SVGID_22_" gradientUnits="userSpaceOnUse" x1="297.0068" y1="7150.6631" x2="165.2769" y2="7127.3281" gradientTransform="matrix(1 0 0 -1 544.29 7199.8301)">
							<stop  offset="0" style="stop-color:#B81C2C"/>
							<stop  offset="1" style="stop-color:#B81C2C;stop-opacity:0.1"/>
						</linearGradient>
						<path fill="url(#SVGID_22_)" d="M890.092,56.527c-5.451,2.101-20.413-10.259-26.902-12.772
							c-13.131-5.087-25.275-6.559-39.238-7.58c-29.556-2.158-53.184,3.926-81.462,10.851c-7.299,1.787-15.814,5.072-23.434,5.011
							c-5.258-0.041-9.243-2.758-14.047-3.812c-9.813-2.155-20.857-2.306-30.587-3.268c8.424,1.358,16.458,8.307,24.479,11.378
							c6.829,2.616,14.318,4.416,21.293,6.344c8.713,2.408,17.108,4.042,26.089,4.694c23.475,1.702,45.479,4.965,68.319,9.663
							c17.144,3.524,37.998,6.61,54.482-0.13C876.554,73.853,890.092,56.527,890.092,56.527z"/>
						
							<linearGradient id="SVGID_24_" gradientUnits="userSpaceOnUse" x1="296.8403" y1="7159.6396" x2="418.0317" y2="7051.2446" gradientTransform="matrix(1 0 0 -1 544.29 7199.8301)">
							<stop  offset="0" style="stop-color:#B81C2C"/>
							<stop  offset="1" style="stop-color:#B81C2C;stop-opacity:0.1"/>
						</linearGradient>
						<path fill="url(#SVGID_24_)" d="M854.183,37.199c0.453,4.032-0.048,7.942-0.13,12.045c-0.2,10.147,4.853,17.857,9.162,26.597
							c10.243,20.775,25.272,34.397,46.994,46.245c32.662,17.815,66.587,34.647,99.789,51.73
							c-4.231-7.715-12.747-14.025-18.546-20.79c-5.968-6.961-11.721-14.151-18.705-20.335
							c-6.362-5.631-13.417-10.987-19.336-16.964c-16.342-16.502-35.854-28.765-54.847-42.708
							c-10.146-7.448-20.179-15.161-28.491-23.976c-3.579-3.797-8.643-14.304-15.739-13.232L854.183,37.199z"/>
						
							<linearGradient id="SVGID_25_" gradientUnits="userSpaceOnUse" x1="357.4707" y1="7148.8447" x2="431.2393" y2="7120.9932" gradientTransform="matrix(1 0 0 -1 544.29 7199.8301)">
							<stop  offset="0" style="stop-color:#B81C2C"/>
							<stop  offset="1" style="stop-color:#B81C2C;stop-opacity:0.1"/>
						</linearGradient>
						<path fill="url(#SVGID_25_)" d="M868.059,90.864c3.288-0.085,6.313,0.458,9.562,0.733c8.038,0.677,15.059-2.287,22.767-4.698
							c18.329-5.734,47.134-8.574,65.877-12.652c27.677-6.021,58.714-6.774,91.692-3.011c-6.881,2.416-90.644-92.909-175.468-16.724
							c-24.305,21.829-15.114,31.374-15.507,36.174L868.059,90.864z"/>
						
							<linearGradient id="SVGID_26_" gradientUnits="userSpaceOnUse" x1="327.4409" y1="7101.4736" x2="356.798" y2="7000.6055" gradientTransform="matrix(1 0 0 -1 544.29 7199.8301)">
							<stop  offset="0" style="stop-color:#B81C2C"/>
							<stop  offset="1" style="stop-color:#B81C2C;stop-opacity:0.1"/>
						</linearGradient>
						<path fill="url(#SVGID_26_)" d="M860.456,77.987c2.787,3.486,0.37,19.591,0.902,25.554c1.076,12.057,3.864,22.042,7.448,33.28
							c7.58,23.786,17.975,39.987,30.219,59.5c3.159,5.036,7.514,10.481,9.743,16.435c1.538,4.109,1.214,8.191,2.056,12.312
							c1.717,8.416,4.913,17.069,7.271,24.989c-1.748-7.049-0.278-15.812-0.954-23.163c-0.576-6.259-1.803-12.74-2.804-18.862
							c-1.252-7.656-2.838-14.779-5.143-22.007c-6.028-18.888-10.753-37.197-14.93-56.673c-3.136-14.618-7.616-31.965-16.254-42.365
							C874.096,82.272,860.456,77.987,860.456,77.987z"/>
					</g>
				</g>
				<g>
					<defs>
						<rect id="SVGID_191_" x="-2.28" y="-1.501" width="964.559" height="543.003"/>
					</defs>
					<clipPath id="SVGID_28_">
						<use xlink:href="#SVGID_191_"  overflow="visible"/>
					</clipPath>
					<g clip-path="url(#SVGID_28_)">
						<path fill="#11755B" d="M869.859,67.05c-4.881-1.38-9.083-3.565-13.742-5.456c-11.525-4.677-23.236-3.564-35.704-3.577
							c-29.643-0.028-53.791,7.406-79.705,21.625c-38.962,21.378-77.513,44.327-115.94,66.515
							c11.249-0.372,23.316-5.207,34.366-7.407c11.371-2.263,22.881-4.233,33.935-7.752c10.07-3.205,20.215-7.157,30.429-9.813
							c28.2-7.333,53.332-19.388,80.101-30.232c14.297-5.789,28.832-11.365,43.663-14.908c6.384-1.525,21.308-1.404,24.104-8.241
							L869.859,67.05z"/>
						<path fill="#11755B" d="M881.151,60.353c-3.379,0.421-6.729-0.012-10.207-0.066c-8.604-0.137-14.753,4.422-21.83,8.317
							c-16.82,9.263-27.228,22.78-35.631,42.288c-12.637,29.329-24.345,59.784-36.318,89.592
							c6.213-3.821,10.917-11.475,16.21-16.699c5.447-5.372,11.104-10.557,15.814-16.837c4.291-5.723,8.296-12.065,12.913-17.391
							c12.747-14.708,21.665-32.234,32.049-49.304c5.545-9.118,11.32-18.136,18.163-25.618c2.944-3.221,11.463-7.8,10.024-14.152
							L881.151,60.353z"/>
						<path fill="#11755B" d="M877.387,64.792c-5.764-0.949-12.409-19.18-16.733-24.635c-8.75-11.034-18.475-18.452-30.001-26.401
							C806.26-3.069,782.803-9.785,754.911-18.13c-7.198-2.154-16.206-3.631-22.745-7.542c-4.514-2.698-6.575-7.058-10.185-10.401
							c-7.371-6.824-16.819-12.545-24.723-18.302c6.578,5.438,9.988,15.496,15.349,22.205c4.565,5.713,10.113,11.058,15.15,16.251
							c6.296,6.488,12.708,12.149,20.122,17.256c19.381,13.353,36.707,27.309,54.023,42.923
							c13.001,11.718,29.421,24.938,47.049,27.472C856.941,72.879,877.387,64.792,877.387,64.792z"/>
						<path fill="#11755B" d="M851.548,52.608c3.587,3.59,6.184,7.548,9.326,11.474c7.771,9.713,18.534,14.462,29.406,20.563
							c25.851,14.503,50.554,19.815,80.109,20.067c44.443,0.378,89.292-0.813,133.662-1.401c-9.998-5.17-22.89-6.846-33.607-10.324
							c-11.026-3.581-22.033-7.483-33.396-9.813c-10.353-2.123-21.134-3.632-31.346-6.303c-28.188-7.376-56.005-9.136-84.659-12.751
							c-15.305-1.929-30.713-4.167-45.383-8.32c-6.316-1.788-19.278-9.182-25.06-4.583L851.548,52.608z"/>
						<path fill="#11755B" d="M860.476,62.008c3.289-0.088,6.313,0.459,9.563,0.732c8.038,0.676,15.059-2.288,22.768-4.699
							c18.326-5.731,47.132-8.571,65.878-12.65c27.675-6.021,58.714-6.774,91.69-3.011c-6.88,2.414-90.644-92.911-175.47-16.724
							C850.601,47.485,859.791,57.03,859.4,61.832L860.476,62.008z"/>
						<path fill="#11755B" d="M860.373,69.492c3.1,1.94,2.482,14.295,3.649,18.55c2.358,8.61,6.165,15.319,10.883,22.77
							c9.986,15.773,21.903,25.355,35.983,36.96c3.635,2.993,8.479,6.024,11.303,9.898c1.947,2.673,2.074,5.741,3.344,8.577
							c2.59,5.796,6.652,11.436,9.813,16.724c-2.473-4.782-1.983-11.54-3.441-16.784c-1.243-4.465-3.141-8.95-4.783-13.221
							c-2.053-5.34-4.376-10.216-7.411-15.007c-7.937-12.522-14.539-24.911-20.731-38.276
							c-4.648-10.031-10.906-21.767-20.477-27.483C874.168,69.61,860.373,69.492,860.373,69.492z"/>
					</g>
				</g>
				<g>
					<defs>
						<rect id="SVGID_193_" x="-2.28" y="-1.501" width="964.559" height="543.003"/>
					</defs>
					<clipPath id="SVGID_30_">
						<use xlink:href="#SVGID_193_"  overflow="visible"/>
					</clipPath>
					<path opacity="0.1" clip-path="url(#SVGID_30_)" fill="#D13C3D" enable-background="new    " d="M-110.095,6.822
						c-37.016,100.891-39.718,214.354-25.638,319.887c6.754,50.604,7.836,93.889,33.419,135.615
						c11.639,18.982,24.262,40.835,40.636,53.751c27.043,21.329,18.763,45.211,48.524,60.439
						c42.614,21.806,127.864,24.536,170.693,45.527c43.3,21.225,95.759,17.307,142.432,21.552
						c65.906,5.992,271.015-5.844,337.253-7.578c40.133-1.048,80.153-10.105,120.165-10.452c17.825-0.155,36.875,5.208,54.502-0.275
						c2.121-27.521-21.314-38.426-29.763-66.305c-16.408-54.14-395.791-86.173-433.083-97.04
						c-75.833-22.101-160.895-37.625-211.187-114.116C92.583,278.967,38.074,169.687,36.664,84.43
						C35.952,41.316,69.321-44.16,40.85-72.426C-89.787-202.121-96.965-28.961-110.095,6.822z"/>
				</g>
				<g>
					<defs>
						<rect id="SVGID_195_" x="-2.28" y="-1.501" width="964.559" height="543.003"/>
					</defs>
					<clipPath id="SVGID_31_">
						<use xlink:href="#SVGID_195_"  overflow="visible"/>
					</clipPath>
					<path opacity="0.15" clip-path="url(#SVGID_31_)" fill="#D13C3D" enable-background="new    " d="M393.351,758.781
						c-70.936,41.61-155.314,49.826-235.767,41.018c-38.577-4.223-71.018-3.185-105.198-26.503
						c-15.547-10.609-33.354-22.054-44.937-37.654c-19.125-25.762-35.973-16.391-50.865-45.146
						c-21.324-41.172-33.457-125.531-54.2-166.957c-20.972-41.88-24.258-94.066-32.954-140.115
						c-12.278-65.032-27.73-268.897-34.281-334.634c-3.97-39.826-1.947-79.935-6.426-119.608
						c-1.995-17.674-8.254-36.295-6.249-54.032c20.295-3.445,31.211,19.25,53.022,26.265
						C-82.144-84.965-13.304,289.492-0.778,325.918c25.479,74.084,47.141,157.634,110.198,203.747
						c56.768,41.513,144.802,90.207,208.614,87.445c32.271-1.399,92.127-38.642,116.602-11.802
						C546.923,728.458,418.507,744.022,393.351,758.781z"/>
				</g>
			</g>
			<g>
				<g>
					<defs>
						<rect id="SVGID_197_" x="-1.779" y="-2.004" width="964.559" height="543.004"/>
					</defs>
					<clipPath id="SVGID_32_">
						<use xlink:href="#SVGID_197_"  overflow="visible"/>
					</clipPath>
					<path opacity="0.18" clip-path="url(#SVGID_32_)" fill="#C12B35" enable-background="new    " d="M-109.592,16.983
						c-37.016,109.379-39.72,232.386-25.639,346.798c6.753,54.864,7.837,101.789,33.42,147.027
						c11.636,20.578,24.26,44.27,40.635,58.272c27.042,23.122,18.764,49.014,48.525,65.524
						c42.614,23.64,127.863,26.6,170.691,49.358c43.301,23.008,95.76,18.762,142.431,23.364
						c65.909,6.496,271.018-6.336,337.255-8.215c40.133-1.139,80.153-10.956,120.165-11.333c17.823-0.169,36.874,5.646,54.501-0.3
						c2.12-29.835-21.316-41.655-29.762-71.881c-16.407-58.695-395.791-93.422-433.082-105.204
						c-75.833-23.959-160.897-40.791-211.188-123.715C93.086,312.025,38.575,193.55,37.167,101.121
						C36.454,54.38,69.824-38.286,41.351-68.931C-89.285-209.537-96.464-21.809-109.592,16.983z"/>
					<path opacity="0.3" clip-path="url(#SVGID_32_)" fill="#C12B35" enable-background="new    " d="M393.852,758.281
						c-70.937,41.608-155.314,49.824-235.766,41.018c-38.577-4.224-71.018-3.185-105.197-26.504
						c-15.55-10.609-33.355-22.053-44.937-37.652c-19.125-25.762-35.975-16.39-50.867-45.146
						c-21.322-41.173-33.455-125.531-54.2-166.958c-20.97-41.88-24.257-94.066-32.952-140.115
						c-12.279-65.032-27.729-268.899-34.281-334.632c-3.97-39.826-1.946-79.935-6.425-119.609
						c-1.997-17.674-8.256-36.294-6.249-54.032c20.294-3.445,31.209,19.252,53.021,26.265
						C-81.642-85.465-12.803,288.99-0.275,325.418c25.477,74.083,47.139,157.632,110.196,203.744
						c56.769,41.515,144.804,90.208,208.615,87.446c32.271-1.397,92.128-38.642,116.601-11.801
						C547.426,727.956,419.01,743.521,393.852,758.281z"/>
				</g>
			</g>
			<g>
				<path opacity="0.7" fill="#0E6A52" enable-background="new    " d="M874.905,60.247c2.723,0.797,15.343,4.073,17.733,5.287
					c2.403,1.222-1.401,4.421-3.199,5.369c-3.533,1.864-17.713,1.185-25.073,2.97c-4.358,1.057-10.872,5.825-17.553,13.421
					c-5.275,5.997-4.675-1.703-5.363-3.712c-0.727-2.118,4.685-10.819-9.241-11.833c-8.423-0.614-13.683-8.338-3.885-11.165
					c4.257-1.229,8.61-1.971,12.943-2.899C845.702,56.733,855.538,54.588,874.905,60.247z"/>
				<path fill="#11755B" d="M830.577,59.122c1.511,9.72,18.274,6.771,27.505,7.711c5.899,0.604,11.624-0.079,17.402-0.762
					c3.676-0.433,11.756-0.457,13.956-2.708c-3.612-1.107-4.323-0.156-6.679-2.624c-2.36-2.47-5.119-4.362-6.634-7.323
					c-2.24-4.372-2.172-9.6-3.119-14.222c-0.908-4.438-1.935-8.372-1.949-12.842c-0.006-1.724,0.195-3.313,0.66-4.953
					c0.168-0.593,1.389-2.671,1.289-3.059c-0.413-1.576-1.95-1.427-4.275-1.507c-1.073-0.035-5.905-0.461-6.749,0.045
					c-1.323,0.792-0.873,3.696-1.273,4.837c-0.853,2.442-1.788,4.774-2.3,7.313c-1.39,6.893-3.957,14.55-8.168,20.84
					c-1.323,1.977-2.676,3.52-5.091,4.742c-3.107,1.575-9.142,4.229-12.903,4.009L830.577,59.122z"/>
				<path opacity="0.7" fill="#0E6A52" enable-background="new    " d="M830.577,59.122c1.511,9.72,18.274,6.771,27.505,7.711
					c5.899,0.604,11.624-0.079,17.402-0.762c-31.052-6.631-24.972-6.777-17.264-20.701c3.439-6.213,2.835-26.611,8.139-28.668
					c-1.755-0.089-3.846-0.137-4.373,0.178c-1.323,0.792-0.875,3.696-1.273,4.837c-0.855,2.442-1.79,4.774-2.301,7.313
					c-1.389,6.893-3.958,14.55-8.169,20.84c-1.323,1.977-2.676,3.52-5.09,4.742C842.044,56.186,830.577,59.122,830.577,59.122z"/>
			</g>
		</g>
	</g>
	<g>
		<path fill="#F4E8D1" d="M342.018,365.455c-3.791,4.012-8.814,6.018-15.07,6.018c-5.962,0-10.82-1.877-14.574-5.631
			c-3.791-3.79-5.686-8.667-5.686-14.629c0-5.888,1.895-10.728,5.686-14.519c3.827-3.828,8.685-5.741,14.574-5.741
			c7.066,0,12.622,2.705,16.671,8.115l-1.822,1.38c-3.533-4.858-8.483-7.287-14.85-7.287c-5.189,0-9.495,1.711-12.918,5.134
			c-3.422,3.423-5.134,7.729-5.134,12.918c0,5.226,1.692,9.532,5.079,12.917c3.459,3.386,7.784,5.079,12.973,5.079
			c5.557,0,10.028-1.858,13.415-5.576c2.576-2.796,4.048-5.962,4.416-9.495H331.75v-2.264h15.512
			C347.263,357.249,345.514,361.775,342.018,365.455z"/>
		<path fill="#F4E8D1" d="M362.609,351.488c-0.589-0.442-1.214-0.791-1.877-1.049c-0.663-0.257-1.362-0.387-2.098-0.387
			c-0.626,0-1.214,0.193-1.767,0.58c-0.552,0.387-1.031,0.865-1.436,1.436c-0.405,0.571-0.727,1.206-0.966,1.904
			c-0.24,0.7-0.359,1.344-0.359,1.932v15.016h-2.263v-22.799h2.263v3.092c0.478-0.846,1.104-1.619,1.877-2.319
			c0.773-0.699,1.619-1.049,2.54-1.049c1.14,0,2.079,0.129,2.815,0.386c0.735,0.258,1.563,0.718,2.484,1.38L362.609,351.488z"/>
		<path fill="#F4E8D1" d="M388.39,370.92V367c-2.393,2.871-5.429,4.306-9.109,4.306c-3.312,0-6.091-1.122-8.336-3.367
			c-2.282-2.282-3.422-5.079-3.422-8.391c0-3.312,1.122-6.09,3.367-8.335c2.282-2.282,5.079-3.423,8.391-3.423
			c3.644,0,6.68,1.436,9.109,4.306v-3.975h2.263v22.799H388.39z M386.016,352.813c-1.877-1.877-4.122-2.815-6.735-2.815
			c-2.65,0-4.895,0.92-6.735,2.76c-1.877,1.877-2.815,4.14-2.815,6.79c0,2.614,0.938,4.858,2.815,6.735s4.122,2.815,6.735,2.815
			c2.65,0,4.894-0.919,6.735-2.76c1.877-1.877,2.815-4.14,2.815-6.79C388.831,356.935,387.893,354.69,386.016,352.813z"/>
		<path fill="#F4E8D1" d="M418.696,367.884c-2.282,2.282-5.079,3.422-8.391,3.422c-3.791,0-6.919-1.545-9.385-4.637v14.96h-2.263
			v-33.509h2.263v4.306c2.355-3.091,5.483-4.637,9.385-4.637c3.312,0,6.09,1.123,8.335,3.368c2.282,2.282,3.423,5.079,3.423,8.391
			C422.063,362.86,420.94,365.639,418.696,367.884z M417.04,352.813c-1.877-1.877-4.122-2.815-6.735-2.815
			c-2.65,0-4.895,0.92-6.735,2.76c-1.876,1.877-2.815,4.14-2.815,6.79c0,2.614,0.938,4.858,2.815,6.735
			c1.877,1.877,4.122,2.815,6.735,2.815c2.649,0,4.894-0.919,6.735-2.76c1.877-1.877,2.815-4.14,2.815-6.79
			C419.855,356.935,418.917,354.69,417.04,352.813z"/>
		<path fill="#F4E8D1" d="M444.696,370.975v-13.746c0-4.821-2.246-7.232-6.735-7.232c-1.841,0-3.423,0.552-4.748,1.656
			c-1.362,1.104-2.042,2.577-2.042,4.417v14.85h-2.264v-40.851h2.264v21.088c1.361-2.245,3.624-3.368,6.79-3.368
			c5.998,0,8.998,3.073,8.998,9.219v13.966H444.696z"/>
		<path fill="#F4E8D1" d="M453.473,344.036c-0.405,0-0.828-0.166-1.27-0.497c-0.331-0.332-0.516-0.773-0.552-1.325
			c0-0.994,0.607-1.601,1.822-1.822c0.919,0,1.527,0.607,1.822,1.822C455.295,343.429,454.688,344.036,453.473,344.036z
			 M452.314,370.92v-22.799h2.264v22.799H452.314z"/>
		<path fill="#F4E8D1" d="M474.229,371.361c-3.386,0-6.202-1.122-8.446-3.367c-2.245-2.245-3.367-5.06-3.367-8.446
			c0-3.385,1.122-6.201,3.367-8.446c2.245-2.244,5.06-3.367,8.446-3.367c2.907,0,5.226,0.663,6.956,1.987v2.705l-1.435-0.938
			l-1.546-0.828c-1.399-0.478-2.724-0.718-3.975-0.718c-2.834,0-5.134,0.883-6.9,2.65c-1.804,1.804-2.705,4.122-2.705,6.956
			c0,2.797,0.901,5.098,2.705,6.9c1.803,1.804,4.103,2.705,6.9,2.705c2.65,0,4.968-0.883,6.956-2.65v2.815
			C479.124,370.681,476.805,371.361,474.229,371.361z"/>
		<path fill="#F4E8D1" d="M531.143,364.958c-3.312,3.975-7.637,5.962-12.973,5.962h-13.139v-39.416h13.139
			c5.299,0,9.605,1.987,12.917,5.962c3.128,3.718,4.692,8.281,4.692,13.691C535.78,356.604,534.235,361.204,531.143,364.958z
			 M529.487,339.012c-2.871-3.533-6.644-5.3-11.317-5.3h-10.93v34.944h10.93c4.048,0,7.563-1.509,10.544-4.527
			c3.202-3.238,4.803-7.563,4.803-12.973C533.517,346.336,532.173,342.288,529.487,339.012z"/>
		<path fill="#F4E8D1" d="M544.281,359.051c0,3.091,0.828,5.539,2.484,7.342c1.729,1.841,4.103,2.76,7.121,2.76
			c1.546,0,2.944-0.257,4.196-0.773c1.582-0.662,2.999-2.005,4.25-4.03l2.042,0.938c-1.435,2.724-3.644,4.564-6.625,5.521
			c-1.141,0.367-2.429,0.552-3.864,0.552c-3.422,0-6.238-1.122-8.446-3.367c-2.245-2.245-3.367-5.06-3.367-8.446
			c0-3.422,1.104-6.238,3.312-8.446c2.245-2.244,5.079-3.367,8.501-3.367c3.386,0,6.183,1.049,8.391,3.146
			c2.244,2.098,3.367,4.822,3.367,8.17H544.281z M559.848,351.819c-1.73-1.25-3.717-1.877-5.962-1.877
			c-4.711,0-7.803,2.319-9.274,6.956h18.493C562.737,354.8,561.651,353.108,559.848,351.819z"/>
		<path fill="#F4E8D1" d="M583.475,369.485c-1.472,1.251-3.239,1.876-5.299,1.876c-3.533,0-6.183-1.601-7.949-4.803l1.932-1.159
			c0.625,1.141,1.38,2.024,2.263,2.65c0.919,0.7,2.171,1.049,3.754,1.049c3.459,0,5.189-1.472,5.189-4.416
			c0-1.288-0.607-2.41-1.822-3.368c-0.368-0.221-0.893-0.469-1.573-0.745c-0.681-0.276-1.518-0.598-2.512-0.966
			c-1.841-0.662-3.166-1.325-3.975-1.987c-1.178-0.957-1.767-2.336-1.767-4.14c0-1.546,0.588-2.871,1.767-3.975
			c1.14-1.141,2.631-1.711,4.472-1.711c2.539,0,4.692,0.883,6.458,2.65l-1.656,1.435c-1.252-1.25-2.853-1.877-4.803-1.877
			c-2.65,0-3.975,1.16-3.975,3.478c0,1.031,0.404,1.877,1.214,2.54c0.662,0.516,1.711,1.012,3.146,1.49
			c1.251,0.442,2.282,0.855,3.091,1.242c0.809,0.386,1.417,0.727,1.822,1.021c1.582,1.215,2.374,2.853,2.374,4.914
			C585.628,366.669,584.91,368.27,583.475,369.485z"/>
		<path fill="#F4E8D1" d="M593.466,344.036c-0.405,0-0.828-0.166-1.27-0.497c-0.331-0.332-0.516-0.773-0.552-1.325
			c0-0.994,0.607-1.601,1.822-1.822c0.919,0,1.527,0.607,1.822,1.822C595.288,343.429,594.681,344.036,593.466,344.036z
			 M592.307,370.92v-22.799h2.264v22.799H592.307z"/>
		<path fill="#F4E8D1" d="M621.786,378.538c-2.062,2.061-4.767,3.091-8.115,3.091c-6.22,0-9.937-2.448-11.151-7.342h2.263
			c0.405,1.803,1.564,3.147,3.478,4.03c1.508,0.699,3.312,1.049,5.41,1.049c2.833,0,5.024-0.792,6.569-2.374
			c1.582-1.583,2.374-3.791,2.374-6.625V367c-2.393,2.871-5.429,4.306-9.109,4.306c-3.312,0-6.091-1.122-8.335-3.367
			c-2.283-2.282-3.423-5.079-3.423-8.391c0-3.312,1.122-6.09,3.367-8.335c2.282-2.282,5.079-3.423,8.391-3.423
			c3.644,0,6.68,1.436,9.109,4.306v-3.975h2.263v22.302C624.877,373.771,623.846,376.477,621.786,378.538z M620.24,352.813
			c-1.877-1.877-4.122-2.815-6.735-2.815c-2.65,0-4.895,0.92-6.735,2.76c-1.877,1.877-2.815,4.14-2.815,6.79
			c0,2.614,0.938,4.858,2.815,6.735s4.122,2.815,6.735,2.815c2.65,0,4.894-0.919,6.735-2.76c1.877-1.877,2.815-4.14,2.815-6.79
			C623.055,356.935,622.117,354.69,620.24,352.813z"/>
		<path fill="#F4E8D1" d="M648.338,370.92v-13.635c0-4.821-2.172-7.232-6.514-7.232c-2.135,0-3.754,0.626-4.858,1.877
			c-1.141,1.252-1.711,2.963-1.711,5.134v13.856h-2.263v-22.799h2.263v2.76c1.03-2.023,3.22-3.036,6.569-3.036
			c2.833,0,5.004,0.81,6.514,2.429c1.508,1.62,2.263,3.883,2.263,6.79v13.856H648.338z"/>
	</g>
	<g>
		<g>
			<g>
				<path fill="#4C2E2C" d="M508.89,281.817h-60.834c-1.202,0-2.17-0.968-2.17-2.177c0-1.199,0.968-2.176,2.17-2.176h60.834
					c1.212,0,2.176,0.977,2.176,2.176C511.066,280.849,510.102,281.817,508.89,281.817z"/>
				<path fill="#4C2E2C" d="M515.212,283.625c0,1.283-1.04,2.334-2.326,2.334h-7.976c-1.287,0-2.331-1.051-2.331-2.334v-7.969
					c0-1.294,1.044-2.334,2.331-2.334h7.976c1.286,0,2.326,1.041,2.326,2.334V283.625z"/>
			</g>
			<g>
				<path fill="#F4E8D1" d="M449.456,280.483c-0.55,0-1.114-0.142-1.629-0.443c-1.559-0.899-2.1-2.902-1.191-4.461l17.273-29.92
					c0.903-1.55,2.902-2.1,4.461-1.2c1.561,0.901,2.099,2.9,1.193,4.468l-17.275,29.911
					C451.684,279.881,450.584,280.483,449.456,280.483z"/>
				<g>
					<path fill="#F4E8D1" d="M507.64,231.54c-0.553,0-1.111-0.143-1.63-0.436l-44.893-25.927c-1.561-0.908-2.096-2.908-1.193-4.468
						c0.908-1.56,2.891-2.101,4.467-1.192l44.891,25.927c1.556,0.908,2.094,2.894,1.19,4.46
						C509.869,230.954,508.776,231.54,507.64,231.54z"/>
					<g>
						<path fill="#F4E8D1" d="M499.571,206.354c-0.547,0-1.111-0.141-1.625-0.442l-10.96-6.335c-1.559-0.9-2.098-2.902-1.19-4.461
							c0.899-1.559,2.905-2.091,4.466-1.192l10.948,6.336c1.567,0.9,2.103,2.892,1.193,4.451
							C501.797,205.759,500.701,206.354,499.571,206.354z"/>
						<path fill="#F4E8D1" d="M503.439,220.783c-0.556,0-1.123-0.141-1.636-0.433c-1.565-0.899-2.094-2.901-1.19-4.469
							c0.976-1.684,1.238-3.658,0.727-5.551c-0.506-1.886-1.709-3.452-3.394-4.418c-1.559-0.902-2.104-2.892-1.197-4.459
							c0.896-1.56,2.893-2.103,4.451-1.2c3.202,1.841,5.487,4.826,6.449,8.385c0.953,3.578,0.465,7.312-1.389,10.513
							C505.656,220.201,504.556,220.783,503.439,220.783z"/>
						<path fill="#F4E8D1" d="M474.182,203.877c-0.552,0-1.113-0.149-1.629-0.443c-1.561-0.908-2.096-2.91-1.191-4.458
							c1.854-3.203,4.832-5.496,8.405-6.446c3.576-0.94,7.298-0.457,10.494,1.393c1.556,0.91,2.091,2.902,1.18,4.468
							c-0.895,1.553-2.892,2.085-4.455,1.186c-1.688-0.977-3.652-1.234-5.53-0.735c-1.889,0.501-3.466,1.709-4.44,3.402
							C476.41,203.294,475.321,203.877,474.182,203.877z"/>
						<path fill="#F4E8D1" d="M470.566,210.129c-0.544,0-1.112-0.142-1.622-0.434c-1.565-0.907-2.098-2.901-1.197-4.468l3.615-6.251
							c0.903-1.567,2.897-2.103,4.462-1.203c1.559,0.91,2.097,2.904,1.191,4.47l-3.611,6.253
							C472.8,209.548,471.696,210.129,470.566,210.129z"/>
						<path fill="#F4E8D1" d="M499.838,227.02c-0.555,0-1.113-0.136-1.625-0.433c-1.567-0.902-2.105-2.886-1.203-4.452l3.611-6.262
							c0.891-1.559,2.891-2.101,4.456-1.192c1.56,0.9,2.096,2.894,1.192,4.452l-3.602,6.251
							C502.064,226.436,500.967,227.02,499.838,227.02z"/>
					</g>
				</g>
				<path fill="#F4E8D1" d="M470.268,251.513L470.268,251.513c-1.806,0-3.592-0.484-5.168-1.392
					c-2.394-1.394-4.105-3.626-4.816-6.303c-0.703-2.667-0.328-5.443,1.062-7.811c2.708-4.718,9.301-6.518,14.085-3.778
					c4.934,2.86,6.622,9.181,3.774,14.117C477.356,249.53,473.932,251.513,470.268,251.513z M470.281,237.382
					c-1.353,0-2.614,0.726-3.28,1.891c-0.521,0.885-0.657,1.901-0.396,2.869c0.266,0.992,0.893,1.819,1.766,2.318
					c1.771,1.026,4.161,0.368,5.182-1.385c1.047-1.809,0.423-4.143-1.386-5.201C471.598,237.557,470.945,237.382,470.281,237.382z"
					/>
				<g>
					<path fill="#F4E8D1" d="M448.062,282.909c-1.05,0-2.085-0.509-2.718-1.443c-1.005-1.493-0.607-3.527,0.886-4.525l49.034-33.083
						c1.505-1.009,3.533-0.607,4.537,0.886c1.012,1.483,0.617,3.518-0.886,4.534l-49.033,33.071
						C449.327,282.725,448.691,282.909,448.062,282.909z"/>
					<path fill="#F4E8D1" d="M497.09,249.828c-0.549,0-1.115-0.142-1.63-0.434c-6.602-3.816-8.88-12.288-5.063-18.89
						c0.894-1.559,2.894-2.1,4.46-1.193c1.56,0.893,2.092,2.894,1.192,4.459c-2.011,3.479-0.809,7.954,2.679,9.972
						c1.561,0.901,2.102,2.894,1.198,4.461C499.322,249.245,498.219,249.828,497.09,249.828z"/>
					<path fill="#F4E8D1" d="M493.219,235.406c-0.56,0-1.12-0.15-1.63-0.442c-1.56-0.908-2.101-2.901-1.192-4.459
						c3.822-6.603,12.301-8.863,18.885-5.061c1.556,0.908,2.094,2.902,1.19,4.46c-0.896,1.565-2.894,2.099-4.462,1.2
						c-3.48-2.026-7.948-0.817-9.961,2.667C495.44,234.815,494.34,235.406,493.219,235.406z"/>
				</g>
				<g>
					<path fill="#F4E8D1" d="M448.056,282.909c-0.082,0-0.15-0.01-0.229-0.019c-1.806-0.115-3.162-1.683-3.031-3.483l4.131-58.989
						c0.129-1.803,1.767-3.129,3.484-3.037c1.795,0.134,3.155,1.686,3.026,3.484l-4.128,59.007
						C451.188,281.59,449.75,282.909,448.056,282.909z"/>
					<path fill="#F4E8D1" d="M457.434,225.32c-2.341,0-4.715-0.601-6.882-1.853c-1.563-0.899-2.102-2.901-1.196-4.451
						c0.9-1.567,2.887-2.119,4.455-1.201c3.493,1.999,7.963,0.809,9.982-2.676c0.896-1.567,2.893-2.11,4.462-1.193
						c1.561,0.919,2.091,2.91,1.188,4.468C466.875,222.834,462.211,225.32,457.434,225.32z"/>
					<path fill="#F4E8D1" d="M466.607,220.042c-0.549,0-1.113-0.141-1.628-0.44c-1.56-0.9-2.1-2.902-1.191-4.461
						c2.012-3.476,0.817-7.945-2.673-9.979c-1.561-0.901-2.093-2.902-1.179-4.452c0.896-1.567,2.896-2.11,4.455-1.192
						c6.602,3.827,8.858,12.304,5.052,18.898C468.837,219.459,467.737,220.042,466.607,220.042z"/>
				</g>
			</g>
		</g>
	</g>
</g>
<g>
	<g>
		<g opacity="0.3">
			<defs>
				<rect id="SVGID_205_" x="-1.777" y="617.189" opacity="0.3" width="963.554" height="542"/>
			</defs>
			<clipPath id="SVGID_33_">
				<use xlink:href="#SVGID_205_"  overflow="visible"/>
			</clipPath>
			<path opacity="0.7" clip-path="url(#SVGID_33_)" fill="#2A100E" d="M1113.196,832.852c1.51-2.483-82.242-4.393-204.706-5.624
				c0.213-25.876,0.609-51.002,0.992-74.824c120.516-0.355,198.173-2.691,203.716-11.799c1.496-2.454-81.508-4.247-203.442-5.361
				c0.43-27.377,0.77-52.75,0.689-75.193c120.598-0.449,197.333-2.814,202.752-11.694c1.485-2.429-81.078-4.104-202.904-5.1
				c-0.741-48.479-4.208-79.919-14.548-82.864c-2.679-0.764-5.113,32.261-7.009,82.698c-22.835-0.166-46.872-0.31-71.843-0.432
				c-0.644-51.722-3.995-85.483-14.528-88.559c-2.727-0.797-5.156,34.739-6.992,88.46c-23.311-0.101-47.338-0.183-71.885-0.248
				c-0.554-55.094-3.781-91.296-14.504-94.505c-2.774-0.831-5.191,37.337-6.958,94.453c-23.627-0.052-47.667-0.088-71.948-0.109
				c-0.473-58.557-3.573-97.292-14.475-100.638c-2.817-0.866-5.216,40.04-6.904,100.624c-23.869-0.011-47.917-0.008-71.983,0.01
				c-0.404-62.093-3.375-103.443-14.443-106.926c-2.858-0.9-5.229,42.833-6.829,106.946c-14.196,0.016-28.382,0.037-42.523,0.063
				c-9.87,0.018-19.71,0.027-29.513,0.029c-0.348-65.68-3.188-109.711-14.411-113.331c-2.896-0.936-5.232,45.674-6.734,113.324
				c-24.366-0.021-48.464-0.083-72.178-0.171c-0.313-69.095-3.035-115.695-14.377-119.446c-2.923-0.968-5.212,48.381-6.61,119.362
				c-24.684-0.106-48.901-0.235-72.51-0.367c-0.299-72.343-2.915-121.411-14.344-125.288c-2.943-0.999-5.175,51.001-6.461,125.171
				c-25.044-0.142-49.329-0.28-72.688-0.391c-0.298-75.546-2.813-127.074-14.313-131.073c-2.96-1.031-5.129,53.637-6.298,130.982
				c-25.616-0.104-49.99-0.163-72.875-0.143C69.305,561.99,66.891,507.88,55.32,503.754c-2.979-1.064-5.079,56.469-6.123,137.173
				c-105.453,0.341-174.782,2.746-180.332,11.056c-1.429,2.139,71.479,4.027,180.137,5.418c-0.256,23.764-0.426,49.206-0.506,75.517
				c-105.414,0.426-174.183,2.929-179.631,11.389c-1.419,2.208,71.151,4.079,179.592,5.42c-0.038,24.675,0.002,49.946,0.124,75.169
				c-105.852,0.503-174.359,3.098-179.717,11.734c-1.412,2.284,71.153,4.137,179.813,5.427c0.123,19.573,0.296,39.029,0.521,58.062
				c0.066,5.622,0.125,11.203,0.179,16.742c-106.737,0.574-175.238,3.255-180.514,12.092c-1.407,2.366,71.424,4.203,180.665,5.44
				c0.201,25.955,0.29,50.858,0.369,74.424c-107.514,0.648-175.849,3.423-181.036,12.459c-1.401,2.448,71.487,4.263,181.097,5.444
				c0.095,26.801,0.213,51.639,0.518,74.045c-108.375,0.724-176.52,3.593-181.615,12.837c-1.397,2.535,71.703,4.327,181.92,5.447
				c1.273,63.282,4.663,103.198,14.665,106.487c2.747,0.903,4.335-41.868,5.021-106.297c23.031,0.21,47.474,0.393,73.031,0.549
				c1.243,61.72,4.659,100.597,14.718,103.823c2.764,0.886,4.42-40.781,5.197-103.708c23.503,0.129,47.842,0.236,72.797,0.322
				c1.209,60.336,4.649,98.292,14.778,101.459c2.784,0.871,4.506-39.818,5.371-101.395c23.756,0.071,48.004,0.123,72.557,0.158
				c1.175,59.076,4.636,96.198,14.843,99.311c2.806,0.856,4.595-38.947,5.546-99.287c23.865,0.023,47.966,0.031,72.14,0.021
				c1.139,57.91,4.619,94.278,14.912,97.34c2.83,0.842,4.685-38.152,5.72-97.352c22.377-0.018,44.774-0.049,67.061-0.094
				c1.608-0.003,3.214-0.006,4.821-0.009c1.103,56.84,4.599,92.516,14.984,95.529c2.856,0.829,4.776-37.415,5.895-95.551
				c24.153-0.01,48.088,0.03,71.691,0.104c1.071,55.655,4.59,90.56,15.052,93.52c2.876,0.814,4.859-36.547,6.061-93.445
				c24.276,0.096,48.158,0.222,71.513,0.359c1.051,54.268,4.601,88.258,15.117,91.16c2.89,0.798,4.932-35.545,6.215-91.032
				c24.453,0.15,48.269,0.305,71.294,0.442c1.037,52.806,4.624,85.823,15.18,88.664c2.901,0.782,5-34.51,6.364-88.542
				c24.78,0.135,48.543,0.237,71.082,0.276c1.022,51.432,4.643,83.557,15.243,86.34c2.917,0.767,5.071-33.596,6.515-86.323
				c120.332-0.032,201.024-2.333,207.028-12.292c1.542-2.557-83.468-4.79-206.564-6.356c0.506-22.359,0.901-47.28,1.19-73.734
				c119.859-0.116,199.496-2.427,205.375-12.158c1.529-2.527-82.734-4.652-205.194-6.108c0.212-23.926,0.342-48.864,0.391-74.108
				c120.023-0.19,199.037-2.503,204.805-12.03c1.519-2.504-82.421-4.523-204.784-5.868c0.006-14.696-0.014-29.438-0.061-44.089
				c-0.033-10.197-0.021-20.333,0.025-30.376C1028.938,844.498,1107.531,842.185,1113.196,832.852z M884.975,827.004
				c-22.233-0.2-45.561-0.379-69.734-0.537c0.167-25.577,0.511-50.439,0.854-74.083c24.425,0.056,47.75,0.086,69.813,0.064
				C885.496,776.584,885.179,801.706,884.975,827.004z M791.903,914.363c0.005,1.292,0.009,2.574,0.014,3.86
				c-22.68-0.15-45.996-0.281-69.756-0.393c-0.026-15.758-0.081-31.575-0.164-47.29c-0.047-8.791-0.061-17.533-0.051-26.216
				c24.065,0.09,47.429,0.186,69.973,0.266C791.814,868.094,791.806,891.562,791.903,914.363z M791.697,1010.132
				c-22.68-0.168-45.989-0.316-69.729-0.445c0.146-23.636,0.215-48.231,0.21-73.138c23.969,0.109,47.272,0.223,69.778,0.321
				C791.97,962.464,791.835,986.994,791.697,1010.132z M163.016,856.746c-0.05-4.555-0.091-9.095-0.128-13.625
				c23.199,0.166,47.184,0.313,71.734,0.438c0.08,20.268,0.218,40.426,0.416,60.121c0.045,4.495,0.084,8.956,0.121,13.397
				c-24.73-0.093-48.644-0.184-71.597-0.249C163.417,896.839,163.234,876.715,163.016,856.746z M162.783,750.851
				c23.248,0.179,47.276,0.339,71.863,0.478c-0.109,24.209-0.137,49.057-0.082,73.899c-24.778-0.109-48.758-0.215-71.795-0.294
				C162.647,799.579,162.691,774.747,162.783,750.851z M699.064,912.583c0.009,1.722,0.016,3.433,0.024,5.147
				c-23.059-0.095-46.466-0.171-70.049-0.229c-0.043-16.411-0.117-32.89-0.22-49.259c-0.051-8.107-0.076-16.175-0.081-24.193
				c23.929,0.044,47.378,0.114,70.253,0.194C698.925,867.267,698.946,890.241,699.064,912.583z M256.275,859.045
				c-0.052-5.143-0.094-10.27-0.128-15.381c23.439,0.107,47.32,0.195,71.453,0.265c0.056,20.743,0.174,41.383,0.358,61.532
				c0.037,3.999,0.068,7.97,0.098,11.925c-24.352-0.061-48.156-0.143-71.305-0.228C256.628,897.819,256.469,878.359,256.275,859.045
				z M349.535,861.344c-0.053-5.807-0.094-11.593-0.125-17.357c23.541,0.056,47.264,0.093,70.999,0.112
				c0.029,21.285,0.125,42.475,0.295,63.144c0.028,3.431,0.053,6.84,0.075,10.24c-24.006,0.018-47.648-0.003-70.837-0.047
				C349.841,898.764,349.705,879.985,349.535,861.344z M442.621,863.644c-0.054-6.539-0.09-13.049-0.115-19.533
				c23.668,0.007,47.294-0.005,70.706-0.037c0,21.891,0.073,43.699,0.228,64.949c0.021,2.795,0.038,5.578,0.055,8.352
				c-22.408,0.006-44.722,0.03-66.793,0.073c-1.248,0.002-2.492,0.004-3.738,0.007C442.882,899.537,442.767,881.526,442.621,863.644
				z M535.694,865.943c-0.053-7.336-0.085-14.64-0.102-21.906c23.842-0.045,47.364-0.048,70.481-0.022
				c-0.033,22.507,0.015,44.946,0.152,66.788c0.014,2.224,0.026,4.438,0.038,6.648c-23.37-0.044-46.855-0.07-70.292-0.077
				C535.911,900.244,535.818,883.034,535.694,865.943z M628.764,825.71c0.078-25.408,0.329-50.167,0.598-73.807
				c24.001,0.029,47.486,0.083,70.368,0.146c-0.316,24.001-0.541,48.863-0.665,73.847
				C675.936,825.817,652.446,825.755,628.764,825.71z M606.118,825.674c-23.434-0.033-47-0.048-70.534-0.045
				c0.035-25.334,0.242-50.05,0.474-73.693c2.684-0.004,5.365-0.009,8.042-0.014c21.162-0.039,42.032-0.048,62.558-0.038
				C606.387,775.909,606.204,800.744,606.118,825.674z M513.23,825.637c-19.351,0.012-38.645,0.036-57.789,0.072
				c-4.334,0.008-8.658,0.015-12.974,0.02c-0.008-25.322,0.156-50.051,0.352-73.751c23.73,0.016,47.398,0.012,70.828-0.012
				C513.419,775.995,513.278,800.782,513.23,825.637z M420.401,825.745c-24.048,0.004-47.767-0.03-71.056-0.088
				c-0.048-25.323,0.073-50.083,0.234-73.844c23.595,0.067,47.361,0.115,71.122,0.144
				C420.515,776.063,420.412,800.884,420.401,825.745z M327.567,825.596c-24.397-0.076-48.272-0.173-71.513-0.273
				c-0.085-25.311-0.003-50.073,0.123-73.878c23.49,0.12,47.415,0.22,71.578,0.301C327.608,775.907,327.543,800.744,327.567,825.596
				z M235.29,935.788c0.151,25.501,0.187,49.97,0.214,73.127c-24.744-0.078-48.643-0.153-71.56-0.204
				c-0.021-23.708-0.109-48.338-0.26-73.321C186.837,935.543,210.777,935.676,235.29,935.788z M256.857,935.881
				c23.385,0.094,47.218,0.17,71.314,0.227c0.128,25.484,0.138,49.934,0.139,73.06c-24.369-0.047-48.16-0.114-71.269-0.185
				C257.047,985.348,256.984,960.788,256.857,935.881z M350.032,936.154c23.477,0.044,47.149,0.071,70.849,0.08
				c0.105,25.459,0.089,49.886,0.063,72.979c-24.029,0.029-47.657,0.021-70.804-0.009
				C350.173,985.588,350.135,961.042,350.032,936.154z M443.035,936.237c23.595-0.002,47.164-0.022,70.545-0.061
				c0.084,25.45,0.04,49.868-0.013,72.94c-23.686-0.002-47.245,0.017-70.501,0.06C443.125,985.597,443.114,961.084,443.035,936.237z
				 M536.027,936.138c23.748-0.034,47.216-0.024,70.308,0.016c0.062,25.508-0.011,49.976-0.092,73.083
				c-23.375-0.057-46.852-0.094-70.262-0.11C536.068,985.531,536.082,960.997,536.027,936.138z M629.076,936.203
				c23.834,0.06,47.226,0.147,70.068,0.245c0.038,25.533-0.064,50.015-0.174,73.124c-23.061-0.11-46.459-0.202-70.021-0.272
				C629.065,985.671,629.106,961.096,629.076,936.203z M722,825.982c0.121-25.463,0.419-50.25,0.724-73.867
				c24.136,0.072,47.537,0.148,70.088,0.211c-0.362,24.006-0.63,48.927-0.793,73.998C769.264,826.191,745.86,826.077,722,825.982z
				 M888.137,660.113c-0.744,22.634-1.389,48.01-1.912,74.929c-22.26-0.181-45.632-0.341-69.872-0.479
				c0.386-26.964,0.705-52.061,0.661-74.453C841.959,660.146,865.718,660.155,888.137,660.113z M794.813,660.071
				c-0.674,22.625-1.25,47.784-1.712,74.366c-22.778-0.115-46.225-0.213-70.144-0.292c0.347-26.764,0.643-51.771,0.623-74.231
				C748.157,659.969,771.941,660.027,794.813,660.071z M701.518,659.867c-0.611,22.712-1.127,47.797-1.533,74.208
				c-23.15-0.065-46.678-0.114-70.416-0.146c0.309-26.638,0.582-51.6,0.578-74.164C654.534,659.781,678.352,659.82,701.518,659.867z
				 M608.242,659.757c-0.552,22.817-1.01,47.864-1.362,74.146c-23.449-0.021-47.048-0.026-70.64-0.016
				c0.271-26.496,0.521-51.412,0.528-74.058c5.375-0.007,10.734-0.016,16.072-0.025C571.578,659.77,590.055,659.756,608.242,659.757
				z M515.034,659.852c-0.495,22.906-0.897,47.903-1.197,74.05c-16.6,0.015-33.17,0.037-49.655,0.068
				c-7.09,0.013-14.159,0.022-21.207,0.027c0.232-26.441,0.458-51.38,0.472-74.158C467.452,659.865,491.376,659.87,515.034,659.852z
				 M421.9,659.811c-0.441,23.05-0.792,48.083-1.043,74.191c-24.047-0.008-47.8-0.056-71.149-0.128
				c0.195-26.387,0.396-51.349,0.41-74.239C373.945,659.713,397.934,659.772,421.9,659.811z M327.88,733.799
				c-24.398-0.091-48.307-0.203-71.602-0.318c0.159-26.327,0.331-51.279,0.339-74.262c23.689,0.132,47.809,0.246,72.159,0.339
				C328.387,682.716,328.085,707.752,327.88,733.799z M234.743,733.373c-24.784-0.125-48.795-0.246-71.883-0.341
				c0.123-26.33,0.268-51.344,0.267-74.454c23.417,0.192,47.62,0.365,72.374,0.517C235.159,682.348,234.904,707.384,234.743,733.373
				z M69.644,657.655c22.932,0.27,47.24,0.519,72.599,0.744c-0.297,23.409-0.508,48.529-0.628,74.553
				c-25.379-0.085-49.512-0.127-72.164-0.091C69.538,706.313,69.656,681.052,69.644,657.655z M69.401,749.976
				c22.788,0.258,46.941,0.493,72.146,0.705c-0.072,24.332-0.067,49.272,0.021,74.188c-25.371-0.069-49.468-0.094-72.075-0.043
				C69.333,799.224,69.341,774.138,69.401,749.976z M69.758,854.446c-0.048-4.06-0.09-8.11-0.128-12.15
				c22.746,0.245,46.851,0.468,72.018,0.666c0.103,19.87,0.258,39.624,0.469,58.939c0.055,4.993,0.103,9.949,0.146,14.875
				c-25.319-0.053-49.351-0.064-71.886,0C70.21,896.045,70.002,875.164,69.758,854.446z M70.512,934.619
				c22.708,0.232,46.771,0.44,71.896,0.624c0.174,25.603,0.237,50.171,0.29,73.429c-25.331-0.037-49.346-0.033-71.849,0.046
				C70.803,984.764,70.688,959.872,70.512,934.619z M70.635,1100.656c0.173-22.68,0.248-47.522,0.236-73.723
				c22.695,0.219,46.748,0.414,71.871,0.583c0.065,26.44,0.158,50.943,0.442,73.045C117.565,1100.54,93.318,1100.56,70.635,1100.656
				z M163.618,1100.586c0.202-22.428,0.309-47.007,0.327-72.936c23.137,0.14,47.067,0.259,71.583,0.357
				c0.037,26.353,0.104,50.755,0.373,72.739C210.866,1100.684,186.729,1100.622,163.618,1100.586z M256.597,1100.799
				c0.236-22.333,0.374-46.842,0.424-72.71c23.364,0.082,47.188,0.146,71.291,0.191c0.007,26.354,0.048,50.735,0.304,72.665
				C303.951,1100.911,279.912,1100.857,256.597,1100.799z M349.576,1100.968c0.27-22.287,0.44-46.781,0.521-72.652
				c23.452,0.034,47.115,0.05,70.826,0.05c-0.024,26.347-0.011,50.702,0.229,72.577
				C396.82,1100.983,372.936,1100.986,349.576,1100.968z M442.381,1100.904c0.303-22.229,0.507-46.693,0.619-72.544
				c23.564-0.011,47.125-0.038,70.524-0.083c-0.056,26.379-0.071,50.742,0.153,72.59
				C489.703,1100.855,465.875,1100.867,442.381,1100.904z M535.172,1100.885c0.338-22.229,0.576-46.734,0.72-72.641
				c23.708-0.022,47.169,0.002,70.285,0.058c-0.087,26.463-0.133,50.88,0.078,72.729
				C582.593,1100.96,558.84,1100.911,535.172,1100.885z M628.01,1101.103c0.376-22.222,0.649-46.769,0.827-72.737
				c23.797,0.077,47.183,0.182,70.043,0.298c-0.121,26.508-0.195,50.945,0.003,72.758
				C675.535,1101.295,651.849,1101.188,628.01,1101.103z M720.893,1101.549c0.415-22.19,0.726-46.755,0.938-72.766
				c23.935,0.128,47.232,0.261,69.752,0.377c-0.154,26.605-0.258,51.087-0.068,72.89
				C768.542,1101.863,744.933,1101.695,720.893,1101.549z M813.766,1102.241c0.457-22.2,0.809-46.842,1.058-72.965
				c24.217,0.113,47.432,0.196,69.463,0.221c-0.191,26.88-0.325,51.562-0.14,73.464
				C861.69,1102.699,838.142,1102.458,813.766,1102.241z M814.985,1010.313c0.178-23.695,0.276-48.366,0.298-73.346
				c24.25,0.094,47.471,0.161,69.486,0.171c-0.01,25.81-0.177,50.536-0.347,73.829
				C862.261,1010.728,839.034,1010.509,814.985,1010.313z M884.741,916.144c0.003,0.949,0.005,1.892,0.007,2.838
				c-22.16-0.22-45.396-0.418-69.463-0.595c-0.01-15.18-0.047-30.411-0.111-45.547c-0.041-9.451-0.042-18.847-0.017-28.171
				c24.35,0.076,47.638,0.125,69.693,0.121C884.707,868.818,884.666,892.833,884.741,916.144z"/>
		</g>
	</g>
</g>
</svg>
