<?xml version="1.0" encoding="utf-8"?>
<!-- Generator: Adobe Illustrator 16.0.0, SVG Export Plug-In . SVG Version: 6.00 Build 0)  -->
<!DOCTYPE svg PUBLIC "-//W3C//DTD SVG 1.1//EN" "http://www.w3.org/Graphics/SVG/1.1/DTD/svg11.dtd">
<svg version="1.1" id="圖層_1" xmlns="http://www.w3.org/2000/svg" xmlns:xlink="http://www.w3.org/1999/xlink" x="0px" y="0px"
	 width="105px" height="40px" viewBox="0 0 105 40" enable-background="new 0 0 105 40" xml:space="preserve">
<rect x="2.589" y="5" fill="#FFFFFF" width="99.822" height="30"/>
<g>
	<path fill="#727171" d="M102.411,35H2.589V5h99.822V35z M3.358,34.295h98.348V5.768H3.358V34.295z"/>
	<g>
		<polygon fill="#727171" points="24.968,23.848 23.025,21.458 17.483,28.131 		"/>
		<path fill="#727171" d="M28.381,19.355l-2.445-1.398l-2.138,2.568l2.222,2.729l2.36-1.353c0.464-0.267,0.742-0.745,0.742-1.273
			v-0.002C29.123,20.101,28.846,19.616,28.381,19.355z"/>
		<polygon fill="#727171" points="18.017,13.426 23.035,19.59 24.89,17.358 		"/>
		<path fill="#727171" d="M14.617,29.547c0.048,0,0.101-0.006,0.151-0.008l7.494-9.019l-7.094-8.709
			c-0.175-0.068-0.364-0.104-0.551-0.104c-0.008,0-0.012,0-0.016,0c-0.036,0-0.066,0.004-0.103,0.008
			c-0.014,0-0.03,0.002-0.048,0.002c-0.024,0.006-0.046,0.006-0.073,0.012c-0.013,0.004-0.02,0.004-0.031,0.006l0,0
			c-0.159,0.026-0.32,0.083-0.466,0.172c-0.454,0.26-0.731,0.738-0.731,1.264v14.912c0,0.521,0.277,1.007,0.731,1.266
			c0.146,0.086,0.308,0.141,0.466,0.171v0.006c0.012,0,0.018,0,0.028,0c0.026,0.006,0.054,0.01,0.081,0.014
			c0.02,0.002,0.032,0.002,0.044,0.002c0.036,0.002,0.066,0.002,0.099,0.006C14.605,29.547,14.609,29.547,14.617,29.547z"/>
	</g>
	<g>
		<g>
			<path fill="#727171" d="M39.119,12.217c0,0.046,0,0.08-0.008,0.112c-0.006,0.03-0.012,0.059-0.018,0.079
				c-0.012,0.018-0.018,0.034-0.032,0.042c-0.015,0.012-0.03,0.014-0.044,0.014c-0.028,0-0.072-0.02-0.134-0.063
				c-0.061-0.042-0.145-0.086-0.247-0.139c-0.104-0.052-0.231-0.096-0.374-0.136c-0.146-0.044-0.321-0.066-0.518-0.066
				c-0.241,0-0.452,0.044-0.639,0.13c-0.187,0.086-0.345,0.205-0.482,0.361c-0.129,0.149-0.227,0.334-0.299,0.543
				c-0.072,0.211-0.104,0.438-0.104,0.687c0,0.273,0.04,0.515,0.118,0.729c0.077,0.213,0.179,0.39,0.313,0.536
				c0.141,0.147,0.297,0.258,0.486,0.336c0.187,0.072,0.392,0.114,0.615,0.114c0.135,0,0.27-0.022,0.406-0.046
				c0.135-0.04,0.261-0.084,0.382-0.15v-1.254h-0.999c-0.04,0-0.07-0.018-0.088-0.058c-0.016-0.032-0.024-0.094-0.024-0.173
				c0-0.044,0.002-0.078,0.006-0.108c0.002-0.028,0.008-0.056,0.018-0.072c0.012-0.02,0.026-0.032,0.036-0.038
				c0.012-0.014,0.032-0.018,0.052-0.018h1.366c0.023,0,0.048,0.004,0.074,0.018c0.022,0.006,0.044,0.018,0.066,0.034
				c0.019,0.018,0.035,0.044,0.047,0.076c0.01,0.03,0.014,0.064,0.014,0.104v1.64c0,0.059-0.01,0.109-0.028,0.149
				c-0.018,0.042-0.062,0.08-0.126,0.114c-0.063,0.034-0.147,0.066-0.249,0.103c-0.101,0.038-0.207,0.07-0.313,0.097
				c-0.111,0.03-0.221,0.048-0.333,0.062c-0.109,0.016-0.217,0.018-0.328,0.018c-0.333,0-0.631-0.048-0.894-0.154
				c-0.257-0.104-0.478-0.25-0.66-0.444c-0.18-0.187-0.319-0.416-0.415-0.683c-0.097-0.267-0.142-0.559-0.142-0.89
				c0-0.343,0.049-0.645,0.155-0.926c0.095-0.279,0.248-0.515,0.432-0.709c0.189-0.197,0.414-0.35,0.675-0.452
				c0.263-0.106,0.554-0.165,0.876-0.165c0.163,0,0.317,0.016,0.458,0.046c0.145,0.026,0.275,0.058,0.388,0.1
				c0.108,0.042,0.205,0.079,0.282,0.126c0.075,0.044,0.127,0.081,0.158,0.109c0.028,0.028,0.048,0.064,0.06,0.104
				C39.114,12.092,39.119,12.141,39.119,12.217z"/>
			<path fill="#727171" d="M42.439,15.692c0,0.048,0,0.081-0.008,0.111c-0.002,0.029-0.006,0.054-0.02,0.076
				c-0.012,0.018-0.022,0.034-0.04,0.046c-0.014,0.004-0.03,0.01-0.048,0.01h-2.062c-0.054,0-0.103-0.014-0.148-0.056
				c-0.046-0.03-0.068-0.09-0.068-0.177v-3.841c0-0.084,0.022-0.145,0.068-0.181c0.046-0.034,0.094-0.05,0.148-0.05h2.04
				c0.016,0,0.034,0.006,0.046,0.014c0.014,0.004,0.03,0.024,0.038,0.043c0.008,0.02,0.014,0.047,0.02,0.073
				c0.006,0.029,0.01,0.067,0.01,0.117c0,0.034-0.004,0.07-0.01,0.103c-0.006,0.028-0.012,0.05-0.02,0.074
				c-0.008,0.015-0.024,0.031-0.038,0.039c-0.012,0.006-0.03,0.014-0.046,0.014h-1.68v1.348h1.44c0.016,0,0.036,0.006,0.048,0.018
				c0.012,0.006,0.026,0.022,0.034,0.042c0.014,0.018,0.018,0.04,0.026,0.074c0.004,0.026,0.008,0.063,0.008,0.106
				c0,0.042-0.004,0.077-0.008,0.104c-0.008,0.026-0.012,0.048-0.026,0.07c-0.008,0.015-0.022,0.027-0.034,0.037
				c-0.012,0.008-0.032,0.012-0.048,0.012h-1.44v1.537h1.702c0.019,0,0.034,0.008,0.048,0.014c0.018,0.012,0.028,0.026,0.04,0.046
				c0.014,0.016,0.018,0.04,0.02,0.068C42.439,15.613,42.439,15.65,42.439,15.692z"/>
			<path fill="#727171" d="M45.931,11.877c0,0.041-0.001,0.079-0.004,0.113c-0.006,0.026-0.012,0.05-0.024,0.07
				c-0.008,0.022-0.021,0.034-0.032,0.044c-0.018,0.008-0.034,0.014-0.048,0.014h-1.215v3.729c0,0.018-0.004,0.032-0.01,0.046
				c-0.014,0.014-0.026,0.028-0.048,0.034c-0.024,0.008-0.052,0.016-0.086,0.022c-0.036,0-0.085,0.004-0.136,0.004
				c-0.059,0-0.101-0.004-0.139-0.004c-0.04-0.006-0.072-0.014-0.092-0.022c-0.022-0.006-0.034-0.021-0.044-0.034
				c-0.01-0.014-0.012-0.028-0.012-0.046v-3.729h-1.214c-0.016,0-0.029-0.006-0.048-0.014c-0.014-0.01-0.025-0.022-0.036-0.044
				c-0.006-0.02-0.012-0.044-0.019-0.07c-0.005-0.034-0.012-0.072-0.012-0.113c0-0.043,0.006-0.082,0.012-0.108
				c0.006-0.034,0.013-0.062,0.019-0.082c0.011-0.019,0.022-0.039,0.036-0.043c0.019-0.008,0.032-0.014,0.048-0.014h2.998
				c0.014,0,0.03,0.006,0.048,0.014c0.012,0.004,0.024,0.024,0.032,0.043c0.012,0.02,0.018,0.047,0.024,0.082
				C45.93,11.795,45.931,11.833,45.931,11.877z"/>
			<path fill="#727171" d="M48.391,15.847c0,0.018-0.001,0.032-0.009,0.046c-0.012,0.014-0.028,0.028-0.046,0.034
				c-0.024,0.008-0.054,0.016-0.09,0.022c-0.036,0-0.083,0.004-0.137,0.004s-0.102-0.004-0.138-0.004
				c-0.037-0.006-0.063-0.014-0.091-0.022c-0.018-0.006-0.036-0.021-0.042-0.034c-0.012-0.014-0.014-0.028-0.014-0.046v-4.131
				c0-0.015,0.006-0.03,0.014-0.044c0.01-0.014,0.026-0.026,0.052-0.034c0.02-0.008,0.048-0.01,0.086-0.016
				c0.034-0.006,0.083-0.008,0.132-0.008c0.054,0,0.101,0.002,0.137,0.008c0.036,0.006,0.066,0.008,0.09,0.016
				c0.018,0.008,0.034,0.02,0.046,0.034c0.008,0.014,0.009,0.029,0.009,0.044V15.847z"/>
			<path fill="#727171" d="M52.097,11.877c0,0.041,0,0.079-0.002,0.113c-0.006,0.026-0.013,0.05-0.026,0.07
				c-0.008,0.022-0.02,0.034-0.038,0.044c-0.007,0.008-0.026,0.014-0.048,0.014h-1.205v3.729c0,0.018-0.006,0.032-0.014,0.046
				c-0.012,0.014-0.026,0.028-0.048,0.034c-0.022,0.008-0.05,0.016-0.088,0.022c-0.04,0-0.083,0.004-0.139,0.004
				c-0.052,0-0.096-0.004-0.134-0.004c-0.039-0.006-0.065-0.014-0.091-0.022c-0.022-0.006-0.038-0.021-0.044-0.034
				c-0.011-0.014-0.016-0.028-0.016-0.046v-3.729h-1.211c-0.015,0-0.031-0.006-0.045-0.014c-0.016-0.01-0.028-0.022-0.038-0.044
				c-0.008-0.02-0.012-0.044-0.02-0.07c-0.006-0.034-0.008-0.072-0.008-0.113c0-0.043,0.002-0.082,0.008-0.108
				c0.008-0.034,0.012-0.062,0.02-0.082c0.01-0.019,0.022-0.039,0.038-0.043c0.014-0.008,0.03-0.014,0.045-0.014h2.991
				c0.022,0,0.042,0.006,0.048,0.014c0.018,0.004,0.03,0.024,0.038,0.043c0.014,0.02,0.021,0.047,0.026,0.082
				C52.097,11.795,52.097,11.833,52.097,11.877z"/>
			<path fill="#727171" d="M57.594,13.738c0,0.345-0.042,0.657-0.123,0.934c-0.084,0.282-0.207,0.516-0.37,0.715
				c-0.163,0.195-0.366,0.346-0.617,0.452c-0.241,0.106-0.532,0.159-0.855,0.159c-0.326,0-0.607-0.048-0.84-0.149
				c-0.235-0.09-0.428-0.236-0.587-0.414c-0.155-0.188-0.267-0.416-0.343-0.685c-0.075-0.279-0.113-0.587-0.113-0.942
				c0-0.342,0.04-0.655,0.123-0.928c0.078-0.275,0.203-0.51,0.365-0.708c0.167-0.193,0.374-0.341,0.617-0.444
				c0.247-0.106,0.533-0.161,0.864-0.161c0.316,0,0.593,0.05,0.828,0.143c0.233,0.094,0.432,0.235,0.59,0.416
				c0.151,0.185,0.271,0.41,0.348,0.677C57.554,13.077,57.594,13.386,57.594,13.738z M56.987,13.772
				c0-0.243-0.022-0.468-0.064-0.677c-0.04-0.209-0.116-0.396-0.217-0.546c-0.103-0.153-0.235-0.273-0.405-0.362
				c-0.168-0.088-0.375-0.128-0.622-0.128c-0.251,0-0.456,0.046-0.623,0.139c-0.172,0.092-0.305,0.215-0.414,0.37
				c-0.103,0.161-0.181,0.341-0.221,0.546c-0.048,0.207-0.069,0.422-0.069,0.654c0,0.252,0.015,0.483,0.061,0.696
				c0.042,0.215,0.115,0.398,0.213,0.55c0.095,0.157,0.235,0.271,0.396,0.362c0.171,0.086,0.382,0.128,0.631,0.128
				c0.251,0,0.466-0.05,0.633-0.141c0.172-0.096,0.308-0.219,0.41-0.38c0.104-0.156,0.18-0.341,0.224-0.546
				C56.965,14.228,56.987,14.005,56.987,13.772z"/>
			<path fill="#727171" d="M61.616,15.692c0,0.052-0.01,0.088-0.024,0.121c-0.014,0.026-0.036,0.056-0.062,0.074
				c-0.021,0.02-0.049,0.038-0.081,0.042c-0.026,0.014-0.056,0.016-0.084,0.016h-0.189c-0.064,0-0.112-0.006-0.158-0.018
				c-0.044-0.014-0.088-0.036-0.131-0.066c-0.041-0.035-0.079-0.077-0.117-0.133c-0.04-0.056-0.086-0.128-0.128-0.213l-1.312-2.449
				c-0.07-0.126-0.141-0.259-0.211-0.396c-0.066-0.139-0.133-0.275-0.193-0.4h-0.008c0.006,0.155,0.008,0.315,0.008,0.484
				c0.004,0.165,0.008,0.333,0.008,0.496v2.596c0,0.016-0.008,0.032-0.016,0.046c-0.01,0.014-0.024,0.028-0.048,0.034
				c-0.022,0.008-0.05,0.016-0.084,0.022c-0.038,0-0.083,0.004-0.139,0.004c-0.058,0-0.105-0.004-0.141-0.004
				c-0.038-0.006-0.064-0.014-0.083-0.022c-0.024-0.006-0.036-0.021-0.046-0.034c-0.011-0.014-0.014-0.03-0.014-0.046v-3.97
				c0-0.094,0.028-0.154,0.074-0.19c0.046-0.039,0.104-0.057,0.165-0.057h0.279c0.068,0,0.125,0.008,0.165,0.016
				c0.046,0.012,0.088,0.028,0.125,0.059c0.032,0.024,0.07,0.06,0.1,0.104c0.034,0.042,0.066,0.098,0.109,0.17l1.008,1.89
				c0.059,0.115,0.117,0.228,0.177,0.337c0.061,0.105,0.116,0.218,0.171,0.325c0.054,0.1,0.106,0.211,0.157,0.313
				c0.052,0.103,0.103,0.207,0.154,0.313h0.004c-0.004-0.179-0.008-0.36-0.008-0.551s0-0.374,0-0.548v-2.331
				c0-0.014,0.002-0.028,0.012-0.042c0.008-0.014,0.024-0.028,0.05-0.039c0.018-0.01,0.048-0.018,0.086-0.018
				c0.036-0.004,0.083-0.006,0.141-0.006c0.051,0,0.099,0.002,0.135,0.006c0.036,0,0.063,0.008,0.088,0.018
				c0.019,0.01,0.036,0.024,0.044,0.039c0.01,0.014,0.016,0.028,0.016,0.042V15.692z"/>
		</g>
		<g>
			<path fill-rule="evenodd" clip-rule="evenodd" fill="#727171" d="M42.236,23.052c0.261,0,0.531,0,0.8,0
				c1.458,0,1.458,0,1.34,1.44c-0.221,2.787-3.212,4.475-6.035,3.354c-1.762-0.701-2.819-2.008-2.987-3.93
				c-0.176-1.989,0.667-3.498,2.384-4.466c1.657-0.937,3.331-0.874,4.928,0.193c0.197,0.13,0.759,0.245,0.394,0.658
				c-0.265,0.311-0.46,0.927-1.169,0.429c-1.384-0.957-3.04-0.751-4.183,0.397c-1.097,1.099-1.282,2.896-0.432,4.217
				c0.836,1.302,2.479,1.858,3.952,1.324c0.844-0.312,1.46-0.86,1.728-1.762c0.113-0.373,0.074-0.539-0.363-0.526
				c-0.643,0.022-1.292-0.028-1.929,0.016c-0.57,0.044-0.655-0.209-0.655-0.699c0-0.466,0.092-0.695,0.619-0.655
				C41.16,23.086,41.696,23.052,42.236,23.052z"/>
			<path fill-rule="evenodd" clip-rule="evenodd" fill="#727171" d="M65.94,23.566c0,1.284-0.034,2.566,0.014,3.852
				c0.018,0.573-0.257,0.569-0.673,0.573c-0.422,0-0.685-0.012-0.675-0.575c0.034-2.565,0.03-5.137,0-7.707
				c-0.006-0.556,0.245-0.583,0.675-0.583c0.43-0.004,0.691,0.032,0.673,0.587C65.908,20.997,65.94,22.28,65.94,23.566z"/>
			<path fill-rule="evenodd" clip-rule="evenodd" fill="#727171" d="M82.836,23.596c0,1.286-0.024,2.572,0.014,3.859
				c0.014,0.531-0.253,0.553-0.643,0.522c-0.345-0.02-0.745,0.137-0.739-0.504c0.026-2.598,0.026-5.197,0-7.799
				c-0.006-0.604,0.337-0.518,0.725-0.544c0.462-0.032,0.671,0.079,0.657,0.607C82.813,21.022,82.836,22.309,82.836,23.596z"/>
			<path fill-rule="evenodd" clip-rule="evenodd" fill="#727171" d="M63.726,23.13c-0.004-0.77-0.468-1.113-1.151-0.713
				c-0.305,0.179-0.416,0.106-0.651-0.007c-0.93-0.443-1.828-0.332-2.664,0.249c-1.318,0.923-1.699,2.704-0.88,4.066
				c0.846,1.415,2.322,1.786,4.02,0.958c0.083,0.874-0.104,1.553-0.908,1.846c-0.743,0.269-1.44,0.092-1.913-0.605
				c-0.43-0.635-0.832-0.084-1.154,0.068c-0.427,0.209-0.011,0.504,0.125,0.697c0.739,1.043,2.009,1.426,3.293,1.039
				c1.166-0.355,1.836-1.27,1.87-2.694C63.75,26.395,63.726,24.764,63.726,23.13z M60.949,26.954
				c-0.92-0.008-1.644-0.814-1.627-1.82c0.012-0.999,0.778-1.806,1.682-1.774c0.868,0.034,1.547,0.837,1.538,1.828
				C62.532,26.172,61.829,26.954,60.949,26.954z"/>
			<path fill-rule="evenodd" clip-rule="evenodd" fill="#727171" d="M77.937,19.143c-0.86-0.029-1.716,0.027-2.57-0.021
				c-0.571-0.03-0.663,0.207-0.651,0.701c0.024,1.229,0.008,2.463,0.008,3.695c0,1.31,0.005,2.622-0.002,3.934
				c-0.006,0.34,0.044,0.521,0.462,0.542c0.647,0.034,1.043-0.062,0.895-0.842c-0.045-0.259-0.006-0.532-0.006-0.802
				c0-1.67,0-1.67,1.706-1.708c0.056,0,0.112,0,0.165,0c1.671-0.065,2.863-1.211,2.857-2.747
				C80.795,20.37,79.592,19.196,77.937,19.143z M78.953,22.965c-0.193,0.191-0.42,0.335-0.693,0.37
				c-0.189,0.024-0.37,0.056-0.557,0.064c-1.631,0.078-1.631,0.074-1.631-1.605c0.074-0.404-0.214-1.187,0.131-1.284
				c0.77-0.217,1.657-0.279,2.431,0.094C79.568,21.051,79.702,22.254,78.953,22.965z"/>
			<path fill-rule="evenodd" clip-rule="evenodd" fill="#727171" d="M88.743,24.428c-0.042-1.079-0.699-1.873-1.722-2.174
				c-1.161-0.344-2.518,0.012-3.082,0.808c-0.119,0.168-0.343,0.402-0.041,0.52c0.39,0.153,0.732,0.569,1.275,0.095
				c0.811-0.693,1.88-0.312,2.239,0.79c-1.055-0.352-1.993-0.376-2.891,0.126c-0.866,0.483-1.209,1.356-0.892,2.25
				c0.436,1.25,2.208,1.722,3.381,0.92c0.129-0.09,0.293-0.622,0.482,0.038c0.117,0.409,0.661,0.141,1.006,0.159
				c0.332,0.018,0.245-0.287,0.245-0.48C88.753,26.461,88.777,25.445,88.743,24.428z M85.856,26.941
				c-0.464-0.038-0.942-0.139-0.957-0.752c-0.008-0.523,0.595-0.897,1.46-0.887c0.304,0.143,0.874-0.088,0.997,0.466
				C87.463,26.278,86.531,26.994,85.856,26.941z"/>
			<path fill-rule="evenodd" clip-rule="evenodd" fill="#727171" d="M70.653,26.501c-0.802,0.77-1.794,0.571-2.487-0.424
				c1.203-0.504,2.336-0.982,3.472-1.451c0.263-0.108,0.484-0.169,0.367-0.559c-0.263-0.894-1.258-1.772-2.208-1.893
				c-1.336-0.168-2.54,0.527-3.022,1.757c-0.521,1.337-0.108,2.872,0.993,3.682c1.097,0.801,2.708,0.749,3.724-0.153
				c0.212-0.187,0.743-0.386,0.349-0.766C71.56,26.423,71.236,25.939,70.653,26.501z M70.097,23.51
				c0.133,0.084,0.292,0.207,0.317,0.335c0.038,0.177-0.183,0.22-0.317,0.279c-0.7,0.29-1.396,0.57-2.136,0.87
				C68.104,23.683,69.199,22.972,70.097,23.51z"/>
			<path fill-rule="evenodd" clip-rule="evenodd" fill="#727171" d="M47.836,22.148c-1.745,0.014-3.008,1.316-2.99,3.074
				c0.018,1.705,1.308,2.951,3.034,2.941c1.712-0.008,2.987-1.284,2.996-2.99C50.882,23.436,49.574,22.138,47.836,22.148z
				 M47.884,26.95c-0.908,0.02-1.696-0.79-1.712-1.762c-0.022-0.962,0.741-1.804,1.653-1.828c0.92-0.02,1.684,0.775,1.702,1.766
				C49.542,26.122,48.808,26.932,47.884,26.95z"/>
			<path fill-rule="evenodd" clip-rule="evenodd" fill="#727171" d="M54.44,22.148c-1.713-0.008-3.008,1.246-3.032,2.949
				c-0.024,1.764,1.235,3.058,2.989,3.066c1.727,0.01,3.01-1.236,3.026-2.941C57.444,23.458,56.188,22.162,54.44,22.148z
				 M54.414,26.954c-0.916-0.004-1.68-0.818-1.68-1.8c0.004-0.968,0.774-1.796,1.688-1.794c0.908,0.002,1.68,0.832,1.68,1.8
				C56.102,26.13,55.33,26.954,54.414,26.954z"/>
			<path fill-rule="evenodd" clip-rule="evenodd" fill="#727171" d="M93.298,22.403c-0.419,1.045-1.028,2.57-1.471,3.698
				c-0.13-0.279-0.188-0.387-0.237-0.501c-0.399-0.971-0.861-2.122-1.27-3.08c-0.02-0.038-0.048-0.079-0.084-0.117h-1.4
				c0.046,0.263,0.234,0.559,0.295,0.699c0.567,1.358,1.155,2.702,1.77,4.039c0.165,0.375,0.183,0.688-0.004,1.062
				c-0.257,0.504-0.711,1.583-1.042,2.343h1.398c1.091-2.478,2.324-5.32,3.395-7.785c0.024-0.061,0.103-0.212,0.159-0.358H93.298z"
				/>
		</g>
	</g>
</g>
</svg>
