<?xml version="1.0" encoding="utf-8"?>
<!-- Generator: Adobe Illustrator 16.0.0, SVG Export Plug-In . SVG Version: 6.00 Build 0)  -->
<!DOCTYPE svg PUBLIC "-//W3C//DTD SVG 1.1//EN" "http://www.w3.org/Graphics/SVG/1.1/DTD/svg11.dtd">
<svg version="1.1" id="圖層_1" xmlns="http://www.w3.org/2000/svg" xmlns:xlink="http://www.w3.org/1999/xlink" x="0px" y="0px"
	 width="640px" height="1096px" viewBox="0 0 640 1096" enable-background="new 0 0 640 1096" xml:space="preserve">
<g>
	<defs>
		<rect id="SVGID_5_" x="-1601" y="-1" width="642" height="1098"/>
	</defs>
	<clipPath id="SVGID_2_">
		<use xlink:href="#SVGID_5_"  overflow="visible"/>
	</clipPath>
	<g clip-path="url(#SVGID_2_)">
		<rect x="-1880.775" y="-38.892" fill="#F7D793" width="2040.888" height="1148.927"/>
	</g>
</g>
<g>
	<defs>
		<rect id="SVGID_27_" x="-1" width="642" height="1098"/>
	</defs>
	<clipPath id="SVGID_4_">
		<use xlink:href="#SVGID_27_"  overflow="visible"/>
	</clipPath>
	<g id="圖層_1_10_" clip-path="url(#SVGID_4_)">
		<polygon fill="#D13C3D" points="-970.151,-6.156 650.395,-6.156 674.398,1115.521 -946.147,1115.521 		"/>
		<g>
			<g>
				<defs>
					<polygon id="SVGID_29_" points="-970.151,-6.156 650.395,-6.156 674.398,1115.521 -946.147,1115.521 					"/>
				</defs>
				<clipPath id="SVGID_6_">
					<use xlink:href="#SVGID_29_"  overflow="visible"/>
				</clipPath>
				<g opacity="0.5" clip-path="url(#SVGID_6_)">
					
						<linearGradient id="SVGID_8_" gradientUnits="userSpaceOnUse" x1="-130.3086" y1="13452.3896" x2="-254.2468" y2="13196.9268" gradientTransform="matrix(1 0 0 -1 544.29 13502.7461)">
						<stop  offset="0" style="stop-color:#D33F3E"/>
						<stop  offset="1" style="stop-color:#D33F3E;stop-opacity:0.2"/>
					</linearGradient>
					<path fill="url(#SVGID_8_)" d="M533.194,76.236c-8.511-0.488-16.196-2.546-24.526-3.953
						c-20.607-3.479-39.408,2.603-59.865,7.118c-48.629,10.733-85.539,31.707-122.871,64.452
						c-56.136,49.241-111.022,100.901-165.986,151.269c18.314-4.702,36.352-17.023,53.676-24.648
						c17.828-7.848,35.993-15.264,52.846-25.057c15.35-8.92,30.552-19.09,46.34-27.161c43.587-22.283,80.429-51.195,120.393-78.715
						c21.345-14.701,43.16-29.13,66.196-40.336c9.918-4.821,34.44-10.052,36.541-22.283L533.194,76.236z"/>
					
						<linearGradient id="SVGID_10_" gradientUnits="userSpaceOnUse" x1="-61.4136" y1="13392.3916" x2="-134.7652" y2="13154.6318" gradientTransform="matrix(1 0 0 -1 544.29 13502.7461)">
						<stop  offset="0" style="stop-color:#D33F3E"/>
						<stop  offset="1" style="stop-color:#D33F3E;stop-opacity:0.2"/>
					</linearGradient>
					<path fill="url(#SVGID_10_)" d="M509.104,110.353c-4.916,1.116-9.945,0.372-15.094,0.456
						c-12.741,0.212-20.99,10.463-30.73,19.339c-23.159,21.093-36.06,51.045-44.904,93.877
						c-13.301,64.402-25.021,131.195-37.258,196.598c8.483-8.658,14.031-25.547,20.897-37.195
						c7.063-11.982,14.471-23.567,20.279-37.475c5.295-12.672,10.051-26.675,15.896-38.507
						c16.141-32.673,26.109-71.235,38.324-108.899c6.524-20.113,13.408-40.031,22.148-56.673
						c3.76-7.166,15.507-17.603,12.219-31.306L509.104,110.353z"/>
					
						<linearGradient id="SVGID_12_" gradientUnits="userSpaceOnUse" x1="-97.1555" y1="13423.7744" x2="-318.4734" y2="13384.5703" gradientTransform="matrix(1 0 0 -1 544.29 13502.7461)">
						<stop  offset="0" style="stop-color:#D33F3E"/>
						<stop  offset="1" style="stop-color:#D33F3E;stop-opacity:0.2"/>
					</linearGradient>
					<path fill="url(#SVGID_12_)" d="M529.114,91.337c-9.158,3.53-34.294-17.235-45.197-21.458
						c-22.061-8.546-42.465-11.021-65.924-12.733c-49.655-3.627-89.354,6.594-136.864,18.23c-12.263,3.002-26.571,8.52-39.371,8.418
						c-8.834-0.07-15.529-4.633-23.601-6.406c-16.486-3.621-35.041-3.872-51.388-5.49c14.154,2.283,27.651,13.957,41.125,19.116
						c11.476,4.395,24.059,7.421,35.773,10.658c14.639,4.047,28.745,6.791,43.834,7.888c39.438,2.859,76.409,8.344,114.783,16.233
						c28.802,5.922,63.84,11.107,91.534-0.217C506.369,120.444,529.114,91.337,529.114,91.337z"/>
					
						<linearGradient id="SVGID_14_" gradientUnits="userSpaceOnUse" x1="-97.4365" y1="13438.8555" x2="106.175" y2="13256.7432" gradientTransform="matrix(1 0 0 -1 544.29 13502.7461)">
						<stop  offset="0" style="stop-color:#D33F3E"/>
						<stop  offset="1" style="stop-color:#D33F3E;stop-opacity:0.2"/>
					</linearGradient>
					<path fill="url(#SVGID_14_)" d="M468.784,58.864c0.761,6.773-0.081,13.343-0.217,20.235
						c-0.339,17.051,8.152,30.002,15.392,44.685c17.21,34.904,42.459,57.791,78.955,77.697
						c54.874,29.932,111.873,58.209,167.653,86.909c-7.109-12.962-21.415-23.56-31.159-34.929
						c-10.026-11.696-19.693-23.775-31.426-34.163c-10.688-9.464-22.541-18.46-32.486-28.502
						c-27.455-27.726-60.235-48.325-92.147-71.755c-17.044-12.514-33.899-25.469-47.866-40.281
						c-6.014-6.378-14.52-24.032-26.444-22.23L468.784,58.864z"/>
					
						<linearGradient id="SVGID_16_" gradientUnits="userSpaceOnUse" x1="4.4282" y1="13420.7178" x2="128.3667" y2="13373.9238" gradientTransform="matrix(1 0 0 -1 544.29 13502.7461)">
						<stop  offset="0" style="stop-color:#D33F3E"/>
						<stop  offset="1" style="stop-color:#D33F3E;stop-opacity:0.2"/>
					</linearGradient>
					<path fill="url(#SVGID_16_)" d="M492.097,149.027c5.524-0.146,10.605,0.771,16.065,1.231c13.506,1.14,25.3-3.842,38.252-7.891
						c30.791-9.635,79.187-14.406,110.678-21.258c46.5-10.115,98.646-11.383,154.052-5.058
						c-11.562,4.056-152.29-156.098-294.804-28.099c-40.834,36.675-25.394,52.711-26.052,60.777L492.097,149.027z"/>
					
						<linearGradient id="SVGID_18_" gradientUnits="userSpaceOnUse" x1="-46.0222" y1="13341.1309" x2="3.3001" y2="13171.6641" gradientTransform="matrix(1 0 0 -1 544.29 13502.7461)">
						<stop  offset="0" style="stop-color:#D33F3E"/>
						<stop  offset="1" style="stop-color:#D33F3E;stop-opacity:0.2"/>
					</linearGradient>
					<path fill="url(#SVGID_18_)" d="M479.322,127.392c4.684,5.855,0.621,32.917,1.518,42.93
						c1.808,20.26,6.491,37.033,12.513,55.916c12.735,39.963,30.199,67.182,50.771,99.965c5.309,8.461,12.622,17.609,16.369,27.611
						c2.584,6.903,2.039,13.763,3.453,20.687c2.887,14.14,8.258,28.677,12.216,41.984c-2.938-11.843-0.468-26.564-1.604-38.915
						c-0.967-10.518-3.027-21.406-4.71-31.692c-2.101-12.86-4.767-24.83-8.64-36.973c-10.129-31.733-18.065-62.495-25.082-95.218
						c-5.269-24.558-12.796-53.703-27.308-71.176C502.242,134.591,479.322,127.392,479.322,127.392z"/>
				</g>
			</g>
			<g>
				<defs>
					<polygon id="SVGID_37_" points="-970.151,-6.156 650.395,-6.156 674.398,1115.521 -946.147,1115.521 					"/>
				</defs>
				<clipPath id="SVGID_20_">
					<use xlink:href="#SVGID_37_"  overflow="visible"/>
				</clipPath>
				<g clip-path="url(#SVGID_20_)">
					<path fill="#11755B" d="M495.123,109.017c-8.203-2.318-15.263-5.99-23.09-9.165c-19.365-7.859-39.039-5.99-59.986-6.011
						c-49.799-0.048-90.375,12.441-133.91,36.329c-65.463,35.922-130.231,74.476-194.794,111.754
						c18.899-0.626,39.173-8.75,57.738-12.446c19.104-3.803,38.443-7.112,57.013-13.025c16.921-5.386,33.965-12.023,51.124-16.486
						c47.378-12.319,89.602-32.57,134.577-50.791c24.02-9.729,48.442-19.095,73.356-25.046c10.726-2.563,35.801-2.36,40.5-13.848
						L495.123,109.017z"/>
					<path fill="#11755B" d="M514.095,97.763c-5.681,0.711-11.307-0.016-17.151-0.11c-14.456-0.229-24.788,7.431-36.676,13.977
						c-28.26,15.562-45.746,38.272-59.863,71.044c-21.23,49.275-40.9,100.445-61.02,150.524
						c10.44-6.421,18.342-19.279,27.235-28.054c9.153-9.028,18.655-17.738,26.569-28.291c7.211-9.613,13.939-20.269,21.697-29.218
						c21.414-24.709,36.398-54.154,53.843-82.835c9.315-15.318,19.022-30.469,30.517-43.039
						c4.947-5.412,19.258-13.105,16.842-23.776L514.095,97.763z"/>
					<path fill="#11755B" d="M507.77,105.224c-9.685-1.594-20.849-32.225-28.112-41.389c-14.7-18.538-31.041-31.004-50.406-44.357
						C388.27-8.787,348.858-20.071,301.998-34.094c-12.094-3.618-27.229-6.104-38.215-12.671
						c-7.584-4.533-11.049-11.858-17.111-17.473c-12.383-11.47-28.258-21.081-41.535-30.752
						c11.049,9.134,16.779,26.035,25.787,37.306c7.67,9.601,16.989,18.579,25.452,27.302c10.577,10.904,21.352,20.413,33.809,28.995
						c32.563,22.433,61.669,45.881,90.766,72.112c21.841,19.689,49.43,41.9,79.047,46.155
						C473.418,118.81,507.77,105.224,507.77,105.224z"/>
					<path fill="#11755B" d="M464.358,84.753c6.024,6.031,10.391,12.68,15.668,19.278c13.058,16.317,31.14,24.296,49.405,34.545
						c43.433,24.368,84.937,33.294,134.593,33.716c74.668,0.636,150.017-1.367,224.562-2.354
						c-16.795-8.688-38.457-11.502-56.461-17.346c-18.529-6.016-37.018-12.573-56.111-16.487
						c-17.395-3.565-35.506-6.099-52.66-10.59c-47.359-12.393-94.095-15.347-142.236-21.422
						c-25.715-3.243-51.599-7.001-76.248-13.978c-10.611-3.005-32.391-15.43-42.104-7.703L464.358,84.753z"/>
					<path fill="#11755B" d="M479.358,100.544c5.524-0.146,10.605,0.771,16.065,1.232c13.503,1.139,25.301-3.843,38.25-7.893
						c30.792-9.633,79.188-14.405,110.681-21.256c46.497-10.117,98.646-11.383,154.05-5.059
						c-11.56,4.057-152.289-156.098-294.803-28.1c-40.836,36.677-25.396,52.713-26.054,60.778L479.358,100.544z"/>
					<path fill="#11755B" d="M479.184,113.118c5.209,3.26,4.172,24.019,6.132,31.167c3.96,14.466,10.356,25.737,18.286,38.257
						c16.776,26.502,36.797,42.597,60.452,62.094c6.106,5.03,14.247,10.12,18.989,16.628c3.273,4.493,3.485,9.647,5.617,14.415
						c4.352,9.732,11.178,19.21,16.488,28.098c-4.154-8.036-3.332-19.389-5.782-28.199c-2.087-7.504-5.276-15.037-8.036-22.213
						c-3.447-8.971-7.35-17.164-12.453-25.214c-13.334-21.038-24.424-41.852-34.828-64.306
						c-7.811-16.853-18.324-36.572-34.403-46.175C502.362,113.318,479.184,113.118,479.184,113.118z"/>
				</g>
			</g>
			<g>
				<defs>
					<polygon id="SVGID_39_" points="-970.151,-6.156 650.395,-6.156 674.398,1115.521 -946.147,1115.521 					"/>
				</defs>
				<clipPath id="SVGID_22_">
					<use xlink:href="#SVGID_39_"  overflow="visible"/>
				</clipPath>
				<path opacity="0.1" clip-path="url(#SVGID_22_)" fill="#D13C3D" enable-background="new    " d="M-1151.29,7.827
					c-62.19,169.507-66.734,360.133-43.074,537.439c11.346,85.021,13.164,157.741,56.146,227.849
					c19.552,31.891,64.765,277.985,92.276,299.688c45.435,35.833,31.522,75.958,81.526,101.545
					c71.596,36.634,214.821,41.22,286.778,76.49c72.748,35.658,160.885,29.075,239.297,36.205
					c110.73,10.07,455.331-9.818,566.618-12.729c67.424-1.764,134.663-16.979,201.886-17.563c29.947-0.261,61.955,8.75,91.57-0.464
					c3.563-46.237-35.813-64.558-50.007-111.397c-27.564-90.959-688.968-354.159-751.619-372.418
					c-127.407-37.129-270.319-63.212-354.813-191.724c-76.066-115.693-167.647-299.295-170.018-442.532
					c-1.196-72.438,54.867-216.042,7.032-263.534C-1117.171-343.216-1129.233-52.289-1151.29,7.827z"/>
			</g>
			<g>
				<defs>
					<polygon id="SVGID_41_" points="-970.151,-6.156 650.395,-6.156 674.398,1115.521 -946.147,1115.521 					"/>
				</defs>
				<clipPath id="SVGID_24_">
					<use xlink:href="#SVGID_41_"  overflow="visible"/>
				</clipPath>
			</g>
		</g>
		<g>
			<g>
				<defs>
					<polygon id="SVGID_43_" points="-969.309,-7 651.238,-7 675.242,1114.679 -945.305,1114.679 					"/>
				</defs>
				<clipPath id="SVGID_25_">
					<use xlink:href="#SVGID_43_"  overflow="visible"/>
				</clipPath>
				<path opacity="0.15" clip-path="url(#SVGID_25_)" fill="#D13C3D" enable-background="new    " d="M-311.17,286.63
					c-39.374,147.82-28.023,308.787,6.254,456.261c16.436,70.714,23.788,131.833,65.944,187.435
					c19.178,25.293,75.984,215.293,101.119,231.36c41.508,26.528,32.876,61.452,77.454,78.98
					c63.828,25.093,150.195-143.363,214.221-119.449c64.73,24.18,139.178,11.532,206.448,11.22
					c94.998-0.439,386.547-44.964,480.98-56.386c57.215-6.919,113.196-25.157,170.334-31.063c25.453-2.634,53.4,2.38,77.857-7.77
					c-0.66-39.243,0.217,109.277-15.595,70.958c-30.708-74.412-577.21-68.388-631.962-78.72
					c-111.343-21.015-278.224-110.348-360.354-211.807C7.592,726.309-10.031,461.087-23.479,340.602
					c-6.801-60.933-38.111-150.422-82.593-186.578C-310.165-11.868-297.206,234.206-311.17,286.63z"/>
				<path opacity="0.2" clip-path="url(#SVGID_25_)" fill="#D13C3D" enable-background="new    " d="M500.03,1186.321
					c-96.23,63.929-215.809,86.082-331.878,85.475c-55.656-0.291-101.89,5.458-153.624-20.362
					c-23.532-11.745-50.397-24.275-68.879-43.075c-30.521-31.045-53.44-16.529-78.282-52.058
					c64.245,91.882,29.256-22.812-98.11-210.643c-35.153-51.842-46.303-119.531-64.425-178.477
					c-25.594-83.244-72.894-347.325-90.385-432.261c-10.601-51.463-12.671-104.104-23.979-155.294
					c-5.037-22.806-16.286-46.271-15.613-69.7c28.578-7.247,46.986,20.908,79.026,27.113
					c62.223,12.047,206.921,491.625,229.334,537.489c45.573,93.274,122.701,360.207,218.524,411.874
					c86.265,46.516,218.106,98.172,308.962,85.927c45.948-6.196,126.888-62.924,165.184-31.197
					C751.596,1286.718,534.159,1163.645,500.03,1186.321z"/>
			</g>
		</g>
		<g>
			<path opacity="0.2" fill="#11755B" enable-background="new    " d="M503.602,97.588c4.572,1.336,25.774,6.839,29.791,8.882
				c4.039,2.053-2.355,7.428-5.375,9.018c-5.936,3.133-29.758,1.991-42.123,4.99c-7.325,1.775-18.27,9.787-29.492,22.548
				c-8.863,10.075-7.854-2.86-9.012-6.236c-1.221-3.557,7.869-18.174-15.525-19.88c-14.151-1.033-22.986-14.008-6.525-18.76
				c7.151-2.063,14.464-3.309,21.744-4.87C454.535,91.683,471.059,88.078,503.602,97.588z"/>
			<path fill="#11755B" d="M429.123,95.696c2.541,16.33,30.702,11.378,46.21,12.959c9.913,1.012,19.533-0.137,29.241-1.283
				c6.174-0.729,19.747-0.767,23.445-4.549c-6.07-1.859-7.266-0.262-11.223-4.407c-3.962-4.148-8.597-7.329-11.146-12.304
				c-3.761-7.345-3.648-16.127-5.238-23.895c-1.525-7.455-3.249-14.063-3.276-21.573c-0.01-2.897,0.328-5.57,1.108-8.323
				c0.283-0.992,2.337-4.489,2.167-5.137c-0.693-2.648-3.276-2.399-7.184-2.531c-1.801-0.063-9.919-0.775-11.336,0.074
				c-2.224,1.331-1.47,6.207-2.14,8.125c-1.433,4.105-3.007,8.021-3.866,12.29c-2.334,11.577-6.648,24.443-13.723,35.01
				c-2.224,3.317-4.496,5.913-8.555,7.968c-5.217,2.643-15.355,7.103-21.677,6.735L429.123,95.696z"/>
			<path opacity="0.2" fill="#11755B" enable-background="new    " d="M429.123,95.696c2.541,16.33,30.702,11.378,46.21,12.959
				c9.913,1.012,19.533-0.137,29.241-1.283c-52.172-11.137-41.957-11.385-29.006-34.778c5.776-10.439,4.762-44.711,13.672-48.166
				c-2.945-0.151-6.459-0.231-7.346,0.3c-2.224,1.331-1.469,6.207-2.141,8.125c-1.433,4.105-3.007,8.021-3.866,12.29
				c-2.333,11.577-6.647,24.443-13.722,35.01c-2.225,3.317-4.496,5.913-8.555,7.968C448.393,90.763,429.123,95.696,429.123,95.696z"
				/>
		</g>
	</g>
</g>
<g>
	<defs>
		<rect id="SVGID_247_" x="-801" width="642" height="1098"/>
	</defs>
	<clipPath id="SVGID_26_">
		<use xlink:href="#SVGID_247_"  overflow="visible"/>
	</clipPath>
	<g id="圖層_1_9_" clip-path="url(#SVGID_26_)">
		<g opacity="0.3" enable-background="new    ">
			<g>
				<defs>
					<rect id="SVGID_249_" x="-1472.086" y="-148.07" width="1984.174" height="1394.141"/>
				</defs>
				<clipPath id="SVGID_28_">
					<use xlink:href="#SVGID_249_"  overflow="visible"/>
				</clipPath>
			</g>
			<g>
				<defs>
					<rect id="SVGID_251_" x="-1472.086" y="-148.07" width="1984.174" height="1394.141"/>
				</defs>
				<clipPath id="SVGID_30_">
					<use xlink:href="#SVGID_251_"  overflow="visible"/>
				</clipPath>
			</g>
		</g>
	</g>
	<g id="圖層_1_5_" clip-path="url(#SVGID_26_)">
		<g opacity="0.3" enable-background="new    ">
			<g>
				<defs>
					<rect id="SVGID_255_" x="-1472.086" y="-1167.5" width="1984.174" height="1117"/>
				</defs>
				<clipPath id="SVGID_31_">
					<use xlink:href="#SVGID_255_"  overflow="visible"/>
				</clipPath>
				<g clip-path="url(#SVGID_31_)">
					<g opacity="0.9333">
						<path fill="none" stroke="#4B987E" stroke-width="9.2911" stroke-miterlimit="10" d="M-0.95-1238.303
							c0,26.15-20.646,26.15-20.646,52.301s20.646,26.15,20.646,52.301s-20.646,26.15-20.646,52.3
							c0,26.153,20.646,26.153,20.646,52.305c0,26.149-20.646,26.149-20.646,52.301S-0.95-950.645-0.95-924.493
							c0,26.149-20.646,26.149-20.646,52.3c0,26.151,20.646,26.151,20.646,52.302c0,26.151-20.646,26.151-20.646,52.304
							c0,26.148,20.646,26.148,20.646,52.295c0,26.15-20.646,26.15-20.646,52.299c0,26.153,20.646,26.153,20.646,52.306
							c0,26.149-20.646,26.149-20.646,52.299c0,26.151,20.646,26.151,20.646,52.301c0,26.151-20.646,26.15-20.646,52.3
							c0,26.15,20.646,26.15,20.646,52.301c0,26.152-20.646,26.152-20.646,52.303c0,26.152,20.646,26.152,20.646,52.305
							s-20.646,26.152-20.646,52.306c0,26.151,20.646,26.151,20.646,52.304s-20.646,26.152-20.646,52.307
							c0,26.15,20.646,26.15,20.646,52.304c0,26.152-20.646,26.152-20.646,52.305S-0.95-9.204-0.95,16.949
							c0,26.152-20.646,26.152-20.646,52.305c0,26.156,20.646,26.156,20.646,52.313s-20.646,26.156-20.646,52.313"/>
					</g>
					<g opacity="0.9429">
						<path fill="none" stroke="#4B987E" stroke-width="9.2911" stroke-miterlimit="10" d="M115.57-1229.931
							c0,26.149-20.646,26.149-20.646,52.301c0,26.149,20.646,26.149,20.646,52.301c0,26.149-20.646,26.149-20.646,52.3
							c0,26.151,20.646,26.151,20.646,52.303c0,26.15-20.646,26.15-20.646,52.301c0,26.152,20.646,26.152,20.646,52.304
							c0,26.15-20.646,26.15-20.646,52.301c0,26.151,20.646,26.151,20.646,52.302s-20.646,26.15-20.646,52.302
							c0,26.148,20.646,26.148,20.646,52.297s-20.646,26.148-20.646,52.298c0,26.151,20.646,26.151,20.646,52.305
							c0,26.148-20.646,26.148-20.646,52.299s20.646,26.15,20.646,52.302c0,26.149-20.646,26.149-20.646,52.3
							s20.646,26.15,20.646,52.301c0,26.151-20.646,26.151-20.646,52.303c0,26.152,20.646,26.152,20.646,52.305
							s-20.646,26.152-20.646,52.307c0,26.152,20.646,26.152,20.646,52.305c0,26.153-20.646,26.153-20.646,52.306
							s20.646,26.152,20.646,52.304c0,26.152-20.646,26.152-20.646,52.305c0,26.153,20.646,26.153,20.646,52.307
							c0,26.152-20.646,26.152-20.646,52.305c0,26.156,20.646,26.156,20.646,52.313s-20.646,26.156-20.646,52.313"/>
					</g>
					<g opacity="0.9524">
						<path fill="none" stroke="#4B987E" stroke-width="9.2911" stroke-miterlimit="10" d="M232.087-1221.559
							c0,26.15-20.646,26.15-20.646,52.301s20.646,26.15,20.646,52.301s-20.646,26.15-20.646,52.301
							c0,26.151,20.646,26.151,20.646,52.303c0,26.15-20.646,26.15-20.646,52.301c0,26.151,20.646,26.151,20.646,52.303
							c0,26.149-20.646,26.149-20.646,52.301c0,26.152,20.646,26.152,20.646,52.302c0,26.151-20.646,26.151-20.646,52.303
							c0,26.147,20.646,26.147,20.646,52.296c0,26.149-20.646,26.149-20.646,52.299c0,26.151,20.646,26.151,20.646,52.304
							c0,26.149-20.646,26.149-20.646,52.299c0,26.15,20.646,26.15,20.646,52.302c0,26.149-20.646,26.149-20.646,52.301
							c0,26.15,20.646,26.15,20.646,52.299c0,26.152-20.646,26.152-20.646,52.304c0,26.152,20.646,26.152,20.646,52.304
							c0,26.153-20.646,26.153-20.646,52.307c0,26.151,20.646,26.151,20.646,52.305c0,26.152-20.646,26.152-20.646,52.307
							c0,26.152,20.646,26.152,20.646,52.304c0,26.152-20.646,26.152-20.646,52.305c0,26.153,20.646,26.153,20.646,52.306
							c0,26.153-20.646,26.153-20.646,52.306c0,26.157,20.646,26.157,20.646,52.313c0,26.157-20.646,26.157-20.646,52.313"/>
					</g>
					<g opacity="0.9619">
						<path fill="none" stroke="#4B987E" stroke-width="9.2911" stroke-miterlimit="10" d="M348.607-1213.188
							c0,26.15-20.646,26.15-20.646,52.301c0,26.149,20.646,26.149,20.646,52.301c0,26.149-20.646,26.149-20.646,52.301
							c0,26.152,20.646,26.152,20.646,52.304c0,26.149-20.646,26.149-20.646,52.301c0,26.15,20.646,26.15,20.646,52.302
							c0,26.15-20.646,26.15-20.646,52.301c0,26.151,20.646,26.151,20.646,52.302c0,26.151-20.646,26.151-20.646,52.304
							c0,26.148,20.646,26.148,20.646,52.295c0,26.15-20.646,26.15-20.646,52.299c0,26.152,20.646,26.152,20.646,52.304
							c0,26.149-20.646,26.149-20.646,52.299c0,26.151,20.646,26.151,20.646,52.303c0,26.15-20.646,26.15-20.646,52.3
							c0,26.15,20.646,26.15,20.646,52.301c0,26.151-20.646,26.151-20.646,52.303c0,26.152,20.646,26.152,20.646,52.305
							c0,26.154-20.646,26.154-20.646,52.307s20.646,26.152,20.646,52.304c0,26.153-20.646,26.153-20.646,52.306
							s20.646,26.152,20.646,52.305S327.96-36.393,327.96-10.24c0,26.153,20.646,26.153,20.646,52.306S327.96,68.218,327.96,94.371
							c0,26.156,20.646,26.156,20.646,52.312c0,26.156-20.646,26.156-20.646,52.313"/>
					</g>
					<g opacity="0.9714">
						<path fill="none" stroke="#4B987E" stroke-width="9.2911" stroke-miterlimit="10" d="M465.126-1204.815
							c0,26.151-20.646,26.151-20.646,52.301c0,26.151,20.646,26.151,20.646,52.301c0,26.15-20.646,26.15-20.646,52.301
							c0,26.151,20.646,26.151,20.646,52.303c0,26.15-20.646,26.15-20.646,52.302c0,26.152,20.646,26.152,20.646,52.304
							c0,26.15-20.646,26.15-20.646,52.301c0,26.151,20.646,26.151,20.646,52.302c0,26.149-20.646,26.149-20.646,52.301
							c0,26.148,20.646,26.148,20.646,52.297c0,26.149-20.646,26.149-20.646,52.299c0,26.151,20.646,26.151,20.646,52.304
							c0,26.149-20.646,26.149-20.646,52.3s20.646,26.15,20.646,52.301s-20.646,26.15-20.646,52.301s20.646,26.15,20.646,52.302
							s-20.646,26.151-20.646,52.302c0,26.152,20.646,26.152,20.646,52.304c0,26.153-20.646,26.153-20.646,52.306
							s20.646,26.152,20.646,52.305c0,26.153-20.646,26.153-20.646,52.307c0,26.151,20.646,26.151,20.646,52.302
							c0,26.151-20.646,26.151-20.646,52.306c0,26.15,20.646,26.15,20.646,52.305c0,26.153-20.646,26.153-20.646,52.305
							c0,26.157,20.646,26.157,20.646,52.314c0,26.156-20.646,26.156-20.646,52.313"/>
					</g>
				</g>
			</g>
		</g>
	</g>
</g>
</svg>
