<?xml version="1.0" encoding="utf-8"?>
<!-- Generator: Adobe Illustrator 16.0.0, SVG Export Plug-In . SVG Version: 6.00 Build 0)  -->
<!DOCTYPE svg PUBLIC "-//W3C//DTD SVG 1.1//EN" "http://www.w3.org/Graphics/SVG/1.1/DTD/svg11.dtd">
<svg version="1.1" id="圖層_1" xmlns="http://www.w3.org/2000/svg" xmlns:xlink="http://www.w3.org/1999/xlink" x="0px" y="0px"
	 width="640px" height="360px" viewBox="0 0 640 360" enable-background="new 0 0 640 360" xml:space="preserve">
<g>
	<defs>
		<rect id="SVGID_27_" y="420" width="640" height="360"/>
	</defs>
	<clipPath id="SVGID_2_">
		<use xlink:href="#SVGID_27_"  overflow="visible"/>
	</clipPath>
	<g id="圖層_1_2_" clip-path="url(#SVGID_2_)">
		<g>
			<g>
				<defs>
					<rect id="SVGID_39_" x="-0.334" y="419.667" width="640.667" height="360.666"/>
				</defs>
				<clipPath id="SVGID_4_">
					<use xlink:href="#SVGID_39_"  overflow="visible"/>
				</clipPath>
				<path opacity="0.1" clip-path="url(#SVGID_4_)" fill="#D13C3D" enable-background="new    " d="M-71.945,425.195
					c-24.586,67.013-26.381,142.375-17.028,212.472c4.485,33.611,5.204,62.361,22.196,90.076
					c7.73,12.608,16.115,27.123,26.991,35.703c17.962,14.167,12.462,30.029,32.229,40.144
					c28.305,14.483,84.929,16.297,113.376,30.239c28.761,14.098,63.604,11.495,94.604,14.314
					c43.775,3.98,180.01-3.882,224.006-5.033c26.656-0.696,53.238-6.712,79.814-6.942c11.839-0.103,24.492,3.46,36.2-0.182
					c1.409-18.28-14.157-25.522-19.769-44.04c-10.898-35.96-262.887-57.237-287.656-64.455
					c-50.369-14.68-106.867-24.991-140.271-75.797C62.676,605.956,26.47,533.371,25.533,476.743
					c-0.473-28.637,21.691-85.41,2.78-104.185C-58.456,286.414-63.225,401.429-71.945,425.195z"/>
			</g>
			<g>
				<defs>
					<rect id="SVGID_41_" x="-0.334" y="419.667" width="640.667" height="360.666"/>
				</defs>
				<clipPath id="SVGID_6_">
					<use xlink:href="#SVGID_41_"  overflow="visible"/>
				</clipPath>
				<path opacity="0.15" clip-path="url(#SVGID_6_)" fill="#D13C3D" enable-background="new    " d="M262.447,924.652
					c-47.116,27.637-103.161,33.095-156.598,27.244c-25.623-2.805-47.17-2.115-69.873-17.604
					c-10.327-7.047-22.154-14.648-29.848-25.01c-12.703-17.111-23.894-10.887-33.785-29.986
					c-14.164-27.347-22.223-83.379-36-110.894c-13.93-27.817-16.112-62.479-21.888-93.065
					c-8.155-43.194-18.419-178.604-22.77-222.266c-2.637-26.453-1.294-53.094-4.269-79.444c-1.325-11.739-5.482-24.108-4.15-35.889
					c13.48-2.288,20.73,12.786,35.218,17.445c28.135,9.046,73.858,257.763,82.179,281.958
					c16.923,49.207,31.312,104.701,73.194,135.331c37.706,27.573,96.179,59.916,138.563,58.081
					c21.435-0.929,61.191-25.666,77.447-7.839C364.451,904.511,279.156,914.849,262.447,924.652z"/>
			</g>
		</g>
		<g>
			<g>
				<defs>
					<rect id="SVGID_43_" x="-0.001" y="419.333" width="640.667" height="360.667"/>
				</defs>
				<clipPath id="SVGID_8_">
					<use xlink:href="#SVGID_43_"  overflow="visible"/>
				</clipPath>
				<path opacity="0.18" clip-path="url(#SVGID_8_)" fill="#D13C3D" enable-background="new    " d="M-71.611,431.944
					c-24.586,72.65-26.382,154.353-17.029,230.346c4.485,36.44,5.205,67.608,22.197,97.656c7.729,13.668,16.114,29.404,26.99,38.706
					c17.962,15.357,12.463,32.555,32.23,43.521c28.305,15.702,84.928,17.668,113.375,32.784
					c28.761,15.282,63.604,12.462,94.604,15.519c43.777,4.314,180.012-4.209,224.007-5.456c26.656-0.757,53.238-7.277,79.814-7.527
					c11.839-0.112,24.492,3.75,36.2-0.199c1.408-19.818-14.158-27.668-19.769-47.745c-10.897-38.985-262.887-62.052-287.655-69.877
					c-50.369-15.914-106.869-27.093-140.272-82.173c-30.071-49.586-66.278-128.277-67.214-189.67
					c-0.474-31.044,21.691-92.595,2.779-112.949C-58.123,281.488-62.892,406.179-71.611,431.944z"/>
				<path opacity="0.2" clip-path="url(#SVGID_8_)" fill="#D13C3D" enable-background="new    " d="M262.78,924.319
					c-47.116,27.637-103.161,33.094-156.598,27.244c-25.623-2.806-47.17-2.115-69.872-17.604
					c-10.328-7.047-22.155-14.647-29.848-25.009c-12.703-17.111-23.895-10.887-33.786-29.986
					c-14.163-27.348-22.222-83.379-36-110.894c-13.929-27.818-16.112-62.48-21.888-93.066
					c-8.155-43.194-18.418-178.604-22.77-222.265c-2.637-26.453-1.293-53.094-4.268-79.445c-1.326-11.739-5.483-24.107-4.15-35.888
					c13.479-2.289,20.729,12.787,35.217,17.445c28.135,9.046,73.858,257.763,82.18,281.958
					c16.922,49.206,31.311,104.7,73.193,135.328c37.706,27.574,96.18,59.917,138.563,58.083
					c21.435-0.928,61.192-25.667,77.447-7.838C364.785,904.178,279.49,914.516,262.78,924.319z"/>
			</g>
		</g>
	</g>
</g>
<g id="圖層_1_6_">
	<rect x="0" fill="#208567" width="640" height="360"/>
	<g opacity="0.3" enable-background="new    ">
		<g>
			<defs>
				<rect id="SVGID_45_" x="0" width="640" height="360"/>
			</defs>
			<clipPath id="SVGID_10_">
				<use xlink:href="#SVGID_45_"  overflow="visible"/>
			</clipPath>
			<g clip-path="url(#SVGID_10_)">
				<g opacity="0.819">
					<path fill="none" stroke="#096D52" stroke-width="4" stroke-miterlimit="10" d="M3.869-15.557c0,8.428-6.66,8.428-6.66,16.856
						c0,8.427,6.66,8.427,6.66,16.855c0,8.428-6.66,8.428-6.66,16.857c0,8.428,6.66,8.428,6.66,16.856s-6.66,8.428-6.66,16.856
						c0,8.429,6.66,8.429,6.66,16.856c0,8.428-6.66,8.428-6.66,16.856s6.66,8.429,6.66,16.856c0,8.429-6.66,8.429-6.66,16.856
						c0,8.428,6.66,8.428,6.66,16.854c0,8.429-6.66,8.429-6.66,16.855c0,8.429,6.66,8.429,6.66,16.858
						c0,8.427-6.66,8.427-6.66,16.855c0,8.428,6.66,8.428,6.66,16.856c0,8.428-6.66,8.428-6.66,16.855
						c0,8.429,6.66,8.429,6.66,16.856c0,8.428-6.66,8.428-6.66,16.856c0,8.429,6.66,8.429,6.66,16.857
						c0,8.429-6.66,8.429-6.66,16.858c0,8.428,6.66,8.428,6.66,16.856s-6.66,8.429-6.66,16.858c0,8.428,6.66,8.428,6.66,16.856
						s-6.66,8.429-6.66,16.858s6.66,8.429,6.66,16.858c0,8.428-6.66,8.428-6.66,16.857c0,8.43,6.66,8.43,6.66,16.86
						c0,8.429-6.66,8.429-6.66,16.86"/>
				</g>
				<g opacity="0.8286">
					<path fill="none" stroke="#096D52" stroke-width="4" stroke-miterlimit="10" d="M41.453-19.323c0,8.429-6.66,8.429-6.66,16.858
						c0,8.427,6.66,8.427,6.66,16.855c0,8.428-6.66,8.428-6.66,16.855c0,8.429,6.66,8.429,6.66,16.857s-6.66,8.428-6.66,16.856
						c0,8.429,6.66,8.429,6.66,16.857c0,8.428-6.66,8.428-6.66,16.856s6.66,8.428,6.66,16.856c0,8.429-6.66,8.429-6.66,16.857
						c0,8.427,6.66,8.427,6.66,16.855s-6.66,8.428-6.66,16.855c0,8.428,6.66,8.428,6.66,16.857c0,8.428-6.66,8.428-6.66,16.855
						s6.66,8.428,6.66,16.856s-6.66,8.429-6.66,16.855c0,8.429,6.66,8.429,6.66,16.857c0,8.429-6.66,8.428-6.66,16.856
						c0,8.429,6.66,8.429,6.66,16.857c0,8.428-6.66,8.428-6.66,16.858c0,8.428,6.66,8.428,6.66,16.856s-6.66,8.429-6.66,16.858
						c0,8.428,6.66,8.428,6.66,16.856c0,8.429-6.66,8.429-6.66,16.857c0,8.43,6.66,8.43,6.66,16.858s-6.66,8.429-6.66,16.858
						s6.66,8.43,6.66,16.859s-6.66,8.43-6.66,16.86"/>
				</g>
				<g opacity="0.8381">
					<path fill="none" stroke="#096D52" stroke-width="4" stroke-miterlimit="10" d="M79.037-23.089c0,8.428-6.66,8.428-6.66,16.856
						c0,8.428,6.66,8.428,6.66,16.856c0,8.428-6.66,8.428-6.66,16.855c0,8.428,6.66,8.428,6.66,16.856s-6.66,8.429-6.66,16.856
						c0,8.429,6.66,8.429,6.66,16.857c0,8.427-6.66,8.427-6.66,16.856c0,8.427,6.66,8.427,6.66,16.856s-6.66,8.429-6.66,16.857
						c0,8.427,6.66,8.427,6.66,16.854c0,8.429-6.66,8.429-6.66,16.855c0,8.429,6.66,8.429,6.66,16.857
						c0,8.429-6.66,8.429-6.66,16.856c0,8.429,6.66,8.429,6.66,16.856s-6.66,8.428-6.66,16.855c0,8.429,6.66,8.429,6.66,16.857
						c0,8.429-6.66,8.429-6.66,16.856c0,8.43,6.66,8.43,6.66,16.858s-6.66,8.429-6.66,16.856c0,8.43,6.66,8.43,6.66,16.858
						c0,8.429-6.66,8.429-6.66,16.858c0,8.428,6.66,8.428,6.66,16.856s-6.66,8.429-6.66,16.856c0,8.43,6.66,8.43,6.66,16.858
						s-6.66,8.429-6.66,16.858c0,8.43,6.66,8.43,6.66,16.86s-6.66,8.43-6.66,16.859"/>
				</g>
				<g opacity="0.8476">
					<path fill="none" stroke="#096D52" stroke-width="4" stroke-miterlimit="10" d="M116.621-26.854
						c0,8.428-6.66,8.428-6.66,16.856s6.66,8.428,6.66,16.857c0,8.427-6.66,8.427-6.66,16.855c0,8.428,6.66,8.428,6.66,16.856
						s-6.66,8.429-6.66,16.856c0,8.429,6.66,8.429,6.66,16.856c0,8.428-6.66,8.428-6.66,16.856s6.66,8.428,6.66,16.856
						c0,8.429-6.66,8.429-6.66,16.856c0,8.428,6.66,8.428,6.66,16.855c0,8.429-6.66,8.429-6.66,16.855
						c0,8.429,6.66,8.429,6.66,16.858c0,8.427-6.66,8.427-6.66,16.855c0,8.428,6.66,8.428,6.66,16.855s-6.66,8.428-6.66,16.855
						s6.66,8.428,6.66,16.857c0,8.428-6.66,8.428-6.66,16.856s6.66,8.428,6.66,16.857s-6.66,8.429-6.66,16.857
						c0,8.429,6.66,8.429,6.66,16.857c0,8.43-6.66,8.43-6.66,16.858c0,8.429,6.66,8.429,6.66,16.856c0,8.43-6.66,8.43-6.66,16.857
						c0,8.43,6.66,8.43,6.66,16.858s-6.66,8.429-6.66,16.857c0,8.43,6.66,8.43,6.66,16.861c0,8.43-6.66,8.43-6.66,16.859"/>
				</g>
				<g opacity="0.8571">
					<path fill="none" stroke="#096D52" stroke-width="4" stroke-miterlimit="10" d="M154.204-30.621
						c0,8.428-6.66,8.428-6.66,16.856s6.66,8.428,6.66,16.855c0,8.428-6.66,8.428-6.66,16.857c0,8.428,6.66,8.428,6.66,16.856
						c0,8.428-6.66,8.428-6.66,16.856c0,8.428,6.66,8.428,6.66,16.855c0,8.429-6.66,8.429-6.66,16.857
						c0,8.428,6.66,8.428,6.66,16.856s-6.66,8.429-6.66,16.857c0,8.426,6.66,8.426,6.66,16.853c0,8.428-6.66,8.428-6.66,16.855
						c0,8.43,6.66,8.43,6.66,16.858s-6.66,8.428-6.66,16.855c0,8.429,6.66,8.429,6.66,16.857c0,8.428-6.66,8.428-6.66,16.855
						s6.66,8.428,6.66,16.857c0,8.428-6.66,8.428-6.66,16.856s6.66,8.428,6.66,16.857s-6.66,8.429-6.66,16.857
						c0,8.429,6.66,8.429,6.66,16.857s-6.66,8.428-6.66,16.857s6.66,8.429,6.66,16.857c0,8.429-6.66,8.429-6.66,16.857
						s6.66,8.429,6.66,16.857s-6.66,8.429-6.66,16.857c0,8.43,6.66,8.43,6.66,16.86c0,8.43-6.66,8.431-6.66,16.86"/>
				</g>
				<g opacity="0.8667">
					<path fill="none" stroke="#096D52" stroke-width="4" stroke-miterlimit="10" d="M191.787-34.386
						c0,8.427-6.66,8.427-6.66,16.856c0,8.428,6.66,8.428,6.66,16.855s-6.66,8.428-6.66,16.855c0,8.429,6.66,8.429,6.66,16.858
						c0,8.427-6.66,8.427-6.66,16.855c0,8.429,6.66,8.429,6.66,16.857c0,8.429-6.66,8.429-6.66,16.856
						c0,8.428,6.66,8.428,6.66,16.856c0,8.428-6.66,8.428-6.66,16.858c0,8.426,6.66,8.426,6.66,16.853
						c0,8.429-6.66,8.429-6.66,16.855c0,8.429,6.66,8.429,6.66,16.858c0,8.427-6.66,8.427-6.66,16.855
						c0,8.429,6.66,8.429,6.66,16.858c0,8.426-6.66,8.426-6.66,16.855c0,8.428,6.66,8.428,6.66,16.856
						c0,8.427-6.66,8.427-6.66,16.856c0,8.429,6.66,8.429,6.66,16.857s-6.66,8.429-6.66,16.858c0,8.428,6.66,8.428,6.66,16.857
						s-6.66,8.429-6.66,16.857s6.66,8.429,6.66,16.857c0,8.428-6.66,8.428-6.66,16.857s6.66,8.429,6.66,16.858
						c0,8.428-6.66,8.428-6.66,16.857c0,8.43,6.66,8.43,6.66,16.86c0,8.43-6.66,8.43-6.66,16.86"/>
				</g>
				<g opacity="0.8762">
					<path fill="none" stroke="#096D52" stroke-width="4" stroke-miterlimit="10" d="M229.371-38.152
						c0,8.429-6.66,8.429-6.66,16.855c0,8.429,6.66,8.429,6.66,16.856s-6.66,8.428-6.66,16.856s6.66,8.429,6.66,16.856
						c0,8.428-6.66,8.428-6.66,16.856c0,8.429,6.66,8.429,6.66,16.857c0,8.427-6.66,8.427-6.66,16.855
						c0,8.428,6.66,8.428,6.66,16.857c0,8.428-6.66,8.428-6.66,16.856c0,8.427,6.66,8.427,6.66,16.854s-6.66,8.428-6.66,16.855
						s6.66,8.428,6.66,16.858c0,8.427-6.66,8.427-6.66,16.854c0,8.429,6.66,8.429,6.66,16.856c0,8.429-6.66,8.429-6.66,16.856
						c0,8.429,6.66,8.429,6.66,16.856c0,8.428-6.66,8.428-6.66,16.856s6.66,8.429,6.66,16.858c0,8.428-6.66,8.428-6.66,16.858
						c0,8.427,6.66,8.427,6.66,16.856s-6.66,8.429-6.66,16.858c0,8.428,6.66,8.428,6.66,16.856c0,8.429-6.66,8.429-6.66,16.858
						c0,8.428,6.66,8.428,6.66,16.858c0,8.427-6.66,8.427-6.66,16.857s6.66,8.43,6.66,16.86c0,8.43-6.66,8.43-6.66,16.859"/>
				</g>
				<g opacity="0.8857">
					<path fill="none" stroke="#096D52" stroke-width="4" stroke-miterlimit="10" d="M266.955-41.919
						c0,8.428-6.66,8.428-6.66,16.856c0,8.428,6.66,8.428,6.66,16.856s-6.66,8.428-6.66,16.856s6.66,8.428,6.66,16.856
						c0,8.429-6.66,8.429-6.66,16.856c0,8.429,6.66,8.429,6.66,16.858c0,8.427-6.66,8.427-6.66,16.855
						c0,8.429,6.66,8.429,6.66,16.856c0,8.429-6.66,8.429-6.66,16.856s6.66,8.428,6.66,16.855s-6.66,8.428-6.66,16.855
						s6.66,8.428,6.66,16.856c0,8.429-6.66,8.429-6.66,16.856c0,8.428,6.66,8.428,6.66,16.856s-6.66,8.428-6.66,16.856
						c0,8.427,6.66,8.427,6.66,16.856c0,8.428-6.66,8.428-6.66,16.856s6.66,8.429,6.66,16.856c0,8.43-6.66,8.43-6.66,16.858
						c0,8.429,6.66,8.429,6.66,16.858c0,8.428-6.66,8.428-6.66,16.857s6.66,8.429,6.66,16.856c0,8.429-6.66,8.429-6.66,16.857
						c0,8.43,6.66,8.43,6.66,16.858c0,8.429-6.66,8.429-6.66,16.857c0,8.43,6.66,8.43,6.66,16.86s-6.66,8.43-6.66,16.859"/>
				</g>
				<g opacity="0.8952">
					<path fill="none" stroke="#096D52" stroke-width="4" stroke-miterlimit="10" d="M304.539-45.685
						c0,8.428-6.66,8.428-6.66,16.856c0,8.427,6.66,8.427,6.66,16.856c0,8.428-6.66,8.428-6.66,16.855
						c0,8.428,6.66,8.428,6.66,16.856c0,8.429-6.66,8.429-6.66,16.857c0,8.428,6.66,8.428,6.66,16.856s-6.66,8.429-6.66,16.856
						c0,8.428,6.66,8.428,6.66,16.856c0,8.429-6.66,8.429-6.66,16.856c0,8.427,6.66,8.427,6.66,16.854
						c0,8.428-6.66,8.428-6.66,16.858c0,8.427,6.66,8.427,6.66,16.856c0,8.427-6.66,8.427-6.66,16.856
						c0,8.428,6.66,8.428,6.66,16.856s-6.66,8.428-6.66,16.855c0,8.429,6.66,8.429,6.66,16.857c0,8.428-6.66,8.428-6.66,16.856
						c0,8.429,6.66,8.429,6.66,16.856c0,8.43-6.66,8.43-6.66,16.859s6.66,8.429,6.66,16.856c0,8.43-6.66,8.43-6.66,16.858
						s6.66,8.429,6.66,16.856c0,8.429-6.66,8.429-6.66,16.857c0,8.43,6.66,8.43,6.66,16.857c0,8.43-6.66,8.43-6.66,16.858
						c0,8.43,6.66,8.43,6.66,16.859c0,8.431-6.66,8.431-6.66,16.86"/>
				</g>
				<g opacity="0.9048">
					<path fill="none" stroke="#096D52" stroke-width="4" stroke-miterlimit="10" d="M342.122-49.45c0,8.427-6.66,8.427-6.66,16.856
						c0,8.427,6.66,8.427,6.66,16.856c0,8.428-6.66,8.428-6.66,16.857c0,8.427,6.66,8.427,6.66,16.856
						c0,8.428-6.66,8.428-6.66,16.856c0,8.428,6.66,8.428,6.66,16.856c0,8.428-6.66,8.428-6.66,16.856
						c0,8.429,6.66,8.429,6.66,16.856c0,8.429-6.66,8.429-6.66,16.857c0,8.427,6.66,8.427,6.66,16.854s-6.66,8.428-6.66,16.855
						c0,8.429,6.66,8.429,6.66,16.857c0,8.428-6.66,8.428-6.66,16.856s6.66,8.428,6.66,16.856s-6.66,8.428-6.66,16.855
						c0,8.429,6.66,8.429,6.66,16.856c0,8.429-6.66,8.429-6.66,16.856c0,8.429,6.66,8.429,6.66,16.857c0,8.43-6.66,8.43-6.66,16.857
						c0,8.43,6.66,8.43,6.66,16.857c0,8.43-6.66,8.43-6.66,16.858s6.66,8.429,6.66,16.856c0,8.429-6.66,8.429-6.66,16.857
						c0,8.43,6.66,8.43,6.66,16.857c0,8.43-6.66,8.43-6.66,16.858c0,8.43,6.66,8.43,6.66,16.859c0,8.431-6.66,8.431-6.66,16.861"/>
				</g>
				<g opacity="0.9143">
					<path fill="none" stroke="#096D52" stroke-width="4" stroke-miterlimit="10" d="M379.706-53.217
						c0,8.428-6.66,8.428-6.66,16.856s6.66,8.428,6.66,16.855c0,8.428-6.66,8.428-6.66,16.856c0,8.429,6.66,8.429,6.66,16.857
						c0,8.429-6.66,8.429-6.66,16.857c0,8.428,6.66,8.428,6.66,16.856c0,8.428-6.66,8.428-6.66,16.856s6.66,8.428,6.66,16.856
						s-6.66,8.428-6.66,16.857c0,8.427,6.66,8.427,6.66,16.854c0,8.429-6.66,8.429-6.66,16.856c0,8.428,6.66,8.428,6.66,16.857
						c0,8.428-6.66,8.428-6.66,16.855c0,8.428,6.66,8.428,6.66,16.856c0,8.429-6.66,8.429-6.66,16.857s6.66,8.428,6.66,16.855
						c0,8.429-6.66,8.429-6.66,16.856c0,8.429,6.66,8.429,6.66,16.857s-6.66,8.429-6.66,16.857s6.66,8.429,6.66,16.858
						c0,8.429-6.66,8.429-6.66,16.857c0,8.428,6.66,8.428,6.66,16.857s-6.66,8.429-6.66,16.858c0,8.428,6.66,8.428,6.66,16.857
						c0,8.428-6.66,8.428-6.66,16.857c0,8.431,6.66,8.431,6.66,16.86s-6.66,8.43-6.66,16.859"/>
				</g>
				<g opacity="0.9238">
					<path fill="none" stroke="#096D52" stroke-width="4" stroke-miterlimit="10" d="M417.29-56.983c0,8.427-6.66,8.427-6.66,16.856
						c0,8.428,6.66,8.428,6.66,16.856c0,8.428-6.66,8.428-6.66,16.855s6.66,8.428,6.66,16.856c0,8.429-6.66,8.429-6.66,16.856
						c0,8.428,6.66,8.428,6.66,16.857c0,8.428-6.66,8.428-6.66,16.855c0,8.429,6.66,8.429,6.66,16.856
						c0,8.429-6.66,8.429-6.66,16.856c0,8.428,6.66,8.428,6.66,16.855c0,8.428-6.66,8.428-6.66,16.855
						c0,8.429,6.66,8.429,6.66,16.858c0,8.428-6.66,8.428-6.66,16.855c0,8.428,6.66,8.428,6.66,16.856
						c0,8.428-6.66,8.428-6.66,16.856s6.66,8.428,6.66,16.856c0,8.428-6.66,8.428-6.66,16.857c0,8.428,6.66,8.428,6.66,16.856
						c0,8.429-6.66,8.429-6.66,16.858c0,8.428,6.66,8.428,6.66,16.856c0,8.429-6.66,8.429-6.66,16.859
						c0,8.427,6.66,8.427,6.66,16.856c0,8.428-6.66,8.428-6.66,16.857s6.66,8.429,6.66,16.858c0,8.428-6.66,8.428-6.66,16.857
						c0,8.43,6.66,8.43,6.66,16.859s-6.66,8.43-6.66,16.86"/>
				</g>
				<g opacity="0.9333">
					<path fill="none" stroke="#096D52" stroke-width="4" stroke-miterlimit="10" d="M454.873-60.749
						c0,8.429-6.66,8.429-6.66,16.856c0,8.428,6.66,8.428,6.66,16.856c0,8.428-6.66,8.428-6.66,16.855
						c0,8.429,6.66,8.429,6.66,16.857c0,8.428-6.66,8.428-6.66,16.855c0,8.429,6.66,8.429,6.66,16.857
						c0,8.428-6.66,8.428-6.66,16.855c0,8.428,6.66,8.428,6.66,16.856c0,8.429-6.66,8.429-6.66,16.857s6.66,8.428,6.66,16.855
						s-6.66,8.428-6.66,16.855c0,8.429,6.66,8.429,6.66,16.857c0,8.428-6.66,8.428-6.66,16.855c0,8.428,6.66,8.428,6.66,16.856
						c0,8.428-6.66,8.428-6.66,16.855c0,8.429,6.66,8.429,6.66,16.857c0,8.427-6.66,8.427-6.66,16.856s6.66,8.429,6.66,16.857
						s-6.66,8.429-6.66,16.858c0,8.428,6.66,8.428,6.66,16.857c0,8.428-6.66,8.428-6.66,16.858c0,8.427,6.66,8.427,6.66,16.856
						s-6.66,8.429-6.66,16.857s6.66,8.429,6.66,16.857c0,8.429-6.66,8.429-6.66,16.859c0,8.429,6.66,8.429,6.66,16.859
						s-6.66,8.43-6.66,16.859"/>
				</g>
				<g opacity="0.9429">
					<path fill="none" stroke="#096D52" stroke-width="4" stroke-miterlimit="10" d="M492.457-64.514
						c0,8.427-6.66,8.427-6.66,16.856c0,8.427,6.66,8.427,6.66,16.855c0,8.429-6.66,8.429-6.66,16.856s6.66,8.428,6.66,16.857
						c0,8.429-6.66,8.429-6.66,16.856c0,8.428,6.66,8.428,6.66,16.857c0,8.428-6.66,8.428-6.66,16.855
						c0,8.428,6.66,8.428,6.66,16.856s-6.66,8.429-6.66,16.856s6.66,8.428,6.66,16.855c0,8.428-6.66,8.428-6.66,16.855
						c0,8.429,6.66,8.429,6.66,16.858c0,8.427-6.66,8.427-6.66,16.856c0,8.428,6.66,8.428,6.66,16.856
						c0,8.427-6.66,8.427-6.66,16.856c0,8.428,6.66,8.428,6.66,16.857c0,8.427-6.66,8.427-6.66,16.856s6.66,8.429,6.66,16.856
						c0,8.429-6.66,8.429-6.66,16.858c0,8.428,6.66,8.428,6.66,16.858c0,8.428-6.66,8.428-6.66,16.856
						c0,8.429,6.66,8.429,6.66,16.858c0,8.429-6.66,8.429-6.66,16.857c0,8.429,6.66,8.429,6.66,16.858
						c0,8.429-6.66,8.429-6.66,16.857c0,8.431,6.66,8.431,6.66,16.86s-6.66,8.43-6.66,16.859"/>
				</g>
				<g opacity="0.9524">
					<path fill="none" stroke="#096D52" stroke-width="4" stroke-miterlimit="10" d="M530.041-68.281
						c0,8.428-6.66,8.428-6.66,16.856c0,8.428,6.66,8.428,6.66,16.855c0,8.428-6.66,8.428-6.66,16.856s6.66,8.429,6.66,16.856
						s-6.66,8.428-6.66,16.856s6.66,8.429,6.66,16.856c0,8.429-6.66,8.429-6.66,16.857c0,8.428,6.66,8.428,6.66,16.856
						c0,8.427-6.66,8.427-6.66,16.856c0,8.427,6.66,8.427,6.66,16.854c0,8.428-6.66,8.428-6.66,16.856s6.66,8.428,6.66,16.857
						c0,8.428-6.66,8.428-6.66,16.855c0,8.429,6.66,8.429,6.66,16.856c0,8.428-6.66,8.428-6.66,16.856s6.66,8.428,6.66,16.856
						c0,8.427-6.66,8.427-6.66,16.856c0,8.429,6.66,8.429,6.66,16.858c0,8.428-6.66,8.428-6.66,16.857
						c0,8.429,6.66,8.429,6.66,16.857c0,8.429-6.66,8.429-6.66,16.857c0,8.429,6.66,8.429,6.66,16.857
						c0,8.428-6.66,8.428-6.66,16.858c0,8.428,6.66,8.428,6.66,16.857c0,8.43-6.66,8.43-6.66,16.858c0,8.43,6.66,8.43,6.66,16.86
						c0,8.429-6.66,8.429-6.66,16.86"/>
				</g>
				<g opacity="0.9619">
					<path fill="none" stroke="#096D52" stroke-width="4" stroke-miterlimit="10" d="M567.624-72.047
						c0,8.429-6.659,8.429-6.659,16.856c0,8.428,6.659,8.428,6.659,16.855c0,8.429-6.659,8.429-6.659,16.856
						c0,8.429,6.659,8.429,6.659,16.856c0,8.428-6.659,8.428-6.659,16.856s6.659,8.429,6.659,16.856
						c0,8.427-6.659,8.427-6.659,16.856c0,8.429,6.659,8.429,6.659,16.857c0,8.427-6.659,8.427-6.659,16.856
						c0,8.427,6.659,8.427,6.659,16.854c0,8.428-6.659,8.428-6.659,16.856s6.659,8.428,6.659,16.856s-6.659,8.428-6.659,16.856
						s6.659,8.428,6.659,16.856c0,8.428-6.659,8.428-6.659,16.856c0,8.428,6.659,8.428,6.659,16.856s-6.659,8.428-6.659,16.856
						c0,8.429,6.659,8.429,6.659,16.858c0,8.428-6.659,8.428-6.659,16.857c0,8.429,6.659,8.429,6.659,16.857
						s-6.659,8.429-6.659,16.857s6.659,8.429,6.659,16.857c0,8.428-6.659,8.428-6.659,16.858c0,8.428,6.659,8.428,6.659,16.857
						s-6.659,8.429-6.659,16.857c0,8.43,6.659,8.43,6.659,16.86c0,8.43-6.659,8.43-6.659,16.859"/>
				</g>
				<g opacity="0.9714">
					<path fill="none" stroke="#096D52" stroke-width="4" stroke-miterlimit="10" d="M605.208-75.813
						c0,8.428-6.66,8.428-6.66,16.856c0,8.429,6.66,8.429,6.66,16.856c0,8.428-6.66,8.428-6.66,16.856s6.66,8.428,6.66,16.857
						c0,8.428-6.66,8.428-6.66,16.856s6.66,8.428,6.66,16.857c0,8.428-6.66,8.428-6.66,16.855c0,8.429,6.66,8.429,6.66,16.856
						c0,8.429-6.66,8.429-6.66,16.856c0,8.428,6.66,8.428,6.66,16.855s-6.66,8.427-6.66,16.855c0,8.428,6.66,8.428,6.66,16.856
						c0,8.428-6.66,8.428-6.66,16.855c0,8.429,6.66,8.429,6.66,16.856c0,8.428-6.66,8.428-6.66,16.855
						c0,8.429,6.66,8.429,6.66,16.856c0,8.429-6.66,8.429-6.66,16.858c0,8.429,6.66,8.429,6.66,16.856
						c0,8.429-6.66,8.429-6.66,16.858c0,8.429,6.66,8.429,6.66,16.856c0,8.43-6.66,8.43-6.66,16.858c0,8.429,6.66,8.429,6.66,16.858
						c0,8.428-6.66,8.428-6.66,16.857s6.66,8.429,6.66,16.857s-6.66,8.429-6.66,16.857c0,8.43,6.66,8.43,6.66,16.861
						c0,8.43-6.66,8.43-6.66,16.86"/>
				</g>
				<g opacity="0.981">
					<path fill="none" stroke="#096D52" stroke-width="4" stroke-miterlimit="10" d="M642.791-79.579
						c0,8.428-6.66,8.428-6.66,16.855c0,8.429,6.66,8.429,6.66,16.856c0,8.428-6.66,8.428-6.66,16.856
						c0,8.429,6.66,8.429,6.66,16.857c0,8.428-6.66,8.428-6.66,16.856c0,8.427,6.66,8.427,6.66,16.856
						c0,8.428-6.66,8.428-6.66,16.856c0,8.429,6.66,8.429,6.66,16.857s-6.66,8.428-6.66,16.855c0,8.428,6.66,8.428,6.66,16.854
						c0,8.428-6.66,8.428-6.66,16.855c0,8.429,6.66,8.429,6.66,16.857c0,8.428-6.66,8.428-6.66,16.855
						c0,8.429,6.66,8.429,6.66,16.856c0,8.428-6.66,8.428-6.66,16.855c0,8.428,6.66,8.428,6.66,16.856s-6.66,8.429-6.66,16.856
						c0,8.429,6.66,8.429,6.66,16.857c0,8.43-6.66,8.43-6.66,16.858s6.66,8.429,6.66,16.856c0,8.429-6.66,8.429-6.66,16.859
						c0,8.428,6.66,8.428,6.66,16.857c0,8.428-6.66,8.428-6.66,16.857s6.66,8.429,6.66,16.857s-6.66,8.429-6.66,16.857
						c0,8.431,6.66,8.431,6.66,16.86s-6.66,8.43-6.66,16.859"/>
				</g>
			</g>
		</g>
		<g>
			<defs>
				<rect id="SVGID_47_" x="0" width="640" height="360"/>
			</defs>
			<clipPath id="SVGID_12_">
				<use xlink:href="#SVGID_47_"  overflow="visible"/>
			</clipPath>
			<g clip-path="url(#SVGID_12_)">
				<g opacity="0.819">
					<path fill="none" stroke="#4B987E" stroke-width="4" stroke-miterlimit="10" d="M23.516-55.197c0,8.428-6.66,8.428-6.66,16.856
						c0,8.428,6.66,8.428,6.66,16.855c0,8.428-6.66,8.428-6.66,16.856s6.66,8.428,6.66,16.856s-6.66,8.428-6.66,16.856
						c0,8.429,6.66,8.429,6.66,16.857c0,8.428-6.66,8.428-6.66,16.856c0,8.428,6.66,8.428,6.66,16.857
						c0,8.428-6.66,8.428-6.66,16.857c0,8.427,6.66,8.427,6.66,16.854c0,8.427-6.66,8.427-6.66,16.855s6.66,8.428,6.66,16.857
						c0,8.428-6.66,8.428-6.66,16.855s6.66,8.428,6.66,16.856c0,8.429-6.66,8.429-6.66,16.855c0,8.429,6.66,8.429,6.66,16.857
						s-6.66,8.428-6.66,16.857c0,8.428,6.66,8.428,6.66,16.856c0,8.429-6.66,8.429-6.66,16.858c0,8.428,6.66,8.428,6.66,16.856
						c0,8.429-6.66,8.429-6.66,16.858c0,8.428,6.66,8.428,6.66,16.856c0,8.429-6.66,8.429-6.66,16.859
						c0,8.427,6.66,8.427,6.66,16.857c0,8.429-6.66,8.429-6.66,16.858s6.66,8.429,6.66,16.859c0,8.431-6.66,8.431-6.66,16.86"/>
				</g>
				<g opacity="0.8286">
					<path fill="none" stroke="#4B987E" stroke-width="4" stroke-miterlimit="10" d="M61.099-52.499c0,8.427-6.66,8.427-6.66,16.855
						c0,8.429,6.66,8.429,6.66,16.856c0,8.429-6.66,8.429-6.66,16.857s6.66,8.428,6.66,16.857c0,8.428-6.66,8.428-6.66,16.855
						c0,8.429,6.66,8.429,6.66,16.856c0,8.429-6.66,8.429-6.66,16.856c0,8.428,6.66,8.428,6.66,16.856
						c0,8.429-6.66,8.429-6.66,16.857c0,8.428,6.66,8.428,6.66,16.854c0,8.429-6.66,8.429-6.66,16.855
						c0,8.429,6.66,8.429,6.66,16.858c0,8.427-6.66,8.427-6.66,16.855c0,8.428,6.66,8.428,6.66,16.856
						c0,8.428-6.66,8.428-6.66,16.855s6.66,8.428,6.66,16.856s-6.66,8.429-6.66,16.856c0,8.429,6.66,8.429,6.66,16.857
						s-6.66,8.429-6.66,16.857s6.66,8.429,6.66,16.857s-6.66,8.429-6.66,16.858c0,8.428,6.66,8.428,6.66,16.857
						s-6.66,8.429-6.66,16.857s6.66,8.429,6.66,16.858c0,8.429-6.66,8.429-6.66,16.856c0,8.432,6.66,8.432,6.66,16.861
						s-6.66,8.43-6.66,16.86"/>
				</g>
				<g opacity="0.8381">
					<path fill="none" stroke="#4B987E" stroke-width="4" stroke-miterlimit="10" d="M98.682-49.801
						c0,8.428-6.659,8.428-6.659,16.856s6.659,8.428,6.659,16.855c0,8.428-6.659,8.428-6.659,16.856
						c0,8.429,6.659,8.429,6.659,16.857c0,8.428-6.659,8.428-6.659,16.855c0,8.429,6.659,8.429,6.659,16.857
						c0,8.428-6.659,8.428-6.659,16.855c0,8.429,6.659,8.429,6.659,16.857c0,8.427-6.659,8.427-6.659,16.856
						c0,8.427,6.659,8.427,6.659,16.854s-6.659,8.428-6.659,16.855s6.659,8.428,6.659,16.857c0,8.428-6.659,8.428-6.659,16.855
						c0,8.428,6.659,8.428,6.659,16.856c0,8.429-6.659,8.429-6.659,16.856c0,8.429,6.659,8.429,6.659,16.856
						s-6.659,8.428-6.659,16.856c0,8.43,6.659,8.43,6.659,16.858c0,8.428-6.659,8.428-6.659,16.856c0,8.43,6.659,8.43,6.659,16.858
						s-6.659,8.429-6.659,16.858c0,8.429,6.659,8.429,6.659,16.857c0,8.428-6.659,8.428-6.659,16.857
						c0,8.429,6.659,8.429,6.659,16.857c0,8.428-6.659,8.428-6.659,16.857c0,8.43,6.659,8.43,6.659,16.859s-6.659,8.43-6.659,16.859
						"/>
				</g>
				<g opacity="0.8476">
					<path fill="none" stroke="#4B987E" stroke-width="4" stroke-miterlimit="10" d="M136.266-47.103
						c0,8.428-6.66,8.428-6.66,16.855s6.66,8.428,6.66,16.857c0,8.429-6.66,8.429-6.66,16.856c0,8.428,6.66,8.428,6.66,16.856
						c0,8.428-6.66,8.428-6.66,16.856c0,8.428,6.66,8.428,6.66,16.856c0,8.428-6.66,8.428-6.66,16.856
						c0,8.428,6.66,8.428,6.66,16.856s-6.66,8.429-6.66,16.856s6.66,8.428,6.66,16.855c0,8.429-6.66,8.429-6.66,16.856
						c0,8.428,6.66,8.428,6.66,16.856c0,8.429-6.66,8.429-6.66,16.855c0,8.429,6.66,8.429,6.66,16.857s-6.66,8.428-6.66,16.856
						s6.66,8.428,6.66,16.856c0,8.428-6.66,8.428-6.66,16.856s6.66,8.429,6.66,16.856c0,8.43-6.66,8.43-6.66,16.858
						s6.66,8.429,6.66,16.856c0,8.43-6.66,8.43-6.66,16.858c0,8.429,6.66,8.429,6.66,16.856c0,8.43-6.66,8.43-6.66,16.857
						c0,8.43,6.66,8.43,6.66,16.858c0,8.429-6.66,8.429-6.66,16.857c0,8.431,6.66,8.431,6.66,16.86c0,8.429-6.66,8.429-6.66,16.859"
						/>
				</g>
				<g opacity="0.8571">
					<path fill="none" stroke="#4B987E" stroke-width="4" stroke-miterlimit="10" d="M173.85-44.405c0,8.429-6.66,8.429-6.66,16.856
						c0,8.429,6.66,8.429,6.66,16.856s-6.66,8.428-6.66,16.855c0,8.43,6.66,8.43,6.66,16.857s-6.66,8.428-6.66,16.855
						c0,8.429,6.66,8.429,6.66,16.858c0,8.427-6.66,8.427-6.66,16.856c0,8.428,6.66,8.428,6.66,16.856
						c0,8.428-6.66,8.428-6.66,16.855s6.66,8.428,6.66,16.855s-6.66,8.428-6.66,16.855c0,8.429,6.66,8.429,6.66,16.858
						c0,8.427-6.66,8.427-6.66,16.855c0,8.428,6.66,8.428,6.66,16.855c0,8.428-6.66,8.428-6.66,16.856s6.66,8.429,6.66,16.856
						s-6.66,8.428-6.66,16.855c0,8.43,6.66,8.43,6.66,16.858s-6.66,8.429-6.66,16.857s6.66,8.429,6.66,16.857
						c0,8.429-6.66,8.429-6.66,16.858c0,8.428,6.66,8.428,6.66,16.857c0,8.428-6.66,8.428-6.66,16.857
						c0,8.428,6.66,8.428,6.66,16.858c0,8.427-6.66,8.427-6.66,16.857s6.66,8.43,6.66,16.86c0,8.429-6.66,8.429-6.66,16.859"/>
				</g>
				<g opacity="0.8667">
					<path fill="none" stroke="#4B987E" stroke-width="4" stroke-miterlimit="10" d="M211.434-41.706
						c0,8.428-6.66,8.428-6.66,16.855s6.66,8.428,6.66,16.856c0,8.428-6.66,8.428-6.66,16.856c0,8.428,6.66,8.428,6.66,16.856
						c0,8.428-6.66,8.428-6.66,16.855c0,8.429,6.66,8.429,6.66,16.856c0,8.429-6.66,8.429-6.66,16.857
						c0,8.428,6.66,8.428,6.66,16.855s-6.66,8.428-6.66,16.856c0,8.428,6.66,8.428,6.66,16.854c0,8.428-6.66,8.428-6.66,16.855
						c0,8.429,6.66,8.429,6.66,16.858c0,8.427-6.66,8.427-6.66,16.855c0,8.428,6.66,8.428,6.66,16.856
						c0,8.429-6.66,8.429-6.66,16.857c0,8.427,6.66,8.427,6.66,16.856c0,8.428-6.66,8.428-6.66,16.856
						c0,8.429,6.66,8.429,6.66,16.857c0,8.429-6.66,8.429-6.66,16.857c0,8.429,6.66,8.429,6.66,16.857c0,8.43-6.66,8.43-6.66,16.857
						c0,8.43,6.66,8.43,6.66,16.858c0,8.429-6.66,8.429-6.66,16.857c0,8.43,6.66,8.43,6.66,16.858c0,8.429-6.66,8.429-6.66,16.857
						c0,8.431,6.66,8.431,6.66,16.86c0,8.431-6.66,8.431-6.66,16.86"/>
				</g>
				<g opacity="0.8762">
					<path fill="none" stroke="#4B987E" stroke-width="4" stroke-miterlimit="10" d="M249.018-39.007
						c0,8.427-6.66,8.427-6.66,16.855c0,8.429,6.66,8.429,6.66,16.856s-6.66,8.428-6.66,16.855c0,8.429,6.66,8.429,6.66,16.858
						c0,8.427-6.66,8.427-6.66,16.855c0,8.429,6.66,8.429,6.66,16.857c0,8.428-6.66,8.428-6.66,16.856s6.66,8.428,6.66,16.857
						c0,8.428-6.66,8.428-6.66,16.855s6.66,8.428,6.66,16.855s-6.66,8.428-6.66,16.855c0,8.429,6.66,8.429,6.66,16.857
						c0,8.428-6.66,8.428-6.66,16.856c0,8.427,6.66,8.427,6.66,16.857c0,8.427-6.66,8.427-6.66,16.856
						c0,8.427,6.66,8.427,6.66,16.855c0,8.428-6.66,8.428-6.66,16.857c0,8.428,6.66,8.428,6.66,16.857s-6.66,8.429-6.66,16.858
						c0,8.428,6.66,8.428,6.66,16.857c0,8.428-6.66,8.428-6.66,16.857c0,8.429,6.66,8.429,6.66,16.858
						c0,8.427-6.66,8.427-6.66,16.856s6.66,8.429,6.66,16.858c0,8.427-6.66,8.427-6.66,16.857c0,8.43,6.66,8.43,6.66,16.859
						s-6.66,8.431-6.66,16.861"/>
				</g>
				<g opacity="0.8857">
					<path fill="none" stroke="#4B987E" stroke-width="4" stroke-miterlimit="10" d="M286.602-36.31c0,8.428-6.66,8.428-6.66,16.855
						c0,8.428,6.66,8.428,6.66,16.856c0,8.429-6.66,8.429-6.66,16.856c0,8.428,6.66,8.428,6.66,16.856c0,8.43-6.66,8.43-6.66,16.858
						c0,8.427,6.66,8.427,6.66,16.856c0,8.428-6.66,8.428-6.66,16.857c0,8.427,6.66,8.427,6.66,16.855
						c0,8.429-6.66,8.429-6.66,16.857c0,8.428,6.66,8.428,6.66,16.855c0,8.427-6.66,8.427-6.66,16.854
						c0,8.429,6.66,8.429,6.66,16.857c0,8.427-6.66,8.427-6.66,16.854c0,8.429,6.66,8.429,6.66,16.857
						c0,8.428-6.66,8.428-6.66,16.855s6.66,8.428,6.66,16.856s-6.66,8.428-6.66,16.857c0,8.428,6.66,8.428,6.66,16.857
						s-6.66,8.429-6.66,16.858s6.66,8.429,6.66,16.858c0,8.429-6.66,8.429-6.66,16.857c0,8.429,6.66,8.429,6.66,16.857
						s-6.66,8.429-6.66,16.857s6.66,8.429,6.66,16.857c0,8.43-6.66,8.43-6.66,16.858c0,8.43,6.66,8.43,6.66,16.859
						s-6.66,8.43-6.66,16.859"/>
				</g>
				<g opacity="0.8952">
					<path fill="none" stroke="#4B987E" stroke-width="4" stroke-miterlimit="10" d="M324.185-33.612
						c0,8.428-6.66,8.428-6.66,16.856s6.66,8.428,6.66,16.857c0,8.427-6.66,8.427-6.66,16.855c0,8.429,6.66,8.429,6.66,16.857
						c0,8.428-6.66,8.428-6.66,16.855c0,8.429,6.66,8.429,6.66,16.857c0,8.428-6.66,8.428-6.66,16.855
						c0,8.428,6.66,8.428,6.66,16.856c0,8.429-6.66,8.429-6.66,16.856c0,8.428,6.66,8.428,6.66,16.856
						c0,8.427-6.66,8.427-6.66,16.855c0,8.429,6.66,8.429,6.66,16.857c0,8.427-6.66,8.427-6.66,16.855s6.66,8.428,6.66,16.857
						c0,8.428-6.66,8.428-6.66,16.855c0,8.429,6.66,8.429,6.66,16.857c0,8.427-6.66,8.427-6.66,16.856s6.66,8.429,6.66,16.857
						c0,8.43-6.66,8.43-6.66,16.858c0,8.428,6.66,8.428,6.66,16.856c0,8.43-6.66,8.43-6.66,16.858c0,8.428,6.66,8.428,6.66,16.856
						c0,8.43-6.66,8.43-6.66,16.858c0,8.428,6.66,8.428,6.66,16.857s-6.66,8.429-6.66,16.858s6.66,8.429,6.66,16.859
						s-6.66,8.43-6.66,16.86"/>
				</g>
				<g opacity="0.9048">
					<path fill="none" stroke="#4B987E" stroke-width="4" stroke-miterlimit="10" d="M361.768-30.914
						c0,8.429-6.66,8.429-6.66,16.856c0,8.428,6.66,8.428,6.66,16.855c0,8.428-6.66,8.428-6.66,16.856
						c0,8.429,6.66,8.429,6.66,16.858c0,8.427-6.66,8.427-6.66,16.855c0,8.429,6.66,8.429,6.66,16.856
						c0,8.428-6.66,8.428-6.66,16.856c0,8.429,6.66,8.429,6.66,16.856c0,8.428-6.66,8.428-6.66,16.857
						c0,8.427,6.66,8.427,6.66,16.854c0,8.428-6.66,8.428-6.66,16.856c0,8.429,6.66,8.429,6.66,16.857
						c0,8.429-6.66,8.429-6.66,16.855c0,8.428,6.66,8.428,6.66,16.857c0,8.427-6.66,8.427-6.66,16.855
						c0,8.428,6.66,8.428,6.66,16.856c0,8.427-6.66,8.427-6.66,16.856c0,8.429,6.66,8.429,6.66,16.858
						c0,8.428-6.66,8.428-6.66,16.857c0,8.429,6.66,8.429,6.66,16.857c0,8.429-6.66,8.429-6.66,16.857
						c0,8.429,6.66,8.429,6.66,16.857c0,8.428-6.66,8.428-6.66,16.856s6.66,8.429,6.66,16.858c0,8.429-6.66,8.429-6.66,16.858
						s6.66,8.429,6.66,16.859c0,8.431-6.66,8.431-6.66,16.86"/>
				</g>
				<g opacity="0.9143">
					<path fill="none" stroke="#4B987E" stroke-width="4" stroke-miterlimit="10" d="M399.352-28.215
						c0,8.427-6.66,8.427-6.66,16.856c0,8.428,6.66,8.428,6.66,16.855c0,8.429-6.66,8.429-6.66,16.856
						c0,8.428,6.66,8.428,6.66,16.857c0,8.428-6.66,8.428-6.66,16.856s6.66,8.428,6.66,16.856c0,8.429-6.66,8.429-6.66,16.856
						c0,8.429,6.66,8.429,6.66,16.858c0,8.427-6.66,8.427-6.66,16.856c0,8.427,6.66,8.427,6.66,16.854
						c0,8.428-6.66,8.428-6.66,16.856c0,8.427,6.66,8.427,6.66,16.856c0,8.427-6.66,8.427-6.66,16.855
						c0,8.429,6.66,8.429,6.66,16.856s-6.66,8.428-6.66,16.855c0,8.429,6.66,8.429,6.66,16.857c0,8.428-6.66,8.428-6.66,16.856
						c0,8.429,6.66,8.429,6.66,16.857c0,8.43-6.66,8.43-6.66,16.858s6.66,8.429,6.66,16.857s-6.66,8.429-6.66,16.857
						c0,8.429,6.66,8.429,6.66,16.858c0,8.428-6.66,8.428-6.66,16.857s6.66,8.429,6.66,16.858c0,8.428-6.66,8.428-6.66,16.857
						s6.66,8.43,6.66,16.859s-6.66,8.43-6.66,16.86"/>
				</g>
				<g opacity="0.9238">
					<path fill="none" stroke="#4B987E" stroke-width="4" stroke-miterlimit="10" d="M436.936-25.516
						c0,8.427-6.66,8.427-6.66,16.855c0,8.428,6.66,8.428,6.66,16.856c0,8.428-6.66,8.428-6.66,16.855
						c0,8.429,6.66,8.429,6.66,16.857c0,8.428-6.66,8.428-6.66,16.856c0,8.428,6.66,8.428,6.66,16.856s-6.66,8.429-6.66,16.856
						c0,8.429,6.66,8.429,6.66,16.857c0,8.429-6.66,8.429-6.66,16.856c0,8.428,6.66,8.428,6.66,16.855
						c0,8.427-6.66,8.427-6.66,16.856c0,8.427,6.66,8.427,6.66,16.856c0,8.427-6.66,8.427-6.66,16.856
						c0,8.428,6.66,8.428,6.66,16.856s-6.66,8.428-6.66,16.855c0,8.429,6.66,8.429,6.66,16.857c0,8.428-6.66,8.428-6.66,16.856
						c0,8.43,6.66,8.43,6.66,16.857c0,8.43-6.66,8.43-6.66,16.857c0,8.43,6.66,8.43,6.66,16.857c0,8.43-6.66,8.43-6.66,16.858
						s6.66,8.429,6.66,16.856c0,8.429-6.66,8.429-6.66,16.857c0,8.43,6.66,8.43,6.66,16.857c0,8.429-6.66,8.429-6.66,16.858
						s6.66,8.43,6.66,16.859s-6.66,8.43-6.66,16.861"/>
				</g>
				<g opacity="0.9333">
					<path fill="none" stroke="#4B987E" stroke-width="4" stroke-miterlimit="10" d="M474.52-22.819c0,8.429-6.66,8.429-6.66,16.856
						c0,8.428,6.66,8.428,6.66,16.856c0,8.428-6.66,8.428-6.66,16.855c0,8.429,6.66,8.429,6.66,16.857
						c0,8.428-6.66,8.428-6.66,16.855c0,8.429,6.66,8.429,6.66,16.857c0,8.428-6.66,8.428-6.66,16.855
						c0,8.429,6.66,8.429,6.66,16.856c0,8.429-6.66,8.429-6.66,16.857c0,8.427,6.66,8.427,6.66,16.855
						c0,8.428-6.66,8.428-6.66,16.855c0,8.429,6.66,8.429,6.66,16.857c0,8.428-6.66,8.428-6.66,16.855
						c0,8.428,6.66,8.428,6.66,16.856c0,8.429-6.66,8.429-6.66,16.856c0,8.429,6.66,8.429,6.66,16.856s-6.66,8.428-6.66,16.856
						s6.66,8.429,6.66,16.857s-6.66,8.429-6.66,16.857s6.66,8.429,6.66,16.858c0,8.429-6.66,8.429-6.66,16.857
						c0,8.429,6.66,8.429,6.66,16.857s-6.66,8.429-6.66,16.856c0,8.43,6.66,8.43,6.66,16.858c0,8.429-6.66,8.429-6.66,16.858
						c0,8.43,6.66,8.43,6.66,16.86c0,8.43-6.66,8.43-6.66,16.859"/>
				</g>
				<g opacity="0.9429">
					<path fill="none" stroke="#4B987E" stroke-width="4" stroke-miterlimit="10" d="M512.104-20.121
						c0,8.427-6.66,8.427-6.66,16.856c0,8.428,6.66,8.428,6.66,16.855c0,8.427-6.66,8.427-6.66,16.856
						c0,8.429,6.66,8.429,6.66,16.857s-6.66,8.428-6.66,16.856c0,8.429,6.66,8.429,6.66,16.856c0,8.429-6.66,8.429-6.66,16.856
						c0,8.429,6.66,8.429,6.66,16.856s-6.66,8.428-6.66,16.856c0,8.428,6.66,8.428,6.66,16.855c0,8.427-6.66,8.427-6.66,16.854
						c0,8.429,6.66,8.429,6.66,16.858c0,8.427-6.66,8.427-6.66,16.855s6.66,8.428,6.66,16.856c0,8.428-6.66,8.428-6.66,16.856
						c0,8.428,6.66,8.428,6.66,16.855s-6.66,8.428-6.66,16.856s6.66,8.429,6.66,16.858c0,8.428-6.66,8.428-6.66,16.857
						s6.66,8.429,6.66,16.857s-6.66,8.428-6.66,16.857s6.66,8.429,6.66,16.857c0,8.428-6.66,8.428-6.66,16.857
						c0,8.429,6.66,8.429,6.66,16.857s-6.66,8.429-6.66,16.857c0,8.43,6.66,8.43,6.66,16.86c0,8.431-6.66,8.431-6.66,16.861"/>
				</g>
				<g opacity="0.9524">
					<path fill="none" stroke="#4B987E" stroke-width="4" stroke-miterlimit="10" d="M549.686-17.423
						c0,8.428-6.66,8.428-6.66,16.856s6.66,8.429,6.66,16.856c0,8.428-6.66,8.428-6.66,16.855c0,8.429,6.66,8.429,6.66,16.858
						c0,8.427-6.66,8.427-6.66,16.855c0,8.429,6.66,8.429,6.66,16.857c0,8.428-6.66,8.428-6.66,16.855
						c0,8.429,6.66,8.429,6.66,16.857s-6.66,8.428-6.66,16.856c0,8.427,6.66,8.427,6.66,16.855c0,8.427-6.66,8.427-6.66,16.855
						c0,8.428,6.66,8.428,6.66,16.856s-6.66,8.428-6.66,16.856c0,8.429,6.66,8.429,6.66,16.856c0,8.428-6.66,8.428-6.66,16.856
						s6.66,8.428,6.66,16.856s-6.66,8.428-6.66,16.856c0,8.428,6.66,8.428,6.66,16.857c0,8.429-6.66,8.429-6.66,16.858
						c0,8.429,6.66,8.429,6.66,16.856c0,8.43-6.66,8.43-6.66,16.858c0,8.429,6.66,8.429,6.66,16.857s-6.66,8.429-6.66,16.858
						c0,8.428,6.66,8.428,6.66,16.858c0,8.427-6.66,8.427-6.66,16.856c0,8.43,6.66,8.43,6.66,16.859c0,8.43-6.66,8.43-6.66,16.86"/>
				</g>
				<g opacity="0.9619">
					<path fill="none" stroke="#4B987E" stroke-width="4" stroke-miterlimit="10" d="M587.27-14.724c0,8.427-6.66,8.427-6.66,16.856
						c0,8.428,6.66,8.428,6.66,16.855s-6.66,8.428-6.66,16.857c0,8.428,6.66,8.428,6.66,16.856c0,8.427-6.66,8.427-6.66,16.856
						c0,8.428,6.66,8.428,6.66,16.856c0,8.428-6.66,8.428-6.66,16.856c0,8.429,6.66,8.429,6.66,16.857s-6.66,8.428-6.66,16.856
						c0,8.428,6.66,8.428,6.66,16.854c0,8.428-6.66,8.428-6.66,16.855c0,8.429,6.66,8.429,6.66,16.857
						c0,8.427-6.66,8.427-6.66,16.856c0,8.427,6.66,8.427,6.66,16.856s-6.66,8.429-6.66,16.855c0,8.429,6.66,8.429,6.66,16.856
						c0,8.429-6.66,8.429-6.66,16.857c0,8.428,6.66,8.428,6.66,16.857c0,8.429-6.66,8.429-6.66,16.857s6.66,8.429,6.66,16.857
						s-6.66,8.429-6.66,16.857s6.66,8.429,6.66,16.858c0,8.429-6.66,8.429-6.66,16.857c0,8.429,6.66,8.429,6.66,16.857
						s-6.66,8.429-6.66,16.857c0,8.43,6.66,8.43,6.66,16.859c0,8.431-6.66,8.431-6.66,16.861"/>
				</g>
				<g opacity="0.9714">
					<path fill="none" stroke="#4B987E" stroke-width="4" stroke-miterlimit="10" d="M624.854-12.026
						c0,8.428-6.66,8.428-6.66,16.855c0,8.429,6.66,8.429,6.66,16.856c0,8.429-6.66,8.429-6.66,16.857
						c0,8.428,6.66,8.428,6.66,16.856s-6.66,8.429-6.66,16.857s6.66,8.428,6.66,16.857c0,8.428-6.66,8.428-6.66,16.856
						s6.66,8.429,6.66,16.855c0,8.429-6.66,8.429-6.66,16.856s6.66,8.428,6.66,16.855s-6.66,8.428-6.66,16.855
						s6.66,8.428,6.66,16.857c0,8.427-6.66,8.427-6.66,16.855c0,8.428,6.66,8.428,6.66,16.855c0,8.428-6.66,8.428-6.66,16.856
						c0,8.428,6.66,8.428,6.66,16.856c0,8.428-6.66,8.428-6.66,16.855c0,8.43,6.66,8.43,6.66,16.857c0,8.43-6.66,8.43-6.66,16.857
						c0,8.43,6.66,8.43,6.66,16.858c0,8.429-6.66,8.429-6.66,16.858c0,8.429,6.66,8.429,6.66,16.856c0,8.429-6.66,8.429-6.66,16.857
						c0,8.428,6.66,8.428,6.66,16.857c0,8.43-6.66,8.43-6.66,16.858c0,8.43,6.66,8.43,6.66,16.861c0,8.43-6.66,8.43-6.66,16.859"/>
				</g>
			</g>
		</g>
	</g>
</g>
<g>
	<g>
		<defs>
			<rect id="SVGID_245_" x="757.358" y="673" width="358.75" height="82"/>
		</defs>
		<clipPath id="SVGID_14_">
			<use xlink:href="#SVGID_245_"  overflow="visible"/>
		</clipPath>
		<g clip-path="url(#SVGID_14_)">
			<defs>
				<rect id="SVGID_247_" x="730.923" y="651.006" width="433.536" height="149.027"/>
			</defs>
			<clipPath id="SVGID_16_">
				<use xlink:href="#SVGID_247_"  overflow="visible"/>
			</clipPath>
			<rect x="268.995" y="44.748" clip-path="url(#SVGID_16_)" fill="#C16926" width="1358.748" height="764.915"/>
		</g>
	</g>
</g>
</svg>
