<?xml version="1.0" encoding="utf-8"?>
<!-- Generator: Adobe Illustrator 16.0.0, SVG Export Plug-In . SVG Version: 6.00 Build 0)  -->
<!DOCTYPE svg PUBLIC "-//W3C//DTD SVG 1.1//EN" "http://www.w3.org/Graphics/SVG/1.1/DTD/svg11.dtd">
<svg version="1.1" id="圖層_1" xmlns="http://www.w3.org/2000/svg" xmlns:xlink="http://www.w3.org/1999/xlink" x="0px" y="0px"
	 width="350px" height="80px" viewBox="0 0 350 80" enable-background="new 0 0 350 80" xml:space="preserve">
<g>
	<g>
		<defs>
			<rect id="SVGID_205_" x="-4.375" y="-127" width="358.75" height="82"/>
		</defs>
		<clipPath id="SVGID_2_">
			<use xlink:href="#SVGID_205_"  overflow="visible"/>
		</clipPath>
		<g clip-path="url(#SVGID_2_)">
			<rect x="-7.728" y="-147.647" fill="#4A2E2C" width="364.409" height="204.98"/>
			<g opacity="0.3">
				<defs>
					<rect id="SVGID_207_" x="-7.728" y="-147.647" opacity="0.3" width="364.409" height="204.98"/>
				</defs>
				<clipPath id="SVGID_4_">
					<use xlink:href="#SVGID_207_"  overflow="visible"/>
				</clipPath>
				<path opacity="0.5" clip-path="url(#SVGID_4_)" fill="#2A100E" d="M413.947-100.972c0.565-0.928-30.829-1.605-76.94-2.027
					c0.162-10.354,0.291-19.95,0.261-28.438c45.605-0.17,74.63-1.065,76.679-4.423c0.562-0.918-30.664-1.552-76.737-1.928
					c-0.28-18.334-1.592-30.224-5.502-31.338c-1.013-0.289-1.933,12.204-2.65,31.275c-8.635-0.063-17.728-0.117-27.171-0.163
					c-0.244-19.561-1.511-32.329-5.494-33.492c-1.031-0.301-1.95,13.14-2.645,33.455c-8.816-0.038-17.903-0.069-27.187-0.094
					c-0.209-20.836-1.43-34.527-5.485-35.741c-1.049-0.314-1.963,14.122-2.631,35.721c-8.936-0.02-18.027-0.033-27.21-0.041
					c-0.18-22.146-1.352-36.795-5.475-38.06c-1.065-0.328-1.973,15.144-2.61,38.055c-9.034-0.004-18.135-0.002-27.243,0.004
					c-0.153-23.483-1.276-39.122-5.462-40.439c-1.081-0.341-1.978,16.202-2.583,40.446c-5.363,0.006-10.722,0.014-16.063,0.023
					c-3.733,0.007-7.454,0.01-11.162,0.011c-0.132-24.84-1.206-41.493-5.45-42.862c-1.095-0.354-1.979,17.277-2.547,42.858
					c-9.215-0.008-18.329-0.031-27.297-0.064c-0.119-26.131-1.148-43.755-5.438-45.173c-1.105-0.366-1.971,18.298-2.5,45.142
					c-9.337-0.04-18.492-0.089-27.422-0.139c-0.113-27.36-1.102-45.917-5.425-47.383c-1.113-0.378-1.957,19.29-2.444,47.339
					c-9.483-0.054-18.675-0.106-27.521-0.148c-0.112-28.571-1.063-48.058-5.413-49.57c-1.12-0.39-1.94,20.287-2.382,49.536
					c-9.674-0.039-18.887-0.062-27.531-0.054c-0.115-29.837-1.027-50.303-5.403-51.863c-1.126-0.402-1.921,21.356-2.316,51.878
					c-39.881,0.129-66.102,1.039-68.201,4.181c-0.54,0.809,27.038,1.522,68.127,2.049c-0.097,8.988-0.161,18.61-0.191,28.561
					c-39.862,0.161-65.876,1.107-67.936,4.307c-0.536,0.835,26.915,1.542,67.921,2.049c-0.014,9.333,0.001,18.889,0.047,28.429
					c-40.032,0.19-65.943,1.171-67.969,4.438c-0.534,0.864,26.911,1.564,68.005,2.053c0.046,7.402,0.112,14.76,0.197,21.958
					c0.025,2.126,0.047,4.238,0.068,6.333c-40.363,0.217-66.275,1.23-68.27,4.572c-0.532,0.895,27.017,1.589,68.327,2.057
					c0.076,9.816,0.109,19.235,0.139,28.147C-28.845,0.71-54.69,1.76-56.651,5.177c-0.53,0.926,27.04,1.612,68.49,2.058
					c0.036,10.136,0.081,19.53,0.196,28.004c-40.981,0.274-66.759,1.358-68.686,4.854c-0.529,0.958,27.12,1.636,68.801,2.06
					c0.481,23.933,1.763,39.028,5.546,40.272c1.039,0.342,1.64-15.836,1.899-40.2c8.702,0.079,17.935,0.148,27.59,0.208
					c0.47,23.342,1.761,38.045,5.566,39.265c1.045,0.335,1.671-15.424,1.965-39.222c8.9,0.049,18.111,0.09,27.562,0.123
					c0.457,22.818,1.758,37.173,5.589,38.37c1.053,0.33,1.705-15.059,2.032-38.346c8.985,0.027,18.154,0.047,27.44,0.06
					c0.444,22.342,1.753,36.382,5.613,37.559c1.062,0.324,1.738-14.731,2.097-37.549c9.026,0.009,18.141,0.011,27.284,0.008
					c0.431,21.901,1.747,35.655,5.639,36.813c1.07,0.318,1.771-14.432,2.163-36.818c8.463-0.006,16.934-0.018,25.362-0.035
					c0.603-0.001,1.203-0.002,1.804-0.003c0.417,21.497,1.739,34.989,5.667,36.128c1.08,0.313,1.806-14.153,2.229-36.136
					c9.142-0.004,18.2,0.011,27.133,0.04c0.405,21.048,1.735,34.249,5.692,35.369c1.088,0.308,1.837-13.825,2.292-35.34
					c9.182,0.037,18.212,0.084,27.046,0.136c0.397,20.524,1.74,33.379,5.717,34.477c1.093,0.302,1.865-13.444,2.351-34.428
					c9.25,0.057,18.253,0.115,26.963,0.167c0.392,19.971,1.749,32.458,5.741,33.532c1.097,0.295,1.891-13.053,2.407-33.486
					c9.373,0.051,18.358,0.09,26.883,0.104c0.387,19.451,1.756,31.601,5.765,32.654c1.103,0.29,1.917-12.708,2.463-32.647
					c45.504-0.012,76.026-0.882,78.297-4.649c0.583-0.967-31.573-1.811-78.121-2.403c0.191-8.456,0.341-17.882,0.45-27.886
					c45.329-0.044,75.448-0.918,77.671-4.599c0.578-0.956-31.292-1.758-77.603-2.309c0.08-9.049,0.129-18.48,0.148-28.028
					c45.388-0.072,75.274-0.947,77.456-4.55c0.574-0.947-31.173-1.71-77.448-2.218c0.002-5.558-0.005-11.133-0.023-16.674
					c-0.013-3.856-0.008-7.69,0.01-11.489c45.593-0.1,75.318-0.975,77.461-4.505c0.571-0.939-31.109-1.661-77.418-2.126
					c0.081-9.786,0.23-19.289,0.375-28.298C382.479-96.645,411.851-97.528,413.947-100.972z M19.283-132.343
					c8.663,0.102,17.847,0.196,27.426,0.281c-0.112,8.854-0.192,18.353-0.237,28.196c-9.59-0.032-18.701-0.047-27.262-0.034
					C19.244-113.941,19.288-123.493,19.283-132.343z M19.191-97.428c8.611,0.097,17.731,0.186,27.255,0.266
					c-0.027,9.203-0.025,18.634,0.008,28.058c-9.581-0.026-18.689-0.036-27.228-0.017C19.167-78.802,19.169-88.29,19.191-97.428z
					 M19.561-34.344c-0.063-7.841-0.142-15.738-0.234-23.574c-0.018-1.536-0.034-3.067-0.048-4.595
					c8.592,0.092,17.7,0.176,27.206,0.251c0.039,7.515,0.098,14.986,0.178,22.291c0.021,1.889,0.039,3.763,0.056,5.626
					C37.149-34.365,28.077-34.368,19.561-34.344z M46.772-27.361c0.066,9.683,0.089,18.975,0.109,27.771
					c-9.566-0.014-18.643-0.013-27.143,0.017c-0.018-9.06-0.061-18.473-0.128-28.024C28.192-27.509,37.28-27.43,46.772-27.361z
					 M19.658,35.198c0.065-8.578,0.094-17.973,0.089-27.882c8.574,0.083,17.66,0.156,27.151,0.22c0.025,10,0.06,19.267,0.167,27.626
					C37.386,35.154,28.229,35.162,19.658,35.198z M54.608-131.994c8.866,0.073,18.028,0.138,27.402,0.196
					c-0.129,8.794-0.226,18.263-0.287,28.092c-9.383-0.047-18.476-0.093-27.216-0.129C54.553-113.793,54.608-123.254,54.608-131.994
					z M82.01,0.502c-9.37-0.03-18.417-0.058-27.094-0.077c-0.007-8.967-0.041-18.281-0.098-27.73
					c8.768,0.058,17.829,0.108,27.112,0.15C81.986-17.51,82-8.256,82.01,0.502z M54.478-97.097
					c8.803,0.068,17.898,0.128,27.209,0.181c-0.042,9.156-0.052,18.553-0.031,27.949c-9.383-0.042-18.46-0.082-27.183-0.111
					C54.426-78.668,54.443-88.06,54.478-97.097z M54.565-57.048c-0.019-1.723-0.035-3.44-0.048-5.153
					c8.783,0.063,17.865,0.118,27.16,0.166c0.03,7.665,0.083,15.289,0.157,22.737c0.017,1.7,0.032,3.388,0.046,5.068
					c-9.363-0.035-18.419-0.069-27.108-0.094C54.717-41.885,54.648-49.495,54.565-57.048z M54.793,35.171
					c0.077-8.482,0.117-17.778,0.124-27.584c8.758,0.053,17.821,0.098,27.102,0.135c0.014,9.967,0.039,19.196,0.141,27.51
					C72.682,35.208,63.542,35.185,54.793,35.171z M89.829-96.873c8.884,0.045,17.931,0.083,27.071,0.114
					c-0.056,9.139-0.08,18.53-0.071,27.93c-9.229-0.029-18.255-0.065-27.046-0.104C89.75-78.504,89.781-87.87,89.829-96.873z
					 M89.866-56.179c-0.02-1.945-0.035-3.884-0.048-5.816c8.864,0.041,17.896,0.074,27.023,0.1
					c0.021,7.845,0.065,15.651,0.135,23.271c0.014,1.513,0.026,3.014,0.037,4.511c-9.21-0.023-18.212-0.054-26.967-0.086
					C89.999-41.515,89.939-48.875,89.866-56.179z M117.057-27.034c0.048,9.638,0.052,18.885,0.052,27.632
					c-9.215-0.018-18.214-0.043-26.954-0.07c0.002-8.939-0.021-18.227-0.069-27.648C98.93-27.084,107.942-27.056,117.057-27.034z
					 M89.987,35.252c0.089-8.446,0.142-17.716,0.16-27.499c8.836,0.031,17.847,0.055,26.962,0.072
					c0.003,9.967,0.018,19.188,0.115,27.481C107.894,35.294,98.807,35.273,89.987,35.252z M116.947-103.546
					c-9.226-0.034-18.271-0.076-27.08-0.12c0.06-9.957,0.125-19.394,0.128-28.085c8.959,0.05,18.081,0.093,27.291,0.128
					C117.138-122.864,117.024-113.397,116.947-103.546z M125.153-96.733c8.924,0.025,17.911,0.043,26.897,0.054
					c-0.071,9.117-0.109,18.503-0.114,27.906c-9.095,0.002-18.064-0.011-26.873-0.033C125.046-78.383,125.092-87.747,125.153-96.733
					z M125.089-61.874c8.903,0.021,17.874,0.036,26.851,0.042c0.011,8.049,0.047,16.063,0.112,23.88
					c0.011,1.298,0.02,2.588,0.028,3.874c-9.079,0.007-18.02-0.001-26.791-0.018c-0.038-7.062-0.089-14.163-0.154-21.213
					C125.116-57.505,125.101-59.693,125.089-61.874z M125.324-27.016c8.878,0.017,17.832,0.027,26.794,0.03
					c0.04,9.628,0.034,18.867,0.024,27.6c-9.087,0.011-18.024,0.008-26.778-0.003C125.376-8.321,125.362-17.603,125.324-27.016z
					 M125.151,35.315c0.102-8.429,0.167-17.692,0.197-27.477c8.87,0.013,17.818,0.019,26.786,0.019
					c-0.009,9.964-0.004,19.175,0.087,27.448C143.019,35.321,133.986,35.322,125.151,35.315z M152.109-103.469
					c-9.094-0.003-18.077-0.021-26.908-0.049c0.074-9.979,0.15-19.42,0.155-28.077c9.012,0.03,18.083,0.053,27.147,0.067
					C152.337-122.811,152.204-113.342,152.109-103.469z M160.415-96.67c8.968,0.006,17.913,0.004,26.768-0.005
					c-0.086,9.088-0.14,18.461-0.158,27.862c-7.312,0.004-14.603,0.014-21.837,0.027c-1.639,0.003-3.274,0.005-4.906,0.007
					C160.279-78.355,160.341-87.708,160.415-96.67z M160.497-26.985c8.917-0.001,17.825-0.008,26.661-0.023
					c0.032,9.625,0.015,18.86-0.005,27.586c-8.952-0.001-17.854,0.006-26.645,0.022C160.531-8.317,160.526-17.587,160.497-26.985z
					 M160.469-34.088c-0.03-6.777-0.073-13.588-0.129-20.352c-0.021-2.473-0.034-4.935-0.043-7.387
					c8.946,0.003,17.873-0.002,26.722-0.014c0,8.279,0.027,16.526,0.086,24.563c0.008,1.058,0.015,2.11,0.021,3.16
					c-8.468,0.002-16.901,0.011-25.242,0.027C161.41-34.09,160.941-34.089,160.469-34.088z M160.249,35.292
					c0.115-8.407,0.192-17.659,0.234-27.436c8.906-0.004,17.809-0.015,26.653-0.031c-0.021,9.977-0.027,19.19,0.058,27.453
					C178.133,35.273,169.128,35.277,160.249,35.292z M187.255-103.506c-6.271,0.005-12.533,0.014-18.761,0.025
					c-2.682,0.005-5.354,0.008-8.021,0.01c0.088-10,0.173-19.431,0.179-28.045c9.073,0.01,18.113,0.011,27.055,0.004
					C187.521-122.849,187.368-113.396,187.255-103.506z M195.323,35.284c0.128-8.407,0.218-17.674,0.273-27.472
					c8.972-0.008,17.852,0,26.6,0.021c-0.033,10.008-0.05,19.243,0.029,27.506C213.27,35.313,204.28,35.294,195.323,35.284z
					 M222.215-36.604c0.005,0.841,0.01,1.679,0.014,2.515c-8.845-0.017-17.733-0.026-26.604-0.029
					c-0.023-6.479-0.058-12.987-0.105-19.452c-0.02-2.775-0.032-5.537-0.039-8.285c9.024-0.017,17.926-0.018,26.675-0.008
					C222.145-53.352,222.163-44.865,222.215-36.604z M222.221,0.624c-8.847-0.021-17.731-0.036-26.592-0.042
					c0.033-8.924,0.038-18.202,0.018-27.604c8.988-0.013,17.869-0.009,26.609,0.006C222.279-17.369,222.251-8.115,222.221,0.624z
					 M222.174-68.799c-8.87-0.012-17.788-0.018-26.695-0.017c0.013-9.581,0.092-18.929,0.179-27.87
					c1.021-0.002,2.043-0.003,3.061-0.005c8.005-0.015,15.895-0.018,23.659-0.014C222.275-87.62,222.207-78.228,222.174-68.799z
					 M222.462-103.506c-8.875-0.008-17.806-0.01-26.735-0.006c0.102-10.021,0.197-19.444,0.2-28.008
					c2.039-0.003,4.072-0.006,6.097-0.01c7.087-0.013,14.075-0.018,20.954-0.018C222.769-122.917,222.595-113.447,222.462-103.506z
					 M257.325-35.931c0.003,0.651,0.006,1.299,0.009,1.947c-8.72-0.036-17.573-0.065-26.491-0.086
					c-0.017-6.207-0.044-12.439-0.083-18.63c-0.02-3.066-0.029-6.118-0.031-9.15c9.05,0.017,17.918,0.043,26.569,0.073
					C257.273-53.069,257.281-44.38,257.325-35.931z M230.453,35.366c0.143-8.405,0.246-17.686,0.313-27.508
					c9,0.029,17.845,0.069,26.49,0.113c-0.046,10.025-0.074,19.267,0.001,27.517C248.427,35.439,239.469,35.398,230.453,35.366z
					 M257.29,0.75c-8.723-0.042-17.57-0.077-26.482-0.104c0.044-8.936,0.06-18.229,0.048-27.644c9.015,0.023,17.86,0.056,26.5,0.092
					C257.37-17.249,257.331-7.99,257.29,0.75z M257.326-68.715c-8.748-0.03-17.63-0.054-26.587-0.07
					c0.029-9.609,0.125-18.973,0.226-27.913c9.078,0.011,17.958,0.031,26.613,0.055C257.458-87.566,257.372-78.164,257.326-68.715z
					 M257.674-103.441c-8.755-0.024-17.653-0.043-26.631-0.055c0.116-10.074,0.22-19.515,0.218-28.048
					c9.223,0.006,18.231,0.021,26.992,0.039C258.022-122.917,257.827-113.429,257.674-103.441z M292.436-35.258
					c0.002,0.489,0.003,0.974,0.005,1.461c-8.578-0.057-17.395-0.106-26.381-0.149c-0.01-5.959-0.031-11.942-0.062-17.885
					c-0.018-3.324-0.023-6.631-0.02-9.915c9.1,0.034,17.939,0.07,26.463,0.101C292.402-52.757,292.399-43.881,292.436-35.258z
					 M292.289,35.725c-8.688-0.071-17.616-0.134-26.709-0.189c0.157-8.393,0.275-17.681,0.355-27.52
					c9.05,0.049,17.864,0.099,26.38,0.143C292.256,18.22,292.217,27.479,292.289,35.725z M292.358,0.962
					c-8.578-0.063-17.392-0.12-26.371-0.168c0.055-8.939,0.082-18.241,0.08-27.661c9.067,0.041,17.876,0.084,26.39,0.122
					C292.461-17.066,292.411-7.789,292.358,0.962z M292.479-68.554c-8.605-0.05-17.456-0.093-26.48-0.129
					c0.046-9.63,0.158-19.003,0.274-27.935c9.13,0.027,17.977,0.056,26.507,0.079C292.643-87.46,292.541-78.036,292.479-68.554z
					 M292.889-103.304c-8.614-0.043-17.482-0.081-26.528-0.11c0.131-10.123,0.243-19.58,0.235-28.074
					c9.293,0.021,18.292,0.043,26.94,0.06C293.282-122.872,293.064-113.357,292.889-103.304z M327.322,36.068
					c-8.494-0.099-17.397-0.19-26.618-0.272c0.173-8.396,0.306-17.715,0.4-27.595c9.159,0.042,17.938,0.074,26.27,0.083
					C327.302,18.451,327.252,27.786,327.322,36.068z M327.426,1.277c-8.382-0.09-17.164-0.173-26.26-0.247
					c0.067-8.961,0.104-18.292,0.112-27.739c9.172,0.036,17.953,0.061,26.279,0.064C327.553-16.883,327.49-7.532,327.426,1.277z
					 M327.546-34.584c0.001,0.359,0.002,0.715,0.003,1.074c-8.379-0.083-17.17-0.158-26.271-0.225
					c-0.003-5.741-0.018-11.502-0.042-17.226c-0.015-3.575-0.016-7.128-0.006-10.654c9.208,0.028,18.017,0.047,26.357,0.045
					C327.534-52.482,327.518-43.4,327.546-34.584z M327.635-68.296c-8.411-0.076-17.228-0.144-26.373-0.203
					c0.063-9.673,0.193-19.076,0.323-28.017c9.238,0.021,18.058,0.032,26.403,0.024C327.832-87.365,327.713-77.865,327.635-68.296z
					 M328.108-103.076c-8.419-0.068-17.257-0.129-26.425-0.181c0.146-10.198,0.266-19.689,0.25-28.158
					c9.435,0.013,18.419,0.017,26.899,0.001C328.55-122.853,328.306-113.257,328.108-103.076z"/>
			</g>
		</g>
	</g>
</g>
<g>
	<g>
		<defs>
			<rect id="SVGID_209_" x="-4.375" y="-1" width="358.75" height="82"/>
		</defs>
		<clipPath id="SVGID_6_">
			<use xlink:href="#SVGID_209_"  overflow="visible"/>
		</clipPath>
		<g clip-path="url(#SVGID_6_)">
			<defs>
				<rect id="SVGID_211_" x="-30.81" y="-22.994" width="433.536" height="149.028"/>
			</defs>
			<clipPath id="SVGID_8_">
				<use xlink:href="#SVGID_211_"  overflow="visible"/>
			</clipPath>
			<rect x="-492.739" y="-629.251" clip-path="url(#SVGID_8_)" fill="#C16926" width="1358.748" height="764.914"/>
			<g clip-path="url(#SVGID_8_)">
				<g>
					<defs>
						<rect id="SVGID_213_" x="-106.025" y="-133.819" width="585.32" height="329.508"/>
					</defs>
					<clipPath id="SVGID_10_">
						<use xlink:href="#SVGID_213_"  overflow="visible"/>
					</clipPath>
					<g clip-path="url(#SVGID_10_)">
						<g>
							<g>
								<path fill="#BC6325" d="M17.707,11.756c-1.511,3.326-5.434,4.797-8.76,3.287C5.62,13.531,4.148,9.607,5.66,6.28
									c1.51-3.328,11.109-8.452,11.109-8.452S19.219,8.427,17.707,11.756z"/>
								<path fill="#BC6325" d="M68.904,11.756c-1.512,3.326-5.434,4.797-8.761,3.287c-3.327-1.511-4.798-5.435-3.287-8.763
									c1.511-3.328,11.11-8.453,11.11-8.453S70.415,8.427,68.904,11.756z"/>
								<path fill="#BC6325" d="M120.101,11.756c-1.512,3.326-5.435,4.797-8.761,3.287c-3.327-1.511-4.799-5.435-3.288-8.763
									c1.511-3.328,11.109-8.452,11.109-8.452S121.613,8.427,120.101,11.756z"/>
								<path fill="#BC6325" d="M171.298,11.756c-1.512,3.326-5.434,4.798-8.76,3.287s-4.799-5.435-3.287-8.762
									c1.51-3.329,11.108-8.453,11.108-8.453S172.808,8.427,171.298,11.756z"/>
								<path fill="#BC6325" d="M222.494,11.756c-1.512,3.326-5.434,4.797-8.761,3.287c-3.327-1.511-4.798-5.435-3.287-8.763
									c1.51-3.328,11.109-8.452,11.109-8.452S224.005,8.427,222.494,11.756z"/>
								<path fill="#BC6325" d="M273.691,11.756c-1.512,3.326-5.434,4.797-8.76,3.287c-3.328-1.511-4.8-5.435-3.288-8.763
									c1.512-3.328,11.108-8.452,11.108-8.452S275.203,8.427,273.691,11.756z"/>
								<path fill="#BC6325" d="M324.889,11.756c-1.512,3.326-5.434,4.797-8.761,3.287c-3.327-1.511-4.799-5.435-3.287-8.763
									c1.51-3.328,11.108-8.452,11.108-8.452S326.397,8.427,324.889,11.756z"/>
							</g>
							<g>
								<path fill="#BC6325" d="M39.99,44.537c-1.512,3.327-5.436,4.798-8.761,3.286c-3.327-1.511-4.799-5.435-3.288-8.762
									c1.511-3.328,11.11-8.452,11.11-8.452S41.5,41.208,39.99,44.537z"/>
								<path fill="#BC6325" d="M91.187,44.537c-1.513,3.327-5.435,4.798-8.761,3.286c-3.328-1.511-4.799-5.434-3.288-8.762
									c1.511-3.328,11.108-8.453,11.108-8.453S92.697,41.208,91.187,44.537z"/>
								<path fill="#BC6325" d="M142.382,44.537c-1.511,3.327-5.434,4.798-8.76,3.286c-3.328-1.511-4.8-5.435-3.289-8.762
									c1.512-3.328,11.11-8.452,11.11-8.452S143.894,41.208,142.382,44.537z"/>
								<path fill="#BC6325" d="M193.581,44.537c-1.513,3.327-5.435,4.798-8.762,3.286c-3.327-1.511-4.799-5.435-3.287-8.762
									c1.512-3.328,11.109-8.452,11.109-8.452S195.09,41.208,193.581,44.537z"/>
								<path fill="#BC6325" d="M244.776,44.537c-1.511,3.327-5.434,4.798-8.76,3.286c-3.328-1.511-4.799-5.435-3.288-8.762
									c1.512-3.328,11.109-8.452,11.109-8.452S246.287,41.208,244.776,44.537z"/>
								<path fill="#BC6325" d="M295.972,44.537c-1.51,3.327-5.433,4.798-8.76,3.286c-3.327-1.511-4.799-5.435-3.288-8.762
									c1.511-3.328,11.109-8.452,11.109-8.452S297.485,41.208,295.972,44.537z"/>
								<path fill="#BC6325" d="M347.169,44.537c-1.511,3.327-5.435,4.798-8.762,3.286c-3.325-1.511-4.798-5.435-3.286-8.762
									c1.51-3.328,11.109-8.452,11.109-8.452S348.681,41.208,347.169,44.537z"/>
							</g>
							<g>
								<path fill="#BC6325" d="M17.707,78.173c-1.511,3.327-5.434,4.797-8.76,3.287c-3.327-1.513-4.799-5.436-3.288-8.763
									c1.51-3.328,11.109-8.453,11.109-8.453S19.219,74.845,17.707,78.173z"/>
								<path fill="#BC6325" d="M68.904,78.173c-1.512,3.327-5.434,4.797-8.761,3.287c-3.327-1.513-4.798-5.436-3.287-8.763
									c1.511-3.328,11.11-8.453,11.11-8.453S70.415,74.845,68.904,78.173z"/>
								<path fill="#BC6325" d="M120.101,78.173c-1.512,3.327-5.435,4.797-8.761,3.287c-3.327-1.512-4.799-5.435-3.288-8.763
									c1.511-3.328,11.109-8.453,11.109-8.453S121.613,74.845,120.101,78.173z"/>
								<path fill="#BC6325" d="M171.298,78.173c-1.512,3.327-5.434,4.797-8.76,3.287c-3.327-1.512-4.799-5.435-3.287-8.763
									c1.51-3.328,11.108-8.453,11.108-8.453S172.808,74.845,171.298,78.173z"/>
								<path fill="#BC6325" d="M222.494,78.173c-1.512,3.327-5.434,4.797-8.761,3.287c-3.327-1.513-4.798-5.436-3.287-8.763
									c1.51-3.328,11.109-8.453,11.109-8.453S224.005,74.845,222.494,78.173z"/>
								<path fill="#BC6325" d="M273.691,78.173c-1.512,3.327-5.434,4.797-8.76,3.287c-3.328-1.512-4.8-5.435-3.288-8.763
									c1.512-3.328,11.108-8.453,11.108-8.453S275.203,74.845,273.691,78.173z"/>
								<path fill="#BC6325" d="M324.889,78.173c-1.512,3.327-5.434,4.797-8.761,3.287c-3.327-1.512-4.799-5.435-3.287-8.763
									c1.51-3.328,11.108-8.453,11.108-8.453S326.397,74.845,324.889,78.173z"/>
							</g>
						</g>
					</g>
				</g>
			</g>
		</g>
	</g>
	<g>
		<g>
			<path fill="#F4E8D1" d="M155.842,53.808h-2.35v-8.649h-8.816v8.649h-2.349V36.141h2.349v6.929h8.816v-6.929h2.35V53.808z"/>
			<path fill="#F4E8D1" d="M171.948,47.187c0,2.16-0.554,3.864-1.661,5.114c-1.107,1.25-2.591,1.875-4.449,1.875
				c-1.875,0-3.364-0.625-4.467-1.875c-1.104-1.25-1.655-2.954-1.655-5.114s0.552-3.866,1.655-5.12s2.592-1.881,4.467-1.881
				c1.858,0,3.342,0.627,4.449,1.881S171.948,45.027,171.948,47.187z M169.646,47.187c0-1.716-0.336-2.992-1.009-3.827
				c-0.672-0.834-1.605-1.252-2.8-1.252c-1.21,0-2.15,0.418-2.818,1.252c-0.668,0.835-1.002,2.11-1.002,3.827
				c0,1.661,0.336,2.921,1.009,3.779c0.672,0.858,1.609,1.288,2.812,1.288c1.187,0,2.118-0.425,2.794-1.275
				S169.646,48.864,169.646,47.187z"/>
			<path fill="#F4E8D1" d="M194.984,53.808h-2.23v-7.546c0-0.569-0.026-1.119-0.077-1.649c-0.051-0.53-0.16-0.953-0.326-1.27
				c-0.182-0.34-0.443-0.597-0.783-0.771c-0.34-0.174-0.831-0.261-1.471-0.261c-0.625,0-1.25,0.156-1.875,0.469
				c-0.625,0.313-1.25,0.71-1.875,1.192c0.024,0.182,0.043,0.394,0.06,0.635c0.016,0.241,0.023,0.48,0.023,0.718v8.483h-2.23v-7.546
				c0-0.585-0.026-1.141-0.077-1.667c-0.052-0.526-0.16-0.947-0.326-1.264c-0.182-0.34-0.443-0.595-0.783-0.766
				c-0.34-0.17-0.831-0.255-1.471-0.255c-0.609,0-1.221,0.15-1.833,0.451c-0.613,0.301-1.224,0.684-1.833,1.151v9.896h-2.23V40.555
				h2.23v1.471c0.696-0.577,1.39-1.028,2.083-1.353c0.692-0.324,1.43-0.486,2.212-0.486c0.902,0,1.667,0.19,2.296,0.569
				c0.628,0.38,1.097,0.906,1.406,1.578c0.902-0.759,1.725-1.307,2.468-1.643c0.744-0.336,1.539-0.504,2.385-0.504
				c1.455,0,2.529,0.441,3.221,1.323s1.038,2.114,1.038,3.696V53.808z"/>
			<path fill="#F4E8D1" d="M210.617,47.413h-9.765c0,0.815,0.123,1.525,0.368,2.129c0.245,0.605,0.582,1.102,1.009,1.489
				c0.411,0.38,0.9,0.665,1.465,0.854c0.565,0.189,1.188,0.285,1.869,0.285c0.902,0,1.81-0.18,2.723-0.54
				c0.914-0.36,1.564-0.714,1.952-1.063h0.119v2.433c-0.751,0.316-1.519,0.582-2.302,0.795c-0.783,0.214-1.606,0.32-2.468,0.32
				c-2.199,0-3.916-0.595-5.149-1.786c-1.234-1.19-1.851-2.881-1.851-5.072c0-2.167,0.591-3.888,1.774-5.162
				c1.182-1.273,2.739-1.91,4.669-1.91c1.788,0,3.166,0.522,4.135,1.566s1.454,2.527,1.454,4.449V47.413z M208.445,45.704
				c-0.008-1.171-0.303-2.077-0.884-2.717c-0.582-0.641-1.465-0.961-2.652-0.961c-1.195,0-2.146,0.353-2.854,1.057
				c-0.708,0.704-1.109,1.578-1.205,2.622H208.445z"/>
		</g>
	</g>
</g>
</svg>
