<?xml version="1.0" encoding="utf-8"?>
<!-- Generator: Adobe Illustrator 16.0.0, SVG Export Plug-In . SVG Version: 6.00 Build 0)  -->
<!DOCTYPE svg PUBLIC "-//W3C//DTD SVG 1.1//EN" "http://www.w3.org/Graphics/SVG/1.1/DTD/svg11.dtd">
<svg version="1.1" id="圖層_1" xmlns="http://www.w3.org/2000/svg" xmlns:xlink="http://www.w3.org/1999/xlink" x="0px" y="0px"
	 width="640px" height="360px" viewBox="0 0 640 360" enable-background="new 0 0 640 360" xml:space="preserve">
<g>
	<rect x="-1" y="-0.563" fill="#4A2E2C" width="642" height="361.126"/>
	<g opacity="0.3">
		<defs>
			<rect id="SVGID_247_" x="-1" y="-0.563" opacity="0.3" width="642" height="361.126"/>
		</defs>
		<clipPath id="SVGID_2_">
			<use xlink:href="#SVGID_247_"  overflow="visible"/>
		</clipPath>
		<path opacity="0.7" clip-path="url(#SVGID_2_)" fill="#2A100E" d="M741.888,143.13c1.007-1.655-54.797-2.927-136.392-3.747
			c0.142-17.241,0.405-33.982,0.661-49.854c80.297-0.237,132.039-1.793,135.731-7.861c0.997-1.635-54.307-2.83-135.549-3.572
			c0.285-18.241,0.512-35.146,0.459-50.1c80.352-0.299,131.48-1.875,135.09-7.791c0.989-1.619-54.021-2.735-135.19-3.398
			c-0.495-32.301-2.805-53.249-9.694-55.211c-1.785-0.51-3.406,21.495-4.67,55.1c-15.216-0.111-31.23-0.206-47.868-0.288
			c-0.429-34.462-2.661-56.956-9.68-59.005c-1.816-0.531-3.436,23.146-4.659,58.94c-15.53-0.067-31.54-0.122-47.895-0.165
			c-0.37-36.708-2.52-60.829-9.664-62.968c-1.849-0.554-3.459,24.877-4.636,62.933c-15.742-0.035-31.76-0.059-47.938-0.073
			c-0.314-39.015-2.381-64.824-9.645-67.053c-1.877-0.576-3.475,26.678-4.599,67.044c-15.903-0.008-31.926-0.005-47.961,0.007
			c-0.27-41.372-2.25-68.922-9.624-71.243c-1.903-0.6-3.484,28.539-4.551,71.256c-9.458,0.011-18.909,0.024-28.332,0.042
			c-6.575,0.012-13.133,0.019-19.664,0.02c-0.232-43.762-2.124-73.099-9.602-75.511c-1.93-0.623-3.486,30.432-4.487,75.506
			c-16.234-0.014-32.29-0.056-48.09-0.114c-0.21-46.037-2.023-77.086-9.58-79.585c-1.947-0.646-3.473,32.235-4.403,79.528
			c-16.447-0.071-32.582-0.157-48.313-0.244c-0.199-48.201-1.942-80.895-9.558-83.478c-1.961-0.665-3.448,33.981-4.306,83.399
			c-16.686-0.094-32.867-0.187-48.43-0.26c-0.199-50.335-1.875-84.667-9.537-87.332c-1.973-0.687-3.417,35.737-4.196,87.271
			c-17.067-0.069-33.307-0.108-48.555-0.095c-0.203-52.568-1.812-88.62-9.521-91.369c-1.984-0.709-3.384,37.624-4.079,91.396
			c-70.262,0.227-116.454,1.83-120.151,7.366c-0.952,1.425,47.625,2.683,120.021,3.61c-0.171,15.834-0.283,32.785-0.337,50.315
			c-70.235,0.284-116.055,1.951-119.685,7.588c-0.945,1.472,47.406,2.718,119.659,3.612c-0.025,16.441,0.002,33.278,0.082,50.084
			c-70.527,0.335-116.173,2.064-119.742,7.818c-0.94,1.521,47.408,2.756,119.806,3.616c0.083,13.041,0.197,26.004,0.347,38.686
			c0.045,3.746,0.085,7.464,0.12,11.155c-71.117,0.382-116.759,2.169-120.273,8.056c-0.938,1.577,47.588,2.8,120.374,3.625
			c0.134,17.293,0.193,33.886,0.246,49.587c-71.636,0.432-117.165,2.281-120.621,8.301c-0.935,1.631,47.63,2.84,120.661,3.627
			c0.063,17.857,0.143,34.406,0.346,49.335c-72.209,0.483-117.612,2.394-121.008,8.553c-0.931,1.689,47.773,2.883,121.211,3.629
			c0.849,42.164,3.106,68.76,9.771,70.95c1.831,0.602,2.889-27.896,3.347-70.824c15.345,0.14,31.631,0.262,48.658,0.366
			c0.828,41.123,3.104,67.026,9.806,69.175c1.842,0.591,2.945-27.171,3.463-69.098c15.66,0.086,31.877,0.157,48.504,0.214
			c0.807,40.201,3.098,65.491,9.847,67.601c1.855,0.58,3.002-26.53,3.578-67.557c15.829,0.047,31.985,0.082,48.345,0.105
			c0.782,39.362,3.088,64.095,9.89,66.17c1.869,0.57,3.062-25.95,3.695-66.153c15.9,0.016,31.959,0.021,48.065,0.014
			c0.76,38.585,3.078,62.816,9.936,64.856c1.886,0.561,3.121-25.42,3.812-64.864c14.909-0.012,29.833-0.033,44.682-0.063
			c1.071-0.002,2.142-0.004,3.212-0.006c0.735,37.872,3.064,61.642,9.983,63.649c1.903,0.552,3.183-24.929,3.929-63.664
			c16.092-0.007,32.04,0.02,47.766,0.069c0.714,37.082,3.059,60.339,10.029,62.311c1.917,0.543,3.237-24.35,4.038-62.26
			c16.174,0.064,32.087,0.148,47.647,0.239c0.7,36.158,3.066,58.805,10.072,60.739c1.925,0.532,3.285-23.683,4.141-60.653
			c16.293,0.1,32.161,0.203,47.502,0.294c0.691,35.183,3.081,57.182,10.114,59.075c1.933,0.521,3.332-22.993,4.24-58.994
			c16.511,0.09,32.344,0.158,47.361,0.184c0.681,34.268,3.093,55.672,10.155,57.527c1.943,0.511,3.38-22.385,4.341-57.516
			c80.176-0.021,133.939-1.554,137.939-8.19c1.027-1.704-55.613-3.191-137.63-4.235c0.337-14.897,0.601-31.502,0.792-49.128
			c79.861-0.077,132.922-1.617,136.839-8.1c1.018-1.684-55.125-3.1-136.718-4.07c0.142-15.941,0.229-32.557,0.262-49.377
			c79.969-0.127,132.614-1.668,136.457-8.015c1.012-1.669-54.916-3.014-136.443-3.91c0.004-9.792-0.01-19.614-0.041-29.376
			c-0.021-6.794-0.014-13.547,0.018-20.24C685.748,150.889,738.113,149.348,741.888,143.13z M589.828,139.234
			c-14.813-0.134-30.356-0.253-46.462-0.358c0.11-17.042,0.341-33.607,0.568-49.36c16.273,0.037,31.815,0.057,46.516,0.043
			C590.175,105.64,589.964,122.377,589.828,139.234z M527.815,197.439c0.004,0.861,0.007,1.715,0.01,2.572
			c-15.111-0.1-30.646-0.188-46.478-0.262c-0.018-10.5-0.054-21.038-0.109-31.509c-0.031-5.857-0.04-11.682-0.034-17.467
			c16.034,0.06,31.602,0.124,46.622,0.177C527.757,166.611,527.752,182.247,527.815,197.439z M527.679,261.249
			c-15.111-0.112-30.642-0.211-46.46-0.296c0.099-15.748,0.145-32.136,0.141-48.731c15.971,0.072,31.496,0.149,46.491,0.214
			C527.86,229.488,527.771,245.832,527.679,261.249z M108.799,159.05c-0.032-3.034-0.062-6.059-0.086-9.078
			c15.458,0.111,31.438,0.208,47.796,0.292c0.053,13.504,0.145,26.935,0.277,40.058c0.029,2.995,0.056,5.967,0.079,8.926
			c-16.478-0.062-32.409-0.123-47.703-0.166C109.065,185.763,108.944,172.355,108.799,159.05z M108.644,88.494
			c15.49,0.119,31.5,0.226,47.882,0.318c-0.072,16.13-0.092,32.686-0.055,49.238c-16.51-0.072-32.486-0.143-47.836-0.196
			C108.553,120.96,108.582,104.415,108.644,88.494z M465.96,196.253c0.006,1.147,0.011,2.287,0.016,3.429
			c-15.363-0.063-30.96-0.114-46.673-0.153c-0.028-10.934-0.077-21.914-0.146-32.821c-0.034-5.401-0.051-10.777-0.054-16.12
			c15.943,0.03,31.567,0.076,46.809,0.129C465.866,166.06,465.881,181.367,465.96,196.253z M170.936,160.582
			c-0.034-3.427-0.063-6.843-0.085-10.248c15.617,0.071,31.527,0.13,47.608,0.176c0.037,13.821,0.115,27.573,0.238,40.998
			c0.024,2.664,0.045,5.31,0.064,7.946c-16.225-0.041-32.085-0.095-47.509-0.152C171.172,186.416,171.064,173.45,170.936,160.582z
			 M233.073,162.114c-0.035-3.869-0.063-7.724-0.083-11.565c15.685,0.037,31.492,0.062,47.306,0.074
			c0.019,14.182,0.084,28.3,0.197,42.072c0.019,2.286,0.035,4.558,0.05,6.823c-15.995,0.012-31.747-0.002-47.198-0.031
			C233.277,187.046,233.187,174.534,233.073,162.114z M295.095,163.646c-0.036-4.356-0.06-8.695-0.077-13.015
			c15.771,0.005,31.513-0.003,47.111-0.025c0,14.586,0.049,29.116,0.151,43.275c0.014,1.862,0.025,3.716,0.036,5.564
			c-14.93,0.004-29.797,0.02-44.503,0.048c-0.832,0.002-1.66,0.003-2.491,0.005C295.27,187.561,295.192,175.561,295.095,163.646z
			 M357.107,165.178c-0.034-4.888-0.056-9.754-0.067-14.595c15.887-0.03,31.559-0.032,46.961-0.015
			c-0.021,14.996,0.011,29.947,0.102,44.5c0.009,1.482,0.018,2.957,0.025,4.43c-15.57-0.03-31.219-0.047-46.834-0.051
			C357.254,188.032,357.191,176.565,357.107,165.178z M419.119,138.372c0.051-16.929,0.22-33.426,0.397-49.176
			c15.993,0.02,31.64,0.055,46.886,0.097c-0.211,15.992-0.36,32.557-0.442,49.203C450.549,138.443,434.898,138.401,419.119,138.372z
			 M404.031,138.347c-15.614-0.022-31.315-0.032-46.996-0.03c0.023-16.88,0.162-33.347,0.316-49.101
			c1.788-0.003,3.575-0.006,5.357-0.009c14.1-0.026,28.006-0.032,41.682-0.025C404.21,105.19,404.087,121.737,404.031,138.347z
			 M342.142,138.323c-12.894,0.008-25.749,0.024-38.504,0.048c-2.889,0.005-5.77,0.01-8.645,0.013
			c-0.006-16.871,0.104-33.348,0.234-49.139c15.811,0.011,31.581,0.008,47.192-0.008
			C342.268,105.247,342.173,121.762,342.142,138.323z M280.29,138.395c-16.022,0.003-31.825-0.02-47.343-0.058
			c-0.032-16.872,0.049-33.369,0.156-49.201c15.721,0.045,31.556,0.077,47.388,0.096C280.366,105.292,280.298,121.83,280.29,138.395
			z M218.437,138.296c-16.256-0.051-32.162-0.116-47.647-0.182c-0.058-16.865-0.003-33.363,0.082-49.224
			c15.65,0.08,31.591,0.147,47.69,0.201C218.464,105.189,218.421,121.737,218.437,138.296z M156.954,211.715
			c0.101,16.991,0.125,33.294,0.143,48.724c-16.487-0.052-32.411-0.102-47.68-0.136c-0.014-15.796-0.073-32.207-0.173-48.852
			C124.67,211.551,140.621,211.64,156.954,211.715z M171.323,211.776c15.581,0.063,31.461,0.113,47.516,0.151
			c0.086,16.979,0.092,33.27,0.093,48.679c-16.236-0.031-32.088-0.076-47.484-0.124
			C171.451,244.735,171.408,228.372,171.323,211.776z M233.405,211.958c15.642,0.03,31.414,0.047,47.204,0.053
			c0.071,16.963,0.06,33.239,0.042,48.625c-16.009,0.02-31.753,0.014-47.175-0.006C233.499,244.896,233.474,228.541,233.405,211.958
			z M295.37,212.014c15.722-0.001,31.426-0.015,47.003-0.04c0.058,16.957,0.027,33.226-0.008,48.599
			c-15.781-0.002-31.478,0.011-46.974,0.04C295.432,244.901,295.424,228.569,295.37,212.014z M357.33,211.948
			c15.823-0.023,31.459-0.016,46.845,0.011c0.042,16.996-0.007,33.298-0.062,48.694c-15.573-0.038-31.216-0.062-46.813-0.073
			C357.357,244.858,357.366,228.511,357.33,211.948z M419.327,211.991c15.881,0.04,31.465,0.098,46.686,0.163
			c0.025,17.012-0.043,33.324-0.117,48.721c-15.364-0.074-30.953-0.135-46.652-0.182
			C419.32,244.951,419.347,228.577,419.327,211.991z M481.24,138.553c0.081-16.966,0.279-33.481,0.482-49.217
			c16.082,0.048,31.673,0.099,46.698,0.14c-0.241,15.995-0.419,32.599-0.528,49.304C512.732,138.692,497.139,138.616,481.24,138.553
			z M591.936,28.037c-0.496,15.081-0.925,31.988-1.273,49.924c-14.832-0.12-30.404-0.227-46.556-0.32
			c0.258-17.965,0.471-34.687,0.44-49.607C561.167,28.059,576.998,28.065,591.936,28.037z M529.755,28.009
			c-0.449,15.075-0.832,31.838-1.141,49.549c-15.177-0.077-30.799-0.142-46.736-0.195c0.231-17.833,0.429-34.494,0.416-49.459
			C498.669,27.941,514.516,27.98,529.755,28.009z M467.594,27.873c-0.406,15.133-0.752,31.847-1.021,49.443
			c-15.426-0.043-31.102-0.076-46.918-0.097c0.206-17.748,0.388-34.38,0.386-49.414C436.289,27.816,452.159,27.842,467.594,27.873z
			 M405.446,27.8c-0.369,15.203-0.674,31.891-0.908,49.402c-15.624-0.014-31.347-0.018-47.065-0.011
			c0.18-17.654,0.347-34.255,0.352-49.344c3.58-0.005,7.15-0.01,10.708-0.017C381.018,27.808,393.328,27.799,405.446,27.8z
			 M343.342,27.863c-0.329,15.262-0.597,31.917-0.797,49.339c-11.06,0.01-22.101,0.025-33.085,0.045
			c-4.724,0.009-9.434,0.014-14.13,0.018c0.155-17.618,0.306-34.234,0.314-49.41C311.64,27.871,327.58,27.874,343.342,27.863z
			 M281.289,27.835c-0.295,15.358-0.527,32.038-0.695,49.432c-16.021-0.006-31.849-0.038-47.405-0.086
			c0.13-17.581,0.265-34.213,0.273-49.465C249.337,27.77,265.32,27.81,281.289,27.835z M218.645,77.133
			c-16.255-0.061-32.185-0.135-47.706-0.212c0.105-17.542,0.221-34.167,0.227-49.479c15.783,0.088,31.854,0.164,48.078,0.226
			C218.982,43.097,218.782,59.778,218.645,77.133z M156.589,76.849c-16.513-0.083-32.512-0.164-47.895-0.227
			c0.083-17.543,0.179-34.21,0.179-49.607c15.602,0.128,31.728,0.243,48.222,0.344C156.866,42.851,156.697,59.533,156.589,76.849z
			 M46.587,26.399c15.279,0.18,31.474,0.345,48.37,0.496c-0.197,15.597-0.338,32.334-0.418,49.674
			c-16.909-0.057-32.988-0.084-48.081-0.061C46.517,58.819,46.595,41.988,46.587,26.399z M46.424,87.911
			c15.184,0.172,31.276,0.329,48.07,0.469c-0.048,16.212-0.044,32.829,0.015,49.431c-16.903-0.046-32.959-0.063-48.022-0.029
			C46.379,120.724,46.385,104.01,46.424,87.911z M46.662,157.518c-0.031-2.705-0.06-5.404-0.085-8.095
			c15.154,0.163,31.217,0.312,47.984,0.443c0.068,13.239,0.172,26.401,0.313,39.27c0.036,3.327,0.067,6.629,0.097,9.912
			c-16.869-0.036-32.881-0.043-47.896,0C46.964,185.234,46.825,171.322,46.662,157.518z M47.165,210.936
			c15.131,0.155,31.163,0.293,47.903,0.416c0.116,17.059,0.158,33.428,0.193,48.925c-16.878-0.025-32.879-0.022-47.871,0.031
			C47.358,244.347,47.282,227.761,47.165,210.936z M47.247,321.563c0.114-15.111,0.165-31.663,0.158-49.12
			c15.121,0.146,31.146,0.275,47.885,0.388c0.045,17.617,0.106,33.943,0.295,48.669C78.516,321.486,62.359,321.5,47.247,321.563z
			 M109.2,321.517c0.135-14.944,0.205-31.32,0.219-48.596c15.414,0.093,31.359,0.173,47.693,0.238
			c0.024,17.558,0.069,33.817,0.249,48.465C140.681,321.582,124.599,321.541,109.2,321.517z M171.15,321.659
			c0.157-14.88,0.25-31.21,0.283-48.446c15.566,0.055,31.44,0.097,47.499,0.127c0.005,17.559,0.032,33.804,0.203,48.415
			C202.701,321.733,186.685,321.697,171.15,321.659z M233.102,321.771c0.179-14.849,0.292-31.169,0.347-48.407
			c15.626,0.022,31.393,0.033,47.189,0.033c-0.015,17.555-0.007,33.782,0.154,48.356
			C264.579,321.781,248.665,321.783,233.102,321.771z M294.936,321.729c0.202-14.811,0.338-31.111,0.412-48.335
			c15.7-0.007,31.399-0.025,46.989-0.055c-0.037,17.576-0.048,33.809,0.103,48.365C326.466,321.696,310.589,321.704,294.936,321.729
			z M356.761,321.716c0.226-14.811,0.385-31.138,0.479-48.4c15.796-0.015,31.429,0.001,46.83,0.039
			c-0.059,17.632-0.089,33.9,0.051,48.458C388.356,321.766,372.53,321.733,356.761,321.716z M418.617,321.861
			c0.25-14.806,0.433-31.161,0.551-48.463c15.855,0.051,31.438,0.121,46.668,0.198c-0.079,17.662-0.129,33.944,0.002,48.477
			C450.282,321.989,434.5,321.918,418.617,321.861z M480.503,322.159c0.277-14.785,0.484-31.153,0.625-48.483
			c15.947,0.085,31.471,0.174,46.475,0.251c-0.103,17.727-0.172,34.039-0.045,48.565
			C512.251,322.367,496.521,322.256,480.503,322.159z M542.384,322.619c0.305-14.792,0.538-31.21,0.704-48.616
			c16.135,0.075,31.604,0.13,46.281,0.147c-0.127,17.91-0.216,34.355-0.093,48.948C574.314,322.925,558.624,322.764,542.384,322.619
			z M543.195,261.369c0.117-15.788,0.185-32.226,0.198-48.869c16.157,0.063,31.629,0.107,46.297,0.114
			c-0.007,17.197-0.118,33.671-0.23,49.191C574.695,261.646,559.218,261.5,543.195,261.369z M589.672,198.626
			c0.002,0.633,0.003,1.26,0.005,1.891c-14.765-0.146-30.245-0.279-46.281-0.397c-0.007-10.114-0.031-20.262-0.074-30.347
			c-0.027-6.297-0.029-12.558-0.012-18.77c16.224,0.05,31.74,0.083,46.436,0.08C589.649,167.094,589.622,183.094,589.672,198.626z"
			/>
	</g>
</g>
</svg>
