<?xml version="1.0" encoding="utf-8"?>
<!-- Generator: Adobe Illustrator 16.0.0, SVG Export Plug-In . SVG Version: 6.00 Build 0)  -->
<!DOCTYPE svg PUBLIC "-//W3C//DTD SVG 1.1//EN" "http://www.w3.org/Graphics/SVG/1.1/DTD/svg11.dtd">
<svg version="1.1" id="圖層_1" xmlns="http://www.w3.org/2000/svg" xmlns:xlink="http://www.w3.org/1999/xlink" x="0px" y="0px"
	 width="350px" height="120px" viewBox="0 0 350 120" enable-background="new 0 0 350 120" xml:space="preserve">
<g>
	<defs>
		<rect id="SVGID_61_" x="-2.911" y="-1" width="355.175" height="122"/>
	</defs>
	<clipPath id="SVGID_2_">
		<use xlink:href="#SVGID_61_"  overflow="visible"/>
	</clipPath>
	
		<line clip-path="url(#SVGID_2_)" fill="none" stroke="#EFB91B" stroke-linejoin="round" stroke-miterlimit="10" x1="352.922" y1="97.667" x2="-3.927" y2="97.667"/>
	
		<line clip-path="url(#SVGID_2_)" fill="none" stroke="#EFB91B" stroke-linejoin="round" stroke-miterlimit="10" x1="352.922" y1="24.333" x2="-3.927" y2="24.333"/>
	<g clip-path="url(#SVGID_2_)">
		<g>
			
				<path fill="#EFB91B" stroke="#EFB91B" stroke-width="0.7124" stroke-linecap="round" stroke-linejoin="round" stroke-miterlimit="10" d="
				M94.902,76.357V53.709h17.136v1.3H96.202v8.248h15.836v1.396H96.202v10.404h15.836v1.301H94.902z"/>
			
				<path fill="#EFB91B" stroke="#EFB91B" stroke-width="0.7124" stroke-linecap="round" stroke-linejoin="round" stroke-miterlimit="10" d="
				M138.574,73.214c-2.176,2.306-5.064,3.459-8.658,3.459c-3.425,0-6.218-1.077-8.374-3.234c-2.177-2.177-3.268-4.982-3.268-8.406
				c0-3.383,1.091-6.166,3.268-8.342c2.199-2.199,4.989-3.298,8.374-3.298c4.06,0,7.253,1.552,9.58,4.661l-1.049,0.792
				c-2.029-2.791-4.872-4.187-8.531-4.187c-2.982,0-5.457,0.984-7.422,2.952c-1.969,1.965-2.95,4.438-2.95,7.421
				c0,3.004,0.974,5.477,2.918,7.422c1.989,1.946,4.471,2.919,7.454,2.919c3.193,0,5.762-1.07,7.711-3.203
				c1.477-1.607,2.323-3.429,2.535-5.457h-7.487v-1.302h8.914C141.588,68.501,140.583,71.103,138.574,73.214z"/>
			
				<path fill="#EFB91B" stroke="#EFB91B" stroke-width="0.7124" stroke-linecap="round" stroke-linejoin="round" stroke-miterlimit="10" d="
				M148.989,68.366h-0.769c0.46-0.393,0.692-0.882,0.692-1.463v-1.401h-1.269V63.26h2.039v3.643
				C149.682,67.422,149.453,67.909,148.989,68.366z"/>
			<g>
				
					<path fill="#EFB91B" stroke="#EFB91B" stroke-width="0.7124" stroke-linecap="round" stroke-linejoin="round" stroke-miterlimit="10" d="
					M162.512,75.495c-0.831,0.707-1.827,1.059-2.987,1.059c-1.991,0-3.489-0.902-4.485-2.708l1.092-0.654
					c0.354,0.643,0.777,1.141,1.274,1.495c0.52,0.395,1.226,0.589,2.119,0.589c1.949,0,2.926-0.828,2.926-2.489
					c0-0.724-0.342-1.359-1.028-1.901c-0.206-0.122-0.503-0.261-0.887-0.417c-0.383-0.154-0.855-0.336-1.417-0.544
					c-1.038-0.373-1.785-0.749-2.241-1.122c-0.664-0.537-0.996-1.316-0.996-2.334c0-0.87,0.332-1.619,0.996-2.241
					c0.643-0.643,1.482-0.965,2.518-0.965c1.436,0,2.646,0.498,3.645,1.495l-0.933,0.808c-0.709-0.706-1.607-1.059-2.712-1.059
					c-1.493,0-2.238,0.656-2.238,1.962c0,0.58,0.228,1.059,0.685,1.433c0.373,0.291,0.964,0.57,1.772,0.838
					c0.707,0.251,1.288,0.484,1.747,0.703c0.454,0.217,0.796,0.407,1.026,0.574c0.892,0.686,1.338,1.608,1.338,2.771
					C163.727,73.907,163.324,74.812,162.512,75.495z"/>
			</g>
			<g>
				
					<path fill="#EFB91B" stroke="#EFB91B" stroke-width="0.7124" stroke-linecap="round" stroke-linejoin="round" stroke-miterlimit="10" d="
					M194.853,76.554l-5.541-18.642l-5.57,18.642l-7.131-22.535h1.245l5.819,18.176l5.637-18.58l5.601,18.58l5.822-18.176h1.307
					L194.853,76.554z"/>
				
					<path fill="#EFB91B" stroke="#EFB91B" stroke-width="0.7124" stroke-linecap="round" stroke-linejoin="round" stroke-miterlimit="10" d="
					M215.425,74.532c-1.286,1.285-2.861,1.928-4.729,1.928c-1.869,0-3.436-0.633-4.702-1.898c-1.286-1.286-1.928-2.864-1.928-4.729
					c0-1.849,0.642-3.413,1.928-4.702c1.267-1.306,2.833-1.96,4.702-1.96c1.844,0,3.411,0.644,4.696,1.93
					c1.287,1.288,1.93,2.866,1.93,4.732C217.323,71.698,216.69,73.265,215.425,74.532z M214.525,66.001
					c-1.04-1.058-2.317-1.586-3.829-1.586c-1.455,0-2.709,0.538-3.769,1.619c-1.082,1.078-1.62,2.346-1.62,3.798
					c0,1.473,0.531,2.737,1.589,3.797c1.057,1.058,2.324,1.587,3.799,1.587c1.493,0,2.757-0.52,3.797-1.556
					c1.057-1.059,1.585-2.337,1.585-3.828C216.079,68.316,215.561,67.039,214.525,66.001z"/>
				
					<path fill="#EFB91B" stroke="#EFB91B" stroke-width="0.7124" stroke-linecap="round" stroke-linejoin="round" stroke-miterlimit="10" d="
					M229.4,65.286c-0.33-0.25-0.683-0.447-1.057-0.591c-0.373-0.144-0.767-0.218-1.184-0.218c-0.352,0-0.683,0.108-0.995,0.326
					c-0.311,0.219-0.582,0.488-0.81,0.811c-0.23,0.321-0.408,0.68-0.545,1.074c-0.135,0.394-0.201,0.757-0.201,1.089v8.466h-1.278
					V63.387h1.278v1.744c0.269-0.477,0.621-0.912,1.058-1.306c0.435-0.394,0.913-0.593,1.431-0.593c0.645,0,1.172,0.074,1.588,0.219
					c0.417,0.145,0.883,0.404,1.4,0.778L229.4,65.286z"/>
				
					<path fill="#EFB91B" stroke="#EFB91B" stroke-width="0.7124" stroke-linecap="round" stroke-linejoin="round" stroke-miterlimit="10" d="
					M244.529,76.243l-6.723-6.692l-0.719,0.715v5.977h-1.274V53.209h1.274v15.223l5.575-5.543h1.803l-5.818,5.791l7.563,7.563
					H244.529z"/>
				
					<path fill="#EFB91B" stroke="#EFB91B" stroke-width="0.7124" stroke-linecap="round" stroke-linejoin="round" stroke-miterlimit="10" d="
					M257.882,75.433c-0.831,0.706-1.827,1.059-2.987,1.059c-1.993,0-3.489-0.901-4.483-2.707l1.09-0.653
					c0.354,0.64,0.777,1.14,1.275,1.492c0.517,0.396,1.225,0.592,2.118,0.592c1.95,0,2.926-0.83,2.926-2.49
					c0-0.727-0.341-1.36-1.026-1.898c-0.209-0.124-0.507-0.264-0.889-0.421c-0.382-0.155-0.855-0.336-1.417-0.544
					c-1.038-0.374-1.785-0.748-2.241-1.12c-0.665-0.541-0.998-1.318-0.998-2.335c0-0.873,0.333-1.618,0.998-2.241
					c0.643-0.644,1.482-0.966,2.519-0.966c1.434,0,2.646,0.5,3.643,1.495l-0.931,0.81c-0.71-0.705-1.608-1.059-2.712-1.059
					c-1.492,0-2.237,0.654-2.237,1.961c0,0.582,0.224,1.06,0.685,1.43c0.37,0.292,0.964,0.572,1.772,0.842
					c0.705,0.25,1.287,0.483,1.744,0.7c0.456,0.217,0.798,0.409,1.027,0.574c0.892,0.686,1.338,1.609,1.338,2.772
					C259.097,73.846,258.691,74.749,257.882,75.433z"/>
			</g>
		</g>
	</g>
</g>
<g>
	<g>
		<defs>
			<rect id="SVGID_245_" x="-4.375" y="-115.901" width="358.75" height="82"/>
		</defs>
		<clipPath id="SVGID_4_">
			<use xlink:href="#SVGID_245_"  overflow="visible"/>
		</clipPath>
		<g clip-path="url(#SVGID_4_)">
			<defs>
				<rect id="SVGID_247_" x="-30.81" y="-137.895" width="433.536" height="149.027"/>
			</defs>
			<clipPath id="SVGID_6_">
				<use xlink:href="#SVGID_247_"  overflow="visible"/>
			</clipPath>
			<rect x="-492.739" y="-744.153" clip-path="url(#SVGID_6_)" fill="#C16926" width="1358.748" height="764.915"/>
			<g clip-path="url(#SVGID_6_)">
				<g>
					<defs>
						<rect id="SVGID_249_" x="-106.025" y="-248.719" width="585.32" height="329.508"/>
					</defs>
					<clipPath id="SVGID_8_">
						<use xlink:href="#SVGID_249_"  overflow="visible"/>
					</clipPath>
					<g clip-path="url(#SVGID_8_)">
						<g>
							<g>
								<path fill="#BC6325" d="M39.99-3.476c-1.512,3.327-5.436,4.798-8.761,3.287c-3.327-1.511-4.799-5.436-3.288-8.762
									c1.511-3.329,11.11-8.452,11.11-8.452S41.5-6.804,39.99-3.476z"/>
								<path fill="#BC6325" d="M91.187-3.476c-1.513,3.327-5.435,4.798-8.761,3.287c-3.328-1.511-4.799-5.436-3.288-8.762
									c1.511-3.329,11.108-8.452,11.108-8.452S92.697-6.804,91.187-3.476z"/>
								<path fill="#BC6325" d="M142.382-3.476c-1.511,3.327-5.434,4.798-8.76,3.287c-3.328-1.511-4.8-5.436-3.289-8.762
									c1.512-3.329,11.11-8.452,11.11-8.452S143.894-6.804,142.382-3.476z"/>
								<path fill="#BC6325" d="M193.581-3.476c-1.513,3.327-5.435,4.798-8.762,3.287c-3.327-1.511-4.799-5.436-3.287-8.762
									c1.512-3.329,11.109-8.452,11.109-8.452S195.09-6.804,193.581-3.476z"/>
								<path fill="#BC6325" d="M244.776-3.476c-1.511,3.327-5.434,4.798-8.76,3.287c-3.328-1.511-4.799-5.436-3.288-8.762
									c1.512-3.329,11.109-8.452,11.109-8.452S246.287-6.804,244.776-3.476z"/>
								<path fill="#BC6325" d="M295.972-3.476c-1.51,3.327-5.433,4.798-8.76,3.287c-3.327-1.511-4.799-5.436-3.288-8.762
									c1.511-3.329,11.109-8.452,11.109-8.452S297.485-6.804,295.972-3.476z"/>
								<path fill="#BC6325" d="M347.169-3.476c-1.511,3.327-5.435,4.798-8.762,3.287c-3.325-1.511-4.798-5.436-3.286-8.762
									c1.51-3.329,11.109-8.452,11.109-8.452S348.681-6.804,347.169-3.476z"/>
							</g>
							<g>
								<path fill="#BC6325" d="M17.707,30.16c-1.511,3.327-5.434,4.798-8.76,3.287c-3.327-1.512-4.799-5.435-3.288-8.762
									c1.51-3.328,11.109-8.453,11.109-8.453S19.219,26.832,17.707,30.16z"/>
								<path fill="#BC6325" d="M68.904,30.16c-1.512,3.326-5.434,4.798-8.761,3.287c-3.327-1.512-4.798-5.435-3.287-8.762
									c1.511-3.328,11.11-8.453,11.11-8.453S70.415,26.832,68.904,30.16z"/>
								<path fill="#BC6325" d="M120.101,30.16c-1.512,3.327-5.435,4.798-8.761,3.287c-3.327-1.512-4.799-5.435-3.288-8.762
									s11.109-8.453,11.109-8.453S121.613,26.832,120.101,30.16z"/>
								<path fill="#BC6325" d="M171.298,30.16c-1.512,3.327-5.434,4.798-8.76,3.287s-4.799-5.435-3.287-8.762
									c1.51-3.328,11.108-8.453,11.108-8.453S172.808,26.832,171.298,30.16z"/>
								<path fill="#BC6325" d="M222.494,30.16c-1.512,3.327-5.434,4.798-8.761,3.287s-4.798-5.435-3.287-8.762
									c1.51-3.328,11.109-8.453,11.109-8.453S224.005,26.832,222.494,30.16z"/>
								<path fill="#BC6325" d="M273.691,30.16c-1.512,3.326-5.434,4.798-8.76,3.287c-3.328-1.512-4.8-5.435-3.288-8.762
									s11.108-8.453,11.108-8.453S275.203,26.832,273.691,30.16z"/>
								<path fill="#BC6325" d="M324.889,30.16c-1.512,3.327-5.434,4.798-8.761,3.287c-3.327-1.512-4.799-5.435-3.287-8.762
									c1.51-3.328,11.108-8.453,11.108-8.453S326.397,26.832,324.889,30.16z"/>
							</g>
							<g>
								<path fill="#BC6325" d="M39.99,62.941c-1.512,3.327-5.436,4.798-8.761,3.287c-3.327-1.512-4.799-5.435-3.288-8.763
									c1.511-3.328,11.11-8.452,11.11-8.452S41.5,59.613,39.99,62.941z"/>
								<path fill="#BC6325" d="M91.187,62.941c-1.513,3.327-5.435,4.798-8.761,3.287c-3.328-1.512-4.799-5.435-3.288-8.763
									c1.511-3.328,11.108-8.452,11.108-8.452S92.697,59.613,91.187,62.941z"/>
								<path fill="#BC6325" d="M142.382,62.941c-1.511,3.327-5.434,4.798-8.76,3.287c-3.328-1.512-4.8-5.435-3.289-8.763
									c1.512-3.328,11.11-8.452,11.11-8.452S143.894,59.613,142.382,62.941z"/>
								<path fill="#BC6325" d="M193.581,62.941c-1.513,3.327-5.435,4.798-8.762,3.288c-3.327-1.512-4.799-5.436-3.287-8.763
									c1.512-3.328,11.109-8.452,11.109-8.452S195.09,59.613,193.581,62.941z"/>
								<path fill="#BC6325" d="M244.776,62.941c-1.511,3.327-5.434,4.798-8.76,3.287c-3.328-1.512-4.799-5.435-3.288-8.763
									c1.512-3.328,11.109-8.452,11.109-8.452S246.287,59.613,244.776,62.941z"/>
								<path fill="#BC6325" d="M295.972,62.941c-1.51,3.327-5.433,4.798-8.76,3.287c-3.327-1.512-4.799-5.435-3.288-8.763
									s11.109-8.452,11.109-8.452S297.485,59.613,295.972,62.941z"/>
								<path fill="#BC6325" d="M347.169,62.941c-1.511,3.327-5.435,4.798-8.762,3.288c-3.325-1.512-4.798-5.436-3.286-8.763
									c1.51-3.328,11.109-8.452,11.109-8.452S348.681,59.613,347.169,62.941z"/>
							</g>
							<g>
								<path fill="#BC6325" d="M17.707,96.577c-1.511,3.327-5.434,4.797-8.76,3.287C5.62,98.352,4.148,94.43,5.66,91.103
									c1.51-3.329,11.109-8.453,11.109-8.453S19.219,93.249,17.707,96.577z"/>
								<path fill="#BC6325" d="M68.904,96.577c-1.512,3.327-5.434,4.798-8.761,3.287c-3.327-1.511-4.798-5.434-3.287-8.761
									c1.511-3.329,11.11-8.453,11.11-8.453S70.415,93.249,68.904,96.577z"/>
								<path fill="#BC6325" d="M120.101,96.577c-1.512,3.327-5.435,4.797-8.761,3.287c-3.327-1.511-4.799-5.434-3.288-8.761
									c1.511-3.329,11.109-8.453,11.109-8.453S121.613,93.249,120.101,96.577z"/>
								<path fill="#BC6325" d="M171.298,96.577c-1.512,3.327-5.434,4.797-8.76,3.287c-3.327-1.511-4.799-5.434-3.287-8.761
									c1.51-3.329,11.108-8.453,11.108-8.453S172.808,93.249,171.298,96.577z"/>
								<path fill="#BC6325" d="M222.494,96.577c-1.512,3.327-5.434,4.797-8.761,3.287c-3.327-1.511-4.798-5.434-3.287-8.761
									c1.51-3.329,11.109-8.453,11.109-8.453S224.005,93.249,222.494,96.577z"/>
								<path fill="#BC6325" d="M273.691,96.577c-1.512,3.327-5.434,4.797-8.76,3.287c-3.328-1.511-4.8-5.434-3.288-8.761
									c1.512-3.329,11.108-8.453,11.108-8.453S275.203,93.249,273.691,96.577z"/>
								<path fill="#BC6325" d="M324.889,96.577c-1.512,3.327-5.434,4.797-8.761,3.287c-3.327-1.511-4.799-5.434-3.287-8.761
									c1.51-3.329,11.108-8.453,11.108-8.453S326.397,93.249,324.889,96.577z"/>
							</g>
							<g>
								<path fill="#BC6325" d="M39.99,129.358c-1.512,3.327-5.436,4.798-8.761,3.287c-3.327-1.512-4.799-5.435-3.288-8.762
									c1.511-3.329,11.11-8.453,11.11-8.453S41.5,126.03,39.99,129.358z"/>
								<path fill="#BC6325" d="M91.187,129.358c-1.513,3.327-5.435,4.798-8.761,3.287c-3.328-1.512-4.799-5.435-3.288-8.762
									c1.511-3.329,11.108-8.453,11.108-8.453S92.697,126.03,91.187,129.358z"/>
								<path fill="#BC6325" d="M142.382,129.358c-1.511,3.327-5.434,4.798-8.76,3.287c-3.328-1.512-4.8-5.435-3.289-8.762
									c1.512-3.329,11.11-8.453,11.11-8.453S143.894,126.03,142.382,129.358z"/>
								<path fill="#BC6325" d="M193.581,129.358c-1.513,3.327-5.435,4.798-8.762,3.287c-3.327-1.512-4.799-5.435-3.287-8.762
									c1.512-3.329,11.109-8.453,11.109-8.453S195.09,126.03,193.581,129.358z"/>
								<path fill="#BC6325" d="M244.776,129.358c-1.511,3.327-5.434,4.798-8.76,3.287c-3.328-1.512-4.799-5.435-3.288-8.762
									c1.512-3.329,11.109-8.453,11.109-8.453S246.287,126.03,244.776,129.358z"/>
								<path fill="#BC6325" d="M295.972,129.358c-1.51,3.327-5.433,4.798-8.76,3.287c-3.327-1.512-4.799-5.435-3.288-8.762
									c1.511-3.329,11.109-8.453,11.109-8.453S297.485,126.03,295.972,129.358z"/>
								<path fill="#BC6325" d="M347.169,129.358c-1.511,3.327-5.435,4.798-8.762,3.287c-3.325-1.512-4.798-5.435-3.286-8.762
									c1.51-3.329,11.109-8.453,11.109-8.453S348.681,126.03,347.169,129.358z"/>
							</g>
						</g>
					</g>
				</g>
			</g>
		</g>
	</g>
</g>
</svg>
