<?xml version="1.0" encoding="utf-8"?>
<!-- Generator: Adobe Illustrator 16.0.0, SVG Export Plug-In . SVG Version: 6.00 Build 0)  -->
<!DOCTYPE svg PUBLIC "-//W3C//DTD SVG 1.1//EN" "http://www.w3.org/Graphics/SVG/1.1/DTD/svg11.dtd">
<svg version="1.1" id="圖層_1" xmlns="http://www.w3.org/2000/svg" xmlns:xlink="http://www.w3.org/1999/xlink" x="0px" y="0px"
	 width="640px" height="360px" viewBox="0 0 640 360" enable-background="new 0 0 640 360" xml:space="preserve">
<g>
	<g>
		<defs>
			<rect id="SVGID_209_" x="757.358" y="253" width="358.75" height="82"/>
		</defs>
		<clipPath id="SVGID_2_">
			<use xlink:href="#SVGID_209_"  overflow="visible"/>
		</clipPath>
		<g clip-path="url(#SVGID_2_)">
			<defs>
				<rect id="SVGID_211_" x="730.923" y="231.006" width="433.536" height="149.028"/>
			</defs>
			<clipPath id="SVGID_4_">
				<use xlink:href="#SVGID_211_"  overflow="visible"/>
			</clipPath>
			<rect x="268.995" y="-375.251" clip-path="url(#SVGID_4_)" fill="#C16926" width="1358.748" height="764.914"/>
		</g>
	</g>
</g>
<g>
	<defs>
		<rect id="SVGID_225_" x="-1" y="-0.563" width="642" height="361.126"/>
	</defs>
	<clipPath id="SVGID_6_">
		<use xlink:href="#SVGID_225_"  overflow="visible"/>
	</clipPath>
	<g id="圖層_1_6_" clip-path="url(#SVGID_6_)">
		<rect x="-1" y="-0.563" fill="#D13C3D" width="642" height="361.126"/>
		<g>
			<g>
				<defs>
					<rect id="SVGID_227_" x="-1.335" y="-0.897" width="642.669" height="361.794"/>
				</defs>
				<clipPath id="SVGID_8_">
					<use xlink:href="#SVGID_227_"  overflow="visible"/>
				</clipPath>
				<g opacity="0.5" clip-path="url(#SVGID_8_)">
					
						<linearGradient id="SVGID_10_" gradientUnits="userSpaceOnUse" x1="3.2891" y1="12641.2324" x2="-45.8621" y2="12539.9209" gradientTransform="matrix(1 0 0 -1 544.29 12662.7461)">
						<stop  offset="0" style="stop-color:#B81C2C"/>
						<stop  offset="1" style="stop-color:#B81C2C;stop-opacity:0.1"/>
					</linearGradient>
					<path fill="url(#SVGID_10_)" d="M594.856,31.777c-3.376-0.193-6.425-1.009-9.728-1.565c-8.172-1.381-15.629,1.03-23.74,2.822
						c-19.286,4.256-33.924,12.573-48.728,25.559c-22.263,19.528-44.03,40.016-65.826,59.991c7.263-1.866,14.416-6.752,21.287-9.775
						c7.069-3.112,14.272-6.054,20.955-9.938c6.088-3.538,12.118-7.57,18.378-10.771c17.285-8.836,31.896-20.302,47.744-31.217
						c8.466-5.831,17.116-11.553,26.252-15.997c3.934-1.912,13.658-3.986,14.492-8.837L594.856,31.777z"/>
					
						<linearGradient id="SVGID_12_" gradientUnits="userSpaceOnUse" x1="30.6104" y1="12617.4365" x2="1.521" y2="12523.1475" gradientTransform="matrix(1 0 0 -1 544.29 12662.7461)">
						<stop  offset="0" style="stop-color:#B81C2C"/>
						<stop  offset="1" style="stop-color:#B81C2C;stop-opacity:0.1"/>
					</linearGradient>
					<path fill="url(#SVGID_12_)" d="M585.303,45.307c-1.951,0.443-3.945,0.147-5.987,0.181c-5.053,0.084-8.323,4.149-12.187,7.67
						c-9.185,8.364-14.3,20.243-17.808,37.23c-5.273,25.539-9.923,52.029-14.775,77.965c3.363-3.435,5.563-10.132,8.287-14.751
						c2.802-4.751,5.738-9.347,8.043-14.862c2.099-5.024,3.984-10.578,6.304-15.271c6.4-12.957,10.355-28.249,15.198-43.187
						c2.588-7.977,5.317-15.875,8.783-22.476c1.491-2.842,6.15-6.979,4.846-12.414L585.303,45.307z"/>
					
						<linearGradient id="SVGID_14_" gradientUnits="userSpaceOnUse" x1="16.4365" y1="12629.8818" x2="-71.3339" y2="12614.334" gradientTransform="matrix(1 0 0 -1 544.29 12662.7461)">
						<stop  offset="0" style="stop-color:#B81C2C"/>
						<stop  offset="1" style="stop-color:#B81C2C;stop-opacity:0.1"/>
					</linearGradient>
					<path fill="url(#SVGID_14_)" d="M593.238,37.766c-3.633,1.4-13.602-6.835-17.925-8.51c-8.749-3.39-16.841-4.37-26.145-5.05
						c-19.692-1.438-35.435,2.615-54.276,7.229c-4.863,1.19-10.537,3.379-15.613,3.338c-3.503-0.028-6.159-1.837-9.359-2.541
						c-6.538-1.436-13.896-1.536-20.38-2.177c5.613,0.905,10.966,5.534,16.31,7.581c4.551,1.743,9.541,2.942,14.188,4.228
						c5.805,1.604,11.398,2.692,17.382,3.127c15.641,1.134,30.302,3.309,45.52,6.438c11.423,2.348,25.318,4.404,36.301-0.087
						C584.218,49.31,593.238,37.766,593.238,37.766z"/>
					
						<linearGradient id="SVGID_16_" gradientUnits="userSpaceOnUse" x1="16.3242" y1="12635.8652" x2="97.0726" y2="12563.6426" gradientTransform="matrix(1 0 0 -1 544.29 12662.7461)">
						<stop  offset="0" style="stop-color:#B81C2C"/>
						<stop  offset="1" style="stop-color:#B81C2C;stop-opacity:0.1"/>
					</linearGradient>
					<path fill="url(#SVGID_16_)" d="M569.312,24.888c0.302,2.687-0.031,5.292-0.086,8.025c-0.133,6.761,3.232,11.898,6.104,17.721
						c6.824,13.842,16.838,22.918,31.312,30.813c21.762,11.87,44.365,23.084,66.488,34.468c-2.819-5.142-8.493-9.345-12.357-13.853
						c-3.977-4.638-7.811-9.428-12.463-13.549c-4.239-3.752-8.939-7.32-12.884-11.303c-10.888-10.995-23.889-19.165-36.543-28.455
						c-6.76-4.963-13.444-10.102-18.983-15.976c-2.384-2.529-5.758-9.53-10.486-8.816L569.312,24.888z"/>
					
						<linearGradient id="SVGID_18_" gradientUnits="userSpaceOnUse" x1="56.7217" y1="12628.6719" x2="105.8725" y2="12610.1143" gradientTransform="matrix(1 0 0 -1 544.29 12662.7461)">
						<stop  offset="0" style="stop-color:#B81C2C"/>
						<stop  offset="1" style="stop-color:#B81C2C;stop-opacity:0.1"/>
					</linearGradient>
					<path fill="url(#SVGID_18_)" d="M578.558,60.644c2.19-0.057,4.205,0.306,6.37,0.489c5.355,0.451,10.033-1.523,15.17-3.13
						c12.212-3.821,31.404-5.713,43.893-8.43c18.439-4.013,39.12-4.514,61.093-2.007c-4.585,1.61-60.395-61.903-116.911-11.143
						c-16.194,14.544-10.071,20.904-10.332,24.103L578.558,60.644z"/>
					
						<linearGradient id="SVGID_20_" gradientUnits="userSpaceOnUse" x1="36.7148" y1="12597.1094" x2="56.2749" y2="12529.9033" gradientTransform="matrix(1 0 0 -1 544.29 12662.7461)">
						<stop  offset="0" style="stop-color:#B81C2C"/>
						<stop  offset="1" style="stop-color:#B81C2C;stop-opacity:0.1"/>
					</linearGradient>
					<path fill="url(#SVGID_20_)" d="M573.491,52.065c1.857,2.322,0.247,13.053,0.602,17.025c0.717,8.034,2.574,14.687,4.963,22.174
						c5.051,15.848,11.976,26.642,20.134,39.645c2.104,3.354,5.007,6.982,6.491,10.949c1.025,2.737,0.81,5.457,1.37,8.203
						c1.144,5.607,3.273,11.373,4.844,16.65c-1.164-4.697-0.185-10.536-0.636-15.434c-0.384-4.171-1.201-8.489-1.868-12.567
						c-0.833-5.102-1.891-9.848-3.426-14.663c-4.016-12.584-7.164-24.784-9.947-37.76c-2.09-9.74-5.074-21.298-10.83-28.228
						C582.58,54.919,573.491,52.065,573.491,52.065z"/>
				</g>
			</g>
			<g>
				<defs>
					<rect id="SVGID_235_" x="-1.335" y="-0.897" width="642.669" height="361.794"/>
				</defs>
				<clipPath id="SVGID_22_">
					<use xlink:href="#SVGID_235_"  overflow="visible"/>
				</clipPath>
				<g clip-path="url(#SVGID_22_)">
					<path fill="#11755B" d="M579.757,44.777c-3.253-0.919-6.053-2.375-9.156-3.635c-7.68-3.116-15.482-2.375-23.789-2.384
						c-19.75-0.019-35.841,4.935-53.106,14.409c-25.96,14.244-51.646,29.534-77.249,44.317c7.495-0.248,15.535-3.469,22.897-4.936
						c7.577-1.508,15.245-2.82,22.61-5.165c6.709-2.136,13.469-4.769,20.274-6.538c18.789-4.886,35.534-12.917,53.369-20.144
						c9.525-3.856,19.21-7.572,29.093-9.933c4.253-1.016,14.196-0.935,16.06-5.491L579.757,44.777z"/>
					<path fill="#11755B" d="M587.28,40.315c-2.251,0.281-4.483-0.007-6.801-0.043c-5.732-0.091-9.829,2.946-14.545,5.542
						c-11.207,6.171-18.141,15.178-23.74,28.176c-8.42,19.542-16.221,39.833-24.198,59.693c4.14-2.546,7.273-7.646,10.8-11.126
						c3.63-3.58,7.398-7.034,10.538-11.218c2.858-3.813,5.526-8.04,8.603-11.588c8.493-9.799,14.436-21.477,21.354-32.85
						c3.695-6.075,7.543-12.084,12.103-17.069c1.961-2.146,7.637-5.197,6.679-9.43L587.28,40.315z"/>
					<path fill="#11755B" d="M584.772,43.273c-3.84-0.632-8.269-12.779-11.149-16.414c-5.829-7.352-12.309-12.294-19.989-17.59
						c-16.251-11.211-31.881-15.686-50.466-21.246c-4.796-1.435-10.797-2.419-15.154-5.025c-3.008-1.797-4.381-4.702-6.786-6.93
						c-4.91-4.547-11.205-8.359-16.472-12.194c4.383,3.623,6.655,10.324,10.226,14.794c3.043,3.808,6.739,7.368,10.096,10.829
						c4.194,4.323,8.467,8.095,13.406,11.498c12.914,8.896,24.458,18.195,35.995,28.599c8.662,7.808,19.603,16.616,31.348,18.304
						C571.149,48.662,584.772,43.273,584.772,43.273z"/>
					<path fill="#11755B" d="M567.557,35.156c2.39,2.391,4.12,5.028,6.214,7.644c5.178,6.472,12.349,9.637,19.593,13.701
						c17.224,9.664,33.684,13.203,53.375,13.371c29.612,0.251,59.494-0.542,89.058-0.934c-6.662-3.445-15.251-4.562-22.393-6.879
						c-7.346-2.386-14.681-4.986-22.251-6.538c-6.898-1.415-14.081-2.42-20.886-4.2c-18.78-4.914-37.315-6.087-56.406-8.496
						c-10.197-1.284-20.464-2.776-30.238-5.543c-4.208-1.191-12.845-6.118-16.696-3.054L567.557,35.156z"/>
					<path fill="#11755B" d="M573.505,41.418c2.191-0.059,4.206,0.306,6.371,0.487c5.355,0.451,10.033-1.524,15.171-3.131
						c12.209-3.818,31.402-5.71,43.893-8.429c18.438-4.011,39.119-4.514,61.092-2.006c-4.584,1.608-60.395-61.905-116.913-11.143
						c-16.192,14.544-10.07,20.903-10.33,24.103L573.505,41.418z"/>
					<path fill="#11755B" d="M573.437,46.405c2.064,1.292,1.653,9.524,2.431,12.359c1.571,5.737,4.107,10.207,7.251,15.172
						c6.654,10.509,14.595,16.894,23.976,24.625c2.422,1.995,5.649,4.014,7.531,6.596c1.297,1.781,1.381,3.825,2.228,5.715
						c1.726,3.861,4.432,7.619,6.538,11.143c-1.647-3.187-1.321-7.688-2.292-11.183c-0.829-2.976-2.093-5.963-3.188-8.809
						c-1.367-3.558-2.915-6.807-4.937-10c-5.288-8.343-9.687-16.598-13.813-25.502c-3.097-6.683-7.267-14.503-13.644-18.312
						C582.628,46.483,573.437,46.405,573.437,46.405z"/>
				</g>
			</g>
			<g>
				<defs>
					<rect id="SVGID_237_" x="-1.335" y="-0.897" width="642.669" height="361.794"/>
				</defs>
				<clipPath id="SVGID_24_">
					<use xlink:href="#SVGID_237_"  overflow="visible"/>
				</clipPath>
				<path opacity="0.1" clip-path="url(#SVGID_24_)" fill="#D13C3D" enable-background="new    " d="M-73.171,4.649
					c-24.663,67.222-26.464,142.82-17.082,213.136c4.501,33.717,5.221,62.557,22.267,90.359
					c7.755,12.647,16.165,27.208,27.075,35.813c18.018,14.211,12.501,30.124,32.331,40.27c28.393,14.53,85.193,16.349,113.73,30.334
					c28.85,14.142,63.803,11.532,94.899,14.36c43.912,3.992,180.572-3.894,224.706-5.049c26.739-0.698,53.405-6.733,80.064-6.963
					c11.877-0.104,24.568,3.47,36.313-0.184c1.413-18.337-14.202-25.603-19.831-44.178
					c-10.933-36.073-263.708-57.416-288.556-64.656c-50.526-14.726-107.201-25.069-140.71-76.034
					C61.871,185.975,25.552,113.163,24.612,56.358C24.138,27.631,46.371-29.32,27.401-48.153
					C-59.64-134.567-64.422-19.193-73.171,4.649z"/>
			</g>
			<g>
				<defs>
					<rect id="SVGID_239_" x="-1.335" y="-0.897" width="642.669" height="361.794"/>
				</defs>
				<clipPath id="SVGID_25_">
					<use xlink:href="#SVGID_239_"  overflow="visible"/>
				</clipPath>
				<path opacity="0.15" clip-path="url(#SVGID_25_)" fill="#D13C3D" enable-background="new    " d="M262.268,505.667
					c-47.263,27.724-103.484,33.198-157.088,27.329c-25.703-2.813-47.317-2.121-70.092-17.658
					c-10.358-7.069-22.224-14.695-29.94-25.089c-12.743-17.165-23.968-10.92-33.892-30.08
					c-14.207-27.433-22.291-83.639-36.111-111.241c-13.974-27.904-16.163-62.674-21.957-93.355
					c-8.18-43.33-18.477-179.163-22.841-222.962c-2.645-26.536-1.298-53.26-4.281-79.693c-1.33-11.775-5.499-24.183-4.163-36.001
					c13.522-2.295,20.796,12.827,35.327,17.5c28.223,9.075,74.09,258.57,82.436,282.84c16.976,49.361,31.41,105.029,73.424,135.753
					c37.823,27.66,96.479,60.104,138.996,58.264c21.502-0.933,61.383-25.747,77.69-7.864
					C364.59,485.463,279.028,495.833,262.268,505.667z"/>
			</g>
		</g>
		<g>
			<g>
				<defs>
					<rect id="SVGID_241_" x="-1.001" y="-1.232" width="642.669" height="361.795"/>
				</defs>
				<clipPath id="SVGID_26_">
					<use xlink:href="#SVGID_241_"  overflow="visible"/>
				</clipPath>
				<path opacity="0.18" clip-path="url(#SVGID_26_)" fill="#C12B35" enable-background="new    " d="M-72.836,11.418
					c-24.663,72.878-26.465,154.835-17.083,231.066c4.5,36.555,5.223,67.82,22.268,97.962c7.753,13.711,16.164,29.496,27.074,38.826
					c18.018,15.406,12.503,32.658,32.332,43.659c28.394,15.751,85.192,17.723,113.729,32.886
					c28.851,15.33,63.804,12.501,94.899,15.567c43.914,4.328,180.574-4.222,224.707-5.474c26.741-0.759,53.406-7.299,80.064-7.551
					c11.876-0.112,24.568,3.763,36.313-0.2c1.412-19.878-14.203-27.754-19.83-47.893c-10.933-39.107-263.709-62.246-288.556-70.096
					c-50.526-15.964-107.203-27.179-140.711-82.43C62.206,208.001,25.886,129.063,24.947,67.478
					c-0.476-31.142,21.759-92.885,2.788-113.303C-59.305-139.508-64.089-14.428-72.836,11.418z"/>
				<path opacity="0.3" clip-path="url(#SVGID_26_)" fill="#C12B35" enable-background="new    " d="M262.602,505.334
					c-47.264,27.722-103.484,33.197-157.087,27.329c-25.704-2.814-47.318-2.122-70.092-17.659
					c-10.36-7.069-22.225-14.693-29.94-25.088c-12.743-17.165-23.97-10.92-33.892-30.08
					c-14.207-27.433-22.291-83.639-36.113-111.241c-13.972-27.904-16.161-62.674-21.955-93.356
					c-8.182-43.33-18.477-179.164-22.842-222.961c-2.645-26.536-1.296-53.26-4.28-79.694c-1.329-11.776-5.501-24.183-4.164-36.001
					c13.522-2.295,20.795,12.827,35.328,17.5C-54.213-56.841-8.347,192.653,0,216.925c16.976,49.36,31.408,105.027,73.423,135.751
					c37.823,27.66,96.48,60.104,138.996,58.265c21.502-0.932,61.384-25.747,77.69-7.863
					C364.925,485.129,279.363,495.5,262.602,505.334z"/>
			</g>
		</g>
		<g>
			<path opacity="0.2" fill="#11755B" enable-background="new    " d="M583.118,40.245c1.814,0.531,10.223,2.714,11.815,3.522
				c1.602,0.814-0.934,2.946-2.132,3.577c-2.354,1.242-11.801,0.789-16.705,1.979c-2.903,0.704-7.244,3.881-11.695,8.942
				c-3.515,3.996-3.114-1.135-3.573-2.474c-0.484-1.411,3.121-7.208-6.157-7.885c-5.612-0.408-9.116-5.555-2.589-7.438
				c2.837-0.819,5.737-1.313,8.624-1.932C563.661,37.903,570.214,36.474,583.118,40.245z"/>
			<path fill="#11755B" d="M553.583,39.496c1.007,6.476,12.177,4.511,18.327,5.138c3.93,0.402,7.744-0.053,11.595-0.508
				c2.449-0.288,7.833-0.304,9.298-1.804c-2.406-0.738-2.88-0.104-4.449-1.748c-1.573-1.646-3.411-2.906-4.42-4.879
				c-1.493-2.913-1.448-6.396-2.079-9.477c-0.604-2.956-1.289-5.578-1.299-8.556c-0.004-1.149,0.131-2.208,0.44-3.3
				c0.112-0.396,0.926-1.779,0.858-2.038c-0.274-1.051-1.299-0.951-2.849-1.004c-0.715-0.023-3.934-0.308-4.496,0.029
				c-0.882,0.528-0.582,2.464-0.849,3.223c-0.567,1.627-1.19,3.181-1.532,4.873c-0.927,4.592-2.637,9.694-5.442,13.885
				c-0.882,1.317-1.783,2.345-3.392,3.159c-2.07,1.049-6.091,2.817-8.598,2.671L553.583,39.496z"/>
			<path opacity="0.2" fill="#11755B" enable-background="new    " d="M553.583,39.496c1.007,6.476,12.177,4.511,18.327,5.138
				c3.93,0.402,7.744-0.053,11.595-0.508c-20.689-4.418-16.639-4.516-11.503-13.793c2.291-4.139,1.889-17.73,5.423-19.102
				c-1.169-0.059-2.563-0.091-2.914,0.119c-0.882,0.528-0.583,2.464-0.848,3.223c-0.569,1.627-1.192,3.181-1.534,4.873
				c-0.925,4.592-2.637,9.694-5.442,13.885c-0.882,1.317-1.783,2.345-3.392,3.159C561.225,37.539,553.583,39.496,553.583,39.496z"/>
		</g>
	</g>
</g>
<g id="圖層_1_4_">
	<g opacity="0.3" enable-background="new    ">
		<g>
			<defs>
				<rect id="SVGID_243_" y="-420" width="640" height="360"/>
			</defs>
			<clipPath id="SVGID_28_">
				<use xlink:href="#SVGID_243_"  overflow="visible"/>
			</clipPath>
			<g clip-path="url(#SVGID_28_)">
				<g opacity="0.819">
					<path fill="none" stroke="#096D52" stroke-width="4" stroke-miterlimit="10" d="M3.869-435.557c0,8.428-6.66,8.428-6.66,16.856
						c0,8.428,6.66,8.428,6.66,16.855s-6.66,8.428-6.66,16.857c0,8.429,6.66,8.429,6.66,16.856s-6.66,8.428-6.66,16.856
						s6.66,8.429,6.66,16.856s-6.66,8.428-6.66,16.856s6.66,8.429,6.66,16.856c0,8.429-6.66,8.429-6.66,16.857
						c0,8.427,6.66,8.427,6.66,16.854c0,8.429-6.66,8.429-6.66,16.856c0,8.429,6.66,8.429,6.66,16.857
						c0,8.428-6.66,8.428-6.66,16.856s6.66,8.428,6.66,16.856c0,8.428-6.66,8.428-6.66,16.855c0,8.43,6.66,8.43,6.66,16.857
						s-6.66,8.428-6.66,16.855c0,8.43,6.66,8.43,6.66,16.857c0,8.43-6.66,8.43-6.66,16.858c0,8.428,6.66,8.428,6.66,16.856
						S-2.791-90-2.791-81.571c0,8.428,6.66,8.428,6.66,16.856c0,8.429-6.66,8.429-6.66,16.857c0,8.43,6.66,8.43,6.66,16.859
						c0,8.428-6.66,8.428-6.66,16.857s6.66,8.43,6.66,16.859s-6.66,8.43-6.66,16.86"/>
				</g>
				<g opacity="0.8286">
					<path fill="none" stroke="#096D52" stroke-width="4" stroke-miterlimit="10" d="M41.453-439.323
						c0,8.429-6.66,8.429-6.66,16.857c0,8.428,6.66,8.428,6.66,16.855s-6.66,8.428-6.66,16.855c0,8.429,6.66,8.429,6.66,16.857
						c0,8.428-6.66,8.428-6.66,16.855c0,8.429,6.66,8.429,6.66,16.857c0,8.428-6.66,8.428-6.66,16.855
						c0,8.429,6.66,8.429,6.66,16.857c0,8.429-6.66,8.429-6.66,16.856s6.66,8.428,6.66,16.855s-6.66,8.428-6.66,16.855
						s6.66,8.428,6.66,16.858c0,8.428-6.66,8.428-6.66,16.856c0,8.428,6.66,8.428,6.66,16.855c0,8.429-6.66,8.429-6.66,16.855
						c0,8.429,6.66,8.429,6.66,16.856c0,8.429-6.66,8.428-6.66,16.856s6.66,8.429,6.66,16.857s-6.66,8.429-6.66,16.858
						c0,8.428,6.66,8.428,6.66,16.856c0,8.43-6.66,8.43-6.66,16.859c0,8.428,6.66,8.428,6.66,16.856c0,8.429-6.66,8.429-6.66,16.857
						c0,8.43,6.66,8.43,6.66,16.858c0,8.429-6.66,8.429-6.66,16.858c0,8.43,6.66,8.43,6.66,16.859s-6.66,8.43-6.66,16.86"/>
				</g>
				<g opacity="0.8381">
					<path fill="none" stroke="#096D52" stroke-width="4" stroke-miterlimit="10" d="M79.036-443.089
						c0,8.428-6.659,8.428-6.659,16.857c0,8.427,6.659,8.427,6.659,16.855c0,8.428-6.659,8.428-6.659,16.855
						s6.659,8.428,6.659,16.857c0,8.429-6.659,8.429-6.659,16.856c0,8.429,6.659,8.429,6.659,16.857
						c0,8.428-6.659,8.428-6.659,16.855s6.659,8.428,6.659,16.856s-6.659,8.429-6.659,16.856s6.659,8.428,6.659,16.855
						c0,8.428-6.659,8.428-6.659,16.855c0,8.428,6.659,8.428,6.659,16.857c0,8.428-6.659,8.428-6.659,16.856
						c0,8.429,6.659,8.429,6.659,16.856s-6.659,8.428-6.659,16.855c0,8.429,6.659,8.429,6.659,16.856
						c0,8.43-6.659,8.43-6.659,16.857c0,8.43,6.659,8.43,6.659,16.857c0,8.43-6.659,8.43-6.659,16.857
						c0,8.43,6.659,8.43,6.659,16.857c0,8.429-6.659,8.429-6.659,16.858c0,8.428,6.659,8.428,6.659,16.856
						c0,8.429-6.659,8.429-6.659,16.857c0,8.43,6.659,8.43,6.659,16.858c0,8.429-6.659,8.429-6.659,16.857
						c0,8.432,6.659,8.432,6.659,16.861s-6.659,8.43-6.659,16.859"/>
				</g>
				<g opacity="0.8476">
					<path fill="none" stroke="#096D52" stroke-width="4" stroke-miterlimit="10" d="M116.62-446.855
						c0,8.428-6.66,8.428-6.66,16.856c0,8.429,6.66,8.429,6.66,16.857c0,8.427-6.66,8.427-6.66,16.855
						c0,8.428,6.66,8.428,6.66,16.856s-6.66,8.429-6.66,16.856c0,8.429,6.66,8.429,6.66,16.857s-6.66,8.428-6.66,16.855
						s6.66,8.428,6.66,16.857c0,8.428-6.66,8.428-6.66,16.856c0,8.428,6.66,8.428,6.66,16.854c0,8.429-6.66,8.429-6.66,16.855
						c0,8.429,6.66,8.429,6.66,16.858c0,8.427-6.66,8.427-6.66,16.857c0,8.428,6.66,8.428,6.66,16.855s-6.66,8.428-6.66,16.855
						s6.66,8.428,6.66,16.855c0,8.429-6.66,8.429-6.66,16.856c0,8.429,6.66,8.429,6.66,16.857s-6.66,8.429-6.66,16.857
						s6.66,8.429,6.66,16.858c0,8.43-6.66,8.43-6.66,16.858c0,8.43,6.66,8.43,6.66,16.857c0,8.43-6.66,8.43-6.66,16.857
						c0,8.43,6.66,8.43,6.66,16.858c0,8.429-6.66,8.429-6.66,16.857c0,8.43,6.66,8.43,6.66,16.86c0,8.43-6.66,8.43-6.66,16.859"/>
				</g>
				<g opacity="0.8571">
					<path fill="none" stroke="#096D52" stroke-width="4" stroke-miterlimit="10" d="M154.203-450.621
						c0,8.429-6.66,8.429-6.66,16.856s6.66,8.428,6.66,16.855c0,8.429-6.66,8.429-6.66,16.857s6.66,8.428,6.66,16.857
						c0,8.428-6.66,8.428-6.66,16.856c0,8.428,6.66,8.428,6.66,16.856c0,8.429-6.66,8.429-6.66,16.857
						c0,8.428,6.66,8.428,6.66,16.856s-6.66,8.429-6.66,16.856c0,8.427,6.66,8.427,6.66,16.854c0,8.428-6.66,8.428-6.66,16.855
						c0,8.43,6.66,8.43,6.66,16.857c0,8.429-6.66,8.429-6.66,16.856c0,8.429,6.66,8.429,6.66,16.858c0,8.428-6.66,8.428-6.66,16.855
						s6.66,8.428,6.66,16.856s-6.66,8.429-6.66,16.856c0,8.429,6.66,8.429,6.66,16.858c0,8.428-6.66,8.428-6.66,16.857
						c0,8.428,6.66,8.428,6.66,16.857c0,8.428-6.66,8.428-6.66,16.857c0,8.428,6.66,8.428,6.66,16.856
						c0,8.429-6.66,8.429-6.66,16.857s6.66,8.429,6.66,16.858c0,8.428-6.66,8.428-6.66,16.857c0,8.43,6.66,8.43,6.66,16.86
						c0,8.43-6.66,8.432-6.66,16.861"/>
				</g>
				<g opacity="0.8667">
					<path fill="none" stroke="#096D52" stroke-width="4" stroke-miterlimit="10" d="M191.787-454.387
						c0,8.428-6.66,8.428-6.66,16.856c0,8.428,6.66,8.428,6.66,16.855c0,8.428-6.66,8.428-6.66,16.856
						c0,8.429,6.66,8.429,6.66,16.857c0,8.428-6.66,8.428-6.66,16.856s6.66,8.429,6.66,16.856c0,8.429-6.66,8.429-6.66,16.857
						s6.66,8.428,6.66,16.856c0,8.427-6.66,8.427-6.66,16.857c0,8.427,6.66,8.427,6.66,16.854c0,8.429-6.66,8.429-6.66,16.855
						c0,8.429,6.66,8.429,6.66,16.857c0,8.428-6.66,8.428-6.66,16.856c0,8.429,6.66,8.429,6.66,16.857
						c0,8.427-6.66,8.427-6.66,16.856c0,8.428,6.66,8.428,6.66,16.855s-6.66,8.428-6.66,16.856s6.66,8.429,6.66,16.857
						s-6.66,8.429-6.66,16.857s6.66,8.429,6.66,16.857s-6.66,8.429-6.66,16.858c0,8.428,6.66,8.428,6.66,16.857
						c0,8.428-6.66,8.428-6.66,16.858c0,8.428,6.66,8.428,6.66,16.857c0,8.428-6.66,8.428-6.66,16.857s6.66,8.43,6.66,16.859
						s-6.66,8.43-6.66,16.86"/>
				</g>
			</g>
		</g>
		<g>
			<defs>
				<rect id="SVGID_245_" y="-420" width="640" height="360"/>
			</defs>
			<clipPath id="SVGID_30_">
				<use xlink:href="#SVGID_245_"  overflow="visible"/>
			</clipPath>
			<g clip-path="url(#SVGID_30_)">
				<g opacity="0.8952">
					<path fill="none" stroke="#4B987E" stroke-width="4" stroke-miterlimit="10" d="M324.186-453.612
						c0,8.429-6.66,8.429-6.66,16.856c0,8.428,6.66,8.428,6.66,16.856c0,8.428-6.66,8.428-6.66,16.855
						c0,8.429,6.66,8.429,6.66,16.857c0,8.428-6.66,8.428-6.66,16.855c0,8.429,6.66,8.429,6.66,16.858
						c0,8.428-6.66,8.428-6.66,16.855c0,8.429,6.66,8.429,6.66,16.856c0,8.429-6.66,8.429-6.66,16.856s6.66,8.428,6.66,16.855
						s-6.66,8.428-6.66,16.855c0,8.429,6.66,8.429,6.66,16.857c0,8.427-6.66,8.427-6.66,16.856c0,8.428,6.66,8.428,6.66,16.857
						c0,8.428-6.66,8.428-6.66,16.855c0,8.429,6.66,8.429,6.66,16.856s-6.66,8.428-6.66,16.856c0,8.43,6.66,8.43,6.66,16.857
						c0,8.43-6.66,8.43-6.66,16.859c0,8.428,6.66,8.428,6.66,16.855c0,8.43-6.66,8.43-6.66,16.859c0,8.427,6.66,8.427,6.66,16.856
						c0,8.43-6.66,8.43-6.66,16.858c0,8.428,6.66,8.428,6.66,16.856c0,8.43-6.66,8.43-6.66,16.859c0,8.43,6.66,8.43,6.66,16.859
						c0,8.43-6.66,8.43-6.66,16.86"/>
				</g>
				<g opacity="0.9048">
					<path fill="none" stroke="#4B987E" stroke-width="4" stroke-miterlimit="10" d="M361.768-450.914
						c0,8.429-6.659,8.429-6.659,16.856s6.659,8.428,6.659,16.855c0,8.429-6.659,8.429-6.659,16.856
						c0,8.429,6.659,8.429,6.659,16.857c0,8.428-6.659,8.428-6.659,16.856c0,8.428,6.659,8.428,6.659,16.855
						c0,8.428-6.659,8.428-6.659,16.857c0,8.428,6.659,8.428,6.659,16.856c0,8.428-6.659,8.428-6.659,16.856
						c0,8.428,6.659,8.428,6.659,16.854c0,8.428-6.659,8.428-6.659,16.855c0,8.43,6.659,8.43,6.659,16.857
						c0,8.429-6.659,8.429-6.659,16.856c0,8.428,6.659,8.428,6.659,16.858c0,8.426-6.659,8.426-6.659,16.854
						c0,8.428,6.659,8.428,6.659,16.855s-6.659,8.428-6.659,16.856s6.659,8.429,6.659,16.858c0,8.428-6.659,8.428-6.659,16.857
						c0,8.429,6.659,8.429,6.659,16.858c0,8.428-6.659,8.428-6.659,16.858c0,8.428,6.659,8.428,6.659,16.857
						c0,8.428-6.659,8.428-6.659,16.856c0,8.429,6.659,8.429,6.659,16.859c0,8.428-6.659,8.428-6.659,16.857
						c0,8.429,6.659,8.429,6.659,16.858c0,8.431-6.659,8.431-6.659,16.86"/>
				</g>
				<g opacity="0.9143">
					<path fill="none" stroke="#4B987E" stroke-width="4" stroke-miterlimit="10" d="M399.352-448.216
						c0,8.428-6.66,8.428-6.66,16.857c0,8.428,6.66,8.428,6.66,16.855c0,8.428-6.66,8.428-6.66,16.856
						c0,8.428,6.66,8.428,6.66,16.856s-6.66,8.429-6.66,16.856s6.66,8.428,6.66,16.856s-6.66,8.429-6.66,16.856
						c0,8.429,6.66,8.429,6.66,16.857c0,8.428-6.66,8.428-6.66,16.856c0,8.426,6.66,8.426,6.66,16.854s-6.66,8.428-6.66,16.856
						c0,8.428,6.66,8.428,6.66,16.856c0,8.428-6.66,8.428-6.66,16.855c0,8.429,6.66,8.429,6.66,16.857s-6.66,8.428-6.66,16.856
						c0,8.428,6.66,8.428,6.66,16.857c0,8.428-6.66,8.428-6.66,16.855c0,8.43,6.66,8.43,6.66,16.857c0,8.43-6.66,8.43-6.66,16.857
						c0,8.429,6.66,8.429,6.66,16.857s-6.66,8.429-6.66,16.857c0,8.429,6.66,8.429,6.66,16.857c0,8.429-6.66,8.429-6.66,16.857
						c0,8.429,6.66,8.429,6.66,16.859c0,8.428-6.66,8.428-6.66,16.857s6.66,8.43,6.66,16.859s-6.66,8.43-6.66,16.859"/>
				</g>
				<g opacity="0.9238">
					<path fill="none" stroke="#4B987E" stroke-width="4" stroke-miterlimit="10" d="M436.936-445.517
						c0,8.428-6.66,8.428-6.66,16.855s6.66,8.428,6.66,16.857c0,8.428-6.66,8.428-6.66,16.855s6.66,8.428,6.66,16.857
						c0,8.428-6.66,8.428-6.66,16.856c0,8.428,6.66,8.428,6.66,16.857c0,8.429-6.66,8.429-6.66,16.856s6.66,8.428,6.66,16.856
						s-6.66,8.429-6.66,16.856s6.66,8.428,6.66,16.855c0,8.427-6.66,8.427-6.66,16.855c0,8.428,6.66,8.428,6.66,16.857
						c0,8.428-6.66,8.428-6.66,16.855c0,8.429,6.66,8.429,6.66,16.856s-6.66,8.428-6.66,16.855c0,8.429,6.66,8.429,6.66,16.857
						c0,8.428-6.66,8.428-6.66,16.855c0,8.43,6.66,8.43,6.66,16.858c0,8.43-6.66,8.43-6.66,16.857c0,8.43,6.66,8.43,6.66,16.857
						c0,8.43-6.66,8.43-6.66,16.858c0,8.429,6.66,8.429,6.66,16.856c0,8.429-6.66,8.429-6.66,16.857c0,8.43,6.66,8.43,6.66,16.857
						c0,8.429-6.66,8.429-6.66,16.858s6.66,8.43,6.66,16.859s-6.66,8.43-6.66,16.861"/>
				</g>
				<g opacity="0.9333">
					<path fill="none" stroke="#4B987E" stroke-width="4" stroke-miterlimit="10" d="M474.52-442.82c0,8.429-6.66,8.429-6.66,16.857
						s6.66,8.428,6.66,16.856c0,8.428-6.66,8.428-6.66,16.855c0,8.429,6.66,8.429,6.66,16.857c0,8.428-6.66,8.428-6.66,16.855
						c0,8.429,6.66,8.429,6.66,16.857c0,8.427-6.66,8.427-6.66,16.855c0,8.429,6.66,8.429,6.66,16.857
						c0,8.429-6.66,8.429-6.66,16.856s6.66,8.428,6.66,16.855s-6.66,8.428-6.66,16.855c0,8.429,6.66,8.429,6.66,16.858
						c0,8.428-6.66,8.428-6.66,16.856c0,8.428,6.66,8.428,6.66,16.855s-6.66,8.428-6.66,16.855c0,8.429,6.66,8.429,6.66,16.856
						s-6.66,8.428-6.66,16.856s6.66,8.429,6.66,16.857s-6.66,8.429-6.66,16.857c0,8.429,6.66,8.429,6.66,16.857
						c0,8.429-6.66,8.429-6.66,16.857c0,8.43,6.66,8.43,6.66,16.857c0,8.43-6.66,8.43-6.66,16.857c0,8.43,6.66,8.43,6.66,16.858
						c0,8.429-6.66,8.429-6.66,16.857c0,8.43,6.66,8.43,6.66,16.86s-6.66,8.43-6.66,16.859"/>
				</g>
				<g opacity="0.9429">
					<path fill="none" stroke="#4B987E" stroke-width="4" stroke-miterlimit="10" d="M512.104-440.121
						c0,8.427-6.66,8.427-6.66,16.855c0,8.428,6.66,8.428,6.66,16.855s-6.66,8.428-6.66,16.857c0,8.429,6.66,8.429,6.66,16.856
						c0,8.429-6.66,8.429-6.66,16.856c0,8.429,6.66,8.429,6.66,16.856c0,8.429-6.66,8.429-6.66,16.856
						c0,8.429,6.66,8.429,6.66,16.856s-6.66,8.428-6.66,16.857c0,8.427,6.66,8.427,6.66,16.855c0,8.426-6.66,8.426-6.66,16.854
						c0,8.429,6.66,8.429,6.66,16.857c0,8.428-6.66,8.428-6.66,16.856s6.66,8.428,6.66,16.856c0,8.428-6.66,8.428-6.66,16.856
						s6.66,8.429,6.66,16.856s-6.66,8.428-6.66,16.855c0,8.43,6.66,8.43,6.66,16.859c0,8.428-6.66,8.428-6.66,16.856
						s6.66,8.429,6.66,16.857s-6.66,8.429-6.66,16.857s6.66,8.429,6.66,16.858c0,8.428-6.66,8.428-6.66,16.857
						c0,8.428,6.66,8.428,6.66,16.857c0,8.428-6.66,8.428-6.66,16.858s6.66,8.43,6.66,16.859c0,8.432-6.66,8.432-6.66,16.861"/>
				</g>
				<g opacity="0.9524">
					<path fill="none" stroke="#4B987E" stroke-width="4" stroke-miterlimit="10" d="M549.687-437.423
						c0,8.428-6.66,8.428-6.66,16.856s6.66,8.429,6.66,16.856s-6.66,8.428-6.66,16.855c0,8.429,6.66,8.429,6.66,16.857
						s-6.66,8.428-6.66,16.855c0,8.429,6.66,8.429,6.66,16.857s-6.66,8.428-6.66,16.856c0,8.429,6.66,8.429,6.66,16.856
						c0,8.429-6.66,8.429-6.66,16.856s6.66,8.428,6.66,16.855c0,8.427-6.66,8.427-6.66,16.855c0,8.428,6.66,8.428,6.66,16.857
						c0,8.428-6.66,8.428-6.66,16.855c0,8.429,6.66,8.429,6.66,16.856s-6.66,8.428-6.66,16.855c0,8.429,6.66,8.429,6.66,16.856
						c0,8.429-6.66,8.429-6.66,16.856c0,8.429,6.66,8.429,6.66,16.857s-6.66,8.429-6.66,16.858s6.66,8.43,6.66,16.857
						c0,8.43-6.66,8.43-6.66,16.858c0,8.429,6.66,8.429,6.66,16.857c0,8.429-6.66,8.429-6.66,16.857s6.66,8.429,6.66,16.858
						c0,8.428-6.66,8.428-6.66,16.856c0,8.431,6.66,8.431,6.66,16.861s-6.66,8.43-6.66,16.859"/>
				</g>
				<g opacity="0.9619">
					<path fill="none" stroke="#4B987E" stroke-width="4" stroke-miterlimit="10" d="M587.27-434.725
						c0,8.428-6.659,8.428-6.659,16.856c0,8.428,6.659,8.428,6.659,16.855s-6.659,8.428-6.659,16.856s6.659,8.429,6.659,16.856
						s-6.659,8.428-6.659,16.857c0,8.428,6.659,8.428,6.659,16.856c0,8.428-6.659,8.428-6.659,16.856
						c0,8.428,6.659,8.428,6.659,16.856s-6.659,8.428-6.659,16.857c0,8.428,6.659,8.428,6.659,16.854
						c0,8.428-6.659,8.428-6.659,16.855c0,8.429,6.659,8.429,6.659,16.858c0,8.428-6.659,8.428-6.659,16.856
						c0,8.428,6.659,8.428,6.659,16.855c0,8.43-6.659,8.43-6.659,16.855c0,8.43,6.659,8.43,6.659,16.856
						c0,8.429-6.659,8.429-6.659,16.857c0,8.428,6.659,8.428,6.659,16.857c0,8.429-6.659,8.429-6.659,16.858
						c0,8.428,6.659,8.428,6.659,16.857c0,8.428-6.659,8.428-6.659,16.857c0,8.428,6.659,8.428,6.659,16.858
						c0,8.428-6.659,8.428-6.659,16.857c0,8.428,6.659,8.428,6.659,16.857c0,8.428-6.659,8.428-6.659,16.857
						c0,8.43,6.659,8.43,6.659,16.859s-6.659,8.43-6.659,16.859"/>
				</g>
				<g opacity="0.9714">
					<path fill="none" stroke="#4B987E" stroke-width="4" stroke-miterlimit="10" d="M624.854-432.026
						c0,8.428-6.66,8.428-6.66,16.855c0,8.429,6.66,8.429,6.66,16.857s-6.66,8.428-6.66,16.856c0,8.428,6.66,8.428,6.66,16.857
						c0,8.429-6.66,8.429-6.66,16.856c0,8.429,6.66,8.429,6.66,16.857c0,8.428-6.66,8.428-6.66,16.856s6.66,8.429,6.66,16.855
						c0,8.429-6.66,8.429-6.66,16.856s6.66,8.428,6.66,16.855c0,8.428-6.66,8.428-6.66,16.855c0,8.428,6.66,8.428,6.66,16.858
						c0,8.427-6.66,8.427-6.66,16.856c0,8.428,6.66,8.428,6.66,16.855s-6.66,8.428-6.66,16.856c0,8.428,6.66,8.428,6.66,16.857
						c0,8.428-6.66,8.428-6.66,16.855c0,8.43,6.66,8.43,6.66,16.857c0,8.43-6.66,8.43-6.66,16.857c0,8.429,6.66,8.429,6.66,16.856
						c0,8.43-6.66,8.43-6.66,16.858s6.66,8.429,6.66,16.857s-6.66,8.428-6.66,16.857c0,8.428,6.66,8.428,6.66,16.857
						c0,8.43-6.66,8.43-6.66,16.858c0,8.43,6.66,8.43,6.66,16.861c0,8.43-6.66,8.43-6.66,16.859"/>
				</g>
			</g>
		</g>
	</g>
</g>
</svg>
