<?xml version="1.0" encoding="utf-8"?>
<!-- Generator: Adobe Illustrator 16.0.0, SVG Export Plug-In . SVG Version: 6.00 Build 0)  -->
<!DOCTYPE svg PUBLIC "-//W3C//DTD SVG 1.1//EN" "http://www.w3.org/Graphics/SVG/1.1/DTD/svg11.dtd">
<svg version="1.1" id="圖層_1" xmlns="http://www.w3.org/2000/svg" xmlns:xlink="http://www.w3.org/1999/xlink" x="0px" y="0px"
	 width="50px" height="50px" viewBox="0 0 50 50" enable-background="new 0 0 50 50" xml:space="preserve">
<g>
	<path fill="#D13C3D" d="M12.502,8.948c8.265-6.201,20.928-5.697,28.333,4.18c7.621,10.152,4.35,22.176-3.914,28.371
		c-8.268,6.201-22.058,4.2-28.336-4.178C2.299,28.947,4.237,15.148,12.502,8.948z"/>
	<g>
		<g>
			<path fill="#B21E23" d="M19.742,29.142c-1.382,0.803-7.338,4.263-7.406,5.304c-0.165,2.728,4.598,5.494,6.081,6.126
				c2.8,1.183,6.71,1.313,8.904,1.267c1.442-0.02,8.118-2.061,9.948-4.84c1.229-1.871-0.506-2.8-1.641-3.812
				c-1.202-1.065-2.389-2.085-3.561-3.154c-1.212-1.102-4.278-4.219-6.029-2.815c-1.41,1.123,1.696,3.331-0.147,4.134
				c-1.405,0.607-1.338-3.029-1.387-3.581c-0.061-0.571-1.085-0.409-2.057,0.035C21.385,28.296,20.193,28.887,19.742,29.142z"/>
			<path fill="#E7A720" d="M25.012,33.209c0,0-2.382,3.191-1.388,4.317c0.875,0.977,2.042,0.537,2.365-0.08
				C26.311,36.833,26.122,35.117,25.012,33.209z"/>
			<path fill="#E7A720" d="M22.032,32.603c0,0-3.9,0.781-3.916,2.278c-0.01,1.319,1.158,1.768,1.809,1.53
				C20.577,36.174,21.583,34.767,22.032,32.603z"/>
			<path fill="#E7A720" d="M28.283,32.247c0,0,0.233,3.978,1.716,4.198c1.3,0.19,1.908-0.902,1.761-1.578
				C31.609,34.186,30.364,32.993,28.283,32.247z"/>
		</g>
		<g>
			<path fill="#B21E23" d="M23.858,17.906c-0.028-1.594-0.124-8.482-1.004-9.052c-2.297-1.477-7.043,1.315-8.315,2.3
				c-2.402,1.867-4.43,5.212-5.467,7.137c-0.686,1.272-2.189,8.088-0.651,11.061c1.026,1.976,2.685,0.921,4.123,0.438
				c1.522-0.532,2.99-1.068,4.498-1.56c1.553-0.52,5.766-1.668,5.405-3.881c-0.286-1.782-3.729-0.154-3.531-2.155
				c0.155-1.522,3.293,0.318,3.796,0.539c0.526,0.228,0.893-0.741,0.984-1.808C23.788,19.758,23.863,18.431,23.858,17.906z"/>
			<path fill="#E7A720" d="M17.733,20.538c0,0-1.62-3.64-3.085-3.325c-1.282,0.28-1.471,1.521-1.092,2.097
				C13.939,19.897,15.527,20.571,17.733,20.538z"/>
			<path fill="#E7A720" d="M19.715,18.236c0,0,1.235-3.792-0.062-4.535c-1.145-0.649-2.106,0.143-2.217,0.828
				C17.323,15.221,18.049,16.781,19.715,18.236z"/>
			<path fill="#E7A720" d="M16.968,23.861c0,0-3.58-1.745-4.501-0.563c-0.802,1.044-0.145,2.108,0.516,2.312
				C13.646,25.811,15.302,25.307,16.968,23.861z"/>
		</g>
		<g>
			<path fill="#B21E23" d="M31.571,27.298c1.377,0.809,7.306,4.314,8.252,3.857c2.459-1.188,2.547-6.697,2.364-8.301
				c-0.343-3.018-2.142-6.493-3.249-8.384c-0.731-1.245-5.766-6.076-9.091-6.313c-2.234-0.153-2.196,1.814-2.52,3.296
				c-0.351,1.574-0.648,3.107-1.018,4.654c-0.37,1.596-1.578,5.787,0.497,6.633c1.668,0.683,2.074-3.107,3.677-1.895
				c1.22,0.922-1.986,2.649-2.44,2.963c-0.468,0.331,0.17,1.141,1.035,1.774C30.029,26.276,31.126,27.032,31.571,27.298z"/>
			<path fill="#E7A720" d="M32.518,20.723c0,0,3.957,0.511,4.445-0.903c0.433-1.243-0.531-2.043-1.22-2.028
				C35.045,17.812,33.643,18.817,32.518,20.723z"/>
			<path fill="#E7A720" d="M33.452,23.614c0,0,2.592,3.022,3.9,2.303c1.146-0.638,0.981-1.87,0.453-2.322
				C37.276,23.139,35.558,22.95,33.452,23.614z"/>
			<path fill="#E7A720" d="M30.078,18.338c0,0,3.359-2.149,2.823-3.552c-0.469-1.226-1.718-1.223-2.237-0.763
				C30.146,14.484,29.721,16.161,30.078,18.338z"/>
		</g>
	</g>
</g>
</svg>
