<?xml version="1.0" encoding="utf-8"?>
<!-- Generator: Adobe Illustrator 16.0.0, SVG Export Plug-In . SVG Version: 6.00 Build 0)  -->
<!DOCTYPE svg PUBLIC "-//W3C//DTD SVG 1.1//EN" "http://www.w3.org/Graphics/SVG/1.1/DTD/svg11.dtd">
<svg version="1.1" id="圖層_1" xmlns="http://www.w3.org/2000/svg" xmlns:xlink="http://www.w3.org/1999/xlink" x="0px" y="0px"
	 width="350px" height="120px" viewBox="0 0 350 120" enable-background="new 0 0 350 120" xml:space="preserve">
<g>
	<defs>
		<rect id="SVGID_41_" x="-2.911" y="-1" width="355.175" height="122"/>
	</defs>
	<clipPath id="SVGID_2_">
		<use xlink:href="#SVGID_41_"  overflow="visible"/>
	</clipPath>
	<g clip-path="url(#SVGID_2_)">
		
			<line fill="none" stroke="#EFB91B" stroke-linejoin="round" stroke-miterlimit="10" x1="352.922" y1="105.073" x2="-3.927" y2="105.073"/>
		
			<line fill="none" stroke="#EFB91B" stroke-linejoin="round" stroke-miterlimit="10" x1="352.922" y1="18.145" x2="-3.927" y2="18.145"/>
		<g>
			<g>
				
					<path fill="#EFB91B" stroke="#EFB91B" stroke-width="0.7124" stroke-linecap="round" stroke-linejoin="round" stroke-miterlimit="10" d="
					M125.159,82.438V59.908h17.045v1.294h-15.753v8.204h15.753v1.389h-15.753v10.349h15.753v1.294H125.159z"/>
				
					<path fill="#EFB91B" stroke="#EFB91B" stroke-width="0.7124" stroke-linecap="round" stroke-linejoin="round" stroke-miterlimit="10" d="
					M168.601,79.312c-2.165,2.294-5.039,3.441-8.613,3.441c-3.407,0-6.185-1.071-8.329-3.218c-2.166-2.166-3.25-4.956-3.25-8.362
					c0-3.365,1.085-6.132,3.25-8.298c2.187-2.188,4.962-3.28,8.329-3.28c4.039,0,7.216,1.544,9.529,4.637l-1.043,0.788
					c-2.019-2.776-4.846-4.165-8.486-4.165c-2.966,0-5.428,0.979-7.383,2.937c-1.958,1.955-2.935,4.415-2.935,7.382
					c0,2.988,0.969,5.448,2.903,7.384c1.978,1.936,4.448,2.903,7.414,2.903c3.177,0,5.732-1.063,7.671-3.186
					c1.469-1.599,2.311-3.411,2.521-5.429h-7.448v-1.295h8.867C171.599,74.624,170.599,77.211,168.601,79.312z"/>
				
					<path fill="#EFB91B" stroke="#EFB91B" stroke-width="0.7124" stroke-linecap="round" stroke-linejoin="round" stroke-miterlimit="10" d="
					M178.962,75.882h-0.641c0.383-0.327,0.576-0.734,0.576-1.219v-1.167h-1.057v-1.867h1.698v3.034
					C179.539,75.096,179.349,75.501,178.962,75.882z"/>
				<g>
					
						<path fill="#EFB91B" stroke="#EFB91B" stroke-width="0.7124" stroke-linecap="round" stroke-linejoin="round" stroke-miterlimit="10" d="
						M191.892,81.819c-0.692,0.589-1.522,0.882-2.488,0.882c-1.658,0-2.906-0.752-3.735-2.255l0.909-0.545
						c0.294,0.535,0.647,0.95,1.062,1.244c0.433,0.329,1.021,0.491,1.765,0.491c1.624,0,2.437-0.689,2.437-2.073
						c0-0.604-0.285-1.132-0.856-1.583c-0.171-0.102-0.419-0.218-0.739-0.348c-0.319-0.129-0.712-0.28-1.18-0.453
						c-0.865-0.311-1.487-0.624-1.867-0.935c-0.553-0.447-0.83-1.097-0.83-1.944c0-0.725,0.277-1.349,0.83-1.866
						c0.536-0.535,1.234-0.804,2.097-0.804c1.196,0,2.204,0.415,3.036,1.245l-0.777,0.673c-0.59-0.588-1.339-0.882-2.259-0.882
						c-1.243,0-1.864,0.546-1.864,1.634c0,0.483,0.19,0.882,0.57,1.193c0.311,0.242,0.803,0.476,1.477,0.698
						c0.588,0.209,1.072,0.403,1.455,0.586c0.378,0.181,0.663,0.339,0.854,0.478c0.743,0.571,1.114,1.34,1.114,2.308
						C192.903,80.497,192.568,81.25,191.892,81.819z"/>
				</g>
				<g>
					
						<path fill="#EFB91B" stroke="#EFB91B" stroke-width="0.7124" stroke-linecap="round" stroke-linejoin="round" stroke-miterlimit="10" d="
						M217.163,82.701l-4.615-15.527l-4.64,15.527l-5.939-18.77h1.037l4.847,15.14l4.695-15.476l4.665,15.476l4.85-15.14h1.089
						L217.163,82.701z"/>
					
						<path fill="#EFB91B" stroke="#EFB91B" stroke-width="0.7124" stroke-linecap="round" stroke-linejoin="round" stroke-miterlimit="10" d="
						M234.298,81.018c-1.071,1.07-2.383,1.605-3.938,1.605c-1.557,0-2.861-0.527-3.917-1.581c-1.071-1.071-1.606-2.386-1.606-3.939
						c0-1.54,0.535-2.843,1.606-3.916c1.055-1.088,2.36-1.633,3.917-1.633c1.536,0,2.841,0.536,3.912,1.607
						c1.072,1.072,1.607,2.387,1.607,3.941C235.878,78.656,235.352,79.962,234.298,81.018z M233.548,73.912
						c-0.866-0.881-1.93-1.321-3.189-1.321c-1.212,0-2.257,0.448-3.139,1.348c-0.901,0.898-1.349,1.954-1.349,3.164
						c0,1.227,0.442,2.28,1.323,3.162c0.88,0.882,1.936,1.322,3.165,1.322c1.244,0,2.296-0.433,3.163-1.296
						c0.88-0.882,1.32-1.946,1.32-3.188C234.842,75.84,234.411,74.776,233.548,73.912z"/>
					
						<path fill="#EFB91B" stroke="#EFB91B" stroke-width="0.7124" stroke-linecap="round" stroke-linejoin="round" stroke-miterlimit="10" d="
						M245.938,73.316c-0.275-0.208-0.568-0.372-0.88-0.492c-0.311-0.12-0.639-0.182-0.986-0.182c-0.293,0-0.569,0.09-0.829,0.271
						c-0.259,0.183-0.485,0.406-0.675,0.675c-0.191,0.268-0.34,0.566-0.454,0.895c-0.112,0.328-0.167,0.631-0.167,0.907v7.052
						h-1.064V71.734h1.064v1.452c0.224-0.397,0.517-0.76,0.881-1.088c0.362-0.328,0.76-0.494,1.191-0.494
						c0.537,0,0.976,0.062,1.323,0.182c0.347,0.121,0.736,0.337,1.167,0.648L245.938,73.316z"/>
					
						<path fill="#EFB91B" stroke="#EFB91B" stroke-width="0.7124" stroke-linecap="round" stroke-linejoin="round" stroke-miterlimit="10" d="
						M258.539,82.442l-5.599-5.574l-0.599,0.596v4.979h-1.061V63.257h1.061v12.68l4.644-4.617h1.501l-4.846,4.823l6.299,6.3H258.539
						z"/>
					
						<path fill="#EFB91B" stroke="#EFB91B" stroke-width="0.7124" stroke-linecap="round" stroke-linejoin="round" stroke-miterlimit="10" d="
						M269.661,81.768c-0.692,0.588-1.521,0.882-2.488,0.882c-1.66,0-2.906-0.751-3.734-2.255l0.908-0.544
						c0.294,0.533,0.647,0.949,1.062,1.243c0.43,0.329,1.021,0.493,1.764,0.493c1.624,0,2.437-0.691,2.437-2.074
						c0-0.605-0.284-1.133-0.855-1.581c-0.174-0.104-0.422-0.221-0.74-0.351s-0.712-0.28-1.18-0.453
						c-0.864-0.312-1.486-0.623-1.866-0.934c-0.554-0.45-0.831-1.098-0.831-1.944c0-0.728,0.277-1.348,0.831-1.866
						c0.536-0.536,1.234-0.805,2.098-0.805c1.194,0,2.204,0.416,3.034,1.245l-0.775,0.674c-0.591-0.587-1.339-0.882-2.259-0.882
						c-1.243,0-1.863,0.545-1.863,1.634c0,0.484,0.187,0.883,0.57,1.191c0.308,0.243,0.803,0.477,1.477,0.701
						c0.587,0.208,1.071,0.402,1.453,0.583c0.379,0.181,0.665,0.341,0.855,0.479c0.743,0.571,1.115,1.34,1.115,2.309
						C270.673,80.446,270.335,81.198,269.661,81.768z"/>
				</g>
			</g>
			<g>
				<path fill="#DF7517" d="M96.427,82.025c-7.746,0-12.029-1.537-12.386-4.444c-0.128-1.053,0.104-1.858,0.714-2.463
					c1.063-1.054,2.956-1.246,6.298-1.246c0.696,0,1.452,0.008,2.268,0.017c0.95,0.011,1.985,0.02,3.103,0.02
					c0.774,0,1.509-0.002,2.206-0.006c0.635-0.003,1.241-0.006,1.815-0.006c3.72,0,6.452,0.099,7.708,1.378
					c0.583,0.591,0.804,1.375,0.657,2.33C108.369,80.496,104.085,82.025,96.427,82.025z"/>
				<g>
					<path fill="#4C2E2C" d="M107.955,74.188c0,0.446-0.451,0.81-1.008,0.81H85.913c-0.556,0-1.006-0.363-1.006-0.81v-0.556
						c0-0.447,0.45-0.81,1.006-0.81h21.033c0.557,0,1.008,0.362,1.008,0.81V74.188z"/>
					<path fill="#4C2E2C" d="M106.946,75.807H85.913c-1.123,0-2.035-0.726-2.035-1.618v-0.556c0-0.893,0.912-1.617,2.035-1.617
						h21.033c1.123,0,2.035,0.725,2.035,1.617v0.556C108.981,75.081,108.069,75.807,106.946,75.807z M85.913,73.633l0.021,0.556
						h20.99l0.002-0.556H85.913z"/>
				</g>
				<g>
					<path fill="#F1AD16" d="M85.256,71.488h22.488c0,0-0.823,0.821-2,1.071c-1.313,0.278-2.123,0.763-2.561,1.328
						c-0.707,0.913-0.664-1.239-2.627-1.239c-1.046,0-1.406,0.517-1.648,0.682c-0.198,0.136-0.427-0.07-0.668-0.277
						c-1.269-1.093-1.696-1.129-3.428-1.162C88.423,71.769,84.294,72.141,85.256,71.488z"/>
					<path fill="#F1AD16" d="M102.866,75.141c-0.697,0-1.067-0.494-1.313-0.823c-0.315-0.421-0.503-0.642-0.998-0.642
						c-0.442,0-0.592,0.13-0.782,0.295c-0.093,0.082-0.176,0.15-0.25,0.2c-0.222,0.151-0.483,0.231-0.753,0.231
						c-0.566,0-0.962-0.341-1.223-0.565c-1.028-0.885-1.157-0.887-2.758-0.918c-2.185-0.041-4.103-0.025-5.643-0.013
						c-0.646,0.005-1.207,0.026-1.731,0.01c-1.939,0-3.009-0.003-3.315-0.935c-0.061-0.186-0.201-0.83,0.54-1.334
						c0.179-0.122,0.396-0.188,0.616-0.498h22.488c0.429,0.311,0.815,0.558,0.983,0.938c0.167,0.38,0.084,0.818-0.214,1.115
						c-0.109,0.107-1.089,1.054-2.54,1.361c-1.193,0.253-1.71,0.649-1.933,0.938C103.712,74.926,103.317,75.141,102.866,75.141z"/>
				</g>
				<g>
					<g>
						<path fill="#DE3C3D" d="M97.19,70.488c-0.062,0.723-0.586,1.267-1.171,1.216L85.474,70.79
							c-0.586-0.049-1.012-0.676-0.95-1.397l0.076-0.898c0.062-0.723,0.586-1.266,1.171-1.216l10.546,0.913
							c0.586,0.051,1.011,0.677,0.949,1.398L97.19,70.488z"/>
					</g>
					<g>
						<path fill="#DE3C3D" d="M108.246,70.754c-0.13,0.71-0.704,1.198-1.282,1.09L96.556,69.9c-0.578-0.107-0.941-0.771-0.811-1.479
							l0.161-0.885c0.13-0.71,0.705-1.198,1.282-1.09l10.408,1.944c0.579,0.106,0.942,0.77,0.811,1.479L108.246,70.754z"/>
					</g>
				</g>
				<path fill="#1E8A6A" d="M99.129,69.12c-0.511,0-1.065-0.074-1.742-0.235c-0.378-0.09-0.683-0.194-0.928-0.278
					c-0.363-0.127-0.532-0.181-0.762-0.181c-0.336,0-0.853,0.122-1.536,0.364c-0.602,0.212-1.15,0.315-1.678,0.315
					c-0.897,0-1.536-0.293-2.098-0.553c-0.444-0.206-0.863-0.398-1.454-0.479c-0.547-0.074-0.958,0.043-1.523,0.212
					c-0.419,0.126-0.893,0.269-1.489,0.346c-1.027,0.133-2.084-0.233-2.607-0.896c-0.489-0.62-0.449-1.392,0.106-2.067
					c0.938-1.141,2.111-1.65,3.804-1.65c0.711,0,1.483,0.082,2.375,0.177c0.292,0.02,2.929,0.178,6.721,0.178
					c2.921,0,5.786-0.093,8.514-0.272l0,0c-0.002,0,0.248-0.02,0.628-0.02c2.229,0,3.765,0.622,4.212,1.708
					c0.357,0.861,0.279,1.55-0.229,2.042c-0.308,0.298-0.907,0.652-2.026,0.652c-0.606,0-1.31-0.111-1.977-0.314
					c-0.284-0.087-0.871-0.23-1.597-0.23c-0.795,0-1.536,0.175-2.201,0.52C100.76,68.916,99.985,69.12,99.129,69.12z"/>
				<g>
					<path fill="#F0D795" d="M86.999,60.381h18.863c1.542,0,2.797,1.254,2.797,2.796c0,1.541-1.255,2.796-2.797,2.796H86.999
						c-1.542,0-2.796-1.255-2.796-2.796C84.203,61.635,85.457,60.381,86.999,60.381z M105.862,63.971
						c0.438,0,0.794-0.356,0.794-0.794s-0.356-0.792-0.794-0.792H86.999c-0.438,0-0.793,0.354-0.793,0.792s0.356,0.794,0.793,0.794
						l2.365,0.67l4.618-0.17l7.701,0.073l1.334-0.073L105.862,63.971z"/>
					<path fill="#F0D795" d="M85.801,65.248h20.731l1.501-2.207c-0.467-0.13-0.518-1.034-1.216-1.057
						c-1.656-0.04-3.041,1.154-3.818,1.503c-0.646,0.291-1.149,0.523-2.28,0.484c-1.125-0.034-1.624-0.295-2.255-0.624
						c-0.762-0.396-1.623-0.846-3.282-0.897c-1.663-0.046-2.541,0.344-3.317,0.692c-0.645,0.289-1.156,0.52-2.278,0.484
						c-0.989-0.03-1.405-0.37-2.034-0.883c-0.585-0.477-1.283-1.039-2.385-1.302v3.375C85.387,64.934,85.587,65.077,85.801,65.248z"
						/>
				</g>
				<g>
					<path fill="#DF7517" d="M96.431,51.47c-6.717,0-12.393,3.328-12.393,8.484c0,1.216,0.547,2.813,3.15,3.507
						c1.528,0.408,3.537,0.49,6.282,0.49c0.464,0,0.938-0.002,1.423-0.004c1.18-0.005,2.431-0.003,3.591,0.007
						c0.634,0.005,1.249,0.011,1.841,0.011c3.586,0,8.497,0,8.497-4.011C108.823,54.798,103.147,51.47,96.431,51.47z M92.143,58.465
						c-0.471,0.473-1.237,0.473-1.708,0c-0.472-0.471-0.472-1.235,0-1.708c0.472-0.472,2.441-0.733,2.441-0.733
						S92.615,57.994,92.143,58.465z M96.431,60c-0.668,0-1.209-0.542-1.209-1.209c0-0.668,1.209-2.244,1.209-2.244
						s1.208,1.576,1.208,2.244C97.639,59.458,97.099,60,96.431,60z M102.429,58.465c-0.473,0.473-1.238,0.473-1.71,0
						c-0.472-0.471-0.733-2.441-0.733-2.441s1.97,0.262,2.443,0.733C102.901,57.229,102.901,57.994,102.429,58.465z"/>
					<g>
						<polygon fill="#F5A200" points="99.205,43.313 102.755,43.181 102.748,48.772 99.205,49.07 						"/>
						<g>
							<defs>
								<polygon id="SVGID_43_" points="99.205,43.313 102.755,43.181 102.748,48.772 99.205,49.07 								"/>
							</defs>
							<clipPath id="SVGID_4_">
								<use xlink:href="#SVGID_43_"  overflow="visible"/>
							</clipPath>
							<g clip-path="url(#SVGID_4_)">
								<path fill="#4A2E2C" d="M100.896,46.508c-0.009-0.078,0.048-0.154,0.128-0.167c0.078-0.014,0.151,0.04,0.159,0.118
									c0.004,0.042,0.009,0.084,0.012,0.129c0.002,0.039,0.003,0.083,0.003,0.13h0.001l0,0h-0.001c0,0.49-0.194,0.885-0.508,1.166
									c-0.308,0.277-0.731,0.438-1.194,0.461l0,0h-0.002l0,0l0,0c-0.464,0.024-0.888-0.092-1.195-0.335
									c-0.314-0.248-0.508-0.624-0.508-1.112h-0.001v-0.002l0,0h0.001c0-0.466,0.182-1.119,0.475-1.661
									c0.306-0.563,0.738-1.012,1.228-1.037v-0.001l0,0h0.002v0.001c0.135-0.008,0.268,0.018,0.393,0.071
									c0.081,0.033,0.158,0.077,0.231,0.129c0.363,0.259,0.621,0.642,0.811,1.143c0.029,0.073-0.01,0.158-0.085,0.19
									c-0.074,0.031-0.157-0.003-0.184-0.075c-0.174-0.456-0.399-0.792-0.717-1.02c-0.059-0.042-0.118-0.075-0.178-0.101
									c-0.089-0.037-0.181-0.055-0.271-0.05l0,0h-0.002l0,0l0,0c-0.37,0.02-0.716,0.399-0.976,0.876
									c-0.269,0.5-0.439,1.098-0.439,1.519h0.001l0,0v0.002h-0.001c0,0.397,0.155,0.7,0.406,0.898
									c0.255,0.201,0.613,0.298,1.009,0.276l0,0l0,0l0.002-0.001v0.001c0.396-0.021,0.752-0.154,1.01-0.383
									c0.25-0.224,0.405-0.543,0.405-0.941l0,0l0,0l0,0c0-0.034-0.001-0.071-0.004-0.112
									C100.903,46.584,100.899,46.547,100.896,46.508z"/>
								<path fill="#4A2E2C" d="M99.115,46.162c0.073-0.04,0.158-0.017,0.196,0.052c0.037,0.069,0.008,0.157-0.062,0.198
									c-0.117,0.066-0.207,0.114-0.288,0.148l0,0l0,0c-0.089,0.039-0.167,0.057-0.246,0.059c-0.117,0.004-0.211-0.034-0.306-0.069
									c-0.082-0.032-0.162-0.063-0.228-0.047h-0.001l0,0c-0.006,0.002-0.013,0.003-0.017,0.005
									c-0.004,0.004-0.009,0.005-0.013,0.009l0,0c-0.029,0.021-0.051,0.065-0.058,0.136c-0.008,0.08-0.079,0.142-0.158,0.138
									c-0.079-0.004-0.137-0.071-0.129-0.151c0.017-0.168,0.086-0.285,0.186-0.355l0,0h0.001c0.021-0.015,0.042-0.026,0.065-0.037
									c0.022-0.01,0.046-0.019,0.069-0.024l0,0h0.001c0.153-0.039,0.276,0.009,0.398,0.057c0.069,0.027,0.14,0.054,0.198,0.053
									c0.04-0.001,0.083-0.013,0.137-0.035l0,0C98.927,46.268,99.008,46.224,99.115,46.162z"/>
								<path fill="#4A2E2C" d="M98.513,46.272c0.074,0.03,0.106,0.115,0.071,0.188c-0.032,0.073-0.117,0.111-0.189,0.082
									c-0.168-0.067-0.291-0.154-0.361-0.283c-0.068-0.132-0.075-0.293-0.008-0.502c0.026-0.076,0.108-0.122,0.184-0.1
									c0.075,0.021,0.116,0.101,0.092,0.178c-0.042,0.126-0.042,0.215-0.009,0.277C98.326,46.18,98.404,46.229,98.513,46.272z"/>
								<path fill="#4A2E2C" d="M99.74,46.388c-0.07-0.034-0.099-0.12-0.062-0.192c0.037-0.073,0.124-0.105,0.195-0.073
									c0.108,0.051,0.189,0.087,0.255,0.106l0,0c0.056,0.019,0.097,0.024,0.136,0.021c0.06-0.004,0.13-0.039,0.199-0.073
									c0.123-0.061,0.246-0.12,0.398-0.099h0.001l0,0c0.023,0.003,0.047,0.009,0.07,0.019c0.021,0.007,0.043,0.017,0.064,0.029h0
									l0,0c0.1,0.061,0.167,0.17,0.186,0.335c0.008,0.079-0.049,0.153-0.129,0.165c-0.08,0.013-0.15-0.042-0.158-0.12
									c-0.007-0.071-0.027-0.113-0.058-0.131l0,0c-0.004-0.002-0.008-0.004-0.014-0.006c-0.004-0.002-0.011-0.003-0.018-0.005l0,0
									h0c-0.065-0.01-0.146,0.03-0.228,0.071c-0.094,0.047-0.188,0.093-0.305,0.103c-0.081,0.007-0.157-0.005-0.246-0.033l0,0l0,0
									C99.947,46.479,99.856,46.44,99.74,46.388z"/>
							</g>
						</g>
						<g>
							<line fill="#4A2E2C" x1="96.264" y1="43.078" x2="96.264" y2="53.099"/>
							<path fill="#4A2E2C" d="M96.035,53.099V43.078c0-0.103,0.179-0.187,0.396-0.187s0.395,0.084,0.395,0.187v10.021
								c0,0.104-0.177,0.188-0.395,0.188S96.035,53.202,96.035,53.099z"/>
						</g>
						<polygon fill="#EFB91B" points="96.035,43.465 99.493,43.593 99.485,49.466 96.035,49.512 						"/>
						<polygon fill="#EE7800" points="99.493,43.593 99.205,43.313 99.205,43.581 						"/>
						<g>
							<defs>
								<polygon id="SVGID_45_" points="96.035,43.465 99.493,43.593 99.485,49.466 96.035,49.512 								"/>
							</defs>
							<clipPath id="SVGID_6_">
								<use xlink:href="#SVGID_45_"  overflow="visible"/>
							</clipPath>
							<g clip-path="url(#SVGID_6_)">
								<path fill="#4A2E2C" d="M100.838,46.69c-0.009-0.079,0.049-0.154,0.128-0.167c0.079-0.013,0.151,0.04,0.16,0.119
									c0.005,0.041,0.008,0.083,0.012,0.127c0.001,0.04,0.004,0.083,0.004,0.13l0,0l0,0l0,0c0,0.49-0.196,0.886-0.509,1.166
									c-0.309,0.276-0.731,0.438-1.195,0.462v0.001h0l0,0v-0.001c-0.465,0.024-0.888-0.092-1.196-0.336
									c-0.313-0.248-0.507-0.623-0.507-1.112h-0.001l0,0l0,0h0.001c0-0.467,0.181-1.121,0.474-1.662
									c0.306-0.563,0.739-1.013,1.229-1.038v-0.001l0,0h0v0.001c0.137-0.007,0.269,0.018,0.395,0.071
									c0.081,0.033,0.157,0.077,0.231,0.13c0.363,0.258,0.621,0.642,0.811,1.142c0.028,0.074-0.009,0.16-0.084,0.191
									c-0.075,0.031-0.159-0.002-0.185-0.075c-0.174-0.457-0.399-0.793-0.716-1.019c-0.058-0.043-0.118-0.076-0.177-0.102
									c-0.09-0.037-0.181-0.055-0.274-0.051v0.001h0l0,0v-0.001c-0.37,0.02-0.718,0.399-0.976,0.878
									c-0.272,0.499-0.44,1.097-0.44,1.519l0,0l0,0l0,0l0,0c0,0.397,0.154,0.7,0.405,0.898c0.256,0.203,0.614,0.298,1.011,0.277
									v-0.001l0,0l0-0.001v0.002c0.397-0.021,0.754-0.155,1.01-0.384c0.251-0.224,0.404-0.543,0.404-0.94l0,0v-0.001l0,0
									c0-0.034,0-0.07-0.003-0.111C100.846,46.767,100.843,46.729,100.838,46.69z"/>
								<path fill="#4A2E2C" d="M99.06,46.344c0.071-0.039,0.157-0.017,0.194,0.054c0.036,0.068,0.008,0.156-0.063,0.198
									c-0.117,0.065-0.207,0.113-0.287,0.147l0,0l0,0c-0.089,0.038-0.166,0.057-0.247,0.06c-0.115,0.002-0.209-0.035-0.304-0.072
									c-0.082-0.03-0.162-0.063-0.228-0.046l0,0l0,0c-0.006,0.001-0.013,0.003-0.017,0.007c-0.005,0.002-0.01,0.004-0.014,0.007
									l0,0c-0.029,0.021-0.05,0.064-0.058,0.137c-0.007,0.079-0.08,0.141-0.159,0.137c-0.08-0.004-0.137-0.071-0.128-0.151
									c0.017-0.167,0.086-0.284,0.186-0.354l0,0l0,0c0.021-0.016,0.042-0.027,0.064-0.037c0.023-0.012,0.046-0.02,0.069-0.025l0,0
									h0.001c0.153-0.038,0.274,0.009,0.399,0.058c0.068,0.026,0.138,0.053,0.198,0.052c0.039,0,0.081-0.012,0.137-0.035v0.001
									C98.871,46.45,98.95,46.406,99.06,46.344z"/>
								<path fill="#4A2E2C" d="M98.457,46.456c0.072,0.029,0.105,0.112,0.072,0.188c-0.034,0.074-0.118,0.11-0.191,0.082
									c-0.168-0.068-0.292-0.155-0.361-0.284c-0.069-0.131-0.076-0.293-0.008-0.502c0.026-0.075,0.107-0.12,0.183-0.1
									c0.077,0.021,0.117,0.1,0.092,0.179c-0.041,0.126-0.042,0.215-0.008,0.277C98.27,46.361,98.347,46.412,98.457,46.456z"/>
								<path fill="#4A2E2C" d="M99.683,46.568c-0.07-0.033-0.099-0.119-0.062-0.19c0.037-0.073,0.124-0.105,0.195-0.072
									c0.107,0.049,0.19,0.085,0.254,0.104l0,0c0.056,0.019,0.098,0.026,0.137,0.022c0.06-0.005,0.129-0.039,0.199-0.073
									c0.123-0.061,0.246-0.121,0.397-0.1h0.002l0,0c0.021,0.005,0.045,0.01,0.068,0.018c0.022,0.009,0.045,0.019,0.065,0.031
									h0.002l0,0c0.099,0.061,0.168,0.17,0.185,0.335c0.007,0.079-0.049,0.152-0.129,0.165c-0.08,0.013-0.151-0.042-0.159-0.121
									c-0.007-0.071-0.027-0.112-0.057-0.13l0,0c-0.003-0.003-0.008-0.004-0.014-0.007c-0.003-0.001-0.01-0.002-0.016-0.004l0,0
									h-0.001c-0.066-0.009-0.146,0.031-0.228,0.069c-0.095,0.048-0.189,0.094-0.305,0.104c-0.081,0.008-0.157-0.004-0.247-0.032
									v-0.001l0,0C99.889,46.662,99.799,46.623,99.683,46.568z"/>
							</g>
						</g>
					</g>
				</g>
			</g>
		</g>
	</g>
</g>
<g>
	<g>
		<defs>
			<rect id="SVGID_179_" x="-4.375" y="163" width="358.75" height="82"/>
		</defs>
		<clipPath id="SVGID_8_">
			<use xlink:href="#SVGID_179_"  overflow="visible"/>
		</clipPath>
		<g id="圖層_1_17_" clip-path="url(#SVGID_8_)">
			<g opacity="0.3" enable-background="new    ">
				<g>
					<defs>
						<rect id="SVGID_181_" x="-43.957" y="163" width="398.331" height="224.061"/>
					</defs>
					<clipPath id="SVGID_10_">
						<use xlink:href="#SVGID_181_"  overflow="visible"/>
					</clipPath>
					<g clip-path="url(#SVGID_10_)">
						<g opacity="0.9619">
							<path fill="none" stroke="#096D52" stroke-width="2" stroke-miterlimit="10" d="M309.328,118.159
								c0,5.246-4.145,5.246-4.145,10.491c0,5.245,4.145,5.245,4.145,10.491c0,5.246-4.145,5.246-4.145,10.491
								c0,5.246,4.145,5.246,4.145,10.491c0,5.246-4.145,5.246-4.145,10.491c0,5.246,4.145,5.246,4.145,10.492
								c0,5.245-4.145,5.245-4.145,10.491c0,5.245,4.145,5.245,4.145,10.491c0,5.245-4.145,5.245-4.145,10.491
								c0,5.244,4.145,5.244,4.145,10.49c0,5.245-4.145,5.245-4.145,10.491c0,5.246,4.145,5.246,4.145,10.492
								s-4.145,5.246-4.145,10.491c0,5.246,4.145,5.246,4.145,10.491s-4.145,5.246-4.145,10.491s4.145,5.246,4.145,10.491
								s-4.145,5.246-4.145,10.491s4.145,5.246,4.145,10.492c0,5.246-4.145,5.246-4.145,10.492c0,5.246,4.145,5.246,4.145,10.492
								s-4.145,5.246-4.145,10.492c0,5.246,4.145,5.246,4.145,10.492c0,5.245-4.145,5.245-4.145,10.492s4.145,5.247,4.145,10.493
								c0,5.246-4.145,5.246-4.145,10.492c0,5.247,4.145,5.247,4.145,10.494c0,5.247-4.145,5.247-4.145,10.493"/>
						</g>
						<g opacity="0.9714">
							<path fill="none" stroke="#096D52" stroke-width="2" stroke-miterlimit="10" d="M332.72,115.815
								c0,5.245-4.145,5.245-4.145,10.491c0,5.246,4.145,5.246,4.145,10.491c0,5.246-4.145,5.246-4.145,10.491
								c0,5.246,4.145,5.246,4.145,10.492s-4.145,5.246-4.145,10.491c0,5.246,4.145,5.246,4.145,10.492
								c0,5.245-4.145,5.245-4.145,10.49c0,5.246,4.145,5.246,4.145,10.491c0,5.246-4.145,5.246-4.145,10.491
								c0,5.246,4.145,5.246,4.145,10.491c0,5.244-4.145,5.244-4.145,10.491c0,5.246,4.145,5.246,4.145,10.491
								s-4.145,5.246-4.145,10.491c0,5.246,4.145,5.246,4.145,10.491c0,5.246-4.145,5.246-4.145,10.491
								c0,5.246,4.145,5.246,4.145,10.491c0,5.246-4.145,5.246-4.145,10.492c0,5.246,4.145,5.246,4.145,10.491
								c0,5.246-4.145,5.246-4.145,10.493c0,5.246,4.145,5.246,4.145,10.491c0,5.247-4.145,5.247-4.145,10.492
								c0,5.247,4.145,5.247,4.145,10.492c0,5.246-4.145,5.246-4.145,10.492c0,5.246,4.145,5.246,4.145,10.492
								c0,5.246-4.145,5.246-4.145,10.492s4.145,5.247,4.145,10.494c0,5.247-4.145,5.247-4.145,10.493"/>
						</g>
					</g>
				</g>
			</g>
		</g>
	</g>
</g>
<g>
	<g>
		<defs>
			<rect id="SVGID_209_" x="-4.375" y="673" width="358.75" height="82"/>
		</defs>
		<clipPath id="SVGID_12_">
			<use xlink:href="#SVGID_209_"  overflow="visible"/>
		</clipPath>
		<g clip-path="url(#SVGID_12_)">
			<defs>
				<rect id="SVGID_211_" x="-30.81" y="651.006" width="433.536" height="149.028"/>
			</defs>
			<clipPath id="SVGID_14_">
				<use xlink:href="#SVGID_211_"  overflow="visible"/>
			</clipPath>
			<rect x="-492.739" y="44.749" clip-path="url(#SVGID_14_)" fill="#C16926" width="1358.748" height="764.914"/>
		</g>
	</g>
</g>
</svg>
