<?xml version="1.0" encoding="utf-8"?>
<!-- Generator: Adobe Illustrator 16.0.0, SVG Export Plug-In . SVG Version: 6.00 Build 0)  -->
<!DOCTYPE svg PUBLIC "-//W3C//DTD SVG 1.1//EN" "http://www.w3.org/Graphics/SVG/1.1/DTD/svg11.dtd">
<svg version="1.1" xmlns="http://www.w3.org/2000/svg" xmlns:xlink="http://www.w3.org/1999/xlink" x="0px" y="0px" width="250px"
	 height="500px" viewBox="0 0 250 500" enable-background="new 0 0 250 500" xml:space="preserve">
<g id="圖層_1">
</g>
<g id="NO" display="none">
</g>
<g id="圖層_3">
	<g>
		<path fill="none" stroke="#4A2E2C" stroke-width="1.2" stroke-miterlimit="10" d="M12.471,46.352
			c2.161-25.247,17.707-29.091,27.44-29.149c19.588-0.118,52.19-2.087,72.255-1.182c18.418,0.831,79.333-4.014,103.535,2.381
			c12.135,3.207,18.142,10.562,21.507,19.509c5.481,14.572,3.581,41.099,3.032,72.688c-2.176,125.334-0.743,343.288-1.744,348.331
			c-4.998,25.156-24.497,25.155-38.365,24.519c-35.965-1.651-81.634-0.85-117.303-0.85c-15.513,0-54.025,4.222-63.181-10.632
			c-12.531-20.33-8.815-52.259-8.815-75.018C10.833,281.58,10.702,67.019,12.471,46.352z"/>
		<g>
			<path fill="#4A2E2C" d="M12.387,46.344c0,0,0.033-0.325,0.1-0.963c0.06-0.638,0.159-1.59,0.354-2.842
				c0.396-2.486,1.033-6.239,3.046-10.724c1.006-2.232,2.421-4.616,4.445-6.861c2.033-2.225,4.718-4.263,8.001-5.657
				c3.275-1.406,7.098-2.157,11.172-2.229c4.062-0.075,8.379-0.119,12.936-0.271c18.222-0.426,40.389-1.85,65.791-1.035
				c12.691-0.142,26.203-0.8,40.458-1.094c7.128-0.157,14.444-0.246,21.937-0.16c7.491,0.103,15.166,0.338,22.978,1.17
				c3.904,0.423,7.847,0.981,11.773,1.949c1.021,0.249,1.933,0.538,2.912,0.836c0.967,0.351,1.955,0.67,2.887,1.099
				c1.896,0.791,3.728,1.786,5.437,2.978c3.455,2.342,6.343,5.559,8.477,9.21c2.145,3.645,3.643,7.693,4.54,11.874
				c1.782,8.365,2.044,17.018,2.122,25.73c0.044,8.725-0.219,17.564-0.45,26.52c-0.829,35.813-1.268,73.605-1.579,112.694
				c-0.283,39.092-0.462,79.488-0.53,120.536c0.027,20.524,0.054,41.211,0.081,61.98c0.001,20.77,0.098,41.616-0.116,62.475
				c-0.021,1.305-0.043,2.608-0.093,3.92l-0.049,0.991c-0.007,0.161-0.037,0.362-0.057,0.541l-0.107,0.49l-0.426,1.908
				c-0.643,2.574-1.504,5.07-2.662,7.455c-2.263,4.775-6.015,8.937-10.731,11.427c-4.698,2.555-10.042,3.496-15.257,3.792
				c-5.257,0.277-10.449-0.132-15.633-0.257c-20.749-0.727-41.424-0.745-61.946-0.668c-10.262,0.057-20.482,0.114-30.652,0.17
				c-5.086,0.021-10.16,0.042-15.219,0.062c-5.065-0.041-10.056,0.158-15.101,0.343c-10.055,0.332-20.129,0.541-30.078-0.786
				c-4.952-0.699-9.924-1.752-14.512-3.97c-2.275-1.118-4.453-2.565-6.193-4.508c-0.428-0.49-0.838-0.998-1.201-1.541
				c-0.381-0.548-0.677-1.105-0.984-1.62c-0.625-1.031-1.2-2.199-1.746-3.307c-2.136-4.494-3.61-9.24-4.626-14.027
				c-1.034-4.789-1.632-9.626-1.987-14.442c-0.707-9.64-0.479-19.191-0.222-28.593c0.128-4.703,0.268-9.374,0.276-14.006
				c0.001-4.651,0.003-9.276,0.005-13.873c0.003-9.193,0.006-18.274,0.009-27.233c0.017-17.918,0.033-35.347,0.049-52.207
				c0.065-16.859,0.128-33.148,0.188-48.786c0.165-31.275,0.316-59.944,0.45-85.355c0.216-25.41,0.404-47.563,0.559-65.807
				c0.179-18.243,0.374-32.577,0.605-42.349c0.117-4.886,0.227-8.631,0.35-11.155c0.045-1.262,0.116-2.218,0.158-2.859
				C12.365,46.67,12.387,46.344,12.387,46.344z M12.556,46.36c0,0-0.02,0.324-0.06,0.963s-0.108,1.593-0.149,2.854
				c-0.116,2.521-0.213,6.266-0.316,11.151c-0.202,9.771-0.354,24.104-0.477,42.347c-0.138,18.243-0.125,40.396-0.126,65.807
				c0.033,25.411,0.07,54.079,0.111,85.354c0.05,31.275,0.104,65.156,0.161,100.991c0.004,8.959,0.008,18.041,0.013,27.233
				c0.002,4.597,0.004,9.222,0.006,13.873c-0.004,4.67-0.141,9.353-0.265,14.054c-0.249,9.396-0.465,18.892,0.241,28.412
				c0.727,9.477,2.293,19.127,6.398,27.848c0.24,0.554,0.536,1.063,0.801,1.597c0.26,0.528,0.556,1.057,0.872,1.586
				c0.319,0.537,0.597,1.064,0.917,1.522c0.317,0.477,0.678,0.925,1.056,1.36c1.538,1.726,3.523,3.066,5.657,4.119
				c4.301,2.095,9.136,3.149,13.983,3.84c9.753,1.323,19.763,1.146,29.792,0.833c5.007-0.173,10.1-0.364,15.154-0.312
				c5.058-0.011,10.129-0.021,15.214-0.031c10.171-0.025,20.393-0.05,30.655-0.076c20.523,0.016,41.232,0.127,61.994,0.948
				c5.192,0.149,10.388,0.579,15.531,0.328c5.122-0.267,10.307-1.168,14.817-3.598c4.528-2.369,8.127-6.313,10.346-10.932
				c1.131-2.298,1.988-4.752,2.62-7.231l0.434-1.904c0.085-0.339,0.133-0.594,0.148-0.896l0.052-0.96
				c0.053-1.292,0.079-2.596,0.104-3.896c0.279-20.837,0.249-41.693,0.313-62.46c0.039-20.769,0.077-41.456,0.115-61.979
				c-0.02-41.049-0.059-81.446,0.085-120.541c0.103-19.548,0.204-38.77,0.302-57.584c0.155-18.815,0.332-37.222,0.791-55.143
				c0.214-8.956,0.461-17.787,0.401-26.472c-0.033-4.342-0.149-8.647-0.443-12.899c-0.288-4.25-0.754-8.455-1.624-12.524
				c-1.7-8.058-5.74-15.766-12.364-20.251c-1.622-1.14-3.365-2.096-5.183-2.861c-0.898-0.419-1.826-0.718-2.74-1.057
				c-0.935-0.289-1.933-0.606-2.849-0.829c-3.82-0.956-7.717-1.524-11.581-1.956c-7.74-0.839-15.386-1.129-22.854-1.294
				c-7.472-0.142-14.777-0.109-21.899-0.007c-14.246,0.185-27.754,0.739-40.475,0.789c-6.383,0.005-12.496-0.468-18.434-0.378
				c-1.483-0.005-2.953-0.01-4.409-0.016c-1.456,0.018-2.899,0.036-4.328,0.053c-2.858,0.039-5.662,0.065-8.41,0.141
				c-10.991,0.223-21.083,0.608-30.205,0.838c-4.561,0.141-8.877,0.174-12.938,0.239c-4.043,0.061-7.833,0.796-11.078,2.179
				c-3.253,1.372-5.913,3.38-7.932,5.578c-2.01,2.218-3.42,4.578-4.425,6.793c-2.011,4.449-2.657,8.189-3.057,10.663
				c-0.197,1.243-0.299,2.195-0.36,2.834C12.59,46.037,12.556,46.36,12.556,46.36z"/>
		</g>
	</g>
	<g>
		<path fill="none" stroke="#4A2E2C" stroke-miterlimit="10" d="M234.46,451.346c-0.723,24.29-15.98,27.899-25.315,27.954
			c-18.786,0.114-53.255,0.002-72.498-0.865c-17.663-0.798-71.481,1.61-97.578-1.284c-11.962-1.327-16.397-8.13-19.625-16.709
			c-5.256-13.975-5.433-51.414-4.907-81.708c2.087-120.196,0.711-329.213,1.672-334.05c4.793-24.125,23.482-23.193,36.793-23.513
			c36.96-0.89,81.574-1.185,115.78-1.185c14.877,0,47.151,0.193,57.844,10.012c13.542,12.435,9.406,49.979,9.406,75.126
			C236.031,215.764,235.117,429.265,234.46,451.346z"/>
	</g>
	<g>
		<path fill="none" stroke="#4A2E2C" stroke-width="1.3" stroke-miterlimit="10" d="M120.949,452.262
			c0.111-1.302,0.913-1.5,1.415-1.503c1.01-0.006,2.433-0.107,3.467-0.061c0.95,0.043,3.729-0.207,4.977,0.123
			c0.625,0.165,0.935,0.544,1.108,1.005c0.283,0.751,0.185,2.119,0.157,3.748c-0.112,6.461-0.039,4.501-0.09,4.761
			c-0.258,1.296-1.263,1.296-1.978,1.264c-1.854-0.085-3.848-0.044-5.687-0.044c-0.8,0-2.527,0.218-3-0.548
			c-0.646-1.048-0.454-2.694-0.454-3.867C120.865,451.192,120.858,453.327,120.949,452.262z"/>
		<path fill="none" stroke="#4A2E2C" stroke-width="1.3" stroke-miterlimit="10" d="M120.949,452.262
			c0.111-1.302,0.913-1.5,1.415-1.503c1.01-0.006,7.196-0.268,8.444,0.062c0.625,0.165,0.935,0.544,1.108,1.005
			c0.283,0.751,0.118,8.249,0.067,8.509c-0.258,1.296-1.263,1.296-1.978,1.264c-1.854-0.085-6.816,0.019-7.444-0.042
			c-0.538-0.052-1.023-0.196-1.242-0.55C120.673,459.959,120.858,453.327,120.949,452.262z"/>
	</g>
	<path fill="#4A2E2C" stroke="#4A2E2C" stroke-width="1.3" stroke-miterlimit="10" d="M112.212,48.983
		c-1.059-0.091-1.397-1.258-1.374-1.878c0.02-0.526,0.371-1.477,1.207-1.789c0.612-0.229,1.336-0.263,2.661-0.24
		c5.074,0.088,27.794,0.207,29.029,0.237c1.076,0.026,2.232,0.484,2.349,1.446c0.182,1.499-0.291,1.687-0.85,1.933
		c-0.917,0.402-5.622,0.361-6.577,0.361C133.817,49.052,113.079,49.057,112.212,48.983z"/>
	<path fill="#4A2E2C" stroke="#4A2E2C" stroke-width="1.3" stroke-miterlimit="10" d="M92.804,43.973
		c-3.312,0.154-4.633,5.463-0.885,5.847c1.807,0.185,3.042-0.165,3.766-1.674C96.563,46.313,95.281,43.858,92.804,43.973z"/>
	<path fill="none" stroke="#4A2E2C" stroke-width="1.3" stroke-miterlimit="10" d="M125.977,440.654
		c-18.224-0.02-19.173,27.267-4.388,28.979c8.942,1.036,15.081-0.818,18.665-8.297C144.608,452.252,138.269,440.667,125.977,440.654
		z"/>
</g>
</svg>
