<?xml version="1.0" encoding="utf-8"?>
<!-- Generator: Adobe Illustrator 16.0.0, SVG Export Plug-In . SVG Version: 6.00 Build 0)  -->
<!DOCTYPE svg PUBLIC "-//W3C//DTD SVG 1.1//EN" "http://www.w3.org/Graphics/SVG/1.1/DTD/svg11.dtd">
<svg version="1.1" id="圖層_1" xmlns="http://www.w3.org/2000/svg" xmlns:xlink="http://www.w3.org/1999/xlink" x="0px" y="0px"
	 width="350px" height="80px" viewBox="0 0 350 80" enable-background="new 0 0 350 80" xml:space="preserve">
<g>
	<g>
		<defs>
			<rect id="SVGID_237_" x="-4.375" y="-127" width="358.75" height="82"/>
		</defs>
		<clipPath id="SVGID_2_">
			<use xlink:href="#SVGID_237_"  overflow="visible"/>
		</clipPath>
		<g clip-path="url(#SVGID_2_)">
			<rect x="-7.728" y="-147.647" fill="#4A2E2C" width="364.409" height="204.98"/>
			<g opacity="0.1">
				<defs>
					<rect id="SVGID_239_" x="-7.728" y="-147.647" opacity="0.1" width="364.409" height="204.98"/>
				</defs>
				<clipPath id="SVGID_4_">
					<use xlink:href="#SVGID_239_"  overflow="visible"/>
				</clipPath>
				<g clip-path="url(#SVGID_4_)">
					<g>
						<path fill="#4A2E2C" d="M413.946,3.688c-4.193,6.94-107.593,3.903-225.144,4.134C71.25,8.054-57.792,7.17-56.651,5.177
							c3.809-6.637,97.677-4.342,215.229-4.573C276.129,0.373,415.147,1.701,413.946,3.688z"/>
						<path fill="#4A2E2C" d="M413.945,38.575c-4.321,7.167-110.898,3.849-228.449,4.084c-117.551,0.237-243.27-0.532-242.148-2.565
							c3.681-6.678,94.373-4.558,211.923-4.793C272.824,35.064,415.167,36.55,413.945,38.575z"/>
					</g>
					<g>
						<path fill="#4A2E2C" d="M331.708-169.126c8.665,2.468,4.57,57.84,4.768,119.034c0.197,61.195-0.831,126.609-3.291,125.963
							c-8.077-2.121-5.44-49.262-5.639-110.456C327.35-95.778,329.258-169.824,331.708-169.126z"/>
						<path fill="#4A2E2C" d="M296.393-171.506c8.561,2.5,4.579,58.574,4.844,120.544c0.264,61.972-0.676,128.215-3.106,127.561
							c-7.979-2.148-5.429-49.887-5.694-111.857C292.171-97.228,293.972-172.213,296.393-171.506z"/>
						<path fill="#4A2E2C" d="M261.077-173.886c8.457,2.532,4.589,59.309,4.921,122.055c0.332,62.748-0.521,129.822-2.922,129.159
							c-7.881-2.176-5.418-50.513-5.751-113.259C256.994-98.678,258.686-174.603,261.077-173.886z"/>
						<path fill="#4A2E2C" d="M225.761-176.266c8.353,2.563,4.599,60.043,4.999,123.566c0.398,63.523-0.367,131.428-2.738,130.756
							c-7.784-2.203-5.407-51.138-5.807-114.661C221.815-100.128,223.399-176.992,225.761-176.266z"/>
						<path fill="#4A2E2C" d="M190.445-178.646c8.248,2.595,4.607,60.777,5.075,125.076c0.466,64.3-0.212,133.034-2.553,132.354
							c-7.687-2.229-5.396-51.763-5.863-116.062C186.638-101.578,188.113-179.381,190.445-178.646z"/>
						<path fill="#4A2E2C" d="M155.188-181.027c8.144,2.627,4.617,61.512,5.152,126.587c0.534,65.076-0.057,134.64-2.369,133.952
							c-7.59-2.258-5.385-52.389-5.919-117.464C151.517-103.028,152.885-181.771,155.188-181.027z"/>
						<path fill="#4A2E2C" d="M119.906-183.406c8.041,2.659,4.628,62.246,5.229,128.098c0.601,65.852,0.098,136.246-2.185,135.549
							c-7.492-2.285-5.374-53.014-5.976-118.865C116.374-104.477,117.634-184.159,119.906-183.406z"/>
						<path fill="#4A2E2C" d="M84.56-185.787c7.936,2.691,4.637,62.979,5.306,129.607c0.668,66.628,0.252,137.853-2,137.147
							c-7.395-2.312-5.363-53.639-6.032-120.267C81.165-105.927,82.316-186.549,84.56-185.787z"/>
						<path fill="#4A2E2C" d="M49.183-188.166c7.832,2.723,4.646,63.714,5.383,131.118C55.301,10.356,54.973,82.41,52.75,81.697
							c-7.297-2.34-5.352-54.265-6.088-121.668C45.925-107.377,46.969-188.938,49.183-188.166z"/>
						<path fill="#4A2E2C" d="M13.867-190.546c7.728,2.755,4.656,64.448,5.46,132.629c0.803,68.18,0.562,141.064-1.631,140.343
							c-7.2-2.367-5.341-54.89-6.144-123.07C10.747-108.827,11.683-191.327,13.867-190.546z"/>
					</g>
				</g>
			</g>
		</g>
	</g>
</g>
<g>
	<g>
		<defs>
			<rect id="SVGID_241_" x="-4.375" y="-1" width="358.75" height="82"/>
		</defs>
		<clipPath id="SVGID_6_">
			<use xlink:href="#SVGID_241_"  overflow="visible"/>
		</clipPath>
		<g clip-path="url(#SVGID_6_)">
			<defs>
				<rect id="SVGID_243_" x="-30.81" y="-22.994" width="433.536" height="149.028"/>
			</defs>
			<clipPath id="SVGID_8_">
				<use xlink:href="#SVGID_243_"  overflow="visible"/>
			</clipPath>
			<rect x="-492.739" y="-629.251" clip-path="url(#SVGID_8_)" fill="#C16926" width="1358.748" height="764.914"/>
			<g clip-path="url(#SVGID_8_)">
				<g>
					<defs>
						<rect id="SVGID_245_" x="-106.025" y="-133.819" width="585.32" height="329.508"/>
					</defs>
					<clipPath id="SVGID_10_">
						<use xlink:href="#SVGID_245_"  overflow="visible"/>
					</clipPath>
					<g clip-path="url(#SVGID_10_)">
						<g>
							<g>
								<path fill="#BC6325" d="M17.707,11.756c-1.511,3.326-5.434,4.797-8.76,3.287C5.62,13.531,4.148,9.607,5.66,6.28
									c1.51-3.328,11.109-8.452,11.109-8.452S19.219,8.427,17.707,11.756z"/>
								<path fill="#BC6325" d="M68.904,11.756c-1.512,3.326-5.434,4.797-8.761,3.287c-3.327-1.511-4.798-5.435-3.287-8.763
									c1.511-3.328,11.11-8.453,11.11-8.453S70.415,8.427,68.904,11.756z"/>
								<path fill="#BC6325" d="M120.101,11.756c-1.512,3.326-5.435,4.797-8.761,3.287c-3.327-1.511-4.799-5.435-3.288-8.763
									c1.511-3.328,11.109-8.452,11.109-8.452S121.613,8.427,120.101,11.756z"/>
								<path fill="#BC6325" d="M171.298,11.756c-1.512,3.326-5.434,4.798-8.76,3.287s-4.799-5.435-3.287-8.762
									c1.51-3.329,11.108-8.453,11.108-8.453S172.808,8.427,171.298,11.756z"/>
								<path fill="#BC6325" d="M222.494,11.756c-1.512,3.326-5.434,4.797-8.761,3.287c-3.327-1.511-4.798-5.435-3.287-8.763
									c1.51-3.328,11.109-8.452,11.109-8.452S224.005,8.427,222.494,11.756z"/>
								<path fill="#BC6325" d="M273.691,11.756c-1.512,3.326-5.434,4.797-8.76,3.287c-3.328-1.511-4.8-5.435-3.288-8.763
									c1.512-3.328,11.108-8.452,11.108-8.452S275.203,8.427,273.691,11.756z"/>
								<path fill="#BC6325" d="M324.889,11.756c-1.512,3.326-5.434,4.797-8.761,3.287c-3.327-1.511-4.799-5.435-3.287-8.763
									c1.51-3.328,11.108-8.452,11.108-8.452S326.397,8.427,324.889,11.756z"/>
							</g>
							<g>
								<path fill="#BC6325" d="M39.99,44.537c-1.512,3.327-5.436,4.798-8.761,3.286c-3.327-1.511-4.799-5.435-3.288-8.762
									c1.511-3.328,11.11-8.452,11.11-8.452S41.5,41.208,39.99,44.537z"/>
								<path fill="#BC6325" d="M91.187,44.537c-1.513,3.327-5.435,4.798-8.761,3.286c-3.328-1.511-4.799-5.434-3.288-8.762
									c1.511-3.328,11.108-8.453,11.108-8.453S92.697,41.208,91.187,44.537z"/>
								<path fill="#BC6325" d="M142.382,44.537c-1.511,3.327-5.434,4.798-8.76,3.286c-3.328-1.511-4.8-5.435-3.289-8.762
									c1.512-3.328,11.11-8.452,11.11-8.452S143.894,41.208,142.382,44.537z"/>
								<path fill="#BC6325" d="M193.581,44.537c-1.513,3.327-5.435,4.798-8.762,3.286c-3.327-1.511-4.799-5.435-3.287-8.762
									c1.512-3.328,11.109-8.452,11.109-8.452S195.09,41.208,193.581,44.537z"/>
								<path fill="#BC6325" d="M244.776,44.537c-1.511,3.327-5.434,4.798-8.76,3.286c-3.328-1.511-4.799-5.435-3.288-8.762
									c1.512-3.328,11.109-8.452,11.109-8.452S246.287,41.208,244.776,44.537z"/>
								<path fill="#BC6325" d="M295.972,44.537c-1.51,3.327-5.433,4.798-8.76,3.286c-3.327-1.511-4.799-5.435-3.288-8.762
									c1.511-3.328,11.109-8.452,11.109-8.452S297.485,41.208,295.972,44.537z"/>
								<path fill="#BC6325" d="M347.169,44.537c-1.511,3.327-5.435,4.798-8.762,3.286c-3.325-1.511-4.798-5.435-3.286-8.762
									c1.51-3.328,11.109-8.452,11.109-8.452S348.681,41.208,347.169,44.537z"/>
							</g>
							<g>
								<path fill="#BC6325" d="M17.707,78.173c-1.511,3.327-5.434,4.797-8.76,3.287c-3.327-1.513-4.799-5.436-3.288-8.763
									c1.51-3.328,11.109-8.453,11.109-8.453S19.219,74.845,17.707,78.173z"/>
								<path fill="#BC6325" d="M68.904,78.173c-1.512,3.327-5.434,4.797-8.761,3.287c-3.327-1.513-4.798-5.436-3.287-8.763
									c1.511-3.328,11.11-8.453,11.11-8.453S70.415,74.845,68.904,78.173z"/>
								<path fill="#BC6325" d="M120.101,78.173c-1.512,3.327-5.435,4.797-8.761,3.287c-3.327-1.512-4.799-5.435-3.288-8.763
									c1.511-3.328,11.109-8.453,11.109-8.453S121.613,74.845,120.101,78.173z"/>
								<path fill="#BC6325" d="M171.298,78.173c-1.512,3.327-5.434,4.797-8.76,3.287c-3.327-1.512-4.799-5.435-3.287-8.763
									c1.51-3.328,11.108-8.453,11.108-8.453S172.808,74.845,171.298,78.173z"/>
								<path fill="#BC6325" d="M222.494,78.173c-1.512,3.327-5.434,4.797-8.761,3.287c-3.327-1.513-4.798-5.436-3.287-8.763
									c1.51-3.328,11.109-8.453,11.109-8.453S224.005,74.845,222.494,78.173z"/>
								<path fill="#BC6325" d="M273.691,78.173c-1.512,3.327-5.434,4.797-8.76,3.287c-3.328-1.512-4.8-5.435-3.288-8.763
									c1.512-3.328,11.108-8.453,11.108-8.453S275.203,74.845,273.691,78.173z"/>
								<path fill="#BC6325" d="M324.889,78.173c-1.512,3.327-5.434,4.797-8.761,3.287c-3.327-1.512-4.799-5.435-3.287-8.763
									c1.51-3.328,11.108-8.453,11.108-8.453S326.397,74.845,324.889,78.173z"/>
							</g>
						</g>
					</g>
				</g>
			</g>
		</g>
	</g>
	<g>
		<text transform="matrix(1 0 0 1 139.9541 53.8076)" fill="#F4E8D1" font-family="'Verdana'" font-size="24.3">Home</text>
	</g>
</g>
</svg>
