<?xml version="1.0" encoding="utf-8"?>
<!-- Generator: Adobe Illustrator 16.0.0, SVG Export Plug-In . SVG Version: 6.00 Build 0)  -->
<!DOCTYPE svg PUBLIC "-//W3C//DTD SVG 1.1//EN" "http://www.w3.org/Graphics/SVG/1.1/DTD/svg11.dtd">
<svg version="1.1" id="圖層_1" xmlns="http://www.w3.org/2000/svg" xmlns:xlink="http://www.w3.org/1999/xlink" x="0px" y="0px"
	 width="300px" height="250px" viewBox="0 0 300 250" enable-background="new 0 0 300 250" xml:space="preserve">
<g>
	<rect x="16.617" y="15.004" fill="#221F20" width="271.537" height="158.651"/>
	<g>
		<g>
			<linearGradient id="SVGID_2_" gradientUnits="userSpaceOnUse" x1="108.4897" y1="238.2051" x2="200.0928" y2="238.2051">
				<stop  offset="0.0061" style="stop-color:#58595B"/>
				<stop  offset="0.2834" style="stop-color:#757578"/>
				<stop  offset="0.5091" style="stop-color:#88898D"/>
				<stop  offset="1" style="stop-color:#58595B"/>
			</linearGradient>
			<path fill="url(#SVGID_2_)" d="M109.046,236.599v2.047c0,0.032,0,0.059,0,0.088v0.031c0,1.678,2.279,0.833,9.407,0.833
				c13.788,0,28.724,0,34.188,0c1.383,0,2.159,0,2.159,0c5.466,0,20.401,0,34.191,0c7.125,0,9.617,0,9.638-3h-0.663l0,0H109.046z"/>
			<linearGradient id="SVGID_4_" gradientUnits="userSpaceOnUse" x1="153.2417" y1="204.2417" x2="153.2417" y2="244.338">
				<stop  offset="0.0848" style="stop-color:#6D6F73"/>
				<stop  offset="0.1354" style="stop-color:#A09D9F"/>
				<stop  offset="0.1869" style="stop-color:#CECDCE"/>
				<stop  offset="0.2121" style="stop-color:#E0E1E2"/>
				<stop  offset="0.3152" style="stop-color:#A7A9AC"/>
				<stop  offset="0.3893" style="stop-color:#868789"/>
				<stop  offset="0.4606" style="stop-color:#636363"/>
				<stop  offset="0.5264" style="stop-color:#6E6F6F"/>
				<stop  offset="0.6452" style="stop-color:#8B8D8F"/>
				<stop  offset="0.7394" style="stop-color:#A6AAAD"/>
			</linearGradient>
			<path fill="url(#SVGID_4_)" d="M189.471,227.299c-6.357-6.48-6.598-20.7-6.598-20.7h-28.552h-2.158h-28.553
				c0,0-0.24,14.22-6.601,20.7c-6.356,6.478-16.313,12.3,0.961,12.3c13.788,0,28.726,0,34.192,0c1.379,0,2.158,0,2.158,0
				c5.465,0,20.4,0,34.189,0C205.786,239.599,195.83,233.776,189.471,227.299z"/>
			<radialGradient id="SVGID_6_" cx="197.0278" cy="254.3809" r="32.4069" gradientUnits="userSpaceOnUse">
				<stop  offset="0" style="stop-color:#FFFFFF"/>
				<stop  offset="1" style="stop-color:#FFFFFF;stop-opacity:0"/>
			</radialGradient>
			<path fill="url(#SVGID_6_)" d="M158.92,239.599c3.529-8,14.795-13.589,28.812-14.964c0.643,1.092,1.376,1.806,2.221,2.666
				c6.246,6.364,15.963,12.298-0.076,12.298H158.92z"/>
			
				<radialGradient id="SVGID_8_" cx="102.605" cy="254.3809" r="32.4069" gradientTransform="matrix(-1 0 0 1 213.0186 0)" gradientUnits="userSpaceOnUse">
				<stop  offset="0" style="stop-color:#FFFFFF"/>
				<stop  offset="1" style="stop-color:#FFFFFF;stop-opacity:0"/>
			</radialGradient>
			<path fill="url(#SVGID_8_)" d="M148.523,239.599c-3.527-8-14.797-13.589-28.813-14.964c-0.642,1.092-1.376,1.806-2.221,2.666
				c-6.246,6.364-15.964,12.298,0.077,12.298H148.523z"/>
			<linearGradient id="SVGID_10_" gradientUnits="userSpaceOnUse" x1="117.5669" y1="240.7656" x2="188.9917" y2="240.7656">
				<stop  offset="0.0061" style="stop-color:#FFFFFF;stop-opacity:0"/>
				<stop  offset="0.5091" style="stop-color:#FFFFFF"/>
				<stop  offset="1" style="stop-color:#FFFFFF;stop-opacity:0"/>
			</linearGradient>
			<path fill="url(#SVGID_10_)" d="M117.567,240.764c5.951-0.099,11.902-0.146,17.856-0.184l17.854-0.054l17.857,0.052l8.928,0.068
				l8.929,0.118l-8.929,0.118l-8.928,0.065l-17.857,0.057l-17.854-0.057C129.469,240.909,123.518,240.863,117.567,240.764z"/>
			<linearGradient id="SVGID_12_" gradientUnits="userSpaceOnUse" x1="-0.1802" y1="202.7515" x2="315.3191" y2="182.0709">
				<stop  offset="0" style="stop-color:#78797D"/>
				<stop  offset="0.302" style="stop-color:#747579"/>
				<stop  offset="0.4909" style="stop-color:#6D6F73"/>
				<stop  offset="1" style="stop-color:#6D6F73"/>
			</linearGradient>
			<path fill="url(#SVGID_12_)" d="M5.046,199.497c0,4.771,6.544,7.102,11.315,7.102h133.882h4.557h133.883
				c4.767,0,6.363-2.331,6.363-7.102v-19.898h-290V199.497z"/>
			<path fill="#221F20" d="M288.683,9.599H154.8h-4.557H16.362c-4.771,0-11.315,3.261-11.315,8.03v161.97h290V17.629
				C295.046,12.86,293.45,9.599,288.683,9.599z M283.046,171.599h-262v-148h262V171.599z"/>
			<linearGradient id="SVGID_14_" gradientUnits="userSpaceOnUse" x1="-0.1172" y1="202.7432" x2="315.3142" y2="182.067">
				<stop  offset="0" style="stop-color:#898A8F"/>
				<stop  offset="0.1078" style="stop-color:#98989C"/>
				<stop  offset="0.3554" style="stop-color:#B5B5B8"/>
				<stop  offset="0.5927" style="stop-color:#CACBCD"/>
				<stop  offset="0.8131" style="stop-color:#D6D8DB"/>
				<stop  offset="1" style="stop-color:#DBDDDF"/>
			</linearGradient>
			<path fill="url(#SVGID_14_)" d="M5.046,198.537c0,4.77,6.544,8.062,11.315,8.062h133.882h4.557h133.883
				c4.767,0,6.363-3.292,6.363-8.062v-18.938h-290V198.537z"/>
		</g>
	</g>
</g>
</svg>
