<?xml version="1.0" encoding="utf-8"?>
<!-- Generator: Adobe Illustrator 16.0.0, SVG Export Plug-In . SVG Version: 6.00 Build 0)  -->
<!DOCTYPE svg PUBLIC "-//W3C//DTD SVG 1.1//EN" "http://www.w3.org/Graphics/SVG/1.1/DTD/svg11.dtd">
<svg version="1.1" id="圖層_1" xmlns="http://www.w3.org/2000/svg" xmlns:xlink="http://www.w3.org/1999/xlink" x="0px" y="0px"
	 width="640px" height="1096px" viewBox="0 0 640 1096" enable-background="new 0 0 640 1096" xml:space="preserve">
<g>
	<defs>
		<rect id="SVGID_1_" x="-1.001" width="642" height="1098"/>
	</defs>
	<clipPath id="SVGID_2_">
		<use xlink:href="#SVGID_1_"  overflow="visible"/>
	</clipPath>
	<rect x="-682.916" y="-16.977" clip-path="url(#SVGID_2_)" fill="#C16926" width="2005.83" height="1129.192"/>
	<g clip-path="url(#SVGID_2_)">
		<g>
			<defs>
				<rect id="SVGID_3_" x="-682.916" y="-15.596" width="2005.83" height="1129.192"/>
			</defs>
			<clipPath id="SVGID_4_">
				<use xlink:href="#SVGID_3_"  overflow="visible"/>
			</clipPath>
			<g clip-path="url(#SVGID_4_)">
				<g>
					<g>
						<path fill="#BC6325" d="M91.992,28.063c-5.179,11.401-18.621,16.443-30.02,11.264C50.57,34.146,45.525,20.701,50.706,9.3
							c5.178-11.406,38.068-28.967,38.068-28.967S97.172,16.657,91.992,28.063z"/>
						<path fill="#BC6325" d="M267.439,28.063c-5.18,11.401-18.621,16.443-30.021,11.264c-11.401-5.181-16.445-18.626-11.266-30.027
							c5.178-11.406,38.068-28.967,38.068-28.967S272.617,16.657,267.439,28.063z"/>
						<path fill="#BC6325" d="M442.885,28.063c-5.18,11.401-18.621,16.443-30.021,11.264C401.464,34.146,396.42,20.701,401.599,9.3
							c5.177-11.406,38.069-28.967,38.069-28.967S448.063,16.657,442.885,28.063z"/>
						<path fill="#BC6325" d="M618.33,28.063c-5.179,11.4-18.621,16.443-30.02,11.264c-11.402-5.181-16.445-18.626-11.266-30.027
							c5.178-11.406,38.067-28.968,38.067-28.968S623.509,16.657,618.33,28.063z"/>
					</g>
					<g>
						<path fill="#BC6325" d="M168.352,140.4c-5.182,11.4-18.623,16.443-30.021,11.265c-11.402-5.181-16.446-18.626-11.268-30.027
							c5.18-11.406,38.07-28.967,38.07-28.967S173.529,128.995,168.352,140.4z"/>
						<path fill="#BC6325" d="M343.799,140.4c-5.182,11.4-18.623,16.443-30.024,11.265c-11.399-5.182-16.444-18.626-11.265-30.028
							c5.18-11.406,38.069-28.967,38.069-28.967S348.975,128.995,343.799,140.4z"/>
						<path fill="#BC6325" d="M519.242,140.4c-5.18,11.4-18.622,16.443-30.021,11.265c-11.403-5.181-16.445-18.626-11.268-30.027
							c5.179-11.406,38.071-28.967,38.071-28.967S524.422,128.995,519.242,140.4z"/>
					</g>
					<g>
						<path fill="#BC6325" d="M91.992,255.667c-5.179,11.4-18.621,16.443-30.02,11.264c-11.402-5.18-16.447-18.626-11.267-30.027
							c5.178-11.406,38.068-28.968,38.068-28.968S97.172,244.262,91.992,255.667z"/>
						<path fill="#BC6325" d="M267.439,255.667c-5.18,11.4-18.621,16.443-30.021,11.264c-11.401-5.18-16.445-18.626-11.266-30.027
							c5.178-11.406,38.068-28.968,38.068-28.968S272.617,244.262,267.439,255.667z"/>
						<path fill="#BC6325" d="M442.885,255.667c-5.18,11.4-18.621,16.443-30.021,11.264c-11.399-5.18-16.443-18.626-11.265-30.027
							c5.177-11.406,38.069-28.968,38.069-28.968S448.063,244.262,442.885,255.667z"/>
						<path fill="#BC6325" d="M618.33,255.667c-5.179,11.4-18.621,16.443-30.02,11.264c-11.402-5.18-16.445-18.626-11.266-30.027
							c5.178-11.406,38.067-28.968,38.067-28.968S623.509,244.262,618.33,255.667z"/>
					</g>
					<g>
						<path fill="#BC6325" d="M168.352,368.005c-5.182,11.401-18.623,16.443-30.021,11.264
							c-11.402-5.181-16.446-18.626-11.268-30.028c5.18-11.405,38.07-28.967,38.07-28.967S173.529,356.6,168.352,368.005z"/>
						<path fill="#BC6325" d="M343.799,368.005c-5.182,11.401-18.623,16.443-30.024,11.264
							c-11.399-5.181-16.444-18.626-11.265-30.027c5.18-11.407,38.069-28.968,38.069-28.968S348.975,356.6,343.799,368.005z"/>
						<path fill="#BC6325" d="M519.242,368.005c-5.18,11.401-18.622,16.443-30.021,11.264
							c-11.403-5.181-16.445-18.626-11.268-30.027c5.179-11.407,38.071-28.968,38.071-28.968S524.422,356.6,519.242,368.005z"/>
					</g>
					<g>
						<path fill="#BC6325" d="M91.992,483.272c-5.179,11.4-18.621,16.442-30.02,11.265c-11.402-5.181-16.447-18.626-11.267-30.027
							c5.178-11.406,38.068-28.966,38.068-28.966S97.172,471.867,91.992,483.272z"/>
						<path fill="#BC6325" d="M267.439,483.272c-5.18,11.401-18.621,16.443-30.021,11.264c-11.401-5.18-16.445-18.625-11.266-30.027
							c5.178-11.406,38.068-28.966,38.068-28.966S272.617,471.867,267.439,483.272z"/>
						<path fill="#BC6325" d="M442.885,483.272c-5.18,11.4-18.621,16.443-30.021,11.264c-11.399-5.18-16.443-18.626-11.265-30.027
							c5.177-11.406,38.069-28.966,38.069-28.966S448.063,471.867,442.885,483.272z"/>
						<path fill="#BC6325" d="M618.33,483.272c-5.179,11.4-18.621,16.443-30.02,11.265c-11.402-5.181-16.445-18.625-11.266-30.027
							c5.178-11.406,38.067-28.966,38.067-28.966S623.509,471.867,618.33,483.272z"/>
					</g>
					<g>
						<path fill="#BC6325" d="M168.352,595.61c-5.182,11.401-18.623,16.443-30.021,11.264c-11.402-5.18-16.446-18.625-11.268-30.027
							c5.18-11.405,38.07-28.966,38.07-28.966S173.529,584.204,168.352,595.61z"/>
						<path fill="#BC6325" d="M343.799,595.61c-5.182,11.401-18.623,16.443-30.024,11.264c-11.399-5.18-16.444-18.625-11.265-30.027
							c5.18-11.405,38.069-28.966,38.069-28.966S348.975,584.204,343.799,595.61z"/>
						<path fill="#BC6325" d="M519.242,595.61c-5.18,11.401-18.622,16.443-30.021,11.264c-11.403-5.18-16.445-18.625-11.268-30.027
							c5.179-11.405,38.071-28.966,38.071-28.966S524.422,584.204,519.242,595.61z"/>
					</g>
					<g>
						<path fill="#BC6325" d="M91.992,710.878c-5.179,11.4-18.621,16.442-30.02,11.264c-11.402-5.18-16.447-18.625-11.267-30.027
							c5.178-11.406,38.068-28.967,38.068-28.967S97.172,699.472,91.992,710.878z"/>
						<path fill="#BC6325" d="M267.439,710.878c-5.18,11.4-18.621,16.442-30.021,11.264c-11.401-5.18-16.445-18.625-11.266-30.027
							c5.178-11.406,38.068-28.967,38.068-28.967S272.617,699.472,267.439,710.878z"/>
						<path fill="#BC6325" d="M442.885,710.877c-5.18,11.4-18.621,16.443-30.021,11.264c-11.399-5.181-16.443-18.625-11.265-30.027
							c5.177-11.406,38.069-28.967,38.069-28.967S448.063,699.472,442.885,710.877z"/>
						<path fill="#BC6325" d="M618.33,710.878c-5.179,11.4-18.621,16.442-30.02,11.264c-11.402-5.18-16.445-18.625-11.266-30.027
							c5.178-11.406,38.067-28.967,38.067-28.967S623.509,699.472,618.33,710.878z"/>
					</g>
				</g>
				<g>
					<g>
						<path fill="#BC6325" d="M168.352,824.828c-5.182,11.401-18.623,16.443-30.021,11.264
							c-11.402-5.18-16.446-18.625-11.268-30.027c5.18-11.405,38.07-28.967,38.07-28.967S173.529,813.422,168.352,824.828z"/>
						<path fill="#BC6325" d="M343.799,824.828c-5.182,11.401-18.623,16.443-30.024,11.265
							c-11.399-5.181-16.444-18.626-11.265-30.028c5.18-11.405,38.069-28.967,38.069-28.967S348.975,813.422,343.799,824.828z"/>
						<path fill="#BC6325" d="M519.242,824.828c-5.18,11.401-18.622,16.443-30.021,11.264c-11.403-5.18-16.445-18.625-11.268-30.027
							c5.179-11.407,38.071-28.967,38.071-28.967S524.422,813.422,519.242,824.828z"/>
					</g>
					<g>
						<path fill="#BC6325" d="M91.992,940.096c-5.179,11.401-18.621,16.443-30.02,11.264c-11.402-5.181-16.447-18.626-11.267-30.027
							c5.178-11.406,38.068-28.967,38.068-28.967S97.172,928.689,91.992,940.096z"/>
						<path fill="#BC6325" d="M267.439,940.096c-5.18,11.401-18.621,16.443-30.021,11.264
							c-11.401-5.181-16.445-18.626-11.266-30.027c5.178-11.406,38.068-28.967,38.068-28.967S272.617,928.689,267.439,940.096z"/>
						<path fill="#BC6325" d="M442.885,940.096c-5.18,11.401-18.621,16.443-30.021,11.264
							c-11.399-5.181-16.443-18.626-11.265-30.027c5.177-11.406,38.069-28.967,38.069-28.967S448.063,928.689,442.885,940.096z"/>
						<path fill="#BC6325" d="M618.33,940.096c-5.179,11.4-18.621,16.443-30.02,11.264c-11.402-5.181-16.445-18.626-11.266-30.027
							c5.178-11.406,38.067-28.968,38.067-28.968S623.509,928.689,618.33,940.096z"/>
					</g>
					<g>
						<path fill="#BC6325" d="M168.352,1052.433c-5.182,11.4-18.623,16.443-30.021,11.265
							c-11.402-5.181-16.446-18.626-11.268-30.027c5.18-11.406,38.07-28.967,38.07-28.967S173.529,1041.028,168.352,1052.433z"/>
						<path fill="#BC6325" d="M343.799,1052.433c-5.182,11.4-18.623,16.443-30.024,11.265
							c-11.399-5.182-16.444-18.626-11.265-30.028c5.18-11.406,38.069-28.967,38.069-28.967S348.975,1041.028,343.799,1052.433z"/>
						<path fill="#BC6325" d="M519.242,1052.433c-5.18,11.4-18.622,16.443-30.021,11.265c-11.403-5.181-16.445-18.626-11.268-30.027
							c5.179-11.406,38.071-28.967,38.071-28.967S524.422,1041.028,519.242,1052.433z"/>
					</g>
				</g>
			</g>
		</g>
	</g>
</g>
<g>
	<defs>
		<rect id="SVGID_5_" x="779" y="-1" width="642" height="1098"/>
	</defs>
	<clipPath id="SVGID_6_">
		<use xlink:href="#SVGID_5_"  overflow="visible"/>
	</clipPath>
	<g clip-path="url(#SVGID_6_)">
		<rect x="499.225" y="-38.892" fill="#F7D793" width="2040.888" height="1148.927"/>
		<g>
			<g>
				<defs>
					<polygon id="SVGID_7_" points="-469.872,-190.392 1571.016,-190.392 1578.814,1152.166 -462.073,1152.166 					"/>
				</defs>
				<clipPath id="SVGID_8_">
					<use xlink:href="#SVGID_7_"  overflow="visible"/>
				</clipPath>
			</g>
			<g>
				<defs>
					<polygon id="SVGID_9_" points="-469.872,-190.392 1571.016,-190.392 1547.009,1110.035 -493.879,1110.035 					"/>
				</defs>
				<clipPath id="SVGID_10_">
					<use xlink:href="#SVGID_9_"  overflow="visible"/>
				</clipPath>
				<path clip-path="url(#SVGID_10_)" fill="#F4D08A" d="M279.428-816.388c75.614,14.174,154.305,16.145,232.455,20.147
					c151.605,7.763,298.996,17.431,450.337,6.81c139.52-9.799,278.93,3.062,419.099,10.24c101.344,5.189,202.297-0.3,303.142,4.479
					c75.035,3.556,143.192,6.778,188.892,68.708c29.585,40.085,59.568,87.898,81.568,131.678
					c17.912,35.639,33.803,72.937,50.142,109.226c22.411,49.759,20.893,87.838,18.01,140.665
					c-7.136,130.852-7.138,256.836-58.205,380.358c-29.065,70.31-50.23,107.265-121.021,146.878
					c-86.813,48.576-188.386,92.492-292.215,92.637c-126.189,0.178-247.375-18.627-365.824-60.117
					c-67.235-23.551-129.621-53.146-194.668-78.984C855.603,102.494,718.528,75.33,574.518,50.351
					c-120.344-20.875-250.734-72.188-321.373-169c-74.582-102.213-102.275-231.664-89.691-351.964
					c7.029-67.205,19.966-124.836,47.906-187.428c14.457-32.389,25.459-123.386,64.095-139.318L279.428-816.388z"/>
			</g>
			<g>
				<defs>
					<polygon id="SVGID_11_" points="-469.872,-190.392 1571.016,-190.392 1565.022,1132.498 -475.865,1132.498 					"/>
				</defs>
				<clipPath id="SVGID_12_">
					<use xlink:href="#SVGID_11_"  overflow="visible"/>
				</clipPath>
				<path clip-path="url(#SVGID_12_)" fill="#E89021" d="M414.436-659.237c60.782,11.393,124.044,12.977,186.867,16.194
					c121.871,6.24,240.355,14.012,362.019,5.472c112.156-7.875,224.226,2.462,336.906,8.231c81.469,4.17,162.622-0.24,243.688,3.603
					c60.322,2.856,115.111,5.445,151.852,55.232c23.781,32.223,47.883,70.659,65.571,105.852
					c14.403,28.651,27.173,58.636,40.309,87.809c18.013,39.999,16.793,70.608,14.477,113.076
					c-5.734,105.19-5.737,206.465-46.788,305.768c-23.371,56.521-40.384,86.227-97.293,118.068
					c-69.779,39.051-151.437,74.355-234.906,74.473c-101.446,0.143-198.859-14.977-294.08-48.328
					c-54.051-18.93-104.203-42.725-156.493-63.496C877.611,79.439,767.421,57.601,651.652,37.521
					C554.909,20.741,450.092-20.512,393.304-98.335c-59.958-82.167-82.22-186.232-72.101-282.94
					c5.651-54.025,16.049-100.352,38.509-150.671c11.627-26.038,20.47-99.189,51.527-111.996L414.436-659.237z"/>
			</g>
			<g>
				<defs>
					<polygon id="SVGID_13_" points="-469.872,-190.392 1571.016,-190.392 1566.113,1132.498 -474.774,1132.498 					"/>
				</defs>
				<clipPath id="SVGID_14_">
					<use xlink:href="#SVGID_13_"  overflow="visible"/>
				</clipPath>
				<path opacity="0.2" clip-path="url(#SVGID_14_)" fill="#EED697" enable-background="new    " d="M393.304-98.335
					C450.092-20.511,554.909,20.743,651.654,37.522c115.767,20.08,225.957,41.919,334.911,85.198
					c52.29,20.771,102.442,44.564,156.493,63.494c95.219,33.354,192.634,48.471,294.08,48.328
					c83.468-0.115,165.125-35.42,234.904-74.471c56.911-31.844,73.924-61.55,97.293-118.069
					c-85.411-67.854-268.051-16.886-420.957,23.465c-142.182,37.521-450.228,16.99-665.517-108.126
					c-144.69-84.087-132.291-233.191-288.03-255.028c-88.41-12.396-106.186,36.15-55.566,92.513
					C351.518-167.319,369.406-131.084,393.304-98.335z"/>
			</g>
			<g>
				<defs>
					<polygon id="SVGID_15_" points="-469.872,-190.392 1571.016,-190.392 1574.017,1227.029 -466.871,1227.029 					"/>
				</defs>
				<clipPath id="SVGID_16_">
					<use xlink:href="#SVGID_15_"  overflow="visible"/>
				</clipPath>
			</g>
		</g>
	</g>
</g>
<g>
	<defs>
		<rect id="SVGID_215_" x="1579" width="642" height="1098"/>
	</defs>
	<clipPath id="SVGID_18_">
		<use xlink:href="#SVGID_215_"  overflow="visible"/>
	</clipPath>
	<g id="圖層_1_9_" clip-path="url(#SVGID_18_)">
		<rect x="310.943" y="-9.5" fill="#208567" width="1984.174" height="1117"/>
	</g>
</g>
</svg>
