<?xml version="1.0" encoding="utf-8"?>
<!-- Generator: Adobe Illustrator 16.0.0, SVG Export Plug-In . SVG Version: 6.00 Build 0)  -->
<!DOCTYPE svg PUBLIC "-//W3C//DTD SVG 1.1//EN" "http://www.w3.org/Graphics/SVG/1.1/DTD/svg11.dtd">
<svg version="1.1" id="圖層_1" xmlns="http://www.w3.org/2000/svg" xmlns:xlink="http://www.w3.org/1999/xlink" x="0px" y="0px"
	 width="820px" height="790px" viewBox="0 0 820 790" enable-background="new 0 0 820 790" xml:space="preserve">
<g>
	<g>
		<defs>
			<rect id="SVGID_161_" x="-2175.596" y="582.361" width="1948.8" height="203"/>
		</defs>
		<clipPath id="SVGID_2_">
			<use xlink:href="#SVGID_161_"  overflow="visible"/>
		</clipPath>
		<g clip-path="url(#SVGID_2_)">
			<defs>
				<rect id="SVGID_163_" x="-2193.853" y="488.85" width="2265.48" height="444.705"/>
			</defs>
			<clipPath id="SVGID_4_">
				<use xlink:href="#SVGID_163_"  overflow="visible"/>
			</clipPath>
		</g>
	</g>
	<g>
		<defs>
			<rect id="SVGID_165_" x="-2175.596" y="582.361" width="1948.8" height="203"/>
		</defs>
		<clipPath id="SVGID_6_">
			<use xlink:href="#SVGID_165_"  overflow="visible"/>
		</clipPath>
		<g opacity="0.3" clip-path="url(#SVGID_6_)">
			<defs>
				<rect id="SVGID_167_" x="-2193.853" y="488.85" opacity="0.3" width="2265.48" height="444.705"/>
			</defs>
			<clipPath id="SVGID_8_">
				<use xlink:href="#SVGID_167_"  overflow="visible"/>
			</clipPath>
		</g>
	</g>
	<g>
		<defs>
			<rect id="SVGID_171_" x="-2175.596" y="582.361" width="1948.8" height="203"/>
		</defs>
		<clipPath id="SVGID_10_">
			<use xlink:href="#SVGID_171_"  overflow="visible"/>
		</clipPath>
		<g clip-path="url(#SVGID_10_)">
			<defs>
				<rect id="SVGID_173_" x="-2193.853" y="488.85" width="2265.48" height="444.705"/>
			</defs>
			<clipPath id="SVGID_12_">
				<use xlink:href="#SVGID_173_"  overflow="visible"/>
			</clipPath>
		</g>
	</g>
</g>
<g>
	<rect y="-0.861" fill="none" width="820" height="791.723"/>
	<g>
		<circle fill="#4A2E2C" cx="410" cy="367.619" r="286.018"/>
		<g>
			<path fill="#EFB91B" d="M540.541,396.52c-0.845-7.384,4.462-14.062,11.846-14.903c7.388-0.843,14.064,4.462,14.908,11.848
				c0.453,3.858,0.821,7.841,1.084,11.948c0.235,3.761,0.371,7.799,0.371,12.145h0.054v0.025h-0.054
				c-0.005,45.638-18.11,81.585-47.359,106.184c-28.742,24.173-68.109,37.05-111.347,37.06v0.052H410h-0.021v-0.052
				c-43.25-0.003-82.631-12.887-111.38-37.065c-29.244-24.599-47.342-60.541-47.353-106.173h-0.051v-0.033v-0.019h0.051
				c0.007-43.448,16.921-103.457,44.258-152.401c28.457-50.945,68.7-90.712,114.475-90.727v-0.05H410h0.028v0.05
				c12.728,0.005,25.034,3.063,36.781,8.581c7.487,3.517,14.674,7.973,21.526,13.209c33.815,25.844,61.853,72.296,79.56,119.871
				c2.588,6.952-0.95,14.687-7.901,17.277c-6.951,2.591-14.688-0.951-17.278-7.901c-16.134-43.351-41.138-85.259-70.71-107.863
				c-5.474-4.183-11.021-7.651-16.575-10.261c-8.284-3.891-16.794-6.047-25.404-6.05v0.054H410h-0.021v-0.054
				c-34.45,0.012-66.853,33.728-90.982,76.926c-25.256,45.216-40.883,100.065-40.888,139.34h0.054v0.018v0.033h-0.054
				c0.008,37.049,14.443,66.015,37.768,85.634c23.842,20.053,57.121,30.738,94.102,30.741v-0.054H410h0.045v0.054
				c36.966-0.007,70.233-10.688,94.069-30.736c23.333-19.622,37.775-48.591,37.776-85.646h-0.051v-0.025h0.051
				c0-3.187-0.136-6.701-0.372-10.459C541.293,403.681,540.962,400.141,540.541,396.52z"/>
			<path fill="#EFB91B" d="M374.809,355.663c6.598-3.401,14.709-0.809,18.114,5.794c3.403,6.601,0.808,14.716-5.792,18.116
				c-10.858,5.594-19.235,9.68-26.72,12.46l-0.018,0.004l0.018,0.045c-8.367,3.107-15.48,4.481-22.995,4.238
				c-10.764-0.347-19.621-4.236-28.409-8.09c-7.589-3.332-15.121-6.633-21.229-5.447l-0.036,0.004l0.003,0.01
				c-0.63,0.124-1.176,0.281-1.618,0.457c-0.512,0.206-0.944,0.417-1.29,0.637l0.017,0.031c-2.705,1.781-4.68,5.792-5.362,12.438
				c-0.756,7.384-7.359,12.763-14.745,12.009c-7.387-0.757-12.764-7.362-12.009-14.747c1.593-15.489,8.009-26.029,17.264-32.136
				l0.014,0.025l0.04-0.025c1.979-1.304,4.007-2.371,6.063-3.198c2.142-0.858,4.303-1.504,6.466-1.93l0.004,0.009l0.139-0.024
				c14.228-2.763,25.583,2.217,37.03,7.239c6.464,2.838,12.982,5.697,18.506,5.875c3.651,0.117,7.62-0.741,12.775-2.654l0.02,0.043
				C357.095,364.604,364.698,360.872,374.809,355.663z"/>
			<path fill="#EFB91B" d="M318.648,363.083c6.776,3.051,9.796,11.021,6.74,17.799c-3.056,6.776-11.025,9.796-17.804,6.741
				c-15.571-7.066-27.059-15.857-33.438-28.177c-6.508-12.576-7.165-27.639-0.773-46.721c2.356-7.04,9.975-10.836,17.013-8.481
				c7.035,2.356,10.834,9.973,8.48,17.012c-3.876,11.569-3.923,19.853-0.809,25.867
				C301.302,353.388,308.462,358.459,318.648,363.083z"/>
			<path fill="#EFB91B" d="M432.901,379.574c-6.601-3.401-9.196-11.516-5.794-18.115c3.402-6.604,11.515-9.197,18.118-5.794
				c10.106,5.208,17.711,8.94,23.753,11.183l0.015-0.043c5.161,1.913,9.131,2.771,12.776,2.654
				c5.528-0.179,12.043-3.04,18.506-5.874c11.447-5.02,22.803-10.003,37.035-7.242l0.136,0.025v-0.01
				c2.169,0.427,4.332,1.073,6.473,1.93c2.055,0.828,4.081,1.894,6.059,3.198l0.041,0.026l0.017-0.026
				c9.25,6.106,15.669,16.648,17.263,32.136c0.755,7.386-4.626,13.991-12.01,14.748c-7.388,0.753-13.992-4.626-14.745-12.01
				c-0.687-6.647-2.659-10.656-5.366-12.439l0.02-0.027c-0.344-0.222-0.777-0.436-1.287-0.643c-0.446-0.175-0.99-0.333-1.62-0.455
				v-0.011l-0.033-0.004c-6.112-1.185-13.645,2.118-21.234,5.449c-8.785,3.854-17.64,7.742-28.405,8.088
				c-7.508,0.245-14.624-1.128-22.996-4.237l0.02-0.046l-0.02-0.005C452.137,389.253,443.757,385.168,432.901,379.574z"/>
		</g>
	</g>
	<g>
		<g>
			<path fill="#4A2E2C" d="M210.833,772.867v-25.593h-27.038v25.593h-2.751v-49.122h2.751v20.708h27.038v-20.708h2.821v49.122
				H210.833z"/>
			<path fill="#4A2E2C" d="M267.041,772.867l-5.641-14.723h-22.359l-5.71,14.723h-2.752l19.607-50.704l19.676,50.704H267.041z
				 M250.186,729.317l-10.044,26.006h20.089L250.186,729.317z"/>
			<path fill="#4A2E2C" d="M340.036,772.867l-10.458-41.279l-16.167,42.517l-16.167-42.586l-10.526,41.348h-2.821l12.797-50.566
				l16.718,43.824l16.718-43.893l12.797,50.635H340.036z"/>
			<path fill="#4A2E2C" d="M386.199,768.876c-2.982,2.661-6.628,3.99-10.939,3.99h-15.342v-49.122h11.971
				c3.807,0,6.834,0.987,9.082,2.958c2.384,2.11,3.578,5.046,3.578,8.806c0,4.312-1.766,7.477-5.298,9.494
				c3.44,0.688,6.215,2.248,8.325,4.678c2.063,2.432,3.096,5.413,3.096,8.944C390.67,762.846,389.179,766.262,386.199,768.876z
				 M378.975,729.042c-1.881-1.651-4.174-2.477-6.879-2.477h-9.426v17.888h9.838c2.66,0,4.861-0.826,6.605-2.477
				c1.743-1.651,2.614-3.807,2.614-6.467C381.727,732.757,380.809,730.602,378.975,729.042z M384.134,750.301
				c-2.339-2.018-5.274-3.027-8.806-3.027h-12.659v22.772h12.659c3.485,0,6.443-1.055,8.875-3.165
				c2.477-2.109,3.715-4.861,3.715-8.256C387.918,755.186,386.657,752.411,384.134,750.301z"/>
			<path fill="#4A2E2C" d="M432.843,770.184c-2.523,2.11-5.848,3.165-9.976,3.165c-3.99,0-7.316-1.077-9.976-3.233
				c-2.798-2.339-4.196-5.504-4.196-9.494v-36.875h2.752v36.875c0,3.165,1.146,5.642,3.439,7.43c2.109,1.651,4.77,2.477,7.981,2.477
				c3.165,0,5.824-0.848,7.98-2.545c2.339-1.834,3.509-4.288,3.509-7.361v-36.875h2.821v36.875
				C437.177,764.611,435.732,767.799,432.843,770.184z"/>
			<path fill="#4A2E2C" d="M477.149,772.867l-15.617-24.561h-5.297v24.561h-2.752v-49.122h11.352c1.834,0,3.577,0.264,5.229,0.791
				c1.651,0.528,3.072,1.307,4.266,2.339c1.192,1.032,2.144,2.305,2.855,3.818c0.71,1.514,1.066,3.257,1.066,5.229
				c0,2.156-0.333,4.014-0.998,5.572c-0.665,1.56-1.606,2.845-2.82,3.853c-1.216,1.009-2.649,1.754-4.3,2.236
				c-1.651,0.481-3.463,0.722-5.435,0.722l15.755,24.561H477.149z M474.535,731.76c-0.55-1.169-1.307-2.133-2.27-2.89
				c-0.963-0.756-2.087-1.33-3.371-1.72c-1.285-0.389-2.661-0.585-4.128-0.585h-8.531v18.919h9.288c2.935,0,5.308-0.825,7.121-2.477
				c1.812-1.651,2.718-4.035,2.718-7.155C475.361,734.294,475.085,732.929,474.535,731.76z"/>
			<path fill="#4A2E2C" d="M629.465,772.867l-15.617-24.561h-5.298v24.561h-2.752v-49.122h11.352c1.834,0,3.578,0.264,5.229,0.791
				c1.651,0.528,3.072,1.307,4.265,2.339c1.192,1.032,2.144,2.305,2.855,3.818c0.71,1.514,1.066,3.257,1.066,5.229
				c0,2.156-0.333,4.014-0.998,5.572c-0.665,1.56-1.605,2.845-2.82,3.853c-1.216,1.009-2.648,1.754-4.3,2.236
				s-3.464,0.722-5.436,0.722l15.755,24.561H629.465z M626.851,731.76c-0.55-1.169-1.307-2.133-2.27-2.89
				c-0.963-0.756-2.088-1.33-3.371-1.72c-1.285-0.389-2.661-0.585-4.128-0.585h-8.531v18.919h9.288c2.935,0,5.308-0.825,7.12-2.477
				c1.812-1.651,2.718-4.035,2.718-7.155C627.676,734.294,627.401,732.929,626.851,731.76z"/>
		</g>
		<g>
			<path fill="#EFB91B" d="M543.671,730.232c4.725-5,10.985-7.499,18.782-7.499c7.43,0,13.484,2.339,18.162,7.018
				c4.725,4.723,7.086,10.801,7.086,18.231c0,7.337-2.362,13.369-7.086,18.094c-4.77,4.77-10.824,7.155-18.162,7.155
				c-8.807,0-15.731-3.371-20.777-10.113l2.271-1.72c4.403,6.054,10.572,9.082,18.507,9.082c6.467,0,11.833-2.133,16.099-6.398
				s6.398-9.632,6.398-16.099c0-6.513-2.109-11.879-6.33-16.099c-4.311-4.221-9.7-6.33-16.167-6.33
				c-6.925,0-12.498,2.315-16.718,6.949c-3.21,3.485-5.045,7.43-5.504,11.833h16.236v2.821h-19.333
				C537.135,740.459,539.314,734.818,543.671,730.232z"/>
			<path fill="#EFB91B" d="M520.968,723.421v49.122h-23.598v-2.82h20.777v-17.888h-20.777v-3.027h20.777v-22.566h-20.777v-2.821
				H520.968z"/>
		</g>
	</g>
</g>
</svg>
