<?xml version="1.0" encoding="utf-8"?>
<!-- Generator: Adobe Illustrator 16.0.0, SVG Export Plug-In . SVG Version: 6.00 Build 0)  -->
<!DOCTYPE svg PUBLIC "-//W3C//DTD SVG 1.1//EN" "http://www.w3.org/Graphics/SVG/1.1/DTD/svg11.dtd">
<svg version="1.1" id="圖層_1" xmlns="http://www.w3.org/2000/svg" xmlns:xlink="http://www.w3.org/1999/xlink" x="0px" y="0px"
	 width="40px" height="40px" viewBox="0 0 40 40" enable-background="new 0 0 40 40" xml:space="preserve">
<polygon fill="#FFFFFF" points="8.308,11.409 32.259,13.999 32.259,21.358 30.65,23.936 10.049,24.022 8.308,22.166 "/>
<g>
	<g>
		<path fill="none" stroke="#727171" stroke-linecap="round" stroke-linejoin="round" stroke-miterlimit="10" d="M10.972,24.022
			c-1.473,0-2.664-1.191-2.664-2.664"/>
		<path fill="none" stroke="#727171" stroke-linecap="round" stroke-linejoin="round" stroke-miterlimit="10" d="M11.791,27.418
			c-1.925,0-3.483-1.56-3.483-3.482"/>
		
			<line fill="none" stroke="#727171" stroke-linecap="round" stroke-linejoin="round" stroke-miterlimit="10" x1="8.308" y1="23.936" x2="8.308" y2="10.312"/>
		
			<line fill="none" stroke="#727171" stroke-linecap="round" stroke-linejoin="round" stroke-miterlimit="10" x1="10.972" y1="24.022" x2="29.595" y2="24.022"/>
		<polyline fill="none" stroke="#727171" stroke-linecap="round" stroke-linejoin="round" stroke-miterlimit="10" points="
			8.308,11.409 32.259,13.999 32.259,21.358 		"/>
		<path fill="none" stroke="#727171" stroke-linecap="round" stroke-linejoin="round" stroke-miterlimit="10" d="M8.308,10.187
			c0-1.207-0.803-2.226-1.9-2.554"/>
		<path fill="none" stroke="#727171" stroke-linecap="round" stroke-linejoin="round" stroke-miterlimit="10" d="M32.259,21.358
			c0,1.473-1.194,2.664-2.664,2.664"/>
	</g>
	
		<circle fill="#FFFFFF" stroke="#727171" stroke-linecap="round" stroke-linejoin="round" stroke-miterlimit="10" cx="14.71" cy="29.893" r="2.474"/>
	
		<circle fill="none" stroke="#727171" stroke-linecap="round" stroke-linejoin="round" stroke-miterlimit="10" cx="14.71" cy="29.893" r="0.968"/>
	
		<circle fill="#FFFFFF" stroke="#727171" stroke-linecap="round" stroke-linejoin="round" stroke-miterlimit="10" cx="28.176" cy="29.893" r="2.474"/>
	
		<line fill="none" stroke="#727171" stroke-linecap="round" stroke-linejoin="round" stroke-miterlimit="10" x1="11.791" y1="27.418" x2="28.176" y2="27.418"/>
	
		<circle fill="none" stroke="#727171" stroke-linecap="round" stroke-linejoin="round" stroke-miterlimit="10" cx="28.176" cy="29.893" r="0.968"/>
</g>
<line fill="none" stroke="#727171" stroke-linecap="round" stroke-linejoin="round" stroke-miterlimit="10" x1="8.308" y1="15.854" x2="32.259" y2="17.124"/>
<line fill="none" stroke="#727171" stroke-linecap="round" stroke-linejoin="round" stroke-miterlimit="10" x1="8.308" y1="20" x2="32.259" y2="20.238"/>
<line fill="none" stroke="#727171" stroke-linecap="round" stroke-linejoin="round" stroke-miterlimit="10" x1="13.142" y1="11.932" x2="13.142" y2="24.022"/>
<line fill="none" stroke="#727171" stroke-linecap="round" stroke-linejoin="round" stroke-miterlimit="10" x1="18.028" y1="12.561" x2="18.028" y2="24.022"/>
<line fill="none" stroke="#727171" stroke-linecap="round" stroke-linejoin="round" stroke-miterlimit="10" x1="22.915" y1="12.988" x2="22.915" y2="24.022"/>
<line fill="none" stroke="#727171" stroke-linecap="round" stroke-linejoin="round" stroke-miterlimit="10" x1="27.801" y1="13.558" x2="27.801" y2="24.022"/>
</svg>
