<?xml version="1.0" encoding="utf-8"?>
<!-- Generator: Adobe Illustrator 16.0.0, SVG Export Plug-In . SVG Version: 6.00 Build 0)  -->
<!DOCTYPE svg PUBLIC "-//W3C//DTD SVG 1.1//EN" "http://www.w3.org/Graphics/SVG/1.1/DTD/svg11.dtd">
<svg version="1.1" xmlns="http://www.w3.org/2000/svg" xmlns:xlink="http://www.w3.org/1999/xlink" x="0px" y="0px" width="250px"
	 height="460px" viewBox="0 0 250 460" enable-background="new 0 0 250 460" xml:space="preserve">
<g id="圖層_1">
</g>
<g id="NO" display="none">
</g>
<g id="圖層_3">
	<g>
		<path fill="none" stroke="#4A2E2C" stroke-width="1.2" stroke-miterlimit="10" d="M12.471,46.352
			c2.161-25.247,17.707-29.091,27.44-29.149c19.588-0.118,52.19-2.087,72.255-1.182c18.418,0.831,79.333-4.014,103.535,2.381
			c12.135,3.207,18.142,10.562,21.507,19.509c5.481,14.572,3.581,41.099,3.032,72.688c-2.176,125.334-0.743,300.331-1.744,305.374
			c-4.998,25.156-24.497,25.155-38.365,24.519c-35.965-1.651-81.634-0.85-117.303-0.85c-15.513,0-54.025,4.222-63.181-10.632
			c-12.531-20.33-8.815-52.259-8.815-75.018C10.833,238.623,10.702,67.019,12.471,46.352z"/>
		<g>
			<path fill="#4A2E2C" d="M12.386,46.344c0,0,0.031-0.304,0.093-0.901s0.142-1.488,0.326-2.659
				c0.366-2.328,0.935-5.834,2.684-10.085c0.88-2.115,2.122-4.385,3.871-6.603c1.771-2.19,4.096-4.311,7.046-5.879
				c2.939-1.572,6.437-2.615,10.235-2.981c1.901-0.207,3.87-0.169,5.884-0.218c2.018-0.037,4.094-0.075,6.227-0.115
				c8.528-0.225,17.972-0.561,28.254-0.913c10.282-0.322,21.41-0.674,33.312-0.345c5.938,0.228,12.052,0.086,18.368-0.09
				c6.312-0.197,12.805-0.399,19.469-0.607c13.332-0.379,27.365-0.732,42.018-0.197c7.321,0.298,14.814,0.797,22.362,2.245
				c1.874,0.355,3.792,0.857,5.615,1.421c1.868,0.651,3.709,1.348,5.452,2.299c3.514,1.833,6.68,4.445,9.178,7.625
				c2.486,3.19,4.312,6.892,5.612,10.725c1.283,3.917,1.961,7.943,2.451,12.021c0.928,8.158,0.961,16.465,0.894,24.855
				c-0.82,33.543-1.406,68.864-1.813,105.447c-0.378,36.573-0.57,74.368-0.697,112.773c-0.131,38.407,0.23,77.415-0.078,116.442
				l-0.088,3.667c-0.04,0.628-0.021,1.195-0.151,1.9l-0.396,1.786c-0.581,2.396-1.334,4.759-2.346,7.013
				c-1.992,4.513-5.187,8.589-9.378,11.3c-2.091,1.348-4.374,2.374-6.733,3.121c-2.366,0.729-4.8,1.187-7.244,1.465
				c-4.894,0.546-9.813,0.319-14.649,0.13c-19.419-0.77-38.751-0.861-57.956-0.827c-19.203,0.097-38.253,0.192-57.075,0.287
				c-4.671,0.017-9.363,0.269-14.042,0.404c-4.68,0.147-9.355,0.233-14.02,0.138c-4.663-0.098-9.32-0.363-13.934-0.993
				c-4.603-0.649-9.208-1.606-13.521-3.509c-2.146-0.956-4.219-2.166-5.999-3.782c-0.888-0.806-1.695-1.715-2.375-2.717l-0.25-0.379
				c-0.086-0.124-0.177-0.285-0.239-0.391l-0.429-0.735c-0.284-0.492-0.578-0.968-0.84-1.497c-2.195-4.107-3.728-8.434-4.876-12.836
				c-2.26-8.824-2.908-17.823-3.125-26.645c-0.184-8.837,0.167-17.557,0.372-26.143c0.117-4.292,0.104-8.547,0.104-12.801
				c0.001-4.247,0.003-8.467,0.005-12.658c0.009-16.765,0.018-33.072,0.026-48.846c0.063-15.773,0.124-31.014,0.182-45.645
				c0.158-29.262,0.304-56.085,0.432-79.86c0.219-23.774,0.41-44.501,0.567-61.57c0.165-17.069,0.412-30.479,0.628-39.622
				c0.168-4.57,0.21-8.075,0.385-10.435C12.316,47.563,12.386,46.344,12.386,46.344z M12.555,46.36c0,0-0.065,1.216-0.192,3.573
				c-0.167,2.354-0.198,5.862-0.35,10.43c-0.187,9.142-0.389,22.551-0.498,39.619c-0.131,17.068-0.127,37.795-0.117,61.57
				c0.041,23.774,0.087,50.597,0.138,79.858c0.045,14.63,0.092,29.871,0.141,45.645c0.008,15.774,0.017,32.081,0.026,48.845
				c0.002,4.191,0.004,8.411,0.006,12.658c0.003,4.24,0.021,8.535-0.094,12.841c-0.198,8.609-0.539,17.298-0.349,26.064
				c0.215,8.749,0.892,17.625,3.079,26.237c1.103,4.285,2.606,8.524,4.679,12.424c0.237,0.489,0.538,0.98,0.82,1.471l0.427,0.736
				c0.082,0.14,0.127,0.227,0.204,0.336l0.219,0.332c0.593,0.879,1.304,1.685,2.099,2.411c1.592,1.455,3.505,2.585,5.527,3.491
				c4.065,1.808,8.544,2.763,13.048,3.406c4.52,0.628,9.118,0.902,13.737,1.009c4.621,0.105,9.268,0.031,13.935-0.105
				c4.668-0.125,9.35-0.367,14.091-0.373c18.822-0.032,37.872-0.063,57.075-0.096c19.199,0.06,38.586,0.248,57.998,1.113
				c4.861,0.215,9.695,0.458,14.494-0.053c2.391-0.261,4.762-0.695,7.056-1.39c2.285-0.712,4.486-1.689,6.5-2.972
				c4.028-2.583,7.124-6.466,9.077-10.852c0.992-2.191,1.735-4.49,2.312-6.829l0.401-1.784c0.097-0.494,0.102-1.155,0.137-1.742
				l0.101-3.646c0.278-19.495,0.239-39.009,0.303-58.438c0.025-19.432,0.05-38.787,0.075-57.99
				c-0.046-38.406-0.009-76.203,0.192-112.781c0.09-18.289,0.214-36.273,0.422-53.877c0.127-8.801,0.233-17.508,0.436-26.111
				c0.195-8.602,0.453-17.094,0.527-25.464c0.061-8.365-0.02-16.63-0.89-24.671c-0.463-4.002-1.133-7.99-2.336-11.705
				c-1.26-3.754-2.998-7.287-5.354-10.335c-2.367-3.031-5.353-5.514-8.705-7.279c-1.66-0.915-3.439-1.592-5.191-2.213
				c-1.845-0.575-3.628-1.047-5.493-1.41c-7.404-1.456-14.866-1.958-22.149-2.313c-14.59-0.642-28.614-0.397-41.94-0.118
				c-6.666,0.158-13.161,0.312-19.474,0.462c-6.309,0.131-12.469,0.228-18.412-0.043c-11.864-0.413-22.995-0.141-33.275,0.107
				c-10.284,0.292-19.73,0.56-28.262,0.803c-2.133,0.034-4.209,0.067-6.228,0.099c-2.019,0.044-3.979,0.001-5.861,0.202
				c-3.768,0.354-7.232,1.378-10.144,2.926c-2.923,1.544-5.229,3.635-6.988,5.801c-1.739,2.193-2.977,4.442-3.857,6.542
				c-1.749,4.22-2.326,7.714-2.696,10.03c-0.186,1.163-0.269,2.056-0.332,2.653C12.587,46.058,12.555,46.36,12.555,46.36z"/>
		</g>
	</g>
	<g>
		<path fill="none" stroke="#4A2E2C" stroke-width="1.3" stroke-miterlimit="10" d="M120.949,409.305
			c0.111-1.302,0.913-1.5,1.415-1.503c1.01-0.006,2.433-0.107,3.467-0.061c0.95,0.043,3.729-0.207,4.977,0.123
			c0.625,0.165,0.935,0.544,1.108,1.005c0.283,0.751,0.185,2.119,0.157,3.748c-0.112,6.461-0.039,4.501-0.09,4.761
			c-0.258,1.296-1.263,1.296-1.978,1.264c-1.854-0.085-3.848-0.044-5.687-0.044c-0.8,0-2.527,0.218-3-0.548
			c-0.646-1.048-0.454-2.694-0.454-3.867C120.864,408.235,120.857,410.37,120.949,409.305z"/>
		<path fill="none" stroke="#4A2E2C" stroke-width="1.3" stroke-miterlimit="10" d="M120.949,409.305
			c0.111-1.302,0.913-1.5,1.415-1.503c1.01-0.006,7.196-0.268,8.444,0.062c0.625,0.165,0.935,0.544,1.108,1.005
			c0.283,0.751,0.118,8.249,0.067,8.509c-0.258,1.296-1.263,1.296-1.978,1.264c-1.854-0.085-6.816,0.019-7.444-0.042
			c-0.538-0.052-1.023-0.196-1.242-0.55C120.672,417.002,120.857,410.37,120.949,409.305z"/>
	</g>
	<path fill="#4A2E2C" stroke="#4A2E2C" stroke-width="1.3" stroke-miterlimit="10" d="M112.212,48.983
		c-1.059-0.091-1.397-1.258-1.374-1.878c0.02-0.526,0.371-1.477,1.207-1.789c0.612-0.229,1.336-0.263,2.661-0.24
		c5.074,0.088,27.794,0.207,29.029,0.237c1.076,0.026,2.232,0.484,2.349,1.446c0.182,1.499-0.291,1.687-0.85,1.933
		c-0.917,0.402-5.622,0.361-6.577,0.361C133.816,49.052,113.079,49.057,112.212,48.983z"/>
	<path fill="#4A2E2C" stroke="#4A2E2C" stroke-width="1.3" stroke-miterlimit="10" d="M92.804,43.973
		c-3.312,0.154-4.633,5.463-0.885,5.847c1.807,0.185,3.042-0.165,3.766-1.674C96.563,46.313,95.281,43.858,92.804,43.973z"/>
	<path fill="none" stroke="#4A2E2C" stroke-width="1.3" stroke-miterlimit="10" d="M125.977,397.697
		c-18.224-0.02-19.173,27.267-4.388,28.979c8.942,1.036,15.081-0.818,18.665-8.297C144.607,409.295,138.268,397.71,125.977,397.697z
		"/>
	<g>
		<path fill="none" stroke="#4A2E2C" stroke-miterlimit="10" d="M234.459,408.158c-0.723,24.29-15.98,27.899-25.315,27.954
			c-18.786,0.114-53.255,0.002-72.498-0.865c-17.663-0.798-71.481,1.61-97.578-1.284c-11.962-1.327-16.397-8.13-19.625-16.709
			c-5.256-13.975-5.433-51.414-4.907-81.708c2.087-120.196,0.711-286.026,1.672-290.862C21.001,20.56,39.69,21.491,53.001,21.171
			c36.96-0.89,83.574-1.185,117.78-1.185c14.877,0,45.151,0.193,55.844,10.012c13.542,12.435,9.406,49.979,9.406,75.126
			C236.03,215.764,235.117,386.078,234.459,408.158z"/>
	</g>
</g>
</svg>
