<?xml version="1.0" encoding="utf-8"?>
<!-- Generator: Adobe Illustrator 16.0.0, SVG Export Plug-In . SVG Version: 6.00 Build 0)  -->
<!DOCTYPE svg PUBLIC "-//W3C//DTD SVG 1.1//EN" "http://www.w3.org/Graphics/SVG/1.1/DTD/svg11.dtd">
<svg version="1.1" id="圖層_1" xmlns="http://www.w3.org/2000/svg" xmlns:xlink="http://www.w3.org/1999/xlink" x="0px" y="0px"
	 width="350px" height="80px" viewBox="0 0 350 80" enable-background="new 0 0 350 80" xml:space="preserve">
<g>
	<g>
		<defs>
			<rect id="SVGID_179_" x="-4.375" y="-1" width="358.75" height="82"/>
		</defs>
		<clipPath id="SVGID_2_">
			<use xlink:href="#SVGID_179_"  overflow="visible"/>
		</clipPath>
		<g id="圖層_1_17_" clip-path="url(#SVGID_2_)">
			<rect x="-43.957" y="-1" fill="#208567" width="398.331" height="224.061"/>
			<g opacity="0.3" enable-background="new    ">
				<g>
					<defs>
						<rect id="SVGID_181_" x="-43.957" y="-1" width="398.331" height="224.061"/>
					</defs>
					<clipPath id="SVGID_4_">
						<use xlink:href="#SVGID_181_"  overflow="visible"/>
					</clipPath>
					<g clip-path="url(#SVGID_4_)">
						<g opacity="0.8381">
							<path fill="none" stroke="#096D52" stroke-width="2" stroke-miterlimit="10" d="M5.235-15.37
								c0,5.245-4.146,5.245-4.146,10.491c0,5.245,4.146,5.245,4.146,10.491c0,5.245-4.146,5.245-4.146,10.491
								c0,5.245,4.146,5.245,4.146,10.491S1.09,31.841,1.09,37.086c0,5.246,4.146,5.246,4.146,10.492
								c0,5.245-4.146,5.245-4.146,10.49c0,5.246,4.146,5.246,4.146,10.492c0,5.246-4.146,5.246-4.146,10.491
								c0,5.245,4.146,5.245,4.146,10.49c0,5.246-4.146,5.246-4.146,10.491c0,5.246,4.146,5.246,4.146,10.492
								c0,5.245-4.146,5.245-4.146,10.491c0,5.246,4.146,5.246,4.146,10.491c0,5.246-4.146,5.246-4.146,10.491
								c0,5.246,4.146,5.246,4.146,10.491c0,5.246-4.146,5.246-4.146,10.491c0,5.247,4.146,5.247,4.146,10.493
								s-4.146,5.246-4.146,10.491c0,5.247,4.146,5.247,4.146,10.493c0,5.246-4.146,5.246-4.146,10.492
								c0,5.246,4.146,5.246,4.146,10.491c0,5.247-4.146,5.247-4.146,10.492c0,5.247,4.146,5.247,4.146,10.492
								c0,5.246-4.146,5.246-4.146,10.492c0,5.247,4.146,5.247,4.146,10.494s-4.146,5.247-4.146,10.493"/>
						</g>
						<g opacity="0.8476">
							<path fill="none" stroke="#096D52" stroke-width="2" stroke-miterlimit="10" d="M28.627-17.714
								c0,5.245-4.145,5.245-4.145,10.491s4.145,5.246,4.145,10.492c0,5.245-4.145,5.245-4.145,10.491
								c0,5.245,4.145,5.245,4.145,10.491c0,5.246-4.145,5.246-4.145,10.491c0,5.246,4.145,5.246,4.145,10.491
								s-4.145,5.245-4.145,10.491c0,5.245,4.145,5.245,4.145,10.492c0,5.246-4.145,5.246-4.145,10.491
								c0,5.246,4.145,5.246,4.145,10.49c0,5.246-4.145,5.246-4.145,10.491c0,5.246,4.145,5.246,4.145,10.492
								c0,5.245-4.145,5.245-4.145,10.491s4.145,5.246,4.145,10.491c0,5.246-4.145,5.246-4.145,10.491
								c0,5.246,4.145,5.246,4.145,10.491c0,5.246-4.145,5.246-4.145,10.492s4.145,5.246,4.145,10.492s-4.145,5.246-4.145,10.492
								c0,5.246,4.145,5.246,4.145,10.492c0,5.247-4.145,5.247-4.145,10.492c0,5.246,4.145,5.246,4.145,10.491
								c0,5.247-4.145,5.247-4.145,10.492c0,5.247,4.145,5.247,4.145,10.493s-4.145,5.246-4.145,10.492
								c0,5.247,4.145,5.247,4.145,10.494c0,5.247-4.145,5.247-4.145,10.493"/>
						</g>
						<g opacity="0.8571">
							<path fill="none" stroke="#096D52" stroke-width="2" stroke-miterlimit="10" d="M52.018-20.058
								c0,5.246-4.145,5.246-4.145,10.491c0,5.245,4.145,5.245,4.145,10.491c0,5.246-4.145,5.246-4.145,10.492
								s4.145,5.246,4.145,10.491s-4.145,5.246-4.145,10.492c0,5.245,4.145,5.245,4.145,10.49c0,5.246-4.145,5.246-4.145,10.492
								c0,5.245,4.145,5.245,4.145,10.491s-4.145,5.246-4.145,10.491s4.145,5.245,4.145,10.49c0,5.245-4.145,5.245-4.145,10.491
								c0,5.247,4.145,5.247,4.145,10.492c0,5.246-4.145,5.246-4.145,10.491c0,5.246,4.145,5.246,4.145,10.492
								s-4.145,5.246-4.145,10.491c0,5.246,4.145,5.246,4.145,10.492c0,5.246-4.145,5.246-4.145,10.491s4.145,5.246,4.145,10.492
								s-4.145,5.246-4.145,10.492c0,5.246,4.145,5.246,4.145,10.492s-4.145,5.246-4.145,10.492c0,5.246,4.145,5.246,4.145,10.492
								c0,5.246-4.145,5.246-4.145,10.492s4.145,5.246,4.145,10.492c0,5.247-4.145,5.247-4.145,10.493
								c0,5.247,4.145,5.247,4.145,10.494c0,5.247-4.145,5.247-4.145,10.494"/>
						</g>
						<g opacity="0.8667">
							<path fill="none" stroke="#096D52" stroke-width="2" stroke-miterlimit="10" d="M75.411-22.402
								c0,5.245-4.146,5.245-4.146,10.491c0,5.245,4.146,5.245,4.146,10.491c0,5.245-4.146,5.245-4.146,10.491
								c0,5.246,4.146,5.246,4.146,10.492s-4.146,5.246-4.146,10.492c0,5.246,4.146,5.246,4.146,10.492
								c0,5.245-4.146,5.245-4.146,10.491c0,5.245,4.146,5.245,4.146,10.491c0,5.245-4.146,5.245-4.146,10.492
								c0,5.245,4.146,5.245,4.146,10.49c0,5.246-4.146,5.246-4.146,10.491c0,5.246,4.146,5.246,4.146,10.492
								c0,5.246-4.146,5.246-4.146,10.491c0,5.246,4.146,5.246,4.146,10.492c0,5.245-4.146,5.245-4.146,10.491
								c0,5.245,4.146,5.245,4.146,10.491c0,5.245-4.146,5.245-4.146,10.491c0,5.246,4.146,5.246,4.146,10.492
								c0,5.246-4.146,5.246-4.146,10.492c0,5.246,4.146,5.246,4.146,10.492s-4.146,5.246-4.146,10.492
								c0,5.246,4.146,5.246,4.146,10.492c0,5.245-4.146,5.245-4.146,10.492c0,5.246,4.146,5.246,4.146,10.492
								c0,5.246-4.146,5.246-4.146,10.492c0,5.247,4.146,5.247,4.146,10.494s-4.146,5.247-4.146,10.494"/>
						</g>
						<g opacity="0.8762">
							<path fill="none" stroke="#096D52" stroke-width="2" stroke-miterlimit="10" d="M98.802-24.746
								c0,5.246-4.145,5.246-4.145,10.491c0,5.246,4.145,5.246,4.145,10.491c0,5.246-4.145,5.246-4.145,10.491
								c0,5.246,4.145,5.246,4.145,10.491c0,5.246-4.145,5.246-4.145,10.492c0,5.246,4.145,5.246,4.145,10.491
								c0,5.245-4.145,5.245-4.145,10.491c0,5.246,4.145,5.246,4.145,10.492s-4.145,5.246-4.145,10.491
								c0,5.245,4.145,5.245,4.145,10.49c0,5.246-4.145,5.246-4.145,10.491s4.145,5.245,4.145,10.492
								c0,5.246-4.145,5.246-4.145,10.491c0,5.246,4.145,5.246,4.145,10.491c0,5.247-4.145,5.247-4.145,10.492
								s4.145,5.246,4.145,10.491c0,5.245-4.145,5.245-4.145,10.491s4.145,5.246,4.145,10.492c0,5.246-4.145,5.246-4.145,10.493
								c0,5.245,4.145,5.245,4.145,10.491s-4.145,5.246-4.145,10.493c0,5.245,4.145,5.245,4.145,10.491
								c0,5.246-4.145,5.246-4.145,10.492s4.145,5.246,4.145,10.493c0,5.245-4.145,5.245-4.145,10.492s4.145,5.247,4.145,10.494
								c0,5.247-4.145,5.247-4.145,10.493"/>
						</g>
						<g opacity="0.8857">
							<path fill="none" stroke="#096D52" stroke-width="2" stroke-miterlimit="10" d="M122.194-27.09
								c0,5.246-4.145,5.246-4.145,10.491s4.145,5.246,4.145,10.491c0,5.246-4.145,5.246-4.145,10.491
								c0,5.246,4.145,5.246,4.145,10.491c0,5.246-4.145,5.246-4.145,10.492s4.145,5.246,4.145,10.492
								c0,5.245-4.145,5.245-4.145,10.491c0,5.246,4.145,5.246,4.145,10.491c0,5.246-4.145,5.246-4.145,10.491
								c0,5.246,4.145,5.246,4.145,10.491c0,5.246-4.145,5.246-4.145,10.491c0,5.246,4.145,5.246,4.145,10.491
								c0,5.246-4.145,5.246-4.145,10.491c0,5.246,4.145,5.246,4.145,10.492s-4.145,5.246-4.145,10.492
								c0,5.245,4.145,5.245,4.145,10.491c0,5.245-4.145,5.245-4.145,10.491s4.145,5.246,4.145,10.491
								c0,5.247-4.145,5.247-4.145,10.493s4.145,5.246,4.145,10.492c0,5.246-4.145,5.246-4.145,10.492
								c0,5.246,4.145,5.246,4.145,10.491c0,5.247-4.145,5.247-4.145,10.492c0,5.247,4.145,5.247,4.145,10.493
								c0,5.246-4.145,5.246-4.145,10.492c0,5.247,4.145,5.247,4.145,10.494s-4.145,5.247-4.145,10.494"/>
						</g>
						<g opacity="0.8952">
							<path fill="none" stroke="#096D52" stroke-width="2" stroke-miterlimit="10" d="M145.585-29.434
								c0,5.245-4.144,5.245-4.144,10.49c0,5.246,4.144,5.246,4.144,10.492s-4.144,5.246-4.144,10.491
								c0,5.246,4.144,5.246,4.144,10.491c0,5.246-4.144,5.246-4.144,10.492c0,5.245,4.144,5.245,4.144,10.491
								s-4.144,5.246-4.144,10.491c0,5.246,4.144,5.246,4.144,10.491c0,5.246-4.144,5.246-4.144,10.491s4.144,5.245,4.144,10.49
								c0,5.246-4.144,5.246-4.144,10.492c0,5.246,4.144,5.246,4.144,10.492c0,5.245-4.144,5.245-4.144,10.491
								c0,5.246,4.144,5.246,4.144,10.491c0,5.245-4.144,5.245-4.144,10.491s4.144,5.246,4.144,10.492
								c0,5.246-4.144,5.246-4.144,10.491c0,5.247,4.144,5.247,4.144,10.492c0,5.247-4.144,5.247-4.144,10.493
								s4.144,5.246,4.144,10.491c0,5.247-4.144,5.247-4.144,10.493s4.144,5.246,4.144,10.491c0,5.246-4.144,5.246-4.144,10.492
								c0,5.247,4.144,5.247,4.144,10.492c0,5.247-4.144,5.247-4.144,10.492c0,5.247,4.144,5.247,4.144,10.493
								c0,5.247-4.144,5.247-4.144,10.494"/>
						</g>
						<g opacity="0.9048">
							<path fill="none" stroke="#096D52" stroke-width="2" stroke-miterlimit="10" d="M168.978-31.777
								c0,5.245-4.146,5.245-4.146,10.49c0,5.246,4.146,5.246,4.146,10.491c0,5.246-4.146,5.246-4.146,10.492
								c0,5.245,4.146,5.245,4.146,10.491c0,5.245-4.146,5.245-4.146,10.491c0,5.246,4.146,5.246,4.146,10.491
								s-4.146,5.246-4.146,10.491c0,5.246,4.146,5.246,4.146,10.491c0,5.246-4.146,5.246-4.146,10.492
								c0,5.245,4.146,5.245,4.146,10.49c0,5.246-4.146,5.246-4.146,10.491c0,5.246,4.146,5.246,4.146,10.492
								c0,5.245-4.146,5.245-4.146,10.491s4.146,5.246,4.146,10.491c0,5.245-4.146,5.245-4.146,10.491
								c0,5.246,4.146,5.246,4.146,10.491c0,5.246-4.146,5.246-4.146,10.491c0,5.247,4.146,5.247,4.146,10.493
								s-4.146,5.246-4.146,10.492c0,5.247,4.146,5.247,4.146,10.492c0,5.247-4.146,5.247-4.146,10.493s4.146,5.246,4.146,10.491
								c0,5.246-4.146,5.246-4.146,10.492s4.146,5.246,4.146,10.492c0,5.247-4.146,5.247-4.146,10.492
								c0,5.247,4.146,5.247,4.146,10.493c0,5.247-4.146,5.247-4.146,10.494"/>
						</g>
						<g opacity="0.9143">
							<path fill="none" stroke="#096D52" stroke-width="2" stroke-miterlimit="10" d="M192.37-34.122
								c0,5.246-4.146,5.246-4.146,10.492c0,5.245,4.146,5.245,4.146,10.49s-4.146,5.245-4.146,10.491s4.146,5.246,4.146,10.491
								c0,5.246-4.146,5.246-4.146,10.492c0,5.246,4.146,5.246,4.146,10.491s-4.146,5.246-4.146,10.491
								c0,5.246,4.146,5.246,4.146,10.492s-4.146,5.246-4.146,10.492c0,5.245,4.146,5.245,4.146,10.489
								c0,5.246-4.146,5.246-4.146,10.491c0,5.246,4.146,5.246,4.146,10.492c0,5.245-4.146,5.245-4.146,10.491
								c0,5.245,4.146,5.245,4.146,10.491s-4.146,5.246-4.146,10.491c0,5.246,4.146,5.246,4.146,10.491
								c0,5.246-4.146,5.246-4.146,10.491c0,5.246,4.146,5.246,4.146,10.492c0,5.246-4.146,5.246-4.146,10.492
								c0,5.247,4.146,5.247,4.146,10.492c0,5.246-4.146,5.246-4.146,10.493c0,5.245,4.146,5.245,4.146,10.491
								s-4.146,5.246-4.146,10.493c0,5.245,4.146,5.245,4.146,10.492c0,5.246-4.146,5.246-4.146,10.492
								c0,5.248,4.146,5.248,4.146,10.494c0,5.246-4.146,5.246-4.146,10.493"/>
						</g>
						<g opacity="0.9238">
							<path fill="none" stroke="#096D52" stroke-width="2" stroke-miterlimit="10" d="M215.761-36.466
								c0,5.245-4.145,5.245-4.145,10.491c0,5.245,4.145,5.245,4.145,10.491c0,5.245-4.145,5.245-4.145,10.491
								c0,5.245,4.145,5.245,4.145,10.491c0,5.245-4.145,5.245-4.145,10.491s4.145,5.246,4.145,10.492s-4.145,5.246-4.145,10.491
								c0,5.246,4.145,5.246,4.145,10.491c0,5.246-4.145,5.246-4.145,10.492c0,5.245,4.145,5.245,4.145,10.49
								c0,5.246-4.145,5.246-4.145,10.491c0,5.246,4.145,5.246,4.145,10.493c0,5.245-4.145,5.245-4.145,10.491
								c0,5.245,4.145,5.245,4.145,10.491c0,5.245-4.145,5.245-4.145,10.491c0,5.246,4.145,5.246,4.145,10.491
								c0,5.246-4.145,5.246-4.145,10.492c0,5.245,4.145,5.245,4.145,10.491c0,5.246-4.145,5.246-4.145,10.492
								c0,5.246,4.145,5.246,4.145,10.492c0,5.246-4.145,5.246-4.145,10.492c0,5.246,4.145,5.246,4.145,10.491
								c0,5.246-4.145,5.246-4.145,10.492c0,5.246,4.145,5.246,4.145,10.492c0,5.246-4.145,5.246-4.145,10.492
								s4.145,5.247,4.145,10.493c0,5.246-4.145,5.246-4.145,10.493"/>
						</g>
						<g opacity="0.9333">
							<path fill="none" stroke="#096D52" stroke-width="2" stroke-miterlimit="10" d="M239.153-38.81
								c0,5.246-4.145,5.246-4.145,10.491s4.145,5.245,4.145,10.491c0,5.245-4.145,5.245-4.145,10.491
								c0,5.245,4.145,5.245,4.145,10.491s-4.145,5.246-4.145,10.491c0,5.246,4.145,5.246,4.145,10.492
								c0,5.245-4.145,5.245-4.145,10.49s4.145,5.245,4.145,10.492c0,5.246-4.145,5.246-4.145,10.491
								c0,5.245,4.145,5.245,4.145,10.491c0,5.245-4.145,5.245-4.145,10.491s4.145,5.246,4.145,10.492
								c0,5.246-4.145,5.246-4.145,10.491c0,5.246,4.145,5.246,4.145,10.491s-4.145,5.246-4.145,10.491
								c0,5.246,4.145,5.246,4.145,10.491c0,5.246-4.145,5.246-4.145,10.491c0,5.246,4.145,5.246,4.145,10.492
								s-4.145,5.246-4.145,10.492c0,5.246,4.145,5.246,4.145,10.492c0,5.246-4.145,5.246-4.145,10.493
								c0,5.246,4.145,5.246,4.145,10.492c0,5.246-4.145,5.246-4.145,10.492s4.145,5.246,4.145,10.492
								c0,5.246-4.145,5.246-4.145,10.493s4.145,5.247,4.145,10.493s-4.145,5.247-4.145,10.493"/>
						</g>
						<g opacity="0.9429">
							<path fill="none" stroke="#096D52" stroke-width="2" stroke-miterlimit="10" d="M262.545-41.153
								c0,5.245-4.145,5.245-4.145,10.491c0,5.245,4.145,5.245,4.145,10.491c0,5.245-4.145,5.245-4.145,10.491
								c0,5.245,4.145,5.245,4.145,10.491S258.4,6.058,258.4,11.303c0,5.246,4.145,5.246,4.145,10.492
								c0,5.245-4.145,5.245-4.145,10.49s4.145,5.245,4.145,10.491c0,5.247-4.145,5.247-4.145,10.492s4.145,5.245,4.145,10.49
								c0,5.246-4.145,5.246-4.145,10.491c0,5.246,4.145,5.246,4.145,10.492c0,5.246-4.145,5.246-4.145,10.491
								s4.145,5.246,4.145,10.491c0,5.246-4.145,5.246-4.145,10.491s4.145,5.246,4.145,10.492c0,5.245-4.145,5.245-4.145,10.491
								c0,5.246,4.145,5.246,4.145,10.491c0,5.246-4.145,5.246-4.145,10.492c0,5.246,4.145,5.246,4.145,10.493
								c0,5.246-4.145,5.246-4.145,10.491c0,5.247,4.145,5.247,4.145,10.493c0,5.246-4.145,5.246-4.145,10.491
								c0,5.247,4.145,5.247,4.145,10.492c0,5.246-4.145,5.246-4.145,10.492c0,5.247,4.145,5.247,4.145,10.494
								s-4.145,5.247-4.145,10.493"/>
						</g>
						<g opacity="0.9524">
							<path fill="none" stroke="#096D52" stroke-width="2" stroke-miterlimit="10" d="M285.937-43.498
								c0,5.245-4.146,5.245-4.146,10.491c0,5.245,4.146,5.245,4.146,10.491c0,5.245-4.146,5.245-4.146,10.491
								s4.146,5.246,4.146,10.491c0,5.246-4.146,5.246-4.146,10.491c0,5.246,4.146,5.246,4.146,10.491
								c0,5.246-4.146,5.246-4.146,10.492c0,5.245,4.146,5.245,4.146,10.491c0,5.245-4.146,5.245-4.146,10.491
								c0,5.245,4.146,5.245,4.146,10.49s-4.146,5.245-4.146,10.491s4.146,5.246,4.146,10.492c0,5.245-4.146,5.245-4.146,10.491
								c0,5.246,4.146,5.246,4.146,10.491c0,5.246-4.146,5.246-4.146,10.491s4.146,5.246,4.146,10.491
								c0,5.246-4.146,5.246-4.146,10.491c0,5.246,4.146,5.246,4.146,10.493c0,5.246-4.146,5.246-4.146,10.492
								c0,5.246,4.146,5.246,4.146,10.492s-4.146,5.246-4.146,10.492c0,5.246,4.146,5.246,4.146,10.492
								c0,5.245-4.146,5.245-4.146,10.492c0,5.246,4.146,5.246,4.146,10.492c0,5.247-4.146,5.247-4.146,10.492
								c0,5.247,4.146,5.247,4.146,10.494s-4.146,5.247-4.146,10.494"/>
						</g>
						<g opacity="0.9619">
							<path fill="none" stroke="#096D52" stroke-width="2" stroke-miterlimit="10" d="M309.328-45.841
								c0,5.246-4.145,5.246-4.145,10.491c0,5.245,4.145,5.245,4.145,10.491c0,5.246-4.145,5.246-4.145,10.491
								c0,5.246,4.145,5.246,4.145,10.491c0,5.246-4.145,5.246-4.145,10.491c0,5.246,4.145,5.246,4.145,10.492
								c0,5.245-4.145,5.245-4.145,10.491c0,5.245,4.145,5.245,4.145,10.491c0,5.245-4.145,5.245-4.145,10.491
								c0,5.244,4.145,5.244,4.145,10.49c0,5.245-4.145,5.245-4.145,10.491c0,5.246,4.145,5.246,4.145,10.492
								s-4.145,5.246-4.145,10.491c0,5.246,4.145,5.246,4.145,10.491s-4.145,5.246-4.145,10.491s4.145,5.246,4.145,10.491
								s-4.145,5.246-4.145,10.491s4.145,5.246,4.145,10.492c0,5.246-4.145,5.246-4.145,10.492c0,5.246,4.145,5.246,4.145,10.492
								s-4.145,5.246-4.145,10.492c0,5.246,4.145,5.246,4.145,10.492c0,5.245-4.145,5.245-4.145,10.492s4.145,5.247,4.145,10.493
								c0,5.246-4.145,5.246-4.145,10.492c0,5.247,4.145,5.247,4.145,10.494c0,5.247-4.145,5.247-4.145,10.493"/>
						</g>
						<g opacity="0.9714">
							<path fill="none" stroke="#096D52" stroke-width="2" stroke-miterlimit="10" d="M332.72-48.185
								c0,5.245-4.145,5.245-4.145,10.491c0,5.246,4.145,5.246,4.145,10.491c0,5.246-4.145,5.246-4.145,10.491
								c0,5.246,4.145,5.246,4.145,10.492s-4.145,5.246-4.145,10.491c0,5.246,4.145,5.246,4.145,10.492
								c0,5.245-4.145,5.245-4.145,10.49c0,5.246,4.145,5.246,4.145,10.491c0,5.246-4.145,5.246-4.145,10.491
								c0,5.246,4.145,5.246,4.145,10.491c0,5.244-4.145,5.244-4.145,10.491c0,5.246,4.145,5.246,4.145,10.491
								s-4.145,5.246-4.145,10.491c0,5.246,4.145,5.246,4.145,10.491c0,5.246-4.145,5.246-4.145,10.491
								c0,5.246,4.145,5.246,4.145,10.491c0,5.246-4.145,5.246-4.145,10.492c0,5.246,4.145,5.246,4.145,10.491
								c0,5.246-4.145,5.246-4.145,10.493c0,5.246,4.145,5.246,4.145,10.491c0,5.247-4.145,5.247-4.145,10.492
								c0,5.247,4.145,5.247,4.145,10.492c0,5.246-4.145,5.246-4.145,10.492c0,5.246,4.145,5.246,4.145,10.492
								c0,5.246-4.145,5.246-4.145,10.492s4.145,5.247,4.145,10.494c0,5.247-4.145,5.247-4.145,10.493"/>
						</g>
					</g>
				</g>
				<g>
					<defs>
						<rect id="SVGID_183_" x="-43.957" y="-1" width="398.331" height="224.061"/>
					</defs>
					<clipPath id="SVGID_6_">
						<use xlink:href="#SVGID_183_"  overflow="visible"/>
					</clipPath>
					<g clip-path="url(#SVGID_6_)">
						<g opacity="0.8381">
							<path fill="none" stroke="#4B987E" stroke-width="2" stroke-miterlimit="10" d="M17.462-31.996
								c0,5.246-4.145,5.246-4.145,10.492c0,5.245,4.145,5.245,4.145,10.49c0,5.246-4.145,5.246-4.145,10.491
								c0,5.247,4.145,5.247,4.145,10.492c0,5.245-4.145,5.245-4.145,10.491c0,5.246,4.145,5.246,4.145,10.492
								s-4.145,5.246-4.145,10.491c0,5.246,4.145,5.246,4.145,10.492c0,5.245-4.145,5.245-4.145,10.491
								c0,5.245,4.145,5.245,4.145,10.49c0,5.245-4.145,5.245-4.145,10.49c0,5.246,4.145,5.246,4.145,10.492
								c0,5.245-4.145,5.245-4.145,10.491c0,5.245,4.145,5.245,4.145,10.491c0,5.245-4.145,5.245-4.145,10.491
								c0,5.246,4.145,5.246,4.145,10.491s-4.145,5.245-4.145,10.491c0,5.247,4.145,5.247,4.145,10.493
								c0,5.245-4.145,5.245-4.145,10.491c0,5.247,4.145,5.247,4.145,10.493c0,5.246-4.145,5.246-4.145,10.492
								s4.145,5.246,4.145,10.492s-4.145,5.246-4.145,10.492c0,5.246,4.145,5.246,4.145,10.492s-4.145,5.246-4.145,10.492
								c0,5.246,4.145,5.246,4.145,10.493s-4.145,5.247-4.145,10.494"/>
						</g>
						<g opacity="0.8476">
							<path fill="none" stroke="#4B987E" stroke-width="2" stroke-miterlimit="10" d="M40.855-30.316
								c0,5.245-4.146,5.245-4.146,10.491c0,5.245,4.146,5.245,4.146,10.491s-4.146,5.246-4.146,10.491
								c0,5.246,4.146,5.246,4.146,10.491s-4.146,5.246-4.146,10.491s4.146,5.246,4.146,10.492c0,5.245-4.146,5.245-4.146,10.491
								c0,5.245,4.146,5.245,4.146,10.491s-4.146,5.246-4.146,10.491c0,5.246,4.146,5.246,4.146,10.49
								c0,5.246-4.146,5.246-4.146,10.491c0,5.246,4.146,5.246,4.146,10.491c0,5.246-4.146,5.246-4.146,10.491
								c0,5.246,4.146,5.246,4.146,10.491c0,5.246-4.146,5.246-4.146,10.492c0,5.245,4.146,5.245,4.146,10.491
								c0,5.245-4.146,5.245-4.146,10.491s4.146,5.246,4.146,10.491c0,5.247-4.146,5.247-4.146,10.493
								c0,5.246,4.146,5.246,4.146,10.491c0,5.247-4.146,5.247-4.146,10.492c0,5.246,4.146,5.246,4.146,10.492
								c0,5.247-4.146,5.247-4.146,10.492c0,5.247,4.146,5.247,4.146,10.493c0,5.246-4.146,5.246-4.146,10.492
								c0,5.247,4.146,5.247,4.146,10.494s-4.146,5.247-4.146,10.493"/>
						</g>
						<g opacity="0.8571">
							<path fill="none" stroke="#4B987E" stroke-width="2" stroke-miterlimit="10" d="M64.247-28.638
								c0,5.246-4.146,5.246-4.146,10.491c0,5.246,4.146,5.246,4.146,10.491c0,5.246-4.146,5.246-4.146,10.491
								c0,5.246,4.146,5.246,4.146,10.492c0,5.245-4.146,5.245-4.146,10.49c0,5.246,4.146,5.246,4.146,10.492
								c0,5.246-4.146,5.246-4.146,10.491c0,5.246,4.146,5.246,4.146,10.491c0,5.246-4.146,5.246-4.146,10.491
								c0,5.246,4.146,5.246,4.146,10.491c0,5.246-4.146,5.246-4.146,10.491c0,5.246,4.146,5.246,4.146,10.492
								c0,5.245-4.146,5.245-4.146,10.491c0,5.245,4.146,5.245,4.146,10.491c0,5.245-4.146,5.245-4.146,10.491
								c0,5.246,4.146,5.246,4.146,10.491c0,5.245-4.146,5.245-4.146,10.491c0,5.247,4.146,5.247,4.146,10.492
								c0,5.246-4.146,5.246-4.146,10.492c0,5.247,4.146,5.247,4.146,10.492c0,5.246-4.146,5.246-4.146,10.493
								c0,5.245,4.146,5.245,4.146,10.492c0,5.246-4.146,5.246-4.146,10.491c0,5.246,4.146,5.246,4.146,10.493
								c0,5.246-4.146,5.246-4.146,10.492c0,5.247,4.146,5.247,4.146,10.493s-4.146,5.247-4.146,10.493"/>
						</g>
						<g opacity="0.8667">
							<path fill="none" stroke="#4B987E" stroke-width="2" stroke-miterlimit="10" d="M87.638-26.957
								c0,5.245-4.145,5.245-4.145,10.49s4.145,5.245,4.145,10.491c0,5.245-4.145,5.245-4.145,10.491s4.145,5.246,4.145,10.491
								c0,5.246-4.145,5.246-4.145,10.491c0,5.246,4.145,5.246,4.145,10.491c0,5.246-4.145,5.246-4.145,10.492
								c0,5.245,4.145,5.245,4.145,10.491c0,5.245-4.145,5.245-4.145,10.491c0,5.245,4.145,5.245,4.145,10.49
								s-4.145,5.245-4.145,10.491s4.145,5.246,4.145,10.492c0,5.245-4.145,5.245-4.145,10.491c0,5.246,4.145,5.246,4.145,10.491
								c0,5.246-4.145,5.246-4.145,10.491c0,5.246,4.145,5.246,4.145,10.491c0,5.246-4.145,5.246-4.145,10.492
								s4.145,5.246,4.145,10.492s-4.145,5.246-4.145,10.492c0,5.246,4.145,5.246,4.145,10.492c0,5.247-4.145,5.247-4.145,10.492
								c0,5.247,4.145,5.247,4.145,10.492c0,5.246-4.145,5.246-4.145,10.492c0,5.247,4.145,5.247,4.145,10.493
								c0,5.246-4.145,5.246-4.145,10.491c0,5.247,4.145,5.247,4.145,10.494c0,5.247-4.145,5.247-4.145,10.494"/>
						</g>
						<g opacity="0.8762">
							<path fill="none" stroke="#4B987E" stroke-width="2" stroke-miterlimit="10" d="M111.03-25.278
								c0,5.246-4.145,5.246-4.145,10.491c0,5.246,4.145,5.246,4.145,10.491s-4.145,5.245-4.145,10.49
								c0,5.246,4.145,5.246,4.145,10.492c0,5.245-4.145,5.245-4.145,10.491c0,5.245,4.145,5.245,4.145,10.491
								s-4.145,5.246-4.145,10.491c0,5.246,4.145,5.246,4.145,10.491c0,5.246-4.145,5.246-4.145,10.491
								c0,5.246,4.145,5.246,4.145,10.491c0,5.246-4.145,5.246-4.145,10.491c0,5.246,4.145,5.246,4.145,10.492
								c0,5.245-4.145,5.245-4.145,10.491c0,5.245,4.145,5.245,4.145,10.492c0,5.245-4.145,5.245-4.145,10.491
								c0,5.245,4.145,5.245,4.145,10.491c0,5.245-4.145,5.245-4.145,10.491s4.145,5.246,4.145,10.492
								c0,5.246-4.145,5.246-4.145,10.493c0,5.245,4.145,5.245,4.145,10.492c0,5.246-4.145,5.246-4.145,10.492
								c0,5.245,4.145,5.245,4.145,10.492c0,5.246-4.145,5.246-4.145,10.491c0,5.246,4.145,5.246,4.145,10.493
								c0,5.245-4.145,5.245-4.145,10.492s4.145,5.247,4.145,10.493s-4.145,5.247-4.145,10.494"/>
						</g>
						<g opacity="0.8857">
							<path fill="none" stroke="#4B987E" stroke-width="2" stroke-miterlimit="10" d="M134.422-23.599
								c0,5.245-4.146,5.245-4.146,10.491c0,5.245,4.146,5.245,4.146,10.491c0,5.246-4.146,5.246-4.146,10.491
								c0,5.246,4.146,5.246,4.146,10.491c0,5.247-4.146,5.247-4.146,10.492s4.146,5.245,4.146,10.491
								c0,5.245-4.146,5.245-4.146,10.491c0,5.245,4.146,5.245,4.146,10.491c0,5.246-4.146,5.246-4.146,10.492
								c0,5.246,4.146,5.246,4.146,10.491c0,5.245-4.146,5.245-4.146,10.49s4.146,5.246,4.146,10.492
								c0,5.245-4.146,5.245-4.146,10.49s4.146,5.246,4.146,10.492c0,5.246-4.146,5.246-4.146,10.491
								c0,5.246,4.146,5.246,4.146,10.491c0,5.246-4.146,5.246-4.146,10.492c0,5.245,4.146,5.245,4.146,10.492
								c0,5.246-4.146,5.246-4.146,10.492c0,5.246,4.146,5.246,4.146,10.492c0,5.246-4.146,5.246-4.146,10.492
								s4.146,5.246,4.146,10.492c0,5.246-4.146,5.246-4.146,10.492c0,5.247,4.146,5.247,4.146,10.492
								c0,5.247-4.146,5.247-4.146,10.493c0,5.247,4.146,5.247,4.146,10.493c0,5.246-4.146,5.246-4.146,10.493"/>
						</g>
						<g opacity="0.8952">
							<path fill="none" stroke="#4B987E" stroke-width="2" stroke-miterlimit="10" d="M157.814-21.92
								c0,5.246-4.146,5.246-4.146,10.491c0,5.246,4.146,5.246,4.146,10.491s-4.146,5.246-4.146,10.491
								c0,5.246,4.146,5.246,4.146,10.493c0,5.245-4.146,5.245-4.146,10.49c0,5.246,4.146,5.246,4.146,10.492
								c0,5.245-4.146,5.245-4.146,10.49c0,5.246,4.146,5.246,4.146,10.491c0,5.246-4.146,5.246-4.146,10.491
								c0,5.246,4.146,5.246,4.146,10.491c0,5.246-4.146,5.246-4.146,10.491c0,5.246,4.146,5.246,4.146,10.492
								c0,5.245-4.146,5.245-4.146,10.491c0,5.245,4.146,5.245,4.146,10.491c0,5.245-4.146,5.245-4.146,10.491
								s4.146,5.246,4.146,10.491c0,5.245-4.146,5.245-4.146,10.491s4.146,5.246,4.146,10.492c0,5.247-4.146,5.247-4.146,10.493
								c0,5.245,4.146,5.245,4.146,10.491c0,5.247-4.146,5.247-4.146,10.493c0,5.245,4.146,5.245,4.146,10.491
								c0,5.247-4.146,5.247-4.146,10.492s4.146,5.246,4.146,10.492c0,5.247-4.146,5.247-4.146,10.493
								c0,5.247,4.146,5.247,4.146,10.493s-4.146,5.247-4.146,10.494"/>
						</g>
						<g opacity="0.9048">
							<path fill="none" stroke="#4B987E" stroke-width="2" stroke-miterlimit="10" d="M181.205-20.241
								c0,5.246-4.146,5.246-4.146,10.491c0,5.246,4.146,5.246,4.146,10.491s-4.146,5.246-4.146,10.491s4.146,5.246,4.146,10.492
								c0,5.246-4.146,5.246-4.146,10.491c0,5.246,4.146,5.246,4.146,10.491c0,5.246-4.146,5.246-4.146,10.492
								s4.146,5.246,4.146,10.491c0,5.246-4.146,5.246-4.146,10.492c0,5.245,4.146,5.245,4.146,10.49
								c0,5.246-4.146,5.246-4.146,10.491c0,5.247,4.146,5.247,4.146,10.492c0,5.246-4.146,5.246-4.146,10.491
								c0,5.246,4.146,5.246,4.146,10.492c0,5.245-4.146,5.245-4.146,10.491c0,5.245,4.146,5.245,4.146,10.491
								s-4.146,5.246-4.146,10.491c0,5.246,4.146,5.246,4.146,10.493c0,5.245-4.146,5.245-4.146,10.492
								c0,5.246,4.146,5.246,4.146,10.492c0,5.246-4.146,5.246-4.146,10.492s4.146,5.246,4.146,10.492s-4.146,5.246-4.146,10.492
								c0,5.246,4.146,5.246,4.146,10.492c0,5.246-4.146,5.246-4.146,10.492s4.146,5.246,4.146,10.493
								c0,5.248-4.146,5.248-4.146,10.494"/>
						</g>
						<g opacity="0.9143">
							<path fill="none" stroke="#4B987E" stroke-width="2" stroke-miterlimit="10" d="M204.597-18.561
								c0,5.245-4.144,5.245-4.144,10.491c0,5.245,4.144,5.245,4.144,10.491c0,5.246-4.144,5.246-4.144,10.491
								c0,5.246,4.144,5.246,4.144,10.491c0,5.246-4.144,5.246-4.144,10.491c0,5.246,4.144,5.246,4.144,10.492
								c0,5.246-4.144,5.246-4.144,10.491c0,5.246,4.144,5.246,4.144,10.492s-4.144,5.246-4.144,10.491
								c0,5.245,4.144,5.245,4.144,10.49c0,5.246-4.144,5.246-4.144,10.491s4.144,5.245,4.144,10.491
								c0,5.246-4.144,5.246-4.144,10.491c0,5.246,4.144,5.246,4.144,10.491c0,5.246-4.144,5.246-4.144,10.491
								c0,5.246,4.144,5.246,4.144,10.492c0,5.245-4.144,5.245-4.144,10.491c0,5.247,4.144,5.247,4.144,10.492
								c0,5.247-4.144,5.247-4.144,10.493c0,5.246,4.144,5.246,4.144,10.492s-4.144,5.246-4.144,10.492
								c0,5.246,4.144,5.246,4.144,10.492c0,5.246-4.144,5.246-4.144,10.492s4.144,5.246,4.144,10.493
								c0,5.245-4.144,5.245-4.144,10.492s4.144,5.247,4.144,10.493c0,5.247-4.144,5.247-4.144,10.494"/>
						</g>
						<g opacity="0.9238">
							<path fill="none" stroke="#4B987E" stroke-width="2" stroke-miterlimit="10" d="M227.989-16.882
								c0,5.246-4.145,5.246-4.145,10.491c0,5.246,4.145,5.246,4.145,10.492c0,5.245-4.145,5.245-4.145,10.491
								s4.145,5.246,4.145,10.492c0,5.245-4.145,5.245-4.145,10.491c0,5.246,4.145,5.246,4.145,10.491
								c0,5.246-4.145,5.246-4.145,10.491c0,5.246,4.145,5.246,4.145,10.492c0,5.246-4.145,5.246-4.145,10.491
								c0,5.245,4.145,5.245,4.145,10.491c0,5.245-4.145,5.245-4.145,10.491c0,5.245,4.145,5.245,4.145,10.491
								c0,5.245-4.145,5.245-4.145,10.491c0,5.246,4.145,5.246,4.145,10.491s-4.145,5.245-4.145,10.491
								c0,5.246,4.145,5.246,4.145,10.492c0,5.246-4.145,5.246-4.145,10.491c0,5.247,4.145,5.247,4.145,10.492
								c0,5.247-4.145,5.247-4.145,10.492c0,5.247,4.145,5.247,4.145,10.492c0,5.246-4.145,5.246-4.145,10.492
								s4.145,5.246,4.145,10.491c0,5.246-4.145,5.246-4.145,10.492c0,5.247,4.145,5.247,4.145,10.492
								c0,5.246-4.145,5.246-4.145,10.493c0,5.246,4.145,5.246,4.145,10.493c0,5.246-4.145,5.246-4.145,10.493"/>
						</g>
						<g opacity="0.9333">
							<path fill="none" stroke="#4B987E" stroke-width="2" stroke-miterlimit="10" d="M251.381-15.202
								c0,5.245-4.146,5.245-4.146,10.491c0,5.245,4.146,5.245,4.146,10.491c0,5.245-4.146,5.245-4.146,10.49
								c0,5.247,4.146,5.247,4.146,10.492s-4.146,5.246-4.146,10.491c0,5.246,4.146,5.246,4.146,10.492
								c0,5.245-4.146,5.245-4.146,10.491s4.146,5.246,4.146,10.491c0,5.246-4.146,5.246-4.146,10.491
								c0,5.246,4.146,5.246,4.146,10.491s-4.146,5.245-4.146,10.491c0,5.246,4.146,5.246,4.146,10.492s-4.146,5.246-4.146,10.491
								c0,5.246,4.146,5.246,4.146,10.491c0,5.246-4.146,5.246-4.146,10.491c0,5.246,4.146,5.246,4.146,10.492
								c0,5.245-4.146,5.245-4.146,10.491c0,5.246,4.146,5.246,4.146,10.492c0,5.246-4.146,5.246-4.146,10.492
								c0,5.246,4.146,5.246,4.146,10.492s-4.146,5.246-4.146,10.492c0,5.246,4.146,5.246,4.146,10.492
								c0,5.246-4.146,5.246-4.146,10.491c0,5.247,4.146,5.247,4.146,10.492c0,5.246-4.146,5.246-4.146,10.492
								c0,5.247,4.146,5.247,4.146,10.494c0,5.247-4.146,5.247-4.146,10.493"/>
						</g>
						<g opacity="0.9429">
							<path fill="none" stroke="#4B987E" stroke-width="2" stroke-miterlimit="10" d="M274.773-13.523
								c0,5.246-4.146,5.246-4.146,10.491c0,5.246,4.146,5.246,4.146,10.491s-4.146,5.245-4.146,10.491s4.146,5.246,4.146,10.491
								c0,5.246-4.146,5.246-4.146,10.491c0,5.247,4.146,5.247,4.146,10.492c0,5.246-4.146,5.246-4.146,10.491
								c0,5.246,4.146,5.246,4.146,10.491c0,5.246-4.146,5.246-4.146,10.491s4.146,5.246,4.146,10.491s-4.146,5.245-4.146,10.49
								c0,5.246,4.146,5.246,4.146,10.492c0,5.245-4.146,5.245-4.146,10.491c0,5.245,4.146,5.245,4.146,10.491
								c0,5.245-4.146,5.245-4.146,10.491c0,5.245,4.146,5.245,4.146,10.491c0,5.245-4.146,5.245-4.146,10.491
								s4.146,5.246,4.146,10.493c0,5.245-4.146,5.245-4.146,10.492s4.146,5.247,4.146,10.492c0,5.246-4.146,5.246-4.146,10.492
								s4.146,5.246,4.146,10.492s-4.146,5.246-4.146,10.492c0,5.246,4.146,5.246,4.146,10.492s-4.146,5.246-4.146,10.492
								c0,5.247,4.146,5.247,4.146,10.493c0,5.248-4.146,5.248-4.146,10.494"/>
						</g>
						<g opacity="0.9524">
							<path fill="none" stroke="#4B987E" stroke-width="2" stroke-miterlimit="10" d="M298.164-11.844
								c0,5.245-4.145,5.245-4.145,10.491s4.145,5.246,4.145,10.491s-4.145,5.245-4.145,10.491s4.145,5.246,4.145,10.491
								c0,5.246-4.145,5.246-4.145,10.491c0,5.246,4.145,5.246,4.145,10.492c0,5.245-4.145,5.245-4.145,10.491
								s4.145,5.246,4.145,10.491c0,5.246-4.145,5.246-4.145,10.491s4.145,5.245,4.145,10.491c0,5.245-4.145,5.245-4.145,10.491
								c0,5.245,4.145,5.245,4.145,10.491c0,5.245-4.145,5.245-4.145,10.491c0,5.246,4.145,5.246,4.145,10.491
								c0,5.246-4.145,5.246-4.145,10.491c0,5.246,4.145,5.246,4.145,10.491c0,5.246-4.145,5.246-4.145,10.491
								c0,5.246,4.145,5.246,4.145,10.492s-4.145,5.246-4.145,10.492s4.145,5.246,4.145,10.492c0,5.247-4.145,5.247-4.145,10.493
								c0,5.246,4.145,5.246,4.145,10.492c0,5.246-4.145,5.246-4.145,10.492s4.145,5.246,4.145,10.493
								c0,5.245-4.145,5.245-4.145,10.491c0,5.247,4.145,5.247,4.145,10.494s-4.145,5.247-4.145,10.493"/>
						</g>
						<g opacity="0.9619">
							<path fill="none" stroke="#4B987E" stroke-width="2" stroke-miterlimit="10" d="M321.555-10.165
								c0,5.246-4.145,5.246-4.145,10.492c0,5.245,4.145,5.245,4.145,10.49c0,5.246-4.145,5.246-4.145,10.491
								c0,5.246,4.145,5.246,4.145,10.491c0,5.246-4.145,5.246-4.145,10.492c0,5.245,4.145,5.245,4.145,10.491
								c0,5.245-4.145,5.245-4.145,10.491s4.145,5.246,4.145,10.491c0,5.246-4.145,5.246-4.145,10.491s4.145,5.246,4.145,10.49
								c0,5.246-4.145,5.246-4.145,10.491c0,5.246,4.145,5.246,4.145,10.492c0,5.245-4.145,5.245-4.145,10.49
								c0,5.246,4.145,5.246,4.145,10.492c0,5.246-4.145,5.246-4.145,10.491c0,5.246,4.145,5.246,4.145,10.491
								s-4.145,5.246-4.145,10.492c0,5.246,4.145,5.246,4.145,10.492s-4.145,5.246-4.145,10.492s4.145,5.246,4.145,10.492
								c0,5.246-4.145,5.246-4.145,10.492c0,5.246,4.145,5.246,4.145,10.492c0,5.246-4.145,5.246-4.145,10.492
								c0,5.246,4.145,5.246,4.145,10.492c0,5.246-4.145,5.246-4.145,10.492c0,5.247,4.145,5.247,4.145,10.493
								c0,5.247-4.145,5.247-4.145,10.494"/>
						</g>
						<g opacity="0.9714">
							<path fill="none" stroke="#4B987E" stroke-width="2" stroke-miterlimit="10" d="M344.948-8.485
								c0,5.246-4.146,5.246-4.146,10.491s4.146,5.246,4.146,10.491c0,5.245-4.146,5.245-4.146,10.491
								c0,5.245,4.146,5.245,4.146,10.491s-4.146,5.246-4.146,10.491c0,5.246,4.146,5.246,4.146,10.492
								c0,5.245-4.146,5.245-4.146,10.491s4.146,5.246,4.146,10.491c0,5.246-4.146,5.246-4.146,10.491
								c0,5.245,4.146,5.245,4.146,10.491c0,5.245-4.146,5.245-4.146,10.491c0,5.245,4.146,5.245,4.146,10.492
								c0,5.245-4.146,5.245-4.146,10.491c0,5.246,4.146,5.246,4.146,10.491c0,5.246-4.146,5.246-4.146,10.491
								s4.146,5.246,4.146,10.491s-4.146,5.246-4.146,10.491c0,5.247,4.146,5.247,4.146,10.492c0,5.247-4.146,5.247-4.146,10.492
								c0,5.247,4.146,5.247,4.146,10.492c0,5.246-4.146,5.246-4.146,10.492s4.146,5.246,4.146,10.491
								c0,5.246-4.146,5.246-4.146,10.492c0,5.246,4.146,5.246,4.146,10.492s-4.146,5.247-4.146,10.492
								c0,5.247,4.146,5.247,4.146,10.495c0,5.247-4.146,5.247-4.146,10.493"/>
						</g>
					</g>
				</g>
			</g>
		</g>
	</g>
	<g>
		<g>
			<path fill="#F4E8D1" d="M79.52,53.808h-2.503l-1.732-4.924h-7.641l-1.732,4.924h-2.385l6.431-17.667h3.133L79.52,53.808z
				 M74.56,46.867l-3.097-8.674l-3.108,8.674H74.56z"/>
			<path fill="#F4E8D1" d="M94.001,41.48c0,0.783-0.136,1.509-0.409,2.177c-0.273,0.669-0.655,1.248-1.145,1.738
				c-0.609,0.609-1.329,1.066-2.16,1.371c-0.831,0.305-1.878,0.457-3.144,0.457h-2.35v6.585h-2.349V36.141h4.793
				c1.06,0,1.958,0.089,2.693,0.267c0.736,0.178,1.388,0.457,1.958,0.836c0.672,0.451,1.192,1.013,1.56,1.685
				C93.817,39.602,94.001,40.452,94.001,41.48z M91.557,41.54c0-0.609-0.106-1.139-0.32-1.59c-0.213-0.451-0.538-0.818-0.973-1.103
				c-0.38-0.245-0.813-0.421-1.299-0.528c-0.486-0.106-1.102-0.16-1.845-0.16h-2.326v7.06h1.982c0.949,0,1.72-0.085,2.313-0.255
				c0.593-0.17,1.076-0.441,1.448-0.813c0.372-0.38,0.635-0.779,0.789-1.199C91.479,42.532,91.557,42.062,91.557,41.54z"/>
			<path fill="#F4E8D1" d="M108.897,41.48c0,0.783-0.136,1.509-0.409,2.177c-0.273,0.669-0.655,1.248-1.145,1.738
				c-0.609,0.609-1.329,1.066-2.16,1.371c-0.831,0.305-1.878,0.457-3.144,0.457h-2.35v6.585h-2.349V36.141h4.793
				c1.06,0,1.958,0.089,2.693,0.267c0.736,0.178,1.388,0.457,1.958,0.836c0.672,0.451,1.192,1.013,1.56,1.685
				C108.714,39.602,108.897,40.452,108.897,41.48z M106.453,41.54c0-0.609-0.106-1.139-0.32-1.59
				c-0.213-0.451-0.538-0.818-0.973-1.103c-0.38-0.245-0.813-0.421-1.299-0.528c-0.486-0.106-1.102-0.16-1.845-0.16H99.69v7.06
				h1.982c0.949,0,1.72-0.085,2.313-0.255c0.593-0.17,1.076-0.441,1.448-0.813c0.372-0.38,0.635-0.779,0.789-1.199
				C106.376,42.532,106.453,42.062,106.453,41.54z"/>
			<path fill="#F4E8D1" d="M128.854,35.346l-8.507,22.069h-2.053l8.472-22.069H128.854z"/>
			<path fill="#F4E8D1" d="M161.649,36.141l-4.592,17.667h-2.646l-3.714-14.666l-3.631,14.666h-2.586l-4.675-17.667h2.408
				l3.714,14.689l3.655-14.689h2.385l3.69,14.832l3.69-14.832H161.649z"/>
			<path fill="#F4E8D1" d="M176.997,53.808h-11.64V36.141h11.64v2.088h-9.291v4.841h9.291v2.088h-9.291v6.562h9.291V53.808z"/>
			<path fill="#F4E8D1" d="M194.29,48.374c0,0.878-0.166,1.653-0.499,2.325c-0.332,0.673-0.779,1.227-1.341,1.661
				c-0.664,0.522-1.394,0.894-2.189,1.115c-0.795,0.222-1.806,0.333-3.032,0.333h-6.265V36.141h5.232
				c1.29,0,2.254,0.048,2.896,0.143c0.641,0.095,1.253,0.293,1.839,0.593c0.648,0.34,1.119,0.777,1.412,1.311
				c0.292,0.534,0.439,1.173,0.439,1.916c0,0.839-0.214,1.553-0.641,2.142c-0.427,0.589-0.997,1.062-1.709,1.417v0.095
				c1.194,0.245,2.136,0.769,2.824,1.572C193.946,46.133,194.29,47.148,194.29,48.374z M190.339,40.412
				c0-0.427-0.071-0.787-0.213-1.08c-0.143-0.292-0.372-0.53-0.688-0.712c-0.372-0.213-0.823-0.346-1.353-0.397
				c-0.53-0.051-1.187-0.077-1.97-0.077h-2.8v5.102h3.038c0.736,0,1.321-0.038,1.756-0.113c0.435-0.075,0.838-0.231,1.21-0.469
				s0.635-0.543,0.789-0.919C190.262,41.372,190.339,40.927,190.339,40.412z M191.846,48.469c0-0.712-0.107-1.277-0.32-1.697
				c-0.213-0.419-0.601-0.775-1.163-1.068c-0.38-0.198-0.841-0.326-1.382-0.386c-0.542-0.059-1.201-0.089-1.976-0.089h-3.69v6.573
				h3.109c1.028,0,1.871-0.053,2.527-0.16c0.656-0.106,1.194-0.303,1.614-0.587c0.443-0.309,0.767-0.661,0.973-1.056
				S191.846,49.094,191.846,48.469z"/>
			<path fill="#F4E8D1" d="M221.58,44.992c0,1.606-0.35,3.062-1.05,4.366c-0.7,1.306-1.631,2.318-2.794,3.038
				c-0.807,0.499-1.707,0.858-2.699,1.08c-0.993,0.222-2.3,0.333-3.921,0.333h-4.461V36.141h4.414c1.724,0,3.095,0.125,4.111,0.374
				c1.016,0.249,1.876,0.591,2.581,1.026c1.202,0.751,2.14,1.752,2.812,3.002S221.58,43.276,221.58,44.992z M219.124,44.957
				c0-1.384-0.241-2.551-0.724-3.5s-1.203-1.697-2.16-2.243c-0.696-0.396-1.436-0.67-2.219-0.825s-1.72-0.231-2.812-0.231h-2.207
				v13.633h2.207c1.131,0,2.118-0.083,2.96-0.249s1.616-0.475,2.32-0.926c0.878-0.562,1.537-1.301,1.976-2.219
				C218.904,47.48,219.124,46.333,219.124,44.957z"/>
			<path fill="#F4E8D1" d="M236.536,47.413h-9.765c0,0.815,0.123,1.525,0.368,2.13s0.582,1.102,1.009,1.489
				c0.411,0.379,0.9,0.665,1.465,0.854c0.565,0.19,1.188,0.285,1.869,0.285c0.902,0,1.81-0.18,2.723-0.54s1.564-0.714,1.952-1.062
				h0.119v2.432c-0.751,0.317-1.519,0.582-2.302,0.795c-0.783,0.213-1.606,0.32-2.468,0.32c-2.199,0-3.916-0.595-5.149-1.786
				c-1.234-1.19-1.851-2.881-1.851-5.072c0-2.167,0.591-3.888,1.774-5.162c1.182-1.273,2.739-1.911,4.669-1.911
				c1.788,0,3.166,0.522,4.135,1.566s1.454,2.527,1.454,4.45V47.413z M234.364,45.704c-0.008-1.17-0.303-2.076-0.884-2.717
				c-0.582-0.641-1.465-0.961-2.652-0.961c-1.195,0-2.146,0.352-2.854,1.056c-0.708,0.704-1.109,1.578-1.205,2.622H234.364z"/>
			<path fill="#F4E8D1" d="M249.629,49.987c0,1.21-0.5,2.203-1.501,2.979c-1.001,0.775-2.367,1.163-4.1,1.163
				c-0.981,0-1.88-0.117-2.699-0.35s-1.505-0.488-2.059-0.765V50.51h0.119c0.704,0.53,1.487,0.951,2.349,1.264
				s1.689,0.469,2.48,0.469c0.981,0,1.748-0.158,2.302-0.475s0.831-0.815,0.831-1.495c0-0.522-0.15-0.918-0.451-1.187
				c-0.301-0.269-0.878-0.499-1.732-0.688c-0.316-0.071-0.729-0.154-1.24-0.249s-0.975-0.198-1.394-0.309
				c-1.163-0.309-1.988-0.761-2.474-1.358s-0.73-1.331-0.73-2.201c0-0.546,0.113-1.06,0.338-1.542
				c0.226-0.482,0.567-0.914,1.026-1.293c0.443-0.372,1.006-0.666,1.691-0.884c0.684-0.217,1.449-0.326,2.296-0.326
				c0.791,0,1.592,0.097,2.403,0.291c0.811,0.194,1.485,0.429,2.023,0.706v2.385h-0.119c-0.57-0.419-1.262-0.773-2.077-1.062
				c-0.815-0.289-1.614-0.433-2.396-0.433c-0.815,0-1.503,0.156-2.065,0.468c-0.562,0.313-0.842,0.777-0.842,1.394
				c0,0.546,0.17,0.958,0.51,1.234c0.332,0.277,0.87,0.502,1.614,0.676c0.411,0.095,0.872,0.19,1.382,0.285s0.935,0.182,1.275,0.261
				c1.036,0.237,1.835,0.645,2.397,1.222C249.348,48.248,249.629,49.022,249.629,49.987z"/>
			<path fill="#F4E8D1" d="M255.46,38.336h-2.516v-2.314h2.516V38.336z M255.317,53.808h-2.23V40.555h2.23V53.808z"/>
			<path fill="#F4E8D1" d="M270.725,52.301c0,2.247-0.51,3.896-1.53,4.948c-1.021,1.052-2.591,1.578-4.71,1.578
				c-0.705,0-1.391-0.05-2.059-0.148s-1.327-0.239-1.975-0.421v-2.278h0.118c0.364,0.143,0.941,0.318,1.732,0.528
				s1.582,0.314,2.373,0.314c0.759,0,1.388-0.091,1.887-0.273c0.499-0.182,0.886-0.435,1.163-0.759
				c0.277-0.309,0.475-0.68,0.593-1.115s0.178-0.921,0.178-1.459v-1.21c-0.672,0.538-1.315,0.939-1.928,1.204
				s-1.394,0.397-2.343,0.397c-1.582,0-2.838-0.571-3.767-1.715c-0.93-1.143-1.395-2.754-1.395-4.835
				c0-1.139,0.16-2.122,0.481-2.948c0.32-0.827,0.757-1.541,1.311-2.142c0.514-0.562,1.139-0.999,1.875-1.312
				c0.736-0.312,1.467-0.469,2.195-0.469c0.767,0,1.41,0.077,1.928,0.231s1.066,0.39,1.644,0.706l0.142-0.569h2.088V52.301z
				 M268.494,50.166v-7.226c-0.593-0.269-1.145-0.46-1.655-0.575s-1.019-0.172-1.525-0.172c-1.226,0-2.191,0.412-2.895,1.234
				c-0.704,0.823-1.056,2.018-1.056,3.583c0,1.487,0.261,2.615,0.783,3.381c0.522,0.768,1.389,1.151,2.599,1.151
				c0.648,0,1.299-0.125,1.952-0.374C267.349,50.919,267.948,50.585,268.494,50.166z"/>
			<path fill="#F4E8D1" d="M286.44,53.808h-2.231v-7.546c0-0.609-0.036-1.181-0.106-1.714c-0.071-0.534-0.202-0.951-0.392-1.252
				c-0.198-0.332-0.483-0.579-0.854-0.742c-0.372-0.162-0.854-0.243-1.448-0.243c-0.609,0-1.246,0.15-1.91,0.451
				s-1.301,0.684-1.91,1.151v9.896h-2.23V40.555h2.23v1.471c0.696-0.577,1.416-1.028,2.159-1.353
				c0.744-0.324,1.507-0.487,2.29-0.487c1.432,0,2.523,0.432,3.275,1.293c0.751,0.862,1.127,2.104,1.127,3.726V53.808z"/>
		</g>
	</g>
</g>
<g>
	<g>
		<defs>
			<rect id="SVGID_185_" x="-4.375" y="125" width="358.75" height="82"/>
		</defs>
		<clipPath id="SVGID_8_">
			<use xlink:href="#SVGID_185_"  overflow="visible"/>
		</clipPath>
		<g id="圖層_1_16_" clip-path="url(#SVGID_8_)">
			<g>
				<g>
					<defs>
						<rect id="SVGID_197_" x="-5.222" y="123.292" width="361.305" height="203.398"/>
					</defs>
					<clipPath id="SVGID_10_">
						<use xlink:href="#SVGID_197_"  overflow="visible"/>
					</clipPath>
					<path opacity="0.2" clip-path="url(#SVGID_10_)" fill="#C12B35" enable-background="new    " d="M-40.01,128.403
						c-13.865,40.971-14.877,87.047-9.604,129.904c2.53,20.551,2.936,38.127,12.518,55.074c4.359,7.708,9.088,16.583,15.222,21.828
						c10.13,8.661,7.029,18.359,18.176,24.543c15.963,8.856,47.895,9.964,63.938,18.49c16.219,8.617,35.87,7.027,53.352,8.751
						c24.688,2.433,101.517-2.374,126.329-3.077c15.032-0.427,30.023-4.104,45.011-4.245c6.677-0.063,13.813,2.115,20.415-0.112
						c0.793-11.177-7.985-15.604-11.149-26.926c-6.145-21.985-148.254-34.994-162.223-39.407
						c-28.406-8.975-60.27-15.279-79.107-46.341c-16.958-27.964-37.378-72.342-37.906-106.965
						c-0.267-17.507,12.234-52.218,1.567-63.698C-32.403,43.553-35.091,113.873-40.01,128.403z"/>
					<path opacity="0.2" clip-path="url(#SVGID_10_)" fill="#D13C3D" enable-background="new    " d="M142.974,408.079
						c-26.572,15.586-58.178,18.663-88.314,15.364c-14.449-1.582-26.601-1.193-39.404-9.927
						c-5.824-3.974-12.494-8.261-16.832-14.104c-7.164-9.65-13.476-6.14-19.054-16.911c-7.987-15.423-12.532-47.021-20.302-62.538
						c-7.855-15.688-9.087-35.236-12.343-52.484c-4.6-24.36-10.388-100.724-12.841-125.347c-1.487-14.918-0.729-29.942-2.407-44.803
						c-0.749-6.621-3.092-13.595-2.341-20.239c7.602-1.291,11.69,7.211,19.86,9.838c15.867,5.102,41.653,145.366,46.346,159.011
						c9.543,27.75,17.657,59.046,41.277,76.319c21.265,15.55,54.241,33.79,78.143,32.754c12.087-0.522,34.509-14.474,43.676-4.419
						C200.5,396.72,152.397,402.551,142.974,408.079z"/>
				</g>
			</g>
		</g>
	</g>
</g>
<g>
	<g>
		<defs>
			<rect id="SVGID_209_" x="-4.375" y="509" width="358.75" height="82"/>
		</defs>
		<clipPath id="SVGID_12_">
			<use xlink:href="#SVGID_209_"  overflow="visible"/>
		</clipPath>
		<g clip-path="url(#SVGID_12_)">
			<defs>
				<rect id="SVGID_211_" x="-30.81" y="487.006" width="433.536" height="149.028"/>
			</defs>
			<clipPath id="SVGID_14_">
				<use xlink:href="#SVGID_211_"  overflow="visible"/>
			</clipPath>
			<rect x="-492.739" y="-119.251" clip-path="url(#SVGID_14_)" fill="#C16926" width="1358.748" height="764.914"/>
		</g>
	</g>
</g>
</svg>
