<?xml version="1.0" encoding="utf-8"?>
<!-- Generator: Adobe Illustrator 16.0.0, SVG Export Plug-In . SVG Version: 6.00 Build 0)  -->
<!DOCTYPE svg PUBLIC "-//W3C//DTD SVG 1.1//EN" "http://www.w3.org/Graphics/SVG/1.1/DTD/svg11.dtd">
<svg version="1.1" id="圖層_1" xmlns="http://www.w3.org/2000/svg" xmlns:xlink="http://www.w3.org/1999/xlink" x="0px" y="0px"
	 width="640px" height="1096px" viewBox="0 0 640 1096" enable-background="new 0 0 640 1096" xml:space="preserve">
<g>
	<defs>
		<rect id="SVGID_5_" x="-801" y="-1" width="642" height="1098"/>
	</defs>
	<clipPath id="SVGID_2_">
		<use xlink:href="#SVGID_5_"  overflow="visible"/>
	</clipPath>
	<g clip-path="url(#SVGID_2_)">
		<rect x="-1080.775" y="-38.892" fill="#F7D793" width="2040.888" height="1148.927"/>
		<g>
			<g>
				<defs>
					<polygon id="SVGID_7_" points="-2049.872,-190.392 -8.984,-190.392 -1.186,1152.166 -2042.073,1152.166 					"/>
				</defs>
				<clipPath id="SVGID_4_">
					<use xlink:href="#SVGID_7_"  overflow="visible"/>
				</clipPath>
				<path opacity="0.9" clip-path="url(#SVGID_4_)" fill="#F6DA97" enable-background="new    " d="M-265.714-309.088
					c16.336,54.113,43.252,104.764,68.397,155.973c48.779,99.34,94.556,196.858,157.5,287.88
					c58.033,83.912,98.45,177.797,143.548,269.645c32.607,66.404,73.356,127.832,106.102,193.74
					c24.365,49.039,46.502,93.582,14.981,149.941c-20.401,36.484-46.653,76.641-72.659,109.965
					c-21.17,27.129-44.359,53.713-66.603,80.135c-30.501,36.23-60.585,52.15-102.606,73.744
					c-104.082,53.49-201.81,109.332-316.088,131.785c-65.045,12.777-101.362,15.77-157.679-11.447
					c-69.061-33.381-139.843-78.166-177.487-143.779c-45.752-79.744-74.968-164.736-85.599-258.055
					c-6.037-52.967-5.63-105.549-9.099-158.148c-7.226-109.602-35.702-208.35-68.385-310.516
					c-27.305-85.377-34.631-190.604,14.93-278.199c52.328-92.487,142.736-167.387,240.602-212.752
					c54.672-25.343,104.055-42.706,162.707-52.776c30.349-5.213,104.914-38.589,131.24-21.213L-265.714-309.088z"/>
			</g>
			<g>
				<defs>
					<polygon id="SVGID_9_" points="-2049.872,-190.392 -8.984,-190.392 -32.991,1110.035 -2073.879,1110.035 					"/>
				</defs>
				<clipPath id="SVGID_6_">
					<use xlink:href="#SVGID_9_"  overflow="visible"/>
				</clipPath>
				<path clip-path="url(#SVGID_6_)" fill="#F4D08A" d="M-1300.572-816.388c75.614,14.174,154.305,16.145,232.455,20.147
					c151.605,7.763,298.996,17.431,450.337,6.81c139.52-9.799,278.93,3.062,419.099,10.24c101.344,5.189,202.297-0.3,303.142,4.479
					c75.035,3.556,143.192,6.778,188.892,68.708c29.585,40.085,59.568,87.898,81.568,131.678
					c17.912,35.639,33.803,72.937,50.142,109.226c22.411,49.759,20.893,87.838,18.01,140.665
					c-7.136,130.852-7.138,256.836-58.205,380.358c-29.065,70.31-50.23,107.265-121.021,146.878
					c-86.813,48.576-188.386,92.492-292.215,92.637c-126.189,0.178-247.375-18.627-365.824-60.117
					c-67.235-23.551-129.621-53.146-194.668-78.984c-135.536-53.842-272.61-81.005-416.621-105.985
					c-120.344-20.875-250.734-72.188-321.373-169c-74.582-102.213-102.275-231.664-89.691-351.964
					c7.029-67.205,19.966-124.836,47.906-187.428c14.457-32.389,25.459-123.386,64.095-139.318L-1300.572-816.388z"/>
			</g>
			<g>
				<defs>
					<polygon id="SVGID_11_" points="-2049.872,-190.392 -8.984,-190.392 -14.978,1132.498 -2055.865,1132.498 					"/>
				</defs>
				<clipPath id="SVGID_8_">
					<use xlink:href="#SVGID_11_"  overflow="visible"/>
				</clipPath>
				<path clip-path="url(#SVGID_8_)" fill="#E89021" d="M-1165.564-659.237c60.782,11.393,124.044,12.977,186.867,16.194
					c121.871,6.24,240.355,14.012,362.019,5.472c112.156-7.875,224.226,2.462,336.906,8.231c81.469,4.17,162.622-0.24,243.688,3.603
					c60.322,2.856,115.111,5.445,151.852,55.232c23.781,32.223,47.883,70.659,65.571,105.852
					c14.403,28.651,27.173,58.636,40.309,87.809c18.013,39.999,16.793,70.608,14.477,113.076
					c-5.734,105.19-5.737,206.465-46.788,305.768c-23.371,56.521-40.384,86.227-97.293,118.068
					c-69.779,39.051-151.437,74.355-234.906,74.473c-101.446,0.143-198.859-14.977-294.08-48.328
					c-54.051-18.93-104.203-42.725-156.493-63.496c-108.952-43.279-219.143-65.117-334.911-85.197
					c-96.744-16.781-201.561-58.034-258.349-135.857c-59.958-82.167-82.22-186.232-72.101-282.94
					c5.651-54.025,16.049-100.352,38.509-150.671c11.627-26.038,20.47-99.189,51.527-111.996L-1165.564-659.237z"/>
			</g>
			<g>
				<defs>
					<polygon id="SVGID_13_" points="-2049.872,-190.392 -8.984,-190.392 -13.887,1132.498 -2054.774,1132.498 					"/>
				</defs>
				<clipPath id="SVGID_10_">
					<use xlink:href="#SVGID_13_"  overflow="visible"/>
				</clipPath>
				<path opacity="0.2" clip-path="url(#SVGID_10_)" fill="#EED697" enable-background="new    " d="M-1186.696-98.335
					c56.788,77.824,161.605,119.078,258.351,135.857c115.767,20.08,225.957,41.919,334.911,85.198
					c52.29,20.771,102.442,44.564,156.493,63.494c95.219,33.354,192.634,48.471,294.08,48.328
					c83.468-0.115,165.125-35.42,234.904-74.471c56.911-31.844,73.924-61.55,97.293-118.069
					C103.925-25.852-78.715,25.117-231.621,65.467c-142.182,37.521-450.228,16.99-665.517-108.126
					c-144.69-84.087-132.291-233.191-288.03-255.028c-88.41-12.396-106.186,36.15-55.566,92.513
					C-1228.482-167.319-1210.594-131.084-1186.696-98.335z"/>
			</g>
		</g>
	</g>
</g>
<g>
	<defs>
		<rect id="SVGID_27_" x="799" width="642" height="1098"/>
	</defs>
	<clipPath id="SVGID_12_">
		<use xlink:href="#SVGID_27_"  overflow="visible"/>
	</clipPath>
	<g id="圖層_1_10_" clip-path="url(#SVGID_12_)">
		<polygon fill="#D13C3D" points="-170.151,-6.156 1450.395,-6.156 1474.398,1115.521 -146.147,1115.521 		"/>
		<g>
			<g>
				<defs>
					<polygon id="SVGID_29_" points="-169.309,-7 1451.238,-7 1475.242,1114.679 -145.305,1114.679 					"/>
				</defs>
				<clipPath id="SVGID_14_">
					<use xlink:href="#SVGID_29_"  overflow="visible"/>
				</clipPath>
				<path opacity="0.2" clip-path="url(#SVGID_14_)" fill="#C12B35" enable-background="new    " d="M488.83,286.63
					c-39.374,147.82-28.023,308.787,6.254,456.261c16.436,70.714,23.788,131.833,65.944,187.435
					c19.178,25.293,75.984,215.293,101.119,231.36c41.508,26.528,32.876,61.452,77.454,78.98
					c63.828,25.093,150.195-143.363,214.221-119.449c64.73,24.18,139.178,11.532,206.448,11.22
					c94.998-0.439,386.547-44.964,480.98-56.386c57.215-6.919,113.196-25.157,170.334-31.063c25.453-2.634,53.4,2.38,77.857-7.77
					c-0.66-39.243,0.217,109.277-15.595,70.958c-30.708-74.412-577.21-68.388-631.962-78.72
					c-111.343-21.015-278.224-110.348-360.354-211.807c-73.94-91.341-91.563-356.563-105.011-477.048
					c-6.801-60.933-38.111-150.422-82.593-186.578C489.835-11.868,502.794,234.206,488.83,286.63z"/>
				<path opacity="0.3" clip-path="url(#SVGID_14_)" fill="#C12B35" enable-background="new    " d="M1300.03,1186.321
					c-96.23,63.929-215.809,86.082-331.878,85.475c-55.656-0.291-101.89,5.458-153.624-20.362
					c-23.532-11.745-50.397-24.275-68.879-43.075c-30.521-31.045-53.44-16.529-78.282-52.058
					c64.245,91.882,29.256-22.812-98.11-210.643c-35.153-51.842-46.303-119.531-64.425-178.477
					c-25.594-83.244-72.894-347.325-90.385-432.261c-10.601-51.463-12.671-104.104-23.979-155.294
					c-5.037-22.806-16.286-46.271-15.613-69.7c28.578-7.247,46.986,20.908,79.026,27.113
					c62.223,12.047,206.921,491.625,229.334,537.489c45.573,93.274,122.701,360.207,218.524,411.874
					c86.265,46.516,218.106,98.172,308.962,85.927c45.948-6.196,126.888-62.924,165.184-31.197
					C1551.596,1286.718,1334.159,1163.645,1300.03,1186.321z"/>
			</g>
		</g>
	</g>
</g>
<g>
	<defs>
		<rect id="SVGID_215_" x="-1" width="642" height="1098"/>
	</defs>
	<clipPath id="SVGID_16_">
		<use xlink:href="#SVGID_215_"  overflow="visible"/>
	</clipPath>
	<g id="圖層_1_9_" clip-path="url(#SVGID_16_)">
		<rect x="-1269.057" y="-9.5" fill="#208567" width="1984.174" height="1117"/>
		<g opacity="0.3" enable-background="new    ">
			<g>
				<defs>
					<rect id="SVGID_217_" x="-672.086" y="-148.07" width="1984.174" height="1394.141"/>
				</defs>
				<clipPath id="SVGID_18_">
					<use xlink:href="#SVGID_217_"  overflow="visible"/>
				</clipPath>
				<g clip-path="url(#SVGID_18_)">
					<g opacity="0.8286">
						<path fill="none" stroke="#096D52" stroke-width="5" stroke-miterlimit="10" d="M35.647-182.314
							c0,24.036-15.205,24.036-15.205,48.073s15.205,24.037,15.205,48.073c0,24.037-15.205,24.037-15.205,48.073
							c0,24.037,15.205,24.037,15.205,48.076c0,24.037-15.205,24.037-15.205,48.072c0,24.037,15.205,24.037,15.205,48.074
							c0,24.036-15.205,24.036-15.205,48.074s15.205,24.038,15.205,48.074s-15.205,24.037-15.205,48.074
							c0,24.034,15.205,24.034,15.205,48.069c0,24.036-15.205,24.036-15.205,48.072c0,24.038,15.205,24.038,15.205,48.077
							c0,24.036-15.205,24.036-15.205,48.072c0,24.038,15.205,24.038,15.205,48.074c0,24.036-15.205,24.036-15.205,48.072
							c0,24.037,15.205,24.037,15.205,48.073s-15.205,24.037-15.205,48.074c0,24.04,15.205,24.04,15.205,48.078
							c0,24.039-15.205,24.039-15.205,48.079c0,24.038,15.205,24.038,15.205,48.075c0,24.039-15.205,24.039-15.205,48.079
							c0,24.038,15.205,24.038,15.205,48.074c0,24.039-15.205,24.039-15.205,48.077c0,24.039,15.205,24.039,15.205,48.079
							c0,24.039-15.205,24.039-15.205,48.078c0,24.042,15.205,24.042,15.205,48.083c0,24.042-15.205,24.042-15.205,48.084"/>
					</g>
					<g opacity="0.8381">
						<path fill="none" stroke="#096D52" stroke-width="5" stroke-miterlimit="10" d="M146.696-182.314
							c0,24.036-15.207,24.036-15.207,48.074c0,24.035,15.207,24.035,15.207,48.072c0,24.037-15.207,24.037-15.207,48.073
							c0,24.037,15.207,24.037,15.207,48.075c0,24.037-15.207,24.037-15.207,48.073c0,24.038,15.207,24.038,15.207,48.075
							c0,24.036-15.207,24.036-15.207,48.073c0,24.038,15.207,24.038,15.207,48.074c0,24.037-15.207,24.037-15.207,48.074
							c0,24.036,15.207,24.036,15.207,48.071c0,24.035-15.207,24.035-15.207,48.071c0,24.038,15.207,24.038,15.207,48.075
							c0,24.036-15.207,24.036-15.207,48.072c0,24.038,15.207,24.038,15.207,48.074c0,24.036-15.207,24.036-15.207,48.072
							c0,24.037,15.207,24.037,15.207,48.073s-15.207,24.037-15.207,48.075c0,24.039,15.207,24.039,15.207,48.077
							c0,24.038-15.207,24.038-15.207,48.077c0,24.038,15.207,24.038,15.207,48.076c0,24.041-15.207,24.041-15.207,48.079
							s15.207,24.038,15.207,48.077c0,24.037-15.207,24.037-15.207,48.075c0,24.038,15.207,24.038,15.207,48.079
							c0,24.038-15.207,24.038-15.207,48.076c0,24.042,15.207,24.042,15.207,48.083c0,24.042-15.207,24.042-15.207,48.084"/>
					</g>
					<g opacity="0.8476">
						<path fill="none" stroke="#096D52" stroke-width="5" stroke-miterlimit="10" d="M257.745-182.314
							c0,24.038-15.207,24.038-15.207,48.074s15.207,24.037,15.207,48.073s-15.207,24.036-15.207,48.073
							c0,24.038,15.207,24.038,15.207,48.075c0,24.036-15.207,24.036-15.207,48.074c0,24.038,15.207,24.038,15.207,48.073
							c0,24.036-15.207,24.036-15.207,48.074c0,24.039,15.207,24.039,15.207,48.075s-15.207,24.036-15.207,48.074
							c0,24.035,15.207,24.035,15.207,48.07c0,24.035-15.207,24.035-15.207,48.071c0,24.038,15.207,24.038,15.207,48.077
							c0,24.036-15.207,24.036-15.207,48.071c0,24.037,15.207,24.037,15.207,48.073c0,24.038-15.207,24.038-15.207,48.072
							c0,24.037,15.207,24.037,15.207,48.073c0,24.038-15.207,24.038-15.207,48.076c0,24.038,15.207,24.038,15.207,48.076
							c0,24.039-15.207,24.039-15.207,48.078c0,24.037,15.207,24.037,15.207,48.076c0,24.038-15.207,24.038-15.207,48.079
							c0,24.037,15.207,24.037,15.207,48.076c0,24.038-15.207,24.038-15.207,48.075c0,24.039,15.207,24.039,15.207,48.079
							c0,24.039-15.207,24.039-15.207,48.078c0,24.041,15.207,24.041,15.207,48.083c0,24.041-15.207,24.041-15.207,48.084"/>
					</g>
					<g opacity="0.8952">
						<path fill="none" stroke="#096D52" stroke-width="5" stroke-miterlimit="10" d="M91.172-182.314
							c0,24.036-15.206,24.036-15.206,48.073c0,24.035,15.206,24.035,15.206,48.072c0,24.037-15.206,24.037-15.206,48.072
							c0,24.037,15.206,24.037,15.206,48.075c0,24.038-15.206,24.038-15.206,48.074c0,24.037,15.206,24.037,15.206,48.074
							c0,24.038-15.206,24.038-15.206,48.075s15.206,24.037,15.206,48.074c0,24.037-15.206,24.037-15.206,48.073
							c0,24.034,15.206,24.034,15.206,48.068c0,24.036-15.206,24.036-15.206,48.073c0,24.038,15.206,24.038,15.206,48.076
							c0,24.035-15.206,24.035-15.206,48.071c0,24.037,15.206,24.037,15.206,48.073c0,24.037-15.206,24.037-15.206,48.073
							c0,24.037,15.206,24.037,15.206,48.073s-15.206,24.037-15.206,48.074c0,24.039,15.206,24.039,15.206,48.077
							c0,24.04-15.206,24.04-15.206,48.079c0,24.038,15.206,24.038,15.206,48.075c0,24.04-15.206,24.04-15.206,48.078
							c0,24.038,15.206,24.038,15.206,48.075c0,24.04-15.206,24.04-15.206,48.078c0,24.04,15.206,24.04,15.206,48.078
							c0,24.039-15.206,24.039-15.206,48.077c0,24.042,15.206,24.042,15.206,48.083c0,24.043-15.206,24.043-15.206,48.084"/>
					</g>
					<g opacity="0.9048">
						<path fill="none" stroke="#096D52" stroke-width="5" stroke-miterlimit="10" d="M202.22-182.314
							c0,24.036-15.205,24.036-15.205,48.073c0,24.036,15.205,24.036,15.205,48.072s-15.205,24.037-15.205,48.074
							S202.22-14.058,202.22,9.981c0,24.035-15.205,24.035-15.205,48.074c0,24.037,15.205,24.037,15.205,48.074
							c0,24.036-15.205,24.036-15.205,48.072c0,24.038,15.205,24.038,15.205,48.074c0,24.037-15.205,24.037-15.205,48.074
							c0,24.036,15.205,24.036,15.205,48.07c0,24.035-15.205,24.035-15.205,48.071c0,24.038,15.205,24.038,15.205,48.076
							c0,24.036-15.205,24.036-15.205,48.073c0,24.037,15.205,24.037,15.205,48.074c0,24.036-15.205,24.036-15.205,48.071
							c0,24.036,15.205,24.036,15.205,48.073s-15.205,24.037-15.205,48.074c0,24.039,15.205,24.039,15.205,48.078
							c0,24.038-15.205,24.038-15.205,48.078c0,24.038,15.205,24.038,15.205,48.075c0,24.04-15.205,24.04-15.205,48.079
							c0,24.038,15.205,24.038,15.205,48.076c0,24.038-15.205,24.038-15.205,48.077c0,24.04,15.205,24.04,15.205,48.078
							c0,24.039-15.205,24.039-15.205,48.077c0,24.042,15.205,24.042,15.205,48.085c0,24.042-15.205,24.042-15.205,48.083"/>
					</g>
					<g opacity="0.9143">
						<path fill="none" stroke="#096D52" stroke-width="5" stroke-miterlimit="10" d="M313.269-182.314
							c0,24.036-15.205,24.036-15.205,48.073c0,24.036,15.205,24.036,15.205,48.073c0,24.037-15.205,24.037-15.205,48.072
							c0,24.036,15.205,24.036,15.205,48.076c0,24.037-15.205,24.037-15.205,48.074c0,24.037,15.205,24.037,15.205,48.074
							c0,24.037-15.205,24.037-15.205,48.072c0,24.038,15.205,24.038,15.205,48.075s-15.205,24.038-15.205,48.075
							c0,24.034,15.205,24.034,15.205,48.069c0,24.035-15.205,24.035-15.205,48.07c0,24.04,15.205,24.04,15.205,48.077
							c0,24.036-15.205,24.036-15.205,48.072c0,24.038,15.205,24.038,15.205,48.075c0,24.036-15.205,24.036-15.205,48.072
							c0,24.037,15.205,24.037,15.205,48.072c0,24.037-15.205,24.037-15.205,48.074c0,24.039,15.205,24.039,15.205,48.077
							c0,24.039-15.205,24.039-15.205,48.077s15.205,24.039,15.205,48.077c0,24.039-15.205,24.039-15.205,48.077
							c0,24.039,15.205,24.039,15.205,48.076c0,24.037-15.205,24.037-15.205,48.077c0,24.039,15.205,24.039,15.205,48.079
							c0,24.038-15.205,24.038-15.205,48.078c0,24.042,15.205,24.042,15.205,48.083c0,24.042-15.205,24.042-15.205,48.084"/>
					</g>
					<g opacity="0.9238">
						<path fill="none" stroke="#096D52" stroke-width="5" stroke-miterlimit="10" d="M424.318-182.314
							c0,24.036-15.207,24.036-15.207,48.073c0,24.035,15.207,24.035,15.207,48.073c0,24.036-15.207,24.036-15.207,48.072
							c0,24.038,15.207,24.038,15.207,48.075c0,24.037-15.207,24.037-15.207,48.073c0,24.038,15.207,24.038,15.207,48.075
							c0,24.037-15.207,24.037-15.207,48.074c0,24.037,15.207,24.037,15.207,48.073c0,24.037-15.207,24.037-15.207,48.075
							c0,24.034,15.207,24.034,15.207,48.068c0,24.036-15.207,24.036-15.207,48.071c0,24.038,15.207,24.038,15.207,48.077
							c0,24.036-15.207,24.036-15.207,48.072c0,24.038,15.207,24.038,15.207,48.074c0,24.036-15.207,24.036-15.207,48.072
							c0,24.037,15.207,24.037,15.207,48.073c0,24.038-15.207,24.038-15.207,48.075c0,24.039,15.207,24.039,15.207,48.077
							c0,24.039-15.207,24.039-15.207,48.079c0,24.038,15.207,24.038,15.207,48.076c0,24.039-15.207,24.039-15.207,48.078
							c0,24.038,15.207,24.038,15.207,48.078c0,24.038-15.207,24.038-15.207,48.075c0,24.039,15.207,24.039,15.207,48.078
							c0,24.038-15.207,24.038-15.207,48.076c0,24.042,15.207,24.042,15.207,48.083c0,24.042-15.207,24.042-15.207,48.084"/>
					</g>
					<g opacity="0.9333">
						<path fill="none" stroke="#096D52" stroke-width="5" stroke-miterlimit="10" d="M535.366-182.314
							c0,24.036-15.205,24.036-15.205,48.073c0,24.036,15.205,24.036,15.205,48.073c0,24.037-15.205,24.037-15.205,48.073
							c0,24.038,15.205,24.038,15.205,48.076c0,24.036-15.205,24.036-15.205,48.074c0,24.038,15.205,24.038,15.205,48.074
							c0,24.036-15.205,24.036-15.205,48.073c0,24.037,15.205,24.037,15.205,48.073c0,24.037-15.205,24.037-15.205,48.076
							c0,24.035,15.205,24.035,15.205,48.067c0,24.036-15.205,24.036-15.205,48.072c0,24.039,15.205,24.039,15.205,48.077
							c0,24.036-15.205,24.036-15.205,48.071c0,24.037,15.205,24.037,15.205,48.076c0,24.035-15.205,24.035-15.205,48.07
							c0,24.038,15.205,24.038,15.205,48.074c0,24.037-15.205,24.037-15.205,48.074c0,24.039,15.205,24.039,15.205,48.077
							c0,24.041-15.205,24.041-15.205,48.079s15.205,24.038,15.205,48.075c0,24.04-15.205,24.04-15.205,48.078
							c0,24.038,15.205,24.038,15.205,48.077c0,24.037-15.205,24.037-15.205,48.076s15.205,24.039,15.205,48.078
							c0,24.038-15.205,24.038-15.205,48.077c0,24.041,15.205,24.041,15.205,48.083c0,24.042-15.205,24.042-15.205,48.084"/>
					</g>
					<g opacity="0.9429">
						<path fill="none" stroke="#096D52" stroke-width="5" stroke-miterlimit="10" d="M590.89-182.314
							c0,24.036-15.205,24.036-15.205,48.073c0,24.035,15.205,24.035,15.205,48.072c0,24.037-15.205,24.037-15.205,48.073
							c0,24.037,15.205,24.037,15.205,48.075c0,24.037-15.205,24.037-15.205,48.073c0,24.038,15.205,24.038,15.205,48.075
							c0,24.037-15.205,24.037-15.205,48.073c0,24.037,15.205,24.037,15.205,48.074c0,24.039-15.205,24.039-15.205,48.076
							c0,24.034,15.205,24.034,15.205,48.068s-15.205,24.035-15.205,48.071c0,24.038,15.205,24.038,15.205,48.076
							c0,24.037-15.205,24.037-15.205,48.072c0,24.037,15.205,24.037,15.205,48.073c0,24.036-15.205,24.036-15.205,48.073
							c0,24.037,15.205,24.037,15.205,48.073c0,24.039-15.205,24.039-15.205,48.075c0,24.039,15.205,24.039,15.205,48.076
							c0,24.039-15.205,24.039-15.205,48.078c0,24.037,15.205,24.037,15.205,48.076c0,24.038-15.205,24.038-15.205,48.077
							c0,24.039,15.205,24.039,15.205,48.078c0,24.038-15.205,24.038-15.205,48.075c0,24.039,15.205,24.039,15.205,48.079
							c0,24.039-15.205,24.039-15.205,48.078c0,24.042,15.205,24.042,15.205,48.083c0,24.042-15.205,24.042-15.205,48.084"/>
					</g>
					<g opacity="0.9524">
						<path fill="none" stroke="#096D52" stroke-width="5" stroke-miterlimit="10" d="M646.416-182.314
							c0,24.036-15.207,24.036-15.207,48.073c0,24.036,15.207,24.036,15.207,48.073s-15.207,24.037-15.207,48.074
							c0,24.037,15.207,24.037,15.207,48.075c0,24.037-15.207,24.037-15.207,48.073c0,24.037,15.207,24.037,15.207,48.074
							s-15.207,24.037-15.207,48.074c0,24.038,15.207,24.038,15.207,48.074c0,24.037-15.207,24.037-15.207,48.074
							c0,24.035,15.207,24.035,15.207,48.07s-15.207,24.035-15.207,48.071c0,24.038,15.207,24.038,15.207,48.077
							c0,24.035-15.207,24.035-15.207,48.071s15.207,24.036,15.207,48.073c0,24.036-15.207,24.036-15.207,48.072
							c0,24.037,15.207,24.037,15.207,48.074c0,24.038-15.207,24.038-15.207,48.076c0,24.039,15.207,24.039,15.207,48.078
							c0,24.039-15.207,24.039-15.207,48.078c0,24.038,15.207,24.038,15.207,48.075c0,24.04-15.207,24.04-15.207,48.078
							s15.207,24.039,15.207,48.076s-15.207,24.038-15.207,48.076c0,24.04,15.207,24.04,15.207,48.078
							c0,24.04-15.207,24.04-15.207,48.077c0,24.042,15.207,24.042,15.207,48.083c0,24.042-15.207,24.042-15.207,48.084"/>
					</g>
					<g opacity="0.9714">
						<path fill="none" stroke="#096D52" stroke-width="5" stroke-miterlimit="10" d="M479.842-182.314
							c0,24.036-15.206,24.036-15.206,48.073c0,24.036,15.206,24.036,15.206,48.073c0,24.037-15.206,24.037-15.206,48.072
							c0,24.037,15.206,24.037,15.206,48.076c0,24.037-15.206,24.037-15.206,48.072c0,24.038,15.206,24.038,15.206,48.074
							c0,24.037-15.206,24.037-15.206,48.074c0,24.038,15.206,24.038,15.206,48.074c0,24.038-15.206,24.038-15.206,48.075
							c0,24.034,15.206,24.034,15.206,48.069c0,24.036-15.206,24.036-15.206,48.071c0,24.037,15.206,24.037,15.206,48.075
							c0,24.036-15.206,24.036-15.206,48.071c0,24.037,15.206,24.037,15.206,48.075c0,24.036-15.206,24.036-15.206,48.072
							c0,24.038,15.206,24.038,15.206,48.073c0,24.037-15.206,24.037-15.206,48.075c0,24.04,15.206,24.04,15.206,48.077
							c0,24.039-15.206,24.039-15.206,48.079c0,24.038,15.206,24.038,15.206,48.075c0,24.04-15.206,24.04-15.206,48.079
							c0,24.04,15.206,24.04,15.206,48.076c0,24.037-15.206,24.037-15.206,48.076c0,24.038,15.206,24.038,15.206,48.078
							c0,24.038-15.206,24.038-15.206,48.077c0,24.042,15.206,24.042,15.206,48.084c0,24.042-15.206,24.042-15.206,48.085"/>
					</g>
					<g opacity="0.981">
						<path fill="none" stroke="#096D52" stroke-width="5" stroke-miterlimit="10" d="M368.793-182.314
							c0,24.038-15.207,24.038-15.207,48.073c0,24.037,15.207,24.037,15.207,48.073c0,24.037-15.207,24.037-15.207,48.073
							s15.207,24.036,15.207,48.075c0,24.037-15.207,24.037-15.207,48.072c0,24.038,15.207,24.038,15.207,48.074
							c0,24.037-15.207,24.037-15.207,48.075c0,24.037,15.207,24.037,15.207,48.075c0,24.037-15.207,24.037-15.207,48.073
							c0,24.036,15.207,24.036,15.207,48.068c0,24.036-15.207,24.036-15.207,48.071c0,24.037,15.207,24.037,15.207,48.077
							c0,24.035-15.207,24.035-15.207,48.071s15.207,24.036,15.207,48.073c0,24.036-15.207,24.036-15.207,48.072
							c0,24.038,15.207,24.038,15.207,48.075c0,24.037-15.207,24.037-15.207,48.074c0,24.039,15.207,24.039,15.207,48.078
							s-15.207,24.039-15.207,48.078c0,24.038,15.207,24.038,15.207,48.076c0,24.04-15.207,24.04-15.207,48.079
							c0,24.038,15.207,24.038,15.207,48.076s-15.207,24.038-15.207,48.076c0,24.04,15.207,24.04,15.207,48.078
							c0,24.039-15.207,24.039-15.207,48.078c0,24.042,15.207,24.042,15.207,48.083c0,24.041-15.207,24.041-15.207,48.084"/>
					</g>
				</g>
				<g clip-path="url(#SVGID_18_)">
					<g opacity="0.8286">
						<path fill="none" stroke="#4B987E" stroke-width="5" stroke-miterlimit="10" d="M62.84-193.674
							c0,24.036-15.205,24.036-15.205,48.073S62.84-121.563,62.84-97.527c0,24.037-15.205,24.037-15.205,48.073
							c0,24.037,15.205,24.037,15.205,48.076c0,24.037-15.205,24.037-15.205,48.072c0,24.037,15.205,24.037,15.205,48.074
							c0,24.036-15.205,24.036-15.205,48.074s15.205,24.038,15.205,48.074s-15.205,24.037-15.205,48.074
							c0,24.034,15.205,24.034,15.205,48.069c0,24.036-15.205,24.036-15.205,48.072c0,24.038,15.205,24.038,15.205,48.077
							c0,24.036-15.205,24.036-15.205,48.072c0,24.038,15.205,24.038,15.205,48.074c0,24.036-15.205,24.036-15.205,48.072
							c0,24.037,15.205,24.037,15.205,48.073s-15.205,24.037-15.205,48.074c0,24.04,15.205,24.04,15.205,48.078
							c0,24.039-15.205,24.039-15.205,48.079c0,24.038,15.205,24.038,15.205,48.075c0,24.039-15.205,24.039-15.205,48.079
							c0,24.038,15.205,24.038,15.205,48.074c0,24.039-15.205,24.039-15.205,48.077c0,24.039,15.205,24.039,15.205,48.079
							c0,24.039-15.205,24.039-15.205,48.078c0,24.042,15.205,24.042,15.205,48.083c0,24.042-15.205,24.042-15.205,48.084"/>
					</g>
					<g opacity="0.8381">
						<path fill="none" stroke="#4B987E" stroke-width="5" stroke-miterlimit="10" d="M173.89-193.674
							c0,24.036-15.207,24.036-15.207,48.074c0,24.035,15.207,24.035,15.207,48.072c0,24.037-15.207,24.037-15.207,48.073
							c0,24.037,15.207,24.037,15.207,48.075c0,24.037-15.207,24.037-15.207,48.073c0,24.038,15.207,24.038,15.207,48.075
							c0,24.036-15.207,24.036-15.207,48.073c0,24.038,15.207,24.038,15.207,48.074c0,24.037-15.207,24.037-15.207,48.074
							c0,24.036,15.207,24.036,15.207,48.071c0,24.035-15.207,24.035-15.207,48.071c0,24.038,15.207,24.038,15.207,48.075
							c0,24.036-15.207,24.036-15.207,48.072c0,24.038,15.207,24.038,15.207,48.074c0,24.036-15.207,24.036-15.207,48.072
							c0,24.037,15.207,24.037,15.207,48.073s-15.207,24.037-15.207,48.075c0,24.039,15.207,24.039,15.207,48.077
							c0,24.038-15.207,24.038-15.207,48.077c0,24.038,15.207,24.038,15.207,48.076c0,24.041-15.207,24.041-15.207,48.079
							s15.207,24.038,15.207,48.077c0,24.037-15.207,24.037-15.207,48.075c0,24.038,15.207,24.038,15.207,48.079
							c0,24.038-15.207,24.038-15.207,48.076c0,24.042,15.207,24.042,15.207,48.083c0,24.042-15.207,24.042-15.207,48.084"/>
					</g>
					<g opacity="0.8476">
						<path fill="none" stroke="#4B987E" stroke-width="5" stroke-miterlimit="10" d="M284.938-193.674
							c0,24.038-15.207,24.038-15.207,48.074s15.207,24.037,15.207,48.073s-15.207,24.036-15.207,48.073
							c0,24.038,15.207,24.038,15.207,48.075c0,24.036-15.207,24.036-15.207,48.074c0,24.038,15.207,24.038,15.207,48.073
							c0,24.036-15.207,24.036-15.207,48.074c0,24.039,15.207,24.039,15.207,48.075s-15.207,24.036-15.207,48.074
							c0,24.035,15.207,24.035,15.207,48.07c0,24.035-15.207,24.035-15.207,48.071c0,24.038,15.207,24.038,15.207,48.077
							c0,24.036-15.207,24.036-15.207,48.071c0,24.037,15.207,24.037,15.207,48.073c0,24.038-15.207,24.038-15.207,48.072
							c0,24.037,15.207,24.037,15.207,48.073c0,24.038-15.207,24.038-15.207,48.076c0,24.038,15.207,24.038,15.207,48.076
							c0,24.039-15.207,24.039-15.207,48.078c0,24.037,15.207,24.037,15.207,48.076c0,24.038-15.207,24.038-15.207,48.079
							c0,24.037,15.207,24.037,15.207,48.076c0,24.038-15.207,24.038-15.207,48.075c0,24.039,15.207,24.039,15.207,48.079
							c0,24.039-15.207,24.039-15.207,48.078c0,24.041,15.207,24.041,15.207,48.083c0,24.041-15.207,24.041-15.207,48.084"/>
					</g>
					<g opacity="0.8857">
						<path fill="none" stroke="#4B987E" stroke-width="5" stroke-miterlimit="10" d="M7.316-193.674
							c0,24.036-15.205,24.036-15.205,48.073c0,24.036,15.205,24.036,15.205,48.072c0,24.037-15.205,24.037-15.205,48.073
							c0,24.037,15.205,24.037,15.205,48.075c0,24.037-15.205,24.037-15.205,48.074S7.316,70.73,7.316,94.769
							c0,24.035-15.205,24.035-15.205,48.074c0,24.037,15.205,24.037,15.205,48.072c0,24.038-15.205,24.038-15.205,48.075
							c0,24.035,15.205,24.035,15.205,48.07c0,24.035-15.205,24.035-15.205,48.071c0,24.039,15.205,24.039,15.205,48.076
							c0,24.035-15.205,24.035-15.205,48.072c0,24.037,15.205,24.037,15.205,48.075c0,24.035-15.205,24.035-15.205,48.072
							c0,24.037,15.205,24.037,15.205,48.072c0,24.038-15.205,24.038-15.205,48.076c0,24.038,15.205,24.038,15.205,48.075
							c0,24.04-15.205,24.04-15.205,48.08c0,24.037,15.205,24.037,15.205,48.076c0,24.038-15.205,24.038-15.205,48.077
							c0,24.037,15.205,24.037,15.205,48.075c0,24.039-15.205,24.039-15.205,48.077c0,24.041,15.205,24.041,15.205,48.079
							c0,24.039-15.205,24.039-15.205,48.077c0,24.042,15.205,24.042,15.205,48.084s-15.205,24.042-15.205,48.084"/>
					</g>
					<g opacity="0.8952">
						<path fill="none" stroke="#4B987E" stroke-width="5" stroke-miterlimit="10" d="M118.365-193.674
							c0,24.036-15.206,24.036-15.206,48.073c0,24.035,15.206,24.035,15.206,48.072c0,24.037-15.206,24.037-15.206,48.072
							c0,24.037,15.206,24.037,15.206,48.075c0,24.038-15.206,24.038-15.206,48.074c0,24.037,15.206,24.037,15.206,48.074
							c0,24.038-15.206,24.038-15.206,48.075s15.206,24.037,15.206,48.074c0,24.037-15.206,24.037-15.206,48.073
							c0,24.034,15.206,24.034,15.206,48.068c0,24.036-15.206,24.036-15.206,48.073c0,24.038,15.206,24.038,15.206,48.076
							c0,24.035-15.206,24.035-15.206,48.071c0,24.037,15.206,24.037,15.206,48.073c0,24.037-15.206,24.037-15.206,48.073
							c0,24.037,15.206,24.037,15.206,48.073s-15.206,24.037-15.206,48.074c0,24.039,15.206,24.039,15.206,48.077
							c0,24.04-15.206,24.04-15.206,48.079c0,24.038,15.206,24.038,15.206,48.075c0,24.04-15.206,24.04-15.206,48.078
							c0,24.038,15.206,24.038,15.206,48.075c0,24.04-15.206,24.04-15.206,48.078c0,24.04,15.206,24.04,15.206,48.078
							c0,24.039-15.206,24.039-15.206,48.077c0,24.042,15.206,24.042,15.206,48.083c0,24.043-15.206,24.043-15.206,48.084"/>
					</g>
					<g opacity="0.9048">
						<path fill="none" stroke="#4B987E" stroke-width="5" stroke-miterlimit="10" d="M229.413-193.674
							c0,24.036-15.205,24.036-15.205,48.073c0,24.036,15.205,24.036,15.205,48.072s-15.205,24.037-15.205,48.074
							s15.205,24.037,15.205,48.076c0,24.035-15.205,24.035-15.205,48.074c0,24.037,15.205,24.037,15.205,48.074
							c0,24.036-15.205,24.036-15.205,48.072c0,24.038,15.205,24.038,15.205,48.074c0,24.037-15.205,24.037-15.205,48.074
							c0,24.036,15.205,24.036,15.205,48.07c0,24.035-15.205,24.035-15.205,48.071c0,24.038,15.205,24.038,15.205,48.076
							c0,24.036-15.205,24.036-15.205,48.073c0,24.037,15.205,24.037,15.205,48.074c0,24.036-15.205,24.036-15.205,48.071
							c0,24.036,15.205,24.036,15.205,48.073s-15.205,24.037-15.205,48.074c0,24.039,15.205,24.039,15.205,48.078
							c0,24.038-15.205,24.038-15.205,48.078c0,24.038,15.205,24.038,15.205,48.075c0,24.04-15.205,24.04-15.205,48.079
							c0,24.038,15.205,24.038,15.205,48.076c0,24.038-15.205,24.038-15.205,48.077c0,24.04,15.205,24.04,15.205,48.078
							c0,24.039-15.205,24.039-15.205,48.077c0,24.042,15.205,24.042,15.205,48.085c0,24.042-15.205,24.042-15.205,48.083"/>
					</g>
					<g opacity="0.9143">
						<path fill="none" stroke="#4B987E" stroke-width="5" stroke-miterlimit="10" d="M340.462-193.674
							c0,24.036-15.205,24.036-15.205,48.073c0,24.036,15.205,24.036,15.205,48.073c0,24.037-15.205,24.037-15.205,48.072
							c0,24.036,15.205,24.036,15.205,48.076c0,24.037-15.205,24.037-15.205,48.074c0,24.037,15.205,24.037,15.205,48.074
							c0,24.037-15.205,24.037-15.205,48.072c0,24.038,15.205,24.038,15.205,48.075s-15.205,24.038-15.205,48.075
							c0,24.034,15.205,24.034,15.205,48.069c0,24.035-15.205,24.035-15.205,48.07c0,24.04,15.205,24.04,15.205,48.077
							c0,24.036-15.205,24.036-15.205,48.072c0,24.038,15.205,24.038,15.205,48.075c0,24.036-15.205,24.036-15.205,48.072
							c0,24.037,15.205,24.037,15.205,48.072c0,24.037-15.205,24.037-15.205,48.074c0,24.039,15.205,24.039,15.205,48.077
							c0,24.039-15.205,24.039-15.205,48.077s15.205,24.039,15.205,48.077c0,24.039-15.205,24.039-15.205,48.077
							c0,24.039,15.205,24.039,15.205,48.076c0,24.037-15.205,24.037-15.205,48.077c0,24.039,15.205,24.039,15.205,48.079
							c0,24.038-15.205,24.038-15.205,48.078c0,24.042,15.205,24.042,15.205,48.083c0,24.042-15.205,24.042-15.205,48.084"/>
					</g>
					<g opacity="0.9238">
						<path fill="none" stroke="#4B987E" stroke-width="5" stroke-miterlimit="10" d="M451.511-193.674
							c0,24.036-15.206,24.036-15.206,48.073c0,24.035,15.206,24.035,15.206,48.073c0,24.036-15.206,24.036-15.206,48.072
							c0,24.038,15.206,24.038,15.206,48.075c0,24.037-15.206,24.037-15.206,48.073c0,24.038,15.206,24.038,15.206,48.075
							c0,24.037-15.206,24.037-15.206,48.074c0,24.037,15.206,24.037,15.206,48.073c0,24.037-15.206,24.037-15.206,48.075
							c0,24.034,15.206,24.034,15.206,48.068c0,24.036-15.206,24.036-15.206,48.071c0,24.038,15.206,24.038,15.206,48.077
							c0,24.036-15.206,24.036-15.206,48.072c0,24.038,15.206,24.038,15.206,48.074c0,24.036-15.206,24.036-15.206,48.072
							c0,24.037,15.206,24.037,15.206,48.073c0,24.038-15.206,24.038-15.206,48.075c0,24.039,15.206,24.039,15.206,48.077
							c0,24.039-15.206,24.039-15.206,48.079c0,24.038,15.206,24.038,15.206,48.076c0,24.039-15.206,24.039-15.206,48.078
							c0,24.038,15.206,24.038,15.206,48.078c0,24.038-15.206,24.038-15.206,48.075c0,24.039,15.206,24.039,15.206,48.078
							c0,24.038-15.206,24.038-15.206,48.076c0,24.042,15.206,24.042,15.206,48.083c0,24.042-15.206,24.042-15.206,48.084"/>
					</g>
					<g opacity="0.9333">
						<path fill="none" stroke="#4B987E" stroke-width="5" stroke-miterlimit="10" d="M562.559-193.674
							c0,24.036-15.205,24.036-15.205,48.073c0,24.036,15.205,24.036,15.205,48.073c0,24.037-15.205,24.037-15.205,48.073
							c0,24.038,15.205,24.038,15.205,48.076c0,24.036-15.205,24.036-15.205,48.074c0,24.038,15.205,24.038,15.205,48.074
							c0,24.036-15.205,24.036-15.205,48.073c0,24.037,15.205,24.037,15.205,48.073c0,24.037-15.205,24.037-15.205,48.076
							c0,24.035,15.205,24.035,15.205,48.067c0,24.036-15.205,24.036-15.205,48.072c0,24.039,15.205,24.039,15.205,48.077
							c0,24.036-15.205,24.036-15.205,48.071c0,24.037,15.205,24.037,15.205,48.076c0,24.035-15.205,24.035-15.205,48.07
							c0,24.038,15.205,24.038,15.205,48.074c0,24.037-15.205,24.037-15.205,48.074c0,24.039,15.205,24.039,15.205,48.077
							c0,24.041-15.205,24.041-15.205,48.079s15.205,24.038,15.205,48.075c0,24.04-15.205,24.04-15.205,48.078
							c0,24.038,15.205,24.038,15.205,48.077c0,24.037-15.205,24.037-15.205,48.076s15.205,24.039,15.205,48.078
							c0,24.038-15.205,24.038-15.205,48.077c0,24.041,15.205,24.041,15.205,48.083c0,24.042-15.205,24.042-15.205,48.084"/>
					</g>
					<g opacity="0.9429">
						<path fill="none" stroke="#4B987E" stroke-width="5" stroke-miterlimit="10" d="M618.083-193.674
							c0,24.036-15.205,24.036-15.205,48.073c0,24.035,15.205,24.035,15.205,48.072c0,24.037-15.205,24.037-15.205,48.073
							c0,24.037,15.205,24.037,15.205,48.075c0,24.037-15.205,24.037-15.205,48.073c0,24.038,15.205,24.038,15.205,48.075
							c0,24.037-15.205,24.037-15.205,48.073c0,24.037,15.205,24.037,15.205,48.074c0,24.039-15.205,24.039-15.205,48.076
							c0,24.034,15.205,24.034,15.205,48.068s-15.205,24.035-15.205,48.071c0,24.038,15.205,24.038,15.205,48.076
							c0,24.037-15.205,24.037-15.205,48.072c0,24.037,15.205,24.037,15.205,48.073c0,24.036-15.205,24.036-15.205,48.073
							c0,24.037,15.205,24.037,15.205,48.073c0,24.039-15.205,24.039-15.205,48.075c0,24.039,15.205,24.039,15.205,48.076
							c0,24.039-15.205,24.039-15.205,48.078c0,24.037,15.205,24.037,15.205,48.076c0,24.038-15.205,24.038-15.205,48.077
							c0,24.039,15.205,24.039,15.205,48.078c0,24.038-15.205,24.038-15.205,48.075c0,24.039,15.205,24.039,15.205,48.079
							c0,24.039-15.205,24.039-15.205,48.078c0,24.042,15.205,24.042,15.205,48.083c0,24.042-15.205,24.042-15.205,48.084"/>
					</g>
					<g opacity="0.9714">
						<path fill="none" stroke="#4B987E" stroke-width="5" stroke-miterlimit="10" d="M507.035-193.674
							c0,24.036-15.206,24.036-15.206,48.073c0,24.036,15.206,24.036,15.206,48.073c0,24.037-15.206,24.037-15.206,48.072
							c0,24.037,15.206,24.037,15.206,48.076c0,24.037-15.206,24.037-15.206,48.072c0,24.038,15.206,24.038,15.206,48.074
							c0,24.037-15.206,24.037-15.206,48.074c0,24.038,15.206,24.038,15.206,48.074c0,24.038-15.206,24.038-15.206,48.075
							c0,24.034,15.206,24.034,15.206,48.069c0,24.036-15.206,24.036-15.206,48.071c0,24.037,15.206,24.037,15.206,48.075
							c0,24.036-15.206,24.036-15.206,48.071c0,24.037,15.206,24.037,15.206,48.075c0,24.036-15.206,24.036-15.206,48.072
							c0,24.038,15.206,24.038,15.206,48.073c0,24.037-15.206,24.037-15.206,48.075c0,24.04,15.206,24.04,15.206,48.077
							c0,24.039-15.206,24.039-15.206,48.079c0,24.038,15.206,24.038,15.206,48.075c0,24.04-15.206,24.04-15.206,48.079
							c0,24.04,15.206,24.04,15.206,48.076c0,24.037-15.206,24.037-15.206,48.076c0,24.038,15.206,24.038,15.206,48.078
							c0,24.038-15.206,24.038-15.206,48.077c0,24.042,15.206,24.042,15.206,48.084c0,24.042-15.206,24.042-15.206,48.085"/>
					</g>
					<g opacity="0.981">
						<path fill="none" stroke="#4B987E" stroke-width="5" stroke-miterlimit="10" d="M395.986-193.674
							c0,24.038-15.207,24.038-15.207,48.073c0,24.037,15.207,24.037,15.207,48.073c0,24.037-15.207,24.037-15.207,48.073
							s15.207,24.036,15.207,48.075c0,24.037-15.207,24.037-15.207,48.072c0,24.038,15.207,24.038,15.207,48.074
							c0,24.037-15.207,24.037-15.207,48.075c0,24.037,15.207,24.037,15.207,48.075c0,24.037-15.207,24.037-15.207,48.073
							c0,24.036,15.207,24.036,15.207,48.068c0,24.036-15.207,24.036-15.207,48.071c0,24.037,15.207,24.037,15.207,48.077
							c0,24.035-15.207,24.035-15.207,48.071s15.207,24.036,15.207,48.073c0,24.036-15.207,24.036-15.207,48.072
							c0,24.038,15.207,24.038,15.207,48.075c0,24.037-15.207,24.037-15.207,48.074c0,24.039,15.207,24.039,15.207,48.078
							s-15.207,24.039-15.207,48.078c0,24.038,15.207,24.038,15.207,48.076c0,24.04-15.207,24.04-15.207,48.079
							c0,24.038,15.207,24.038,15.207,48.076s-15.207,24.038-15.207,48.076c0,24.04,15.207,24.04,15.207,48.078
							c0,24.039-15.207,24.039-15.207,48.078c0,24.042,15.207,24.042,15.207,48.083c0,24.041-15.207,24.041-15.207,48.084"/>
					</g>
				</g>
			</g>
			<g>
				<defs>
					<rect id="SVGID_219_" x="-672.086" y="-148.07" width="1984.174" height="1394.141"/>
				</defs>
				<clipPath id="SVGID_20_">
					<use xlink:href="#SVGID_219_"  overflow="visible"/>
				</clipPath>
			</g>
		</g>
	</g>
	<g id="圖層_1_5_" clip-path="url(#SVGID_16_)">
		<g opacity="0.3" enable-background="new    ">
			<g>
				<defs>
					<rect id="SVGID_223_" x="-672.086" y="-1167.5" width="1984.174" height="1117"/>
				</defs>
				<clipPath id="SVGID_22_">
					<use xlink:href="#SVGID_223_"  overflow="visible"/>
				</clipPath>
				<g clip-path="url(#SVGID_22_)">
					<g opacity="0.8762">
						<path fill="none" stroke="#4B987E" stroke-width="9.2911" stroke-miterlimit="10" d="M99.933-1288.533
							c0,26.15-20.646,26.15-20.646,52.301s20.646,26.15,20.646,52.301s-20.646,26.15-20.646,52.3
							c0,26.151,20.646,26.151,20.646,52.304c0,26.15-20.646,26.15-20.646,52.3c0,26.151,20.646,26.151,20.646,52.303
							c0,26.149-20.646,26.149-20.646,52.302c0,26.151,20.646,26.151,20.646,52.303S79.287-843.97,79.287-817.82
							c0,26.148,20.646,26.148,20.646,52.297c0,26.15-20.646,26.15-20.646,52.3c0,26.151,20.646,26.151,20.646,52.303
							c0,26.149-20.646,26.149-20.646,52.299c0,26.151,20.646,26.151,20.646,52.304c0,26.148-20.646,26.148-20.646,52.299
							s20.646,26.15,20.646,52.301c0,26.151-20.646,26.151-20.646,52.303c0,26.152,20.646,26.152,20.646,52.304
							c0,26.153-20.646,26.153-20.646,52.307c0,26.151,20.646,26.151,20.646,52.304c0,26.153-20.646,26.153-20.646,52.307
							c0,26.151,20.646,26.151,20.646,52.304s-20.646,26.152-20.646,52.304c0,26.154,20.646,26.154,20.646,52.307
							c0,26.153-20.646,26.153-20.646,52.306c0,26.155,20.646,26.155,20.646,52.312s-20.646,26.158-20.646,52.313"/>
					</g>
					<g opacity="0.8857">
						<path fill="none" stroke="#4B987E" stroke-width="9.2911" stroke-miterlimit="10" d="M216.453-1280.162
							c0,26.15-20.646,26.15-20.646,52.301s20.646,26.15,20.646,52.3c0,26.151-20.646,26.151-20.646,52.302
							c0,26.151,20.646,26.151,20.646,52.303s-20.646,26.151-20.646,52.301c0,26.151,20.646,26.151,20.646,52.303
							c0,26.15-20.646,26.15-20.646,52.301s20.646,26.15,20.646,52.302s-20.646,26.151-20.646,52.304
							c0,26.148,20.646,26.148,20.646,52.297s-20.646,26.148-20.646,52.297c0,26.153,20.646,26.153,20.646,52.305
							c0,26.149-20.646,26.149-20.646,52.298c0,26.151,20.646,26.151,20.646,52.303c0,26.149-20.646,26.149-20.646,52.3
							s20.646,26.15,20.646,52.301s-20.646,26.15-20.646,52.302c0,26.153,20.646,26.153,20.646,52.306
							c0,26.153-20.646,26.153-20.646,52.307c0,26.151,20.646,26.151,20.646,52.304s-20.646,26.152-20.646,52.306
							c0,26.152,20.646,26.152,20.646,52.305s-20.646,26.152-20.646,52.305s20.646,26.152,20.646,52.306
							c0,26.152-20.646,26.152-20.646,52.306c0,26.155,20.646,26.155,20.646,52.312s-20.646,26.156-20.646,52.312"/>
					</g>
					<g opacity="0.8952">
						<path fill="none" stroke="#4B987E" stroke-width="9.2911" stroke-miterlimit="10" d="M332.972-1271.791
							c0,26.151-20.646,26.151-20.646,52.301c0,26.15,20.646,26.15,20.646,52.301s-20.646,26.15-20.646,52.301
							c0,26.151,20.646,26.151,20.646,52.303c0,26.15-20.646,26.15-20.646,52.301c0,26.152,20.646,26.152,20.646,52.304
							c0,26.15-20.646,26.15-20.646,52.301c0,26.151,20.646,26.151,20.646,52.302s-20.646,26.15-20.646,52.302
							c0,26.149,20.646,26.149,20.646,52.299c0,26.148-20.646,26.148-20.646,52.298c0,26.151,20.646,26.151,20.646,52.303
							c0,26.15-20.646,26.15-20.646,52.301s20.646,26.15,20.646,52.301s-20.646,26.15-20.646,52.301s20.646,26.15,20.646,52.301
							c0,26.151-20.646,26.151-20.646,52.303c0,26.152,20.646,26.152,20.646,52.304c0,26.153-20.646,26.153-20.646,52.308
							c0,26.151,20.646,26.151,20.646,52.304s-20.646,26.152-20.646,52.306c0,26.151,20.646,26.151,20.646,52.303
							c0,26.154-20.646,26.154-20.646,52.305c0,26.154,20.646,26.154,20.646,52.306c0,26.153-20.646,26.153-20.646,52.305
							c0,26.157,20.646,26.157,20.646,52.313s-20.646,26.156-20.646,52.313"/>
					</g>
					<g opacity="0.9048">
						<path fill="none" stroke="#4B987E" stroke-width="9.2911" stroke-miterlimit="10" d="M449.49-1263.419
							c0,26.151-20.646,26.151-20.646,52.302s20.646,26.15,20.646,52.301s-20.646,26.15-20.646,52.3
							c0,26.151,20.646,26.151,20.646,52.304c0,26.15-20.646,26.15-20.646,52.3c0,26.151,20.646,26.151,20.646,52.303
							c0,26.149-20.646,26.149-20.646,52.301s20.646,26.151,20.646,52.302c0,26.151-20.646,26.151-20.646,52.303
							c0,26.148,20.646,26.148,20.646,52.296c0,26.149-20.646,26.149-20.646,52.299c0,26.151,20.646,26.151,20.646,52.304
							c0,26.15-20.646,26.15-20.646,52.3c0,26.15,20.646,26.15,20.646,52.301c0,26.149-20.646,26.149-20.646,52.299
							c0,26.15,20.646,26.15,20.646,52.301c0,26.151-20.646,26.151-20.646,52.304s20.646,26.152,20.646,52.305
							s-20.646,26.152-20.646,52.306c0,26.152,20.646,26.152,20.646,52.305c0,26.153-20.646,26.153-20.646,52.307
							c0,26.152,20.646,26.152,20.646,52.304s-20.646,26.151-20.646,52.304S449.49-34.321,449.49-8.168
							c0,26.154-20.646,26.154-20.646,52.307c0,26.156,20.646,26.156,20.646,52.312c0,26.157-20.646,26.157-20.646,52.313"/>
					</g>
					<g opacity="0.9143">
						<path fill="none" stroke="#4B987E" stroke-width="9.2911" stroke-miterlimit="10" d="M566.009-1255.047
							c0,26.15-20.646,26.15-20.646,52.302c0,26.149,20.646,26.149,20.646,52.299c0,26.151-20.646,26.151-20.646,52.301
							c0,26.15,20.646,26.15,20.646,52.302c0,26.152-20.646,26.152-20.646,52.303c0,26.151,20.646,26.151,20.646,52.303
							c0,26.15-20.646,26.15-20.646,52.301s20.646,26.15,20.646,52.302s-20.646,26.151-20.646,52.303
							c0,26.148,20.646,26.148,20.646,52.296c0,26.15-20.646,26.15-20.646,52.298c0,26.153,20.646,26.153,20.646,52.304
							s-20.646,26.15-20.646,52.299c0,26.152,20.646,26.152,20.646,52.304c0,26.149-20.646,26.149-20.646,52.3
							s20.646,26.15,20.646,52.301s-20.646,26.15-20.646,52.302c0,26.153,20.646,26.153,20.646,52.306s-20.646,26.152-20.646,52.307
							c0,26.151,20.646,26.151,20.646,52.304s-20.646,26.152-20.646,52.306c0,26.151,20.646,26.151,20.646,52.305
							c0,26.152-20.646,26.152-20.646,52.304c0,26.153,20.646,26.153,20.646,52.307c0,26.152-20.646,26.152-20.646,52.305
							c0,26.157,20.646,26.157,20.646,52.313c0,26.155-20.646,26.155-20.646,52.312"/>
					</g>
				</g>
			</g>
		</g>
	</g>
</g>
</svg>
