<?xml version="1.0" encoding="utf-8"?>
<!-- Generator: Adobe Illustrator 16.0.0, SVG Export Plug-In . SVG Version: 6.00 Build 0)  -->
<!DOCTYPE svg PUBLIC "-//W3C//DTD SVG 1.1//EN" "http://www.w3.org/Graphics/SVG/1.1/DTD/svg11.dtd">
<svg version="1.1" id="圖層_1" xmlns="http://www.w3.org/2000/svg" xmlns:xlink="http://www.w3.org/1999/xlink" x="0px" y="0px"
	 width="50px" height="50px" viewBox="0 0 50 50" enable-background="new 0 0 50 50" xml:space="preserve">
<g>
	<path fill="#C16926" d="M26.452,4.726c10.289,0.738,19.506,9.414,18.622,21.711c-0.907,12.646-11.246,19.564-21.541,18.824
		C13.244,44.523,4.16,33.978,4.911,23.548C5.661,13.121,16.159,3.988,26.452,4.726z"/>
	<g>
		<path fill="#EAD292" d="M22.866,33.108c0,0-1.015,4.92,0.716,5.666c1.525,0.662,2.618-0.475,2.664-1.342
			C26.287,36.555,25.154,34.692,22.866,33.108z"/>
		<path fill="#EAD292" d="M16.826,29.232c0,0-4.762,1.582-4.544,3.452c0.19,1.653,1.721,2.022,2.493,1.628
			C15.552,33.916,16.594,32.002,16.826,29.232z"/>
		<path fill="#EAD292" d="M11.661,25.318c0,0,4.881-1.182,4.819-3.066c-0.053-1.654-1.545-2.16-2.348-1.83
			C13.315,20.758,12.128,22.573,11.661,25.318z"/>
		<path fill="#EAD292" d="M21.833,18.101c0,0,1.011-4.918-0.719-5.663c-1.528-0.657-2.618,0.479-2.667,1.344
			C18.41,14.658,19.545,16.514,21.833,18.101z"/>
		<path fill="#EAD292" d="M28.683,18.26c0,0,4.75-1.626,4.52-3.494c-0.213-1.647-1.742-2.014-2.515-1.608
			C29.909,13.561,28.886,15.486,28.683,18.26z"/>
		<path fill="#EAD292" d="M22.571,23.253c0,0,2.175,4.521,4.004,4.071c1.61-0.391,1.792-1.959,1.305-2.674
			C27.383,23.926,25.357,23.131,22.571,23.253z"/>
		<path fill="#EAD292" d="M37.133,32.052c0,0-3.762-3.326-5.276-2.209c-1.328,0.992-0.894,2.513-0.162,2.985
			C32.435,33.305,34.615,33.245,37.133,32.052z"/>
		<path fill="#EAD292" d="M35.559,25.549c0,0,4.985-0.594,5.144-2.479c0.145-1.652-1.282-2.328-2.119-2.093
			C37.741,21.207,36.335,22.878,35.559,25.549z"/>
	</g>
</g>
</svg>
