<?xml version="1.0" encoding="utf-8"?>
<!-- Generator: Adobe Illustrator 16.0.0, SVG Export Plug-In . SVG Version: 6.00 Build 0)  -->
<!DOCTYPE svg PUBLIC "-//W3C//DTD SVG 1.1//EN" "http://www.w3.org/Graphics/SVG/1.1/DTD/svg11.dtd">
<svg version="1.1" id="圖層_1" xmlns="http://www.w3.org/2000/svg" xmlns:xlink="http://www.w3.org/1999/xlink" x="0px" y="0px"
	 width="640px" height="1200px" viewBox="0 0 640 1200" enable-background="new 0 0 640 1200" xml:space="preserve">
<g>
	<defs>
		<rect id="SVGID_5_" x="-1601" y="-1" width="642" height="1202"/>
	</defs>
	<clipPath id="SVGID_2_">
		<use xlink:href="#SVGID_5_"  overflow="visible"/>
	</clipPath>
	<g clip-path="url(#SVGID_2_)">
		<rect x="-1880.775" y="-42.481" fill="#F7D793" width="2040.888" height="1257.752"/>
	</g>
</g>
<g>
	<defs>
		<rect id="SVGID_251_" x="-801" width="642" height="1202"/>
	</defs>
	<clipPath id="SVGID_4_">
		<use xlink:href="#SVGID_251_"  overflow="visible"/>
	</clipPath>
	<g id="圖層_1_5_" clip-path="url(#SVGID_4_)">
		<g opacity="0.3" enable-background="new    ">
			<g>
				<defs>
					<rect id="SVGID_259_" x="-1472.086" y="-1167.5" width="1984.174" height="1117"/>
				</defs>
				<clipPath id="SVGID_6_">
					<use xlink:href="#SVGID_259_"  overflow="visible"/>
				</clipPath>
				<g clip-path="url(#SVGID_6_)">
					<g opacity="0.9333">
						<path fill="none" stroke="#4B987E" stroke-width="9.2911" stroke-miterlimit="10" d="M-0.95-1238.303
							c0,26.15-20.646,26.15-20.646,52.301s20.646,26.15,20.646,52.301s-20.646,26.15-20.646,52.3
							c0,26.153,20.646,26.153,20.646,52.305c0,26.149-20.646,26.149-20.646,52.301S-0.95-950.645-0.95-924.493
							c0,26.149-20.646,26.149-20.646,52.3c0,26.151,20.646,26.151,20.646,52.302c0,26.152-20.646,26.152-20.646,52.304
							c0,26.148,20.646,26.148,20.646,52.295c0,26.15-20.646,26.15-20.646,52.299c0,26.153,20.646,26.153,20.646,52.305
							c0,26.15-20.646,26.15-20.646,52.299c0,26.151,20.646,26.151,20.646,52.301c0,26.151-20.646,26.15-20.646,52.3
							s20.646,26.15,20.646,52.301c0,26.152-20.646,26.152-20.646,52.302c0,26.152,20.646,26.152,20.646,52.305
							s-20.646,26.152-20.646,52.306c0,26.152,20.646,26.152,20.646,52.303c0,26.153-20.646,26.153-20.646,52.307
							c0,26.15,20.646,26.15,20.646,52.304c0,26.152-20.646,26.152-20.646,52.304S-0.95-9.204-0.95,16.949
							c0,26.152-20.646,26.152-20.646,52.305c0,26.157,20.646,26.157,20.646,52.313c0,26.156-20.646,26.156-20.646,52.313"/>
					</g>
					<g opacity="0.9429">
						<path fill="none" stroke="#4B987E" stroke-width="9.2911" stroke-miterlimit="10" d="M115.57-1229.93
							c0,26.149-20.646,26.149-20.646,52.301c0,26.148,20.646,26.148,20.646,52.301c0,26.149-20.646,26.149-20.646,52.299
							c0,26.152,20.646,26.152,20.646,52.303c0,26.15-20.646,26.15-20.646,52.301c0,26.151,20.646,26.151,20.646,52.303
							c0,26.15-20.646,26.15-20.646,52.301c0,26.152,20.646,26.152,20.646,52.302c0,26.15-20.646,26.15-20.646,52.302
							c0,26.148,20.646,26.148,20.646,52.297c0,26.148-20.646,26.148-20.646,52.298c0,26.151,20.646,26.151,20.646,52.305
							c0,26.149-20.646,26.149-20.646,52.299c0,26.15,20.646,26.15,20.646,52.302c0,26.149-20.646,26.149-20.646,52.3
							s20.646,26.15,20.646,52.301c0,26.152-20.646,26.152-20.646,52.302c0,26.153,20.646,26.153,20.646,52.305
							c0,26.153-20.646,26.153-20.646,52.307c0,26.152,20.646,26.152,20.646,52.304c0,26.154-20.646,26.154-20.646,52.306
							c0,26.152,20.646,26.152,20.646,52.304S94.923-53.137,94.923-26.984c0,26.153,20.646,26.153,20.646,52.307
							c0,26.152-20.646,26.152-20.646,52.305c0,26.156,20.646,26.156,20.646,52.312c0,26.157-20.646,26.157-20.646,52.313"/>
					</g>
					<g opacity="0.9524">
						<path fill="none" stroke="#4B987E" stroke-width="9.2911" stroke-miterlimit="10" d="M232.087-1221.558
							c0,26.15-20.646,26.15-20.646,52.301s20.646,26.15,20.646,52.301s-20.646,26.15-20.646,52.301
							c0,26.151,20.646,26.151,20.646,52.302s-20.646,26.151-20.646,52.301c0,26.151,20.646,26.151,20.646,52.303
							c0,26.15-20.646,26.15-20.646,52.301c0,26.152,20.646,26.152,20.646,52.301c0,26.152-20.646,26.152-20.646,52.303
							c0,26.147,20.646,26.147,20.646,52.296c0,26.15-20.646,26.15-20.646,52.299c0,26.152,20.646,26.152,20.646,52.304
							c0,26.149-20.646,26.149-20.646,52.298c0,26.151,20.646,26.151,20.646,52.302c0,26.15-20.646,26.15-20.646,52.301
							c0,26.15,20.646,26.15,20.646,52.299c0,26.152-20.646,26.152-20.646,52.304c0,26.152,20.646,26.152,20.646,52.304
							c0,26.153-20.646,26.153-20.646,52.306c0,26.151,20.646,26.151,20.646,52.305c0,26.153-20.646,26.153-20.646,52.307
							c0,26.152,20.646,26.152,20.646,52.304c0,26.152-20.646,26.152-20.646,52.305s20.646,26.153,20.646,52.306
							s-20.646,26.153-20.646,52.305c0,26.157,20.646,26.157,20.646,52.312c0,26.158-20.646,26.158-20.646,52.314"/>
					</g>
					<g opacity="0.9619">
						<path fill="none" stroke="#4B987E" stroke-width="9.2911" stroke-miterlimit="10" d="M348.607-1213.188
							c0,26.151-20.646,26.151-20.646,52.302c0,26.149,20.646,26.149,20.646,52.3c0,26.149-20.646,26.149-20.646,52.301
							c0,26.152,20.646,26.152,20.646,52.303c0,26.15-20.646,26.15-20.646,52.301c0,26.15,20.646,26.15,20.646,52.302
							c0,26.15-20.646,26.15-20.646,52.301c0,26.151,20.646,26.151,20.646,52.302c0,26.152-20.646,26.152-20.646,52.304
							c0,26.149,20.646,26.149,20.646,52.295c0,26.15-20.646,26.15-20.646,52.299c0,26.152,20.646,26.152,20.646,52.304
							c0,26.149-20.646,26.149-20.646,52.299c0,26.152,20.646,26.152,20.646,52.303c0,26.15-20.646,26.15-20.646,52.3
							c0,26.149,20.646,26.149,20.646,52.301c0,26.151-20.646,26.151-20.646,52.302c0,26.152,20.646,26.152,20.646,52.305
							c0,26.154-20.646,26.154-20.646,52.307c0,26.153,20.646,26.153,20.646,52.304c0,26.153-20.646,26.153-20.646,52.306
							s20.646,26.152,20.646,52.305S327.96-36.393,327.96-10.24s20.646,26.153,20.646,52.305c0,26.153-20.646,26.153-20.646,52.306
							c0,26.156,20.646,26.156,20.646,52.312c0,26.157-20.646,26.157-20.646,52.313"/>
					</g>
					<g opacity="0.9714">
						<path fill="none" stroke="#4B987E" stroke-width="9.2911" stroke-miterlimit="10" d="M465.126-1204.815
							c0,26.151-20.646,26.151-20.646,52.301c0,26.151,20.646,26.151,20.646,52.301c0,26.149-20.646,26.149-20.646,52.301
							c0,26.151,20.646,26.151,20.646,52.302c0,26.15-20.646,26.15-20.646,52.302c0,26.152,20.646,26.152,20.646,52.303
							c0,26.15-20.646,26.15-20.646,52.301c0,26.151,20.646,26.151,20.646,52.302c0,26.149-20.646,26.149-20.646,52.301
							c0,26.149,20.646,26.149,20.646,52.297c0,26.149-20.646,26.149-20.646,52.299c0,26.15,20.646,26.15,20.646,52.303
							c0,26.149-20.646,26.149-20.646,52.3s20.646,26.15,20.646,52.301s-20.646,26.15-20.646,52.301s20.646,26.15,20.646,52.302
							c0,26.151-20.646,26.151-20.646,52.301c0,26.152,20.646,26.152,20.646,52.304c0,26.154-20.646,26.154-20.646,52.306
							c0,26.152,20.646,26.152,20.646,52.305c0,26.154-20.646,26.154-20.646,52.307c0,26.151,20.646,26.151,20.646,52.302
							c0,26.151-20.646,26.151-20.646,52.306c0,26.15,20.646,26.15,20.646,52.304S444.48,76.589,444.48,102.74
							c0,26.157,20.646,26.157,20.646,52.314c0,26.157-20.646,26.157-20.646,52.313"/>
					</g>
				</g>
			</g>
		</g>
	</g>
</g>
<g>
	<defs>
		<rect id="SVGID_261_" x="-1" y="0" width="642" height="1223.491"/>
	</defs>
	<clipPath id="SVGID_8_">
		<use xlink:href="#SVGID_261_"  overflow="visible"/>
	</clipPath>
	<g clip-path="url(#SVGID_8_)">
		<polygon fill="#C63D3C" points="-46.077,-6.156 663.882,-6.156 674.397,1227.688 -35.561,1227.688 		"/>
		<g>
			<g>
				<g>
					<defs>
						<polygon id="SVGID_263_" points="-959,82.321 661.548,82.321 685.552,1204 -934.996,1204 						"/>
					</defs>
					<defs>
						<polygon id="SVGID_264_" points="-959,82.321 661.548,82.321 685.552,1204 -934.996,1204 						"/>
					</defs>
					<clipPath id="SVGID_10_">
						<use xlink:href="#SVGID_263_"  overflow="visible"/>
					</clipPath>
					<clipPath id="SVGID_12_" clip-path="url(#SVGID_10_)">
						<use xlink:href="#SVGID_264_"  overflow="visible"/>
					</clipPath>
					<path opacity="0.2" clip-path="url(#SVGID_12_)" fill="#B82C35" enable-background="new    " d="M-300.861,375.951
						c-39.374,147.82-28.023,308.787,6.254,456.261c16.436,70.714,23.788,131.833,65.944,187.436
						c19.178,25.293,75.984,215.293,101.119,231.36c41.508,26.527,32.876,61.451,77.454,78.979
						c63.828,25.093,150.195-143.363,214.221-119.449c64.729,24.181,139.178,11.532,206.448,11.22
						c94.997-0.438,386.547-44.964,480.979-56.386c57.215-6.919,113.196-25.157,170.334-31.063c25.453-2.634,53.4,2.38,77.857-7.771
						c-0.66-39.243,0.217,109.277-15.596,70.958c-30.708-74.412-577.21-68.388-631.962-78.72
						C340.851,1097.763,173.97,1008.43,91.84,906.971C17.901,815.63,0.278,550.408-13.17,429.923
						c-6.801-60.933-38.111-150.422-82.593-186.578C-299.856,77.453-286.897,323.527-300.861,375.951z"/>
					<path opacity="0.3" clip-path="url(#SVGID_12_)" fill="#B82C35" enable-background="new    " d="M510.34,1275.643
						c-96.23,63.929-215.81,86.082-331.879,85.475c-55.655-0.291-101.89,5.458-153.624-20.361
						c-23.532-11.745-50.397-24.275-68.879-43.075c-30.521-31.045-53.44-16.529-78.282-52.059
						c64.245,91.882,29.256-22.812-98.11-210.643c-35.153-51.842-46.303-119.531-64.425-178.478
						c-25.594-83.243-72.894-347.324-90.385-432.261c-10.601-51.463-12.671-104.104-23.979-155.294
						c-5.037-22.806-16.286-46.271-15.613-69.699c28.578-7.247,46.986,20.907,79.026,27.112
						c62.223,12.047,206.921,491.625,229.334,537.489c45.573,93.273,122.701,360.207,218.525,411.874
						c86.265,46.516,218.105,98.172,308.962,85.927c45.948-6.196,126.888-62.924,165.184-31.197
						C761.905,1376.039,544.469,1252.967,510.34,1275.643z"/>
				</g>
			</g>
			<g>
				<g id="圖層_1_10_">
					<g>
						<g>
							<defs>
								<rect id="SVGID_267_" x="-12.497" width="653.498" height="434.08"/>
							</defs>
							<clipPath id="SVGID_14_">
								<use xlink:href="#SVGID_267_"  overflow="visible"/>
							</clipPath>
							<g opacity="0.5" clip-path="url(#SVGID_14_)">
								
									<linearGradient id="SVGID_16_" gradientUnits="userSpaceOnUse" x1="-661.4629" y1="-11838.8984" x2="-773.0669" y2="-11608.8584" gradientTransform="matrix(1 0 0 1 1088.5801 11889.7852)">
									<stop  offset="0" style="stop-color:#AE1E2C"/>
									<stop  offset="1" style="stop-color:#AE1E2C;stop-opacity:0.1"/>
								</linearGradient>
								<path fill="url(#SVGID_16_)" d="M534.465,74.189c-7.662-0.438-14.586-2.29-22.086-3.555
									c-18.556-3.135-35.487,2.341-53.906,6.409c-43.792,9.665-77.027,28.551-110.642,58.036
									c-50.552,44.341-99.978,90.86-149.469,136.216c16.49-4.236,32.732-15.331,48.336-22.195
									c16.054-7.068,32.408-13.746,47.583-22.563c13.819-8.035,27.514-17.19,41.729-24.459
									c39.25-20.063,72.423-46.096,108.411-70.881c19.223-13.239,38.863-26.232,59.607-36.321
									c8.932-4.343,31.012-9.051,32.906-20.066L534.465,74.189z"/>
								
									<linearGradient id="SVGID_18_" gradientUnits="userSpaceOnUse" x1="-599.4272" y1="-11784.873" x2="-665.4789" y2="-11570.7754" gradientTransform="matrix(1 0 0 1 1088.5801 11889.7852)">
									<stop  offset="0" style="stop-color:#AE1E2C"/>
									<stop  offset="1" style="stop-color:#AE1E2C;stop-opacity:0.1"/>
								</linearGradient>
								<path fill="url(#SVGID_18_)" d="M512.772,104.913c-4.429,1.006-8.957,0.334-13.594,0.41
									c-11.474,0.191-18.9,9.423-27.671,17.416c-20.856,18.992-32.472,45.964-40.438,84.535
									c-11.977,57.991-22.53,118.14-33.55,177.032c7.64-7.799,12.634-23.007,18.817-33.495
									c6.361-10.788,13.03-21.222,18.262-33.747c4.769-11.408,9.05-24.019,14.314-34.674
									c14.534-29.418,23.512-64.144,34.511-98.061c5.875-18.113,12.072-36.045,19.942-51.033
									c3.387-6.453,13.966-15.849,11.002-28.189L512.772,104.913z"/>
								
									<linearGradient id="SVGID_20_" gradientUnits="userSpaceOnUse" x1="-631.6104" y1="-11813.1309" x2="-830.9023" y2="-11777.8281" gradientTransform="matrix(1 0 0 1 1088.5801 11889.7852)">
									<stop  offset="0" style="stop-color:#AE1E2C"/>
									<stop  offset="1" style="stop-color:#AE1E2C;stop-opacity:0.1"/>
								</linearGradient>
								<path fill="url(#SVGID_20_)" d="M530.792,87.79c-8.248,3.179-30.883-15.521-40.701-19.323
									c-19.865-7.696-38.239-9.923-59.363-11.467c-44.715-3.266-80.461,5.939-123.243,16.415
									c-11.043,2.703-23.927,7.674-35.452,7.581c-7.954-0.063-13.984-4.172-21.25-5.767c-14.847-3.261-31.557-3.487-46.274-4.945
									c12.744,2.056,24.898,12.568,37.033,17.215c10.332,3.958,21.662,6.681,32.214,9.598c13.182,3.644,25.883,6.115,39.47,7.102
									c35.516,2.575,68.804,7.513,103.359,14.62c25.937,5.331,57.487,10,82.426-0.197C510.31,114.002,530.792,87.79,530.792,87.79
									z"/>
								
									<linearGradient id="SVGID_22_" gradientUnits="userSpaceOnUse" x1="-631.8657" y1="-11826.709" x2="-448.5166" y2="-11662.7197" gradientTransform="matrix(1 0 0 1 1088.5801 11889.7852)">
									<stop  offset="0" style="stop-color:#AE1E2C"/>
									<stop  offset="1" style="stop-color:#AE1E2C;stop-opacity:0.1"/>
								</linearGradient>
								<path fill="url(#SVGID_22_)" d="M476.464,58.548c0.687,6.101-0.073,12.016-0.197,18.223
									c-0.303,15.352,7.343,27.016,13.861,40.238c15.498,31.431,38.235,52.039,71.097,69.963
									c49.414,26.951,100.739,52.417,150.971,78.262c-6.401-11.672-19.285-21.219-28.06-31.453
									c-9.029-10.533-17.731-21.409-28.298-30.765c-9.625-8.519-20.298-16.622-29.252-25.665
									c-24.724-24.965-54.245-43.518-82.978-64.612c-15.35-11.27-30.527-22.938-43.104-36.273
									c-5.415-5.745-13.075-21.64-23.812-20.02L476.464,58.548z"/>
								
									<linearGradient id="SVGID_24_" gradientUnits="userSpaceOnUse" x1="-540.1384" y1="-11810.377" x2="-428.5352" y2="-11768.2402" gradientTransform="matrix(1 0 0 1 1088.5801 11889.7852)">
									<stop  offset="0" style="stop-color:#AE1E2C"/>
									<stop  offset="1" style="stop-color:#AE1E2C;stop-opacity:0.1"/>
								</linearGradient>
								<path fill="url(#SVGID_24_)" d="M497.457,139.737c4.975-0.128,9.55,0.695,14.466,1.11
									c12.16,1.025,22.782-3.458,34.443-7.106c27.729-8.676,71.309-12.971,99.665-19.141
									c41.871-9.109,88.827-10.249,138.719-4.554C774.34,113.7,647.616-30.516,519.288,84.744
									c-36.771,33.024-22.866,47.464-23.46,54.727L497.457,139.737z"/>
								
									<linearGradient id="SVGID_25_" gradientUnits="userSpaceOnUse" x1="-585.5669" y1="-11738.7109" x2="-541.1533" y2="-11586.1094" gradientTransform="matrix(1 0 0 1 1088.5801 11889.7852)">
									<stop  offset="0" style="stop-color:#AE1E2C"/>
									<stop  offset="1" style="stop-color:#AE1E2C;stop-opacity:0.1"/>
								</linearGradient>
								<path fill="url(#SVGID_25_)" d="M485.954,120.256c4.216,5.273,0.56,29.64,1.366,38.66
									c1.627,18.24,5.846,33.347,11.268,50.348c11.467,35.986,27.193,60.496,45.718,90.018
									c4.779,7.619,11.367,15.857,14.739,24.864c2.327,6.217,1.837,12.393,3.11,18.626c2.597,12.732,7.433,25.823,11,37.806
									c-2.645-10.665-0.421-23.921-1.444-35.043c-0.871-9.469-2.728-19.274-4.241-28.536c-1.895-11.583-4.294-22.36-7.779-33.294
									c-9.12-28.575-16.27-56.274-22.588-85.74c-4.743-22.115-11.521-48.359-24.591-64.093
									C506.59,126.739,485.954,120.256,485.954,120.256z"/>
							</g>
						</g>
						<g>
							<g>
								<defs>
									<rect id="SVGID_275_" x="-12.497" width="653.498" height="434.08"/>
								</defs>
								<clipPath id="SVGID_26_">
									<use xlink:href="#SVGID_275_"  overflow="visible"/>
								</clipPath>
								<g clip-path="url(#SVGID_26_)">
									<path fill="#167259" d="M500.18,103.709c-7.384-2.089-13.741-5.394-20.79-8.254c-17.437-7.076-35.153-5.392-54.017-5.412
										c-44.846-0.042-81.379,11.204-120.584,32.716c-58.945,32.344-117.269,67.063-175.405,100.629
										c17.019-0.562,35.276-7.877,51.992-11.206c17.204-3.423,34.616-6.404,51.34-11.728
										c15.234-4.849,30.583-10.83,46.034-14.846c42.665-11.093,80.687-29.332,121.184-45.738
										c21.63-8.758,43.62-17.194,66.059-22.554c9.658-2.307,32.235-2.125,36.468-12.468L500.18,103.709z"/>
									<path fill="#167259" d="M517.264,93.578c-5.111,0.637-10.18-0.018-15.441-0.1c-13.018-0.208-22.319,6.69-33.027,12.583
										c-25.446,14.014-41.19,34.464-53.906,63.977c-19.116,44.372-36.829,90.446-54.943,135.542
										c9.398-5.78,16.516-17.361,24.522-25.264c8.241-8.127,16.799-15.971,23.925-25.472c6.493-8.658,12.553-18.254,19.537-26.31
										c19.285-22.251,32.777-48.767,48.486-74.591c8.389-13.793,17.127-27.438,27.479-38.757
										c4.453-4.873,17.342-11.801,15.166-21.41L517.264,93.578z"/>
									<path fill="#167259" d="M511.57,100.293c-8.722-1.436-18.774-29.018-25.315-37.269
										c-13.239-16.694-27.951-27.916-45.389-39.943c-36.905-25.454-72.393-35.614-114.59-48.24
										c-10.892-3.259-24.52-5.493-34.411-11.41c-6.829-4.082-9.948-10.677-15.408-15.736
										c-11.152-10.324-25.446-18.98-37.403-27.689c9.952,8.227,15.112,23.444,23.221,33.593
										c6.906,8.644,15.302,16.729,22.92,24.586C294.722-12,304.422-3.434,315.64,4.292c29.32,20.2,55.533,41.314,81.73,64.938
										c19.669,17.727,44.511,37.729,71.181,41.563C480.637,112.528,511.57,100.293,511.57,100.293z"/>
									<path fill="#167259" d="M472.478,81.86c5.428,5.432,9.355,11.42,14.11,17.359c11.757,14.694,28.04,21.879,44.488,31.11
										c39.108,21.941,76.48,29.978,121.196,30.358c67.237,0.573,135.088-1.229,202.216-2.119
										c-15.126-7.822-34.63-10.356-50.846-15.619c-16.682-5.418-33.334-11.322-50.523-14.845
										c-15.663-3.211-31.974-5.495-47.423-9.537c-42.646-11.159-84.729-13.821-128.08-19.291
										c-23.154-2.918-46.464-6.304-68.658-12.586c-9.557-2.706-29.167-13.892-37.913-6.935L472.478,81.86z"/>
									<path fill="#167259" d="M485.984,96.083c4.976-0.133,9.552,0.694,14.467,1.108c12.161,1.022,22.782-3.462,34.444-7.109
										c27.727-8.671,71.307-12.967,99.666-19.14c41.869-9.109,88.828-10.249,138.719-4.555
										C762.871,70.04,636.146-74.176,507.813,41.085c-36.77,33.024-22.866,47.465-23.457,54.729L485.984,96.083z"/>
									<path fill="#167259" d="M485.828,107.403c4.688,2.935,3.756,21.628,5.521,28.065c3.568,13.026,9.327,23.176,16.465,34.448
										c15.108,23.864,33.138,38.359,54.438,55.917c5.499,4.528,12.828,9.113,17.101,14.975c2.944,4.044,3.139,8.685,5.058,12.976
										c3.918,8.769,10.064,17.301,14.846,25.302c-3.741-7.236-3-17.458-5.206-25.393c-1.88-6.755-4.751-13.54-7.236-20.001
										c-3.105-8.079-6.62-15.456-11.213-22.705c-12.007-18.945-21.994-37.687-31.363-57.907
										c-7.032-15.175-16.5-32.931-30.979-41.579C506.7,107.583,485.828,107.403,485.828,107.403z"/>
								</g>
							</g>
						</g>
						<g>
							<path opacity="0.7" fill="#0E6A52" enable-background="new    " d="M507.813,93.417c4.118,1.205,23.211,6.162,26.828,7.999
								c3.638,1.849-2.119,6.689-4.84,8.123c-5.344,2.82-26.797,1.792-37.933,4.493c-6.593,1.6-16.448,8.813-26.556,20.304
								c-7.98,9.072-7.072-2.576-8.113-5.616c-1.101-3.203,7.087-16.367-13.981-17.902c-12.742-0.929-20.7-12.615-5.877-16.892
								c6.44-1.859,13.027-2.981,19.582-4.386C463.632,88.101,478.514,84.856,507.813,93.417z"/>
							<path fill="#167259" d="M440.75,91.715c2.286,14.706,27.646,10.244,41.613,11.667c8.924,0.913,17.585-0.12,26.327-1.153
								c5.561-0.655,17.785-0.69,21.113-4.097c-5.465-1.674-6.54-0.235-10.104-3.968c-3.571-3.737-7.745-6.599-10.036-11.079
								c-3.39-6.614-3.286-14.524-4.719-21.516c-1.375-6.714-2.929-12.667-2.949-19.428c-0.009-2.609,0.295-5.013,0.999-7.493
								c0.254-0.898,2.101-4.042,1.951-4.627c-0.626-2.385-2.951-2.159-6.469-2.281c-1.625-0.054-8.935-0.697-10.211,0.068
								c-2.002,1.198-1.32,5.591-1.926,7.317c-1.291,3.694-2.706,7.223-3.479,11.063c-2.103,10.428-5.986,22.012-12.357,31.528
								c-2.002,2.991-4.049,5.326-7.702,7.174c-4.7,2.381-13.83,6.396-19.521,6.065L440.75,91.715z"/>
							<path opacity="0.7" fill="#0E6A52" enable-background="new    " d="M440.75,91.715c2.286,14.706,27.646,10.244,41.613,11.667
								c8.924,0.913,17.585-0.12,26.327-1.153c-46.979-10.032-37.78-10.253-26.118-31.318c5.203-9.4,4.289-40.261,12.313-43.373
								c-2.655-0.134-5.817-0.207-6.616,0.271c-2.002,1.198-1.324,5.591-1.927,7.317c-1.294,3.694-2.706,7.223-3.479,11.063
								c-2.103,10.428-5.988,22.012-12.359,31.528c-2.002,2.991-4.049,5.326-7.7,7.174C458.1,87.273,440.75,91.715,440.75,91.715z"
								/>
						</g>
					</g>
				</g>
			</g>
			<g>
				<g>
					<defs>
						<rect id="SVGID_279_" x="-801" width="642" height="1098"/>
					</defs>
					<clipPath id="SVGID_28_">
						<use xlink:href="#SVGID_279_"  overflow="visible"/>
					</clipPath>
					<g clip-path="url(#SVGID_28_)">
						<g id="圖層_1_8_">
							<g opacity="0.3" enable-background="new    ">
								<g>
									<defs>
										<rect id="SVGID_281_" x="-1472.086" y="-1167.5" width="1984.174" height="1117"/>
									</defs>
									<clipPath id="SVGID_30_">
										<use xlink:href="#SVGID_281_"  overflow="visible"/>
									</clipPath>
									<g clip-path="url(#SVGID_30_)">
										<g opacity="0.9333">
											<path fill="none" stroke="#4B947B" stroke-width="9.2911" stroke-miterlimit="10" d="M-0.95-1238.303
												c0,26.15-20.646,26.15-20.646,52.301s20.646,26.15,20.646,52.301c0,26.151-20.646,26.15-20.646,52.3
												c0,26.153,20.646,26.153,20.646,52.305c0,26.149-20.646,26.149-20.646,52.301c0,26.152,20.646,26.15,20.646,52.302
												c0,26.149-20.646,26.149-20.646,52.3S-0.95-846.042-0.95-819.891s-20.646,26.151-20.646,52.304
												c0,26.148,20.646,26.148,20.646,52.295c0,26.15-20.646,26.15-20.646,52.299c0,26.153,20.646,26.153,20.646,52.306
												c0,26.149-20.646,26.149-20.646,52.299s20.646,26.15,20.646,52.301c0,26.151-20.646,26.15-20.646,52.3
												c0,26.15,20.646,26.15,20.646,52.301c0,26.152-20.646,26.152-20.646,52.303c0,26.152,20.646,26.152,20.646,52.305
												c0,26.153-20.646,26.152-20.646,52.306c0,26.151,20.646,26.151,20.646,52.304s-20.646,26.152-20.646,52.307
												c0,26.15,20.646,26.15,20.646,52.304c0,26.152-20.646,26.152-20.646,52.305S-0.95-9.204-0.95,16.949
												c0,26.152-20.646,26.152-20.646,52.305c0,26.156,20.646,26.156,20.646,52.313c0,26.157-20.646,26.156-20.646,52.313"/>
										</g>
										<g opacity="0.9429">
											<path fill="none" stroke="#4B947B" stroke-width="9.2911" stroke-miterlimit="10" d="M115.569-1229.931
												c0,26.149-20.646,26.149-20.646,52.301c0,26.149,20.646,26.149,20.646,52.301c0,26.149-20.646,26.149-20.646,52.3
												s20.646,26.151,20.646,52.303c0,26.15-20.646,26.15-20.646,52.301c0,26.152,20.646,26.152,20.646,52.304
												c0,26.15-20.646,26.15-20.646,52.301s20.646,26.151,20.646,52.302c0,26.15-20.646,26.149-20.646,52.302
												c0,26.148,20.646,26.148,20.646,52.297s-20.646,26.148-20.646,52.298c0,26.151,20.646,26.151,20.646,52.305
												c0,26.148-20.646,26.148-20.646,52.299c0,26.15,20.646,26.149,20.646,52.302c0,26.149-20.646,26.149-20.646,52.3
												c0,26.151,20.646,26.15,20.646,52.301s-20.646,26.151-20.646,52.303s20.646,26.152,20.646,52.305
												c0,26.153-20.646,26.152-20.646,52.307c0,26.152,20.646,26.152,20.646,52.305s-20.646,26.153-20.646,52.306
												c0,26.153,20.646,26.152,20.646,52.304c0,26.152-20.646,26.152-20.646,52.305s20.646,26.153,20.646,52.307
												c0,26.152-20.646,26.152-20.646,52.305c0,26.156,20.646,26.156,20.646,52.313c0,26.157-20.646,26.156-20.646,52.313"/>
										</g>
										<g opacity="0.9524">
											<path fill="none" stroke="#4B947B" stroke-width="9.2911" stroke-miterlimit="10" d="M232.087-1221.559
												c0,26.15-20.646,26.15-20.646,52.301c0,26.151,20.646,26.15,20.646,52.301c0,26.151-20.646,26.15-20.646,52.301
												s20.646,26.151,20.646,52.303c0,26.15-20.646,26.15-20.646,52.301c0,26.151,20.646,26.151,20.646,52.303
												c0,26.149-20.646,26.149-20.646,52.301s20.646,26.152,20.646,52.302c0,26.151-20.646,26.151-20.646,52.303
												c0,26.147,20.646,26.147,20.646,52.296s-20.646,26.149-20.646,52.299c0,26.151,20.646,26.151,20.646,52.304
												c0,26.149-20.646,26.149-20.646,52.299c0,26.149,20.646,26.149,20.646,52.302c0,26.149-20.646,26.149-20.646,52.301
												c0,26.15,20.646,26.15,20.646,52.299c0,26.152-20.646,26.152-20.646,52.304s20.646,26.152,20.646,52.304
												c0,26.153-20.646,26.153-20.646,52.307c0,26.151,20.646,26.151,20.646,52.305c0,26.152-20.646,26.152-20.646,52.307
												c0,26.152,20.646,26.152,20.646,52.304c0,26.152-20.646,26.152-20.646,52.305s20.646,26.153,20.646,52.306
												c0,26.153-20.646,26.153-20.646,52.306c0,26.157,20.646,26.157,20.646,52.313c0,26.157-20.646,26.157-20.646,52.313"/>
										</g>
										<g opacity="0.9619">
											<path fill="none" stroke="#4B947B" stroke-width="9.2911" stroke-miterlimit="10" d="M348.607-1213.188
												c0,26.15-20.646,26.15-20.646,52.301c0,26.149,20.646,26.149,20.646,52.301c0,26.149-20.646,26.149-20.646,52.301
												c0,26.152,20.646,26.152,20.646,52.304c0,26.149-20.646,26.149-20.646,52.301c0,26.15,20.646,26.15,20.646,52.302
												c0,26.15-20.646,26.15-20.646,52.301c0,26.151,20.646,26.151,20.646,52.302s-20.646,26.151-20.646,52.304
												c0,26.148,20.646,26.148,20.646,52.295c0,26.15-20.646,26.15-20.646,52.299c0,26.152,20.646,26.152,20.646,52.304
												c0,26.149-20.646,26.149-20.646,52.299c0,26.151,20.646,26.151,20.646,52.303c0,26.15-20.646,26.15-20.646,52.3
												c0,26.15,20.646,26.15,20.646,52.301c0,26.151-20.646,26.151-20.646,52.303s20.646,26.152,20.646,52.305
												c0,26.154-20.646,26.154-20.646,52.307c0,26.153,20.646,26.152,20.646,52.304c0,26.153-20.646,26.153-20.646,52.306
												c0,26.153,20.646,26.152,20.646,52.305c0,26.153-20.647,26.147-20.647,52.3c0,26.153,20.646,26.153,20.646,52.306
												S327.96,68.218,327.96,94.371c0,26.156,20.646,26.156,20.646,52.312c0,26.156-20.646,26.156-20.646,52.313"/>
										</g>
										<g opacity="0.9714">
											<path fill="none" stroke="#4B947B" stroke-width="9.2911" stroke-miterlimit="10" d="M465.126-1204.815
												c0,26.151-20.646,26.151-20.646,52.301c0,26.151,20.646,26.151,20.646,52.301s-20.646,26.15-20.646,52.301
												c0,26.151,20.646,26.151,20.646,52.303c0,26.15-20.646,26.15-20.646,52.302c0,26.152,20.646,26.152,20.646,52.304
												c0,26.15-20.646,26.15-20.646,52.301c0,26.151,20.646,26.151,20.646,52.302c0,26.149-20.646,26.149-20.646,52.301
												c0,26.148,20.646,26.148,20.646,52.297s-20.646,26.149-20.646,52.299c0,26.151,20.646,26.151,20.646,52.304
												c0,26.149-20.646,26.149-20.646,52.3s20.646,26.15,20.646,52.301c0,26.151-20.646,26.15-20.646,52.301
												c0,26.151,20.646,26.15,20.646,52.302c0,26.152-20.646,26.151-20.646,52.302c0,26.152,20.646,26.152,20.646,52.304
												c0,26.153-20.646,26.153-20.646,52.306c0,26.153,20.646,26.152,20.646,52.305s-20.646,26.153-20.646,52.307
												c0,26.151,20.646,26.151,20.646,52.302c0,26.151-20.646,26.151-20.646,52.306c0,26.15,20.646,26.15,20.646,52.305
												c0,26.153-20.646,26.153-20.646,52.305c0,26.157,20.646,26.157,20.646,52.314c0,26.156-20.646,26.156-20.646,52.313"/>
										</g>
									</g>
								</g>
							</g>
						</g>
					</g>
				</g>
			</g>
		</g>
	</g>
</g>
</svg>
