<?xml version="1.0" encoding="utf-8"?>
<!-- Generator: Adobe Illustrator 16.0.0, SVG Export Plug-In . SVG Version: 6.00 Build 0)  -->
<!DOCTYPE svg PUBLIC "-//W3C//DTD SVG 1.1//EN" "http://www.w3.org/Graphics/SVG/1.1/DTD/svg11.dtd">
<svg version="1.1" id="圖層_1" xmlns="http://www.w3.org/2000/svg" xmlns:xlink="http://www.w3.org/1999/xlink" x="0px" y="0px"
	 width="80px" height="16px" viewBox="0 0 80 16" enable-background="new 0 0 80 16" xml:space="preserve">
<g>
	<g transform="translate(0, 0)">
		<path fill="#F1AC14" d="M13,32.625H3c-0.6,0-1-0.4-1-1v-8H0v-2h3c0.6,0,1,0.4,1,1v1h11c0.9,0,1,1,1,1.3l-2,7
			C13.8,32.325,13.4,32.625,13,32.625z M4,30.625h8.2l1.4-5H4V30.625z"/>
		<circle fill="#F1AC14" cx="3" cy="35.625" r="2"/>
		<circle fill="#F1AC14" cx="13" cy="35.625" r="2"/>
	</g>
	<g transform="translate(16, 0)">
		<path fill="#F1AC14" d="M15,22.625H1c-0.6,0-1,0.4-1,1v12c0,0.6,0.4,1,1,1h14c0.6,0,1-0.4,1-1v-12
			C16,23.025,15.6,22.625,15,22.625z M14,34.625H2v-6.3l5.5,3.1c0.2,0.2,0.3,0.2,0.5,0.2s0.3,0,0.5-0.1l5.5-3.2V34.625z M14,26.025
			l-6,3.399l-6-3.399v-1.4h12V26.025z"/>
	</g>
	<g transform="translate(32, 0)">
		<path fill="#F1AC14" d="M3,37.625h10c0.6,0,1-0.4,1-1v-7.5l0.3,0.3c0.2,0.101,0.5,0.2,0.7,0.2c0.3,0,0.6-0.1,0.8-0.3
			c0.4-0.4,0.3-1-0.1-1.4l-7-6c-0.4-0.3-0.9-0.3-1.3,0l-3.4,2.8v-1.1c0-0.6-0.4-1-1-1s-1,0.4-1,1v2.8l-1.7,1.4
			c-0.4,0.399-0.5,1-0.1,1.399c0.4,0.4,1,0.5,1.4,0.101l0.4-0.2v7.5C2,37.225,2.4,37.625,3,37.625z M4,27.325l4-3.4l4,3.5
			c0,0.101,0,0.101,0,0.2v8h-2v-3c0-0.6-0.4-1-1-1H7c-0.6,0-1,0.4-1,1v3H4V27.325z"/>
		<rect x="6" y="27.625" fill="#F1AC14" width="4" height="2"/>
	</g>
	<g transform="translate(48, 0)">
		<circle fill="#F1AC14" cx="6" cy="29.625" r="2"/>
		<path fill="#F1AC14" d="M10,23.625H6c-3.3,0-6,2.7-6,6s2.7,6,6,6h4c3.3,0,6-2.7,6-6S13.3,23.625,10,23.625z M10,33.625H6
			c-2.2,0-4-1.8-4-4s1.8-4,4-4h4c2.2,0,4,1.8,4,4S12.2,33.625,10,33.625z"/>
	</g>
	<g transform="translate(64, 0)">
		<path fill="#F1AC14" d="M6,21.625H1c-0.6,0-1,0.4-1,1v5c0,0.6,0.4,1,1,1h5c0.6,0,1-0.4,1-1v-5C7,22.025,6.6,21.625,6,21.625z
			 M5,26.625H2v-3h3V26.625z"/>
		<path fill="#F1AC14" d="M15,21.625h-5c-0.6,0-1,0.4-1,1v5c0,0.6,0.4,1,1,1h5c0.6,0,1-0.4,1-1v-5C16,22.025,15.6,21.625,15,21.625z
			 M14,26.625h-3v-3h3V26.625z"/>
		<path fill="#F1AC14" d="M6,30.625H1c-0.6,0-1,0.4-1,1v5c0,0.6,0.4,1,1,1h5c0.6,0,1-0.4,1-1v-5C7,31.025,6.6,30.625,6,30.625z
			 M5,35.625H2v-3h3V35.625z"/>
		<path fill="#F1AC14" d="M15,30.625h-5c-0.6,0-1,0.4-1,1v5c0,0.6,0.4,1,1,1h5c0.6,0,1-0.4,1-1v-5C16,31.025,15.6,30.625,15,30.625z
			 M14,35.625h-3v-3h3V35.625z"/>
	</g>
</g>
<rect y="-6.95" fill="none" stroke="#F1AC14" stroke-miterlimit="10" width="16" height="2.795"/>
<rect x="16" y="-6.95" fill="none" stroke="#F1AC14" stroke-miterlimit="10" width="16" height="2.795"/>
<rect x="32" y="-6.95" fill="none" stroke="#F1AC14" stroke-miterlimit="10" width="16" height="2.795"/>
<rect x="48" y="-6.95" fill="none" stroke="#F1AC14" stroke-miterlimit="10" width="16" height="2.795"/>
<rect x="64" y="-6.95" fill="none" stroke="#F1AC14" stroke-miterlimit="10" width="16" height="2.795"/>
<path fill="#C86B24" d="M-40.836,31.143c-5.929,0-9.207-1.324-9.48-3.829c-0.099-0.907,0.08-1.602,0.546-2.122
	c0.814-0.907,2.262-1.073,4.821-1.073c0.532,0,1.11,0.007,1.735,0.014c0.728,0.009,1.519,0.019,2.375,0.019
	c0.594,0,1.155-0.003,1.688-0.006c0.487-0.003,0.95-0.006,1.389-0.006c2.849,0,4.939,0.085,5.902,1.188
	c0.445,0.509,0.613,1.185,0.502,2.008C-31.696,29.825-34.974,31.143-40.836,31.143z"/>
<path fill="#1B896A" d="M-38.768-13.733c-0.392,0-0.815-0.079-1.333-0.249c-0.29-0.095-0.523-0.207-0.711-0.296
	c-0.277-0.133-0.408-0.191-0.583-0.191c-0.257,0-0.653,0.13-1.176,0.387c-0.46,0.225-0.88,0.335-1.284,0.335
	c-0.688,0-1.175-0.312-1.606-0.587c-0.34-0.217-0.661-0.422-1.112-0.507c-0.42-0.078-0.735,0.044-1.167,0.225
	c-0.32,0.134-0.684,0.285-1.14,0.367c-0.786,0.141-1.595-0.248-1.996-0.951c-0.374-0.657-0.343-1.477,0.082-2.193
	c0.718-1.209,1.615-1.749,2.911-1.749c0.544,0,1.135,0.087,1.817,0.188c0.224,0.02,2.242,0.187,5.144,0.187
	c2.236,0,4.429-0.097,6.517-0.289l0,0c0,0,0.191-0.02,0.481-0.02c1.706,0,2.882,0.66,3.225,1.81
	c0.273,0.915,0.213,1.644-0.176,2.167c-0.235,0.315-0.694,0.69-1.55,0.69c-0.465,0-1.003-0.118-1.514-0.333
	c-0.217-0.092-0.667-0.246-1.222-0.246c-0.609,0-1.176,0.186-1.685,0.552C-37.521-13.949-38.113-13.733-38.768-13.733z"/>
<g>
	<path fill="#4B2E2C" d="M-32.013,16.884c0,0.435-0.345,0.787-0.771,0.787h-16.1c-0.426,0-0.771-0.353-0.771-0.787v-0.541
		c0-0.435,0.345-0.787,0.771-0.787h16.1c0.426,0,0.771,0.353,0.771,0.787V16.884z"/>
	<path fill="#4B2E2C" d="M-32.784,18.458h-16.1c-0.859,0-1.558-0.706-1.558-1.574v-0.541c0-0.868,0.699-1.574,1.558-1.574h16.1
		c0.859,0,1.558,0.706,1.558,1.574v0.541C-31.226,17.752-31.925,18.458-32.784,18.458z M-48.884,16.343l0.016,0.541h16.067
		l0.001-0.541H-48.884z"/>
</g>
<g>
	<g>
		<path fill="#DD3B3D" d="M-40.244-4.41c-0.042,0.476-0.453,0.83-0.919,0.79l-8.398-0.721c-0.467-0.04-0.812-0.459-0.771-0.935
			l0.05-0.593c0.041-0.476,0.453-0.83,0.919-0.79l8.397,0.721c0.467,0.04,0.813,0.458,0.771,0.935L-40.244-4.41z"/>
	</g>
	<g>
		<path fill="#DD3B3D" d="M-31.455-4.207c-0.088,0.47-0.531,0.782-0.992,0.696l-8.288-1.533c-0.46-0.085-0.764-0.535-0.676-1.005
			l0.107-0.585c0.087-0.47,0.531-0.782,0.992-0.697l8.288,1.533c0.461,0.085,0.764,0.535,0.676,1.005L-31.455-4.207z"/>
	</g>
</g>
<g>
	<path fill="#F1AC14" d="M-49.062,4.592h16.558c0,0-0.606,0.628-1.473,0.819c-0.967,0.213-1.563,0.584-1.885,1.017
		c-0.52,0.699-0.489-0.949-1.935-0.949c-0.77,0-1.035,0.396-1.213,0.522c-0.146,0.104-0.314-0.054-0.492-0.213
		c-0.935-0.836-1.25-0.863-2.525-0.889C-46.729,4.806-49.77,5.09-49.062,4.592z"/>
	<path fill="#F1AC14" d="M-36.095,7.388c-0.513,0-0.786-0.38-0.967-0.631c-0.231-0.323-0.37-0.491-0.735-0.491
		c-0.325,0-0.436,0.1-0.575,0.226c-0.068,0.063-0.13,0.114-0.184,0.153c-0.164,0.115-0.356,0.177-0.555,0.177
		c-0.417,0-0.708-0.26-0.9-0.433c-0.756-0.677-0.852-0.679-2.031-0.702c-1.608-0.032-3.021-0.02-4.155-0.01
		c-0.476,0.004-0.888,0.02-1.275,0.007c-1.427,0-2.214-0.002-2.44-0.715c-0.045-0.142-0.15-0.636,0.397-1.021
		c0.132-0.093,0.291-0.144,0.453-0.144h16.558c0.315,0,0.601,0.188,0.725,0.479c0.123,0.29,0.061,0.626-0.158,0.854
		c-0.079,0.082-0.802,0.807-1.87,1.042c-0.879,0.194-1.259,0.498-1.423,0.718C-35.473,7.223-35.764,7.387-36.095,7.388z"/>
</g>
<g>
	<g>
		<circle fill="#1B896A" cx="4.258" cy="-23.87" r="2.894"/>
		<circle fill="#1B896A" cx="10.509" cy="-15.297" r="2.678"/>
		
			<ellipse transform="matrix(-0.9895 -0.1442 0.1442 -0.9895 15.3876 -28.1082)" fill="#1B896A" cx="6.675" cy="-14.612" rx="2.722" ry="2.319"/>
		<circle fill="#1B896A" cx="7.898" cy="-25.485" r="2.73"/>
		<circle fill="#1B896A" cx="3.541" cy="-17.405" r="3.086"/>
		<circle fill="#1B896A" cx="11.738" cy="-24.979" r="2.107"/>
		<path fill="#1B896A" d="M11.697-18.894c0.823-0.822,2.158-0.824,2.979,0c0.823,0.821,0.822,2.158,0,2.979
			c-0.823,0.824-2.156,0.822-2.98-0.002C10.875-16.736,10.874-18.073,11.697-18.894z"/>
		<circle fill="#1B896A" cx="2.373" cy="-20.976" r="2.222"/>
		<circle fill="#1B896A" cx="12.614" cy="-21.097" r="3.236"/>
		<ellipse fill="#1B896A" cx="8.563" cy="-20.696" rx="5.031" ry="5.026"/>
	</g>
	<g opacity="0.2">
		<circle fill="#1B896A" cx="5.172" cy="-17.332" r="2.171"/>
		<circle fill="#1B896A" cx="11.604" cy="-22.022" r="2.01"/>
		
			<ellipse transform="matrix(-0.1442 0.9896 -0.9896 -0.1442 -5.0798 -33.8977)" fill="#1B896A" cx="12.119" cy="-19.146" rx="2.042" ry="1.74"/>
		<circle fill="#1B896A" cx="3.96" cy="-20.063" r="2.049"/>
		<circle fill="#1B896A" cx="10.024" cy="-16.793" r="2.315"/>
		<circle fill="#1B896A" cx="4.339" cy="-22.945" r="1.581"/>
		<circle fill="#1B896A" cx="10.023" cy="-24.032" r="1.581"/>
		<circle fill="#1B896A" cx="7.344" cy="-15.917" r="1.668"/>
		<circle fill="#1B896A" cx="7.253" cy="-23.601" r="2.428"/>
		<path fill="#1B896A" d="M3.782-20.563c0-2.084,1.689-3.774,3.771-3.774c2.082,0,3.771,1.692,3.771,3.777
			c0,2.083-1.689,3.772-3.771,3.773C5.471-16.786,3.782-18.477,3.782-20.563z"/>
	</g>
	<g>
		<circle fill="#1B896A" cx="8.215" cy="-22.6" r="1.614"/>
		<circle fill="#1B896A" cx="9.829" cy="-22.321" r="1.299"/>
		<circle fill="#1B896A" cx="10.326" cy="-21.057" r="1.299"/>
		<path fill="#1B896A" d="M8.112-22.776c0.951-0.041,1.753,0.696,1.792,1.646c0.041,0.95-0.695,1.753-1.646,1.791
			c-0.95,0.043-1.751-0.693-1.792-1.645C6.424-21.933,7.161-22.736,8.112-22.776z"/>
		<circle fill="#1B896A" cx="6.481" cy="-21.891" r="1.24"/>
	</g>
</g>
<circle fill="#1B896A" cx="-14.288" cy="8.869" r="2.025"/>
<g>
	<circle fill="#1B896A" cx="-74.083" cy="1.583" r="4"/>
	<circle fill="#1B896A" cx="-65.25" cy="10.417" r="4.001"/>
	<circle fill="#1B896A" cx="-69.665" cy="12.245" r="4"/>
	<circle fill="#1B896A" cx="-69.665" cy="-0.246" r="4"/>
	<circle fill="#1B896A" cx="-74.082" cy="10.416" r="4"/>
	<circle fill="#1B896A" cx="-65.249" cy="1.583" r="4.001"/>
	<circle fill="#1B896A" cx="-75.912" cy="6" r="4"/>
	<circle fill="#1B896A" cx="-63.42" cy="6" r="4"/>
	<circle fill="#1B896A" cx="-69.666" cy="6" r="4"/>
</g>
<g>
	<path fill="#DD3B3D" d="M19.127-26.508c3.222-2.418,8.16-2.222,11.048,1.63c2.972,3.959,1.696,8.646-1.527,11.063
		c-3.223,2.417-8.6,1.636-11.049-1.63C15.148-18.709,15.904-24.09,19.127-26.508z"/>
	<g>
		<g>
			<path opacity="0.9" fill="#DD3B3D" d="M21.95-18.634c-0.539,0.314-2.861,1.662-2.886,2.068c-0.065,1.064,1.792,2.143,2.371,2.389
				c1.093,0.461,2.617,0.512,3.471,0.494c0.563-0.008,3.166-0.803,3.879-1.887c0.479-0.73-0.198-1.092-0.64-1.486
				c-0.468-0.416-0.931-0.813-1.388-1.23c-0.472-0.43-1.668-1.645-2.35-1.098c-0.55,0.438,0.662,1.299-0.057,1.611
				c-0.547,0.238-0.522-1.18-0.542-1.395c-0.023-0.223-0.422-0.16-0.8,0.014C22.59-18.964,22.125-18.734,21.95-18.634z"/>
			<path fill="#F1AC14" d="M24.005-17.048c0,0-0.929,1.244-0.542,1.684c0.34,0.381,0.796,0.209,0.922-0.031
				C24.512-15.636,24.438-16.304,24.005-17.048z"/>
			<path fill="#F1AC14" d="M22.843-17.285c0,0-1.522,0.305-1.528,0.889c-0.003,0.514,0.452,0.689,0.706,0.596
				S22.668-16.441,22.843-17.285z"/>
			<path fill="#F1AC14" d="M25.28-17.423c0,0,0.091,1.551,0.669,1.637c0.506,0.074,0.746-0.352,0.687-0.615
				C26.578-16.667,26.092-17.132,25.28-17.423z"/>
		</g>
		<g>
			<path opacity="0.9" fill="#DD3B3D" d="M23.554-23.014c-0.009-0.622-0.047-3.308-0.391-3.53c-0.896-0.577-2.746,0.513-3.243,0.897
				c-0.936,0.727-1.727,2.032-2.131,2.783c-0.267,0.495-0.853,3.153-0.254,4.311c0.401,0.771,1.047,0.359,1.609,0.17
				c0.592-0.207,1.165-0.416,1.754-0.607c0.605-0.203,2.248-0.65,2.107-1.514c-0.112-0.694-1.454-0.059-1.377-0.839
				c0.06-0.593,1.284,0.124,1.481,0.209c0.206,0.089,0.347-0.289,0.383-0.705C23.527-22.293,23.557-22.81,23.554-23.014z"/>
			<path fill="#F1AC14" d="M21.167-21.989c0,0-0.632-1.419-1.203-1.296c-0.5,0.109-0.574,0.592-0.426,0.817
				C19.687-22.239,20.306-21.976,21.167-21.989z"/>
			<path fill="#F1AC14" d="M21.939-22.886c0,0,0.482-1.478-0.024-1.768c-0.446-0.253-0.821,0.055-0.864,0.323
				C21.007-24.063,21.291-23.454,21.939-22.886z"/>
			<path fill="#F1AC14" d="M20.868-20.694c0,0-1.395-0.679-1.755-0.218c-0.311,0.407-0.057,0.822,0.202,0.901
				C19.574-19.933,20.219-20.129,20.868-20.694z"/>
		</g>
		<g>
			<path opacity="0.9" fill="#DD3B3D" d="M26.563-19.353c0.537,0.316,2.848,1.682,3.217,1.504c0.959-0.463,0.994-2.611,0.922-3.236
				c-0.133-1.176-0.834-2.532-1.266-3.268c-0.285-0.486-2.249-2.37-3.545-2.462c-0.87-0.059-0.857,0.707-0.983,1.286
				c-0.135,0.613-0.253,1.211-0.395,1.814c-0.146,0.622-0.617,2.257,0.193,2.586c0.65,0.267,0.808-1.21,1.433-0.738
				c0.475,0.359-0.775,1.033-0.951,1.155c-0.183,0.129,0.067,0.445,0.403,0.692C25.961-19.751,26.388-19.457,26.563-19.353z"/>
			<path fill="#F1AC14" d="M26.932-21.917c0,0,1.542,0.2,1.733-0.351c0.169-0.486-0.207-0.797-0.475-0.792
				C27.917-23.052,27.37-22.66,26.932-21.917z"/>
			<path fill="#F1AC14" d="M27.296-20.79c0,0,1.009,1.179,1.522,0.899c0.447-0.249,0.381-0.73,0.175-0.907
				C28.787-20.974,28.117-21.048,27.296-20.79z"/>
			<path fill="#F1AC14" d="M25.982-22.847c0,0,1.308-0.838,1.1-1.384c-0.182-0.478-0.67-0.477-0.873-0.297
				S25.84-23.695,25.982-22.847z"/>
		</g>
	</g>
</g>
<g>
	<path fill="#F1AC14" d="M32.915-26.981c1.107-0.627,5.964-0.829,9.77-0.638c1.202,0.06,3.396-0.07,4.37,0.675
		c0.438,0.334,0.383,0.696,0.436,1.244c0.341,3.505,0.283,7.183,0.178,10.727c-0.029,0.991,0.197,1.584-0.782,1.841
		c-0.406,0.106-4.19,0.193-5.546,0.074c-1.739-0.153-3.556,0.001-5.304,0.001c-0.752,0-2.707,0.202-3.346-0.187
		c-0.689-0.418-0.362-2.104-0.362-2.87c0-1.594,0.15-2.72,0.105-4.583c-0.023-0.969-0.135-1.874-0.139-2.846
		C32.292-24.561,32.38-26.678,32.915-26.981z"/>
	<path opacity="0.5" fill="#F1AC14" d="M47.668-14.973c0.105-3.544,0.163-7.221-0.178-10.727c-0.053-0.548,0.003-0.91-0.436-1.244
		c-0.195-0.151-0.45-0.258-0.728-0.345c0.029,0.543,0.005,1.105,0.056,1.458c0.21,1.443,0.154,2.893,0.201,4.756
		c0.022,0.969-0.003,1.907,0,2.879c0.002,1.021,0.111,3.586-0.241,3.775c-1.277,0.688-6.517,0.122-10.551,0.301
		c-0.925,0.041-2.409,0.06-3.531-0.235c0.024,0.49,0.125,0.926,0.43,1.11c0.639,0.389,2.594,0.187,3.346,0.187
		c1.748,0,3.565-0.154,5.304-0.001c1.355,0.119,5.14,0.032,5.546-0.074C47.865-13.389,47.639-13.982,47.668-14.973z"/>
</g>
<path opacity="0.3" fill="#F1AC14" d="M-5.646,23.301c0.091-3.069,0.141-6.256-0.154-9.293c-0.044-0.463-0.007-0.771-0.355-1.055
	c0.064,0.555,0.021,1.199,0.076,1.574c0.182,1.25,0.133,2.506,0.174,4.12c0.02,0.839-0.003,1.651,0,2.494
	c0.002,0.883,0.096,3.106-0.21,3.271c-1.104,0.596-5.646,0.104-9.141,0.26c-0.995,0.044-2.734,0.053-3.691-0.446
	c0.053,0.253,0.146,0.465,0.325,0.572c0.553,0.336,2.247,0.162,2.898,0.162c1.515,0,3.089-0.134,4.596-0.001
	c1.174,0.103,4.452,0.027,4.804-0.065C-5.476,24.672-5.672,24.158-5.646,23.301z"/>
<g>
	<path fill="#28100E" d="M56.566-28.155c4.012,0.288,7.606,3.67,7.261,8.466c-0.354,4.931-4.385,7.629-8.399,7.34
		c-4.012-0.289-7.554-4.399-7.261-8.467C48.459-24.882,52.553-28.442,56.566-28.155z"/>
	<path fill="#4B2E2C" d="M50.609-25.305c2.564-2.736,7.125-3.351,10.395-0.284c3.36,3.15,2.946,7.653,0.38,10.39
		c-2.566,2.734-7.621,2.884-10.395,0.283C48.217-17.514,48.044-22.569,50.609-25.305z"/>
	<g>
		<path fill="#4A2E2B" d="M55.304-25.938c0.578-0.533,1.799,0.985,3.429,2.344c1.628,1.359,3.297,2.896,3.135,3.047
			c-0.531,0.501-1.623-0.736-3.252-2.093C56.986-23.999,55.142-25.789,55.304-25.938z"/>
		<path fill="#4A2E2B" d="M52.13-25.137c0.595-0.499,2.464,1.566,4.806,3.531c2.341,1.964,4.77,4.149,4.602,4.292
			c-0.55,0.469-2.189-1.229-4.529-3.194C54.666-22.473,51.96-24.995,52.13-25.137z"/>
		<path fill="#4A2E2B" d="M50.626-22.852c0.572-0.484,2.338,1.45,4.552,3.284c2.211,1.835,4.508,3.875,4.348,4.014
			c-0.528,0.457-2.078-1.137-4.291-2.97C53.021-20.358,50.462-22.715,50.626-22.852z"/>
		<path fill="#4A2E2B" d="M49.794-20c0.548-0.492,1.896,1.064,3.646,2.485c1.751,1.419,3.555,3.018,3.399,3.159
			c-0.504,0.46-1.699-0.811-3.45-2.231C51.64-18.006,49.639-19.862,49.794-20z"/>
		<path fill="#4A2E2B" d="M61.748-20.996c0.533,0.578-0.989,1.804-2.353,3.438c-1.363,1.631-2.903,3.308-3.057,3.145
			c-0.499-0.53,0.74-1.625,2.102-3.262C59.805-19.307,61.598-21.159,61.748-20.996z"/>
		<path fill="#4A2E2B" d="M60.95-24.176c0.499,0.596-1.571,2.473-3.544,4.82c-1.971,2.349-4.162,4.785-4.304,4.617
			c-0.47-0.548,1.235-2.194,3.206-4.543C58.279-21.629,60.809-24.344,60.95-24.176z"/>
		<path fill="#4A2E2B" d="M58.665-25.678c0.484,0.573-1.456,2.343-3.296,4.564c-1.841,2.221-3.886,4.524-4.025,4.362
			c-0.457-0.527,1.141-2.083,2.98-4.303C56.165-23.275,58.527-25.841,58.665-25.678z"/>
		<path fill="#4A2E2B" d="M55.81-26.506c0.493,0.547-1.068,1.899-2.493,3.655c-1.426,1.755-3.026,3.564-3.168,3.409
			c-0.46-0.504,0.813-1.703,2.239-3.459C53.812-24.655,55.673-26.662,55.81-26.506z"/>
	</g>
</g>
<g>
	<path fill="#C86B24" d="M72.566-28.155c4.012,0.288,7.606,3.67,7.261,8.466c-0.354,4.931-4.385,7.629-8.399,7.34
		c-4.012-0.289-7.554-4.399-7.261-8.467C64.459-24.882,68.553-28.442,72.566-28.155z"/>
	<g>
		<path fill="#EFD694" d="M72.401-17.152c0,0-0.329,1.598,0.232,1.84c0.495,0.215,0.85-0.154,0.864-0.436
			C73.512-16.033,73.144-16.636,72.401-17.152z"/>
		<path fill="#EFD694" d="M70.085-17.897c0,0-1.547,0.514-1.477,1.121c0.063,0.535,0.559,0.658,0.81,0.529
			C69.671-16.375,70.009-16.997,70.085-17.897z"/>
		<path fill="#EFD694" d="M72.598-19.233c0,0-1.24-1.06-1.723-0.685c-0.426,0.33-0.275,0.817-0.035,0.966
			C71.083-18.799,71.787-18.833,72.598-19.233z"/>
		<path fill="#EFD694" d="M68.563-21.872c0,0,1.585-0.384,1.564-0.995c-0.018-0.538-0.502-0.702-0.763-0.594
			C69.101-23.352,68.715-22.762,68.563-21.872z"/>
		<path fill="#EFD694" d="M72.21-23.625c0,0,0.328-1.598-0.233-1.839c-0.496-0.213-0.85,0.155-0.865,0.437
			C71.099-24.742,71.468-24.139,72.21-23.625z"/>
		<path fill="#EFD694" d="M74.134-22.862c0,0,1.556,0.483,1.853-0.051c0.26-0.473-0.07-0.862-0.352-0.902
			C75.354-23.858,74.718-23.55,74.134-22.862z"/>
		<path fill="#EFD694" d="M72.598-21.671c0,0,0.705,1.469,1.299,1.324c0.523-0.129,0.583-0.637,0.424-0.871
			C74.159-21.453,73.501-21.71,72.598-21.671z"/>
		<path fill="#EFD694" d="M76.5-17.93c0,0-1.53-0.563-1.854-0.045c-0.285,0.457,0.025,0.863,0.303,0.92
			C75.228-16.999,75.879-17.274,76.5-17.93z"/>
		<path fill="#EFD694" d="M75.877-19.683c0,0,1.618-0.196,1.67-0.806c0.047-0.537-0.416-0.756-0.688-0.68
			C76.586-21.093,76.13-20.552,75.877-19.683z"/>
		<path fill="#EFD694" d="M66.699-20.214c0,0,0.945,1.328,1.506,1.084c0.493-0.217,0.466-0.727,0.27-0.93
			C68.274-20.265,67.583-20.407,66.699-20.214z"/>
	</g>
</g>
<g>
	<g>
		<circle fill="#1B896A" cx="36.259" cy="4.38" r="2.894"/>
		<circle fill="#1B896A" cx="42.509" cy="12.952" r="2.678"/>
		
			<ellipse transform="matrix(-0.9895 -0.1442 0.1442 -0.9895 74.9798 32.7082)" fill="#1B896A" cx="38.675" cy="13.637" rx="2.722" ry="2.319"/>
		<circle fill="#1B896A" cx="39.898" cy="2.764" r="2.729"/>
		<circle fill="#1B896A" cx="35.542" cy="10.844" r="3.086"/>
		<circle fill="#1B896A" cx="43.738" cy="3.27" r="2.108"/>
		<path fill="#1B896A" d="M43.697,9.355c0.822-0.822,2.158-0.824,2.979,0c0.823,0.82,0.822,2.158,0,2.979
			c-0.823,0.824-2.156,0.822-2.979-0.002C42.875,11.514,42.874,10.176,43.697,9.355z"/>
		<circle fill="#1B896A" cx="34.373" cy="7.274" r="2.222"/>
		<circle fill="#1B896A" cx="44.614" cy="7.152" r="3.235"/>
		<ellipse fill="#1B896A" cx="40.563" cy="7.553" rx="5.031" ry="5.025"/>
	</g>
	<g>
		<circle fill="#006D4F" cx="37.172" cy="10.918" r="2.171"/>
		<circle fill="#006D4F" cx="43.604" cy="6.228" r="2.01"/>
		
			<ellipse transform="matrix(-0.1442 0.9896 -0.9896 -0.1442 59.4879 -33.2413)" fill="#006D4F" cx="44.119" cy="9.104" rx="2.042" ry="1.74"/>
		<circle fill="#006D4F" cx="35.96" cy="8.186" r="2.048"/>
		<path fill="#006D4F" d="M40.387,13.094c-0.904-0.906-0.905-2.371,0-3.273c0.904-0.906,2.369-0.906,3.274-0.002
			c0.903,0.904,0.903,2.369,0,3.275C42.756,13.996,41.291,13.996,40.387,13.094z"/>
		<circle fill="#006D4F" cx="36.339" cy="5.305" r="1.581"/>
		<path fill="#006D4F" d="M40.905,5.335c-0.616-0.618-0.618-1.619,0-2.236c0.616-0.617,1.62-0.617,2.235,0
			c0.619,0.618,0.617,1.618-0.001,2.237C42.525,5.953,41.521,5.954,40.905,5.335z"/>
		<circle fill="#006D4F" cx="39.344" cy="12.332" r="1.667"/>
		<circle fill="#006D4F" cx="39.253" cy="4.648" r="2.428"/>
		<path fill="#006D4F" d="M35.782,7.686c0-2.084,1.689-3.774,3.771-3.774c2.081,0,3.771,1.692,3.771,3.777
			c0,2.083-1.689,3.772-3.771,3.772C37.472,11.463,35.782,9.771,35.782,7.686z"/>
	</g>
	<g>
		<circle fill="#4E9D71" cx="40.215" cy="6.65" r="1.614"/>
		<circle fill="#4E9D71" cx="41.829" cy="6.929" r="1.299"/>
		<circle fill="#4E9D71" cx="42.326" cy="8.192" r="1.299"/>
		<path fill="#4E9D71" d="M40.112,6.474c0.95-0.041,1.753,0.696,1.792,1.646c0.041,0.95-0.695,1.753-1.646,1.79
			c-0.95,0.043-1.752-0.692-1.793-1.644C38.424,7.316,39.161,6.514,40.112,6.474z"/>
		<circle fill="#4E9D71" cx="38.481" cy="7.358" r="1.24"/>
	</g>
</g>
<g>
	<path fill="#DD3B3D" d="M67.127,1.741c3.222-2.418,8.16-2.222,11.048,1.63c2.972,3.959,1.696,8.646-1.527,11.063
		c-3.223,2.418-8.6,1.637-11.049-1.629C63.148,9.539,63.904,4.159,67.127,1.741z"/>
	<g>
		<g>
			<path fill="#BC121A" d="M69.95,9.615c-0.539,0.314-2.861,1.662-2.887,2.068c-0.065,1.064,1.793,2.143,2.371,2.389
				c1.092,0.461,2.616,0.512,3.471,0.494c0.563-0.008,3.166-0.803,3.879-1.887c0.479-0.73-0.197-1.092-0.64-1.486
				c-0.468-0.416-0.931-0.813-1.388-1.23c-0.473-0.43-1.668-1.645-2.351-1.098c-0.55,0.438,0.662,1.299-0.058,1.611
				c-0.547,0.238-0.521-1.18-0.541-1.395c-0.023-0.223-0.422-0.16-0.801,0.014C70.591,9.285,70.126,9.516,69.95,9.615z"/>
			<path fill="#F1AC14" d="M72.005,11.201c0,0-0.929,1.244-0.541,1.684c0.34,0.381,0.796,0.209,0.922-0.031
				S72.438,11.945,72.005,11.201z"/>
			<path fill="#F1AC14" d="M70.843,10.965c0,0-1.521,0.305-1.527,0.889c-0.004,0.514,0.451,0.689,0.705,0.596
				S70.668,11.809,70.843,10.965z"/>
			<path fill="#F1AC14" d="M73.28,10.826c0,0,0.091,1.551,0.669,1.637c0.507,0.074,0.745-0.352,0.687-0.615
				C74.577,11.582,74.092,11.117,73.28,10.826z"/>
		</g>
		<g>
			<path fill="#BC121A" d="M71.554,5.235c-0.01-0.622-0.047-3.308-0.391-3.53c-0.896-0.576-2.746,0.513-3.242,0.897
				c-0.937,0.727-1.727,2.032-2.132,2.783c-0.267,0.495-0.853,3.153-0.254,4.312c0.401,0.771,1.047,0.359,1.608,0.17
				c0.593-0.207,1.166-0.416,1.754-0.607c0.605-0.203,2.248-0.65,2.107-1.514c-0.112-0.694-1.454-0.06-1.377-0.84
				c0.061-0.593,1.284,0.124,1.48,0.21c0.206,0.089,0.348-0.289,0.384-0.705C71.527,5.956,71.557,5.439,71.554,5.235z"/>
			<path fill="#F1AC14" d="M69.167,6.261c0,0-0.632-1.42-1.203-1.297c-0.5,0.109-0.573,0.592-0.426,0.817
				C67.687,6.011,68.306,6.273,69.167,6.261z"/>
			<path fill="#F1AC14" d="M69.939,5.363c0,0,0.482-1.478-0.024-1.768c-0.446-0.253-0.821,0.056-0.864,0.323
				C69.007,4.187,69.29,4.796,69.939,5.363z"/>
			<path fill="#F1AC14" d="M68.868,7.556c0,0-1.395-0.68-1.755-0.219c-0.312,0.407-0.057,0.822,0.202,0.901
				C67.573,8.316,68.219,8.12,68.868,7.556z"/>
		</g>
		<g>
			<path fill="#BC121A" d="M74.563,8.896c0.536,0.316,2.848,1.682,3.217,1.504c0.959-0.463,0.993-2.611,0.922-3.236
				c-0.134-1.177-0.835-2.532-1.266-3.269c-0.285-0.486-2.249-2.37-3.545-2.462c-0.871-0.059-0.857,0.707-0.983,1.286
				c-0.136,0.613-0.253,1.211-0.396,1.814c-0.145,0.622-0.616,2.257,0.193,2.586c0.65,0.267,0.809-1.211,1.434-0.738
				c0.475,0.359-0.775,1.033-0.951,1.155c-0.183,0.129,0.066,0.445,0.403,0.692C73.961,8.498,74.388,8.793,74.563,8.896z"/>
			<path fill="#F1AC14" d="M74.932,6.333c0,0,1.542,0.199,1.733-0.352c0.169-0.485-0.207-0.797-0.475-0.791
				C75.917,5.197,75.37,5.59,74.932,6.333z"/>
			<path fill="#F1AC14" d="M75.296,7.46c0,0,1.01,1.179,1.521,0.898c0.447-0.249,0.382-0.729,0.176-0.906S76.117,7.201,75.296,7.46z
				"/>
			<path fill="#F1AC14" d="M73.981,5.402c0,0,1.309-0.838,1.1-1.384c-0.182-0.478-0.67-0.477-0.872-0.297S73.841,4.554,73.981,5.402
				z"/>
		</g>
	</g>
</g>
<g>
	<path fill="#F1AC14" d="M48.687,1.149c1.144-0.647,6.156-0.856,10.085-0.658c1.241,0.062,3.505-0.073,4.512,0.696
		c0.452,0.345,0.395,0.719,0.449,1.285c0.352,3.618,0.292,7.415,0.184,11.072c-0.03,1.024,0.203,1.636-0.808,1.901
		c-0.419,0.109-4.326,0.199-5.725,0.076c-1.796-0.159-3.671,0-5.476,0c-0.776,0-2.794,0.21-3.453-0.191
		c-0.712-0.432-0.375-2.174-0.375-2.963c0-1.646,0.155-2.807,0.108-4.731c-0.024-1-0.139-1.934-0.144-2.938
		C48.043,3.647,48.134,1.461,48.687,1.149z"/>
	<path fill="#F3981C" d="M63.916,13.544c0.108-3.657,0.168-7.454-0.184-11.072c-0.055-0.566,0.003-0.94-0.449-1.285
		c-0.202-0.156-0.465-0.266-0.751-0.356c0.03,0.561,0.005,1.142,0.057,1.505c0.217,1.49,0.159,2.986,0.208,4.91
		c0.023,1-0.003,1.969,0,2.973c0.002,1.053,0.115,3.702-0.249,3.898c-1.318,0.709-6.728,0.125-10.892,0.311
		c-0.955,0.041-2.488,0.06-3.646-0.244c0.024,0.506,0.129,0.955,0.444,1.146c0.659,0.401,2.677,0.191,3.453,0.191
		c1.805,0,3.68-0.159,5.476,0c1.398,0.123,5.306,0.033,5.725-0.076C64.119,15.18,63.886,14.568,63.916,13.544z"/>
</g>
<g>
	<path fill="#28100E" d="M8.577-0.056c4.088,0.293,7.751,3.74,7.399,8.627c-0.361,5.023-4.469,7.774-8.56,7.48
		c-4.088-0.295-7.698-4.484-7.399-8.629C0.315,3.279,4.487-0.35,8.577-0.056z"/>
	<path fill="#4B2E2C" d="M2.748,3.074C5.246,0.409,9.689-0.19,12.875,2.798c3.273,3.069,2.87,7.454,0.37,10.123
		c-2.5,2.663-7.425,2.808-10.126,0.275C0.417,10.663,0.249,5.74,2.748,3.074z"/>
	<path fill="#28100E" d="M6.662,2.744c0.669-0.629,1.945,1.015,3.683,2.458c1.736,1.443,3.508,3.084,3.32,3.263
		c-0.614,0.591-1.762-0.744-3.5-2.185C8.429,4.837,6.475,2.921,6.662,2.744z"/>
	<path fill="#28100E" d="M3.897,4.624c0.67-0.604,2.296,1.323,4.415,3.083c2.118,1.759,4.297,3.739,4.106,3.913
		c-0.62,0.564-2.061-1.008-4.178-2.767C6.122,7.093,3.706,4.795,3.897,4.624z"/>
	<path fill="#28100E" d="M2.535,7.426c0.63-0.583,1.985,1.044,3.787,2.493c1.803,1.447,3.652,3.092,3.472,3.257
		c-0.58,0.546-1.79-0.776-3.593-2.224C4.401,9.503,2.356,7.591,2.535,7.426z"/>
	<path fill="#28100E" d="M12.869,5.183c0.619,0.68-1.26,2.226-2.963,4.265c-1.703,2.031-3.621,4.125-3.799,3.934
		c-0.579-0.623,0.954-2.002,2.655-4.041C10.466,7.308,12.694,4.991,12.869,5.183z"/>
	<path fill="#28100E" d="M10.391,2.538c0.575,0.641-1.299,2.279-3.019,4.394c-1.721,2.113-3.648,4.294-3.814,4.112
		c-0.535-0.588,0.995-2.038,2.716-4.154C7.991,4.776,10.232,2.356,10.391,2.538z"/>
</g>
<g>
	<path fill="#C86B24" d="M24.566,0.095c4.012,0.288,7.606,3.67,7.261,8.466c-0.354,4.93-4.385,7.629-8.399,7.34
		c-4.012-0.289-7.554-4.4-7.261-8.467C16.459,3.368,20.553-0.193,24.566,0.095z"/>
	<g>
		<path fill="#EFD694" d="M23.168,11.162c0,0-0.396,1.918,0.279,2.209c0.595,0.258,1.021-0.186,1.039-0.523
			C24.502,12.506,24.06,11.779,23.168,11.162z"/>
		<path fill="#EFD694" d="M20.813,9.65c0,0-1.857,0.617-1.772,1.346c0.074,0.645,0.671,0.789,0.972,0.635
			C20.316,11.477,20.722,10.73,20.813,9.65z"/>
		<path fill="#EFD694" d="M18.799,8.124c0,0,1.903-0.461,1.879-1.195c-0.021-0.646-0.603-0.843-0.916-0.714
			C19.444,6.346,18.981,7.054,18.799,8.124z"/>
		<path fill="#EFD694" d="M22.765,5.311c0,0,0.394-1.919-0.28-2.209c-0.596-0.256-1.021,0.186-1.04,0.524
			C21.43,3.968,21.873,4.692,22.765,5.311z"/>
		<path fill="#EFD694" d="M25.436,5.372c0,0,1.852-0.634,1.762-1.362c-0.083-0.643-0.679-0.786-0.98-0.627
			C25.914,3.54,25.515,4.291,25.436,5.372z"/>
		<path fill="#EFD694" d="M23.053,7.318c0,0,0.848,1.764,1.561,1.588c0.628-0.152,0.699-0.763,0.509-1.043
			C24.929,7.581,24.139,7.271,23.053,7.318z"/>
		<path fill="#EFD694" d="M28.731,10.75c0,0-1.467-1.297-2.057-0.861c-0.518,0.387-0.349,0.979-0.063,1.164
			C26.899,11.238,27.749,11.215,28.731,10.75z"/>
		<path fill="#EFD694" d="M28.117,8.214c0,0,1.944-0.232,2.006-0.966c0.056-0.645-0.5-0.908-0.826-0.817
			C28.968,6.522,28.42,7.173,28.117,8.214z"/>
	</g>
</g>
</svg>
