<?xml version="1.0" encoding="utf-8"?>
<!-- Generator: Adobe Illustrator 16.0.0, SVG Export Plug-In . SVG Version: 6.00 Build 0)  -->
<!DOCTYPE svg PUBLIC "-//W3C//DTD SVG 1.1//EN" "http://www.w3.org/Graphics/SVG/1.1/DTD/svg11.dtd">
<svg version="1.1" xmlns="http://www.w3.org/2000/svg" xmlns:xlink="http://www.w3.org/1999/xlink" x="0px" y="0px" width="510px"
	 height="490px" viewBox="0 0 510 490" enable-background="new 0 0 510 490" xml:space="preserve">
<g id="圖層_1">
	<g>
		<rect x="1.25" fill="none" width="507.5" height="490"/>
		<g>
			<circle fill="#4A2E2C" cx="255" cy="228.054" r="177.017"/>
			<g>
				<path fill="#EFB91B" d="M335.792,245.94c-0.522-4.57,2.762-8.703,7.332-9.224c4.572-0.522,8.704,2.762,9.226,7.333
					c0.28,2.388,0.508,4.853,0.671,7.395c0.146,2.328,0.23,4.827,0.23,7.516h0.033v0.016h-0.033
					c-0.003,28.246-11.208,50.494-29.311,65.719c-17.789,14.96-42.153,22.93-68.913,22.936v0.032H255h-0.014v-0.032
					c-26.767-0.002-51.141-7.976-68.934-22.939c-18.099-15.225-29.3-37.469-29.307-65.711h-0.031v-0.021v-0.011h0.031
					c0.004-26.89,10.473-64.029,27.392-94.321c17.612-31.531,42.518-56.143,70.849-56.151v-0.031H255h0.017v0.031
					c7.877,0.003,15.494,1.896,22.764,5.311c4.634,2.176,9.082,4.934,13.322,8.174c20.928,15.996,38.281,44.746,49.24,74.189
					c1.602,4.302-0.588,9.09-4.89,10.692c-4.302,1.603-9.091-0.588-10.694-4.89c-9.985-26.83-25.46-52.768-43.763-66.756
					c-3.388-2.59-6.821-4.736-10.258-6.351c-5.127-2.408-10.394-3.743-15.723-3.745v0.033H255h-0.014v-0.033
					c-21.321,0.007-41.375,20.874-56.309,47.609c-15.631,27.985-25.303,61.931-25.306,86.238h0.034v0.011v0.021h-0.034
					c0.005,22.93,8.938,40.856,23.375,52.999c14.755,12.411,35.352,19.024,58.24,19.026v-0.033H255h0.027v0.033
					c22.879-0.005,43.467-6.616,58.219-19.023c14.441-12.144,23.379-30.073,23.38-53.007h-0.032v-0.016h0.032
					c0-1.973-0.084-4.146-0.23-6.473C336.258,250.373,336.053,248.182,335.792,245.94z"/>
				<path fill="#EFB91B" d="M233.22,220.655c4.083-2.106,9.104-0.5,11.211,3.585c2.106,4.085,0.5,9.108-3.584,11.213
					c-6.72,3.461-11.905,5.991-16.537,7.711l-0.011,0.003l0.011,0.028c-5.178,1.922-9.581,2.773-14.231,2.622
					c-6.662-0.215-12.144-2.621-17.583-5.007c-4.697-2.062-9.359-4.105-13.139-3.371l-0.023,0.003l0.002,0.006
					c-0.39,0.077-0.728,0.173-1.002,0.283c-0.316,0.126-0.584,0.259-0.798,0.395l0.01,0.018c-1.674,1.104-2.896,3.586-3.318,7.698
					c-0.468,4.57-4.556,7.899-9.126,7.433c-4.571-0.468-7.899-4.556-7.432-9.127c0.985-9.586,4.957-16.109,10.685-19.89l0.008,0.016
					l0.024-0.016c1.225-0.807,2.48-1.467,3.752-1.979c1.326-0.531,2.664-0.931,4.002-1.195l0.002,0.006l0.085-0.016
					c8.806-1.709,15.833,1.373,22.918,4.481c4,1.756,8.035,3.526,11.454,3.636c2.259,0.072,4.716-0.459,7.906-1.642l0.012,0.027
					C222.258,226.188,226.963,223.879,233.22,220.655z"/>
				<path fill="#EFB91B" d="M198.463,225.245c4.194,1.889,6.063,6.822,4.171,11.018c-1.891,4.194-6.823,6.062-11.019,4.171
					c-9.637-4.373-16.747-9.814-20.694-17.439c-4.027-7.783-4.435-17.106-0.479-28.916c1.458-4.356,6.173-6.707,10.528-5.25
					c4.355,1.458,6.706,6.172,5.249,10.529c-2.398,7.161-2.427,12.286-0.5,16.008C187.727,219.246,192.158,222.385,198.463,225.245z
					"/>
				<path fill="#EFB91B" d="M269.174,235.453c-4.084-2.105-5.691-7.127-3.585-11.212c2.105-4.087,7.126-5.692,11.213-3.586
					c6.255,3.224,10.961,5.532,14.7,6.922l0.009-0.027c3.194,1.183,5.651,1.714,7.907,1.642c3.422-0.11,7.454-1.88,11.454-3.635
					c7.084-3.107,14.112-6.191,22.921-4.482l0.084,0.017v-0.007c1.342,0.265,2.681,0.664,4.006,1.194
					c1.271,0.512,2.526,1.172,3.75,1.979l0.025,0.016l0.011-0.016c5.725,3.78,9.698,10.304,10.685,19.889
					c0.467,4.572-2.863,8.66-7.433,9.128c-4.572,0.466-8.66-2.863-9.126-7.433c-0.425-4.113-1.645-6.594-3.321-7.698l0.013-0.017
					c-0.213-0.137-0.481-0.27-0.796-0.397c-0.276-0.109-0.613-0.206-1.003-0.282v-0.006l-0.021-0.003
					c-3.782-0.734-8.444,1.311-13.142,3.372c-5.437,2.386-10.917,4.792-17.58,5.006c-4.647,0.152-9.051-0.699-14.232-2.622
					l0.013-0.029l-0.013-0.003C281.079,241.443,275.894,238.914,269.174,235.453z"/>
			</g>
		</g>
		<g>
			<g>
				<path fill="#4A2E2C" d="M131.735,478.861v-15.839h-16.734v15.839h-1.703V448.46h1.703v12.816h16.734V448.46h1.746v30.401
					H131.735z"/>
				<path fill="#4A2E2C" d="M166.522,478.861l-3.492-9.112h-13.838l-3.534,9.112h-1.703l12.135-31.381l12.178,31.381H166.522z
					 M156.09,451.909l-6.217,16.095h12.433L156.09,451.909z"/>
				<path fill="#4A2E2C" d="M211.699,478.861l-6.472-25.547l-10.006,26.314l-10.006-26.357l-6.515,25.59h-1.746l7.919-31.296
					l10.347,27.123l10.347-27.166l7.919,31.338H211.699z"/>
				<path fill="#4A2E2C" d="M240.269,476.392c-1.846,1.647-4.103,2.47-6.77,2.47h-9.496V448.46h7.409c2.355,0,4.229,0.61,5.62,1.831
					c1.476,1.306,2.214,3.123,2.214,5.45c0,2.668-1.093,4.627-3.279,5.876c2.129,0.426,3.846,1.391,5.152,2.896
					c1.277,1.505,1.916,3.35,1.916,5.535C243.037,472.659,242.114,474.774,240.269,476.392z M235.798,451.738
					c-1.164-1.022-2.583-1.533-4.258-1.533h-5.833v11.07h6.089c1.646,0,3.009-0.511,4.088-1.533
					c1.079-1.022,1.618-2.356,1.618-4.002C237.501,454.038,236.933,452.704,235.798,451.738z M238.992,464.896
					c-1.448-1.249-3.265-1.874-5.45-1.874h-7.835v14.094h7.835c2.157,0,3.988-0.653,5.493-1.959
					c1.533-1.305,2.299-3.008,2.299-5.109C241.333,467.918,240.552,466.201,238.992,464.896z"/>
				<path fill="#4A2E2C" d="M269.137,477.201c-1.561,1.306-3.619,1.958-6.174,1.958c-2.47,0-4.528-0.667-6.174-2.001
					c-1.732-1.448-2.598-3.406-2.598-5.876V448.46h1.703v22.822c0,1.958,0.709,3.492,2.129,4.599
					c1.305,1.022,2.952,1.533,4.939,1.533c1.958,0,3.604-0.525,4.939-1.575c1.447-1.135,2.171-2.654,2.171-4.556V448.46h1.746
					v22.822C271.82,473.752,270.926,475.725,269.137,477.201z"/>
				<path fill="#4A2E2C" d="M296.559,478.861l-9.666-15.201h-3.279v15.201h-1.703V448.46h7.026c1.135,0,2.214,0.164,3.236,0.489
					c1.022,0.327,1.901,0.809,2.64,1.448c0.738,0.639,1.327,1.426,1.767,2.363c0.439,0.937,0.66,2.016,0.66,3.236
					c0,1.335-0.206,2.484-0.617,3.449c-0.412,0.965-0.994,1.76-1.746,2.384c-0.752,0.625-1.639,1.086-2.661,1.384
					c-1.022,0.298-2.144,0.447-3.364,0.447l9.751,15.201H296.559z M294.94,453.42c-0.34-0.724-0.809-1.32-1.405-1.789
					c-0.596-0.468-1.292-0.823-2.086-1.064c-0.795-0.241-1.647-0.362-2.555-0.362h-5.28v11.709h5.749
					c1.816,0,3.285-0.511,4.407-1.533c1.121-1.022,1.682-2.498,1.682-4.428C295.452,454.989,295.281,454.144,294.94,453.42z"/>
				<path fill="#4A2E2C" d="M390.827,478.861l-9.666-15.201h-3.279v15.201h-1.703V448.46h7.026c1.135,0,2.214,0.164,3.236,0.489
					c1.022,0.327,1.901,0.809,2.64,1.448c0.738,0.639,1.327,1.426,1.767,2.363c0.439,0.937,0.66,2.016,0.66,3.236
					c0,1.335-0.206,2.484-0.617,3.449c-0.412,0.965-0.994,1.76-1.746,2.384c-0.752,0.625-1.639,1.086-2.661,1.384
					c-1.022,0.298-2.144,0.447-3.364,0.447l9.751,15.201H390.827z M389.209,453.42c-0.34-0.724-0.809-1.32-1.405-1.789
					c-0.596-0.468-1.292-0.823-2.086-1.064c-0.795-0.241-1.647-0.362-2.555-0.362h-5.28v11.709h5.749
					c1.816,0,3.285-0.511,4.407-1.533c1.121-1.022,1.682-2.498,1.682-4.428C389.72,454.989,389.55,454.144,389.209,453.42z"/>
			</g>
			<g>
				<path fill="#EFB91B" d="M337.729,452.476c2.924-3.095,6.799-4.642,11.625-4.642c4.598,0,8.345,1.448,11.241,4.344
					c2.924,2.923,4.386,6.685,4.386,11.283c0,4.541-1.462,8.274-4.386,11.198c-2.952,2.952-6.699,4.429-11.241,4.429
					c-5.45,0-9.736-2.087-12.859-6.26l1.405-1.064c2.725,3.747,6.543,5.62,11.454,5.62c4.002,0,7.323-1.319,9.963-3.959
					c2.64-2.641,3.96-5.962,3.96-9.964c0-4.031-1.306-7.353-3.917-9.964c-2.668-2.611-6.003-3.917-10.006-3.917
					c-4.286,0-7.735,1.433-10.347,4.301c-1.986,2.156-3.122,4.599-3.406,7.323h10.049v1.746h-11.965
					C333.684,458.805,335.032,455.313,337.729,452.476z"/>
				<path fill="#EFB91B" d="M323.678,448.26v30.401h-14.605v-1.745h12.859v-11.07h-12.859v-1.874h12.859v-13.966h-12.859v-1.746
					H323.678z"/>
			</g>
		</g>
	</g>
</g>
<g id="NO" display="none">
	<path display="inline" fill="none" stroke="#000000" stroke-width="4" stroke-miterlimit="10" d="M474.24,438.645
		c0,6.693-9.897,5.76-22.105,5.76s-22.105,0.622-22.105-5.76c0-8.512,9.897-16.501,22.105-16.501S474.24,430.133,474.24,438.645z"/>
	<path display="inline" fill="none" stroke="#000000" stroke-width="4" stroke-miterlimit="10" d="M438.603,469.941
		c0,0,13.641,1.25,30.054-0.254c0,0,6.189-0.656,7.318,3.129c1.572,5.269-2.567,5.25-5.543,4c-1.866-0.783-5.683-1.625-9.331,1.001
		c-2.231,1.606-3.812,1.749-6.481,0.874c-2.669-0.875-3.121-2.438-7.782-0.151c-4.175,2.047-4.921-1.349-8.921-2.099
		c-2.714-0.509-4.075,1.052-6.583,1.5c-2.333,0.417-4.455-2.199-2.792-5C430.99,468.816,433.674,469.21,438.603,469.941z"/>
	<g display="inline">
		<path fill="none" stroke="#000000" stroke-width="4" stroke-linecap="round" stroke-linejoin="round" stroke-miterlimit="10" d="
			M474.551,457.266c0,1.979-1.604,3.583-3.584,3.583h-37.666c-1.979,0-3.584-1.604-3.584-3.583l0,0c0-1.979,1.604-3.583,3.584-3.583
			h37.666C472.947,453.683,474.551,455.287,474.551,457.266L474.551,457.266z"/>
		<path fill="none" stroke="#000000" stroke-width="4" stroke-linecap="round" stroke-linejoin="round" stroke-miterlimit="10" d="
			M473.251,457.276c-4.08-0.106-4.037-2.772-8.119-2.878c-4.078-0.107-4.122,1.559-8.201,1.452
			c-4.079-0.106-4.035-1.772-8.115-1.878c-4.08-0.107-4.124,1.559-8.203,1.452c-3.48-0.091-3.961-1.316-6.561-1.741"/>
	</g>
	<g display="inline">
		<path d="M339.988,480.395h37.667c1.007,0,1.915,0.419,2.566,1.088l1.068-1.671c-1.204-1.563-4.044-2.417-5.339-2.417
			c-2.051,0-3.396,0.589-4.262,1.166c-0.864-0.576-2.211-1.166-4.262-1.166c-2.05,0-3.395,0.589-4.26,1.165
			c-0.865-0.576-2.211-1.165-4.261-1.165c-2.048,0-3.393,0.588-4.257,1.163c-0.865-0.575-2.209-1.163-4.256-1.163
			c-2.05,0-3.395,0.589-4.26,1.165c-0.864-0.576-2.209-1.165-4.259-1.165c-2.045,0-3.388,0.586-4.252,1.161
			c-2.637,2.224-2.545,3.111-2.545,3.111c0.51,0.197,0.916,0.877,1.486,1.323C336.991,481.495,338.354,480.395,339.988,480.395z"/>
		<path fill="none" stroke="#000000" stroke-width="4" stroke-miterlimit="10" d="M381.238,483.978c0,1.979-1.604,3.583-3.583,3.583
			h-37.667c-1.979,0-3.583-1.604-3.583-3.583l0,0c0-1.979,1.604-3.583,3.583-3.583h37.667
			C379.634,480.395,381.238,481.999,381.238,483.978L381.238,483.978z"/>
		<path d="M339.988,480.395h37.667c1.007,0,1.915,0.419,2.566,1.088l1.068-1.671c-1.204-1.563-4.044-2.417-5.339-2.417
			c-2.051,0-3.396,0.589-4.262,1.166c-0.864-0.576-2.211-1.166-4.262-1.166c-2.05,0-3.395,0.589-4.26,1.165
			c-0.865-0.576-2.211-1.165-4.261-1.165c-2.048,0-3.393,0.588-4.257,1.163c-0.865-0.575-2.209-1.163-4.256-1.163
			c-2.05,0-3.395,0.589-4.26,1.165c-0.864-0.576-2.209-1.165-4.259-1.165c-2.045,0-3.388,0.586-4.252,1.161
			c-2.637,2.224-2.545,3.111-2.545,3.111c0.51,0.197,0.916,0.877,1.486,1.323C336.991,481.495,338.354,480.395,339.988,480.395z"/>
		<path stroke="#000000" stroke-width="4" stroke-miterlimit="10" d="M381.238,483.978c0-1.979-1.604-3.583-3.583-3.583h-37.667
			c-1.979,0-3.583,1.604-3.583,3.583l0,0c0,1.979,1.604,3.583,3.583,3.583h37.667C379.634,487.562,381.238,485.957,381.238,483.978
			L381.238,483.978z"/>
		<path d="M339.988,487.562h37.667c1.007,0,1.915-0.419,2.566-1.088l1.068,1.671c-1.204,1.563-4.044,2.417-5.339,2.417
			c-2.051,0-3.396-0.589-4.262-1.166c-0.864,0.576-2.211,1.166-4.262,1.166c-2.05,0-3.395-0.589-4.26-1.165
			c-0.865,0.576-2.211,1.165-4.261,1.165c-2.048,0-3.393-0.588-4.257-1.163c-0.865,0.575-2.209,1.163-4.256,1.163
			c-2.05,0-3.395-0.589-4.26-1.165c-0.864,0.576-2.209,1.165-4.259,1.165c-2.045,0-3.388-0.586-4.252-1.161
			c-2.637-2.224-2.545-3.111-2.545-3.111c0.51-0.197,0.916-0.877,1.486-1.323C336.991,486.461,338.354,487.562,339.988,487.562z"/>
	</g>
	<g display="inline">
		<path d="M443.792,435.751c-0.918,0.918-2.407,0.918-3.325,0s-0.918-2.407,0-3.325c0.918-0.918,4.75-1.425,4.75-1.425
			S444.711,434.833,443.792,435.751z"/>
		<path d="M454.485,436.384c0,1.298-1.053,2.351-2.351,2.351s-2.351-1.053-2.351-2.351c0-1.299,2.351-4.367,2.351-4.367
			S454.485,435.085,454.485,436.384z"/>
		<path d="M463.801,432.427c0.918,0.918,0.918,2.407,0,3.325s-2.407,0.918-3.325,0c-0.918-0.918-1.425-4.75-1.425-4.75
			S462.882,431.508,463.801,432.427z"/>
	</g>
	<path display="inline" d="M383.238,463.583c0-1.231-0.865-2.324-2.199-3.021c-1.305-0.947-3.872-1.468-5.09-1.468
		c-1.854,0-3.127,0.329-3.995,0.682h-0.534c-0.867-0.353-2.141-0.682-3.996-0.682c-1.854,0-3.127,0.329-3.994,0.682h-0.532
		c-0.867-0.353-2.141-0.682-3.995-0.682s-3.127,0.329-3.994,0.682h-0.526c-0.867-0.353-2.14-0.682-3.993-0.682
		c-1.854,0-3.127,0.329-3.995,0.682h-0.53c-0.867-0.353-2.14-0.682-3.994-0.682c-2.045,0-3.388,0.4-4.252,0.792
		c-0.624,0.358-1.091,0.665-1.446,0.925c-1.085,0.695-1.768,1.679-1.768,2.771c0,1.092,0.683,2.077,1.768,2.771
		c0.355,0.261,0.822,0.567,1.446,0.925c0.865,0.392,2.208,0.792,4.252,0.792c1.854,0,3.127-0.329,3.994-0.682h0.53
		c0.867,0.353,2.141,0.682,3.995,0.682c1.854,0,3.126-0.329,3.993-0.682h0.526c0.867,0.353,2.14,0.682,3.994,0.682
		s3.128-0.329,3.995-0.682h0.532c0.867,0.353,2.14,0.682,3.994,0.682c1.854,0,3.128-0.329,3.996-0.682h0.534
		c0.868,0.353,2.141,0.682,3.995,0.682c1.218,0,3.785-0.521,5.09-1.468C382.373,465.907,383.238,464.814,383.238,463.583z"/>
	<g display="inline">
		<g>
			<path d="M453.579,492.854c-0.143,1.207-1.216,2.072-2.398,1.933l-21.273-2.507c-1.183-0.139-2.026-1.23-1.883-2.436l0.176-1.502
				c0.143-1.207,1.216-2.072,2.398-1.933l21.273,2.507c1.183,0.139,2.025,1.23,1.883,2.437L453.579,492.854z"/>
		</g>
		<g>
			<path d="M475.888,494.077c-0.26,1.187-1.412,1.944-2.575,1.69l-20.929-4.563c-1.164-0.253-1.897-1.421-1.638-2.607l0.321-1.478
				c0.259-1.187,1.412-1.944,2.575-1.69l20.929,4.563c1.164,0.253,1.896,1.421,1.638,2.608L475.888,494.077z"/>
		</g>
	</g>
	<rect x="484.276" y="446.046" display="inline" fill="#C96B25" width="23" height="9.75"/>
	<rect x="484.276" y="455.817" display="inline" fill="#F0D795" width="23" height="9.75"/>
	<rect x="484.276" y="465.567" display="inline" fill="#1E8A6A" width="23" height="9.75"/>
	<rect x="484.276" y="475.317" display="inline" fill="#DE3C3D" width="23" height="9.75"/>
	<rect x="484.276" y="485.067" display="inline" fill="#F1AD16" width="23" height="9.75"/>
	<path display="inline" fill="#F0D795" d="M449.386,413.889c0,0,5.135,0.079,8.075,2.604c5.313,4.563,16.693,0.15,16.693,0.15
		l-0.568-2.62c0,0-1.5-1.889-2-2.135S449.386,413.889,449.386,413.889z"/>
	<g display="inline">
		<path fill="#F0D795" d="M411.485,462.85h-37.667c-3.079,0-5.584-2.505-5.584-5.583s2.505-5.583,5.584-5.583h37.667
			c3.079,0,5.584,2.505,5.584,5.583S414.564,462.85,411.485,462.85z M373.818,455.683c-0.874,0-1.584,0.71-1.584,1.583
			s0.71,1.583,1.584,1.583h37.667c0.874,0,1.584-0.71,1.584-1.583s-0.71-1.583-1.584-1.583H373.818z"/>
	</g>
	<path display="inline" fill="#F0D795" d="M413.821,460.692c0,0-14.568,2.015-18.523,0c-2.192-1.117-6.043-5.797-4.707-7.63
		c4.308-1,23.229,0,23.229,0V460.692z"/>
</g>
<g id="切片">
</g>
</svg>
