<?xml version="1.0" encoding="utf-8"?>
<!-- Generator: Adobe Illustrator 16.0.0, SVG Export Plug-In . SVG Version: 6.00 Build 0)  -->
<!DOCTYPE svg PUBLIC "-//W3C//DTD SVG 1.1//EN" "http://www.w3.org/Graphics/SVG/1.1/DTD/svg11.dtd">
<svg version="1.1" xmlns="http://www.w3.org/2000/svg" xmlns:xlink="http://www.w3.org/1999/xlink" x="0px" y="0px" width="55px"
	 height="25.001px" viewBox="0 0 55 25.001" enable-background="new 0 0 55 25.001" xml:space="preserve">
<g id="圖層_1">
	<path fill="#C96B25" d="M27.499,0.348c-13.066,0-24.105,6.473-24.105,16.503c0,2.367,1.063,5.473,6.127,6.823
		c2.974,0.794,6.881,0.954,12.221,0.954c0.901,0,1.826-0.004,2.77-0.008c2.293-0.009,4.727-0.005,6.983,0.015
		c1.232,0.011,2.429,0.021,3.582,0.021c6.976,0,16.529,0,16.529-7.805C51.604,6.821,40.565,0.348,27.499,0.348z M19.157,13.957
		c-0.918,0.918-2.407,0.918-3.325,0c-0.918-0.918-0.918-2.407,0-3.325c0.918-0.918,4.75-1.425,4.75-1.425
		S20.075,13.038,19.157,13.957z M27.499,16.941c-1.298,0-2.351-1.053-2.351-2.351c0-1.299,2.351-4.367,2.351-4.367
		s2.351,3.068,2.351,4.367C29.85,15.888,28.797,16.941,27.499,16.941z M39.165,13.957c-0.918,0.918-2.407,0.918-3.325,0
		c-0.918-0.919-1.425-4.75-1.425-4.75s3.832,0.507,4.75,1.425C40.083,11.55,40.083,13.039,39.165,13.957z"/>
</g>
<g id="切片">
	<rect fill="none" width="55" height="25.001"/>
	<rect y="25.001" fill="none" width="55" height="25"/>
</g>
</svg>
