<?xml version="1.0" encoding="utf-8"?>
<!-- Generator: Adobe Illustrator 16.0.0, SVG Export Plug-In . SVG Version: 6.00 Build 0)  -->
<!DOCTYPE svg PUBLIC "-//W3C//DTD SVG 1.1//EN" "http://www.w3.org/Graphics/SVG/1.1/DTD/svg11.dtd">
<svg version="1.1" xmlns="http://www.w3.org/2000/svg" xmlns:xlink="http://www.w3.org/1999/xlink" x="0px" y="0px" width="55px"
	 height="14px" viewBox="0 0 55 14" enable-background="new 0 0 55 14" xml:space="preserve">
<g id="圖層_1">
	<g>
		<path fill="#F1AD16" d="M6.588,4.757h42.08c0,0-1.54,1.598-3.743,2.083c-2.458,0.542-3.974,1.484-4.792,2.583
			c-1.322,1.776-1.241-2.412-4.917-2.412c-1.958,0-2.63,1.008-3.083,1.328c-0.372,0.263-0.798-0.137-1.25-0.542
			c-2.375-2.125-3.174-2.194-6.416-2.259C12.517,5.301,4.79,6.024,6.588,4.757z"/>
		<path fill="#F1AD16" d="M39.542,11.863c-1.305,0-1.998-0.965-2.457-1.604c-0.589-0.819-0.939-1.247-1.867-1.247
			c-0.827,0-1.107,0.253-1.462,0.575c-0.174,0.158-0.33,0.29-0.468,0.387c-0.416,0.294-0.904,0.451-1.41,0.451
			c-1.06,0-1.799-0.663-2.288-1.101c-1.921-1.72-2.166-1.725-5.161-1.785C20.34,7.458,16.75,7.49,13.87,7.515
			c-1.209,0.01-2.258,0.05-3.24,0.02c-3.628,0-5.628-0.006-6.202-1.817C4.314,5.355,4.048,4.1,5.437,3.122
			c0.337-0.237,0.739-0.365,1.151-0.365h42.08c0.802,0,1.527,0.479,1.841,1.218c0.313,0.738,0.156,1.593-0.401,2.17
			c-0.201,0.208-2.038,2.05-4.752,2.648c-2.234,0.492-3.2,1.264-3.617,1.824C41.124,11.444,40.385,11.862,39.542,11.863z"/>
	</g>
	<g>
		<g>
			<g>
				<defs>
					<rect id="SVGID_3_" x="147.881" y="260.46" width="1922" height="1082"/>
				</defs>
				<clipPath id="SVGID_2_">
					<use xlink:href="#SVGID_3_"  overflow="visible"/>
				</clipPath>
				<path opacity="0.9" clip-path="url(#SVGID_2_)" fill="#F6DA97" enable-background="new    " d="M60.766-346.54
					c127.042,23.813,259.253,27.125,390.556,33.848c254.716,13.042,502.349,29.287,756.617,11.44
					c234.412-16.463,468.639,5.144,704.139,17.204c170.268,8.719,339.881-0.503,509.314,7.526
					c126.066,5.975,240.578,11.387,317.361,115.438c49.703,67.348,100.076,147.68,137.043,221.234
					c30.096,59.877,56.793,122.543,84.244,183.513c37.648,83.602,35.102,147.578,30.26,236.334
					c-11.99,219.847-11.996,431.516-97.793,639.049c-48.836,118.127-84.396,180.219-203.33,246.773
					c-145.854,81.614-316.51,155.396-490.957,155.641c-212.016,0.3-415.619-31.296-614.629-101.004
					c-112.963-39.568-217.777-89.293-327.064-132.705c-227.715-90.458-458.02-136.098-699.973-178.064
					C354.36,1074.615,135.291,988.4,16.608,825.748c-125.31-171.73-171.836-389.225-150.693-591.342
					c11.809-112.912,33.545-209.74,80.488-314.902C-29.305-134.915-10.82-287.8,54.091-314.569L60.766-346.54z"/>
			</g>
		</g>
	</g>
</g>
<g id="NO" display="none">
</g>
<g id="切片">
	<rect y="-21.249" fill="none" width="55" height="25.001"/>
	<rect y="3.751" fill="none" width="55" height="25"/>
</g>
</svg>
