<?xml version="1.0" encoding="utf-8"?>
<!-- Generator: Adobe Illustrator 16.0.0, SVG Export Plug-In . SVG Version: 6.00 Build 0)  -->
<!DOCTYPE svg PUBLIC "-//W3C//DTD SVG 1.1//EN" "http://www.w3.org/Graphics/SVG/1.1/DTD/svg11.dtd">
<svg version="1.1" xmlns="http://www.w3.org/2000/svg" xmlns:xlink="http://www.w3.org/1999/xlink" x="0px" y="0px" width="55px"
	 height="25.001px" viewBox="0 0 55 25.001" enable-background="new 0 0 55 25.001" xml:space="preserve">
<g id="圖層_1">
	<path fill="#1E8A6A" d="M32.75,19.374c-0.995,0-2.071-0.201-3.388-0.633c-0.736-0.241-1.33-0.525-1.806-0.753
		c-0.706-0.337-1.037-0.487-1.482-0.487c-0.653,0-1.659,0.331-2.99,0.984c-1.169,0.573-2.236,0.852-3.263,0.852
		c-1.747,0-2.987-0.793-4.082-1.493c-0.863-0.551-1.678-1.072-2.826-1.288c-1.067-0.199-1.868,0.112-2.965,0.57
		c-0.814,0.34-1.737,0.726-2.898,0.933c-1.997,0.358-4.054-0.63-5.071-2.416c-0.951-1.67-0.873-3.754,0.208-5.575
		C4.01,6.996,6.292,5.625,9.583,5.625c1.383,0,2.885,0.22,4.619,0.478c0.57,0.049,5.697,0.474,13.074,0.474
		c5.683,0,11.255-0.247,16.562-0.733l0,0c-0.002,0,0.485-0.052,1.223-0.052c4.336,0,7.323,1.677,8.196,4.601
		c0.693,2.324,0.542,4.177-0.449,5.507c-0.597,0.8-1.764,1.754-3.939,1.754c-1.182,0-2.548-0.3-3.847-0.845
		c-0.554-0.233-1.694-0.623-3.106-0.623c-1.548,0-2.988,0.472-4.281,1.403C35.92,18.823,34.414,19.374,32.75,19.374z"/>
</g>
<g id="切片">
	<rect y="-24.999" fill="none" width="55" height="25"/>
	<rect fill="none" width="55" height="25.001"/>
	<rect y="25" fill="none" width="55" height="25"/>
</g>
</svg>
