<?xml version="1.0" encoding="utf-8"?>
<!-- Generator: Adobe Illustrator 16.0.0, SVG Export Plug-In . SVG Version: 6.00 Build 0)  -->
<!DOCTYPE svg PUBLIC "-//W3C//DTD SVG 1.1//EN" "http://www.w3.org/Graphics/SVG/1.1/DTD/svg11.dtd">
<svg version="1.1" xmlns="http://www.w3.org/2000/svg" xmlns:xlink="http://www.w3.org/1999/xlink" x="0px" y="0px" width="55px"
	 height="18px" viewBox="0 0 55 18" enable-background="new 0 0 55 18" xml:space="preserve">
<g id="圖層_1">
	<path fill="#1E8A6A" d="M32.75,15.872c-0.995,0-2.071-0.201-3.388-0.633c-0.736-0.241-1.33-0.525-1.806-0.753
		C26.849,14.149,26.519,14,26.073,14c-0.653,0-1.659,0.331-2.99,0.984c-1.169,0.573-2.236,0.852-3.263,0.852
		c-1.747,0-2.987-0.793-4.082-1.493c-0.863-0.551-1.678-1.072-2.826-1.288c-1.067-0.199-1.868,0.112-2.965,0.57
		c-0.814,0.34-1.737,0.726-2.898,0.933c-1.997,0.358-4.054-0.63-5.071-2.416c-0.951-1.67-0.873-3.753,0.208-5.574
		C4.01,3.495,6.292,2.125,9.583,2.125c1.383,0,2.885,0.22,4.619,0.478c0.57,0.049,5.697,0.474,13.074,0.474
		c5.683,0,11.255-0.247,16.562-0.733l0,0c-0.002,0,0.485-0.052,1.223-0.052c4.336,0,7.323,1.677,8.196,4.601
		c0.693,2.324,0.542,4.176-0.449,5.507c-0.597,0.8-1.764,1.754-3.939,1.754c-1.182,0-2.548-0.3-3.847-0.845
		c-0.554-0.233-1.694-0.623-3.106-0.623c-1.548,0-2.988,0.472-4.281,1.403C35.92,15.322,34.414,15.872,32.75,15.872z"/>
	<g>
		<g>
			<g>
				<defs>
					<rect id="SVGID_3_" x="147.881" y="318.458" width="1922" height="1082"/>
				</defs>
				<clipPath id="SVGID_2_">
					<use xlink:href="#SVGID_3_"  overflow="visible"/>
				</clipPath>
				<path opacity="0.9" clip-path="url(#SVGID_2_)" fill="#F6DA97" enable-background="new    " d="M60.766-288.542
					c127.042,23.813,259.253,27.125,390.556,33.848c254.716,13.042,502.349,29.287,756.617,11.44
					c234.412-16.463,468.639,5.144,704.139,17.204c170.268,8.719,339.881-0.503,509.314,7.526
					c126.066,5.975,240.578,11.387,317.361,115.438c49.703,67.348,100.076,147.68,137.043,221.234
					c30.096,59.877,56.793,122.543,84.244,183.513c37.648,83.602,35.102,147.578,30.26,236.334
					c-11.99,219.847-11.996,431.516-97.793,639.049c-48.836,118.127-84.396,180.219-203.33,246.773
					c-145.854,81.614-316.51,155.396-490.957,155.641c-212.016,0.3-415.619-31.296-614.629-101.004
					c-112.963-39.568-217.777-89.293-327.064-132.705c-227.715-90.458-458.02-136.098-699.973-178.064
					c-202.193-35.072-421.263-121.287-539.945-283.939c-125.31-171.73-171.836-389.225-150.693-591.342
					c11.809-112.912,33.545-209.74,80.488-314.902C-29.305-76.917-10.82-229.803,54.091-256.571L60.766-288.542z"/>
			</g>
		</g>
	</g>
</g>
<g id="NO" display="none">
</g>
<g id="切片">
	<rect y="-13.25" fill="none" width="55" height="25.001"/>
	<rect y="11.75" fill="none" width="55" height="25"/>
</g>
</svg>
