<?xml version="1.0" encoding="utf-8"?>
<!-- Generator: Adobe Illustrator 16.0.0, SVG Export Plug-In . SVG Version: 6.00 Build 0)  -->
<!DOCTYPE svg PUBLIC "-//W3C//DTD SVG 1.1//EN" "http://www.w3.org/Graphics/SVG/1.1/DTD/svg11.dtd">
<svg version="1.1" xmlns="http://www.w3.org/2000/svg" xmlns:xlink="http://www.w3.org/1999/xlink" x="0px" y="0px" width="55px"
	 height="50px" viewBox="0 0 55 50" enable-background="new 0 0 55 50" xml:space="preserve">
<g id="圖層_1">
	<path fill="#DF7517" d="M27.5,25.347c-13.066,0-24.105,6.473-24.105,16.502c0,2.367,1.063,5.473,6.127,6.823
		c2.974,0.794,6.881,0.953,12.222,0.953c0.901,0,1.826-0.004,2.77-0.008c2.293-0.009,4.727-0.005,6.983,0.015
		c1.232,0.011,2.429,0.021,3.581,0.021c6.976,0,16.529,0,16.529-7.805C51.606,31.819,40.567,25.347,27.5,25.347z M19.158,38.955
		c-0.918,0.918-2.406,0.918-3.324,0s-0.918-2.407,0-3.325s4.75-1.425,4.75-1.425S20.077,38.036,19.158,38.955z M27.5,41.938
		c-1.298,0-2.351-1.053-2.351-2.351c0-1.299,2.351-4.367,2.351-4.367s2.352,3.068,2.352,4.367
		C29.851,40.886,28.798,41.938,27.5,41.938z M39.167,38.955c-0.918,0.918-2.407,0.918-3.325,0c-0.918-0.919-1.425-4.75-1.425-4.75
		s3.831,0.507,4.75,1.425C40.084,36.548,40.084,38.037,39.167,38.955z"/>
	<g>
		<g>
			<g>
				<defs>
					<rect id="SVGID_3_" x="147.881" y="403.957" width="1922" height="1082"/>
				</defs>
				<clipPath id="SVGID_2_">
					<use xlink:href="#SVGID_3_"  overflow="visible"/>
				</clipPath>
				<path opacity="0.9" clip-path="url(#SVGID_2_)" fill="#F6DA97" enable-background="new    " d="M60.766-203.043
					c127.042,23.813,259.253,27.125,390.556,33.848c254.716,13.042,502.349,29.287,756.617,11.44
					c234.412-16.463,468.639,5.144,704.139,17.204c170.268,8.719,339.881-0.503,509.314,7.526
					c126.066,5.975,240.578,11.387,317.361,115.438c49.703,67.348,100.076,147.68,137.043,221.234
					c30.096,59.877,56.793,122.543,84.244,183.513c37.648,83.602,35.102,147.578,30.26,236.334
					c-11.99,219.847-11.996,431.516-97.793,639.049c-48.836,118.127-84.396,180.219-203.33,246.773
					c-145.854,81.614-316.51,155.396-490.957,155.641c-212.016,0.3-415.619-31.296-614.629-101.004
					c-112.963-39.568-217.777-89.293-327.064-132.705c-227.715-90.458-458.02-136.098-699.973-178.064
					c-202.193-35.072-421.263-121.287-539.945-283.939c-125.31-171.73-171.836-389.225-150.693-591.342
					C-122.276,264.99-100.54,168.162-53.597,63C-29.305,8.582-10.82-144.304,54.091-171.072L60.766-203.043z"/>
			</g>
		</g>
	</g>
	<g>
		<polygon fill="#F5A200" points="32.896,9.477 39.802,9.22 39.786,20.099 32.896,20.679 		"/>
		<g>
			<defs>
				<polygon id="SVGID_95_" points="32.896,9.477 39.802,9.22 39.786,20.099 32.896,20.679 				"/>
			</defs>
			<clipPath id="SVGID_4_">
				<use xlink:href="#SVGID_95_"  overflow="visible"/>
			</clipPath>
			<g clip-path="url(#SVGID_4_)">
				<path fill="#4A2E2C" d="M36.185,15.693c-0.017-0.153,0.094-0.298,0.249-0.324c0.153-0.026,0.293,0.078,0.311,0.231
					c0.008,0.08,0.017,0.163,0.022,0.249c0.004,0.078,0.007,0.162,0.007,0.253h0.001l0,0h-0.001c0,0.954-0.377,1.724-0.989,2.27
					c-0.6,0.537-1.422,0.849-2.325,0.896v0.001h-0.001l0,0v-0.001c-0.904,0.047-1.727-0.178-2.327-0.652
					c-0.61-0.482-0.988-1.213-0.988-2.165l-0.001,0v-0.001l0,0h0.001c0-0.908,0.353-2.179,0.924-3.231
					c0.594-1.095,1.435-1.969,2.391-2.02v-0.001l0,0h0.001v0.001c0.265-0.014,0.521,0.036,0.767,0.139
					c0.157,0.065,0.306,0.15,0.45,0.252c0.707,0.502,1.207,1.249,1.576,2.223c0.055,0.143-0.019,0.309-0.164,0.37
					c-0.146,0.061-0.307-0.004-0.361-0.146c-0.337-0.888-0.776-1.542-1.393-1.981c-0.114-0.082-0.23-0.149-0.346-0.196
					c-0.174-0.073-0.351-0.108-0.53-0.099v0.001l-0.001,0l0,0v-0.001c-0.72,0.038-1.397,0.778-1.9,1.706
					c-0.526,0.972-0.853,2.134-0.853,2.955h0.001l0,0v0.001h-0.001c0,0.773,0.3,1.363,0.788,1.747
					c0.499,0.393,1.193,0.58,1.966,0.539v-0.001l0,0l0.001,0v0.001c0.771-0.04,1.466-0.3,1.964-0.745
					c0.487-0.436,0.788-1.056,0.788-1.83l0,0v0l0,0c0-0.066-0.002-0.14-0.007-0.218C36.201,15.841,36.193,15.768,36.185,15.693z"/>
				<path fill="#4A2E2C" d="M32.723,15.021c0.139-0.079,0.308-0.033,0.379,0.101c0.071,0.134,0.016,0.307-0.121,0.385
					c-0.227,0.128-0.402,0.223-0.559,0.289v0.001l0,0c-0.174,0.075-0.323,0.111-0.48,0.114c-0.225,0.005-0.409-0.067-0.593-0.137
					c-0.158-0.062-0.316-0.123-0.442-0.091h-0.001l0,0c-0.013,0.003-0.025,0.007-0.035,0.011c-0.01,0.005-0.019,0.01-0.027,0.016
					h0.001c-0.057,0.041-0.098,0.126-0.113,0.265c-0.015,0.155-0.153,0.275-0.307,0.267c-0.155-0.007-0.267-0.139-0.251-0.295
					c0.034-0.325,0.168-0.552,0.361-0.69v0l0.001,0c0.041-0.029,0.083-0.054,0.126-0.073c0.044-0.02,0.089-0.036,0.135-0.047l0,0
					l0.002,0c0.298-0.074,0.535,0.018,0.774,0.111c0.134,0.051,0.271,0.104,0.386,0.102c0.077-0.001,0.159-0.023,0.267-0.068v0
					C32.354,15.227,32.513,15.141,32.723,15.021z"/>
				<path fill="#4A2E2C" d="M31.551,15.237c0.142,0.056,0.205,0.22,0.14,0.364c-0.063,0.145-0.229,0.217-0.371,0.161
					c-0.326-0.131-0.566-0.302-0.699-0.552c-0.135-0.256-0.149-0.57-0.016-0.976c0.049-0.149,0.208-0.237,0.355-0.195
					c0.147,0.041,0.227,0.196,0.177,0.346c-0.081,0.246-0.081,0.418-0.016,0.541C31.189,15.054,31.338,15.152,31.551,15.237z"/>
				<path fill="#4A2E2C" d="M33.937,15.457c-0.137-0.064-0.191-0.231-0.12-0.372c0.071-0.142,0.241-0.205,0.378-0.142
					c0.211,0.099,0.371,0.167,0.496,0.208v0c0.109,0.033,0.191,0.048,0.267,0.041c0.116-0.009,0.251-0.077,0.387-0.143
					c0.239-0.118,0.477-0.234,0.773-0.192l0.003,0v-0.001c0.045,0.007,0.09,0.018,0.135,0.034c0.043,0.015,0.085,0.034,0.127,0.06
					l0.001,0.001v-0.001c0.193,0.118,0.327,0.33,0.36,0.652c0.015,0.154-0.097,0.298-0.251,0.321s-0.292-0.082-0.308-0.234
					c-0.014-0.139-0.055-0.22-0.111-0.254l0,0c-0.006-0.004-0.016-0.008-0.027-0.012c-0.008-0.003-0.02-0.005-0.033-0.008l0,0
					h-0.001c-0.127-0.019-0.284,0.059-0.442,0.136c-0.183,0.09-0.369,0.182-0.593,0.2c-0.158,0.014-0.306-0.007-0.481-0.063l0-0.001
					h0C34.339,15.638,34.164,15.562,33.937,15.457z"/>
			</g>
		</g>
		<g>
			<line fill="#4A2E2C" x1="27.173" y1="9.022" x2="27.173" y2="28.514"/>
			<path fill="#4A2E2C" d="M26.73,28.514V9.022c0-0.201,0.345-0.364,0.77-0.364s0.77,0.163,0.77,0.364v19.492
				c0,0.202-0.345,0.365-0.77,0.365S26.73,28.715,26.73,28.514z"/>
		</g>
		<polygon fill="#EFB91B" points="26.73,9.773 33.459,10.022 33.443,21.447 26.73,21.537 		"/>
		<polygon fill="#EE7800" points="33.459,10.022 32.896,9.477 32.896,10.001 		"/>
		<g>
			<defs>
				<polygon id="SVGID_97_" points="26.73,9.773 33.459,10.022 33.443,21.447 26.73,21.537 				"/>
			</defs>
			<clipPath id="SVGID_6_">
				<use xlink:href="#SVGID_97_"  overflow="visible"/>
			</clipPath>
			<g clip-path="url(#SVGID_6_)">
				<path fill="#4A2E2C" d="M36.074,16.047c-0.017-0.153,0.094-0.298,0.249-0.324c0.153-0.026,0.293,0.078,0.311,0.231
					c0.008,0.08,0.017,0.163,0.022,0.249c0.004,0.078,0.007,0.162,0.007,0.253h0.001l0,0h-0.001c0,0.954-0.377,1.724-0.989,2.27
					c-0.6,0.537-1.422,0.849-2.325,0.896v0.001h-0.001l0,0v-0.001c-0.904,0.047-1.727-0.178-2.327-0.652
					c-0.61-0.482-0.988-1.213-0.988-2.165l-0.001,0v-0.001l0,0h0.001c0-0.908,0.353-2.179,0.924-3.231
					c0.594-1.095,1.435-1.969,2.391-2.02v-0.001l0,0h0.001v0.001c0.265-0.014,0.521,0.036,0.767,0.139
					c0.157,0.065,0.306,0.15,0.45,0.252c0.707,0.502,1.207,1.249,1.576,2.223c0.055,0.143-0.019,0.309-0.164,0.37
					c-0.146,0.061-0.307-0.004-0.361-0.146c-0.337-0.888-0.776-1.542-1.393-1.981c-0.114-0.082-0.23-0.149-0.346-0.196
					c-0.174-0.073-0.351-0.108-0.53-0.099v0.001l-0.001,0l0,0v-0.001c-0.72,0.038-1.397,0.778-1.9,1.706
					c-0.526,0.972-0.853,2.134-0.853,2.955h0.001l0,0v0.001h-0.001c0,0.773,0.3,1.363,0.788,1.747
					c0.499,0.393,1.193,0.58,1.966,0.539V19.06l0,0l0.001,0v0.001c0.771-0.04,1.466-0.3,1.964-0.745
					c0.487-0.436,0.788-1.056,0.788-1.83l0,0v0l0,0c0-0.066-0.002-0.14-0.007-0.218C36.09,16.196,36.083,16.123,36.074,16.047z"/>
				<path fill="#4A2E2C" d="M32.612,15.375c0.139-0.079,0.308-0.033,0.379,0.101c0.071,0.134,0.016,0.307-0.121,0.385
					c-0.227,0.128-0.402,0.223-0.559,0.289v0.001l0,0c-0.174,0.075-0.323,0.111-0.48,0.114c-0.225,0.005-0.409-0.067-0.593-0.137
					c-0.158-0.062-0.316-0.123-0.442-0.091h-0.001l0,0c-0.013,0.003-0.025,0.007-0.035,0.011c-0.01,0.005-0.019,0.01-0.027,0.016
					h0.001c-0.057,0.041-0.098,0.126-0.113,0.265c-0.015,0.155-0.153,0.275-0.307,0.267c-0.155-0.007-0.267-0.139-0.251-0.295
					c0.034-0.325,0.168-0.552,0.361-0.69v0l0.001,0c0.041-0.029,0.083-0.054,0.126-0.073c0.044-0.02,0.089-0.036,0.135-0.047l0,0
					l0.002,0c0.298-0.074,0.535,0.018,0.774,0.111c0.134,0.051,0.271,0.104,0.386,0.102c0.077-0.001,0.159-0.023,0.267-0.068v0
					C32.243,15.581,32.402,15.496,32.612,15.375z"/>
				<path fill="#4A2E2C" d="M31.44,15.592c0.142,0.056,0.205,0.22,0.14,0.364c-0.063,0.145-0.229,0.217-0.371,0.161
					c-0.326-0.131-0.566-0.302-0.699-0.552c-0.135-0.256-0.149-0.57-0.016-0.976c0.049-0.149,0.208-0.237,0.355-0.195
					c0.147,0.041,0.227,0.196,0.177,0.346c-0.081,0.246-0.081,0.418-0.016,0.541C31.078,15.408,31.228,15.506,31.44,15.592z"/>
				<path fill="#4A2E2C" d="M33.826,15.812c-0.137-0.064-0.191-0.231-0.12-0.372c0.071-0.142,0.241-0.205,0.378-0.142
					c0.211,0.099,0.371,0.167,0.496,0.208v0c0.109,0.033,0.191,0.048,0.267,0.041c0.116-0.009,0.251-0.077,0.387-0.143
					c0.239-0.118,0.477-0.234,0.773-0.192l0.003,0v-0.001c0.045,0.007,0.09,0.018,0.135,0.034c0.043,0.015,0.085,0.034,0.127,0.06
					l0.001,0.001v-0.001c0.193,0.118,0.327,0.33,0.36,0.652c0.015,0.154-0.097,0.298-0.251,0.321s-0.292-0.082-0.308-0.234
					c-0.014-0.139-0.055-0.22-0.111-0.254l0,0c-0.006-0.004-0.016-0.008-0.027-0.012c-0.008-0.003-0.02-0.005-0.033-0.008l0,0H35.9
					c-0.127-0.019-0.284,0.059-0.442,0.136c-0.183,0.09-0.369,0.182-0.593,0.2c-0.158,0.014-0.306-0.007-0.481-0.063l0-0.001h0
					C34.229,15.992,34.053,15.916,33.826,15.812z"/>
			</g>
		</g>
	</g>
</g>
<g id="NO" display="none">
</g>
<g id="切片">
	<rect y="22.249" fill="none" width="55" height="25.001"/>
	<rect y="47.25" fill="none" width="55" height="25"/>
</g>
</svg>
