<?xml version="1.0" encoding="utf-8"?>
<!-- Generator: Adobe Illustrator 16.0.0, SVG Export Plug-In . SVG Version: 6.00 Build 0)  -->
<!DOCTYPE svg PUBLIC "-//W3C//DTD SVG 1.1//EN" "http://www.w3.org/Graphics/SVG/1.1/DTD/svg11.dtd">
<svg version="1.1" xmlns="http://www.w3.org/2000/svg" xmlns:xlink="http://www.w3.org/1999/xlink" x="0px" y="0px" width="55px"
	 height="25.001px" viewBox="0 0 55 25.001" enable-background="new 0 0 55 25.001" xml:space="preserve">
<g id="圖層_1">
	<path fill="#C96B25" d="M27.493,21.426c-15.067,0-23.399-3.366-24.094-9.732C3.147,9.388,3.602,7.625,4.787,6.302
		c2.069-2.307,5.75-2.729,12.252-2.729c1.352,0,2.822,0.018,4.41,0.036c1.849,0.022,3.86,0.046,6.034,0.046
		c1.508,0,2.937-0.008,4.292-0.015c1.236-0.007,2.413-0.013,3.529-0.013c7.239,0,12.553,0.216,15,3.017
		c1.13,1.293,1.559,3.01,1.275,5.102C50.721,18.079,42.392,21.426,27.493,21.426z"/>
</g>
<g id="切片">
	<rect y="-24.999" fill="none" width="55" height="25"/>
	<rect fill="none" width="55" height="25.001"/>
</g>
</svg>
