<?xml version="1.0" encoding="utf-8"?>
<!-- Generator: Adobe Illustrator 16.0.0, SVG Export Plug-In . SVG Version: 6.00 Build 0)  -->
<!DOCTYPE svg PUBLIC "-//W3C//DTD SVG 1.1//EN" "http://www.w3.org/Graphics/SVG/1.1/DTD/svg11.dtd">
<svg version="1.1" xmlns="http://www.w3.org/2000/svg" xmlns:xlink="http://www.w3.org/1999/xlink" x="0px" y="0px" width="55px"
	 height="60px" viewBox="0 0 55 60" enable-background="new 0 0 55 60" xml:space="preserve">
<g id="圖層_1">
	<g>
		<g>
			<g>
				<defs>
					<rect id="SVGID_3_" x="147.881" y="483.646" width="1922" height="1082"/>
				</defs>
				<clipPath id="SVGID_2_">
					<use xlink:href="#SVGID_3_"  overflow="visible"/>
				</clipPath>
				<path opacity="0.9" clip-path="url(#SVGID_2_)" fill="#F6DA97" enable-background="new    " d="M60.766-123.354
					C187.808-99.542,320.02-96.229,451.322-89.506c254.716,13.042,502.349,29.287,756.617,11.44
					c234.412-16.463,468.639,5.144,704.139,17.204c170.268,8.719,339.881-0.503,509.314,7.526
					c126.066,5.975,240.578,11.387,317.361,115.438c49.703,67.348,100.076,147.68,137.043,221.234
					c30.096,59.877,56.793,122.543,84.244,183.513c37.648,83.602,35.102,147.578,30.26,236.334
					c-11.99,219.847-11.996,431.516-97.793,639.049c-48.836,118.127-84.396,180.219-203.33,246.773
					c-145.854,81.614-316.51,155.396-490.957,155.641c-212.016,0.3-415.619-31.296-614.629-101.004
					c-112.963-39.568-217.777-89.293-327.064-132.705c-227.715-90.458-458.02-136.098-699.973-178.064
					C354.36,1297.8,135.291,1211.585,16.608,1048.933c-125.31-171.73-171.836-389.225-150.693-591.342
					c11.809-112.912,33.545-209.74,80.488-314.902C-29.305,88.271-10.82-64.615,54.091-91.384L60.766-123.354z"/>
			</g>
		</g>
	</g>
	
		<rect x="-1.204" y="0.49" fill="#4A2E2C" stroke="#4A2E2C" stroke-linecap="round" stroke-linejoin="round" stroke-miterlimit="10" width="57.5" height="59.865"/>
	<g>
		<g>
			<g>
				
					<path fill="#EFB91B" stroke="#EFB91B" stroke-width="0.7124" stroke-linecap="round" stroke-linejoin="round" stroke-miterlimit="10" d="
					M7.1,35.215V21.417H17.54v0.792H7.893v5.024h9.647v0.851H7.893v6.338h9.647v0.793H7.1z"/>
				
					<path fill="#EFB91B" stroke="#EFB91B" stroke-width="0.7124" stroke-linecap="round" stroke-linejoin="round" stroke-miterlimit="10" d="
					M33.707,33.301c-1.326,1.404-3.086,2.107-5.275,2.107c-2.087,0-3.788-0.657-5.102-1.971c-1.327-1.326-1.99-3.034-1.99-5.121
					c0-2.061,0.664-3.755,1.99-5.082c1.34-1.339,3.04-2.009,5.102-2.009c2.473,0,4.418,0.946,5.835,2.84l-0.638,0.483
					c-1.237-1.7-2.968-2.55-5.197-2.55c-1.817,0-3.324,0.6-4.521,1.797c-1.2,1.198-1.798,2.705-1.798,4.521
					c0,1.83,0.593,3.336,1.778,4.522c1.21,1.186,2.724,1.778,4.541,1.778c1.944,0,3.51-0.651,4.696-1.951
					c0.9-0.979,1.416-2.088,1.545-3.324h-4.561v-0.793h5.431C35.543,30.429,34.931,32.014,33.707,33.301z"/>
				
					<path fill="#EFB91B" stroke="#EFB91B" stroke-width="0.7124" stroke-linecap="round" stroke-linejoin="round" stroke-miterlimit="10" d="
					M40.052,31.199h-0.393c0.236-0.201,0.354-0.45,0.354-0.746v-0.715h-0.648v-1.143h1.042v1.858
					C40.406,30.718,40.288,30.967,40.052,31.199z"/>
				<g>
					
						<path fill="#EFB91B" stroke="#EFB91B" stroke-width="0.7124" stroke-linecap="round" stroke-linejoin="round" stroke-miterlimit="10" d="
						M47.971,34.836c-0.424,0.36-0.932,0.54-1.525,0.54c-1.016,0-1.778-0.46-2.286-1.381l0.556-0.333
						c0.18,0.328,0.397,0.582,0.651,0.762c0.264,0.201,0.624,0.301,1.079,0.301c0.996,0,1.493-0.423,1.493-1.27
						c0-0.37-0.175-0.693-0.524-0.969c-0.106-0.063-0.257-0.134-0.453-0.214c-0.196-0.079-0.437-0.171-0.723-0.277
						c-0.529-0.19-0.911-0.381-1.144-0.572c-0.338-0.275-0.508-0.672-0.508-1.191c0-0.444,0.169-0.826,0.508-1.144
						c0.328-0.328,0.757-0.492,1.286-0.492c0.731,0,1.35,0.254,1.858,0.763l-0.476,0.412c-0.36-0.359-0.82-0.539-1.382-0.539
						c-0.762,0-1.143,0.333-1.143,1c0,0.296,0.116,0.54,0.349,0.73c0.19,0.148,0.492,0.291,0.905,0.428
						c0.36,0.127,0.656,0.247,0.89,0.358c0.232,0.111,0.407,0.208,0.523,0.293c0.456,0.35,0.683,0.82,0.683,1.413
						C48.59,34.026,48.384,34.487,47.971,34.836z"/>
				</g>
				
					<path fill="#EFB91B" stroke="#EFB91B" stroke-width="0.7124" stroke-linecap="round" stroke-linejoin="round" stroke-miterlimit="10" d="
					M15.818,52.818l-2.827-9.511l-2.842,9.511L6.513,41.322h0.635l2.969,9.272l2.874-9.479l2.858,9.479l2.969-9.272h0.667
					L15.818,52.818z"/>
				
					<path fill="#EFB91B" stroke="#EFB91B" stroke-width="0.7124" stroke-linecap="round" stroke-linejoin="round" stroke-miterlimit="10" d="
					M26.313,51.786c-0.656,0.656-1.46,0.984-2.413,0.984s-1.752-0.323-2.398-0.968c-0.656-0.656-0.985-1.461-0.985-2.413
					c0-0.943,0.329-1.741,0.985-2.398c0.646-0.667,1.445-1,2.398-1c0.941,0,1.741,0.328,2.397,0.984
					c0.656,0.657,0.984,1.461,0.984,2.414C27.281,50.341,26.958,51.14,26.313,51.786z M25.853,47.435
					c-0.529-0.54-1.181-0.81-1.953-0.81c-0.742,0-1.382,0.275-1.921,0.826c-0.551,0.55-0.826,1.196-0.826,1.938
					c0,0.751,0.27,1.397,0.81,1.937c0.54,0.54,1.186,0.81,1.938,0.81c0.762,0,1.407-0.265,1.937-0.793
					c0.54-0.541,0.81-1.191,0.81-1.953C26.646,48.616,26.381,47.964,25.853,47.435z"/>
				
					<path fill="#EFB91B" stroke="#EFB91B" stroke-width="0.7124" stroke-linecap="round" stroke-linejoin="round" stroke-miterlimit="10" d="
					M33.442,47.07c-0.169-0.127-0.349-0.228-0.54-0.301c-0.191-0.074-0.392-0.111-0.604-0.111c-0.18,0-0.349,0.056-0.508,0.167
					c-0.159,0.112-0.296,0.249-0.412,0.413c-0.117,0.164-0.209,0.347-0.278,0.548c-0.069,0.201-0.103,0.387-0.103,0.556v4.319
					h-0.651v-6.558h0.651v0.889c0.137-0.244,0.317-0.466,0.539-0.667c0.223-0.202,0.466-0.303,0.731-0.303
					c0.328,0,0.598,0.038,0.81,0.112c0.211,0.074,0.45,0.206,0.715,0.397L33.442,47.07z"/>
				
					<path fill="#EFB91B" stroke="#EFB91B" stroke-width="0.7124" stroke-linecap="round" stroke-linejoin="round" stroke-miterlimit="10" d="
					M41.159,52.659l-3.43-3.414l-0.365,0.365v3.049h-0.651v-11.75h0.651v7.765l2.842-2.827h0.921l-2.969,2.954l3.858,3.858H41.159z"
					/>
				
					<path fill="#EFB91B" stroke="#EFB91B" stroke-width="0.7124" stroke-linecap="round" stroke-linejoin="round" stroke-miterlimit="10" d="
					M47.971,52.246c-0.424,0.36-0.932,0.54-1.524,0.54c-1.016,0-1.778-0.46-2.287-1.381l0.556-0.333
					c0.181,0.327,0.397,0.582,0.651,0.762c0.264,0.202,0.625,0.302,1.08,0.302c0.995,0,1.493-0.423,1.493-1.271
					c0-0.37-0.174-0.693-0.524-0.968c-0.106-0.063-0.257-0.135-0.452-0.214c-0.196-0.08-0.437-0.172-0.723-0.278
					c-0.529-0.19-0.91-0.381-1.143-0.571c-0.339-0.276-0.508-0.673-0.508-1.191c0-0.445,0.169-0.825,0.508-1.143
					c0.328-0.328,0.757-0.492,1.286-0.492c0.73,0,1.35,0.254,1.857,0.762l-0.476,0.413c-0.36-0.359-0.82-0.54-1.382-0.54
					c-0.762,0-1.143,0.333-1.143,1c0,0.296,0.116,0.54,0.35,0.73c0.19,0.148,0.492,0.292,0.904,0.429
					c0.36,0.127,0.656,0.247,0.89,0.357c0.232,0.111,0.407,0.209,0.524,0.293c0.455,0.35,0.683,0.82,0.683,1.413
					C48.59,51.437,48.383,51.897,47.971,52.246z"/>
			</g>
		</g>
	</g>
</g>
<g id="NO" display="none">
</g>
<g id="切片">
</g>
</svg>
