<?xml version="1.0" encoding="utf-8"?>
<!-- Generator: Adobe Illustrator 16.0.0, SVG Export Plug-In . SVG Version: 6.00 Build 0)  -->
<!DOCTYPE svg PUBLIC "-//W3C//DTD SVG 1.1//EN" "http://www.w3.org/Graphics/SVG/1.1/DTD/svg11.dtd">
<svg version="1.1" xmlns="http://www.w3.org/2000/svg" xmlns:xlink="http://www.w3.org/1999/xlink" x="0px" y="0px" width="55px"
	 height="25.001px" viewBox="0 0 55 25.001" enable-background="new 0 0 55 25.001" xml:space="preserve">
<g id="圖層_1">
	<g>
		<path fill="#F1AD16" d="M6.588,9.946h42.08c0,0-1.54,1.598-3.743,2.083c-2.458,0.542-3.974,1.485-4.792,2.584
			c-1.322,1.776-1.241-2.412-4.917-2.412c-1.958,0-2.63,1.009-3.083,1.329c-0.372,0.263-0.798-0.137-1.25-0.542
			c-2.375-2.126-3.174-2.194-6.416-2.259C12.517,10.49,4.79,11.213,6.588,9.946z"/>
		<path fill="#F1AD16" d="M39.542,17.052c-1.305,0-1.998-0.965-2.457-1.604c-0.589-0.819-0.939-1.247-1.867-1.247
			c-0.827,0-1.107,0.253-1.462,0.575c-0.174,0.158-0.33,0.29-0.468,0.387c-0.416,0.294-0.904,0.451-1.41,0.451
			c-1.06,0-1.799-0.663-2.288-1.101c-1.921-1.72-2.166-1.725-5.161-1.785c-4.088-0.081-7.679-0.05-10.559-0.024
			c-1.209,0.01-2.258,0.05-3.24,0.02c-3.628,0-5.628-0.007-6.202-1.818c-0.114-0.362-0.38-1.617,1.009-2.595
			c0.337-0.237,0.739-0.365,1.151-0.365h42.08c0.802,0,1.527,0.479,1.841,1.218c0.313,0.738,0.156,1.593-0.401,2.17
			c-0.201,0.208-2.038,2.05-4.752,2.648c-2.234,0.492-3.2,1.264-3.617,1.824C41.124,16.633,40.385,17.052,39.542,17.052z"/>
	</g>
</g>
<g id="切片">
	<rect y="-24.999" fill="none" width="55" height="25"/>
	<rect fill="none" width="55" height="25.001"/>
	<rect y="25" fill="none" width="55" height="25"/>
</g>
</svg>
