<?xml version="1.0" encoding="utf-8"?>
<!-- Generator: Adobe Illustrator 16.0.0, SVG Export Plug-In . SVG Version: 6.00 Build 0)  -->
<!DOCTYPE svg PUBLIC "-//W3C//DTD SVG 1.1//EN" "http://www.w3.org/Graphics/SVG/1.1/DTD/svg11.dtd">
<svg version="1.1" xmlns="http://www.w3.org/2000/svg" xmlns:xlink="http://www.w3.org/1999/xlink" x="0px" y="0px" width="55px"
	 height="25px" viewBox="0 0 55 25" enable-background="new 0 0 55 25" xml:space="preserve">
<g id="圖層_1">
	<g>
		<path fill="#4C2E2C" d="M49.916,13.187c0,1.104-0.878,2-1.96,2H7.042c-1.083,0-1.96-0.896-1.96-2v-1.375c0-1.104,0.877-2,1.96-2
			h40.915c1.082,0,1.96,0.896,1.96,2V13.187z"/>
		<path fill="#4C2E2C" d="M47.956,17.187H7.042c-2.184,0-3.96-1.795-3.96-4v-1.375c0-2.206,1.776-4,3.96-4h40.915
			c2.184,0,3.96,1.794,3.96,4v1.375C51.916,15.392,50.14,17.187,47.956,17.187z M7.042,11.812l0.04,1.375h40.832l0.002-1.375H7.042z
			"/>
	</g>
</g>
<g id="切片">
	<rect y="-25" fill="none" width="55" height="25.001"/>
	<rect fill="none" width="55" height="25"/>
	<rect y="24.999" fill="none" width="55" height="25.001"/>
</g>
</svg>
