<?xml version="1.0" encoding="utf-8"?>
<!-- Generator: Adobe Illustrator 16.0.0, SVG Export Plug-In . SVG Version: 6.00 Build 0)  -->
<!DOCTYPE svg PUBLIC "-//W3C//DTD SVG 1.1//EN" "http://www.w3.org/Graphics/SVG/1.1/DTD/svg11.dtd">
<svg version="1.1" xmlns="http://www.w3.org/2000/svg" xmlns:xlink="http://www.w3.org/1999/xlink" x="0px" y="0px" width="55px"
	 height="14px" viewBox="0 0 55 14" enable-background="new 0 0 55 14" xml:space="preserve">
<g id="圖層_1">
	<g>
		<g>
			<path fill="#DE3C3D" d="M28.998,9.568c-0.105,1.21-1.15,2.109-2.336,2.008L5.319,9.744C4.133,9.643,3.255,8.579,3.36,7.369
				l0.128-1.506c0.104-1.21,1.15-2.109,2.336-2.008l21.342,1.832c1.187,0.101,2.063,1.165,1.959,2.375L28.998,9.568z"/>
		</g>
		<g>
			<path fill="#DE3C3D" d="M51.333,10.084c-0.222,1.195-1.349,1.988-2.52,1.771L27.75,7.958c-1.171-0.216-1.941-1.36-1.719-2.554
				l0.274-1.487c0.222-1.195,1.35-1.988,2.52-1.771l21.063,3.897c1.171,0.216,1.94,1.36,1.719,2.555L51.333,10.084z"/>
		</g>
	</g>
	<g>
		<g>
			<g>
				<defs>
					<rect id="SVGID_3_" x="147.881" y="288.459" width="1922" height="1082"/>
				</defs>
				<clipPath id="SVGID_2_">
					<use xlink:href="#SVGID_3_"  overflow="visible"/>
				</clipPath>
				<path opacity="0.9" clip-path="url(#SVGID_2_)" fill="#F6DA97" enable-background="new    " d="M60.766-318.541
					c127.042,23.813,259.253,27.125,390.556,33.848c254.716,13.042,502.349,29.287,756.617,11.44
					c234.412-16.463,468.639,5.144,704.139,17.204c170.268,8.719,339.881-0.503,509.314,7.526
					c126.066,5.975,240.578,11.387,317.361,115.438c49.703,67.348,100.076,147.68,137.043,221.234
					c30.096,59.877,56.793,122.543,84.244,183.513c37.648,83.602,35.102,147.578,30.26,236.334
					c-11.99,219.847-11.996,431.516-97.793,639.049c-48.836,118.127-84.396,180.219-203.33,246.773
					c-145.854,81.614-316.51,155.396-490.957,155.641c-212.016,0.3-415.619-31.296-614.629-101.004
					c-112.963-39.568-217.777-89.293-327.064-132.705c-227.715-90.458-458.02-136.098-699.973-178.064
					c-202.193-35.072-421.263-121.287-539.945-283.939c-125.31-171.73-171.836-389.225-150.693-591.342
					c11.809-112.912,33.545-209.74,80.488-314.902C-29.305-106.916-10.82-259.801,54.091-286.57L60.766-318.541z"/>
			</g>
		</g>
	</g>
</g>
<g id="NO" display="none">
</g>
<g id="切片">
	<rect y="-18.249" fill="none" width="55" height="25"/>
	<rect y="6.75" fill="none" width="55" height="25.001"/>
</g>
</svg>
