<?xml version="1.0" encoding="utf-8"?>
<!-- Generator: Adobe Illustrator 16.0.0, SVG Export Plug-In . SVG Version: 6.00 Build 0)  -->
<!DOCTYPE svg PUBLIC "-//W3C//DTD SVG 1.1//EN" "http://www.w3.org/Graphics/SVG/1.1/DTD/svg11.dtd">
<svg version="1.1" xmlns="http://www.w3.org/2000/svg" xmlns:xlink="http://www.w3.org/1999/xlink" x="0px" y="0px" width="55px"
	 height="22px" viewBox="0 0 55 22" enable-background="new 0 0 55 22" xml:space="preserve">
<g id="圖層_1">
	<path fill="#DF7517" d="M27.493,19.924c-15.067,0-23.399-3.365-24.094-9.731C3.147,7.887,3.602,6.123,4.787,4.801
		c2.069-2.307,5.75-2.729,12.252-2.729c1.352,0,2.822,0.018,4.41,0.036c1.849,0.022,3.86,0.046,6.034,0.046
		c1.508,0,2.937-0.008,4.292-0.015c1.236-0.007,2.413-0.013,3.529-0.013c7.239,0,12.553,0.216,15,3.017
		c1.13,1.293,1.559,3.01,1.275,5.102C50.721,16.577,42.392,19.924,27.493,19.924z"/>
	<g>
		<g>
			<g>
				<defs>
					<rect id="SVGID_3_" x="147.881" y="208.463" width="1922" height="1082"/>
				</defs>
				<clipPath id="SVGID_2_">
					<use xlink:href="#SVGID_3_"  overflow="visible"/>
				</clipPath>
				<path opacity="0.9" clip-path="url(#SVGID_2_)" fill="#F6DA97" enable-background="new    " d="M60.766-398.537
					c127.042,23.813,259.253,27.125,390.556,33.848c254.716,13.042,502.349,29.287,756.617,11.44
					c234.412-16.463,468.639,5.144,704.139,17.204c170.268,8.719,339.881-0.503,509.314,7.526
					c126.066,5.975,240.578,11.387,317.361,115.438c49.703,67.348,100.076,147.68,137.043,221.234
					c30.096,59.877,56.793,122.543,84.244,183.513c37.648,83.602,35.102,147.578,30.26,236.334
					c-11.99,219.847-11.996,431.516-97.793,639.049c-48.836,118.127-84.396,180.219-203.33,246.773
					c-145.854,81.614-316.51,155.396-490.957,155.641c-212.016,0.3-415.619-31.296-614.629-101.004
					c-112.963-39.568-217.777-89.293-327.064-132.705c-227.715-90.458-458.02-136.098-699.973-178.064
					C354.36,1022.618,135.291,936.403,16.608,773.75c-125.31-171.73-171.836-389.225-150.693-591.342
					c11.809-112.912,33.545-209.74,80.488-314.902c24.292-54.418,42.777-207.304,107.688-234.072L60.766-398.537z"/>
			</g>
		</g>
	</g>
</g>
<g id="NO" display="none">
</g>
<g id="切片">
	<rect y="-23.247" fill="none" width="55" height="25.001"/>
</g>
</svg>
