<?xml version="1.0" encoding="utf-8"?>
<!-- Generator: Adobe Illustrator 16.0.0, SVG Export Plug-In . SVG Version: 6.00 Build 0)  -->
<!DOCTYPE svg PUBLIC "-//W3C//DTD SVG 1.1//EN" "http://www.w3.org/Graphics/SVG/1.1/DTD/svg11.dtd">
<svg version="1.1" xmlns="http://www.w3.org/2000/svg" xmlns:xlink="http://www.w3.org/1999/xlink" x="0px" y="0px" width="55px"
	 height="50px" viewBox="0 0 55 50" enable-background="new 0 0 55 50" xml:space="preserve">
<g id="圖層_1">
	<g>
		<g>
			<g>
				<defs>
					<rect id="SVGID_3_" x="75.548" y="435.806" width="1922" height="1082"/>
				</defs>
				<clipPath id="SVGID_2_">
					<use xlink:href="#SVGID_3_"  overflow="visible"/>
				</clipPath>
				<path opacity="0.9" clip-path="url(#SVGID_2_)" fill="#F6DA97" enable-background="new    " d="M-11.567-171.194
					c127.042,23.813,259.253,27.125,390.556,33.848c254.716,13.042,502.349,29.287,756.617,11.44
					c234.412-16.463,468.639,5.144,704.139,17.204c170.268,8.719,339.881-0.503,509.314,7.526
					c126.066,5.975,240.578,11.387,317.361,115.438c49.703,67.348,100.076,147.68,137.043,221.234
					c30.096,59.877,56.793,122.543,84.244,183.513c37.648,83.602,35.102,147.578,30.26,236.334
					c-11.99,219.847-11.996,431.516-97.793,639.049c-48.836,118.127-84.396,180.219-203.33,246.773
					c-145.854,81.614-316.51,155.396-490.957,155.641c-212.016,0.3-415.619-31.296-614.629-101.004
					c-112.963-39.568-217.777-89.293-327.064-132.705C956.478,1372.639,726.173,1327,484.22,1285.033
					c-202.193-35.072-421.263-121.287-539.945-283.939c-125.31-171.73-171.836-389.225-150.693-591.342
					c11.809-112.912,33.545-209.74,80.488-314.902c24.292-54.418,42.777-207.304,107.688-234.072L-11.567-171.194z"/>
			</g>
		</g>
	</g>
	<g>
		<g>
			<g>
				
					<path fill="#4A2E2C" stroke="#4A2E2C" stroke-width="0.5591" stroke-linecap="round" stroke-linejoin="round" stroke-miterlimit="10" d="
					M7.392,17.822V7.101h5.151v0.615H8.007v3.904h4.535v0.661H8.007v4.925h4.535v0.616H7.392z"/>
				
					<path fill="#4A2E2C" stroke="#4A2E2C" stroke-width="0.5591" stroke-linecap="round" stroke-linejoin="round" stroke-miterlimit="10" d="
					M25.501,16.335c-1.031,1.091-2.397,1.637-4.099,1.637c-1.622,0-2.943-0.511-3.964-1.532c-1.031-1.031-1.546-2.357-1.546-3.979
					c0-1.602,0.515-2.918,1.546-3.949C18.479,7.471,19.8,6.95,21.402,6.95c1.922,0,3.434,0.736,4.535,2.208l-0.496,0.375
					c-0.961-1.321-2.307-1.982-4.039-1.982c-1.412,0-2.583,0.465-3.514,1.396c-0.931,0.931-1.396,2.103-1.396,3.514
					c0,1.422,0.46,2.593,1.381,3.514c0.941,0.921,2.117,1.382,3.529,1.382c1.511,0,2.728-0.505,3.649-1.517
					c0.701-0.761,1.101-1.622,1.201-2.583h-3.544v-0.616h4.22C26.928,14.103,26.452,15.334,25.501,16.335z"/>
				
					<path fill="#4A2E2C" stroke="#4A2E2C" stroke-width="0.5591" stroke-linecap="round" stroke-linejoin="round" stroke-miterlimit="10" d="
					M31.207,9.232h-0.3c0.18-0.19,0.27-0.425,0.27-0.706V7.851h-0.496V6.77h0.796v1.757C31.477,8.777,31.387,9.013,31.207,9.232z"/>
				
					<path fill="#4A2E2C" stroke="#4A2E2C" stroke-width="0.5591" stroke-linecap="round" stroke-linejoin="round" stroke-miterlimit="10" d="
					M37.648,17.431c-0.4,0.341-0.881,0.511-1.441,0.511c-0.961,0-1.682-0.436-2.162-1.306l0.525-0.315
					c0.17,0.31,0.375,0.55,0.616,0.721c0.25,0.19,0.59,0.285,1.021,0.285c0.941,0,1.412-0.4,1.412-1.201
					c0-0.35-0.165-0.656-0.496-0.916c-0.1-0.06-0.243-0.127-0.428-0.203c-0.186-0.075-0.413-0.163-0.684-0.263
					c-0.5-0.18-0.861-0.36-1.081-0.541c-0.32-0.26-0.48-0.636-0.48-1.126c0-0.42,0.16-0.781,0.48-1.081
					c0.31-0.31,0.716-0.465,1.216-0.465c0.691,0,1.276,0.24,1.757,0.721l-0.45,0.39c-0.341-0.34-0.776-0.51-1.307-0.51
					c-0.721,0-1.081,0.315-1.081,0.946c0,0.28,0.11,0.511,0.331,0.691c0.18,0.14,0.465,0.275,0.855,0.405
					c0.34,0.12,0.621,0.233,0.841,0.338c0.22,0.105,0.385,0.198,0.495,0.278c0.431,0.331,0.646,0.776,0.646,1.336
					C38.234,16.666,38.039,17.101,37.648,17.431z"/>
				
					<path fill="#4A2E2C" stroke="#4A2E2C" stroke-width="0.5591" stroke-linecap="round" stroke-linejoin="round" stroke-miterlimit="10" d="
					M15.636,34.437l-2.673-8.995l-2.688,8.995L6.836,23.565h0.601l2.808,8.769l2.718-8.964l2.703,8.964l2.808-8.769h0.631
					L15.636,34.437z"/>
				
					<path fill="#4A2E2C" stroke="#4A2E2C" stroke-width="0.5591" stroke-linecap="round" stroke-linejoin="round" stroke-miterlimit="10" d="
					M25.561,33.461c-0.621,0.621-1.381,0.931-2.282,0.931s-1.657-0.305-2.268-0.916c-0.621-0.621-0.931-1.381-0.931-2.282
					c0-0.891,0.311-1.646,0.931-2.268c0.61-0.63,1.367-0.946,2.268-0.946c0.891,0,1.646,0.311,2.267,0.931s0.931,1.381,0.931,2.282
					S26.171,32.85,25.561,33.461z M25.125,29.346c-0.5-0.51-1.116-0.766-1.847-0.766c-0.701,0-1.307,0.26-1.817,0.781
					c-0.521,0.521-0.781,1.131-0.781,1.832c0,0.711,0.255,1.321,0.766,1.832c0.51,0.51,1.121,0.766,1.832,0.766
					c0.721,0,1.331-0.25,1.832-0.75c0.51-0.511,0.766-1.126,0.766-1.847C25.876,30.463,25.626,29.847,25.125,29.346z"/>
				
					<path fill="#4A2E2C" stroke="#4A2E2C" stroke-width="0.5591" stroke-linecap="round" stroke-linejoin="round" stroke-miterlimit="10" d="
					M32.303,29.001c-0.16-0.12-0.33-0.215-0.51-0.285s-0.371-0.105-0.571-0.105c-0.17,0-0.33,0.053-0.48,0.158
					c-0.15,0.105-0.28,0.235-0.39,0.391c-0.11,0.155-0.198,0.328-0.263,0.518c-0.065,0.19-0.097,0.366-0.097,0.525v4.084h-0.616
					v-6.202h0.616v0.841c0.13-0.23,0.3-0.44,0.51-0.63c0.21-0.19,0.44-0.286,0.691-0.286c0.31,0,0.565,0.035,0.766,0.105
					c0.2,0.07,0.425,0.195,0.676,0.375L32.303,29.001z"/>
				
					<path fill="#4A2E2C" stroke="#4A2E2C" stroke-width="0.5591" stroke-linecap="round" stroke-linejoin="round" stroke-miterlimit="10" d="
					M39.601,34.287l-3.243-3.229l-0.346,0.345v2.883h-0.616V23.175h0.616v7.343l2.688-2.673h0.871l-2.808,2.793l3.649,3.649H39.601z
					"/>
				
					<path fill="#4A2E2C" stroke="#4A2E2C" stroke-width="0.5591" stroke-linecap="round" stroke-linejoin="round" stroke-miterlimit="10" d="
					M46.042,33.896c-0.4,0.341-0.881,0.511-1.441,0.511c-0.961,0-1.682-0.436-2.162-1.306l0.525-0.315
					c0.17,0.31,0.375,0.55,0.616,0.721c0.25,0.19,0.59,0.285,1.021,0.285c0.941,0,1.412-0.4,1.412-1.201
					c0-0.35-0.165-0.656-0.496-0.916c-0.1-0.06-0.243-0.127-0.428-0.203c-0.186-0.075-0.413-0.163-0.684-0.263
					c-0.5-0.18-0.861-0.36-1.081-0.541c-0.32-0.26-0.48-0.636-0.48-1.126c0-0.42,0.16-0.781,0.48-1.081
					c0.31-0.31,0.716-0.465,1.216-0.465c0.691,0,1.276,0.24,1.757,0.721l-0.45,0.39c-0.341-0.34-0.776-0.51-1.307-0.51
					c-0.721,0-1.081,0.315-1.081,0.946c0,0.28,0.11,0.511,0.331,0.691c0.18,0.14,0.465,0.275,0.855,0.405
					c0.34,0.12,0.621,0.233,0.841,0.338c0.22,0.105,0.385,0.198,0.495,0.278c0.431,0.331,0.646,0.776,0.646,1.336
					C46.628,33.13,46.433,33.566,46.042,33.896z"/>
			</g>
		</g>
		<g>
			<line fill="#4A2E2C" x1="6.894" y1="40.371" x2="47.014" y2="40.371"/>
			<path fill="#4A2E2C" d="M47.014,41.121H6.894c-0.414,0-0.75-0.336-0.75-0.75s0.336-0.75,0.75-0.75h40.12
				c0.414,0,0.75,0.336,0.75,0.75S47.428,41.121,47.014,41.121z"/>
		</g>
	</g>
</g>
<g id="NO" display="none">
</g>
<g id="切片">
</g>
</svg>
