<?xml version="1.0" encoding="utf-8"?>
<!-- Generator: Adobe Illustrator 16.0.0, SVG Export Plug-In . SVG Version: 6.00 Build 0)  -->
<!DOCTYPE svg PUBLIC "-//W3C//DTD SVG 1.1//EN" "http://www.w3.org/Graphics/SVG/1.1/DTD/svg11.dtd">
<svg version="1.1" xmlns="http://www.w3.org/2000/svg" xmlns:xlink="http://www.w3.org/1999/xlink" x="0px" y="0px" width="55px"
	 height="25px" viewBox="0 0 55 25" enable-background="new 0 0 55 25" xml:space="preserve">
<g id="圖層_1">
	<g>
		<g>
			<path fill="#DE3C3D" d="M28.998,15.067c-0.105,1.21-1.15,2.109-2.336,2.008L5.319,15.243c-1.187-0.101-2.064-1.166-1.959-2.375
				l0.128-1.506c0.104-1.21,1.15-2.109,2.336-2.008l21.342,1.832c1.187,0.101,2.063,1.165,1.959,2.375L28.998,15.067z"/>
		</g>
		<g>
			<path fill="#DE3C3D" d="M51.333,15.583c-0.222,1.195-1.349,1.988-2.52,1.771L27.75,13.456c-1.171-0.216-1.941-1.359-1.719-2.554
				l0.274-1.487c0.222-1.195,1.35-1.988,2.52-1.771l21.063,3.898c1.171,0.216,1.94,1.36,1.719,2.554L51.333,15.583z"/>
		</g>
	</g>
</g>
<g id="切片">
	<rect y="-25" fill="none" width="55" height="25.001"/>
	<rect fill="none" width="55" height="25"/>
	<rect y="24.999" fill="none" width="55" height="25.001"/>
</g>
</svg>
