<?xml version="1.0" encoding="utf-8"?>
<!-- Generator: Adobe Illustrator 16.0.0, SVG Export Plug-In . SVG Version: 6.00 Build 0)  -->
<!DOCTYPE svg PUBLIC "-//W3C//DTD SVG 1.1//EN" "http://www.w3.org/Graphics/SVG/1.1/DTD/svg11.dtd">
<svg version="1.1" xmlns="http://www.w3.org/2000/svg" xmlns:xlink="http://www.w3.org/1999/xlink" x="0px" y="0px" width="55px"
	 height="25px" viewBox="0 0 55 25" enable-background="new 0 0 55 25" xml:space="preserve">
<g id="圖層_1">
	<g>
		<path fill="#F0D795" d="M46.333,18.082H8.667c-3.079,0-5.584-2.505-5.584-5.583s2.505-5.584,5.584-5.584h37.666
			c3.079,0,5.584,2.505,5.584,5.584S49.412,18.082,46.333,18.082z M8.667,10.915c-0.874,0-1.584,0.71-1.584,1.583
			s0.71,1.583,1.584,1.583h37.666c0.874,0,1.584-0.71,1.584-1.583s-0.71-1.583-1.584-1.583l-4.722-1.339l-9.22,0.339L17.012,9.768
			l-2.664,0.147L8.667,10.915z"/>
		<path fill="#F0D795" d="M48.727,8.362H7.332l-3,2.726c0.934,0.16,1.036,1.276,2.43,1.303c3.304,0.051,6.071-1.425,7.622-1.855
			c1.291-0.358,2.297-0.646,4.555-0.597c2.245,0.042,3.242,0.364,4.503,0.771c1.519,0.489,3.239,1.044,6.552,1.107
			c3.319,0.056,5.072-0.424,6.622-0.855c1.289-0.358,2.309-0.64,4.551-0.597c1.975,0.038,2.805,0.456,4.062,1.089
			c1.167,0.588,2.561,1.283,4.761,1.607V8.893C49.552,8.751,49.154,8.573,48.727,8.362z"/>
	</g>
</g>
<g id="切片">
	<rect y="-25.001" fill="none" width="55" height="25.001"/>
	<rect fill="none" width="55" height="25"/>
	<rect y="24.999" fill="none" width="55" height="25.001"/>
</g>
</svg>
