<?xml version="1.0" encoding="utf-8"?>
<!-- Generator: Adobe Illustrator 16.0.0, SVG Export Plug-In . SVG Version: 6.00 Build 0)  -->
<!DOCTYPE svg PUBLIC "-//W3C//DTD SVG 1.1//EN" "http://www.w3.org/Graphics/SVG/1.1/DTD/svg11.dtd">
<svg version="1.1" xmlns="http://www.w3.org/2000/svg" xmlns:xlink="http://www.w3.org/1999/xlink" x="0px" y="0px" width="55px"
	 height="14px" viewBox="0 0 55 14" enable-background="new 0 0 55 14" xml:space="preserve">
<g id="圖層_1">
	<g>
		<path fill="#4C2E2C" d="M49.916,7.685c0,1.104-0.878,2-1.96,2H7.041c-1.082,0-1.96-0.896-1.96-2V6.31c0-1.104,0.878-2,1.96-2
			h40.915c1.082,0,1.96,0.896,1.96,2V7.685z"/>
		<path fill="#4C2E2C" d="M47.956,11.685H7.041c-2.184,0-3.96-1.794-3.96-4V6.31c0-2.206,1.776-4,3.96-4h40.915
			c2.184,0,3.96,1.794,3.96,4v1.375C51.916,9.891,50.14,11.685,47.956,11.685z M7.041,6.31l0.04,1.375h40.832l0.003-1.375H7.041z"/>
	</g>
	<g>
		<g>
			<g>
				<defs>
					<rect id="SVGID_3_" x="147.881" y="232.462" width="1922" height="1082"/>
				</defs>
				<clipPath id="SVGID_2_">
					<use xlink:href="#SVGID_3_"  overflow="visible"/>
				</clipPath>
				<path opacity="0.9" clip-path="url(#SVGID_2_)" fill="#F6DA97" enable-background="new    " d="M60.766-374.538
					c127.042,23.813,259.253,27.125,390.556,33.848c254.716,13.042,502.349,29.287,756.617,11.44
					c234.412-16.463,468.639,5.144,704.139,17.204c170.268,8.719,339.881-0.503,509.314,7.526
					c126.066,5.975,240.578,11.387,317.361,115.438c49.703,67.348,100.076,147.68,137.043,221.234
					c30.096,59.877,56.793,122.543,84.244,183.513c37.648,83.602,35.102,147.578,30.26,236.334
					c-11.99,219.847-11.996,431.516-97.793,639.049c-48.836,118.127-84.396,180.219-203.33,246.773
					c-145.854,81.614-316.51,155.396-490.957,155.641c-212.016,0.3-415.619-31.296-614.629-101.004
					c-112.963-39.568-217.777-89.293-327.064-132.705c-227.715-90.458-458.02-136.098-699.973-178.064
					C354.36,1046.616,135.291,960.401,16.608,797.749c-125.31-171.73-171.836-389.225-150.693-591.342
					c11.809-112.912,33.545-209.74,80.488-314.902c24.292-54.418,42.777-207.304,107.688-234.072L60.766-374.538z"/>
			</g>
		</g>
	</g>
</g>
<g id="NO" display="none">
</g>
<g id="切片">
	<rect y="-24.247" fill="none" width="55" height="25"/>
	<rect y="0.752" fill="none" width="55" height="25.001"/>
</g>
</svg>
